<svg width="70" height="70" viewBox="0 0 70 70" fill="none" xmlns="http://www.w3.org/2000/svg">
<path d="M28.1789 9.5H27.9001C27.9931 9.58793 28.086 9.58793 28.1789 9.5Z" fill="#FEFEFE"/>
<path d="M19.8724 9.62966C19.6868 9.67288 19.5012 9.75932 19.3155 9.80254C18.8051 9.88898 18.3875 10.0619 18.0162 9.54322L17.9698 9.5H17.5522C17.2738 9.58644 16.9954 9.75932 16.9026 9.9322C16.7633 10.3212 16.0673 10.6669 15.6497 10.5805C15.5104 10.5373 15.3712 10.3212 15.3248 10.0619C15.3248 10.1051 15.1392 10.2347 15.0464 10.3212V15.5076C15.0928 15.5076 15.1856 15.5076 15.232 15.5508C15.6961 15.5941 15.8817 16.372 15.5568 16.6746C15 17.1932 15 17.1932 15.6497 17.539C15.7425 17.5822 15.8817 17.7119 15.9281 17.7983C15.9281 17.8847 15.8353 18.0576 15.7425 18.1008C15.5104 18.1441 15.2784 18.2737 15.0464 18.2737V20.3915C15.1392 20.4347 15.2784 20.5212 15.2784 20.5644C15.2784 20.6941 15.232 20.9102 15.0928 20.9966C15.0928 20.9966 15.0464 20.9966 15 20.9966V27.35C15.0928 27.2203 15.2784 27.0907 15.464 27.0475C15.6961 26.961 15.9745 26.9178 16.2065 26.8746C16.4385 26.8314 16.7169 26.7449 16.949 26.7017C17.2738 26.6585 17.5058 26.6153 17.7842 26.9178C18.0162 27.2203 18.2483 27.0907 18.3411 26.7449C18.4339 26.3127 19.2691 25.9669 19.6404 26.1398C19.9652 26.3127 20.058 27.1771 19.826 27.4797C19.5012 27.9119 18.8979 28.2144 18.8515 28.8627C18.8515 29.0788 18.4803 29.1653 18.3411 28.9492C18.0626 28.5602 17.7378 28.6466 17.3666 28.7763C16.5777 29.0356 15.9745 28.6034 15.3248 28.3873C15.1856 28.3441 15.1392 28.128 15.0464 27.9551C15.0464 27.9551 15.0464 27.9551 15.0464 27.9983V30.4619C15.0464 30.4619 15.0464 30.4619 15.0928 30.4619C15.0464 30.3322 15.0464 30.3754 15.0464 30.4186V31.8449C15.1392 31.7585 15.2784 31.7585 15.4176 31.7153C15.5568 31.672 15.7425 31.6288 15.8353 31.6288C15.9745 31.672 16.2065 31.8017 16.2529 31.9314C16.3457 32.3203 15.9745 32.4068 15.6961 32.4932C15.464 32.5364 15.232 32.6661 15.0464 32.5364V33.1415C15.6961 32.9686 16.2993 32.839 16.9954 32.7958C17.7378 32.7525 18.4339 32.4932 19.1299 32.3636C19.3619 32.3203 19.6404 32.3203 19.826 32.4068C20.4292 32.7093 20.8469 32.6229 21.1717 32.1042C21.5429 31.5424 21.4965 31.5424 22.0998 31.8449C22.2854 31.9314 22.5174 31.9746 22.703 31.9746C23.0278 31.9746 23.3527 31.8881 23.7239 31.8881C23.8631 31.8881 24.0951 31.9314 24.0951 31.9746C24.0951 32.1475 24.0951 32.4932 24.0487 32.4932C23.5847 32.5364 23.9559 33.6169 23.1206 33.1415C22.6102 32.839 22.6566 32.839 22.3782 33.3144C22.2854 33.4873 22.0534 33.6169 21.8677 33.6602C21.0789 33.8331 20.29 34.0059 19.4548 34.1356C19.3155 34.1788 19.1299 34.1356 18.9907 34.0492C18.2947 33.7034 17.877 33.7898 17.4594 34.4381C17.2274 34.7839 16.5313 34.9568 16.2529 34.6975C16.0209 34.4381 15.7889 34.4814 15.5104 34.5246C15.3712 34.5678 15.232 34.5678 15.0464 34.611V38.1119C15.1856 38.1551 15.3712 38.2415 15.5568 38.4144C15.9281 38.8034 16.2993 39.1492 16.9026 39.1492C17.0882 39.1492 17.2274 39.2788 17.181 39.4517C17.3202 39.5381 17.4594 39.5814 17.5986 39.6678C17.645 39.711 17.5986 40.0136 17.4594 40.1432C17.3202 40.2729 17.0882 40.2729 16.9026 40.3593C16.7169 40.3593 16.4849 40.4025 16.2529 40.4025C15.7425 40.4025 15.3712 40.6186 15.1392 40.9644C15.1392 41.0508 15.0928 41.0941 15.0464 41.1373V48.9169C15.6032 48.9602 15.7889 49.0898 15.8353 49.6517C15.8817 49.911 15.7425 50.0407 15.5104 50.0839C15.3712 50.1271 15.1856 50.1703 15.0464 50.2136V60.5L23.4455 55.0542C23.3527 55.011 23.3063 54.9678 23.3063 54.9678C23.3063 54.8814 23.3527 54.7517 23.3527 54.622C23.4455 54.6653 23.5847 54.6653 23.5847 54.7517C23.5847 54.7949 23.5847 54.8814 23.5847 54.9246L26.7401 52.8932C26.3689 52.9797 26.0441 53.0661 25.7193 53.1525C25.348 53.239 24.884 53.2822 24.9304 53.8008C24.9304 53.8873 24.7448 53.9737 24.652 54.0169C24.6056 54.0169 24.4664 53.9305 24.4199 53.8441C24.2343 53.5415 24.1879 53.2822 24.3271 53.1093C24.3271 53.0229 24.3271 52.8932 24.2807 52.7636C24.4664 52.8068 24.6056 52.7636 24.6984 52.8068C24.7448 52.8068 24.7448 52.7636 24.7912 52.7636C25.0696 52.6771 25.3016 52.5907 25.3944 52.2449C25.4408 52.1153 25.6264 51.9856 25.8121 51.8992C26.0905 51.8127 26.4153 51.7263 26.6937 51.683C26.9257 51.6398 27.2042 51.5534 27.4362 51.5102C27.993 51.4237 28.0858 51.5102 28.2251 51.9856L35 47.5339L37.7842 49.3492C37.7842 49.0898 38.1554 48.7441 38.5731 48.7008C38.9443 48.6144 39.1299 48.7873 39.2691 49.3059C39.4083 49.8678 39.3619 49.9975 38.9443 50.0839L41.5429 51.7695C41.5893 51.6831 41.6821 51.5966 41.7749 51.5534C42.0069 51.4237 42.3318 51.4237 42.5638 51.3373V51.2941C42.935 51.2508 43.2598 51.1644 43.6311 51.1212C43.7239 51.1212 43.9095 51.2941 43.8631 51.3373C43.8167 51.6398 43.7703 52.072 43.5847 52.1585C43.2598 52.2881 42.9814 52.3746 42.6566 52.461L51.9373 58.5119C52.1694 58.339 52.355 58.2958 52.6334 58.4686C52.7726 58.5551 53.0046 58.4686 53.1902 58.4686C53.6543 58.4254 53.8863 58.7712 53.9791 59.0737C54.0255 59.2034 53.8399 59.4627 53.6543 59.6356L53.7471 59.6788C53.7935 59.5924 53.8863 59.4195 53.9791 59.2466C54.2111 59.4195 54.4431 59.5059 54.4431 59.6356C54.4431 59.7653 54.3503 59.8949 54.2575 60.0246L54.9536 60.4568V56.9127C54.768 57.0856 54.5823 57.2153 54.3503 56.9992C54.0255 56.7398 53.7007 56.5237 53.7007 55.9619C53.7471 55.1407 54.1183 54.7085 54.8608 54.4059C54.9072 54.4059 54.9072 54.4059 54.9536 54.4059V49.7381C54.6287 49.911 54.8144 50.5161 54.3503 50.4297C54.0255 50.3432 53.7935 49.9975 53.3294 50.0839C52.7262 50.2136 52.5406 50.0407 52.355 49.4788C52.1694 49.1763 52.2622 48.9602 52.6334 48.8305C52.7262 48.7873 52.819 48.7873 52.9118 48.7441C52.9118 48.6144 52.9118 48.4415 52.9582 48.3119C53.0046 48.139 53.051 47.8364 53.1902 47.7932C53.3294 47.75 53.6079 47.8364 53.7935 47.9229C53.9327 48.0093 54.0255 48.139 54.1647 48.2686C54.2111 48.3119 54.2575 48.3551 54.3039 48.3983C54.5359 48.3551 54.768 48.2686 55 48.2254V37.4203C54.8144 37.3771 54.5823 37.3339 54.4895 37.2042C54.3503 36.9881 53.9327 36.6856 54.3039 36.3831C54.4431 36.2966 54.8144 36.4695 55 36.5127C55 36.5127 55 36.5127 55 36.5559V27.9983C55 27.9983 55 27.9983 54.9536 27.9983C54.5359 28.0847 54.1647 28.1712 53.7471 28.2144C53.6079 28.2144 53.4223 28.128 53.2366 28.0847C53.3294 27.9551 53.3759 27.7822 53.5151 27.6958C53.7471 27.5661 54.0255 27.5229 54.3039 27.4364C54.5359 27.35 54.7216 27.2636 54.9536 27.1771V9.5H44.9304C44.9768 9.54322 45.0232 9.54322 45.0232 9.58644C44.8376 9.7161 44.652 9.88898 44.4663 10.0186C44.0487 10.2347 43.9095 10.1051 43.7239 9.54322H32.2158C32.0766 9.58644 31.9373 9.62966 31.7517 9.67288C31.3341 9.80254 30.7309 9.75932 30.6844 10.4076C30.6844 10.4508 30.2204 10.5373 30.174 10.4508C29.942 10.0619 29.5708 10.1915 29.2459 10.278C28.5035 10.4076 27.6682 10.3644 26.9257 10.7966C26.8793 10.8398 26.7401 10.8398 26.6937 10.8398C26.3689 10.8398 25.9977 11.0992 25.8121 10.6669C25.6264 10.1915 26.1369 10.1915 26.4153 10.0619C26.6937 9.9322 26.8793 9.88898 26.9722 9.54322V9.5H20.1972C20.1044 9.58644 20.0116 9.62966 19.8724 9.62966ZM18.7123 32.4068C18.4339 32.45 18.109 32.5797 18.0162 32.4932C17.7378 32.2339 18.0162 32.061 18.2483 31.9314C18.4339 31.8017 18.6659 31.4559 18.9443 31.8017C18.9907 31.8449 18.8051 32.1475 18.7123 32.4068ZM16.6241 36.6856C16.3457 36.8585 16.0673 37.0314 15.7425 37.1178C15.6032 37.161 15.4176 36.9017 15.3248 36.8585C15.3248 36.5559 15.232 36.3831 15.2784 36.2102C15.2784 36.1237 15.5104 35.9941 15.5568 35.9941C15.9281 36.1669 16.2529 36.3398 16.5777 36.5559C16.6241 36.5992 16.6241 36.6856 16.6241 36.6856ZM15.7889 11.1424C15.7425 11.1424 15.7889 11.0127 15.7889 10.8831C15.8817 10.8831 15.9745 10.8831 16.0673 10.9263C16.1137 10.9695 16.0673 11.0992 16.0673 11.1424C15.9745 11.1424 15.8353 11.1424 15.7889 11.1424ZM16.2993 25.3619C15.8353 25.4915 15.8353 25.1025 15.7889 24.8432C15.7425 24.6271 15.6497 24.3246 15.9745 24.3246C16.1601 24.3246 16.3457 24.5839 16.5777 24.7568C16.4849 25.0161 16.4385 25.3186 16.2993 25.3619ZM18.3411 20.9966C18.2483 21.0398 18.109 21.0398 17.9234 21.0398C17.9698 20.8669 17.9698 20.7373 18.0162 20.6076C18.109 20.6508 18.2947 20.6508 18.3875 20.7373C18.4339 20.7805 18.3875 20.9966 18.3411 20.9966ZM18.8051 20.1754C18.7587 20.5212 18.7587 20.6941 18.2483 20.5212C17.877 20.3483 17.3666 20.478 16.949 20.478C16.7633 20.478 16.6241 20.5644 16.4385 20.5644C16.3457 20.5644 16.2065 20.478 16.1137 20.3915C16.1601 20.3051 16.2065 20.1754 16.2993 20.1322C16.7169 19.9161 17.181 19.7432 17.5986 19.5703V19.6136C17.7842 19.5703 17.9234 19.5271 18.109 19.4839C18.7123 19.3975 18.8979 19.5703 18.8051 20.1754ZM16.4849 15.3347C16.5777 15.4212 16.6705 15.4644 16.7169 15.5508C16.7169 15.5941 16.6241 15.6805 16.6241 15.7237C16.5313 15.6805 16.4385 15.6373 16.3921 15.5508C16.3457 15.5508 16.4385 15.4644 16.4849 15.3347ZM16.4385 15.2051C16.4385 15.0754 16.4385 14.9025 16.4849 14.7729C16.4849 14.6864 16.6241 14.6432 16.6705 14.6C16.8097 14.5136 16.9026 14.4271 17.0418 14.3839C17.1346 14.3407 17.2274 14.3839 17.3666 14.3839C17.3666 14.4703 17.3666 14.6 17.3202 14.6864C17.2274 14.8593 17.1346 15.0322 16.949 15.1186C16.8097 15.2051 16.6241 15.1619 16.4385 15.2051ZM19.594 17.0636C18.9907 16.8475 18.4339 16.5449 17.9698 16.1559C17.7378 15.9398 17.645 15.5076 17.5986 15.1619C17.5986 15.0322 17.9234 14.8593 18.1555 14.7729C18.4803 14.6432 18.8515 14.6 19.2227 14.5136C19.2227 14.5136 19.2227 14.5136 19.2227 14.5568C19.594 14.4703 19.9652 14.3407 20.3828 14.2975C20.8005 14.2542 21.0789 14.5136 20.8469 14.8161C20.4756 15.2915 20.7541 15.7237 20.8005 16.1559C20.8469 16.4153 20.8469 16.8475 20.7541 16.9339C20.4292 17.0636 19.9188 17.15 19.594 17.0636ZM21.2181 17.0203C21.5893 16.6746 21.8213 16.8907 22.0534 17.15C22.5638 17.6686 22.5638 17.7983 22.0534 18.2305C21.7749 18.3602 21.5429 18.7924 21.1253 18.3602C20.7541 17.928 20.8005 17.4093 21.2181 17.0203ZM21.9142 27.4364C21.8677 27.5661 21.7749 27.6525 21.7285 27.7822C21.6821 27.9551 21.6821 28.2576 21.5429 28.3008C21.2645 28.4305 20.9397 28.5169 20.6613 28.5169C20.3364 28.5169 20.1044 28.0415 20.3364 27.9119C21.0325 27.5229 20.7077 27.0475 20.6148 26.5288C20.5684 26.3559 20.522 26.2263 20.522 26.0534C20.5684 25.9237 20.7077 25.7941 20.8469 25.7941C21.0789 25.7508 21.9606 26.5288 22.0998 26.7449C22.0998 27.0042 22.007 27.2203 21.9142 27.4364ZM22.5638 23.9356C22.4246 23.8924 22.239 23.8492 22.1926 23.7627C22.1462 23.6763 22.239 23.5034 22.239 23.2873C22.4246 23.4169 22.5638 23.4602 22.6102 23.5466C22.6102 23.6331 22.5638 23.8059 22.5638 23.9356ZM22.5638 19.9593C22.471 19.8297 22.6566 19.5271 22.7494 19.1814C23.1206 19.1814 23.4919 19.0517 23.6775 19.1814C24.0023 19.4839 23.6775 19.7 23.4455 19.8729C23.1671 20.0458 22.8422 20.3483 22.5638 19.9593ZM23.7703 27.0907C23.7239 27.0042 23.7239 26.8746 23.6775 26.7017C23.6775 26.6585 23.6311 26.4856 23.5847 26.3559C23.4919 25.8805 23.6311 25.7508 24.1879 25.6212C24.652 25.5347 24.8376 25.7076 24.884 26.0534C24.9768 26.3559 25.0232 26.6585 25.116 26.961C25.2088 27.2636 25.0696 27.4364 24.7448 27.5661C24.0951 27.7822 23.9559 27.6958 23.7703 27.0907ZM27.2506 17.9712C27.3898 18.3602 27.3434 18.7924 27.3434 19.2246C27.3434 19.2678 27.1578 19.3542 27.1114 19.3542C26.5545 19.2678 26.2297 18.7059 26.4153 18.2305C26.4617 18.1441 26.5081 18.0144 26.5081 17.928C26.4617 17.6254 25.3016 16.8042 24.9304 16.8042C24.7448 16.8042 24.5592 16.761 24.4199 16.6746C24.3735 16.6746 24.4199 16.372 24.4664 16.3288C24.6056 16.2424 24.8376 16.2424 25.0232 16.2424C25.1624 16.2424 25.348 16.372 25.4408 16.2856C25.9977 16.0263 26.1833 16.4585 26.4617 16.7178C26.6937 17.0636 26.9722 17.3661 27.1578 17.7551C27.3434 17.6254 27.4826 17.4525 27.7146 17.4093C27.9002 17.3661 28.0858 17.4525 28.3179 17.4958C28.2715 17.5822 28.2715 17.7119 28.2251 17.7551C28.1322 17.8415 27.993 17.8415 27.8538 17.928C27.7146 17.928 27.5754 17.9712 27.4362 17.9712C27.3434 17.9712 27.297 17.8847 27.2042 17.8415C27.2042 17.8415 27.2042 17.928 27.2506 17.9712ZM22.6566 37.1178C22.7494 37.0746 22.8422 36.9881 22.9814 36.9881C23.1671 36.9449 23.3527 36.9449 23.5383 36.9017C23.4919 37.0314 23.4919 37.2042 23.4455 37.3339C23.4455 37.5068 23.3991 37.6364 23.3991 37.8093C23.3991 37.9822 23.3991 38.1551 23.3527 38.2847C23.167 38.1983 22.9814 38.1551 22.8422 38.0254C22.3318 37.6364 22.2854 37.4203 22.6566 37.1178ZM22.4246 39.4085C22.4246 39.4517 22.239 39.5381 22.1462 39.5381C21.7285 39.5814 21.0325 39.0627 20.9397 38.7169C20.9397 38.5441 20.8933 38.4144 20.8933 38.2415C20.8933 37.939 21.2181 37.8093 21.4037 38.0254C21.6357 38.2847 21.9606 38.2847 22.1462 38.4576C22.3318 38.6737 22.3318 39.1059 22.4246 39.4085ZM23.5383 40.1432C23.6775 40.1 23.8631 40.2297 23.9559 40.2297C24.0487 40.3593 24.0487 40.4458 24.0951 40.489C24.1879 40.7483 24.2807 40.9644 24.3271 41.2237C24.2343 41.2237 24.1415 41.3102 24.0951 41.2669C23.8167 41.0076 23.5383 40.7915 23.3063 40.489C23.2599 40.4458 23.3991 40.1432 23.5383 40.1432ZM24.1879 38.5873C24.1415 38.6305 23.8167 38.328 23.8631 38.2847C23.9559 38.0686 24.1879 37.939 24.2343 37.8525C24.5128 37.8093 24.6984 37.7661 24.7912 37.8093C24.9304 37.8525 24.9768 38.0254 25.0696 38.1119C24.7912 38.2847 24.5128 38.4576 24.1879 38.5873ZM24.9768 34.9568C24.7448 34.9136 24.3271 35.0864 24.3271 34.6975C24.3271 34.5246 24.652 34.3517 24.7448 34.2653C25.116 34.222 25.348 34.222 25.58 34.222C26.1833 34.222 26.3225 34.3085 26.4153 34.8703C26.4617 35.0432 26.3225 35.1729 26.2761 35.3458C26.1369 35.3025 25.9513 35.2593 25.8121 35.2161C25.5336 35.1297 25.3016 35 24.9768 34.9568ZM25.8121 32.45C25.7193 32.3636 25.6728 32.2771 25.58 32.2339C25.3944 32.1042 24.9768 32.1042 25.116 31.8017C25.2552 31.5424 25.58 31.4127 25.7657 31.2398C25.9977 31.2398 26.1369 31.2398 26.2761 31.2831C26.5081 31.3263 26.7401 31.4127 26.9722 31.4559C26.8793 31.6288 26.7865 31.8017 26.6937 31.9746C26.6473 32.1042 26.6009 32.2339 26.5545 32.3203C26.4153 32.6661 26.1369 32.7093 25.8121 32.45ZM25.9049 25.2322C26.5081 25.1458 26.7865 25.2322 26.8793 25.6644C27.0186 26.0966 26.9257 26.2695 26.3689 26.3559C25.8121 26.4856 25.7193 26.3992 25.58 25.8373C25.4872 25.578 25.4408 25.3186 25.9049 25.2322ZM24.6056 20.5644C24.7448 20.5212 24.9768 20.5644 25.1624 20.6508C25.348 20.7373 25.4408 20.9102 25.58 21.0831C25.58 21.0831 25.58 21.0831 25.5336 21.0831C25.6264 21.1695 25.7193 21.2992 25.8121 21.3856C26.0905 21.6881 26.2297 21.9475 25.8121 22.2932C25.4408 22.5958 25.116 22.6822 24.7912 22.3364C24.652 22.2068 24.4664 22.0771 24.3271 21.9475C23.8167 21.3856 23.9095 20.8237 24.6056 20.5644ZM19.0835 35.8212C19.1763 35.8212 19.3155 35.8644 19.4084 35.9076C19.3619 35.9941 19.3155 36.1237 19.2691 36.1237C19.1763 36.1669 19.0371 36.1237 18.8515 36.0805C18.9443 35.9508 18.9907 35.8212 19.0835 35.8212ZM16.2993 44.9407C16.3457 44.811 16.5313 44.6814 16.7169 44.5085C16.8561 44.5085 17.181 44.422 17.2274 44.5085C17.4594 44.7678 17.5522 45.1136 17.6914 45.4161C17.6914 45.4161 17.5986 45.5458 17.5986 45.5025C17.181 45.4593 16.7633 45.4593 16.3921 45.3729C16.2993 45.3297 16.2529 45.0271 16.2993 44.9407ZM16.949 54.4924C16.8561 54.622 16.6241 54.7517 16.6241 54.8814C16.5777 55.0975 16.5313 55.3568 16.2529 55.2703C16.0673 55.2271 15.9745 55.011 15.9281 54.9678C15.7425 54.2763 16.2529 53.8441 16.8097 54.0169C17.0882 54.1034 17.1346 54.2763 16.949 54.4924ZM17.181 51.683C17.0418 51.2508 17.0882 51.1212 17.7378 50.9483C17.877 50.9915 18.2019 51.0347 18.3875 51.2076C18.7587 51.5102 18.8515 51.9424 18.7123 52.3746C18.7587 52.4178 18.7123 52.6339 18.6195 52.7203C18.5267 52.8068 18.3411 52.7636 18.0626 52.8068C18.109 52.6771 18.109 52.5907 18.1555 52.5042C17.8306 52.2449 17.3202 52.1585 17.181 51.683ZM19.3155 54.5356C18.8051 54.8381 18.9443 55.2703 18.8979 55.7025C18.8979 55.8322 18.8051 55.9186 18.7123 56.0051C18.6195 55.9186 18.4803 55.8754 18.4339 55.7458C18.2947 55.4864 18.2019 55.2271 18.109 54.9246C17.877 54.3627 17.9234 54.233 18.6659 54.1034C18.7587 54.1034 18.8979 54.0602 19.0835 54.0602C19.3619 54.1466 19.5012 54.4059 19.3155 54.5356ZM19.5012 43.3415C19.2227 43.5576 19.0371 43.2983 18.8515 43.1254C18.7587 43.039 18.7123 42.9525 18.6195 42.8229C18.2947 42.6068 18.109 42.0449 17.413 42.2178C17.0882 42.3042 16.7633 41.9153 16.9954 41.6559C17.2274 41.3102 16.5313 40.4458 17.5986 40.6186C18.1555 40.7051 18.7587 40.7051 18.9907 41.3102C19.0371 41.4398 19.1763 41.6559 19.0835 41.7424C18.7587 42.1746 19.1299 42.4339 19.3619 42.7364C19.5476 42.9093 19.7796 43.0822 19.5012 43.3415ZM19.594 36.5559C19.5012 36.4263 19.6404 36.1669 19.6868 35.8644C19.9188 35.8644 20.1508 35.8644 20.3364 35.8212C20.3828 35.778 20.3828 35.6915 20.4756 35.6915C20.8005 35.5186 21.1253 35.389 21.4501 35.2593C21.4965 35.2593 21.5429 35.2161 21.5893 35.2161C21.4965 35.2161 21.4037 35.2161 21.3109 35.1729C21.2645 35.1297 21.3109 34.9568 21.3573 34.7839C21.5429 34.8271 21.7285 34.8271 21.7749 34.9136C21.8213 34.9568 21.7749 35.0864 21.7749 35.1729C21.9606 35.0864 22.0534 34.9568 22.0534 34.6542C22.0998 34.1788 22.3782 34.1356 22.7958 34.4381C22.935 34.5246 23.0278 34.6975 23.167 34.6975C23.6775 34.7407 23.7239 35.0432 23.7703 35.389C23.8167 35.389 23.8167 35.389 23.8167 35.389C24.0023 35.4322 24.1879 35.4754 24.3735 35.5186C24.3271 35.5619 24.3271 35.6915 24.2807 35.6915C23.9559 35.8212 23.8631 35.6051 23.7703 35.389C23.2599 35.4754 22.7958 35.6051 22.2854 35.6483C21.7285 35.6915 21.3109 35.8644 21.0325 36.2966C20.8933 36.5127 20.7541 36.6424 20.522 36.4695C20.4756 36.4263 20.4292 36.383 20.3828 36.3398C20.3364 36.383 20.29 36.4695 20.2436 36.5127C20.058 36.5992 19.7796 36.8153 19.594 36.5559ZM19.9652 48.3983C19.7796 48.0525 19.7332 47.75 20.1972 47.5771C20.3364 47.5339 20.3828 47.3178 20.4292 47.1881C20.7077 46.6695 21.3573 46.583 21.7749 47.0153C21.8677 47.1017 21.9606 47.1881 22.0998 47.2746C22.239 47.361 22.3782 47.4475 22.5174 47.5339C22.3782 47.6203 22.2854 47.75 22.1462 47.8364C21.8677 48.0525 21.6357 48.3119 21.3573 48.528C21.2181 48.6576 21.0325 48.7008 20.8469 48.8305C20.4756 48.917 20.1508 48.7873 19.9652 48.3983ZM22.1926 53.8008C22.007 53.7576 21.9141 53.5415 21.7285 53.4983C21.4965 53.4119 21.1717 53.4119 21.2645 53.1093C21.3109 52.9364 21.5429 52.85 21.7749 52.7203C22.007 52.7636 22.3782 52.7636 22.471 52.8932C22.6102 53.1093 22.6566 53.4119 22.6566 53.7144C22.6566 53.7144 22.3318 53.8441 22.1926 53.8008ZM22.7494 51.683C22.6102 51.683 22.471 51.6398 22.2854 51.5534C22.3782 51.3805 22.471 51.2076 22.5174 51.2076C22.6566 51.2076 22.7958 51.2941 22.8886 51.3805C22.935 51.4237 22.7958 51.683 22.7494 51.683ZM23.2599 47.4042C22.9814 47.6203 22.7958 47.4907 22.6102 47.2746C22.239 46.8424 21.8677 46.4534 21.4965 46.0212C21.1253 45.6322 20.8005 45.2432 20.4292 44.8542C20.2436 44.6381 20.1044 44.422 20.4292 44.2492C20.7077 44.0763 20.8469 44.2492 20.9861 44.422C21.6821 45.2 22.4246 45.978 23.167 46.7127C23.3991 46.972 23.5383 47.1881 23.2599 47.4042ZM25.8585 49.8246C25.7657 49.911 25.6728 49.9975 25.58 50.0839C25.58 50.1271 25.6264 50.1703 25.6264 50.2136C25.7193 50.6025 25.58 51.1212 25.348 51.0347C25.116 50.9915 24.9768 50.7322 24.6984 50.5161C24.8376 50.3 24.884 50.0839 24.9768 49.9975C24.884 49.911 24.652 49.9542 24.5128 49.911C24.2807 49.8246 24.0023 49.8246 23.8631 49.6517C23.3527 49.2195 23.3527 49.0466 23.9559 48.6144C24.1879 48.3983 24.3735 48.3551 24.7448 48.528C25.116 48.7008 25.6264 48.4847 25.9513 48.9602C26.2297 49.3059 26.0905 49.5653 25.8585 49.8246ZM26.2761 37.4636C26.3689 37.3771 26.4617 37.2475 26.4617 37.1178C26.4153 36.6856 26.7865 36.5992 27.2506 36.5127C27.3434 36.5559 27.6218 36.5992 27.7146 36.7288C27.8538 36.9881 28.1322 37.3339 27.761 37.6364C27.6682 37.7229 27.529 37.7229 27.4826 37.8093C27.2506 38.5441 26.9722 38.4144 26.4153 38.0254C26.0905 37.8093 25.9049 37.7661 26.2761 37.4636ZM26.3225 42.3907C26.4153 42.3907 26.6009 42.3907 26.6009 42.4339C26.6473 42.5203 26.6009 42.65 26.6473 42.7797C26.5545 42.7797 26.4617 42.7797 26.2761 42.7797C26.2761 42.65 26.2761 42.5203 26.3225 42.3907ZM26.9257 51.5534C26.8329 51.5966 26.6009 51.5534 26.5081 51.5102C26.4617 51.4237 26.4617 51.2076 26.5545 51.1212C26.6473 51.0347 26.8329 51.1212 27.065 51.1212C27.0186 51.2941 27.0186 51.4669 26.9257 51.5534ZM28.4107 46.2805C28.3179 46.4534 28.2251 46.583 28.1786 46.7559C28.0394 47.0585 27.4362 47.3178 27.1114 47.1449C27.065 47.1017 26.9722 46.972 27.0186 46.8856C27.297 46.4102 27.5754 45.9347 27.8538 45.5025C27.9466 45.3729 28.0858 45.2432 28.1786 45.1136C28.3179 45.2432 28.4571 45.3729 28.6427 45.589C28.5963 45.8483 28.5499 46.0644 28.4107 46.2805ZM29.1531 37.939C28.7355 38.0254 28.7819 37.6797 28.6891 37.4203C28.5963 37.2042 28.5035 36.9017 28.8747 36.8585C29.0603 36.8153 29.2459 37.0746 29.5708 37.2475C29.3851 37.55 29.2923 37.8958 29.1531 37.939ZM31.0093 46.6695C30.7773 46.7559 30.638 46.8424 30.4988 46.8856C30.3596 46.9288 30.2204 46.8856 30.0812 46.9288C30.0812 46.7992 30.0812 46.6695 30.1276 46.583C30.174 46.4534 30.2668 46.3237 30.3596 46.2373C30.4988 46.1508 30.6844 46.0212 30.8701 46.0212C30.9629 46.0212 31.1485 46.1941 31.1485 46.2805C31.1485 46.4102 31.0557 46.583 31.0093 46.6695ZM31.2877 33.833C31.2413 34.0059 30.9629 34.0924 30.6844 34.3085C30.2204 34.1788 29.71 34.0492 29.2459 33.8763C29.1531 33.8331 29.0603 33.6169 29.1067 33.5305C29.2923 33.1847 29.5708 32.839 29.8028 32.5364C29.8492 32.4932 30.0348 32.4932 30.0348 32.5364C30.2668 32.9686 30.7773 32.9254 31.1021 33.1415C31.2413 33.228 31.3341 33.6169 31.2877 33.833ZM31.2413 31.0237C31.1485 31.0669 31.0093 31.0669 30.9165 31.1102C30.9629 31.0237 30.9629 30.9805 31.0093 30.8941C30.8701 30.8941 30.7773 31.0237 30.6844 31.1966C30.3132 31.8449 29.8028 31.9314 29.1067 31.5424C28.9211 31.4559 28.6427 31.4559 28.4107 31.4559C28.1786 31.4559 27.8538 31.5856 27.8074 31.2398C27.8074 31.1102 28.0858 30.8941 28.3179 30.8076C28.5963 30.678 28.9211 30.6347 29.1995 30.5483C29.5244 30.4186 29.9884 30.3754 30.174 30.1161C30.4988 29.7271 30.7309 29.4678 31.2413 29.8568C31.2877 29.9 31.6125 29.7703 31.6589 29.6839C31.8909 29.1653 32.4014 29.0356 32.819 29.2085C33.0974 29.2949 33.2831 29.7703 33.3295 30.1161C33.3759 30.6347 33.051 30.9373 32.4942 31.1102C32.4478 31.1102 32.4014 31.1534 32.4014 31.1102C31.9373 31.2398 31.5661 31.4559 31.2413 31.0237ZM29.0603 26.0966C29.478 25.7941 29.6636 25.7941 30.0348 26.2263C30.3132 26.4856 30.3596 26.7449 29.9884 27.0042C29.6172 27.3068 29.4315 27.2636 29.0603 26.8746C28.7819 26.6585 28.6891 26.3992 29.0603 26.0966ZM28.8283 24.3246C28.8283 24.1949 28.9211 23.9356 29.0139 23.8924C29.2923 23.7627 29.4315 23.9788 29.478 24.1949C29.5244 24.2814 29.5244 24.3678 29.5708 24.5407C29.5708 24.5407 29.6636 24.6703 29.6172 24.8C29.5708 24.9297 29.478 25.1025 29.3851 25.1458C29.2923 25.189 29.0603 25.0593 29.0139 24.9297C28.8747 24.7136 28.8283 24.4975 28.8283 24.3246ZM30.174 22.4229C30.0812 22.5093 29.7564 22.5525 29.6636 22.4661C29.2923 22.1203 28.9675 21.7314 28.6891 21.3424C28.6427 21.2559 28.7355 21.0398 28.7355 20.9102C28.8747 20.9534 29.0603 20.9534 29.1995 20.9966C29.4315 21.1695 29.6172 21.3856 29.8028 21.5585C29.942 21.6881 30.1276 21.7746 30.174 21.9042C30.2204 22.0771 30.2668 22.3364 30.174 22.4229ZM28.9675 15.5508C28.8747 15.5508 28.7819 15.5076 28.6891 15.4212C28.5963 15.2915 28.4571 15.1186 28.4107 14.9458C28.4107 14.8161 28.5035 14.6432 28.5963 14.5136C28.7355 14.6 28.8747 14.6864 29.0139 14.8161C29.0603 14.8593 29.0603 14.9025 29.0603 14.989C29.0603 15.1186 29.1067 15.2483 29.1067 15.378C29.1067 15.378 29.0139 15.5076 28.9675 15.5508ZM31.1949 24.3678C31.1949 24.2814 31.2877 24.1517 31.3341 24.1085C31.6589 23.8492 32.0766 23.6763 32.1694 23.2008C32.2158 22.9415 32.7262 22.9847 32.819 23.2441C33.051 23.8492 33.2367 24.4975 33.3759 25.1458C33.4687 25.5347 33.1438 25.6212 32.8654 25.6644C32.7726 25.6644 32.6798 25.7076 32.587 25.7076C31.4269 25.8805 30.9629 25.4915 31.1949 24.3678ZM32.2158 28.7763C32.2158 28.8627 31.9373 29.0356 31.8445 29.0356C31.6589 28.9492 31.4733 28.8195 31.3341 28.6466C31.2413 28.5602 31.1949 28.4737 31.1949 28.3441C31.1949 28.1712 31.2413 27.9983 31.2413 27.8254C31.4269 27.8686 31.6125 27.9119 31.7517 27.9551C31.8445 27.9983 31.9373 28.0847 32.123 28.2576C32.1694 28.3873 32.2622 28.6034 32.2158 28.7763ZM32.0302 32.839C32.1694 32.7525 32.3086 32.7093 32.4942 32.6229C32.6334 32.6229 32.8654 32.5364 32.9582 32.6229C33.051 32.7093 33.051 32.8822 33.0974 33.0551C32.7262 33.0551 32.355 33.0983 31.9837 33.0983C32.0302 33.0119 31.9837 32.839 32.0302 32.839ZM32.0766 36.8153C31.8909 36.6856 31.7053 36.5559 31.5197 36.4263C31.7053 36.2966 31.9373 36.167 32.123 36.0373C32.2622 35.9508 32.4478 35.9508 32.7262 35.8212C32.819 35.8644 33.1438 35.8212 33.2831 35.9508C33.4687 36.1669 33.3759 36.383 33.0974 36.5559C32.9582 36.6424 32.9582 36.8585 32.819 36.9449C32.6798 37.0314 32.4478 37.0314 32.2622 37.0314C32.2158 37.0314 32.123 36.9017 32.0766 36.8153ZM32.819 48.5712C32.6798 48.528 32.5406 48.528 32.4478 48.4847C32.4014 48.4415 32.4478 48.3119 32.4478 48.139C32.6334 48.2254 32.7262 48.2254 32.7726 48.3119C32.819 48.3551 32.819 48.4847 32.819 48.5712ZM33.1438 45.8051C33.0046 45.6754 32.8654 45.5025 32.7262 45.3297C32.6334 45.2432 32.5406 45.1136 32.4478 45.0271C32.587 44.9407 32.7262 44.8542 32.9118 44.7246C33.0974 44.7678 33.3759 44.7678 33.4687 44.8975C33.6543 45.1136 33.7471 45.4161 33.7471 45.6754C33.7471 45.8915 33.3759 45.978 33.1438 45.8051ZM34.0255 30.8508C33.8863 30.8941 33.7007 30.8941 33.6079 30.8508C33.5615 30.8076 33.5615 30.6347 33.5615 30.4186C33.7935 30.4619 33.9327 30.4619 34.0719 30.5483C34.0719 30.5915 34.0719 30.8508 34.0255 30.8508ZM34.3039 20.2619C34.2575 20.2186 34.3967 20.089 34.4431 19.9593C34.5824 20.0025 34.7216 20.0458 34.8144 20.1322C34.8608 20.1754 34.768 20.3483 34.7216 20.5212C34.536 20.4347 34.3503 20.3483 34.3039 20.2619ZM34.9072 22.4661C34.9536 22.4229 35.1392 22.4661 35.3712 22.4661C35.2784 22.6822 35.2784 22.8119 35.1856 22.8983C35.1392 22.9415 34.8608 22.8983 34.8608 22.8551C34.8144 22.7254 34.8144 22.5525 34.9072 22.4661ZM34.4895 32.6229C34.536 32.5797 34.6752 32.5364 34.768 32.5364C35.9745 32.45 36.6241 33.228 37.2274 33.9627C37.5522 34.3517 37.2274 34.5246 36.9489 34.7407C36.6705 34.9568 36.3921 35.0864 36.1137 34.7407C35.8353 34.4381 35.6032 34.1788 35.3248 33.8763C35.3248 33.8763 35.3248 33.8763 35.3712 33.8763C35.0928 33.5305 34.768 33.228 34.4895 32.8822C34.4895 32.839 34.4431 32.7093 34.4895 32.6229ZM35.3712 28.2576C35.6032 28.3441 35.7889 28.4305 35.9281 28.4737C36.0673 28.6898 36.1601 28.7763 36.2065 28.9059C36.2529 28.9492 36.2065 29.0788 36.1601 29.122C36.1137 29.1653 35.9745 29.1653 35.9281 29.122C35.7889 29.0356 35.6496 28.9492 35.6032 28.8627C35.5104 28.6898 35.464 28.4737 35.3712 28.2576ZM36.7633 25.3186C36.9953 25.189 37.1346 25.0593 37.3202 25.0161C37.413 24.9729 37.5986 25.1025 37.5986 25.1025C37.5986 25.4915 37.5986 25.9237 37.5058 26.3127C37.5058 26.3559 37.181 26.4856 37.1346 26.4424C36.9025 26.2263 36.6705 26.0102 36.5313 25.7508C36.5313 25.6644 36.7169 25.4483 36.7633 25.3186ZM42.9814 31.9746C43.3991 31.6288 43.5383 31.6288 43.9095 31.9746C44.3271 32.4068 44.3271 32.5364 43.9095 32.8822C43.4455 33.2712 43.3062 33.2712 42.935 32.8822C42.5174 32.45 42.5638 32.3203 42.9814 31.9746ZM43.7239 29.8136C44.0951 29.7271 44.2343 29.9432 44.2807 30.2458C44.4199 30.8076 44.3271 30.9805 43.7703 31.1102C43.2598 31.2398 43.0742 31.1534 42.9814 30.678C42.8886 30.289 43.2134 29.9 43.7239 29.8136ZM44.6056 38.1119C44.6984 38.1983 44.6056 38.3712 44.6056 38.5441C44.4663 38.5441 44.2343 38.5873 44.1415 38.5008C44.0487 38.4144 44.0951 38.2415 44.0487 38.0254C44.3271 38.0254 44.5592 38.0254 44.6056 38.1119ZM42.9814 35.9941C43.1206 36.2102 43.2598 36.2966 43.3063 36.4695C43.3527 36.6424 43.3527 36.8585 43.2598 36.9881C43.167 37.0746 42.8886 37.0746 42.7494 37.0314C42.471 36.9449 41.9605 36.2966 41.9605 35.9941C41.9605 35.8212 41.9605 35.6483 41.9605 35.4754C42.1462 35.5186 42.3318 35.5619 42.5174 35.6915C42.703 35.778 42.8886 35.9076 42.9814 35.9941ZM41.9141 34.8271C41.5429 34.611 41.2645 34.4381 40.8005 34.4814C40.7076 34.5678 40.6148 34.6975 40.522 34.7839C40.2436 34.6975 40.0116 34.6542 39.7796 34.5678C39.9188 34.4381 40.058 34.3085 40.1972 34.222C40.0116 33.9627 39.8724 33.5737 40.0116 33.3576C40.058 33.2712 40.1508 33.1847 40.1508 33.0551C40.29 32.3636 40.29 32.3203 40.9397 32.7958C41.0325 32.8822 41.1717 32.9686 41.2645 33.0551C41.2645 33.0551 41.2181 33.0551 41.2181 33.0983C41.5893 33.5305 41.9605 34.0059 42.2854 34.4814C42.3782 34.611 42.3782 34.7839 42.3782 34.9136C42.239 34.8703 42.0534 34.9136 41.9141 34.8271ZM41.5429 30.3754C41.0325 30.7644 40.8933 30.7212 40.4292 30.2025C40.1508 29.8568 40.2436 29.4246 40.754 29.0788C41.0789 28.8627 41.3573 28.9492 41.7285 29.4246C42.1462 29.8136 42.0998 29.9864 41.5429 30.3754ZM40.7076 30.9373C40.3828 31.1534 40.058 31.3695 39.7332 31.5856C39.6868 31.6288 39.594 31.6288 39.3155 31.672C39.2691 31.672 39.1763 31.672 38.9907 31.7153C39.0371 31.7585 39.0371 31.7585 39.0835 31.8017C39.1763 31.8881 39.1299 32.2339 39.0371 32.2771C38.8515 32.3203 38.5731 32.3203 38.4803 32.2339C38.2018 32.0178 38.0162 31.7585 37.6914 31.3695C37.5522 31.1966 37.3202 30.9373 37.1346 30.6347C37.0882 30.5483 37.1346 30.3322 37.181 30.2025C37.181 30.1593 37.4594 30.1593 37.5522 30.2458C37.877 30.5483 38.1554 30.8076 38.4803 31.1102C38.5267 31.0237 38.5731 30.9805 38.5731 30.8941C38.6659 30.678 38.7123 30.3754 38.8515 30.3322C39.1763 30.2458 39.5011 30.3322 39.826 30.3754L39.8724 30.4186C40.1972 30.6347 40.4292 30.7644 40.7076 30.9373ZM37.4594 36.1669C37.2274 35.8644 37.2738 35.6483 37.5522 35.389C37.877 35.1297 38.109 35.2161 38.3875 35.4754C38.7123 35.8212 39.0835 36.0805 39.4547 36.3831C39.7332 36.6856 39.9188 36.9449 39.4547 37.2475C38.9443 37.6364 38.8051 37.6364 38.3875 37.2042C38.109 36.9017 37.7842 36.5127 37.4594 36.1669ZM37.5522 42.261C37.4594 42.261 37.3666 42.261 37.181 42.261C37.2274 42.0881 37.2274 41.9585 37.2738 41.872C37.2738 41.8288 37.5522 41.872 37.5522 41.9153C37.5986 42.0017 37.5522 42.1314 37.5522 42.261ZM35.2784 44.6814C35.1856 44.7246 35.0464 44.6814 34.9536 44.6814C35 44.5949 35 44.5517 35.0464 44.4653C35.1392 44.422 35.232 44.3356 35.3712 44.2924C35.4176 44.2924 35.5104 44.422 35.6032 44.4653C35.464 44.5085 35.4176 44.6381 35.2784 44.6814ZM36.1601 47.4475C35.9281 47.2746 35.7424 47.1881 35.7424 47.1017C35.7424 46.972 35.8817 46.8424 35.9745 46.6695C36.1137 46.7559 36.2993 46.7992 36.3457 46.8856C36.3457 47.0153 36.2065 47.1881 36.1601 47.4475ZM36.8561 47.7068C36.7633 47.7068 36.6705 47.6636 36.4849 47.6203C36.6705 47.4907 36.7633 47.4042 36.8561 47.361C36.9025 47.361 36.9953 47.4907 37.0418 47.5339C36.9953 47.5771 36.9489 47.6636 36.8561 47.7068ZM39.7332 44.2059C39.4547 44.3356 38.9907 44.4653 38.7123 44.3788C38.2947 44.2059 38.0626 44.1627 37.877 44.6381C37.8306 44.7678 37.645 44.9407 37.4594 44.9839C37.2274 45.0271 36.8097 45.0703 36.7169 44.9407C36.4849 44.5949 36.9489 44.5517 37.1346 44.3788C37.5522 43.9466 38.2018 43.6441 38.2947 42.9525C38.2947 42.8661 38.4803 42.7364 38.5731 42.6932C38.8051 42.65 39.7332 43.2983 39.826 43.6873C39.826 43.7737 39.8724 44.1195 39.7332 44.2059ZM41.2181 49.3924C41.2181 49.4356 40.9397 49.522 40.9397 49.522C40.8005 49.3059 40.6148 49.0466 40.5684 48.7873C40.522 48.7008 40.6148 48.4847 40.754 48.3983C40.8005 48.3551 41.0325 48.3983 41.0789 48.4847C41.1717 48.6144 41.2181 48.7873 41.2645 48.9169C41.2645 49.0898 41.2645 49.2195 41.2181 49.3924ZM41.6821 47.1881C41.5893 47.2314 41.4501 47.2746 41.3573 47.2746C41.1717 47.2746 40.9397 47.2746 40.754 47.2746C40.8005 47.0585 40.8469 46.8856 40.8933 46.7559C41.1253 46.6263 41.2181 46.4966 41.3573 46.4534C41.7285 46.3237 41.8677 46.583 41.9605 46.8424C42.0069 46.9288 41.8213 47.1017 41.6821 47.1881ZM41.8213 39.8839C41.4037 40.2297 40.9861 40.5322 40.5684 40.878C40.7076 41.0941 41.0325 41.2669 40.6612 41.5263C40.6148 41.5695 40.4292 41.5695 40.3364 41.483C40.0116 41.1805 40.3828 41.0508 40.522 40.8347C40.3364 40.6186 40.1044 40.4025 40.3828 40.0568C40.4756 39.9271 40.4756 39.711 40.4292 39.5381C40.3364 39.0627 40.754 38.8034 41.0789 38.8034C41.4037 38.8034 41.7285 39.1492 42.0069 39.3653C42.0998 39.4517 41.9141 39.7975 41.8213 39.8839ZM43.1206 48.3551C43.0278 48.3551 42.935 48.3551 42.8422 48.3119C42.7958 48.3119 42.8422 48.1822 42.7958 48.0525C42.935 48.0958 43.0278 48.0958 43.1206 48.139C43.167 48.139 43.1206 48.2686 43.1206 48.3551ZM43.0742 42.1746C42.7958 42.2178 42.4246 41.6992 42.471 41.3966C42.5174 41.0076 42.9814 40.6186 43.3527 40.7051C43.4455 40.7051 43.5383 40.8347 43.6775 40.8347C43.9095 40.878 44.3735 40.6186 44.4199 40.9644C44.4663 41.267 44.1879 41.5695 44.0487 41.9153C43.6311 42.0017 43.3527 42.1314 43.0742 42.1746ZM44.3735 48.0958C44.2807 48.139 44.0951 48.0093 43.8631 47.9661C44.0023 47.7932 44.0951 47.6203 44.1879 47.5771C44.2807 47.5339 44.4199 47.6636 44.5592 47.75C44.5127 47.8364 44.4663 48.0525 44.3735 48.0958ZM44.5592 46.1508C44.6056 46.0212 44.6056 45.8915 44.652 45.8483C44.6984 45.8051 44.8376 45.8483 45.0232 45.8483C44.9304 46.0212 44.9304 46.1076 44.8376 46.1508C44.7912 46.1941 44.652 46.1508 44.5592 46.1508ZM47.2042 40.1C47.3434 40.1 47.6218 40.4458 47.5754 40.5322C47.4362 40.9644 47.7146 41.1805 47.9002 41.483C47.993 41.6127 47.9002 41.872 47.9466 42.0449C47.761 42.0017 47.4826 42.0449 47.3434 41.9585C46.9721 41.6559 46.6473 41.3102 46.2761 40.9212C46.0905 40.7051 45.8585 40.4458 45.6264 40.1864C45.4408 39.9703 45.348 39.7975 45.58 39.5381C45.8121 39.322 46.0441 39.4085 46.2297 39.5814C46.4617 39.8839 46.7401 40.1432 47.2042 40.1ZM46.3225 29.5975C46.4617 29.511 46.5081 29.3814 46.6009 29.3814C46.6937 29.3814 46.7865 29.4678 46.8329 29.5542C46.8329 29.5975 46.7401 29.7271 46.6473 29.7703C46.5545 29.7271 46.4617 29.6407 46.3225 29.5975ZM47.2506 37.5932C47.2506 37.5068 47.3434 37.3771 47.3898 37.2475C47.6218 37.3771 47.9002 37.4636 48.0858 37.5932C48.2714 37.7229 48.5035 37.9822 48.225 38.1983C48.1322 38.2847 47.9466 38.2847 47.8538 38.2415C47.7146 38.1551 47.6218 38.0254 47.4826 37.939C47.3898 37.8093 47.297 37.7229 47.2506 37.5932ZM46.7401 48.8737C46.6937 49.0034 46.6937 49.133 46.6473 49.2195C46.6473 49.2627 46.4153 49.2195 46.3689 49.1763C46.2761 49.0898 46.2761 49.0034 46.1833 48.8305C46.5545 48.8305 46.6473 48.8305 46.7401 48.8737ZM45.9049 43.039C45.3944 43.2119 45.3944 42.7364 45.3016 42.4771C45.3016 42.3042 45.2552 42.1314 45.2552 42.0017C45.3016 41.9153 45.3944 41.7856 45.5336 41.7424C45.6264 41.6992 45.812 41.7856 45.9049 41.872C45.9977 42.0017 46.0441 42.1314 46.0905 42.3042C46.1833 42.5636 46.3689 42.9093 45.9049 43.039ZM45.8121 35.6051C45.7192 35.6483 45.5336 35.6483 45.4408 35.5619C45.348 35.5186 45.348 35.389 45.2552 35.1729C45.6264 35.2593 45.7656 35.2593 45.8585 35.3458C45.9513 35.389 45.9049 35.6051 45.8121 35.6051ZM45.58 33.5737C45.4408 33.5305 45.2552 33.4873 44.9768 33.4008C45.1624 33.1415 45.2088 32.9686 45.348 32.9254C45.3944 32.8822 45.6728 33.0119 45.7192 33.0983C45.7192 33.2712 45.6264 33.4441 45.58 33.5737ZM45.2088 51.9424C45.1624 51.9856 45.0232 51.8559 44.7912 51.7695C44.9768 51.5966 45.116 51.4237 45.2552 51.3805C45.348 51.3373 45.4872 51.5534 45.58 51.6398C45.4872 51.7695 45.3944 51.8992 45.2088 51.9424ZM46.6009 52.9797C46.4153 53.0229 46.0905 53.1093 45.9977 53.0661C45.812 52.85 45.6728 52.5042 45.5336 52.2449C45.6728 52.2017 45.8585 52.1153 45.9049 52.1585C46.2297 52.5042 46.8329 51.8127 46.9721 52.461C47.0185 52.5475 46.7401 52.7636 46.6009 52.9797ZM47.2042 51.4237C47.0185 51.2941 46.9721 51.0347 46.8793 50.9051C46.8329 50.6458 46.8329 50.4729 46.8329 50.2568C46.8329 50.0407 46.8793 49.7814 46.8793 49.5653C47.0649 49.6949 47.2506 49.8246 47.4362 49.911C47.529 49.9542 47.7146 49.9975 47.8538 49.9975C48.225 50.0839 48.5499 50.6458 48.4571 50.9915C48.3178 51.2941 47.4362 51.5966 47.2042 51.4237ZM49.8028 54.8814C49.7564 54.9246 49.71 54.9678 49.71 55.011C49.6636 55.2703 49.71 55.7025 49.6172 55.7025C49.2459 55.7458 48.8283 55.7458 48.4571 55.7025C48.3643 55.7025 48.1786 55.4 48.225 55.3136C48.3178 55.0542 48.5499 54.7949 48.7355 54.5788C48.9211 54.4924 49.0603 54.4059 49.2459 54.4059C49.4315 54.3627 49.71 54.2763 49.8492 54.3627C50.1276 54.4924 49.942 54.7085 49.8028 54.8814ZM48.5035 47.9661C48.5963 47.8797 48.7819 47.9229 49.0139 47.8797C48.9675 48.0525 49.0139 48.2254 48.9211 48.2686C48.7819 48.3119 48.6427 48.3119 48.5035 48.3119C48.4571 48.2254 48.4107 48.0093 48.5035 47.9661ZM51.1949 57.6475C51.0557 57.4746 50.9629 57.4314 50.9629 57.3881C50.9165 57.2585 50.8701 57.0856 50.8701 56.9559C51.0557 56.9992 51.1949 57.0424 51.3805 57.0856C51.4269 57.0856 51.4733 57.172 51.4733 57.2153C51.5661 57.3881 51.6125 57.6042 51.6589 57.7771C51.4269 57.6907 51.2413 57.6475 51.1949 57.6475ZM51.4269 55.8754C51.2413 55.7458 51.1021 55.5297 50.9165 55.3568C50.9629 55.1407 51.0093 54.9246 51.1021 54.7949C51.1485 54.7517 51.4733 54.7517 51.4733 54.7949C51.6125 55.0975 51.6589 55.4432 51.7517 55.7458C51.7517 55.7458 51.4733 55.9186 51.4269 55.8754ZM53.051 52.2881C53.4687 51.9856 53.6079 52.0288 54.0719 52.5475C54.3039 52.8068 54.5359 53.0661 54.0719 53.3686C53.5151 53.7576 53.2366 53.8008 52.9582 53.4983C52.5406 53.0229 52.587 52.6771 53.051 52.2881ZM52.8654 54.4059C53.0046 54.3195 53.2366 54.3195 53.4223 54.2763C53.4223 54.3627 53.4687 54.4924 53.4223 54.5356C53.3294 54.6653 53.2366 54.7085 53.0974 54.8381C53.0046 54.8814 52.9118 54.9678 52.819 55.011C52.7262 55.011 52.6334 54.9678 52.5406 54.9246C52.6334 54.7517 52.6798 54.5356 52.8654 54.4059ZM51.3805 51.8559C50.9629 52.1153 50.6844 52.461 50.2668 52.7636C50.1276 52.8932 49.8028 52.9797 49.6636 52.8932C49.3851 52.7636 49.4779 52.5475 49.5243 52.2881C49.5708 51.7263 49.6172 51.2508 50.2204 50.9483C50.2668 50.9483 50.2668 50.8619 50.3132 50.8186C50.2204 50.8619 50.0812 50.8619 49.9884 50.9051C49.8956 50.9483 49.71 50.9915 49.5708 50.9915C49.4315 50.9915 49.2459 50.9051 49.1531 50.8186C49.1067 50.689 49.1067 50.5161 49.1531 50.3864C49.2459 50.1703 49.3851 49.9542 49.5243 49.7381C49.6172 49.6085 49.8028 49.4788 49.9884 49.4356C50.0812 49.4356 50.174 49.3924 50.2668 49.3924C50.3132 49.2627 50.406 49.133 50.4988 49.0466C50.5916 49.0034 50.8237 49.0898 50.9165 49.1763C50.9629 49.2195 51.0557 49.3059 51.1021 49.3492C51.4733 49.3492 51.5661 49.4788 51.6589 49.911C51.6589 49.911 51.6589 49.911 51.6589 49.9542C52.7262 50.9483 52.6798 51.0347 51.3805 51.8559ZM50.9629 46.2805C50.9629 46.1941 51.0093 46.1076 51.0557 46.0212C51.1485 46.1076 51.2877 46.1508 51.3341 46.2373C51.3805 46.2805 51.2877 46.4102 51.1949 46.583C51.0557 46.4102 50.9629 46.3669 50.9629 46.2805ZM52.0301 42.3907C52.2622 42.4771 52.4478 42.5203 52.4942 42.6068C52.5406 42.65 52.4942 42.9093 52.4478 42.9525C52.3086 42.9958 52.123 42.9958 52.0301 42.9093C51.9837 42.8229 52.0301 42.65 52.0301 42.3907ZM52.355 46.2373C52.2622 46.1508 52.2622 45.978 52.2622 45.8483C52.4014 45.8483 52.5406 45.8915 52.6798 45.8915C52.6798 46.0644 52.7262 46.1508 52.7262 46.2805C52.587 46.2805 52.4014 46.3237 52.355 46.2373ZM53.9327 44.6814C54.0255 44.5949 54.1647 44.5949 54.3503 44.5085C54.3039 44.6814 54.3503 44.8542 54.2575 44.8542C54.2111 44.9407 54.0719 44.9407 53.9327 44.9407C53.9327 44.8542 53.8863 44.7246 53.9327 44.6814ZM53.6543 34.611C53.9327 34.8271 53.6543 35.0432 53.4687 35.1729C53.2366 35.3458 53.0046 35.6051 52.7262 35.3025C52.6334 35.2161 52.7726 34.9568 52.819 34.6975C53.1902 34.611 53.5151 34.4814 53.6543 34.611ZM51.4269 18.8356C51.4733 18.7059 51.6125 18.5763 51.7053 18.5331C51.9373 18.4898 52.8654 19.2678 52.9118 19.5271C52.9118 19.7 52.9118 19.8729 52.8654 20.0458C52.7262 20.0025 52.587 19.9593 52.4478 19.9161C52.0765 19.8297 51.4733 19.9593 51.5197 19.3975C51.4733 19.1381 51.3805 19.0085 51.4269 18.8356ZM51.8445 25.2754C52.123 25.2322 52.4014 25.1458 52.6798 25.1025C52.819 25.1025 53.0046 25.2322 53.051 25.3186C53.0974 25.4051 52.9582 25.6212 52.8654 25.6644C52.4942 25.7941 52.123 25.8373 51.7517 25.9669C51.7517 25.9669 51.7517 25.9669 51.7517 26.0102C51.4733 26.0534 51.1949 26.1831 50.9165 26.1831C50.7308 26.1831 50.406 26.0966 50.3596 26.0102C50.3132 25.7508 50.3596 25.4483 50.3596 25.189C50.4524 25.189 50.5452 25.189 50.5916 25.189C51.0093 25.5347 51.4269 25.3619 51.8445 25.2754ZM50.3596 32.3203C50.4988 32.4932 50.5916 32.5797 50.5916 32.6661C50.5916 32.7525 50.4988 32.8822 50.406 32.9254C50.3596 32.9686 50.2204 32.8822 50.1276 32.839C50.174 32.7525 50.2204 32.6229 50.3596 32.3203ZM49.9884 31.2831C49.942 31.2398 49.942 31.0669 49.942 30.8508C50.174 30.8941 50.3596 30.8941 50.4524 30.9805C50.4988 31.0237 50.4524 31.1966 50.4524 31.3263C50.3132 31.3263 50.1276 31.3263 49.9884 31.2831ZM50.406 28.6898C50.638 28.4737 50.9165 28.2576 51.2413 27.9983C51.4269 28.1712 51.7053 28.2576 51.7053 28.3873C51.7053 28.5169 51.5197 28.7763 51.3341 28.7763C51.0557 28.8195 50.7308 28.7331 50.406 28.6898ZM50.7772 20.7373C50.9165 20.7373 51.0093 20.8669 51.1485 20.9102C51.1021 20.9966 51.0557 21.1695 50.9629 21.2127C50.8701 21.2559 50.7308 21.1263 50.3132 20.9966C50.5452 20.8669 50.638 20.7373 50.7772 20.7373ZM49.2923 26.0534C49.4315 25.9237 49.7564 25.9669 49.9884 25.9237C49.9884 26.0966 49.9884 26.2695 49.942 26.4424C49.942 26.5288 49.8956 26.572 49.8492 26.6585C49.7564 26.7881 49.6636 26.9178 49.5708 27.0475C49.4315 26.9178 49.3387 26.7881 49.1995 26.6585C49.2459 26.3992 49.1531 26.1398 49.2923 26.0534ZM49.2459 39.4949C49.2923 39.4085 49.4779 39.4085 49.6172 39.4085C49.8492 39.4085 50.0812 39.4517 50.3132 39.4949C50.4524 39.5381 50.638 39.5814 50.7772 39.6678C51.0093 39.8839 51.1949 40.1 51.3805 40.3593C51.4269 40.4458 51.4733 40.5322 51.5197 40.6186C51.6589 40.5322 51.7053 40.4458 51.7981 40.4458C51.8445 40.4458 51.9373 40.5322 52.0301 40.6186C51.9373 40.7051 51.8909 40.7915 51.7517 40.8347C51.7053 40.8347 51.6125 40.7915 51.5197 40.7483C51.5661 41.0941 51.3805 41.4398 51.0557 41.5695C50.9165 41.6127 50.6844 41.5263 50.5452 41.3966C50.3132 41.1805 50.1276 40.9644 49.942 40.7483C49.71 40.489 49.4315 40.2297 49.2459 39.9271C49.1531 39.7542 49.1531 39.5814 49.2459 39.4949ZM49.3851 42.7364C49.4315 42.6932 49.8028 42.8661 50.0348 42.9525C50.174 42.9958 50.2668 43.1254 50.406 43.2119C50.5452 43.6008 51.0557 43.9034 50.6844 44.422C50.638 44.5085 50.6844 44.6814 50.6844 44.811C50.8237 45.2 50.638 45.2432 50.2668 45.1136C50.0812 45.0703 49.8492 45.1136 49.6172 45.1568C49.2459 45.2432 48.9675 45.0703 49.1531 44.7678C49.3851 44.3788 49.1531 44.1627 49.0603 43.8602C49.0139 43.7305 48.8747 43.6008 48.9211 43.4712C49.0603 43.2551 49.1995 42.9525 49.3851 42.7364ZM48.5035 29.2517C48.4107 29.2949 48.1786 29.2949 48.0858 29.2085C47.993 29.122 48.0858 28.9492 48.0858 28.7331C48.3178 28.8195 48.5035 28.8195 48.5963 28.9059C48.5963 28.9492 48.5963 29.2085 48.5035 29.2517ZM48.4107 24.4542C48.4571 24.5839 48.4107 24.7136 48.4107 24.8432C48.2714 24.8432 48.1322 24.8432 48.0394 24.8C47.9466 24.7136 47.993 24.5839 47.993 24.3678C48.1322 24.411 48.3643 24.411 48.4107 24.4542ZM47.3898 28.3873C46.9257 28.6466 46.7865 28.5602 46.7401 27.9983C46.7401 27.9119 46.6937 27.7822 46.6473 27.6958C46.5081 27.4364 46.5081 27.1771 46.7865 27.0907C46.9721 27.0475 47.2042 27.1771 47.297 27.2203C47.9466 27.8686 47.9002 28.128 47.3898 28.3873ZM45.2088 13.3466C45.2552 13.3466 45.348 13.4331 45.4408 13.5195C45.348 13.6059 45.2552 13.6924 45.1624 13.7356C45.116 13.7788 44.9768 13.6492 44.7912 13.5627C44.9768 13.4763 45.0696 13.3898 45.2088 13.3466ZM45.0232 20.7373C45.4408 20.5644 45.9977 20.5644 46.0441 19.9593C46.0441 19.9161 46.2297 19.8297 46.2297 19.8729C46.6473 20.089 47.0185 20.2619 47.3898 20.5212C47.4362 20.5644 47.4826 20.7373 47.3898 20.8237C47.0185 21.2127 46.6009 21.6017 46.2297 21.9907C45.9513 21.9042 45.812 21.9042 45.6728 21.8178C45.4408 21.6881 45.2088 21.5153 44.9304 21.3424C44.6984 21.1263 44.6984 20.8669 45.0232 20.7373ZM43.167 13.822C43.2598 13.822 43.3527 13.9085 43.4919 13.9949C43.4455 14.0814 43.3991 14.211 43.3063 14.211C43.2134 14.211 43.0742 14.1678 42.8422 14.1246C42.9814 13.9949 43.0742 13.8653 43.167 13.822ZM42.1462 20.7805C42.8422 20.3483 43.2598 20.9534 43.7703 21.1695C43.8167 21.2127 43.8167 21.5585 43.7703 21.6017C43.5847 21.7746 43.3527 21.861 43.1206 21.9475C42.2854 22.1203 41.4501 22.25 40.6148 22.3797C40.4292 22.4229 40.2436 22.3364 40.058 22.2932C40.1508 22.1636 40.1972 22.0339 40.29 21.9042C40.29 21.861 40.3364 21.861 40.3364 21.861C40.3828 20.9534 41.1717 21.0398 41.6357 20.9102C41.9141 20.8237 42.0534 20.8237 42.1462 20.7805ZM42.7958 23.4169C42.4246 23.4169 42.0998 23.5034 41.9605 23.3737C41.6821 23.0712 42.0534 22.8983 42.239 22.7254C42.4246 22.5525 42.703 22.2932 42.935 22.639C43.0278 22.8119 42.8422 23.0712 42.7958 23.4169ZM42.935 25.6644C42.8886 25.7508 42.8886 25.8805 42.7958 25.9237C42.703 25.9669 42.5638 25.9237 42.3318 25.8805C42.471 25.7076 42.5174 25.578 42.5638 25.578C42.703 25.578 42.8422 25.6212 42.935 25.6644ZM39.826 10.4076C40.1508 10.2347 40.522 10.1483 40.8469 10.1483C41.1717 10.1483 41.3109 11.0559 41.0789 11.4017C40.9397 11.6178 40.8469 11.8339 40.7076 12.05C40.6612 12.1364 40.522 12.2661 40.3828 12.2661C40.29 12.2661 40.1508 12.1364 40.1044 12.05C40.0116 11.8339 39.9652 11.5746 39.9188 11.3585C39.8724 11.272 39.826 11.1424 39.826 11.0559C39.7796 10.8398 39.6868 10.4941 39.826 10.4076ZM39.5476 14.5568C39.594 14.4703 39.7796 14.3839 39.8724 14.2975C40.0116 14.1246 40.058 13.7788 40.3828 13.9085C40.5684 13.9949 40.6612 14.2542 40.8933 14.5136C40.8005 14.6864 40.6612 14.989 40.5684 15.0322C40.2436 15.0754 39.8724 14.989 39.5476 14.9025C39.4547 14.9025 39.5011 14.6432 39.5476 14.5568ZM39.6868 27.5229C40.754 27.2203 41.7749 26.9178 42.8422 26.6585C43.167 26.572 43.5847 26.5288 43.8167 26.6585C44.3735 26.961 44.884 26.8746 45.4408 26.7881C45.6264 26.7881 45.8585 26.8314 46.0905 26.8746C45.9977 27.0475 45.9513 27.2203 45.8585 27.3932C45.8121 27.5229 45.7192 27.6093 45.6728 27.739C45.58 28.0847 45.3944 28.128 45.0696 27.9119C44.4663 27.5661 43.3991 27.8254 43.0742 28.3873C42.8422 28.7763 42.0069 29.0356 41.6357 28.7331C41.2181 28.3441 40.8469 28.5602 40.4756 28.6466C40.1044 28.733 39.6404 28.733 39.5476 29.2949C39.4547 29.7271 38.0626 29.9864 37.5986 29.6839C37.4594 29.5975 37.3202 29.4246 37.181 29.4246C36.6241 29.4678 36.6241 29.1653 36.5777 28.7763C36.5313 28.3008 36.8097 28.1712 37.181 28.0847C37.5986 27.6958 38.0626 28.6898 38.4339 28.0847C38.8051 27.6093 39.2691 27.6093 39.6868 27.5229ZM37.7842 10.4076C37.8306 10.4076 37.9234 10.4941 37.9698 10.5373C37.9234 10.6237 37.877 10.7102 37.7842 10.7534C37.7378 10.7966 37.645 10.7102 37.4594 10.6669C37.645 10.4941 37.7378 10.4076 37.7842 10.4076ZM36.3921 10.9263C36.7633 11.1856 36.8561 11.272 36.9953 11.3585C36.9025 11.4881 36.8097 11.661 36.6705 11.7042C36.6241 11.7475 36.3921 11.5746 36.3457 11.4881C36.2529 11.3585 36.3457 11.1856 36.3921 10.9263ZM37.181 15.4644C37.1346 15.5508 37.0882 15.6373 36.9953 15.7237C36.8561 15.6373 36.7169 15.5941 36.7169 15.5508C36.7169 15.4644 36.8097 15.3347 36.8561 15.3347C36.9953 15.3347 37.0882 15.4212 37.181 15.4644ZM35.7889 22.5093C36.1601 22.1636 36.8561 22.1203 37.4594 21.9907C37.5058 21.9907 37.6914 22.25 37.7378 22.4229C37.877 22.7254 37.9234 23.1576 38.4339 23.2008C38.4803 23.2008 38.6195 23.4169 38.6195 23.5034C38.6195 23.5898 38.4339 23.7627 38.3411 23.7627C38.0162 23.7627 37.645 23.8924 37.3202 23.5898C36.9025 23.2441 36.8097 23.3305 36.4849 23.7627C36.3457 23.9788 36.1137 24.1085 35.9281 24.2814C35.7424 24.4542 35.5568 24.6271 35.3712 24.8432C35.232 24.9729 35.1392 25.1025 34.9536 25.1458C34.9072 25.1458 34.7216 24.9729 34.6752 24.8432C34.5824 24.6703 34.5824 24.4975 34.536 24.3246C34.4895 24.1949 34.4895 24.0653 34.4431 23.9356C34.3039 23.5466 34.4431 23.2873 34.9072 23.2008C35.3248 23.028 35.5104 22.7686 35.7889 22.5093ZM22.007 10.8831C22.1462 10.3212 22.6102 10.278 23.0278 10.1915C23.4919 10.0619 24.0487 10.0619 24.5592 10.0186C24.6984 10.0186 24.8376 10.1483 24.9304 10.2347C24.8376 10.3644 24.7912 10.5373 24.6984 10.5805C24.4664 10.7102 24.1879 10.7534 23.9095 10.8398C23.5847 10.9263 23.2599 10.9695 23.167 11.4017C23.167 11.5314 23.0278 11.661 22.935 11.7042C22.471 11.8771 21.9606 11.9636 21.7749 12.5254C21.7749 12.5254 21.7749 12.5254 21.7749 12.5686C21.8677 12.6551 21.9142 12.7415 22.007 12.828C22.239 13.1305 22.5174 13.4331 22.7494 13.7356C22.7958 13.7356 22.8422 13.6924 22.8886 13.6924C23.3063 13.6059 23.7239 13.5627 23.8167 13.0441C23.8631 12.7847 24.1879 12.7415 24.3271 12.9576C24.6056 13.3034 24.9304 13.1737 25.2552 13.0873C26.3225 12.8712 27.3434 12.6551 28.4107 12.439C28.8283 12.3525 29.1531 12.2661 29.4315 12.6983C29.6172 13.0008 29.942 12.8712 29.9884 12.5686C30.0812 12.1797 30.3596 12.0932 30.7309 12.0068C31.9373 11.7042 33.0974 11.3585 34.3039 11.0559C34.4431 11.0127 34.6288 11.0559 34.768 11.1424C35 11.2288 35.1856 11.3585 35.3712 11.4881C35.5104 11.5746 35.6032 11.7475 35.6032 11.8339C35.6032 11.9636 35.464 12.0932 35.3712 12.1797C35.3248 12.2229 35.232 12.2661 35.1392 12.2661C34.1183 12.4822 33.0974 12.6551 32.123 12.8712C31.4733 12.9576 30.9165 13.1305 30.3596 13.2602C29.6172 13.4331 28.8747 13.6492 28.1322 13.7788C27.4362 13.9085 27.3434 13.9085 27.4826 14.5568C27.4826 14.6432 27.529 14.7297 27.529 14.7729C27.5754 14.989 27.6682 15.2483 27.3434 15.2483C27.2042 15.2483 27.0186 15.0754 26.9722 14.9458C26.8793 14.7297 26.7865 14.6 26.6473 14.4703C26.6473 14.4703 26.6473 14.5136 26.6009 14.5136C26.5545 14.5568 26.3225 14.5136 26.2297 14.4703C26.1369 14.4271 26.0905 14.3407 25.9977 14.2542C25.8585 14.2542 25.6728 14.2975 25.4408 14.3839C24.8376 14.5568 24.1879 14.7297 23.5383 14.8161C23.5847 14.9458 23.5383 15.1186 23.4919 15.2051C23.2599 15.4212 23.0278 15.3347 22.8422 15.1186C22.7494 15.0322 22.703 14.9458 22.6102 14.8593C22.2854 14.7729 21.9606 14.5568 21.5429 14.3839C21.6821 14.211 21.7749 14.0814 21.8677 13.9949C21.5429 13.6492 21.2181 13.3034 20.9397 12.9576C20.8005 12.7847 20.6148 12.6551 20.5684 12.4822C20.522 12.439 20.4756 12.3958 20.4292 12.3525C20.2436 12.1364 20.1044 11.8771 19.8724 11.7907C19.4084 11.6178 18.9907 11.9636 18.9907 12.5254C18.9907 12.6983 19.0835 12.8712 18.9907 13.0008C18.9443 13.0873 18.7123 13.1305 18.5731 13.2169C18.3411 12.7847 17.645 13.0441 17.413 12.5254C17.3666 12.439 17.1346 12.439 16.949 12.439C16.8097 12.439 16.6705 12.4822 16.4849 12.5254C16.2065 12.5686 15.9745 12.5254 15.8817 12.2229C15.8353 11.9203 16.0673 11.8339 16.3457 11.7475C16.3921 11.7475 16.4385 11.7042 16.5313 11.7042V11.7475C17.4594 11.5314 18.3875 11.3153 19.3155 11.0992C19.3619 11.0992 19.3619 11.0992 19.4084 11.0992C19.2691 10.9695 19.2691 10.7966 19.2227 10.5805C19.4548 10.6237 19.6868 10.5805 19.7332 10.6669C19.7796 10.7534 19.7796 10.8831 19.7332 11.0127C20.1508 10.9263 20.5684 10.9263 21.0325 11.1424C21.2645 11.272 22.007 11.0559 22.007 10.8831Z" fill="#FEFEFE"/>
<path d="M15.8361 39.8839C15.7897 39.8407 15.7432 39.7543 15.6968 39.711C15.4645 39.5382 15.3251 39.1924 15.0464 39.106V39.4517C15.1858 39.4517 15.2787 39.4949 15.3251 39.5814C15.6039 39.7543 15.7432 39.8839 15.8361 39.8839Z" fill="#FEFEFE"/>
<path d="M15.0464 9.5V9.62966C15.1393 9.75932 15.2322 9.88898 15.3251 10.0619C15.3251 9.88898 15.3251 9.67288 15.3716 9.54322H15.0464V9.5Z" fill="#FEFEFE"/>
</svg>
