<svg width="70" height="70" viewBox="0 0 70 70" fill="none" xmlns="http://www.w3.org/2000/svg">
<path d="M5.00629 35.929C5.27053 36.1408 5.58762 36.2996 5.9047 36.5114C5.95755 36.5114 6.0104 36.5114 6.1161 36.5114C6.06325 34.6585 6.22179 32.8056 6.53888 31.0056C6.59173 30.635 6.69742 30.3174 6.75027 29.9468C6.53888 29.9997 6.38034 30.1056 6.16894 30.1585C5.74616 30.2644 5.32338 30.4232 4.90059 30.4762C4.74205 30.5291 4.58351 30.5291 4.42496 30.4762C4.42496 30.5291 4.42496 30.5821 4.37212 30.635C4.21357 31.4291 4.16072 32.1703 4.05503 32.9644L4.10788 32.9114C4.21357 32.9114 4.37212 32.9114 4.42496 32.9644C4.58351 33.282 4.31927 33.3879 4.16072 33.5467C4.10788 33.6526 4.05503 33.7055 4.00218 33.7055C3.94933 34.3938 3.89648 35.1349 3.89648 35.8232C4.21357 35.6643 4.6892 35.6643 5.00629 35.929Z" fill="#FEFEFE"/>
<path d="M58.5412 15.4939C58.1712 15.0704 57.7485 14.5939 57.3785 14.1704C57.1671 14.1704 56.9029 14.1175 56.85 14.0116C56.7444 13.8528 56.6915 13.694 56.7444 13.5351C56.533 13.3234 56.3744 13.1646 56.163 12.9528C55.9516 13.0057 55.6874 13.0587 55.4232 13.1116C55.3703 13.1116 55.3175 13.1646 55.2646 13.1646C54.9475 13.1646 54.5247 13.5351 54.2605 13.0587C54.1548 12.8469 54.6304 12.0528 55.0004 11.9469C53.9963 11.0999 52.9922 10.3587 51.8823 9.61755C50.9839 9.0352 50.0855 8.55874 49.1343 8.08228C49.4513 8.45286 49.3985 8.61168 48.9757 8.92932C48.6058 9.24696 48.5001 9.19402 48.183 8.82344C47.9188 8.5058 47.8659 8.2411 48.2358 8.02934C48.3944 7.92345 48.5001 7.81757 48.5529 7.81757C47.9716 7.55287 47.3374 7.23523 46.7033 6.97053C46.5976 7.07641 46.439 7.07641 46.3333 6.86465C46.3333 6.81171 46.2805 6.81171 46.2805 6.75877C46.0691 6.70583 45.8577 6.59994 45.6463 6.547L45.2235 6.38818L44.4836 8.45286L44.8536 8.61168C46.7033 9.29991 48.4472 10.1999 50.1384 11.2058C50.0327 11.0999 49.927 10.994 49.8741 10.8881C49.7156 10.7293 49.557 10.5175 49.4513 10.3587C49.2928 10.147 49.0814 9.93519 49.3985 9.61755C49.7156 9.2999 50.0855 9.2999 50.4026 9.56461C51.301 10.2528 52.0409 11.1528 52.5165 12.1587C52.5165 12.2116 52.5694 12.2116 52.5694 12.2646C52.7808 12.3704 52.9922 12.4763 53.2035 12.5822C53.3092 12.6351 53.4149 12.741 53.4149 12.8469C53.5735 13.0057 53.6792 13.2175 53.8377 13.4293C54.3662 14.0645 54.8947 14.6998 55.4232 15.2822C55.5817 15.441 55.7402 15.5469 55.8459 15.7057C55.9516 15.8645 56.1102 15.9704 56.2159 16.1292C56.2687 16.1292 56.2687 16.1292 56.3216 16.1292C56.4273 16.1292 56.4801 16.1292 56.533 16.1292C57.0086 16.0233 57.4842 15.8645 57.9599 15.7586C58.1184 15.7057 58.4355 15.6528 58.5412 15.4939Z" fill="#FEFEFE"/>
<path d="M8.59996 49.7463C8.75851 49.8522 9.0756 49.6933 9.28699 49.6933C9.39268 49.6933 9.49838 49.6933 9.55123 49.6933C9.02275 48.7404 8.54712 47.7345 8.17718 46.7287C8.12433 46.7816 8.07149 46.8346 8.07149 46.8346C7.96579 46.7816 7.80725 46.7287 7.70155 46.6757C7.6487 46.6228 7.6487 46.5169 7.6487 46.464C7.59585 46.3052 7.59585 46.1993 7.59585 46.0934C7.59585 46.0405 7.6487 45.9346 7.70155 45.8816C7.7544 45.8816 7.80725 45.8287 7.86009 45.8287C7.6487 45.1934 7.43731 44.6111 7.22592 43.9758C7.22592 43.9228 7.17307 43.8699 7.17307 43.817C7.06738 43.764 7.01453 43.764 6.96168 43.7111C6.69744 43.3934 6.16896 43.6052 6.06327 43.1287C5.95757 43.1817 5.74618 43.1817 5.69333 43.2876C5.58763 43.4464 5.64048 43.817 5.32339 43.7111C5.16485 43.6581 5.05916 43.3934 5.00631 43.1817C4.90061 42.917 4.95346 42.7052 5.27055 42.5993C5.48194 42.4935 5.69333 42.3876 5.79903 42.3346C6.22181 42.1758 6.5389 42.0699 6.69744 42.5464C6.69744 42.5993 6.80314 42.7052 6.90883 42.7052C6.48605 40.8523 6.22181 38.9994 6.11611 37.1465H6.06327C5.74618 37.1994 5.48194 37.3053 5.2177 36.9877C5.05916 36.7759 4.79492 36.8288 4.74207 37.1465C4.74207 37.4641 4.53068 37.57 4.31928 37.6759C4.21359 37.7288 4.10789 37.7288 4.0022 37.7818C4.16074 40.1111 4.53068 42.3876 5.16485 44.6111C5.64048 46.3581 6.3275 48.0522 7.12022 49.6933C7.17307 49.6933 7.17307 49.6933 7.22592 49.6404C7.59585 49.5345 8.07149 49.3757 8.59996 49.7463ZM6.48605 45.6699C6.38035 45.6169 6.27466 45.6169 6.16896 45.564C6.11611 45.5111 6.16896 45.4052 6.16896 45.1934C6.3275 45.2993 6.4332 45.3522 6.5389 45.4052C6.5389 45.4581 6.48605 45.564 6.48605 45.6699Z" fill="#FEFEFE"/>
<path d="M26.304 12.2646L27.0438 11.5234C27.5195 11.0469 27.9951 10.6234 28.5236 10.1999C28.365 9.98812 28.2065 9.8293 28.0479 9.61754C28.0479 9.61754 28.0479 9.61754 28.1008 9.61754C27.9422 9.40577 27.7308 9.19401 27.5723 8.98225C27.3609 8.71755 27.2024 8.45285 26.7796 8.61167C26.6739 8.66461 26.621 8.66461 26.5153 8.61167C26.4096 9.51166 26.3568 10.3587 26.3568 11.2587L26.304 12.2646Z" fill="#FEFEFE"/>
<path d="M10.7139 19.7821C10.8724 19.6762 11.031 19.5174 11.1895 19.4115C11.2952 19.2527 11.4009 19.0939 11.5066 18.9351C11.5066 18.8821 11.5594 18.8821 11.5594 18.8292V18.7762C11.5594 18.6704 11.718 18.3527 11.8237 18.3527C11.8765 18.3527 11.8765 18.3527 11.9294 18.3527C14.3604 15.0704 17.5841 12.3175 21.2835 10.3058C22.0762 9.88225 23.1331 9.35285 24.2429 8.92932L24.9828 8.66462C25.0357 8.61168 25.1413 8.61168 25.1942 8.61168L25.9341 8.34698C26.0926 8.29404 26.304 8.2411 26.4625 8.18816C26.6211 7.87052 26.4625 7.65875 26.304 7.44699C26.1455 7.28817 25.9341 7.07641 26.1983 6.86465C26.304 6.81171 26.5682 6.97053 26.7268 7.12935C26.991 7.34111 27.1496 7.65875 27.361 7.87052C27.6252 8.13522 27.8366 8.5058 28.3122 8.29404C28.3651 8.2411 28.5765 8.34698 28.6293 8.39992C28.9464 8.71756 29.2106 9.08815 29.4749 9.45873C31.166 8.18816 33.0685 7.07641 35.1296 6.17642L36.028 5.80584L35.1296 5.43526C34.4954 5.17056 33.8613 4.90585 33.1742 4.69409C33.1214 4.90585 33.0157 5.11762 32.91 5.32938C32.8571 5.43526 32.6986 5.4882 32.5929 5.4882C32.4872 5.4882 32.3815 5.38232 32.3287 5.32938C32.2758 5.11762 32.4344 4.74703 32.6458 4.53527C30.0034 3.58234 27.0967 3.10588 24.1372 3H23.6088H23.6616C24.1372 3.05294 24.1901 3.05294 23.9258 3.47646C23.873 3.5294 23.8202 3.58234 23.8202 3.63528L23.873 3.68823C24.0844 3.89999 24.2958 4.11175 24.5072 4.37645C24.9828 4.42939 25.5641 4.27057 25.8812 4.90585C25.9869 5.17056 26.1983 5.43526 26.1983 5.64702C26.1455 5.85878 25.9341 6.12348 25.7227 6.2823C25.6698 6.33524 25.5641 6.2823 25.4584 6.22936C25.4056 6.22936 25.2999 6.2823 25.247 6.2823L24.5072 6.54701C24.4015 6.59995 24.2958 6.59995 24.2429 6.65289L23.4502 6.91759C22.499 7.28817 21.4948 7.76464 20.2265 8.39992C16.0515 10.6764 12.405 13.9057 9.76261 17.6645C9.39267 18.141 9.07558 18.6704 8.7585 19.1468C8.91704 19.1468 9.07558 19.1998 9.07558 19.2527C9.18128 19.5703 9.12843 19.9409 9.18128 20.2586C9.18128 20.2586 8.86419 20.3115 8.81135 20.3115C8.6528 20.0468 8.44141 19.9939 8.23002 20.0468C7.49015 21.2644 6.85597 22.535 6.27465 23.8585C6.16895 24.1762 6.01041 24.4938 5.90471 24.8114C5.90471 24.8644 5.85186 25.0232 5.79901 25.0761C5.32338 26.2938 4.95345 27.5643 4.68921 28.8349C4.9006 28.5173 5.21769 28.5702 5.64047 28.782C6.01041 28.9408 6.38034 29.3114 6.80313 29.3114C7.17306 27.7761 7.64869 26.2408 8.28287 24.7585C8.86419 23.3291 9.60406 21.8997 10.5025 20.5762C10.3439 20.2056 10.3968 20.0468 10.7139 19.7821ZM30.9018 7.49993C30.9546 7.60581 30.8489 7.76464 30.7961 7.9764C30.6375 7.87052 30.4261 7.81758 30.4261 7.71169C30.4261 7.60581 30.5318 7.44699 30.5847 7.39405C30.6375 7.34111 30.8489 7.39405 30.9018 7.49993ZM29.4749 5.59408C29.792 5.54114 30.1619 5.64702 30.5318 5.64702C30.2676 5.91172 30.0034 6.12348 29.792 6.2823C29.3163 6.2823 28.9464 6.54701 28.8407 6.07054C28.735 5.64702 29.2106 5.64702 29.4749 5.59408ZM7.64869 24.7585C7.4373 24.5997 7.22591 24.5467 7.22591 24.4409C7.22591 24.335 7.3316 24.1232 7.4373 24.0703C7.543 24.0173 7.75439 24.1232 7.80724 24.2291C7.86008 24.335 7.75439 24.4938 7.64869 24.7585Z" fill="#FEFEFE"/>
<path d="M66.0457 34.182C66.0457 33.8114 66.0457 33.4408 65.9928 33.0703C65.8871 31.7997 65.6757 30.5291 65.3586 29.2056C65.0416 29.3115 64.7245 29.3115 64.4074 28.9409C64.2488 28.7291 63.9846 28.888 63.9317 29.2056C63.8789 29.6821 63.6675 29.735 63.3504 29.4174C63.2976 29.3115 63.1919 29.3115 63.0862 29.2585C63.4033 30.635 63.6147 31.9585 63.7732 33.282C63.8261 33.5997 63.8261 33.9702 63.8261 34.3408C63.8261 34.5526 63.8261 34.7643 63.8261 34.9232V35.2938C64.1431 35.2408 64.3545 35.1879 64.5131 35.2408C64.0374 34.6585 64.0903 34.5526 64.6716 34.0761C64.8302 33.9702 64.9359 33.8644 65.0944 33.7585C65.2529 33.7055 65.4115 33.7055 65.57 33.6526C65.57 33.8114 65.57 33.9173 65.57 34.0761C65.57 34.182 65.57 34.2349 65.57 34.3408C65.7814 34.2879 65.8871 34.2349 66.0457 34.182Z" fill="#FEFEFE"/>
<path d="M64.5658 26.1878C63.8259 23.9643 62.8218 21.7938 61.6063 19.7821C61.3949 19.4644 61.1835 19.0938 60.9721 18.7762C60.8135 18.7762 60.6022 18.6174 60.3908 18.3527C60.3908 18.2997 60.3379 18.1409 60.2851 17.9291C60.3379 17.9291 60.3379 17.9291 60.3908 17.9291C60.1265 17.5586 59.8623 17.188 59.5452 16.8174C59.4924 16.8703 59.4924 16.9233 59.4395 16.9762C59.3338 17.188 58.9639 17.3997 58.6996 17.5056C58.3297 17.6115 58.3297 17.188 58.224 16.9762C58.1712 16.8703 58.1712 16.7645 58.1183 16.7115C58.0655 16.6056 57.9598 16.5527 57.8541 16.4998C57.8012 16.6056 57.6427 16.7115 57.6427 16.8174C57.5898 16.9762 57.537 17.135 57.4841 17.2939C57.537 17.5056 57.5898 17.6644 57.5898 17.8762C58.1712 18.6174 58.6996 19.3585 59.2281 20.1526C59.4923 20.3644 59.7566 20.6291 59.968 20.8409C60.2322 21.1056 60.3908 21.3703 60.655 21.635C61.0249 22.0585 61.3949 22.4291 61.7648 22.8526C61.8177 22.9055 61.9234 22.9055 62.0291 22.9055C62.7689 22.9585 63.086 23.3291 62.9803 24.0173C62.9275 24.3349 62.8746 24.6526 62.8746 24.9702C62.8746 25.2349 63.0332 25.2879 63.2974 25.2879C63.4559 25.2879 63.5616 25.4467 63.7202 25.5526C63.5616 25.7643 63.4559 25.9761 63.2974 26.1349C63.1917 26.2408 62.9803 26.2408 62.8218 26.1878C62.7161 26.1878 62.6104 26.029 62.5575 25.9231C62.2933 25.6584 62.0819 25.3408 61.8177 25.0761C62.0819 25.6584 62.2933 26.2408 62.5047 26.8761C62.5575 27.0349 62.6104 27.1937 62.6632 27.3525C62.7161 27.3525 62.7689 27.2996 62.8218 27.2996C63.1917 27.1937 63.5088 27.1408 63.6145 27.6702C63.6145 27.7761 63.7202 27.8819 63.7202 28.0408C63.773 28.3055 63.9316 28.4113 64.1958 28.3584C64.4601 28.2525 64.83 28.3055 64.7771 27.829C64.7771 27.7761 64.7771 27.7231 64.7771 27.6702C64.7771 27.4584 64.7771 27.2996 64.83 27.1937C64.7771 26.8231 64.6714 26.5055 64.5658 26.1878Z" fill="#FEFEFE"/>
<path d="M65.8341 39.8995C65.887 39.3701 65.9927 38.8936 65.9927 38.3642L66.0455 37.8348C65.9927 37.7819 65.9927 37.7819 65.9398 37.7289C65.7813 37.4113 65.2528 37.1995 65.5699 36.776C65.6227 36.6701 65.8341 36.6701 66.0455 36.6701V36.5643V36.5113C65.9398 36.5113 65.8341 36.5113 65.8341 36.4584C65.6756 36.1937 65.6227 35.929 65.517 35.6643C65.517 35.7172 65.4642 35.7702 65.4113 35.8231C65.3056 35.876 65.1471 35.8231 65.0942 35.7702C65.0414 35.7172 64.9885 35.6643 64.9357 35.6113C64.9885 35.7172 64.9885 35.8231 65.0414 35.9819C65.0942 36.0878 65.1471 36.2466 65.1471 36.3525C65.1471 36.5643 65.0942 36.8819 64.9885 36.9348C64.7243 37.0407 64.4072 37.0407 64.143 36.9878C64.0373 36.9878 63.9844 36.9348 63.8787 36.8819V37.3584L63.8259 38.2054C63.8259 38.6819 63.7202 39.1583 63.6673 39.5819L63.6145 39.7936C63.6145 39.8466 63.6145 39.8995 63.6145 39.9524C63.9844 40.376 64.4072 40.8524 64.7772 41.3289C64.9885 41.5936 65.1471 41.9112 65.517 41.8054C65.6227 41.223 65.7284 40.6936 65.7813 40.1113L65.8341 39.8995Z" fill="#FEFEFE"/>
<path d="M37.2437 66.4755C37.0851 66.5284 36.8209 66.3696 36.7152 66.2108C36.3452 65.7873 35.9753 65.3637 35.6054 64.9402C35.5525 64.8873 35.5525 64.8873 35.4997 64.8343C34.7598 64.8343 34.0199 64.8343 33.2801 64.7814C33.3329 64.8873 33.3858 64.9402 33.4386 65.0461C33.4915 65.099 33.2801 65.4167 33.2272 65.4167C33.0687 65.3637 32.9101 65.2578 32.6987 65.152C32.7516 64.9931 32.8044 64.8873 32.8573 64.7814C32.3288 64.7284 31.7475 64.6755 31.219 64.6226C31.5361 64.9931 31.906 65.3637 32.1703 65.7873C32.593 66.3167 32.5402 66.3696 32.0117 66.8461C31.9589 66.899 31.9589 66.899 31.906 66.899C32.9101 67.0049 33.9671 67.0578 34.9712 67.0578C35.7639 67.0578 36.5038 67.0049 37.2965 66.9519C37.5607 66.9519 37.825 66.899 38.0892 66.899C38.0364 66.8461 38.0364 66.8461 37.9835 66.7931C37.7193 66.5284 37.5607 66.3696 37.2437 66.4755Z" fill="#FEFEFE"/>
<path d="M55.6345 58.6404C56.0045 58.3757 55.8988 58.0581 55.8459 57.7404C55.7931 57.4757 55.7402 57.211 56.0573 57.1581C56.3744 57.1051 56.7444 56.9463 56.9557 57.4228C57.0086 57.5287 57.0086 57.6875 57.0614 57.7934L57.1143 57.8463C57.6956 57.2639 58.2241 56.6816 58.7526 56.0993C58.594 55.8346 58.3298 55.5699 58.1184 55.3052C58.0655 55.2522 57.907 55.1463 57.8542 55.1463C57.4842 55.3052 57.1671 54.9875 56.85 54.9346C55.5817 56.364 54.2077 57.6875 52.7808 58.7992C52.9393 58.958 53.0979 59.1169 53.2035 59.3286C53.2035 59.2757 53.2564 59.2757 53.2564 59.2227C53.5206 58.9051 53.732 58.5345 53.8906 58.1639C53.9963 57.9522 54.102 57.7404 54.3134 57.7934C54.4719 57.8463 54.5776 58.0581 54.6833 58.1639C54.7361 58.2698 54.789 58.4286 54.8418 58.7463C55.2118 59.2227 54.5776 59.6463 54.4719 60.1757C54.419 60.3874 53.8906 60.4404 53.5735 60.3874C53.5735 60.5463 53.732 60.6521 53.9434 60.7051C54.5247 60.2816 55.1061 59.8051 55.6345 59.2757C55.5817 58.958 55.5289 58.6933 55.6345 58.6404Z" fill="#FEFEFE"/>
<path d="M61.0249 52.9758C60.8135 52.8699 60.5493 52.8699 60.3379 52.764C60.2322 52.6581 60.1794 52.4464 60.1265 52.2346C59.968 52.3934 59.7037 52.4993 59.7037 52.6581C59.7037 52.817 59.7037 52.9228 59.6509 53.0287C59.7566 53.0817 59.8094 53.1346 59.8623 53.2405C60.0737 53.5052 60.2851 53.664 60.655 53.5052H60.7078C60.7607 53.4523 60.8135 53.3464 60.8664 53.2934C60.9192 53.1346 60.9721 53.0287 61.0249 52.9758Z" fill="#FEFEFE"/>
<path d="M60.1265 52.1816C60.2322 52.1286 60.3379 52.1286 60.3907 52.0757C60.7607 51.4404 61.4477 51.3345 62.0818 51.2286C63.4559 48.8463 64.46 46.3052 65.147 43.7111C64.9885 43.4464 64.8299 43.3405 64.46 43.3405C64.1958 43.3405 63.8258 43.1287 63.6673 42.917C63.403 42.5993 63.773 42.4405 63.9315 42.2288C63.9844 42.1229 64.0901 42.0699 64.1429 42.017C64.1958 41.9111 64.1958 41.8052 64.1958 41.6994C64.0901 41.6994 63.9315 41.5935 63.8258 41.6464C63.7201 41.6994 63.5616 41.6994 63.403 41.6994C62.716 45.1405 61.342 48.4757 59.4395 51.4933C59.6508 51.5992 59.8622 51.7051 60.0208 51.8639C60.0736 51.8639 60.0736 52.0757 60.1265 52.1816ZM62.2404 46.7816C62.5575 46.6757 62.6103 46.9405 62.6632 47.1522C62.716 47.364 62.8217 47.6287 62.5046 47.6816C62.3461 47.6816 62.1875 47.4699 62.029 47.311C62.0818 47.0993 62.1347 46.8346 62.2404 46.7816Z" fill="#FEFEFE"/>
<path d="M58.4354 54.2463C58.7525 54.3522 59.1224 54.4052 59.4395 54.3522C59.6509 54.2993 59.6509 54.0346 59.5452 53.8758C59.4395 53.7169 59.281 53.5581 59.2281 53.3464C59.2281 53.2934 59.2281 53.2934 59.2281 53.2405H59.1753C58.8582 53.2934 58.5411 53.3993 58.2769 53.4522C58.2769 53.5581 58.3297 53.6111 58.3297 53.7169C58.2769 53.9287 58.3297 54.1934 58.4354 54.2463Z" fill="#FEFEFE"/>
<path d="M51.988 60.6521C51.8823 60.6521 51.8295 60.5992 51.7238 60.5462C51.5124 60.4403 51.3539 60.2286 51.2482 60.0168C51.2482 59.9639 51.1953 59.9639 51.1953 59.9639C51.1425 59.9639 51.1425 59.9639 51.0896 59.9639C50.9839 60.0168 50.8782 60.0697 50.8254 60.1756C50.8782 60.3345 50.9311 60.4403 50.9311 60.5992C51.0368 60.9697 50.8254 61.1815 50.4554 61.1815C49.6627 61.1815 48.9757 61.5521 48.2358 61.7638C48.0773 61.8168 47.9187 61.8697 47.7602 61.8697C46.3862 62.5579 45.0121 63.0874 43.5852 63.5638C43.1624 63.6697 42.7397 63.8285 42.3169 63.9344C42.6868 64.4109 42.951 64.8344 43.2153 65.2579C43.2681 65.3638 43.2153 65.4697 43.2681 65.5755C43.1624 65.5755 43.0039 65.5755 42.951 65.5226C42.5811 65.2579 42.264 64.8873 41.7884 64.9403C41.7355 64.9403 41.577 64.6226 41.577 64.6226C41.7884 64.4638 41.7355 64.252 41.6827 64.0403C40.3615 64.3579 38.9875 64.5697 37.6663 64.6756C37.8777 64.7285 37.8777 64.8344 37.8777 65.0461C37.772 65.6285 38.1419 66.052 38.7232 66.105C38.8818 66.105 39.0403 66.2108 39.146 66.2638C39.0932 66.4226 39.0403 66.5814 38.9346 66.6873C38.9346 66.6873 38.9346 66.6873 38.8818 66.7402C40.7314 66.5285 42.5283 66.1579 44.2722 65.5755C46.4919 64.8873 48.6586 63.9344 50.7197 62.7168C51.4067 62.3462 52.0409 61.9227 52.6751 61.4462C52.6751 61.2874 52.5165 61.1286 52.4108 60.9697C52.1994 60.9697 52.0937 60.8109 51.988 60.6521Z" fill="#FEFEFE"/>
<path d="M19.2224 62.7168C19.3281 62.7168 19.4338 62.6639 19.5395 62.6639C19.6981 62.6639 19.8566 62.7698 20.0152 62.8227C19.9623 62.8757 19.8566 62.9815 19.8038 63.0345C20.0152 63.1404 20.1737 63.2462 20.3851 63.3521C20.3851 63.2992 20.5436 63.1933 20.5436 63.1933C20.7022 63.2462 20.8607 63.3521 20.9664 63.4051C21.0721 63.6168 21.1778 63.6698 21.2307 63.8286C21.9705 64.1992 22.7104 64.5168 23.5031 64.8344C23.9259 64.9933 24.2958 65.1521 24.7186 65.258C24.7715 65.205 24.8243 65.205 24.8243 65.1521C25.0357 65.1521 25.1414 65.258 25.1414 65.4168C26.6211 65.8933 28.1009 66.2638 29.6335 66.5285C29.5806 66.3168 29.6335 66.105 29.8449 65.9462C30.0034 65.7874 30.1619 65.6815 30.3205 65.5227C30.2676 65.4697 30.2148 65.4168 30.1619 65.3638L30.2148 65.3109C30.2148 65.205 30.1619 65.0991 30.1619 64.9933C30.1091 64.9933 30.1091 64.9933 30.0563 65.0462C29.792 65.205 29.5806 65.4168 29.3692 65.6286C29.105 65.8403 28.8936 65.8403 28.6294 65.5756C28.1537 64.9933 27.6252 64.4109 27.1496 63.8286C26.1455 63.5639 25.1414 63.1933 24.1901 62.8227C21.812 61.8698 19.5395 60.5992 17.4785 59.011C17.1085 59.3286 16.7914 59.2757 16.4215 58.9051C16.1044 58.5875 15.7873 58.2698 15.4702 57.8993C15.206 57.6346 14.9418 57.3699 15.0475 56.9463C14.7304 56.6287 14.4133 56.311 14.0962 55.9934C13.7263 55.9934 13.6734 55.9405 13.7263 55.5699C13.6734 55.5169 13.5677 55.4111 13.5149 55.3581C13.2506 55.0405 12.9864 54.7758 12.775 54.4581C12.7221 54.4581 12.6164 54.4052 12.5636 54.3523C12.5636 54.2993 12.5108 54.2464 12.5108 54.1934C11.8766 53.4523 11.3481 52.6582 10.7668 51.8641C10.6611 51.8111 10.6082 51.8111 10.5025 51.7582C10.5025 51.7052 10.5554 51.6523 10.5554 51.5994C10.2383 51.1229 9.97405 50.6994 9.70981 50.2229C9.65696 50.3817 9.44557 50.4347 9.28703 50.4347C8.96994 50.4876 8.65285 50.5935 8.33577 50.5935C8.23007 50.5935 8.01868 50.5935 7.91298 50.4876C7.64874 50.3288 7.43735 50.2229 7.27881 50.2758C8.49431 52.6052 10.0269 54.7758 11.8237 56.7875C14.0962 59.1169 16.5272 61.1286 19.2224 62.7168ZM20.068 61.2874C20.1208 61.4463 20.1208 61.658 20.068 61.8168C20.068 61.8698 19.7509 61.8698 19.6981 61.8168C19.5924 61.711 19.5924 61.4992 19.4867 61.1816C19.8038 61.2345 20.0152 61.2345 20.068 61.2874ZM18.0598 60.0169C18.324 60.0169 18.6411 59.858 18.7468 59.9639C19.011 60.1757 18.694 60.3345 18.5354 60.4933C18.3769 60.6522 18.1655 60.9169 17.9541 60.6522C17.9012 60.5463 18.0069 60.2816 18.0598 60.0169Z" fill="#FEFEFE"/>
<path d="M36.6093 38.629C36.6093 38.7349 36.5036 38.8408 36.3979 38.9466C36.3451 38.9996 36.2394 38.9996 36.1865 38.9996C35.2881 39.1584 34.3897 39.3702 33.5441 39.529C33.0685 39.6349 32.5929 39.7937 32.1172 39.8996C31.4831 40.0584 30.8489 40.2701 30.1619 40.376C30.2147 40.6407 30.3204 40.9584 30.4261 41.2231C30.479 41.1701 30.479 41.0643 30.5318 41.0113C30.6375 41.1172 30.796 41.1701 30.9017 41.276C30.9546 41.276 30.9546 41.3819 30.9546 41.4348C30.9546 41.5407 31.0074 41.6466 31.0074 41.8054C31.0074 41.8584 30.9546 41.9113 30.9546 41.9642C31.7473 42.8642 33.0685 43.2877 34.8653 43.2877C38.1947 43.2877 39.7273 42.3878 39.7273 40.9584C39.7273 39.8996 38.5647 39.0525 36.6093 38.629C36.6093 38.629 36.6093 38.5761 36.6093 38.629ZM37.772 41.9113C37.8777 41.9113 37.9834 41.9642 38.0362 42.0172C37.9834 42.0701 37.9305 42.176 37.8777 42.2819C37.772 42.2289 37.6663 42.176 37.6134 42.1231C37.6663 42.0701 37.772 41.9113 37.772 41.9113Z" fill="#FEFEFE"/>
<path d="M15.9986 23.8586C16.0514 23.8586 16.1043 23.8056 16.21 23.8056C16.3157 23.8056 16.5271 23.9115 16.5799 24.0703C16.7913 24.335 16.897 24.6527 17.1612 24.8644C17.8483 25.3409 17.4783 25.9762 17.5312 26.5585C17.5312 26.6644 17.3726 26.7703 17.2669 26.8762C17.4783 27.035 17.6369 27.2468 17.954 27.0879C18.1125 27.035 18.4296 27.1409 18.5353 27.2468C18.7995 27.5115 18.9581 27.882 19.1695 28.1997C19.3809 28.5703 19.0638 28.7291 18.8524 28.9408C18.641 29.1526 18.4296 29.1526 18.2182 28.9408C17.8483 28.5173 17.5312 28.1467 17.1612 27.7232C16.8442 27.3526 16.897 27.0879 17.2669 26.8762C17.1084 26.7703 16.897 26.5585 16.7913 26.6115C16.3157 26.8232 16.1571 26.5056 15.9457 26.2409C15.7872 26.0821 15.6815 25.8703 15.523 25.7115C15.3644 25.5527 15.3116 25.3409 15.3116 25.1291C15.0473 25.6056 14.7831 26.135 14.5188 26.6644C15.1002 26.9821 15.5758 27.6703 15.5758 28.2526C15.6287 29.0997 16.5799 30.4232 17.3198 30.6879C17.4255 30.7408 17.584 30.6349 17.6897 30.6879C17.8483 30.7408 18.0597 30.7408 18.1654 30.8467C18.271 31.0055 18.4296 31.1643 18.5353 31.3232C18.5881 31.2702 18.641 31.2702 18.641 31.2702C19.1695 31.1643 19.4337 31.3232 19.5394 31.7467C19.5922 31.9585 19.5394 32.1702 19.3809 32.329C19.6451 32.6467 19.9622 32.9643 20.2264 33.3349C20.3321 33.4937 20.4378 33.6525 20.4907 33.8114C20.5435 33.9172 20.5435 34.129 20.4907 34.2349C20.4378 34.2878 20.2793 34.2878 20.1736 34.2878C19.4337 34.2878 18.8524 34.0231 18.641 33.4937C18.4296 33.229 18.271 33.0702 18.1654 32.9114C17.954 32.6996 17.8483 32.4879 18.0068 32.1702C18.1654 31.9055 18.0068 31.6408 17.7426 31.7467C17.2669 31.9055 17.0555 31.6408 16.897 31.3232C16.5271 30.582 15.8929 30.0526 15.3116 29.4703C15.1002 29.2585 14.9416 29.0467 14.6245 29.2056C14.3603 29.3114 14.2018 29.0997 14.2546 28.835C14.3075 28.4114 14.3603 27.9879 14.3603 27.5644C14.3603 27.5644 14.3603 27.5115 14.3075 27.4585C13.9375 28.4114 13.5676 29.3644 13.3562 30.3702C13.9375 30.3173 14.0961 30.8467 14.3603 31.1643C14.6245 31.5349 14.5188 31.9055 14.2546 32.2232C14.1489 32.329 14.0432 32.4349 13.9375 32.5408C13.8847 32.5937 13.8847 32.6996 13.9375 32.7526C13.9904 32.8055 14.0961 32.8055 14.1489 32.8055C14.3075 32.6996 14.5188 32.5937 14.6774 32.4879C15.153 32.1702 15.2587 32.1702 15.6287 32.5408C15.6287 32.4349 15.6815 32.2761 15.7344 32.2232C16.1043 32.0114 16.5271 31.8526 16.9499 31.7467C17.0555 31.6937 17.3726 31.9055 17.3726 32.0114C17.4255 32.2761 17.3198 32.5408 17.2669 32.8055C17.2669 32.8055 17.1084 32.8584 17.0555 32.8055C16.6328 32.329 16.1571 32.5408 15.6815 32.6467C15.7872 32.8055 15.8929 32.9114 16.0514 33.0702C16.1571 33.229 16.3157 33.3878 16.4214 33.5467C16.6856 33.8643 16.9499 34.1819 17.2141 34.4996C17.4255 34.7643 17.6369 35.029 17.3726 35.4525C17.2141 35.7172 17.3726 35.9819 17.7426 35.8231C18.0068 35.7172 18.2182 35.6643 18.4296 35.929C18.6938 36.2996 18.9581 36.6172 19.1695 37.0407C19.1695 36.829 19.1695 36.5643 19.2752 36.4054C19.3809 36.2466 19.4866 36.0349 19.5394 35.876C19.6451 35.5584 19.9622 35.4525 20.1207 35.7172C20.3321 36.1937 20.6492 36.0349 20.9663 35.9819C21.0191 35.9819 21.072 35.9819 21.072 35.929C21.0191 35.876 21.0191 35.8231 21.0191 35.8231C21.0191 35.7702 21.1777 35.6113 21.2305 35.6113C21.5476 35.6643 21.8647 35.5584 22.1289 35.6643C22.3403 35.6113 22.5517 35.5584 22.7103 35.5055C23.1331 35.3996 23.2916 35.6113 23.3973 35.929C23.503 36.2996 23.4501 36.5643 23.0274 36.6701C22.8688 36.7231 22.7103 36.776 22.5517 36.829C22.1289 36.8819 21.759 37.0937 21.3891 36.6172C21.2305 36.3525 20.5435 36.6701 20.4378 36.9878C20.2793 37.3584 19.6979 37.676 19.328 37.5701C19.1695 37.5172 19.0638 37.3054 19.0638 37.0937C19.0109 37.1466 18.7467 37.4113 18.6938 37.3584C18.3239 37.1996 18.0597 37.3584 17.7954 37.4643C17.9011 37.5172 17.954 37.6231 18.0597 37.676C17.9011 37.7819 17.7954 37.9407 17.6369 38.0466C17.5312 37.9407 17.4783 37.9407 17.4255 37.9407C17.1084 37.9937 16.7913 38.0995 16.6328 37.676C16.5799 37.5701 16.3685 37.6231 16.2628 37.5172C16.1571 37.4113 16.0514 37.2525 16.0514 37.0937C16.0514 36.9878 16.21 36.829 16.3157 36.829C16.4742 36.829 16.6328 36.776 16.7913 36.776C16.7913 36.7231 16.7913 36.6701 16.8442 36.5643C17.1084 35.929 16.6856 35.6643 16.4214 35.3466C16.0514 34.9231 15.6815 34.5525 15.3116 34.129C15.0473 33.8114 14.8888 33.9172 14.6245 34.0761C13.9904 34.5525 13.9904 34.5525 13.4619 33.9172C13.2505 33.6525 12.9863 33.3878 12.7749 33.1231C12.722 33.4408 12.722 33.7584 12.6692 34.0761C12.722 34.2878 12.6692 34.3937 12.6163 34.4996C12.5635 34.9761 12.5635 35.4525 12.5635 35.929C12.5635 35.9819 12.5635 36.0878 12.5635 36.1407C12.6163 36.1407 12.6163 36.1937 12.6692 36.1937C12.722 36.2466 12.6692 36.4584 12.6163 36.5113H12.5635C12.5635 36.9878 12.6163 37.5172 12.6692 37.9937C12.7749 37.8348 12.9863 37.7819 13.1977 37.729C13.2505 37.729 13.409 37.729 13.409 37.729C13.5676 38.1525 13.779 38.576 13.8318 38.9995C13.8847 39.3172 13.779 39.423 13.3033 39.5289C13.092 39.6348 12.9334 39.5819 12.8277 39.476C12.8806 39.7936 12.9334 40.1113 12.9863 40.376C13.779 40.1642 14.5188 40.0054 15.2059 39.7936C15.153 39.7407 15.2059 39.5819 15.2059 39.476C15.3116 39.476 15.4701 39.5289 15.6815 39.5289C15.6815 39.5819 15.6815 39.6348 15.6287 39.6877C16.1571 39.5289 16.5799 39.3701 16.9499 39.2642C17.4255 39.1054 18.1654 39.2642 18.4296 39.6877C18.4824 39.7407 18.4296 40.0054 18.3767 40.0583C18.1654 40.2172 17.9011 40.323 17.6897 40.4289C17.3726 40.5877 17.0555 40.5877 16.9499 41.0642C16.897 41.3818 15.9986 41.5407 15.7872 41.3289C15.523 41.0642 15.2587 41.1171 14.9945 41.1701C14.7302 41.223 14.5717 41.223 14.3603 40.9583C14.0432 40.5877 13.5147 40.6936 13.1977 41.0642C13.409 42.0171 13.6733 42.9171 14.0432 43.8171C14.2018 43.9759 14.4132 43.923 14.466 43.6583C14.5717 43.1289 14.9945 42.9701 15.4173 42.8642C15.8929 42.7583 16.3685 42.7054 16.897 42.5995C17.3726 42.4936 17.9011 42.4936 18.0068 41.8583C18.0068 41.8054 18.3767 41.6995 18.3767 41.7524C18.5353 42.0171 18.7467 42.0701 19.0638 42.123C19.4866 42.1759 19.6451 42.8642 19.328 43.1818C18.8524 43.6583 18.8524 43.7112 19.4337 43.9759C19.5394 44.0289 19.6451 44.1347 19.6451 44.2406C19.6451 44.3465 19.5394 44.5053 19.4866 44.5053C19.1695 44.6112 18.7995 44.8759 18.4824 44.4524C18.3767 44.3465 18.1125 44.3465 17.9011 44.3465C17.4255 44.3994 16.9499 44.7171 16.4742 44.1347C16.3157 43.923 15.9986 44.1877 15.9986 44.4524C15.9986 44.5583 15.9986 44.7171 16.0514 44.823C16.21 45.2994 15.8929 45.4053 15.523 45.5112C15.1002 45.6171 14.9416 45.4053 14.8888 45.0347C14.8888 44.9288 14.8359 44.823 14.7831 44.77C14.6774 44.6641 14.5717 44.5583 14.466 44.4524C14.466 44.5053 14.4132 44.5583 14.3603 44.6112C14.7831 45.5641 15.2059 46.5171 15.7872 47.417C15.84 47.3641 15.8929 47.3112 15.8929 47.2582C16.21 47.3641 16.4214 47.417 16.6328 47.47C16.4214 47.6288 16.2628 47.7876 16.0514 47.8935C17.1612 49.6935 18.5353 51.2817 20.0679 52.7111C20.2264 52.6581 20.385 52.6052 20.5964 52.6052C20.8606 52.5523 21.072 52.4993 21.3362 52.817C21.5476 53.0817 21.759 52.9758 21.8119 52.6581C21.9176 52.2876 22.6574 51.917 22.9745 52.0758C23.2388 52.2346 23.3444 53.0817 23.1331 53.3464C22.8688 53.717 22.3932 53.9817 22.2875 54.5111C23.9786 55.6757 25.8283 56.6287 27.8365 57.3169C27.9951 57.1581 28.1536 57.0522 28.3122 56.8934C28.5235 56.8934 28.6821 56.8934 28.7878 56.9463C28.9992 56.9993 29.2106 57.0522 29.3691 57.1051C29.2634 57.264 29.2106 57.4228 29.1049 57.5816C29.1049 57.6345 29.052 57.6875 29.052 57.7404C29.8976 58.0051 30.796 58.1639 31.6944 58.3228C31.7473 58.2698 31.7473 58.2169 31.8001 58.1639C31.8001 58.111 32.0115 58.111 32.0115 58.1639C32.0644 58.2698 32.1172 58.3228 32.17 58.3757C32.6985 58.4286 33.227 58.4816 33.7555 58.5345C33.7555 58.4816 33.7555 58.4816 33.8083 58.4286C33.914 58.3228 34.0726 58.3228 34.2311 58.2169C34.3368 58.2169 34.5482 58.1639 34.6539 58.2169C34.7067 58.2698 34.7596 58.4286 34.7596 58.5345C34.9181 58.5345 35.0767 58.5345 35.2352 58.5345C35.4995 58.5345 35.7637 58.5345 36.0279 58.5345C35.9751 58.4816 35.9751 58.3228 35.9751 58.2698C36.0279 58.2169 36.1336 58.2169 36.2393 58.2169C36.715 58.1639 37.0321 58.3228 37.3491 58.4816C39.6216 58.2698 41.7884 57.7404 43.7966 56.8934C43.5852 56.8934 43.4795 56.7346 43.4266 56.4699C43.321 56.0993 43.638 55.7287 44.0608 55.6757C44.3779 55.6228 44.4836 55.7816 44.5365 56.0463C44.5893 56.2581 44.5893 56.4169 44.5365 56.5757C45.2235 56.2581 45.8577 55.9404 46.4918 55.5699C46.439 55.5699 46.3861 55.5169 46.2804 55.464C46.3861 55.3581 46.439 55.2522 46.5447 55.2522C46.5975 55.2522 46.7032 55.3581 46.7032 55.411C46.7032 55.411 46.7032 55.411 46.7032 55.464C47.0732 55.2522 47.4431 54.9875 47.813 54.7758C47.813 54.7228 47.813 54.7228 47.813 54.6699C47.8659 54.6699 47.8659 54.6699 47.9187 54.7228C49.0285 53.9287 50.0855 53.0817 51.0367 52.1287H50.9839C50.9839 52.1287 50.9839 52.1287 50.9839 52.1817C50.7725 52.2346 50.5083 52.3405 50.244 52.3405C50.0855 52.3405 49.7684 52.2876 49.7684 52.1817C49.7155 51.917 49.7684 51.6523 49.7684 51.3876C49.8212 51.3876 49.9269 51.3876 49.9798 51.3876C50.3497 51.7052 50.7197 51.5464 51.0896 51.4935C51.301 51.4405 51.5124 51.3876 51.7238 51.3346C53.2035 49.6935 54.4719 47.8406 55.4231 45.8288C55.3703 45.8288 55.3703 45.7759 55.3174 45.7229C55.2117 45.5641 55.106 45.3524 55.0532 45.1406C55.0003 44.9288 55.0003 44.6641 55.3174 44.6112C55.476 44.6112 55.5817 44.823 55.7402 44.9288C55.7931 44.9818 55.7931 45.0347 55.7931 45.0877C56.4272 43.6583 56.9029 42.1759 57.1671 40.5877C57.0614 40.4819 57.0086 40.376 56.9029 40.2701C56.9029 40.2701 56.9029 40.2701 56.9557 40.2172C56.85 40.0583 56.6915 39.8995 56.5858 39.7407C56.2687 39.3172 56.2687 39.1054 56.7443 38.7348C56.9557 38.576 57.1671 38.5231 57.3256 38.7878C57.3785 38.8407 57.3785 38.8936 57.4313 38.9466C57.537 38.0466 57.5899 37.0937 57.5899 36.1407C57.5899 35.3466 57.537 34.6055 57.4842 33.8114C57.4313 33.9172 57.3785 34.0761 57.3785 34.2349C57.3785 34.3408 57.2728 34.4466 57.1671 34.4996C57.0614 34.4996 56.9557 34.4466 56.9029 34.3408C56.5858 33.8643 56.7443 32.9643 57.1671 32.6467C57.22 32.5937 57.2728 32.5937 57.3256 32.5937C57.2199 31.9585 57.1143 31.2702 56.9557 30.6349C56.9029 30.6879 56.9029 30.7408 56.85 30.7408C56.7972 30.7938 56.6386 30.7938 56.5858 30.7938C56.1101 30.8996 55.6874 31.0585 55.2117 31.1114C54.7889 31.1643 54.3662 31.3232 54.0491 30.8996C53.9962 30.8467 53.9434 30.8467 53.8377 30.7938C53.6791 30.6879 53.5206 30.6349 53.4149 30.5291C53.5734 30.4232 53.6791 30.2644 53.8905 30.2114C54.3662 30.0526 54.8946 29.7879 55.3703 30.3173C55.476 30.4232 55.7931 30.3702 56.0044 30.3702C56.2687 30.3173 56.4801 30.2114 56.7443 30.2114C56.7972 30.2114 56.7972 30.2114 56.85 30.2644C54.7889 22.588 48.8171 16.5528 41.207 14.4352C41.1542 14.4881 41.1013 14.594 40.9956 14.6469C40.7314 14.9116 40.52 14.8587 40.1501 14.3822C40.0444 14.2764 39.9915 14.2234 39.9915 14.1175C38.6703 13.8528 37.3491 13.6411 35.9751 13.6411C35.9751 13.9058 35.7109 14.0646 35.4995 14.1705C35.3938 14.2234 35.1295 14.1705 34.971 14.0646C34.8124 13.9587 34.7067 13.747 34.5482 13.5881C26.621 13.694 19.9093 17.7704 15.9986 23.8586ZM15.0473 30.1585C14.9945 30.2114 14.8359 30.1055 14.6774 29.9997C14.7831 29.8408 14.8359 29.735 14.9416 29.735C15.0473 29.735 15.153 29.7879 15.2587 29.8408C15.2059 29.9467 15.153 30.1055 15.0473 30.1585ZM14.6245 38.9995C14.5188 38.9466 14.4132 38.9466 14.3075 38.8936C14.2546 38.8407 14.3075 38.7348 14.3075 38.5231C14.466 38.6289 14.6245 38.6289 14.6774 38.7348C14.6774 38.7878 14.6245 38.8936 14.6245 38.9995ZM15.2587 38.4701C15.0473 38.576 14.8888 38.4172 14.8359 38.2054C14.7302 37.7819 14.8359 37.3054 15.0473 37.3584C15.2587 37.4113 15.3644 37.6231 15.6287 37.8348C15.4701 38.0995 15.4173 38.3642 15.2587 38.4701ZM17.5312 42.4406C17.4255 42.5465 17.2669 42.4936 16.9499 42.5465C17.0555 42.2818 17.0555 42.0701 17.1612 41.9642C17.2669 41.9112 17.4783 41.9642 17.6369 41.9642C17.584 42.123 17.584 42.3348 17.5312 42.4406ZM18.7995 47.2053C18.6938 47.2582 18.5353 47.0994 18.271 47.0465C18.4296 46.8347 18.5353 46.6759 18.641 46.6229C18.6938 46.57 18.9581 46.7288 18.9581 46.8347C18.9581 46.9406 18.9052 47.1523 18.7995 47.2053ZM55.3174 37.0937C55.6874 36.776 55.8459 37.0937 56.0044 37.3054C56.4272 37.8348 56.4272 37.9407 56.1101 38.2054C55.6874 38.576 55.476 38.5231 55.106 38.0995C54.8418 37.7819 54.8946 37.4113 55.3174 37.0937ZM19.328 37.9407C19.2752 37.9407 19.328 37.8348 19.328 37.676C19.4337 37.729 19.5394 37.729 19.5922 37.7819C19.6451 37.7819 19.5922 37.9407 19.5922 37.9407C19.4866 37.9937 19.4337 37.9937 19.328 37.9407ZM19.8565 51.3346C19.4866 51.4405 19.4866 51.0699 19.3809 50.8582C19.328 50.6464 19.2223 50.3817 19.5394 50.3288C19.6979 50.3288 19.8565 50.5405 20.0679 50.6993C19.9622 51.017 19.9622 51.3346 19.8565 51.3346ZM21.6005 47.2582C21.4948 47.3112 21.3891 47.3112 21.2305 47.3112C21.2834 47.1523 21.2834 47.0465 21.2834 46.9406C21.3891 46.9935 21.4948 46.9935 21.6005 47.0465C21.6533 47.0465 21.6533 47.2053 21.6005 47.2582ZM22.0233 46.4641C21.9704 46.7818 21.9704 46.9406 21.5476 46.7818C21.2305 46.6229 20.8077 46.7288 20.385 46.7288C20.2264 46.7288 20.0679 46.7818 19.9622 46.7818C19.8565 46.7818 19.7508 46.6759 19.6451 46.6229C19.6979 46.57 19.6979 46.4112 19.8036 46.4112C20.1736 46.2524 20.5435 46.0406 20.9134 45.8818V45.9347C21.072 45.8818 21.1777 45.8288 21.3362 45.8288C21.9176 45.723 22.0761 45.8818 22.0233 46.4641ZM19.9622 41.9112C20.0679 42.0171 20.1207 42.0701 20.1736 42.123C20.1736 42.1759 20.1207 42.2289 20.0679 42.2818C20.015 42.2289 19.9093 42.1759 19.8565 42.123C19.8565 42.123 19.9093 42.0171 19.9622 41.9112ZM19.9093 41.8054C19.9093 41.6465 19.9093 41.5407 19.9622 41.3818C19.9622 41.3289 20.0679 41.276 20.1207 41.223C20.2264 41.1701 20.3321 41.0642 20.4378 41.0113C20.4907 40.9583 20.5964 41.0113 20.7021 41.0113C20.7021 41.1171 20.7021 41.223 20.6492 41.276C20.5435 41.4348 20.4907 41.5936 20.3321 41.6995C20.2793 41.8054 20.0679 41.7524 19.9093 41.8054ZM22.7103 43.5524C22.1818 43.3406 21.7062 43.0759 21.2834 42.7054C21.072 42.4936 21.0191 42.0701 20.9663 41.7524C20.9663 41.6465 21.2305 41.4877 21.4419 41.3818C21.759 41.276 22.0761 41.223 22.3932 41.1171C22.3932 41.1171 22.3932 41.1171 22.3932 41.1701C22.7103 41.0642 23.0802 40.9583 23.3973 40.9054C23.7672 40.8524 23.9786 41.1171 23.8201 41.3818C23.503 41.8054 23.7144 42.2289 23.7672 42.6524C23.8201 42.9171 23.8201 43.3406 23.7144 43.3936C23.3973 43.5524 22.9745 43.6583 22.7103 43.5524ZM24.1372 43.4995C24.4543 43.1818 24.6656 43.3936 24.877 43.6583C25.2998 44.1877 25.2998 44.2936 24.877 44.6641C24.6656 44.77 24.4543 45.1936 24.0843 44.77C23.7144 44.3465 23.7144 43.87 24.1372 43.4995ZM24.7185 53.2934C24.6656 53.3993 24.6128 53.5052 24.5599 53.6111C24.5071 53.7699 24.5071 54.0346 24.4014 54.0875C24.19 54.1934 23.8729 54.2993 23.6087 54.2993C23.2916 54.2993 23.1331 53.8758 23.3444 53.717C23.9786 53.3464 23.6615 52.8699 23.6087 52.4464C23.5558 52.2876 23.503 52.1287 23.5558 52.0229C23.6087 51.917 23.7144 51.8111 23.8201 51.7582C24.0315 51.7052 24.7713 52.4464 24.9299 52.6581C24.877 52.8699 24.8242 53.0817 24.7185 53.2934ZM25.247 50.0111C25.1413 49.9582 24.9827 49.9052 24.9299 49.8523C24.877 49.7464 24.9299 49.5876 24.9827 49.3758C25.1413 49.4817 25.2998 49.5347 25.2998 49.6405C25.3527 49.7464 25.2998 49.8523 25.247 50.0111ZM25.2998 46.2524C25.1941 46.1465 25.4055 45.8288 25.4584 45.5112C25.7755 45.5112 26.1454 45.3524 26.2511 45.5112C26.5682 45.7759 26.2511 45.9877 26.0397 46.1994C25.8283 46.3582 25.5112 46.6229 25.2998 46.2524ZM27.1495 53.3993C26.621 53.6111 26.4625 53.5581 26.3039 52.9758C26.2511 52.8699 26.2511 52.764 26.1982 52.6052C26.1982 52.5523 26.1454 52.3934 26.1454 52.2876C26.0925 51.8111 26.1982 51.7052 26.6739 51.5993C27.0438 51.4935 27.2023 51.7052 27.308 52.0229C27.3609 52.2876 27.4666 52.6052 27.5194 52.8699C27.5723 53.1346 27.4666 53.2934 27.1495 53.3993ZM27.2552 48.4759C27.1495 48.37 26.991 48.2641 26.8853 48.1053C26.4096 47.6288 26.5153 47.0465 27.1495 46.8347C27.2552 46.7818 27.4666 46.8347 27.6251 46.9406C27.7837 47.0465 27.8365 47.2053 27.9951 47.3112C28.1008 47.417 28.1536 47.5229 28.2593 47.5759C28.4707 47.8406 28.6292 48.1053 28.2593 48.4229C27.8365 48.7406 27.5723 48.7935 27.2552 48.4759ZM28.6292 52.3405C28.1536 52.4464 28.0479 52.3934 27.9422 51.864C27.8894 51.5993 27.8365 51.3346 28.2065 51.2288C28.7349 51.1229 28.9463 51.2288 29.052 51.6523C29.1577 52.0758 29.1049 52.1817 28.6292 52.3405ZM33.914 56.7346C33.8612 56.7346 33.8083 56.7346 33.8612 56.7346C33.4912 56.8404 33.1742 56.9993 32.9099 56.6287C32.8042 56.6816 32.6985 56.6816 32.6457 56.7346C32.6985 56.6816 32.6985 56.5757 32.7514 56.5228C32.6457 56.5228 32.54 56.6287 32.4343 56.7875C32.1172 57.4228 31.6944 57.4757 31.0602 57.1051C30.9017 56.9993 30.6375 57.0522 30.4261 57.0522C30.2147 57.0522 29.8976 57.211 29.8976 56.8404C29.8976 56.7346 30.1618 56.5228 30.3204 56.4699C30.5846 56.364 30.8488 56.311 31.1131 56.2052C31.4302 56.0993 31.8001 56.0463 31.9587 55.7816C32.2229 55.411 32.4343 55.1463 32.8571 55.5699C32.9099 55.6228 33.1742 55.5169 33.227 55.411C33.4384 54.9346 33.914 54.8287 34.284 54.9346C34.4954 55.0405 34.7067 55.464 34.7596 55.7816C34.7067 56.311 34.4425 56.6287 33.914 56.7346ZM30.9545 52.0229C31.3245 51.7582 31.483 51.7582 31.8001 52.1817C32.0115 52.3934 32.0644 52.6581 31.7473 52.9228C31.4302 53.1875 31.2716 53.1875 30.9545 52.817C30.7432 52.5523 30.6375 52.2876 30.9545 52.0229ZM30.7432 50.3288C30.7432 50.1699 30.796 49.9582 30.9017 49.9052C31.1131 49.7994 31.2716 49.9582 31.3245 50.1699C31.3245 50.2229 31.3773 50.3288 31.4302 50.4876C31.4302 50.4876 31.483 50.6464 31.483 50.7523C31.4302 50.8582 31.3773 51.0699 31.2716 51.0699C31.1659 51.0699 31.0074 50.9641 30.9545 50.8582C30.796 50.7523 30.7432 50.5405 30.7432 50.3288ZM32.8571 54.1405C32.8571 53.9817 32.9099 53.8228 32.9099 53.664C33.0685 53.7169 33.227 53.717 33.3855 53.8228C33.4912 53.8758 33.5441 53.9817 33.7026 54.0875C33.7026 54.1934 33.8083 54.3522 33.7555 54.5111C33.7555 54.6169 33.4912 54.7758 33.4384 54.7228C33.2799 54.6699 33.1213 54.5111 33.0156 54.3522C32.9099 54.3522 32.8571 54.2464 32.8571 54.1405ZM35.2881 56.5228C35.1824 56.5757 35.0238 56.5757 34.9181 56.5228C34.8653 56.4699 34.8653 56.311 34.8653 56.1522C35.0767 56.2052 35.1824 56.2052 35.2881 56.2581C35.3409 56.2581 35.3409 56.4699 35.2881 56.5228ZM37.1906 54.8816C37.1377 54.9346 37.0321 54.9346 36.9792 54.8816C36.8735 54.8287 36.7678 54.7228 36.715 54.6169C36.6093 54.4581 36.5564 54.2464 36.5036 54.0346C36.715 54.0875 36.8735 54.1934 36.9792 54.2464C37.0849 54.4581 37.1906 54.564 37.2434 54.6699C37.2434 54.7228 37.1906 54.8287 37.1906 54.8816ZM40.3086 57.211C40.2558 57.264 40.1501 57.264 39.9387 57.3169C39.8858 57.3169 39.7801 57.3169 39.6744 57.3169L39.7273 57.3698C39.7801 57.4757 39.7273 57.7934 39.6744 57.7934C39.5159 57.8463 39.3045 57.8463 39.146 57.7404C38.9346 57.5287 38.7232 57.3169 38.4589 56.9463C38.3533 56.7875 38.1419 56.5757 37.9833 56.2581C37.9305 56.1522 37.9833 55.9934 38.0362 55.8346C38.0362 55.7816 38.3004 55.8346 38.3532 55.8875C38.6175 56.1522 38.8817 56.4169 39.146 56.6816C39.1988 56.6287 39.1988 56.5757 39.2517 56.4699C39.3574 56.2581 39.4102 55.9934 39.5159 55.9404C39.7801 55.8875 40.0972 55.9404 40.3615 55.9934L40.4143 56.0463C40.6257 56.2052 40.8899 56.311 41.1013 56.4699C40.8899 56.7875 40.5729 56.9993 40.3086 57.211ZM41.8941 56.0463C41.4184 56.4169 41.3127 56.364 40.9428 55.8875C40.6786 55.5699 40.7843 55.1463 41.2599 54.8287C41.577 54.6169 41.7884 54.7228 42.1055 55.1463C42.3697 55.5169 42.3697 55.6757 41.8941 56.0463ZM45.6463 53.2405C45.5934 53.3464 45.5406 53.4523 45.4877 53.5581C45.382 53.8758 45.2235 53.9287 44.9592 53.717C44.4308 53.3993 43.4795 53.6111 43.2153 54.1405C43.0039 54.5111 42.264 54.7758 41.9469 54.4581C41.577 54.0875 41.2599 54.2993 40.9428 54.3522C40.6257 54.4052 40.2029 54.4052 40.1501 54.9346C40.0972 55.3581 38.8289 55.5699 38.4589 55.3052C38.3533 55.1993 38.1947 55.0934 38.089 55.0934C37.6134 55.1463 37.6134 54.8287 37.5605 54.5111C37.5077 54.0875 37.7719 53.9287 38.089 53.8758C38.4589 53.5052 38.8817 54.4581 39.1988 53.8758C39.4631 53.4522 39.833 53.4522 40.2029 53.3464C41.1013 53.0817 42.0526 52.764 42.951 52.5523C43.2153 52.4993 43.5852 52.4464 43.7966 52.5523C44.2722 52.817 44.7478 52.764 45.2235 52.7111C45.382 52.7111 45.5934 52.764 45.752 52.764C45.8048 52.9228 45.6991 53.0817 45.6463 53.2405ZM42.951 49.5347C42.6339 49.5347 42.3168 49.5876 42.2111 49.4817C41.9469 49.217 42.264 49.0582 42.4754 48.8994C42.6339 48.7406 42.8982 48.4759 43.1096 48.7935C43.1624 48.9523 43.0039 49.217 42.951 49.5347ZM43.1096 51.6523C43.0567 51.7582 43.0567 51.864 43.0039 51.864C42.8982 51.917 42.7925 51.864 42.6339 51.8111C42.7396 51.6523 42.7925 51.5464 42.8453 51.5464C42.8982 51.5464 43.0039 51.5993 43.1096 51.6523ZM41.0485 48.5288C40.8899 48.5288 40.7314 48.4759 40.5729 48.4759C40.6257 48.37 40.7314 48.2112 40.7843 48.1053L40.8371 48.0523C40.8899 47.2053 41.577 47.2582 41.9998 47.1523C42.2111 47.0994 42.3168 47.0994 42.4225 47.0465C43.0567 46.6229 43.4266 47.2053 43.8494 47.417C43.9023 47.417 43.9023 47.7876 43.8494 47.8406C43.6909 47.9994 43.4795 48.1053 43.2681 48.1582C42.5282 48.2641 41.7884 48.4229 41.0485 48.5288ZM45.9633 48.1053C45.752 48.0523 45.5934 47.9994 45.4877 47.9464C45.2763 47.8406 45.0649 47.6817 44.8535 47.5229C44.6422 47.3641 44.6422 47.1523 44.9064 46.9935C45.2763 46.8347 45.752 46.8347 45.8048 46.2524C45.8048 46.1994 45.9633 46.1465 45.9633 46.1465C46.3333 46.3582 46.6504 46.5171 46.9675 46.7288C47.0203 46.7818 47.0203 46.9406 46.9675 46.9935C46.6504 47.417 46.3333 47.7347 45.9633 48.1053ZM44.4308 33.0702C43.7966 33.229 43.1096 33.4408 42.4754 33.5996C42.4754 33.6525 42.5282 33.7584 42.4754 33.8114C42.3697 33.9172 42.264 34.0231 42.1583 34.0761L41.9998 33.9702C42.0526 33.8643 42.1583 33.7584 42.264 33.6525C42.3168 33.5996 42.3697 33.5996 42.4754 33.5996C42.4225 33.3878 42.264 33.0702 42.6339 32.9643C43.3738 32.7526 44.1665 32.5408 44.9064 32.329C45.0649 32.2761 45.2235 32.382 45.382 32.4349C45.2763 32.5408 45.1706 32.7526 45.0121 32.8055C44.8535 32.9643 44.6421 33.0173 44.4308 33.0702ZM44.9592 36.5113C44.8007 36.6701 44.6422 36.829 44.4836 36.9348C44.1137 37.1466 44.008 37.0407 43.8494 36.3525C43.8494 36.2996 43.7966 36.1937 43.7966 36.0878C43.7966 35.9819 43.9023 35.8231 43.9551 35.8231C44.0608 35.7702 44.2194 35.8231 44.2722 35.876C44.3779 35.9819 44.4308 36.1407 44.5365 36.1937C44.6422 36.2996 44.8007 36.4054 44.9592 36.5113ZM46.3333 35.2937C46.439 35.2937 46.5447 35.3466 46.6504 35.3466C46.5975 35.4525 46.5975 35.5055 46.5447 35.6113C46.439 35.5584 46.2804 35.5584 46.2804 35.4525C46.2804 35.5055 46.3333 35.2937 46.3333 35.2937ZM47.0203 54.1934C46.5975 54.4052 46.4918 54.3522 46.439 53.8228C46.439 53.717 46.3861 53.6111 46.3861 53.5581C46.2804 53.3464 46.2804 53.0817 46.5447 52.9758C46.7032 52.9228 46.9146 53.0817 47.0203 53.0817C47.4431 53.717 47.4431 53.9287 47.0203 54.1934ZM47.0732 32.9643C47.0203 33.0173 46.8618 32.9114 46.5975 32.8055C46.8089 32.6467 46.9146 32.4879 47.0203 32.4349C47.126 32.4349 47.2317 32.5408 47.3902 32.5937C47.2845 32.7526 47.2317 32.9114 47.0732 32.9643ZM47.8659 50.8582C47.7602 50.8582 47.6016 50.8582 47.5488 50.8052C47.4959 50.7523 47.4959 50.5935 47.4959 50.4346C47.6545 50.4346 47.8659 50.4346 47.8659 50.4876C47.9187 50.5935 47.8659 50.7523 47.8659 50.8582ZM49.1871 52.3405C49.1871 52.3934 49.1342 52.4464 49.0814 52.5523C49.0285 52.6581 48.9228 52.817 48.87 52.9228C48.7643 52.817 48.6586 52.6581 48.5529 52.5523C48.5529 52.3405 48.5529 52.0758 48.6586 51.9699C48.8171 51.864 49.0285 51.864 49.2399 51.8111C49.2399 52.0229 49.2399 52.1817 49.1871 52.3405ZM48.8171 35.6643C48.183 35.8231 48.0773 35.7172 47.9187 35.1878C47.813 34.8172 47.9716 34.6584 48.3415 34.5525C48.9228 34.3937 49.2399 34.5525 49.3985 35.1349C49.5042 35.7172 48.9757 35.5055 48.8171 35.6643ZM50.0855 47.417C50.0326 47.47 49.8741 47.3641 49.557 47.2053C49.7684 47.0994 49.8741 46.9406 49.9269 46.9406C50.0326 46.9406 50.1383 47.0465 50.244 47.0994C50.1912 47.2582 50.1912 47.417 50.0855 47.417ZM49.9269 32.329C49.6099 32.4349 49.2399 32.4879 48.9228 32.5937V32.6467C48.7114 32.6996 48.5 32.7526 48.2887 32.6996C48.1301 32.6996 47.9187 32.5937 47.9187 32.4349C47.8659 32.329 48.0244 32.0643 48.1301 32.0643C48.5529 31.9055 48.9228 31.7996 49.1871 31.3761C49.2928 31.2173 49.7155 31.1643 49.9798 31.2173C50.0326 31.2173 50.0326 31.2702 50.0855 31.2702C50.1383 31.3761 50.1912 31.6408 50.244 31.7996C50.3497 32.1173 50.1912 32.2232 49.9269 32.329ZM51.7766 46.3582C51.6709 46.3053 51.5124 46.2524 51.4067 46.2524C51.0367 46.1465 50.5611 46.3053 50.5611 45.7759C50.5083 45.5112 50.4554 45.3524 50.5083 45.2465C50.5611 45.1406 50.6668 44.9818 50.7725 44.9818C50.9839 44.9288 51.7766 45.67 51.8295 45.9347C51.8295 46.0406 51.7766 46.1994 51.7766 46.3582ZM54.6304 34.8172C54.6304 34.9761 54.6304 35.1349 54.6304 35.2937C54.6304 35.4525 53.9962 35.9819 53.8377 35.9819C53.6791 35.9819 53.4678 35.929 53.3092 35.929C53.4149 35.7172 53.4678 35.5584 53.5734 35.3466C53.6263 35.2408 53.732 35.2408 53.8905 35.029C53.8905 35.029 53.9962 34.9231 54.1548 34.8702C54.2605 34.8172 54.4719 34.8172 54.6304 34.8172ZM53.5734 33.3349C53.732 33.3349 53.8905 33.4937 54.1019 33.6525C53.9962 33.9172 53.9434 34.2878 53.8377 34.3408C53.4678 34.4466 53.4677 34.0761 53.4149 33.8643C53.3621 33.6525 53.2564 33.3878 53.5734 33.3349ZM52.9921 28.4114C53.045 28.4114 53.2564 28.5173 53.2564 28.5703C53.2564 28.6761 53.1507 28.835 53.045 28.8879C52.9921 28.9408 52.8336 28.782 52.675 28.7291C52.8336 28.5703 52.8864 28.4114 52.9921 28.4114ZM52.8864 33.6525C53.0978 33.9172 53.2564 34.2349 53.4149 34.5525C53.4149 34.5525 53.3621 34.6584 53.3092 34.6584C52.9921 34.6055 52.6222 34.6584 52.3051 34.5525C52.3051 34.7643 52.2522 34.8702 52.0409 35.029C51.8295 35.1878 51.6181 35.3996 51.4595 35.5584C51.301 35.2937 51.1953 35.0819 51.0367 34.8172C50.9839 34.7114 50.8254 34.6584 50.7197 34.6055C50.614 34.5525 50.5083 34.4466 50.4026 34.3408C50.5083 34.2349 50.614 34.0761 50.7197 34.0231C50.8782 33.9172 51.0896 33.8643 51.1424 33.8643C51.7766 33.7055 52.0409 33.7584 52.1994 33.9702C52.2522 33.8643 52.3579 33.8114 52.4108 33.7055C52.5165 33.7055 52.8336 33.5467 52.8864 33.6525ZM51.7238 32.2761C51.8823 32.4349 52.0409 32.5937 52.1466 32.8055C52.1994 32.9114 52.1466 33.1231 52.1466 33.282C51.988 33.282 51.8295 33.229 51.6709 33.1761C51.5652 33.1231 51.5652 33.0173 51.3538 32.8055C51.4067 32.8584 51.2481 32.7526 51.2481 32.6467C51.1953 32.5408 51.1953 32.329 51.301 32.2761C51.4595 32.2232 51.6709 32.2232 51.7238 32.2761ZM51.4067 31.0055C51.3538 31.1114 51.2481 31.2173 51.1953 31.2173C51.0896 31.2702 50.931 31.1643 50.7197 31.1643C50.931 31.0055 50.9839 30.8467 51.0896 30.8467C51.1424 30.8467 51.2481 30.9526 51.4067 31.0055ZM50.0855 25.0762C50.4026 24.8644 50.614 25.0233 50.7725 25.288C51.0367 25.6056 50.931 25.7644 50.5083 26.0821C50.1383 26.3468 49.9798 26.135 49.7684 25.8703C49.6099 25.5527 49.7155 25.3409 50.0855 25.0762ZM49.3985 24.2292C49.4513 24.2821 49.557 24.335 49.557 24.335C49.557 24.388 49.5042 24.4939 49.4513 24.5468C49.3985 24.4939 49.2928 24.4939 49.2928 24.4409C49.2928 24.388 49.3456 24.2821 49.3985 24.2292ZM48.9228 28.9408C49.0285 29.0467 49.1342 29.1526 49.2928 29.3114C49.3985 29.4703 49.557 29.6291 49.6627 29.8938C49.7155 29.9997 49.7155 30.1585 49.6627 30.2114C49.6099 30.2644 49.4513 30.2644 49.3456 30.2644C49.1871 30.2644 49.0285 30.1055 48.9228 30.1585C48.6586 30.3173 48.3415 30.4761 48.183 30.0526C48.0244 29.682 47.8659 29.3114 48.2358 28.9408C48.4472 28.6761 48.6586 28.6232 48.9228 28.9408ZM48.0773 27.935C48.2358 28.1467 48.183 28.3056 47.9716 28.4114C47.7602 28.5173 47.4959 28.6232 47.2317 28.6761C47.1788 28.6232 47.126 28.5703 47.126 28.5173C47.2845 28.3056 47.3902 28.0409 47.6016 27.8291C47.7602 27.6703 47.9187 27.7762 48.0773 27.935ZM46.8089 17.9292C46.8089 17.8763 46.9146 17.9292 47.0732 17.9292C47.0203 18.0351 47.0203 18.141 46.9675 18.1939C46.9146 18.2469 46.8618 18.1939 46.7561 18.1939C46.8089 18.141 46.7561 18.0351 46.8089 17.9292ZM46.9675 24.7586C47.0203 24.7056 47.2845 24.8644 47.2845 24.9703C47.2845 25.0762 47.1789 25.235 47.126 25.3409C47.0732 25.3938 46.9146 25.235 46.7032 25.1291C46.8089 24.9703 46.8618 24.8115 46.9675 24.7586ZM47.2317 26.9291C47.2845 27.035 47.2845 27.2468 47.2845 27.4056C47.126 27.4056 46.9146 27.4056 46.8089 27.2997C46.5975 27.1409 46.3861 26.9291 46.2276 26.7174C46.0162 26.4527 45.8577 26.1879 45.4349 26.3468C45.2235 26.3997 44.6421 25.8703 44.695 25.7115C44.8007 25.4468 45.0121 25.1821 45.2235 24.9174C45.2763 24.8644 45.5406 24.9703 45.6463 25.0762C45.9105 25.3409 46.1219 25.6585 46.3861 25.9232C46.7032 26.2409 46.9675 26.5585 47.2317 26.9291ZM45.1178 19.3057C45.4877 19.041 45.6463 19.041 45.9633 19.4645C46.2276 19.7822 46.1747 19.941 45.8048 20.2586C45.5406 20.4704 45.2763 20.5763 45.0649 20.2586C44.695 19.8351 44.695 19.6233 45.1178 19.3057ZM37.5077 15.5469C37.7719 15.3881 38.0362 15.0705 38.3532 15.441C38.6175 15.7587 38.8289 16.0234 39.0931 16.341C39.2517 16.5528 39.4102 16.7116 39.5688 16.9234C39.7801 17.1881 40.0444 17.4528 39.833 17.8763C39.7273 18.0881 39.8858 18.2469 40.2029 18.2469C40.8371 18.1939 40.8371 18.2469 40.7314 18.8822C40.7314 18.9881 40.7314 19.1469 40.7843 19.2528C41.1542 19.7292 41.4713 20.2057 41.8941 20.6292C41.9998 20.7351 42.2111 20.7351 42.3697 20.7351C42.7396 20.6821 42.8982 20.841 42.7396 21.1586C42.5282 21.5292 42.7396 21.741 42.951 21.9527C43.4266 22.5351 43.9551 23.1174 44.4308 23.6997C44.5365 23.8586 44.695 24.0174 44.7478 24.2292C44.8007 24.335 44.6422 24.5468 44.5893 24.5468C43.9551 24.7056 42.8982 24.1233 42.6339 23.435C42.5811 23.3292 42.6339 23.1703 42.6339 23.0645C42.7396 22.4821 42.4754 22.1115 41.8412 22.1115C41.6298 22.1115 41.4184 22.0057 41.2599 21.8998C40.7843 21.4233 40.4143 20.8939 39.9915 20.4174C39.7801 20.1527 39.5159 19.941 39.7273 19.4645C39.8858 19.1469 39.3574 18.5645 38.9874 18.6704C38.6703 18.7234 38.5118 18.6175 38.3532 18.4057C38.089 17.8234 37.402 17.5587 37.7191 16.7646C37.7719 16.6587 37.5077 16.394 37.402 16.1822C37.1377 15.9175 37.2434 15.7058 37.5077 15.5469ZM36.0279 15.2822C36.1336 14.9646 36.1865 14.7528 36.1336 14.4352C36.1336 14.3822 36.345 14.2234 36.3979 14.2234C36.6093 14.3822 36.8735 14.594 37.0321 14.8058C37.0849 14.9116 36.9264 15.1763 36.9264 15.2822C36.715 15.441 36.5564 15.5469 36.4507 15.5999C36.1336 15.7057 35.9751 15.494 36.0279 15.2822ZM37.9833 20.3645V23.1703C40.9956 23.8056 42.7396 25.4997 43.6909 26.9291C44.9592 28.8879 45.0649 31.2173 45.0649 31.5879H41.4184C41.207 31.7996 40.8899 32.0114 40.6257 32.0114C40.3086 32.0114 40.2029 31.8526 40.3615 31.5879H39.833C39.833 31.3761 39.7801 30.3702 39.2517 29.682C38.5118 28.6761 37.1378 28.0409 35.1824 27.9879C35.1824 28.0938 35.1295 28.1997 35.0767 28.3056C34.971 28.2526 34.9181 28.2526 34.601 28.0938C34.6539 28.0409 34.7067 28.0409 34.7596 27.9879C32.5928 28.0409 30.2675 28.5703 30.2675 30.2114C30.2675 31.7467 31.7473 32.5937 34.8653 33.0173C34.9181 32.9643 34.971 32.9114 35.0238 32.9114C35.1295 32.9114 35.2352 33.0173 35.2881 33.0702C37.0849 33.282 38.6175 33.6525 39.8858 34.1819C39.9387 34.1819 39.9915 34.1819 40.0444 34.129C40.1501 34.129 40.2558 34.0761 40.4143 34.0761C40.4672 34.0761 40.5729 34.0761 40.6257 34.129C40.6786 34.1819 40.7314 34.3937 40.7314 34.3937C40.6786 34.3937 40.6257 34.4466 40.5729 34.4466C41.7355 35.029 42.6868 35.7172 43.4266 36.5643C44.2722 37.5701 44.8535 38.7878 45.0121 40.0583C45.0649 40.0054 45.1178 40.0054 45.1178 40.0054C45.1706 40.0054 45.2763 40.1113 45.3292 40.1642C45.2763 40.2171 45.1706 40.323 45.0649 40.376H45.0121C45.0121 40.5877 45.0649 40.7995 45.0649 41.0113C45.0649 41.8054 45.0649 43.8171 43.4266 45.6171C42.6339 46.57 41.4713 47.2582 40.0972 47.7347C39.5688 47.9464 38.9874 48.1053 38.4061 48.2112C38.4589 48.317 38.5646 48.4229 38.5646 48.5288C38.7232 48.8464 38.7232 49.217 39.1988 49.217C39.2517 49.217 39.3574 49.4288 39.3574 49.4817C39.3574 49.5876 39.1988 49.6935 39.146 49.6935C38.8289 49.6935 38.5646 49.7994 38.2476 49.5347C38.1419 49.4288 38.089 49.3758 38.0362 49.3758V51.0699C38.089 51.017 38.1947 50.9641 38.2476 50.9641C38.3004 50.9641 38.5118 51.017 38.5118 51.0699C38.5118 51.4405 38.5118 51.8111 38.4589 52.2346C38.4589 52.2876 38.1947 52.3934 38.1419 52.3405C37.9305 52.1287 37.7191 51.9699 37.6134 51.7052C37.6134 51.6523 37.6134 51.5993 37.6134 51.5464H34.5482C34.4954 51.5464 34.3897 51.5993 34.3368 51.5993C34.2311 51.5993 34.1783 51.5993 34.0726 51.6523C33.6498 51.7052 33.3327 51.7052 33.1213 51.5464H31.9058V48.5288C31.8001 48.6347 31.5359 48.6347 31.483 48.5817C31.2716 48.37 31.0602 48.1053 30.8488 47.8935C30.6903 47.8406 30.5846 47.7876 30.4261 47.7347C29.2106 47.2582 28.2593 46.57 27.3609 45.7229C25.7755 44.2936 25.1413 42.5465 24.9299 41.276C24.7713 41.1701 24.5599 41.0642 24.4014 41.0113C24.5071 40.8524 24.6128 40.7466 24.6656 40.6407C24.4014 40.323 24.1372 40.0054 23.8201 39.6348C23.6615 39.476 23.5558 39.3172 23.503 39.1583C23.4501 39.1054 23.3973 39.1054 23.3973 39.0525C23.2388 38.8407 23.1331 38.6289 22.9217 38.5231C22.446 38.3642 22.0761 38.6819 22.1289 39.2113C22.1289 39.3701 22.1818 39.5289 22.1289 39.6348C22.0761 39.7407 21.8647 39.7936 21.759 39.8466C21.5476 39.423 20.9663 39.6877 20.7549 39.2113C20.7549 39.1583 20.4907 39.1054 20.385 39.1054C20.2264 39.1054 20.0679 39.1583 19.9622 39.1583C19.6979 39.2113 19.4866 39.1583 19.4337 38.8936C19.3809 38.6289 19.5922 38.5231 19.8036 38.4701C19.8565 38.4701 19.9093 38.4701 19.9622 38.4172C19.9622 38.4172 19.9622 38.4172 19.9622 38.4701C20.7549 38.2584 21.6005 38.0466 22.3932 37.8878H22.446C22.3932 37.7819 22.3932 37.6231 22.3403 37.4113C22.5517 37.4643 22.7631 37.4113 22.816 37.5172C22.8688 37.5701 22.8688 37.729 22.816 37.8348C23.1859 37.7819 23.5558 37.7819 23.9258 37.9407C24.1372 38.0466 24.7713 37.8348 24.8242 37.676C24.9299 37.1466 25.3527 37.0937 25.7226 36.9878C26.1454 36.8819 26.621 36.829 27.0438 36.829C27.1495 36.829 27.2552 36.9348 27.3609 37.0407C27.308 37.1466 27.2552 37.3054 27.1495 37.3584C26.9381 37.4643 26.6739 37.5172 26.4625 37.6231C26.1982 37.729 25.8811 37.7819 25.8283 38.1525C25.8283 38.2584 25.7226 38.3642 25.6169 38.4172C25.1941 38.576 24.7713 38.6289 24.6128 39.2113C24.6656 39.3172 24.7185 39.3701 24.8242 39.476C24.877 39.5289 24.9299 39.5819 24.9827 39.6877C24.9827 39.476 24.9827 39.3172 24.9827 39.2642L29.5805 39.3172C29.8447 39.2642 30.1618 39.2113 30.4261 39.1583C30.796 39.1054 31.0602 38.9995 31.3245 39.3701C31.483 39.6348 31.7473 39.5289 31.8001 39.2642C31.9058 38.8936 32.1172 38.8407 32.4343 38.7348C33.1213 38.5231 33.7555 38.3642 34.4425 38.1525C32.8571 37.9937 31.483 37.6231 30.3204 37.1995C29.9504 37.2525 29.5277 37.3584 29.2106 37.5701C29.1577 37.6231 29.052 37.6231 28.9992 37.6231C28.7349 37.6231 28.365 37.8878 28.2593 37.4643C28.1008 36.9878 28.5235 37.0407 28.7878 36.9348C28.9463 36.8819 29.052 36.829 29.1577 36.7231C28.365 36.2996 27.678 35.8231 27.0966 35.2408C27.0966 35.3996 27.0966 35.5584 26.8324 35.6113C26.5682 35.6643 26.3568 35.5584 26.3568 35.2937C26.3568 35.029 26.1982 34.7114 26.4096 34.4996C25.4584 33.3349 25.0356 32.0114 25.0356 30.5291C25.0356 30.3702 25.0356 30.2644 25.0356 30.1055C24.9827 29.9467 24.9827 29.7879 25.0356 29.682C25.247 27.8291 26.0397 26.5585 26.6739 25.7644C27.9422 24.388 29.6862 23.488 32.0115 23.0645V20.3116H37.9833V20.3645ZM36.0279 29.1526C35.9751 29.1526 35.8694 28.9938 35.8694 28.9408C35.8694 28.835 35.9222 28.782 35.9751 28.6761C36.0808 28.6761 36.1336 28.6232 36.2393 28.6232C36.5036 28.6232 36.7678 28.6232 37.0321 28.6761C37.1378 28.6761 37.2434 28.835 37.3491 28.9408C37.2434 29.0467 37.1378 29.2056 37.0849 29.2056C36.6621 29.2585 36.345 29.2056 36.0279 29.1526ZM36.8735 32.9114C36.7678 32.8584 36.715 32.8584 36.3979 32.6996C36.5564 32.5937 36.6093 32.4879 36.715 32.4879C36.8207 32.4879 36.9264 32.5937 36.9792 32.6467C36.9792 32.7526 36.9264 32.8584 36.8735 32.9114ZM25.0356 23.6468C25.1941 23.6997 25.3527 23.6997 25.4055 23.7527C25.4584 23.8586 25.4055 24.0174 25.3527 24.1233C25.247 24.0703 25.0884 24.0703 24.9827 24.0174C24.9299 24.0174 24.9827 23.8056 25.0356 23.6468ZM32.6457 18.7234C32.8042 18.8292 32.9099 18.8822 32.9099 18.9351C32.9099 19.041 32.8571 19.1469 32.8571 19.2528C32.8042 19.1998 32.6457 19.1998 32.6457 19.1469C32.54 19.041 32.5928 18.9351 32.6457 18.7234ZM33.0156 18.4587C32.9099 18.4587 32.8042 18.4587 32.7514 18.4057C32.6985 18.3528 32.6985 18.1939 32.5928 18.0351C32.8042 18.0881 32.9099 18.0881 32.9628 18.141C33.0685 18.1939 33.0156 18.3528 33.0156 18.4587ZM32.54 15.6528C32.5928 15.6528 32.7514 15.7587 32.7514 15.8646C32.7514 15.9705 32.6985 16.1293 32.6457 16.2352C32.54 16.1822 32.4343 16.1293 32.1172 15.9705C32.3286 15.8116 32.3814 15.6528 32.54 15.6528ZM31.5359 16.6057C31.6944 16.5528 31.9058 16.6057 32.1172 16.6057C32.17 16.9763 32.17 17.1881 32.2229 17.4528C31.9587 17.294 31.6416 17.1881 31.4302 16.9763C31.3773 17.0293 31.4302 16.6587 31.5359 16.6057ZM30.2675 15.1234C30.3732 15.0175 30.5318 15.0705 30.8488 15.0175C30.6903 15.3352 30.6375 15.494 30.5318 15.5469C30.4261 15.5999 30.2675 15.5469 30.1618 15.5469C30.1618 15.441 30.1618 15.2293 30.2675 15.1234ZM26.9381 17.9822C27.2023 17.7175 27.5194 17.3998 27.8365 17.1881C27.8894 17.1351 28.1008 17.1881 28.2065 17.241C28.2065 17.3998 28.2065 17.5057 28.1008 17.6645C28.0479 17.7704 27.8894 17.8763 27.7837 17.9822C27.5723 18.0881 27.4137 18.2469 27.2023 18.3528C27.0966 18.4057 26.9381 18.4057 26.8853 18.3528C26.8853 18.2469 26.8853 18.0351 26.9381 17.9822ZM26.4096 16.2881C26.4096 16.341 26.4096 16.394 26.3568 16.4999C26.2511 16.4999 26.1982 16.4999 26.1454 16.4469C26.0925 16.394 26.0925 16.341 26.0397 16.1293C26.2511 16.1822 26.3568 16.2352 26.4096 16.2881ZM25.9868 21.3704C25.9868 21.2645 26.0925 21.1057 26.1454 21.1057C26.2511 21.0527 26.4096 21.1057 26.5153 21.1586C26.621 21.2116 26.6739 21.3704 26.7796 21.4763C26.8853 21.5821 26.991 21.741 27.1495 21.8468C26.8853 22.0057 26.6739 22.1645 26.4096 22.2174C26.3039 22.2174 26.1454 21.9527 26.0397 21.8998C25.9868 21.6351 25.934 21.4763 25.9868 21.3704ZM24.4543 17.8763C24.5071 17.6645 24.7713 17.5587 24.9827 17.3469C25.247 17.3998 25.5641 17.3998 25.6169 17.5587C25.7226 17.8234 25.7755 18.141 25.7755 18.4587C25.7755 18.5116 25.6698 18.6175 25.6169 18.6175C25.4584 18.6175 25.1941 18.6175 25.1413 18.5116C25.0356 18.141 24.3486 18.4057 24.4543 17.8763ZM23.9786 29.8938C24.2429 29.735 24.4543 29.9997 24.4543 30.2644C24.5071 30.5291 24.6128 30.8467 24.2429 30.9526C23.8729 31.0585 23.8201 30.7408 23.6615 30.3702C23.7672 30.2644 23.8201 29.9997 23.9786 29.8938ZM24.5071 34.5525C24.5071 34.7643 24.4014 34.9761 24.2957 35.1878C24.0315 35.2408 23.7672 35.3996 23.6615 35.3466C23.4501 35.1878 23.2388 34.9231 23.0802 34.6584C23.0274 34.6055 23.0802 34.4996 23.1331 34.4466C23.3444 34.2349 24.5071 34.2878 24.5071 34.5525ZM22.3403 18.1939C22.446 18.1939 22.6574 18.3528 22.6574 18.4057C22.6574 18.5645 22.4989 18.6704 22.446 18.7763C22.3403 18.6704 22.2346 18.6175 22.0761 18.5116C22.1818 18.4057 22.2346 18.1939 22.3403 18.1939ZM21.9176 24.1233C21.9704 24.0703 22.1289 23.9645 22.1818 24.0174C22.5517 24.1762 22.8688 24.4409 23.3444 24.5468C23.7144 24.6527 23.2916 24.9174 23.2388 25.0762C22.9217 25.235 22.0233 25.3938 21.8119 25.235C21.7062 25.1821 21.6533 24.9703 21.6533 24.8644C21.7062 24.5997 21.8119 24.335 21.9176 24.1233ZM20.9663 30.8467C21.1248 31.0055 21.2834 31.1643 21.4948 31.3761C21.3362 31.5879 21.2834 31.7467 21.1777 31.9055C21.072 31.7996 20.8606 31.6937 20.8606 31.5879C20.8606 31.3232 20.9134 31.1114 20.9663 30.8467ZM19.7508 22.3762C19.8565 22.3233 20.015 22.3233 20.1207 22.3233C20.1207 22.4821 20.1736 22.6409 20.0679 22.7998C20.015 22.8527 19.8036 22.8527 19.5922 22.8527C19.6979 22.6409 19.6979 22.4292 19.7508 22.3762Z" fill="#FEFEFE"/>
</svg>
