<svg width="70" height="70" viewBox="0 0 70 70" fill="none" xmlns="http://www.w3.org/2000/svg">
<g clip-path="url(#clip0_0_1365)">
<path d="M47.1396 33.5413C47.0875 33.5413 47.0354 33.6455 46.9312 33.7497C47.0875 33.8018 47.1396 33.8018 47.1917 33.8018C47.2438 33.8018 47.2959 33.6976 47.2959 33.6455C47.2959 33.5934 47.1917 33.5413 47.1396 33.5413Z" fill="#FEFEFE"/>
<path d="M55.8407 44.5865C55.8928 44.4823 55.9449 44.4302 55.997 44.3781C55.8928 44.326 55.8407 44.2739 55.7365 44.2739C55.6844 44.2739 55.6323 44.3781 55.6323 44.4823C55.6323 44.4823 55.7365 44.5344 55.8407 44.5865Z" fill="#FEFEFE"/>
<path d="M40.4186 58.6537C40.4186 58.6016 40.4707 58.5495 40.4707 58.4974C40.6791 58.4453 40.8875 58.3411 40.7833 58.0806C40.7833 58.0285 40.7312 57.9764 40.6791 57.9243C40.6791 57.7159 40.5749 57.5596 40.4707 57.4033C40.3665 57.247 40.0539 57.2991 39.8976 57.2991C39.6892 57.3512 39.585 57.4033 39.5329 57.4033C39.0119 57.5596 39.0119 57.6638 39.1682 58.1848C39.2724 58.6016 39.6371 58.5495 39.8455 58.7579C39.9497 58.8621 40.0539 58.9142 40.106 58.9142H40.1581C40.2623 58.9142 40.3144 58.81 40.4186 58.6537Z" fill="#FEFEFE"/>
<path d="M55.2154 41.2C55.2675 41.3042 55.4238 41.4084 55.4759 41.3563C55.5801 41.3042 55.6322 41.1479 55.7365 41.0958C55.6322 41.0437 55.528 40.9916 55.2675 40.7832C55.2154 40.9395 55.1633 41.0958 55.2154 41.2Z" fill="#FEFEFE"/>
<path d="M53.9126 48.2856C53.9647 48.3898 54.0689 48.3898 54.2252 48.494C54.2773 48.3377 54.3294 48.2335 54.2773 48.1814C54.2252 48.1293 54.0689 48.0772 54.0168 48.0251C54.0168 48.1293 53.9126 48.2335 53.9126 48.2856Z" fill="#FEFEFE"/>
<path d="M46.2538 42.6588C46.0975 42.5025 45.8891 42.5546 45.837 42.763C45.7849 43.1798 45.4722 43.2319 45.1596 43.3361C44.9512 43.3882 44.7428 43.4403 44.5865 43.5445C44.4823 43.5966 44.4302 43.7529 44.2739 43.9613C44.6907 44.1176 45.0033 44.3781 45.3159 44.326C45.9412 44.2739 46.5664 44.0655 47.1916 43.8571C47.8168 43.6487 48.0252 43.7008 48.3378 44.2739C48.3899 44.3781 48.5462 44.5344 48.6504 44.5344C48.9109 44.4823 48.8067 44.2739 48.8067 44.1176C48.8067 44.0655 48.7546 44.0134 48.7546 43.9092C48.6504 43.3882 48.7025 43.3882 49.2235 43.284C49.7966 43.1798 50.3176 42.9714 50.8386 42.8151C51.2554 42.7109 51.6201 42.5546 52.0369 42.4504C52.7664 42.242 53.5479 42.0857 54.2773 41.8773C54.3294 41.8773 54.4336 41.8252 54.4336 41.8252C54.4857 41.721 54.5899 41.6168 54.5899 41.5126C54.5899 41.4084 54.4857 41.3042 54.3815 41.2521C54.2252 41.1479 54.0689 41.0437 53.9126 40.9916C53.8084 40.9395 53.6521 40.9395 53.5479 40.9395C52.6622 41.2 51.7764 41.5126 50.8907 41.7731C50.6302 41.8773 50.4218 41.9294 50.3697 42.242C50.3176 42.4504 50.1092 42.5546 49.9529 42.3462C49.7445 41.9815 49.484 42.0857 49.1714 42.1899C48.3899 42.3983 47.6084 42.6067 46.8269 42.763C46.6706 42.8151 46.4622 42.9193 46.2538 42.6588Z" fill="#FEFEFE"/>
<path d="M53.2876 36.8758C53.2876 36.8237 53.1313 36.7195 53.0271 36.7195C52.9229 36.7195 52.8708 36.8758 52.7666 36.98C52.9229 37.0321 53.0271 37.1363 53.1313 37.1363C53.1834 37.0842 53.2876 36.9279 53.2876 36.8758Z" fill="#FEFEFE"/>
<path d="M56.2571 40.3142C56.205 40.3142 56.1529 40.4185 55.9966 40.5227C56.1529 40.5748 56.205 40.5748 56.2571 40.5748C56.3092 40.5227 56.3613 40.4706 56.3613 40.4185C56.3613 40.3664 56.3092 40.2621 56.2571 40.3142Z" fill="#FEFEFE"/>
<path d="M57.9246 43.3363C57.8725 43.4405 57.7683 43.4926 57.7162 43.5447C57.6641 43.6489 57.6641 43.8052 57.6641 43.8052C57.7162 43.8052 57.7683 43.8052 57.8204 43.8573C57.9246 43.5968 58.0288 43.2842 58.133 43.0237C58.0288 43.0758 57.9767 43.2321 57.9246 43.3363Z" fill="#FEFEFE"/>
<path d="M58.5498 40.054C58.2893 40.054 58.0288 40.1582 57.7683 40.2624C57.7162 40.3145 57.7683 40.575 57.7683 40.7834C57.7683 40.8876 57.8204 40.9397 57.8204 41.0439C57.8725 41.2002 57.9246 41.4086 57.9767 41.5649C58.0288 41.617 58.133 41.7212 58.1851 41.7212C58.2372 41.7212 58.3414 41.617 58.3935 41.5649C58.4977 41.4086 58.5498 41.2002 58.654 41.0439C58.654 40.9397 58.7061 40.8355 58.7061 40.7313C58.8103 40.4187 58.7061 40.054 58.5498 40.054Z" fill="#FEFEFE"/>
<path d="M54.5378 36.3025C54.4857 36.3025 54.4336 36.4067 54.2773 36.4588C54.5378 36.563 54.5899 36.563 54.6941 36.6151C54.6941 36.563 54.7983 36.4588 54.7462 36.4067C54.6941 36.3546 54.5899 36.3025 54.5378 36.3025Z" fill="#FEFEFE"/>
<path d="M52.0891 37.4489C52.1933 37.3968 52.2454 37.2926 52.2975 37.1884C52.1933 37.1363 52.1412 37.0321 52.037 36.98C51.8807 36.8758 51.7244 36.8237 51.5681 36.7716C51.4639 36.7195 51.3597 36.7716 51.3076 36.7195C51.3076 36.98 51.3076 37.2405 51.3597 37.501C51.3597 37.5531 51.6202 37.6052 51.7244 37.6052C51.8807 37.5531 52.037 37.501 52.0891 37.4489Z" fill="#FEFEFE"/>
<path d="M40.5751 48.963C40.6793 48.963 40.8356 48.9109 40.9398 48.9109C41.2524 48.9109 41.6171 48.8067 41.9297 48.9109C42.2944 49.0672 42.3465 48.9109 42.3465 48.6503C42.3986 48.1293 42.2423 48.0251 41.7734 48.1293C41.6692 48.1814 41.5129 48.1814 41.4087 48.2335C41.4087 48.2335 41.4087 48.2335 41.4087 48.1814C41.0961 48.3377 40.7835 48.494 40.4709 48.6503C40.4188 48.7024 40.3667 48.8067 40.3667 48.8588C40.4188 48.8588 40.523 48.963 40.5751 48.963Z" fill="#FEFEFE"/>
<path d="M50.1092 52.1412C50.1613 52.2454 50.3176 52.2975 50.3697 52.2975C50.4739 52.2975 50.526 52.1412 50.526 52.037C50.526 51.9328 50.4739 51.8286 50.4739 51.8286C50.4218 51.6723 50.4218 51.6202 50.3697 51.5681C50.3176 51.4118 50.2134 51.2555 50.005 51.3597C49.9008 51.4118 49.8487 51.6202 49.9008 51.7244C49.9529 51.8286 50.005 51.9849 50.1092 52.1412Z" fill="#FEFEFE"/>
<path d="M50.9428 53.079C50.6823 52.2975 50.5781 52.2454 50.0571 52.4017C49.7445 52.5059 49.8487 52.7143 49.7966 52.9227C49.7445 53.1311 49.8487 53.3916 49.9529 53.6C50.1613 53.9647 50.526 53.9126 50.7865 53.7563L50.8386 53.7042C50.9428 53.5479 50.8907 53.2874 50.9428 53.079Z" fill="#FEFEFE"/>
<path d="M49.849 44.0136C49.7448 43.9094 49.6406 43.8573 49.5364 43.8052C49.4843 43.9094 49.3801 44.0657 49.4322 44.1699C49.4322 44.3262 49.5364 44.4304 49.6406 44.5346C49.6927 44.5867 49.7969 44.6388 49.849 44.6388C49.9011 44.6388 49.9532 44.5346 49.9532 44.4304C49.9532 44.3262 49.9011 44.222 49.9011 44.1178C49.849 44.0657 49.849 44.0136 49.849 44.0136Z" fill="#FEFEFE"/>
<path d="M49.9009 45.0034C49.8488 45.0555 49.7967 45.1076 49.7446 45.2118C49.8488 45.2639 49.9009 45.3681 49.953 45.3681C50.0051 45.3681 50.1093 45.2639 50.1093 45.2118C50.0572 45.1076 49.953 45.0555 49.9009 45.0034Z" fill="#FEFEFE"/>
<path d="M40.679 44.9512C40.679 44.8991 40.5748 44.847 40.5227 44.7949C40.4706 44.8991 40.4185 44.9512 40.4185 45.0033C40.4706 45.0554 40.5227 45.1075 40.5748 45.1075C40.6269 45.0554 40.679 45.0033 40.679 44.9512Z" fill="#FEFEFE"/>
<path d="M46.2539 54.0168C46.4102 54.4857 46.5665 54.5378 46.9834 54.3294C47.2439 54.2252 47.296 54.0688 47.2439 53.8604C47.1918 53.5999 47.1397 53.3915 47.0355 53.131C46.9833 52.8705 46.827 52.7142 46.5144 52.7663C46.0976 52.8705 45.9934 52.9747 46.0976 53.3915C46.0976 53.4957 46.1497 53.652 46.1497 53.7041C46.2018 53.8604 46.2018 53.9646 46.2539 54.0168Z" fill="#FEFEFE"/>
<path d="M49.0153 46.5664C49.1195 46.5143 49.2237 46.5143 49.2758 46.4101C49.3279 46.358 49.3279 46.2538 49.38 46.2017C49.2237 46.2017 49.0674 46.0975 48.9632 46.1496C48.8069 46.2017 48.7027 46.358 48.5464 46.4622C48.5985 46.5143 48.6506 46.5664 48.7548 46.5664C48.8069 46.6185 48.9111 46.5664 49.0153 46.5664Z" fill="#FEFEFE"/>
<path d="M47.8169 52.5059C47.4522 52.558 47.5043 52.8185 47.6085 53.0269C47.7127 53.4437 47.8169 53.5479 48.2337 53.3916C48.6505 53.2874 48.7026 53.1832 48.5984 52.8185C48.4421 52.4538 48.2337 52.4017 47.8169 52.5059Z" fill="#FEFEFE"/>
<path d="M42.9197 56.3615C42.9197 56.3094 42.8155 56.3094 42.7634 56.2573C42.7113 56.4136 42.6592 56.5178 42.6592 56.6741V56.7262C42.8676 56.6741 43.0239 56.622 42.9197 56.3615Z" fill="#FEFEFE"/>
<path d="M35.9903 37.553C35.9903 37.6051 36.1987 37.6572 36.2508 37.6572C36.355 37.553 36.4071 37.4488 36.4071 37.3446C36.4071 37.2404 36.355 37.1362 36.355 37.032C36.2508 37.0841 36.0945 37.0841 36.0424 37.1883C35.9382 37.2404 35.9382 37.3967 35.9903 37.553Z" fill="#FEFEFE"/>
<path d="M37.6053 37.032H37.7616C37.8137 36.8236 37.8658 36.5631 37.8137 36.3547C37.8137 36.2505 37.5532 36.0942 37.449 36.1463C37.0843 36.2505 36.7195 36.4068 36.4069 36.6152C36.3548 36.6673 36.3548 36.8757 36.3027 36.9799C36.7716 36.8757 37.1885 36.6152 37.6053 37.032Z" fill="#FEFEFE"/>
<path d="M37.0839 37.2924C37.0318 37.2403 36.9276 37.1882 36.8755 37.1882C36.8234 37.2403 36.7192 37.3445 36.7192 37.3966C36.7192 37.4487 36.7713 37.5529 36.8755 37.6571C36.9797 37.4487 37.0318 37.3445 37.0839 37.2924Z" fill="#FEFEFE"/>
<path d="M37.5011 41.3042C37.6574 41.6689 37.9179 41.5647 38.2305 41.5126C38.2826 41.5126 38.3348 41.5126 38.3348 41.4605C38.439 41.3563 38.5432 41.2521 38.6995 41.1479C38.5953 41.0437 38.439 40.9916 38.3348 40.8874C38.2305 40.8353 38.0742 40.8353 38.0221 40.7832C37.8137 40.4185 37.5011 40.6269 37.2406 40.6269C37.1885 40.6269 37.0322 40.7832 37.0322 40.8874C37.0322 40.9916 37.1364 41.1479 37.2406 41.2C37.2406 41.2521 37.449 41.2521 37.5011 41.3042Z" fill="#FEFEFE"/>
<path d="M35.938 40.5227C35.9901 40.3664 36.0943 40.2622 36.0943 40.158C36.0943 40.1059 35.938 40.0538 35.8859 40.0017C35.8338 40.1059 35.7296 40.158 35.7296 40.2622C35.6775 40.3664 35.8338 40.4185 35.938 40.5227Z" fill="#FEFEFE"/>
<path d="M35.2608 57.8722C35.3129 57.9764 35.4692 58.0806 35.5734 58.1848C35.6255 58.0806 35.6776 57.9243 35.6776 57.8201C35.6776 57.5075 35.6255 57.2991 35.886 57.0386C36.0944 56.8823 35.7818 56.1529 35.5734 56.0487C35.4171 55.9966 35.2608 55.8924 35.1045 55.7882C35.0003 55.7361 34.8961 55.7361 34.8439 55.7361C34.7918 55.7882 34.7397 55.8924 34.7397 55.9966C34.7918 56.3092 34.896 56.6218 35.0003 56.8823C35.0524 57.247 35.1045 57.5596 35.2608 57.8722Z" fill="#FEFEFE"/>
<path d="M35.1045 49.6403C34.9482 49.6403 34.7398 49.7445 34.6356 49.9008C34.5314 50.0571 34.4793 50.1613 34.3751 50.3176C34.2709 50.4739 34.2188 50.6302 34.1146 50.8386C34.2709 51.047 34.4272 51.1512 34.5314 51.3075C34.6356 51.2033 34.6877 51.047 34.7919 50.9428C34.8961 50.8386 35.0524 50.7344 35.2087 50.6302C35.365 50.5781 35.5213 50.4739 35.6776 50.4218C35.9381 50.6302 35.9902 51.047 35.7818 51.3075C35.5734 51.568 35.5734 51.6722 35.8339 51.8285C36.1465 52.0369 36.1986 52.4016 36.0944 52.7663C36.0423 52.8185 36.0423 52.9227 36.0423 53.0269C35.8339 53.079 35.5213 53.1832 35.4171 53.2874C35.365 53.3395 35.3129 53.3395 35.2608 53.3916C35.0524 53.5479 35.0524 53.7042 35.3129 53.7563C35.4692 53.8084 35.5734 53.9126 35.6776 53.9647C35.8339 54.0168 35.9381 54.0689 35.9902 54.0689C36.0944 54.3815 36.1986 54.642 36.3028 54.9546C36.3028 55.0588 36.3549 55.163 36.407 55.2151C36.3028 55.2151 36.2507 55.2151 36.1986 55.2672C36.1465 55.3193 36.1465 55.5277 36.1465 55.6319C36.2507 55.8924 36.4591 56.1008 36.8238 56.1008C36.8759 56.1008 36.9801 56.1008 37.0322 56.1008C37.0322 56.1008 37.0322 56.1529 37.0843 56.1529C36.6154 56.5697 36.9801 56.726 37.2927 56.9344C37.3448 56.9865 37.3448 57.0386 37.3969 57.0907C37.6053 57.3512 37.9179 57.1949 38.1263 57.1428C38.3868 57.0907 38.3347 56.8823 38.2826 56.6739C38.2305 56.5176 38.2305 56.3613 38.1784 56.205C38.2826 56.1008 38.3868 55.9966 38.4389 55.8403C38.491 55.7361 38.5952 55.5798 38.6473 55.4756C38.6994 55.3193 38.7516 55.1109 38.8558 54.9546C38.6995 54.7983 38.6474 54.642 38.5431 54.5899C38.4389 54.5378 38.1263 54.5899 37.8658 54.6941C37.7616 54.2773 37.6574 53.8084 37.5532 53.3916C37.5011 53.2353 37.3969 53.0269 37.2927 53.0269C36.8759 52.9227 36.8759 52.5579 36.8759 52.2974C36.8759 52.1411 37.2406 51.9848 37.449 51.9327C37.7616 51.8285 38.0742 51.8285 38.3868 51.7243C38.491 51.6722 38.5952 51.568 38.6473 51.4638C38.491 51.4117 38.3868 51.3075 38.2305 51.3075C38.0742 51.3075 37.97 51.3596 37.8137 51.4117C37.5532 51.4638 37.3448 51.5159 37.0843 51.568C36.8238 51.6201 36.6675 51.5159 36.5633 51.2554C36.4591 50.8907 36.407 50.4739 36.3028 50.1092C36.1986 49.7966 36.1465 49.484 36.0423 49.1193C35.9902 48.9109 35.9902 48.7025 36.1986 48.4941C36.3549 48.3899 36.4591 48.1815 36.5112 48.0252C36.5633 48.0252 36.5633 48.0252 36.6154 48.0252C36.928 47.921 37.1885 47.8168 37.0322 47.4C37.0322 47.3479 36.9801 47.2958 36.9801 47.2437C37.0322 47.2437 37.0322 47.2437 37.0843 47.2437C37.2927 47.1916 37.5532 47.1395 37.7616 47.0874C38.0221 47.1395 38.3347 47.0353 38.6473 46.9832C38.8037 46.9832 39.0642 46.9311 39.1684 47.0353C39.481 47.4 39.7415 47.1395 40.002 47.0874C40.0541 47.0874 40.1583 46.9311 40.1583 46.8269C40.1583 46.7748 40.0541 46.6706 39.9499 46.6185C39.4289 46.41 39.4289 46.3579 39.8457 45.9411C40.1062 45.6806 39.9499 45.0554 39.5852 45.0554C39.3247 45.0554 39.1163 45.0033 39.0121 44.7949C39.0121 44.7949 38.6994 44.847 38.6994 44.8991C38.6473 45.4722 38.1784 45.4722 37.7616 45.5764C37.3448 45.6806 36.928 45.7327 36.5112 45.8369C36.1465 45.9411 35.8339 46.0974 35.7297 46.5663C35.6776 46.879 35.4692 46.879 35.2608 46.6185C35.1045 46.41 34.9482 46.3579 34.7398 46.41C34.5835 46.4621 34.4793 46.5142 34.323 46.5142C34.2188 46.5142 34.1146 46.5663 34.0104 46.5663C33.2289 46.7748 33.1247 47.0874 33.3852 47.8168C33.4894 48.1294 33.6457 48.2857 34.0104 48.2336C34.4272 48.1294 34.844 48.0773 35.2608 47.9731H35.3129C35.3129 48.0252 35.365 48.1294 35.365 48.1815C35.4171 48.3899 35.4171 48.5983 35.4692 48.8067C35.5213 49.0151 35.5213 49.1714 35.365 49.3277C35.2087 49.3798 35.1566 49.5361 35.1045 49.6403Z" fill="#FEFEFE"/>
<path d="M35.9381 34.8957C35.9902 34.8436 36.0423 34.7394 36.0944 34.6352C35.9902 34.5831 35.886 34.531 35.8339 34.531C35.7818 34.531 35.7297 34.6873 35.6255 34.7915C35.7818 34.8436 35.9381 34.9478 35.9381 34.8957Z" fill="#FEFEFE"/>
<path d="M39.2204 36.8236C39.6893 36.7194 39.9498 36.4068 39.8456 36.0942C39.7414 35.7295 39.533 35.6253 39.0641 35.7295C38.8557 35.7816 38.3868 36.4589 38.491 36.6673C38.6473 36.9278 38.9599 36.8236 39.2204 36.8236Z" fill="#FEFEFE"/>
<path d="M47.2958 38.5949C47.2958 38.647 47.4521 38.7512 47.5042 38.7512C47.8689 38.647 48.2858 38.5949 48.6505 38.4386C48.7026 38.4386 48.8068 38.2302 48.7547 38.126C48.7547 38.0739 48.5463 37.9697 48.4942 37.9697C48.2858 37.9697 48.1295 38.0218 47.921 38.0739C47.7647 38.126 47.5563 38.1781 47.4 38.2302C47.2958 38.3344 47.2437 38.4907 47.2958 38.5949Z" fill="#FEFEFE"/>
<path d="M43.8571 35.3126C44.1697 35.2084 44.0655 34.9479 44.0134 34.7395C43.9613 34.5311 43.805 34.3227 43.5966 34.4269C43.4403 34.479 43.4403 34.7395 43.3882 34.8437C43.4924 35.1563 43.5445 35.4689 43.8571 35.3126Z" fill="#FEFEFE"/>
<path d="M45.4723 26.8723C45.3681 26.8202 45.2639 26.7681 45.1597 26.8202C45.1076 26.8202 45.0555 26.9765 45.0034 27.0807C45.0034 27.1849 45.0034 27.3412 45.0555 27.5496C45.1076 27.6017 45.2639 27.8622 45.3681 27.8101C45.5765 27.758 45.7849 27.6017 45.9933 27.4454C45.8891 27.3412 45.7849 27.237 45.6807 27.1328C45.6286 27.0807 45.5765 26.9244 45.4723 26.8723Z" fill="#FEFEFE"/>
<path d="M41.2003 40.9395C41.2524 41.1479 41.3045 41.4084 41.4087 41.6168C41.0961 41.721 40.7835 41.8252 40.4709 41.8773C40.4709 41.8773 40.4709 41.8773 40.4709 41.8252C40.4188 41.8252 40.3667 41.8252 40.3667 41.8773C40.1582 41.9294 40.0019 42.0336 40.054 42.2941C40.1061 42.5546 40.3145 42.5546 40.523 42.5025C40.6272 42.5025 40.7835 42.4504 40.8877 42.4504C40.9919 42.4504 41.2003 42.4504 41.2003 42.5025C41.3566 42.9193 41.8776 42.6588 42.086 43.0235C42.1902 42.9714 42.3465 42.9193 42.3986 42.8151C42.4507 42.7109 42.3986 42.5546 42.3986 42.4504C42.3986 42.3983 42.3986 42.3983 42.3986 42.3462C42.6591 42.2941 42.7633 42.0857 42.6591 41.8773C42.7633 41.8252 42.9196 41.7731 43.0759 41.8252C43.2322 41.8773 43.3885 42.0857 43.4927 42.242C43.7011 42.5025 44.3263 42.6067 44.4305 42.3462C44.5868 41.8773 44.9515 41.7731 45.2641 41.6689C45.3683 41.6168 45.4204 41.5126 45.4204 41.4084C45.4725 41.0958 45.733 41.0437 45.9414 40.9395C46.1498 40.8874 46.3582 40.8353 46.5146 40.7311C46.6188 40.679 46.6188 40.5227 46.6709 40.4185C46.5667 40.3664 46.4625 40.2622 46.3583 40.2622C45.9935 40.3143 45.5767 40.3143 45.212 40.4185C44.8994 40.5227 44.5347 40.5227 44.4826 40.9916C44.4826 41.0958 43.9095 41.3042 43.7532 41.2521C43.2843 41.0437 42.8675 41.1479 42.4507 41.2521C42.3986 41.2521 42.3465 41.3042 42.2944 41.3042C42.1902 40.9916 42.086 40.7311 41.6692 40.6269C41.6171 40.6269 41.565 40.4185 41.5129 40.3143C41.2003 40.3664 41.0961 40.5748 41.2003 40.9395Z" fill="#FEFEFE"/>
<path d="M44.4827 34.1664C44.2743 34.3227 44.2743 34.5311 44.3785 34.7395C44.4827 34.8958 44.639 35.1042 44.7432 35.1563C45.16 35.2605 45.4205 35 45.5247 34.5832C45.5247 34.479 45.6289 34.4269 45.681 34.3227C45.8894 34.0622 45.8373 33.958 45.5247 33.958C45.3163 33.958 45.1079 33.958 44.9516 33.958C44.7953 34.0101 44.639 34.0622 44.4827 34.1664Z" fill="#FEFEFE"/>
<path d="M50.3698 39.4287C50.1614 39.3245 50.0572 39.064 49.7967 39.2203C49.5883 39.3766 49.3278 39.4287 49.1715 39.6371C49.0152 39.8976 48.911 39.8455 48.7026 39.6892C48.4421 39.4808 48.1815 39.5329 48.1294 39.8455C48.0773 40.106 47.921 40.1581 47.7647 40.2623C47.5563 40.3665 47.1916 40.3665 47.3479 40.7312C47.5042 41.0959 47.7647 40.8875 48.0252 40.8354C48.0773 40.8354 48.1815 40.8354 48.1815 40.7833C48.7026 40.4186 49.3278 40.4186 49.9009 40.2623C50.1614 40.2102 50.3698 40.106 50.5782 40.4186C50.6303 40.4707 50.9429 40.3665 50.995 40.3665C51.0471 39.8455 51.4639 39.8976 51.7765 39.7413C52.037 39.6371 52.3496 39.585 52.6101 39.4808C52.7143 39.4287 52.9227 39.3245 52.9227 39.2203C52.9748 38.8556 53.1311 38.8556 53.4437 38.9598C53.6521 39.0119 53.9647 39.0119 54.1731 38.9598C54.2773 38.9077 54.3294 38.6472 54.4336 38.543C54.5899 38.3346 54.7462 38.3346 54.9546 38.4388C55.1631 38.543 55.3715 38.5951 55.5799 38.5951C55.9446 38.5951 55.9967 38.3867 55.8925 38.0741C55.7883 37.8657 55.7362 37.501 55.3715 37.6573C54.9546 37.7615 54.5378 37.9178 54.1731 38.022C53.9647 38.0741 53.8084 38.1783 53.7563 38.4388C53.7042 38.7514 53.4958 38.8035 53.2874 38.5951C53.0269 38.2825 52.8706 38.3867 52.7143 38.6993C52.6622 38.8035 52.4017 38.8556 52.2975 38.8035C51.9849 38.5951 51.7765 38.6472 51.6202 39.0119C51.4639 39.3245 50.6303 39.585 50.3698 39.4287Z" fill="#FEFEFE"/>
<path d="M45.7852 38.2825C45.4726 38.4388 45.6289 38.7514 45.6289 39.0119C45.6289 39.2203 45.7852 39.3245 46.0457 39.2724C46.3583 39.1682 46.2541 38.9077 46.202 38.6993C46.0978 38.4909 46.0978 38.1262 45.7852 38.2825Z" fill="#FEFEFE"/>
<path d="M40.3145 39.3766C40.2103 39.1161 39.8977 39.2203 39.8456 39.5329C39.7935 39.6892 39.6893 39.8455 39.6372 40.0018C39.4288 40.3144 39.533 40.9397 39.7935 40.9918C40.1061 41.0439 40.575 40.7834 40.7313 40.4707C40.8355 40.2102 41.4087 39.9497 41.565 40.106L41.6171 40.1581C41.6171 40.2102 41.6171 40.2623 41.6692 40.3144C41.7213 40.3144 41.7213 40.2623 41.7734 40.2623C42.0339 40.4186 42.2944 40.3144 42.5549 40.2623C42.6591 40.2102 42.8154 40.1581 42.9717 40.106C43.3364 40.0018 43.3885 39.7934 43.2843 39.4808C43.1801 39.1682 43.0759 39.0119 42.7112 39.1161C42.4507 39.2203 42.1902 39.2724 41.8776 39.3245C41.8255 39.3245 41.8255 39.2724 41.7734 39.3245C41.7213 39.3245 41.7213 39.3766 41.6692 39.3766C41.5129 39.4287 41.3566 39.4808 41.1482 39.5329C40.7834 39.6371 40.5229 39.7934 40.3145 39.3766Z" fill="#FEFEFE"/>
<path d="M42.0861 24.6841C42.0861 24.632 41.9298 24.5278 41.8256 24.5278C41.7735 24.5278 41.6693 24.6841 41.6172 24.7883C41.7735 24.8925 41.8256 24.9446 41.9298 24.9967C41.9819 24.8925 42.0861 24.7883 42.0861 24.6841Z" fill="#FEFEFE"/>
<path d="M41.5126 35.7296C41.3042 35.5733 41.2 35.4169 41.0437 35.3127C40.9916 35.5211 40.9395 35.7296 40.9395 35.938C40.9395 36.0422 41.1479 36.0943 41.2521 36.1985C41.3042 36.0422 41.4084 35.938 41.5126 35.7296Z" fill="#FEFEFE"/>
<path d="M36.3549 41.9816C36.5112 41.8774 36.5112 41.669 36.6675 41.4606C36.4591 41.3042 36.3549 41.0958 36.1465 41.0437C35.9902 40.9916 35.886 41.4084 35.9902 41.7732C36.0944 41.9295 36.1986 42.0858 36.3549 41.9816Z" fill="#FEFEFE"/>
<path d="M28.696 35.1565C28.696 35.2607 28.8523 35.3649 29.0086 35.5212C29.1128 35.2607 29.1649 35.1565 29.1649 35.0523C29.1128 34.9481 28.9565 34.8959 28.8523 34.7917C28.8002 34.9481 28.6439 35.0523 28.696 35.1565Z" fill="#FEFEFE"/>
<path d="M26.6639 42.1378C26.7681 42.0857 26.8723 41.9294 27.0286 41.6689C26.716 41.6168 26.5076 41.5647 26.3513 41.6168C26.195 41.6689 25.8824 41.6689 25.9345 41.9815C25.9866 42.0857 26.4555 42.242 26.6639 42.1378Z" fill="#FEFEFE"/>
<path d="M26.8205 44.795C26.9768 44.795 27.081 44.8471 27.2373 44.8992C27.3936 44.9513 27.5499 45.0555 27.7062 45.0034C28.3835 44.8471 29.113 44.6386 29.7903 44.4302C29.9466 44.3781 30.155 44.2739 30.155 44.2218C30.2071 43.7529 30.5718 43.7529 30.8844 43.5966C31.0928 43.4924 31.4575 43.3882 31.5096 43.1798C31.6138 42.9193 31.7701 42.8151 31.9785 42.763C32.239 42.7109 32.4995 42.6588 32.7079 42.5546C32.8121 42.5025 32.9684 42.3462 32.9684 42.242C33.0205 41.8773 32.6037 41.5647 32.239 41.5647C32.0306 41.5647 31.7701 41.6168 31.5617 41.6689C31.3533 41.721 31.2491 41.8252 31.2491 42.0857C31.2491 42.3462 31.0928 42.5025 30.8323 42.5546L30.8844 42.5025C30.7281 42.4504 30.6239 42.3462 30.4676 42.242C30.3634 42.2941 30.3113 42.3983 30.2071 42.4504C30.155 42.3983 30.155 42.2941 30.1029 42.1899C30.0508 42.0857 30.0508 41.9815 29.9987 41.8773C29.9466 41.8252 29.8945 41.8252 29.8424 41.8252C29.7903 41.8252 29.7382 41.9294 29.7382 41.9815C29.7382 42.0857 29.7903 42.1899 29.7903 42.2941C29.8945 42.8151 29.8945 42.8151 29.3214 42.9714C29.2172 42.9714 29.1651 43.0235 29.0609 43.0235C28.7483 43.0756 28.3835 43.3361 28.123 42.9193C27.9667 42.7109 27.2373 42.9193 27.1852 43.1277C27.1331 43.4924 26.8726 43.5966 26.6121 43.7529C26.2995 43.9613 26.4037 44.2739 26.4558 44.5345C26.4037 44.8471 26.6642 44.795 26.8205 44.795Z" fill="#FEFEFE"/>
<path d="M31.0407 36.0941C30.9886 35.9899 30.8323 35.9378 30.7281 35.8857C30.676 35.9899 30.5718 36.1462 30.5718 36.2504C30.5718 36.3547 30.7281 36.4068 30.9365 36.5631C30.9886 36.3025 31.0928 36.1983 31.0407 36.0941Z" fill="#FEFEFE"/>
<path d="M29.1128 28.2791C29.0607 28.3312 29.0086 28.3833 28.9565 28.4875C29.0607 28.5396 29.1649 28.5396 29.1649 28.5396C29.217 28.4875 29.217 28.4354 29.217 28.3312C29.2691 28.3312 29.1649 28.2791 29.1128 28.2791Z" fill="#FEFEFE"/>
<path d="M24.58 20.2034C24.5279 20.2034 24.4758 20.3597 24.3716 20.516C24.5279 20.5681 24.6842 20.6723 24.7363 20.6202C24.7884 20.5681 24.8405 20.4639 24.8926 20.3597C24.7884 20.2555 24.6842 20.2034 24.58 20.2034Z" fill="#FEFEFE"/>
<path d="M30.4673 20.3598C30.3631 20.1514 30.0505 20.0993 29.8942 20.3077C29.79 20.5161 29.6858 20.6724 29.5816 20.8808C29.4774 21.0892 29.5295 21.2455 29.79 21.2455C29.8942 21.2455 30.0505 21.1934 30.1547 21.1934C30.6757 21.0892 30.6236 20.8287 30.4673 20.3598Z" fill="#FEFEFE"/>
<path d="M29.1129 37.7613C29.165 37.9697 29.2171 38.2823 29.5297 38.1781C29.8423 38.0739 29.7381 37.8134 29.686 37.605C29.6339 37.3966 29.5818 37.1882 29.3213 37.2403C29.0087 37.2924 29.1129 37.5529 29.1129 37.7613Z" fill="#FEFEFE"/>
<path d="M30.3111 28.3311C30.2069 28.4353 30.1548 28.4874 29.9985 28.6958C30.2069 28.8 30.3111 28.9042 30.4153 28.9042C30.4674 28.9042 30.6237 28.6958 30.5716 28.6437C30.5195 28.4874 30.3632 28.4353 30.3111 28.3311Z" fill="#FEFEFE"/>
<path d="M29.1129 50.2657C29.1129 50.3699 29.2692 50.5783 29.3213 50.5783C29.4776 50.5783 29.686 50.422 29.686 50.3178C29.7381 49.9531 29.9465 49.9531 30.207 49.8489C30.3633 49.7968 30.5717 49.7447 30.728 49.6926C30.8323 49.6405 30.9886 49.4842 30.9886 49.38C30.9886 49.1716 30.7802 49.1716 30.6238 49.1716C29.9986 49.2758 29.9986 49.2758 29.8423 48.7027C29.686 47.9733 29.5297 47.869 28.8003 48.0254C28.6961 48.0254 28.5398 48.0775 28.3314 48.1296C28.2272 48.1817 28.0709 48.2338 27.8625 48.2859C27.5499 48.3901 27.5499 48.5985 27.602 48.9111C27.7062 49.1716 27.8104 49.38 28.123 49.2758C28.3835 49.2237 28.6961 49.1716 29.0087 49.1195C29.1129 49.1195 29.2692 49.1716 29.3734 49.2758C29.4255 49.2758 29.3213 49.5363 29.2692 49.5884C28.9566 49.7447 29.0608 50.0052 29.1129 50.2657Z" fill="#FEFEFE"/>
<path d="M30.259 52.2454C30.5195 52.6622 30.8321 52.4017 31.0926 52.2975C31.4052 52.1933 31.2489 51.9328 31.1968 51.7244C31.0926 51.2034 30.9884 51.1513 30.259 51.4118C30.2069 51.4118 30.1027 51.4639 29.9464 51.5681C29.8422 51.6723 29.738 51.7765 29.6338 51.8807C29.738 51.9328 29.8422 52.037 29.9464 52.0891C30.1027 52.1412 30.2069 52.1933 30.259 52.2454Z" fill="#FEFEFE"/>
<path d="M25.3613 22.6C26.6117 22.5479 27.6537 21.8706 28.8 21.558C28.8521 21.558 28.9042 21.3496 28.9563 21.2975C28.8521 21.2454 28.7479 21.1412 28.6436 21.1412C28.4352 21.1412 28.0705 21.2454 28.0184 21.1412C27.7579 20.7765 27.4974 20.9328 27.1848 20.9849C26.8722 21.0891 26.5596 21.1412 26.247 21.2454C25.8823 21.3496 25.5176 21.4538 25.1529 21.558C24.8403 21.6101 24.6319 21.7143 24.7361 22.1311C24.8403 22.5479 24.9445 22.6521 25.3613 22.6Z" fill="#FEFEFE"/>
<path d="M34.6353 31.0404C34.8958 30.8841 35.1563 30.7799 35.3647 30.6236C35.4168 30.5715 35.4168 30.4673 35.4168 30.3631C35 30.4152 34.8958 29.9463 34.5832 29.8942C34.2185 29.8421 34.1664 29.6337 34.1143 29.4253C34.0622 29.2169 34.0101 29.0085 33.9059 28.8001C33.8538 28.6959 33.6975 28.6438 33.5933 28.5396C33.5412 28.6959 33.437 28.8001 33.437 28.9564C33.437 29.1648 33.5933 29.3211 33.5933 29.4774C33.6454 29.8421 33.7496 30.311 33.6454 30.6236C33.4891 31.0404 33.5412 31.0925 33.9059 31.0404C34.1664 31.0925 34.3748 31.0925 34.6353 31.0404Z" fill="#FEFEFE"/>
<path d="M32.447 52.9749C32.4991 52.9228 32.5512 52.8186 32.5512 52.7665C32.6033 52.506 32.5512 52.2455 32.6033 52.0371C32.6554 51.7766 32.7596 51.5161 32.8638 51.2035C32.6554 51.0472 32.5512 50.8909 32.3949 50.8909C32.1344 50.8909 32.1344 51.0993 32.1344 51.3077C32.1344 51.4119 32.1865 51.5682 32.1865 51.6724C32.1865 51.8287 32.1865 51.985 32.0823 52.0892C31.6655 52.4018 32.0302 52.6623 32.1344 52.9228C32.2386 52.9228 32.3428 52.9228 32.447 52.9749Z" fill="#FEFEFE"/>
<path d="M33.5413 35.4168C33.4371 35.052 33.0203 35.2605 32.7598 35.2605C32.7598 35.2605 32.7077 35.2605 32.6556 35.2605C32.5514 35.3126 32.3951 35.3647 32.2909 35.4689C32.1867 35.5731 32.1867 35.6773 32.0825 35.8336C32.1867 35.8857 32.2909 35.9899 32.4472 35.9899C32.4472 36.042 32.4472 36.0941 32.4472 36.1983C32.4993 36.3025 32.5514 36.4067 32.6035 36.5109C32.7077 36.6151 32.8119 36.7193 32.9161 36.8235C32.9682 36.7193 33.0724 36.6151 33.1245 36.5109C33.2287 36.3546 33.4371 36.0941 33.4371 35.9899C33.4371 35.8857 33.3329 35.8336 33.2287 35.7815C33.4892 35.7294 33.6455 35.6252 33.5413 35.4168Z" fill="#FEFEFE"/>
<path d="M32.0827 49.3277C32.6037 49.2756 32.7079 49.1193 32.5516 48.5983C32.4995 48.442 32.4474 48.2857 32.3953 48.1294C32.3432 47.9731 32.2911 47.8168 32.239 47.6605C32.0827 47.1395 32.0306 47.1395 31.5096 47.2437C31.197 47.3479 30.8844 47.4 30.5718 47.5042C29.9466 47.6605 29.8945 47.7647 30.155 48.3378C30.2071 48.4941 30.3634 48.5983 30.4676 48.7025C30.5718 48.5983 30.676 48.4941 30.7281 48.3378C30.8844 48.0252 31.0407 48.0252 31.197 48.2857C31.3533 48.4941 31.4575 48.7546 31.5096 49.0151C31.6659 49.2235 31.7701 49.3798 32.0827 49.3277Z" fill="#FEFEFE"/>
<path d="M32.6036 34.7395C32.6557 34.6353 32.7599 34.5311 32.7599 34.4269C32.7078 34.1143 32.6557 33.8017 32.6036 33.4891C32.6036 33.437 32.4994 33.3328 32.4473 33.2807C31.8742 33.1765 32.2389 33.9059 31.77 33.958C31.8221 34.0622 31.8221 34.2185 31.8742 34.3227C32.0305 34.479 32.1868 34.5311 32.3431 34.6353C32.3952 34.6874 32.4994 34.7395 32.6036 34.7395Z" fill="#FEFEFE"/>
<path d="M32.4995 27.3934C32.4995 27.4976 32.6558 27.6018 32.8121 27.7581C32.8642 27.4976 32.9684 27.3934 32.9684 27.2892C32.9684 27.185 32.8121 27.1329 32.7079 27.0808C32.6558 27.2371 32.4995 27.3413 32.4995 27.3934Z" fill="#FEFEFE"/>
<path d="M32.291 30.2589C32.291 30.2589 32.2389 30.2068 32.291 30.2589C31.9784 30.0505 31.7179 29.9463 31.4053 29.79C31.3532 29.8942 31.3011 29.9984 31.3011 30.0505C31.3011 30.311 31.4053 30.5195 31.4053 30.78C31.4053 30.9884 31.4574 31.2489 31.3532 31.3531C31.0927 31.6136 31.1969 31.8741 31.1969 32.1346C31.1969 32.2388 31.249 32.2909 31.249 32.343C31.3011 32.6556 31.5095 32.864 31.8742 32.864C32.2389 32.864 32.3952 32.7598 32.3431 32.3951C32.3431 32.343 32.3952 32.2388 32.4473 32.1867C32.6557 31.9262 32.7078 31.7178 32.6036 31.5094C32.9162 31.4052 32.9162 31.2489 32.8641 30.8842C32.812 30.6758 32.7078 30.4673 32.6557 30.2068C32.6036 30.1547 32.5515 30.1026 32.4994 30.0505C32.3952 30.1026 32.291 30.1547 32.291 30.2589ZM32.1347 31.0405C31.9784 30.9363 31.9263 30.78 32.1868 30.6237L32.2389 30.5716C32.1868 30.7279 32.1347 30.8842 32.1347 31.0405Z" fill="#FEFEFE"/>
<path d="M31.197 28.8C31.1449 28.8 31.1449 28.9043 31.0928 29.0085C31.197 29.0085 31.2491 29.0606 31.3533 29.0606C31.4054 29.0606 31.4575 28.9564 31.5096 28.8C31.3533 28.8521 31.2491 28.8 31.197 28.8Z" fill="#FEFEFE"/>
<path d="M32.9683 19.8908C33.0204 20.1513 33.1246 20.3597 33.4372 20.2555C33.9061 20.1513 34.3229 19.995 34.7397 19.8387C35.1044 19.7345 35.1044 19.5261 35.0523 19.2135C34.9481 18.9009 34.7918 18.7967 34.4792 18.9009C34.2708 18.953 34.0103 19.0051 33.8019 19.0572C33.5935 19.1093 33.333 19.1614 33.1246 19.2656C32.7599 19.3698 32.9162 19.6824 32.9683 19.8908Z" fill="#FEFEFE"/>
<path d="M40.2624 52.4539C40.3145 52.6623 40.3145 52.9749 40.6792 52.8707C40.7834 52.8186 40.7834 52.5581 40.8355 52.3497C40.6792 52.2455 40.5229 52.0371 40.3666 52.0371C40.1061 52.0371 40.2103 52.2455 40.2624 52.4539Z" fill="#FEFEFE"/>
<path d="M39.7412 54.5379C39.7412 54.7984 39.8454 55.1631 40.0017 55.2152C40.4706 55.3715 40.9916 55.6841 41.5647 55.4757C41.8253 55.3715 42.0858 55.2673 42.2942 55.5799C42.3984 55.7362 42.6589 55.6841 42.711 55.5278C42.7631 55.0068 43.1799 54.7463 43.3883 54.4337C43.5446 54.1731 43.4404 53.4958 43.1799 53.3395C42.9194 53.2353 42.2942 53.5479 42.2421 53.8605C42.19 54.1731 41.9816 54.2252 41.8253 54.0168C41.6168 53.8084 41.4084 53.8084 41.2 53.8605C40.9916 53.9126 40.8353 53.9647 40.6269 54.0168C40.4185 54.0689 40.2622 54.121 40.1059 54.1731C39.9496 54.2774 39.7412 54.4337 39.7412 54.5379Z" fill="#FEFEFE"/>
<path d="M52.4541 50.6824C52.3499 51.0471 52.0894 51.2034 51.8289 51.4118C51.7768 51.4639 51.7247 51.5681 51.7247 51.6202C51.6726 52.1413 51.7247 52.4539 51.9852 52.6102C52.402 52.1934 52.7667 51.8287 53.1835 51.4118C53.1314 51.1513 53.0272 50.9429 52.923 50.6824C52.8188 50.474 52.4541 50.474 52.4541 50.6824Z" fill="#FEFEFE"/>
<path d="M39.4809 55.9445C39.5851 55.7361 39.6372 55.6319 39.6372 55.4756C39.6372 55.4235 39.4288 55.3193 39.3767 55.3193C39.2725 55.3714 39.1683 55.4756 39.1162 55.5798C39.1162 55.684 39.2725 55.7882 39.4809 55.9445Z" fill="#FEFEFE"/>
<path d="M43.3884 43.8571C43.0758 43.9092 42.8153 44.0134 42.5548 44.1176C42.2943 44.1697 42.0338 44.2218 41.7733 44.3781C41.617 44.4302 41.3564 44.5865 41.3564 44.6907C41.4085 44.9512 41.4607 45.3159 41.6691 45.4722C41.8775 45.6285 42.138 45.7848 42.3464 45.9411C42.3464 45.9932 42.3464 46.0974 42.3985 46.2537C42.4506 46.6184 42.659 46.7226 42.9195 46.6184C43.18 46.5663 43.4405 46.5142 43.3884 46.2016C43.4926 46.1495 43.6489 46.0974 43.7531 46.0453C43.8573 45.9932 43.8052 45.6285 43.8052 45.4201C43.7531 45.0554 43.5447 44.7428 43.8052 44.326C43.9094 44.0134 43.701 43.805 43.3884 43.8571Z" fill="#FEFEFE"/>
<path d="M39.4811 48.8588C39.3769 48.9109 39.3248 49.0151 39.1685 49.2235C39.3769 49.2756 39.5332 49.3798 39.6374 49.3798C39.7416 49.3277 39.7937 49.1714 39.7416 49.0151C39.7416 48.9109 39.5332 48.8067 39.4811 48.8588Z" fill="#FEFEFE"/>
<path d="M43.7531 47.9211C43.4926 47.9732 43.18 48.0253 42.9194 48.1295C42.8673 48.1295 42.8673 48.4422 42.9194 48.4943C43.0758 48.5985 43.2321 48.5464 43.4926 48.5985C43.6489 48.4943 43.8052 48.338 43.9094 48.1816C43.9615 48.1816 43.8052 47.9211 43.7531 47.9211Z" fill="#FEFEFE"/>
<path d="M45.0033 50.9951C45.0033 51.2035 44.9512 51.3077 44.9512 51.4119C45.0033 51.464 45.1075 51.5161 45.2117 51.5682C45.2117 51.464 45.2638 51.3598 45.2638 51.2556C45.2638 51.0993 45.1596 51.0993 45.0033 50.9951Z" fill="#FEFEFE"/>
<path d="M44.8472 57.2993C44.8472 57.3514 44.8472 57.3514 44.8472 57.4035C44.9514 57.3514 45.0556 57.2993 45.1598 57.2472C45.1077 57.1951 45.0035 57.2472 44.8472 57.2993Z" fill="#FEFEFE"/>
<path d="M44.0655 53.079C43.9613 53.079 43.8571 53.2353 43.805 53.2874C43.805 53.3916 43.8571 53.5479 43.8571 53.6521C43.9613 54.0168 44.2218 54.4336 43.7008 54.7462C43.4924 54.8504 43.7008 55.2672 43.9613 55.2151C44.1697 55.2151 44.4302 55.163 44.6386 55.0067C44.7428 54.9546 44.6907 54.7462 44.7428 54.5899C44.7949 54.4857 44.847 54.4336 44.847 54.3294C44.8991 54.1731 44.9512 53.9647 45.0033 53.8084C44.9512 53.6 44.2218 53.0269 44.0655 53.079Z" fill="#FEFEFE"/>
<path d="M54.1213 49.9531C53.965 49.9531 53.7045 50.0573 53.6524 50.2136C53.5482 50.422 53.6003 50.6825 53.6524 50.8909C53.8608 50.6304 54.1213 50.3699 54.3297 50.0573C54.2776 50.0052 54.2255 49.9531 54.1213 49.9531Z" fill="#FEFEFE"/>
<path d="M33.9059 38.2825C33.8537 38.0741 33.8016 37.8136 33.6974 37.6052C33.5932 37.3968 33.4369 37.3968 33.2806 37.5531C33.1764 37.6573 33.0722 37.8657 33.0201 37.8657C32.7075 37.7615 32.3949 37.6573 32.1344 37.4489C31.8218 37.1884 31.1966 37.1884 31.0924 37.5531C30.9882 38.022 30.6756 38.022 30.363 38.1262C30.2067 38.1783 30.1025 38.2304 29.9983 38.3346C29.8941 38.4388 29.842 38.543 29.7378 38.6472C29.842 38.6993 29.9462 38.7514 30.0504 38.7514C30.3109 38.8035 30.6235 38.6993 30.884 38.9077C30.9361 38.9598 31.1966 38.8035 31.2487 38.6993C31.405 38.3346 31.7176 38.2825 31.9781 38.3346C32.1865 38.3867 32.3949 38.4388 32.5512 38.543C32.6033 38.6993 32.7596 38.8556 32.9159 38.9598C33.0201 39.0119 33.0722 39.1161 33.1764 39.1682C33.3327 39.2203 33.489 39.2724 33.5932 39.2724C33.6453 39.2724 33.6974 39.064 33.7495 38.9077C33.7495 38.8556 33.7495 38.8035 33.7495 38.6993C33.9579 38.7514 34.0101 38.5951 33.9059 38.2825Z" fill="#FEFEFE"/>
<path d="M36.7715 49.8487C36.7715 49.9008 37.032 50.0571 37.0841 50.0571C37.2925 49.9529 37.5009 49.7445 37.7093 49.5882C37.5009 49.5361 37.3446 49.484 37.0841 49.4319C36.9278 49.5882 36.7715 49.6924 36.7715 49.8487Z" fill="#FEFEFE"/>
<path d="M25.1533 40.3144C25.3617 40.4186 25.518 40.5749 25.6743 40.627C25.8827 40.6791 26.0911 40.5749 26.2995 40.5228C26.7163 40.4186 27.1853 40.106 27.55 40.5749C27.55 40.5749 27.7584 40.4707 27.8105 40.3665C27.8626 40.3144 27.7584 40.1581 27.8105 40.0539C27.8105 39.8976 27.8626 39.7413 27.8626 39.585C28.0189 39.6371 28.1752 39.6892 28.2794 39.7413C28.5399 39.8455 29.0088 39.6892 29.1651 39.4287C29.3214 39.1161 29.1651 38.8556 28.8525 38.6993C28.7483 38.6472 28.6441 38.6472 28.592 38.543C28.2273 38.1783 28.1752 38.2304 27.7584 38.4909C27.4458 38.6993 27.55 38.9077 27.55 39.1682C27.55 39.5329 27.4458 39.6371 27.1332 39.4808C26.8205 39.3245 26.56 39.2203 26.2474 39.1161C26.1953 39.1161 26.0911 39.1161 26.0911 39.1682C25.8306 39.3766 25.5701 39.585 25.3617 39.8455C25.2575 39.8976 25.2575 40.0539 25.1533 40.3144Z" fill="#FEFEFE"/>
<path d="M25.6219 37.501C25.6219 37.6573 25.5698 37.7615 25.5698 37.8136C25.5698 37.8657 25.674 37.8657 25.7261 37.9178C25.7782 37.8136 25.8303 37.7615 25.8303 37.6573C25.8303 37.6052 25.7261 37.5531 25.6219 37.501Z" fill="#FEFEFE"/>
<path d="M27.3414 37.4488C27.4456 37.4488 27.4456 37.2925 27.5498 37.1883C27.4456 37.1362 27.3414 37.032 27.2893 37.032C27.1851 37.032 27.133 37.1883 27.0288 37.2925C27.133 37.3446 27.2372 37.4488 27.3414 37.4488Z" fill="#FEFEFE"/>
<path d="M38.4907 57.9244C38.4907 57.8723 38.3344 57.7681 38.2823 57.7681C37.9697 57.8202 38.126 58.0807 38.126 58.237C38.3344 58.237 38.5428 58.237 38.4907 57.9244Z" fill="#FEFEFE"/>
<path d="M38.1261 58.2891C37.9177 58.3412 37.7093 58.3933 37.5009 58.4454C37.3967 58.4975 37.2925 58.6017 37.2925 58.7059C37.2925 58.9143 37.2925 59.1748 37.3967 59.3832C37.7093 59.3311 38.074 59.3311 38.3866 59.279C38.2824 58.9143 38.1782 58.6017 38.1261 58.2891Z" fill="#FEFEFE"/>
<path d="M27.3935 35.6773C27.4456 35.6252 27.5498 35.4689 27.4977 35.4168C27.4456 35.3647 27.2893 35.2605 27.2372 35.2605C27.1851 35.2605 27.133 35.4168 27.0288 35.5731C27.1851 35.6773 27.2893 35.7294 27.3935 35.6773Z" fill="#FEFEFE"/>
<path d="M37.3968 62.301C37.3968 62.2489 37.4489 62.2489 37.4489 62.1968C37.3968 62.1968 37.3447 62.1968 37.3447 62.1968C37.3447 62.2489 37.3447 62.301 37.3968 62.301Z" fill="#FEFEFE"/>
<path d="M42.5547 8.74126C42.8673 8.84546 43.1799 8.94967 43.4925 9.05387C43.5446 8.89757 43.5967 8.79336 43.6488 8.68916C43.4925 8.63706 43.2841 8.58496 43.1278 8.58496C42.9194 8.63706 42.7631 8.68916 42.5547 8.74126Z" fill="#FEFEFE"/>
<path d="M48.1819 59.1749C48.1819 59.0186 48.234 58.9144 48.3382 58.8623C47.9214 59.1228 47.4525 59.3312 47.0356 59.5396C47.1398 59.5917 47.1919 59.6438 47.2962 59.6959C47.5046 59.9043 48.1298 59.4875 48.1819 59.1749Z" fill="#FEFEFE"/>
<path d="M45.8373 60.1647C45.9936 60.1126 46.202 60.0605 46.3062 59.9042C46.3062 59.9042 46.3062 59.9042 46.3062 59.8521C46.0978 59.9563 45.8373 60.0605 45.6289 60.1647C45.681 60.2168 45.7852 60.2168 45.8373 60.1647Z" fill="#FEFEFE"/>
<path d="M59.0708 47.9732C59.2271 48.0253 59.3313 48.1295 59.3313 48.2337C59.3313 47.9732 59.3313 47.7127 59.3313 47.4521C59.2271 47.6085 59.175 47.8169 59.0708 47.9732Z" fill="#FEFEFE"/>
<path d="M13.1699 13.2219C13.2741 13.5345 13.0136 13.5866 12.8052 13.6387C12.701 13.6908 12.5447 13.6908 12.4405 13.7429C9.36653 17.0253 7.02199 20.9328 5.56317 25.3093C5.61527 25.3093 5.66737 25.3614 5.71947 25.3614C5.66737 25.4135 5.61527 25.4656 5.61527 25.4656C6.34468 25.8303 5.92788 26.5076 6.03208 27.0807C6.03208 27.1328 5.77157 27.3412 5.66737 27.3412C5.45897 27.3412 5.25057 27.1328 5.14636 26.8723C4.46905 29.269 4.10435 31.7698 4.05225 34.3748C4.10435 34.4269 4.10435 34.479 4.15645 34.5311C4.20855 34.7395 4.20855 34.9479 4.26065 35.1563C4.20855 35.1563 4.10435 35.1042 4.05225 35.1042C4.05225 36.6673 4.15645 38.1782 4.41695 39.637C4.41695 39.637 4.41695 39.637 4.46905 39.637C4.67746 39.7412 4.67746 39.9496 4.52115 40.1059C4.88586 42.4505 5.56317 44.6908 6.44888 46.8269C6.55309 46.879 6.60519 46.9832 6.70939 47.0874C6.91779 47.3479 7.3867 46.7227 7.3867 47.2958C7.3867 47.5563 7.2825 47.8169 7.4388 48.0774C7.4909 48.1295 7.4388 48.2858 7.3867 48.3379C7.3346 48.39 7.2825 48.4421 7.2304 48.4942C7.4388 48.911 7.6472 49.2757 7.80351 49.6404C8.16821 49.2757 8.42872 49.1715 8.68922 49.5362C8.89762 49.7967 8.84552 49.953 8.48082 50.0572C8.37662 50.1093 8.27241 50.1093 8.16821 50.1093C8.11611 50.1093 8.06401 50.1093 8.01191 50.1093C8.37662 50.7866 8.79342 51.4118 9.21023 52.037C9.47073 52.1412 9.57493 52.3496 9.62704 52.558C9.73124 52.4538 9.78334 52.3496 9.88754 52.2975C9.93964 52.2454 10.0438 52.2454 10.2522 52.1412C10.3043 52.1412 10.5127 52.1933 10.6691 52.2975C10.7212 52.3496 10.7733 52.6101 10.7212 52.6622C10.617 52.7664 10.4085 52.8185 10.2522 52.8706C10.148 52.9227 10.0438 52.8706 9.93964 52.8706C9.83544 52.8185 9.73124 52.7664 9.62704 52.6622C9.62704 52.6622 9.62704 52.6622 9.62704 52.7143C12.2321 56.4656 15.6707 59.6437 19.6825 61.9362C19.7867 61.9362 19.8909 61.9883 19.9951 62.0404V62.0925C21.2455 62.8219 22.548 63.4471 23.9548 63.9681C24.0069 63.8118 24.1111 63.7076 24.2153 63.6034C24.2674 63.5513 24.3716 63.4992 24.4237 63.4992C24.9447 63.6034 25.4136 63.7597 26.0388 63.916C26.0388 64.2286 26.0388 64.437 26.0388 64.6454C26.0388 64.6454 26.0388 64.6454 26.0388 64.6975C28.0707 65.3227 30.1548 65.7395 32.343 65.9479C32.4472 65.7916 32.5514 65.6874 32.7077 65.6353C32.864 65.5832 33.1245 65.7916 33.2808 65.8958C33.2808 65.9479 33.3329 66 33.3329 66.0521C33.9581 66.1042 34.5833 66.1042 35.2085 66.1042C40.9917 66.1042 46.4102 64.4891 51.0993 61.7278C50.943 61.5715 50.8909 61.3631 50.943 61.1547C50.943 61.0505 51.0993 60.9463 51.1514 60.9463C51.7766 60.7379 52.4539 60.5816 53.1312 60.4253H53.1833C53.6522 60.1127 54.0691 59.8 54.4859 59.4353C54.2775 59.4874 54.1212 59.5395 53.9127 59.5916C53.4438 59.6958 53.027 59.8 52.5581 59.9564C52.1934 60.0606 51.8808 60.2169 51.6203 59.8C51.4119 59.5395 50.7346 59.8001 50.6304 60.1648C50.5783 60.4774 50.422 60.5816 50.1615 60.6337C49.7447 60.7379 49.38 60.8421 48.9632 60.9463C48.5985 61.0505 48.2859 61.2068 47.9733 60.79C47.9212 60.6858 47.6085 60.6858 47.4522 60.7379C46.6186 60.9463 45.785 61.1026 44.9514 61.3631C44.7951 61.4152 44.6388 61.5715 44.5346 61.7278C44.222 62.3009 43.3363 62.5093 42.7632 62.1446C42.5027 61.9883 42.2943 62.0404 42.2422 62.3009C42.1901 62.6656 41.9296 62.6656 41.6691 62.7698C41.3564 62.874 41.2001 62.7698 40.9917 62.5614C40.7312 62.3009 39.9497 62.5093 39.8455 62.874C39.7413 63.395 39.2724 63.3429 38.9598 63.4471C38.6472 63.5513 38.2825 63.7597 38.022 63.2908C37.9699 63.2387 37.8136 63.2387 37.7094 63.1866C37.6573 63.3429 37.5531 63.4471 37.3968 63.6034C37.0321 63.9681 36.8237 64.1244 36.6153 64.0723C36.5111 64.1765 36.3027 64.1765 35.9901 64.2807C35.4691 64.6975 35.1043 63.8639 34.5833 63.8639C34.5833 63.7076 34.5833 63.4992 34.6354 63.4471C34.948 63.1866 35.3127 63.0824 35.6775 63.0824C35.6254 62.9261 35.5733 62.8219 35.6254 62.7698C35.6775 62.7177 35.6775 62.7177 35.7296 62.6656C35.5733 62.6656 35.3649 62.6656 35.2085 62.6656C33.4892 62.6656 31.822 62.5093 30.2069 62.1967C30.259 62.353 30.259 62.5093 30.259 62.6656C30.259 62.7698 30.2069 62.9782 30.1548 63.0303C30.0506 63.0824 29.8422 63.0824 29.7901 62.9782C29.4775 62.6135 29.1649 62.2488 28.9043 61.8841C27.4976 61.5715 26.143 61.1026 24.8405 60.5816C24.8405 60.7379 24.8405 60.8421 24.8405 60.9463C24.8405 61.0505 24.7363 61.1547 24.7363 61.2589C24.6321 61.2068 24.5279 61.1547 24.4758 61.0505C24.3716 60.9463 24.3195 60.8421 24.3195 60.7379C24.2674 60.5816 24.2674 60.4253 24.3195 60.3211C22.3917 59.4874 20.5682 58.3933 18.901 57.1429C18.7447 57.2992 18.5884 57.4034 18.38 57.5597C18.2758 57.6118 18.0153 57.6118 17.9111 57.5597C17.8069 57.5076 17.7548 57.195 17.8069 57.1429C18.0153 56.8303 17.7548 56.6219 17.7027 56.3614C17.5985 56.0488 17.338 56.1009 17.0254 56.1009C16.7127 56.0488 16.4001 55.7883 16.1917 55.5278C16.1396 55.4757 16.2438 55.2673 16.348 55.0589C15.7228 54.4858 15.1497 53.8606 14.5766 53.1832C14.4203 53.1832 14.3161 53.1832 14.3161 53.1311C14.264 53.0269 14.264 52.9227 14.264 52.7664C13.743 52.1412 13.2741 51.516 12.8052 50.8387C12.4926 50.8387 12.18 50.7866 11.9716 50.474C11.9195 50.3177 11.8674 50.1614 11.8153 49.953C11.7632 49.953 11.659 49.953 11.6069 49.9009C11.659 49.8488 11.7111 49.7967 11.7632 49.7446C11.7111 49.3799 11.5548 49.1715 11.1901 49.0673C10.617 48.9631 10.3564 48.5463 10.2522 47.9732C10.2001 47.9732 10.0959 47.9732 10.0438 47.9732C9.93964 47.9732 9.78334 47.7127 9.73124 47.6606C9.73124 47.4 9.67914 47.2958 9.67914 47.1395C9.67914 47.0874 9.83544 46.9311 9.88754 46.9832C9.83544 46.8269 9.83544 46.7227 9.99174 46.5664C10.0959 46.5143 10.148 46.4101 10.2522 46.3059C9.88754 45.4723 9.57493 44.6387 9.26233 43.753C9.00183 43.9093 8.79342 43.8051 8.58502 43.5967C8.32451 43.8051 8.11611 44.0135 7.85561 44.1698C7.75141 44.2219 7.543 44.1698 7.3867 44.1698C7.3867 44.0135 7.3867 43.8051 7.4909 43.7009C7.85561 43.2841 8.11611 43.232 8.58502 43.5446C8.74132 43.3883 8.89762 43.2841 9.05393 43.1278C8.06401 40.4185 7.6472 37.7614 7.6472 35C7.6472 33.3849 7.80351 31.874 8.06401 30.311C8.06401 30.311 8.06401 30.311 8.01191 30.2589C7.90771 30.1547 7.80351 29.8942 7.85561 29.79C7.95981 29.6858 8.06401 29.5816 8.16821 29.4774C8.74132 26.6639 9.73124 24.0068 11.0859 21.6101C10.5649 21.7143 10.3564 21.6101 10.2522 21.1412C10.148 20.6723 10.2001 20.6202 10.8254 20.4118C11.0859 20.3597 11.2422 20.3076 11.3464 20.3597C11.3464 20.2555 11.3985 20.2034 11.5548 20.2034C11.659 20.2034 11.7632 20.2034 11.8674 20.3076C13.222 18.1194 14.9413 16.1395 16.817 14.4723C16.4522 14.5244 16.0875 14.5244 15.7749 14.5765C15.6707 14.5765 15.5665 14.3681 15.4102 14.2118C15.5144 14.0034 15.5665 13.795 15.6707 13.6908C15.7228 13.6387 15.9833 13.795 16.1396 13.8471C16.2438 13.8992 16.348 14.0034 16.4522 14.0555C16.5043 13.8992 16.5564 13.795 16.5564 13.6387C16.6606 13.3261 17.0775 13.1177 17.4943 13.1698C17.7548 13.2219 17.8069 13.3782 17.859 13.5866C18.0674 13.4303 18.2237 13.274 18.4321 13.1698C18.4321 13.0656 18.5363 12.9614 18.6405 12.9093C18.7968 12.8051 19.0052 12.753 19.1615 12.6488C19.6304 12.2841 20.1514 11.9715 20.6724 11.6589H20.6203C20.0472 11.7631 19.8909 11.6589 19.8388 11.1379C19.7867 10.8253 19.8909 10.669 20.1514 10.6169C20.5161 10.5127 20.8808 10.4605 21.1934 10.3563C21.4018 10.3042 21.6623 10.3042 21.8186 10.2C22.2875 9.93954 22.6522 10.1479 23.017 10.4084C26.664 8.63702 30.7279 7.6471 35.0001 7.6471C36.1985 7.6471 37.3968 7.75131 38.543 7.90761C39.0119 7.69921 39.4808 7.595 40.0018 7.6471C40.0018 7.595 40.0018 7.595 40.0018 7.5429C40.0018 7.4908 40.106 7.4387 40.3144 7.2824C40.2623 7.3345 40.3665 7.1782 40.4707 7.1782C40.5749 7.1261 40.7833 7.1261 40.8875 7.1782C40.9396 7.2303 40.9396 7.4387 40.8875 7.5429C40.8354 7.6471 40.7833 7.69921 40.7312 7.80341C40.7833 7.80341 40.8354 7.85551 40.8875 7.85551C40.9917 7.90761 41.0959 8.11601 41.148 8.22021V8.27231C41.3564 8.32442 41.6169 8.37652 41.8254 8.42862C41.8254 8.42862 41.8254 8.42862 41.8254 8.37652C41.4606 7.75131 41.5127 7.595 42.2422 7.3345C42.659 7.1782 43.2321 7.2303 43.4405 6.70929C43.3884 6.70929 43.5968 6.70929 43.8052 6.60509C43.7531 6.60509 43.701 6.55299 43.6489 6.55299C43.4926 6.44878 43.3363 6.24038 43.18 6.08408C43.0758 5.97988 43.0237 5.87568 42.9195 5.77147V5.82357C42.9195 5.92778 42.8674 6.03198 42.8153 6.08408C42.7111 6.08408 42.5548 6.08408 42.5548 6.08408C42.4506 5.82357 42.3985 5.51097 42.3464 5.19836C42.3464 5.14626 42.5548 5.04206 42.5548 5.04206C42.659 5.14626 42.7632 5.25047 42.8153 5.35467C42.8153 5.30257 42.8153 5.25047 42.8674 5.25047C42.9195 5.19836 43.18 5.14626 43.2321 5.19836C43.5447 5.51097 43.8573 5.82357 44.1699 6.13618C44.222 6.24038 44.222 6.50089 44.1178 6.55299C44.1178 6.55299 44.0657 6.60509 44.0136 6.60509C44.3783 6.70929 44.743 6.76139 45.1077 6.96979C45.3161 7.07399 45.3161 7.3866 45.2119 7.69921C45.264 7.69921 45.3161 7.69921 45.4203 7.75131C45.6287 7.80341 45.9934 7.75131 46.0976 7.85551C46.2018 8.01181 46.0976 8.32442 46.0455 8.53282C45.9934 8.74122 45.9934 8.94963 45.9413 9.15803C45.7329 9.21013 45.5766 9.26223 45.4203 9.31433C45.3682 9.21013 45.3682 9.05383 45.3161 8.89752C45.264 8.58492 45.1598 8.32442 44.743 8.48072C44.6388 8.53282 44.5346 8.48072 44.3783 8.42862C44.2741 8.53282 44.2741 8.74122 44.3262 9.10593C44.3262 9.15803 44.3262 9.26223 44.2741 9.31433C45.1077 9.62694 45.8892 9.93954 46.7228 10.3563C46.7749 10.3563 46.827 10.3563 46.827 10.3563C46.9833 10.3563 47.1396 10.4606 47.2438 10.4084C47.5564 10.2521 47.7649 10.4606 47.9212 10.669C48.0254 10.8253 48.1296 10.9295 48.2338 11.0858C48.338 11.0337 48.4943 11.0337 48.5985 10.9816C48.9632 10.8774 49.3279 10.8253 49.6405 10.7211C50.0052 10.6169 50.3178 10.4606 50.6304 10.9295C50.7346 11.0337 51.0993 10.9295 51.3598 10.9295C51.4119 10.9295 51.464 10.9816 51.5161 10.9816C51.9329 10.7732 52.0892 10.8774 52.1413 11.3463C52.1934 11.6589 52.2455 11.9194 52.2976 12.232C52.2976 12.3883 52.3497 12.5446 52.2455 12.6488C51.985 13.274 51.7245 13.3261 51.2035 12.8051C51.1514 12.753 51.0472 12.6488 50.9951 12.5967C50.8909 12.4925 50.7867 12.3362 50.6825 12.1799C50.5262 12.0236 50.5262 11.8673 50.6304 11.711C50.2657 11.8152 49.9531 11.9715 49.6405 12.0757C50.5783 12.7009 51.464 13.3261 52.3497 14.0555C52.2455 13.8992 52.1934 13.6387 52.2455 13.5866C52.4539 13.3782 52.7665 13.0656 53.027 13.0656C53.4959 13.0656 54.0169 13.1698 54.3817 13.5866C54.5901 13.795 54.6422 14.0034 54.4338 14.2118C54.3296 14.316 54.2775 14.3681 54.1733 14.4723C53.9649 14.6807 53.8085 14.8891 54.069 15.1496C54.2775 15.358 54.4338 15.7227 54.8506 15.4622C55.0069 15.358 55.1632 15.3059 55.3195 15.2538C55.58 15.2017 55.7363 15.2538 55.6842 15.5143C55.6842 15.6185 55.6321 15.7748 55.6842 15.879C55.7363 16.2958 55.58 16.6606 55.2674 16.7648C55.5279 17.0774 55.8405 17.39 56.101 17.7026C56.1531 17.6505 56.2573 17.5463 56.4136 17.4942C56.4657 17.4421 56.5699 17.4421 56.622 17.4421C56.9867 17.4421 57.8203 18.5362 57.7161 18.9009C57.664 19.1093 57.5598 19.3698 57.4556 19.5782C57.664 19.8387 57.8203 20.1513 57.9766 20.4118C58.0808 20.1513 58.2371 19.995 58.4976 19.9429C58.706 19.9429 58.9144 20.0992 59.0707 20.2555C59.3833 20.516 59.1749 20.7765 58.9665 21.037C58.9144 21.0891 58.8102 21.1933 58.7581 21.2454C58.706 21.2975 58.6539 21.3496 58.5497 21.3496C59.6438 23.2774 60.5296 25.3093 61.1548 27.4454C61.259 27.4975 61.3632 27.5496 61.4674 27.6017C61.5716 27.6538 61.7279 27.5496 61.8321 27.6017C61.9884 27.6538 62.1968 27.6538 62.301 27.758C62.4052 27.9143 62.5615 28.0706 62.6657 28.2269C62.7178 28.1748 62.7699 28.1748 62.7699 28.1748C63.2909 28.0706 63.5514 28.2269 63.6556 28.6437C63.7077 28.8521 63.6556 29.0606 63.4993 29.2169C63.7598 29.5295 64.0724 29.8421 64.3329 30.2068C64.4371 30.3631 64.5413 30.5194 64.5934 30.6757C64.6455 30.7799 64.6455 30.9883 64.5934 31.0925C64.5413 31.1446 64.385 31.1446 64.2808 31.1446C63.5514 31.1446 62.9783 30.8841 62.7699 30.3631C62.5615 30.1026 62.4052 29.9463 62.301 29.79C62.0926 29.5816 61.9884 29.3732 62.1447 29.0606C62.301 28.8 62.1447 28.5395 61.8842 28.6437C61.78 28.6958 61.6758 28.6958 61.5716 28.6958C61.8842 29.9984 62.0926 31.3009 62.1968 32.6555C62.2489 32.6555 62.3531 32.7076 62.4052 32.8118C62.6657 33.1765 62.9262 33.4891 63.1346 33.9059C63.1346 33.6975 63.1346 33.437 63.2388 33.2807C63.343 33.1244 63.4472 32.916 63.4993 32.7597C63.6035 32.4471 63.9161 32.3429 64.0724 32.6034C64.2808 33.0723 64.5934 32.916 64.906 32.8639C64.9581 32.8639 65.0102 32.8639 65.0102 32.8118C64.9581 32.7597 64.9581 32.7076 64.9581 32.7076C64.9581 32.6555 65.1144 32.4992 65.1665 32.4992C65.3749 32.5513 65.5833 32.4992 65.7917 32.4992C65.6875 31.3009 65.5312 30.1026 65.2707 28.9042C65.1665 28.8 64.9581 28.6958 64.9581 28.5916C64.9581 28.3832 65.0102 28.1227 65.0623 27.9143C63.343 20.7765 59.1749 14.5765 53.4959 10.3042C53.6522 10.7732 53.7043 11.0858 53.0791 11.1379C52.9228 11.1379 52.7665 11.19 52.6623 11.19C52.4018 11.1379 52.3497 10.9816 52.4539 10.7732C52.5581 10.5648 52.7144 10.3042 52.8707 10.0958C52.9228 9.99164 53.027 9.93954 53.1312 9.93954C51.3598 8.58492 49.4321 7.4908 47.4001 6.60509C47.2438 6.96979 46.9312 7.1261 46.306 7.1782C45.785 7.2303 45.6287 7.1261 45.6808 6.60509C45.6808 6.39668 45.785 6.13618 45.9413 6.08408C45.9934 6.08408 45.9934 6.03198 46.0455 6.03198C45.6287 5.87568 45.264 5.71937 44.8472 5.61517C44.7951 5.61517 44.7951 5.61517 44.743 5.66727C44.4825 5.77147 44.222 5.77147 44.1178 5.40677C43.4405 5.19836 42.7111 4.98996 42.0338 4.83366C42.0338 4.88576 42.0338 4.88576 42.0338 4.93786C42.0338 4.93786 41.8254 5.09416 41.7733 5.09416C41.617 4.98996 41.5127 4.83366 41.3564 4.72946C39.2724 4.31265 37.1884 4.05215 35.0001 4.05215C31.6657 4.00005 28.4875 4.52105 25.5178 5.51097C25.622 5.56307 25.7262 5.66727 25.8304 5.82357C26.143 6.18828 26.0909 6.29248 25.6741 6.65719C25.2573 7.02189 25.101 7.02189 24.6842 6.55299C24.3716 6.18828 24.3195 6.03198 24.6321 5.77147C20.2035 7.3345 16.2438 9.88744 13.0136 13.1177C13.1178 13.1698 13.1699 13.2219 13.1699 13.2219ZM49.1195 61.3631C49.2758 61.5194 49.4321 61.6757 49.5363 61.832C49.6405 62.0404 49.6926 62.3009 49.38 62.353C49.2237 62.4051 49.0674 62.1967 48.8069 62.0925C48.9632 61.832 49.0153 61.5715 49.1195 61.3631ZM43.7531 63.2387C44.0657 63.1345 44.3783 63.1866 44.743 63.1345C44.743 63.2387 44.7951 63.3429 44.743 63.4471C44.6388 63.6034 44.4825 63.7597 44.3262 63.916C44.222 64.0202 44.1178 64.1244 44.0136 64.2286C43.9094 64.1244 43.7531 63.9681 43.5968 63.8118C43.6489 63.6034 43.6489 63.2387 43.7531 63.2387ZM37.3447 63.8639C37.5531 63.7076 38.6472 63.7597 38.6993 63.9681C38.6993 64.1765 38.7514 64.3849 38.6993 64.5412C39.064 64.437 39.3766 64.3328 39.7413 64.2807C40.0539 64.1765 40.2102 64.3849 40.3144 64.6975C40.3665 65.0101 40.4186 65.2706 40.0539 65.4269C39.8976 65.479 39.7934 65.5311 39.585 65.5832C39.2203 65.5832 38.8035 65.7395 38.4909 65.3227C38.4909 65.2706 38.4388 65.2706 38.3867 65.2706C38.1783 65.3227 37.8657 65.3227 37.6573 65.3227C37.4489 65.3227 37.2926 65.0622 37.2405 65.0101C36.7716 64.3849 36.8237 64.2286 37.3447 63.8639ZM27.9665 63.2908C27.9665 62.9261 28.3312 62.6135 28.6959 62.7698C28.748 62.7698 28.8001 63.0303 28.748 63.0824C28.4875 63.6034 28.4875 63.5513 28.9564 63.916C29.3733 64.2286 29.6859 64.2807 30.1548 64.0723C30.4674 63.916 30.8842 63.8639 31.2489 64.2286C31.301 64.3328 31.5094 64.3328 31.6136 64.3328C31.6657 64.2286 31.7178 64.0723 31.7178 63.9681C31.7699 63.2387 31.8741 63.1345 32.343 62.9782C33.0203 62.8219 33.6976 63.395 33.5934 64.0723C33.5413 64.3849 33.385 64.4891 33.1766 64.5412C32.6556 64.6975 32.1346 64.8017 31.6136 64.958C31.2489 65.0622 30.8842 65.1664 30.4674 65.2185C30.1027 65.3227 29.6859 65.5311 29.3733 65.0622C29.3212 65.0101 29.1128 65.0101 28.9564 65.0622C28.6959 65.1143 28.4875 65.1664 28.227 65.1664C28.0707 65.1664 27.8623 65.1143 27.706 65.0622C27.7581 64.9059 27.8623 64.7496 27.9144 64.5933C27.9665 64.437 27.9665 64.2807 27.9665 64.1244C28.0186 63.8639 27.9665 63.6034 27.9665 63.2908ZM27.3934 62.5614C27.4455 62.5093 27.5497 62.5614 27.8102 62.5614C27.7581 62.6656 27.706 62.8219 27.6539 62.8219C27.5497 62.874 27.4455 62.8219 27.3413 62.7698C27.3413 62.7698 27.3934 62.6135 27.3934 62.5614ZM22.8085 61.3631C22.8606 61.311 22.9649 61.2589 23.0691 61.2068C23.3296 61.1026 23.538 61.311 23.4338 61.4673C23.2254 61.9362 23.4338 62.1446 23.6943 62.4572C23.8506 62.6656 24.0069 62.874 23.6943 63.0824C23.3817 63.2387 23.2775 63.0303 23.1212 62.8219C23.017 62.6135 22.8606 62.4572 22.7043 62.3009C22.2875 61.8841 22.2875 61.7799 22.8085 61.3631ZM20.1514 58.6538C20.3598 58.758 20.5682 58.758 20.5682 58.8101C20.6203 58.9143 20.5161 59.0706 20.464 59.1748C20.4119 59.2269 20.2035 59.1748 20.1514 59.1227C20.0993 59.0185 20.1514 58.8622 20.1514 58.6538ZM12.6489 51.5681C12.701 51.5681 12.9094 51.6723 12.9094 51.7244C12.9094 51.8286 12.8052 51.9849 12.7531 52.037C12.701 52.0891 12.5447 51.9849 12.3884 51.9328C12.4926 51.7244 12.5447 51.6202 12.6489 51.5681ZM11.6069 53.3916C11.6069 53.2874 11.659 53.1832 11.7632 53.1832C11.8153 53.1832 11.9195 53.2353 11.9716 53.2874C12.0237 53.3395 12.0758 53.4437 12.0758 53.5479C12.0758 53.7563 12.0237 53.9127 12.0237 54.1211C11.8674 53.9648 11.7632 53.8606 11.7111 53.7564C11.659 53.5479 11.6069 53.4437 11.6069 53.3916ZM7.90771 45.316C8.01191 45.2639 8.22031 45.316 8.37662 45.316C8.37662 45.4723 8.42872 45.6807 8.32451 45.7849C8.27241 45.8891 8.06401 45.837 7.75141 45.8891C7.85561 45.5765 7.85561 45.3681 7.90771 45.316ZM6.50099 42.5547C6.24048 42.6589 6.08418 42.7631 5.87578 42.8673C5.77157 42.9194 5.56317 42.8673 5.56317 42.8673C5.51107 42.5026 5.35477 42.0858 5.45897 41.7732C5.51107 41.4606 5.82367 41.4084 6.13628 41.6169L6.18838 41.669C6.39678 41.7732 6.81359 41.4085 6.86569 41.8253C6.86569 41.9816 6.60519 42.2942 6.50099 42.5547ZM6.86569 27.9664C6.81359 27.9143 6.86569 27.7059 6.86569 27.5496C7.02199 27.5496 7.1783 27.6017 7.3867 27.6017C7.4388 27.8622 7.4909 28.0185 7.4909 28.2269C7.2825 28.1227 7.02199 28.0706 6.86569 27.9664ZM8.63712 26.0908C8.37662 26.1429 8.06401 26.2471 7.80351 26.2992V26.2471C7.5951 26.2992 7.4388 26.3513 7.2304 26.4034C6.70939 26.5076 6.55309 26.4034 6.44888 25.8303C6.39678 25.5698 6.44888 25.4135 6.70939 25.3093C7.2825 25.153 7.85561 25.0488 8.42872 24.8925C8.84552 24.7883 8.89762 25.153 8.94972 25.4135C9.00183 25.7261 9.00183 25.9866 8.63712 26.0908ZM60.4254 20.8286C60.5296 20.8286 60.738 20.9328 60.7901 21.0891C60.9985 21.3496 61.1027 21.6622 61.3632 21.8706C62.0405 22.3395 61.6758 22.9648 61.7279 23.5379C61.7279 23.6421 61.5716 23.7463 61.4674 23.8505C61.6758 24.0068 61.8321 24.2152 62.1447 24.0589C62.301 24.0068 62.6136 24.111 62.7178 24.2152C62.9783 24.4757 63.1346 24.8404 63.343 25.153C63.5514 25.5177 63.2388 25.674 63.0304 25.8824C62.822 26.0908 62.6136 26.0908 62.4052 25.8824C62.0405 25.4656 61.7279 25.1009 61.3632 24.6841C61.0506 24.3194 61.1027 24.0589 61.4674 23.8505C61.3111 23.7463 61.1027 23.5379 60.9985 23.59C60.5296 23.7984 60.3733 23.4858 60.1649 23.2253C60.0085 23.069 59.9043 22.8606 59.748 22.7042C59.227 22.0269 59.5917 20.9849 60.4254 20.8286ZM55.1111 12.9093C55.4758 12.5967 55.6321 12.9614 55.9447 13.2219C55.9447 13.3782 55.9968 13.6387 55.8926 13.7429C55.58 14.0555 55.3716 13.7429 55.1632 13.5345C55.0069 13.3782 54.8506 13.1177 55.1111 12.9093ZM49.4321 9.47063C49.7968 9.15803 49.9531 9.21013 50.422 9.67904C50.6304 9.88744 50.7346 10.1479 50.422 10.3563C50.0052 10.669 49.6926 10.669 49.38 10.3042C49.0153 9.93954 49.0153 9.78324 49.4321 9.47063ZM48.7548 7.85551C48.859 8.01181 48.8069 8.16811 48.8069 8.32442C48.6506 8.32442 48.4943 8.37652 48.4422 8.27231C48.338 8.16811 48.338 8.01181 48.2859 7.75131C48.5464 7.80341 48.7027 7.80341 48.7548 7.85551ZM46.7749 9.67904C46.8791 9.67904 46.9833 9.78324 47.0875 9.83534C47.0354 9.93954 46.9833 10.0958 46.9312 10.1479C46.827 10.2 46.7228 10.0958 46.5144 10.0437C46.6186 9.88744 46.7228 9.67904 46.7749 9.67904ZM40.4707 6.08408V6.13618C40.4186 6.29248 40.4186 6.44878 40.3665 6.60509C40.3144 6.60509 40.2102 6.60509 40.2102 6.55299C40.0539 6.24038 40.2623 6.18828 40.4707 6.08408ZM37.1363 5.09416C37.4489 5.04206 37.7094 4.98996 38.022 4.93786C38.0741 4.93786 38.1262 4.93786 38.2304 4.98996C38.2825 4.93786 38.3346 4.93786 38.3867 4.88576C38.3867 4.88576 38.3867 4.83366 38.4388 4.83366C38.5951 4.88576 38.8035 4.88576 38.8556 4.98996C39.0119 5.14626 38.9077 6.13618 38.7514 6.13618C38.5951 6.18828 38.3867 6.08408 38.3346 6.08408C38.0741 5.77147 37.9699 5.56307 37.9699 5.35467C37.8657 5.40677 37.7094 5.51097 37.5531 5.56307C37.4489 5.61517 37.3447 5.66727 37.2926 5.77147C37.1884 5.92778 37.0842 6.03198 37.0321 6.18828C36.9279 6.08408 36.8237 5.87568 36.7716 5.82357C36.6153 5.19836 36.6153 5.14626 37.1363 5.09416ZM33.5413 5.97988C33.6455 5.92778 33.7497 5.87568 33.8018 5.87568C33.9581 5.92778 34.1144 6.03198 34.2707 6.08408C34.2186 6.24038 34.1144 6.34458 34.0623 6.50089C34.0102 6.55299 33.906 6.55299 33.6455 6.65719C33.5413 6.60509 33.2808 6.55299 33.1766 6.44878C33.0203 6.18828 33.3329 6.08408 33.5413 5.97988ZM25.9346 8.01181C26.143 7.85551 26.2472 7.75131 26.3514 7.75131C26.4556 7.75131 26.6119 7.75131 26.664 7.80341C26.7161 7.85551 26.7161 8.01181 26.664 8.11601C26.6119 8.22021 26.5077 8.32442 26.4035 8.37652C26.2472 8.48072 26.0388 8.74122 25.8825 8.48072C25.7783 8.37652 25.8825 8.11601 25.9346 8.01181ZM19.6304 8.53282C19.8909 8.42862 20.5161 8.94963 20.464 9.21013C20.4119 9.31433 20.2556 9.52274 20.2035 9.52274C20.0472 9.52274 19.8909 9.41853 19.7867 9.36643C19.6304 9.15803 19.5262 9.05383 19.5262 8.89752C19.422 8.74122 19.5262 8.58492 19.6304 8.53282ZM17.859 11.2421C18.38 11.1379 18.4842 11.19 18.5884 11.6068C18.6926 12.0757 18.6405 12.1799 18.1716 12.2841C17.7027 12.3883 17.5985 12.3362 17.4943 11.9194C17.338 11.4505 17.3901 11.3463 17.859 11.2421Z" fill="#FEFEFE"/>
<path d="M58.3934 55.3194C58.3413 55.3194 58.2892 55.3194 58.185 55.3194C57.8203 55.3715 57.664 55.2673 57.8203 54.8505C57.8724 54.6942 57.8203 54.5379 57.8203 54.3816C57.8203 54.2774 57.8203 54.1732 57.8724 54.0169C58.0287 54.0169 58.0808 53.9648 58.185 53.9648C58.3934 53.9648 58.6018 54.0169 58.8102 54.069C59.0707 54.069 59.227 54.2253 59.1228 54.4337C59.748 53.6522 60.3732 52.8186 60.9463 51.9329C60.6858 52.0371 60.4253 51.985 60.1127 51.8287C59.9564 51.7245 59.6959 51.6203 59.5396 51.6203C59.1228 51.6203 58.9144 51.4119 58.8102 51.0472C58.7581 50.8909 58.8102 50.6304 58.8623 50.5783C59.0186 50.5262 59.2791 50.4741 59.3833 50.5783C59.6959 50.943 59.9043 50.9951 60.0606 50.4741C60.1648 50.1615 61.2589 49.7967 61.5715 49.953C61.6757 50.0051 61.7799 50.2136 61.9362 50.422C61.9362 50.422 61.9362 50.422 61.9362 50.4741C62.5615 49.3799 63.1346 48.2337 63.6556 47.0875C64.1766 45.8892 64.5934 44.6388 64.9581 43.3883C64.8539 43.3883 64.7497 43.3883 64.6455 43.3883C64.4892 43.3883 64.3329 43.4404 64.2287 43.4404C64.1245 43.4404 64.0203 43.3362 63.9161 43.2841C63.9682 43.232 63.9682 43.0757 64.0724 43.0757C64.4371 42.9194 64.8018 42.7631 65.1665 42.6068C65.427 41.6169 65.6354 40.5749 65.7917 39.585C65.7396 39.5329 65.6354 39.4808 65.5833 39.4287C65.3749 39.2203 65.3228 38.8035 65.2707 38.4909C65.2707 38.3867 65.5312 38.2304 65.7396 38.1262C65.7917 38.0741 65.8959 38.0741 65.948 38.0741C66.0001 37.6052 66.0522 37.1362 66.0522 36.7194C65.8438 36.3547 65.2707 36.5631 65.1144 36.0942C65.1144 36.0421 64.8539 35.99 64.7497 35.99C64.5934 35.99 64.4371 36.0421 64.3329 36.0421C64.0724 36.0942 63.864 36.0421 63.8119 35.7816C63.7598 35.5211 63.9682 35.4169 64.1766 35.3648C64.2287 35.3648 64.2808 35.3648 64.3329 35.3127C64.3329 35.3127 64.3329 35.3127 64.3329 35.3648C64.9581 35.2085 65.5312 35.0522 66.1564 34.8959C66.1564 34.4791 66.1564 34.0623 66.1043 33.6455C65.948 33.6455 65.7917 33.5413 65.6354 33.3329C65.4791 33.0724 64.8018 33.385 64.6976 33.6976C64.5413 34.0623 63.9682 34.3749 63.6035 34.2707C63.4472 34.2186 63.343 34.0102 63.343 33.8018C63.2909 33.8539 63.0304 34.1144 62.9783 34.0623C62.822 33.9581 62.6136 33.9581 62.4573 34.0102C62.4573 34.3228 62.4573 34.6354 62.4573 35.0001C62.4573 35.4169 62.4573 35.8858 62.4052 36.3026C62.5094 36.3547 62.5615 36.4589 62.6136 36.511C62.6657 36.5631 62.6136 36.8236 62.5615 36.8757C62.5094 36.9278 62.4052 36.9799 62.301 37.032C62.2489 37.5531 62.1968 38.0741 62.1447 38.5951C62.2489 38.543 62.4573 38.4909 62.4573 38.543C62.6136 38.8035 62.822 38.8556 63.1346 38.9077C63.5514 38.9598 63.7077 39.6371 63.3951 39.9497C62.9262 40.4186 62.9262 40.4707 63.4993 40.7312C63.6035 40.7833 63.7077 40.8875 63.7077 40.9917C63.7077 41.0959 63.6035 41.2522 63.5514 41.2522C63.2388 41.3564 62.8741 41.6169 62.5615 41.2001C62.4573 41.0959 62.1968 41.0959 61.9884 41.0959C61.8842 41.0959 61.7799 41.148 61.7278 41.148C61.2589 43.232 60.5295 45.2119 59.6438 47.0354C59.6959 47.0354 59.748 47.0354 59.8522 47.0354C60.2169 47.0875 60.7379 46.827 60.8942 47.348C61.311 47.8169 61.311 47.869 60.9463 48.2337C60.5295 48.5984 60.1648 48.911 59.748 49.2236C59.6438 49.2757 59.4354 49.2757 59.2791 49.2757C59.2791 49.2236 59.2791 49.1715 59.2791 49.1715C59.1749 49.2236 59.0186 49.2757 58.8102 49.3278C58.7581 49.3278 58.6539 49.2757 58.5497 49.2236C57.9766 50.1615 57.3514 51.0993 56.6741 51.9329C56.6741 51.985 56.7262 52.0371 56.7262 52.1413C56.8304 52.1934 56.9346 52.2976 57.0909 52.506C57.2472 52.7144 57.5598 52.9228 57.1951 53.2354C57.0909 53.3396 56.9867 53.3917 56.8304 53.4438C56.7262 53.7043 56.5178 53.8606 56.0489 54.0169C55.7884 54.069 55.5799 54.1211 55.3194 54.1732C55.0589 54.2253 54.7463 54.2774 54.6942 54.6942C54.6421 54.9547 54.4337 55.0068 54.2253 54.8505C54.1732 54.8505 54.1732 54.7984 54.1211 54.7984C52.506 56.3615 50.6825 57.7682 48.7026 58.9144C48.7547 58.9144 48.8068 58.9144 48.8589 58.8623C49.3799 58.8102 49.9531 58.5497 50.422 59.0707C50.6304 59.2791 51.2035 59.0186 51.2556 58.6539C51.3077 58.2892 51.5161 58.1329 51.8287 58.0808C52.9228 57.9245 54.0169 57.7682 55.111 57.2993C55.7362 57.0388 56.101 57.2993 56.2573 57.8724C56.8825 56.9867 57.664 56.153 58.3934 55.3194ZM64.1766 38.1262C64.1766 38.0741 64.2808 38.022 64.3329 37.9699C64.4371 37.9178 64.5413 37.8136 64.6455 37.7615C64.6976 37.7094 64.8018 37.7615 64.906 37.7615C64.906 37.8657 64.906 37.9699 64.8539 38.022C64.7497 38.1783 64.6976 38.3346 64.5413 38.4388C64.4371 38.4909 64.2287 38.4909 64.1245 38.4909C64.1245 38.3867 64.1245 38.2825 64.1766 38.1262ZM64.1766 38.6472C64.2808 38.7514 64.3329 38.8035 64.385 38.8556C64.385 38.9077 64.3329 38.9598 64.2808 39.0119C64.2287 38.9598 64.1245 38.9077 64.0724 38.8556C64.0203 38.8556 64.1245 38.7514 64.1766 38.6472ZM63.5514 34.7917C63.4993 34.7917 63.5514 34.6875 63.5514 34.5312C63.6556 34.5833 63.7598 34.5833 63.8119 34.6354C63.864 34.6354 63.8119 34.7917 63.8119 34.7917C63.7077 34.7917 63.6035 34.7917 63.5514 34.7917ZM62.822 43.2841C62.8741 43.232 63.1346 43.3883 63.1346 43.4925C63.1346 43.5967 63.0825 43.8051 62.9783 43.9094C62.8741 43.9615 62.7178 43.8052 62.4573 43.7531C62.6657 43.4925 62.7178 43.3362 62.822 43.2841ZM57.0388 51.3598C57.0388 51.2556 57.0909 51.0993 57.1951 51.0472C57.2472 50.9951 57.4035 51.0472 57.5077 51.0993C57.7161 51.2035 57.8724 51.3077 58.0287 51.4119C58.2892 51.5682 58.6018 52.3497 58.3413 52.5581C58.0287 52.8186 58.0808 53.1312 58.0808 53.4438C58.0808 53.6001 57.9766 53.7564 57.9245 53.8606C57.8203 53.7564 57.6119 53.6522 57.5598 53.4959C57.4035 53.1312 57.3514 52.7665 57.2472 52.3497C57.1951 52.0892 57.0909 51.7245 57.0388 51.3598ZM54.8505 56.622C54.6942 56.622 54.5379 56.4136 54.3816 56.3094C54.4858 55.9967 54.1732 55.5799 54.59 55.4757C54.9547 55.4236 54.9547 55.8925 55.0589 56.1009C55.1631 56.3615 55.1631 56.622 54.8505 56.622Z" fill="#FEFEFE"/>
<path d="M10.8773 38.8556C11.0857 39.0119 11.1378 39.2203 10.9815 39.5329C10.9815 39.5329 10.9815 39.585 10.9294 39.6371C11.4504 42.2942 12.3882 44.795 13.6908 47.0875C13.8471 47.2438 13.9513 47.4001 14.1076 47.5564C14.2118 47.6606 14.316 47.8169 14.2639 47.869C14.2118 47.9211 14.2118 47.9732 14.2118 48.0253C14.8891 49.1194 15.6706 50.1614 16.5042 51.0992C16.7126 50.995 16.8689 50.8908 17.1294 51.1513C17.3899 51.464 17.5983 51.7245 17.8588 52.0371C18.0151 52.2455 18.1714 52.4018 18.3277 52.6102C18.484 52.8186 18.6924 53.027 18.6403 53.2875C18.8487 53.4959 19.1092 53.7043 19.3176 53.8606C19.4218 53.8606 19.4739 53.9127 19.4739 54.0169C23.4857 57.2471 28.4874 59.2791 33.958 59.4875C33.9059 59.3833 33.8538 59.2791 33.8538 59.1749C33.8017 59.0707 33.8538 58.9144 33.8538 58.7581C33.958 58.7581 34.0622 58.8102 34.2185 58.8102H34.2706C34.1143 58.6018 33.958 58.3934 33.8017 58.185C34.3227 58.0287 34.479 57.7682 34.3748 57.2471C34.3227 56.9345 34.2185 56.5698 34.1664 56.2572C34.1143 55.9967 33.958 55.8925 33.6454 55.9446C33.2286 56.0488 32.8118 56.2051 32.395 56.3093C32.1345 55.9967 31.926 55.6841 31.6655 55.3715C31.7697 55.2673 31.926 55.1631 32.0302 55.0068C31.7697 54.8505 31.5092 54.59 31.1966 54.59C31.1445 54.59 31.1445 54.59 31.0924 54.59C29.9983 53.0791 29.0084 51.6203 28.2269 50.3177C28.279 50.2656 28.279 50.1093 28.3311 50.0572C28.2269 50.0051 28.1227 49.9009 28.0185 49.953C28.0185 49.953 28.0185 49.953 27.9664 49.953C27.4454 49.0673 27.0286 48.2858 26.716 47.6085C26.716 47.5564 26.6639 47.5043 26.6639 47.4522C26.7681 47.4001 26.9244 47.2959 26.9244 47.2438C26.9244 47.0875 26.9765 47.0354 27.0286 46.9312C27.0286 46.9833 27.0286 46.9833 27.0286 47.0354C27.0286 47.1396 27.3412 47.1396 27.5496 47.2438C27.6538 47.0354 27.758 46.9312 27.758 46.7749C27.758 46.7749 27.7059 46.7228 27.6538 46.6707C27.9143 46.5665 28.1748 46.5144 28.4353 46.4623C28.8521 46.3581 29.2689 46.0455 29.6336 46.5665C29.6336 46.5665 29.7378 46.6186 29.7378 46.5665C30.2067 46.3581 30.9361 46.5665 31.1445 45.8371C31.1445 45.785 31.3008 45.6808 31.3529 45.6287C31.8218 45.4724 32.2908 45.3161 32.7597 45.2119C32.9681 45.1598 33.2286 45.3161 33.4891 45.4203C33.5412 45.1077 33.6975 44.8992 34.0101 44.795C34.0622 44.7429 34.1143 44.6908 34.2185 44.6387C34.5311 44.8471 34.8437 45.0555 35.1563 45.264C35.2605 45.3161 35.4168 45.3682 35.4689 45.3161C35.521 45.264 35.5731 45.1076 35.5731 45.0034C35.521 44.6908 35.4689 44.4303 35.3647 44.1698C35.3647 44.1177 35.3647 44.0656 35.3126 44.0135C35.3647 44.0656 35.4168 44.0656 35.4689 44.1177C35.6773 44.3261 35.8336 44.3261 36.042 44.274C36.3025 44.2219 36.5109 44.1698 36.7193 44.3782C36.9277 44.5866 37.6571 44.3782 37.7092 44.1177C37.7613 43.7009 38.0739 43.7009 38.3345 43.5967C38.5429 43.4925 38.7513 43.3883 38.9076 43.232C38.9597 43.1799 39.0118 42.9715 38.9597 42.9194C38.6992 42.6068 38.0739 42.4505 37.7092 42.6068C37.3445 42.7631 37.0319 42.8673 36.563 43.0236C36.563 43.0236 36.563 43.0236 36.5109 43.0236C36.5109 43.0236 36.5109 43.0757 36.4588 43.0757C36.4588 43.0757 36.4588 43.0757 36.4067 43.0757C36.042 43.1799 35.6252 43.2841 35.1563 43.4404C35.0521 43.0757 35 42.8673 34.7916 42.8673C35 42.7631 35 42.711 34.9479 42.5026C34.8958 42.3984 34.8958 42.2421 34.8437 42.1379C34.8437 42.0337 34.7916 41.8774 34.7916 41.7732C34.7916 41.6169 34.7395 41.4606 34.6874 41.3043H34.7395C34.6874 41.0959 34.6353 40.8875 34.5832 40.6791C34.5311 40.3665 34.3748 40.2623 34.0622 40.3144C33.4891 40.4186 33.1244 41.0959 33.1765 41.669C33.2286 42.0858 33.5933 42.0858 33.8017 42.2942C33.8017 42.3984 33.8538 42.5547 33.9059 42.6589C33.958 42.8152 34.0622 42.9715 34.1664 43.0236C33.958 43.0757 33.8017 43.1278 33.6454 43.2841C33.5412 43.3883 33.5412 43.7009 33.5933 43.9614C32.7076 44.1698 31.8218 44.4303 30.9361 44.6387C30.6756 44.6908 30.4672 44.8471 30.2588 44.8992C29.6336 45.0556 28.9042 45.1598 28.3311 45.4203C27.9143 45.5766 27.2891 45.6287 27.0807 46.2018C27.0807 46.2539 26.8202 46.306 26.7681 46.2539C26.5076 46.0455 26.2992 46.1497 26.0908 46.2018C25.9345 45.8371 25.7781 45.5245 25.6218 45.1077L25.6739 45.0556C25.7781 44.9514 25.7781 44.7429 25.726 44.5866C25.6739 44.274 25.5697 44.0135 25.4655 43.753C25.3613 43.4404 25.3092 43.0757 25.1529 42.8152C25.1008 42.711 24.9445 42.6589 24.8403 42.6068C24.7882 42.6068 24.7361 42.711 24.684 42.8152C24.4756 42.0337 24.2672 41.2522 24.2151 40.4707C24.2672 40.4186 24.3193 40.3665 24.3193 40.2623C24.2672 40.2623 24.2151 40.2102 24.163 40.2102C24.1109 39.5329 24.163 38.8555 24.2672 38.2303C24.2672 38.1782 24.2672 38.1782 24.2672 38.1261C24.684 36.1463 25.2571 34.8438 26.2992 33.4892C26.4555 33.2808 26.6639 33.0724 26.9244 32.864C27.6538 32.1866 28.3832 31.4572 28.1748 30.0505C27.5496 26.0908 25.6218 25.4656 22.8084 24.5278C22.2353 24.3194 21.6622 24.1631 21.037 23.9026C21.1933 23.8505 21.2975 23.7984 21.4538 23.7984C21.6101 23.7463 21.7664 23.6942 21.9227 23.6421C22.1311 23.59 22.3395 23.4858 22.2353 23.2253C22.1311 22.9648 22.2353 22.6001 21.7664 22.6001C21.558 22.6001 21.3496 22.3396 21.1933 22.3396C21.037 22.3917 20.9849 22.6522 20.8286 22.8085C20.7765 22.8606 20.6202 22.9127 20.516 22.9127C20.3076 23.0169 20.0471 23.069 19.995 23.3816C19.995 23.3816 19.995 23.3816 19.995 23.4337C19.8908 23.3816 19.7866 23.3295 19.6823 23.2774C18.9008 22.8606 18.0672 22.4438 17.2857 22.4438C17.1815 22.4438 17.0252 22.4438 16.921 22.4959H16.8689C16.7647 22.4959 16.6605 22.4438 16.6084 22.3396C16.5563 22.2354 16.5563 22.0791 16.7126 21.8707C17.5462 20.7245 19.8387 19.9429 21.5059 19.8908C21.5059 19.8908 21.5059 19.8908 21.5059 19.9429C21.5059 20.0471 21.5059 20.2035 21.5059 20.3077C21.7143 20.2556 21.9748 20.2556 22.1832 20.2035C22.2353 20.1514 22.2874 19.995 22.2874 19.8387C22.8084 19.7866 23.5378 19.6824 24.3714 19.5261C26.8723 19.1614 30.6235 18.5883 33.9059 18.5883C34.479 18.5883 34.9479 18.5883 35.4168 18.6404C35.2084 18.7446 35.2605 18.953 35.3647 19.2656C35.4168 19.3177 35.5731 19.5261 35.6773 19.474C36.042 19.3698 35.8336 19.0051 35.8336 18.7967C35.8336 18.7446 35.7294 18.6925 35.6773 18.6404C35.9899 18.6404 36.3025 18.6925 36.6151 18.7446C36.6151 18.7967 36.563 18.8488 36.563 18.9009C36.563 19.0051 36.6672 19.2135 36.7193 19.2135C37.084 19.1614 37.3966 19.1093 37.7613 18.953C38.2824 19.0572 38.6992 19.2135 39.0639 19.4219C41.3042 20.2035 42.7109 21.8707 43.8571 23.7463C43.7008 23.9026 43.4403 24.0068 43.4403 24.1631C43.3882 24.632 43.9613 24.4236 44.1176 24.6841C44.1697 24.7362 44.3781 24.7362 44.4823 24.7362C44.6908 25.0488 44.8471 25.4135 45.0555 25.7261C45.316 26.2471 45.6286 26.7682 45.9412 27.2371C46.2017 27.6539 47.7126 29.0085 49.3798 30.5194C51.7244 32.6035 54.8504 35.4169 56.9344 37.7614C56.8823 37.8135 56.8302 37.9177 56.8302 38.0219C56.8302 38.074 56.9866 38.1782 57.0387 38.1782C57.0908 38.1782 57.1429 38.1261 57.195 38.1261C57.2471 38.2303 57.3513 38.2824 57.4034 38.3866C57.8723 38.9077 58.3412 39.4287 58.758 39.9497C59.0706 38.3345 59.279 36.7194 59.279 35.0001C59.279 21.4539 48.3378 10.5127 34.7916 10.5127C21.2454 10.5127 10.3042 21.4539 10.3042 35.0001C10.3042 36.2505 10.4084 37.5009 10.5647 38.7513C10.8252 38.8034 10.8773 38.8035 10.8773 38.8556ZM28.9042 53.0791C29.1126 52.8707 29.3731 52.7665 29.6336 52.5581C29.6857 52.6623 29.8941 52.9228 29.842 52.9228C29.5815 53.1833 30.2067 53.8085 29.5294 53.9127C29.3731 53.9127 29.2168 53.7043 28.9563 53.548C28.9563 53.4438 28.8521 53.1833 28.9042 53.0791ZM16.5563 43.5446C16.4521 43.6488 16.2437 43.6488 16.0874 43.6488C16.1395 43.4404 16.2437 43.2841 16.2958 43.0757C16.5042 43.0757 16.6084 43.0757 16.7647 43.0757C16.7126 43.232 16.6605 43.4404 16.5563 43.5446ZM17.5983 48.6505C17.442 48.4942 17.2857 48.2858 17.1294 48.0774C16.921 47.8169 16.7126 47.6085 17.0773 47.348C17.4941 47.0354 17.7025 46.9833 18.0151 47.2959C18.1193 47.4001 18.2756 47.5564 18.3798 47.6606C18.4319 47.7127 18.484 47.7648 18.5361 47.8169C18.9008 48.2858 18.9008 48.2858 18.484 48.6505C18.0672 49.0673 17.963 49.0673 17.5983 48.6505ZM18.1714 43.5967C18.2235 43.3883 18.2756 43.232 18.3277 43.1799C18.3798 43.1278 18.5882 43.1799 18.6403 43.232C18.6924 43.2841 18.6924 43.4925 18.6403 43.5446C18.5361 43.5967 18.3798 43.5446 18.1714 43.5967ZM19.526 50.2656C19.2655 50.5261 19.0571 50.474 18.6924 50.0051C18.3798 49.6404 18.4319 49.5362 18.7966 49.2236C19.2134 48.8589 19.3176 48.911 19.6823 49.2757C19.995 49.6404 19.9429 49.8488 19.526 50.2656ZM19.1613 44.1177C19.2655 44.0656 19.526 44.2219 19.7866 44.274C19.8387 44.5345 19.9429 44.795 19.8387 44.8992C19.5781 45.1598 19.4218 44.8471 19.2655 44.6908C19.0571 44.5345 18.9008 44.274 19.1613 44.1177ZM20.6202 45.9934C20.5681 46.0455 20.3597 45.9934 20.3076 45.9413C20.2555 45.8371 20.2555 45.6808 20.2555 45.4724C20.4639 45.5245 20.6723 45.5245 20.6723 45.6287C20.7765 45.7329 20.6723 45.8892 20.6202 45.9934ZM24.4756 55.9446C24.2151 56.153 23.9546 56.2572 23.7462 55.9446C23.4336 55.5278 23.4336 55.3194 23.7983 55.0068C24.163 54.7463 24.3193 54.7463 24.6319 55.1631C24.9445 55.4757 24.8924 55.632 24.4756 55.9446ZM25.6739 53.9127C25.6218 53.9648 25.5697 53.9127 25.4655 53.9127C25.4655 53.8085 25.4655 53.7564 25.5176 53.6522C25.5176 53.6001 25.6218 53.6522 25.7781 53.6522C25.726 53.7564 25.726 53.8606 25.6739 53.9127ZM24.3714 44.0656C24.4235 44.1698 24.4235 44.3782 24.3714 44.4303C24.3193 44.4824 24.1109 44.4824 24.0067 44.4303C23.9546 44.3782 23.9546 44.1698 23.9546 44.0135C24.1109 44.0135 24.3193 44.0135 24.3714 44.0656ZM23.5378 42.8673C23.5378 43.1278 23.5899 43.3883 23.5378 43.4925C23.3294 43.753 23.121 43.5446 23.0168 43.3362C22.9126 43.1278 22.5479 42.9194 22.8605 42.6589C22.9647 42.6068 23.2773 42.8152 23.5378 42.8673ZM21.7664 41.0438C22.1832 40.6791 22.2874 40.7312 22.7563 41.2001C23.0689 41.5648 23.0689 41.669 22.7563 41.9816C22.3395 42.3463 22.1832 42.3463 21.8185 41.9816C21.4017 41.4606 21.4017 41.3564 21.7664 41.0438ZM17.4941 42.0858C17.9109 41.8774 18.0151 41.7211 18.0151 41.2001C18.0151 40.7833 18.0151 40.4707 17.7546 40.1581C17.442 39.8455 17.5462 39.585 17.8588 39.3766C18.2235 39.1161 18.5882 38.8034 18.9529 38.4908C19.2655 38.2303 19.4218 38.2824 19.6823 38.5429C20.2034 39.1161 20.2034 39.1682 19.5781 39.5329C19.2655 39.7413 19.2134 39.9497 19.4218 40.2623C19.5781 40.4186 19.6823 40.627 19.8908 40.8354C20.0992 41.0438 20.4639 41.3043 20.6723 41.6169C20.8286 41.8253 21.037 42.1379 20.9849 42.3463C20.8807 42.6589 20.8286 42.9715 21.0891 43.1799C21.4017 43.4404 21.7664 43.7009 22.1311 43.8051C22.7563 43.9614 22.7563 43.9093 22.5479 44.5345C22.4958 44.6908 22.6 44.8992 22.7042 45.0034C22.8605 45.264 23.121 45.4724 23.2773 45.7329C23.5378 46.0455 23.6941 46.4623 24.2672 46.3581C24.3714 46.306 24.5798 46.4623 24.684 46.5665C25.3092 47.2959 25.9345 48.0253 26.5076 48.7547C26.6118 48.8589 26.5076 49.7967 26.4034 49.8488C26.3513 49.9009 26.195 49.953 26.1429 49.9009C25.9345 49.7967 25.6739 49.6925 25.5176 49.4841C24.4756 48.2858 23.4857 47.0875 22.4958 45.8371C21.8706 45.1077 21.3496 44.274 20.7244 43.5446C20.2034 42.9194 19.6302 42.3463 19.0571 41.7732C18.7966 41.5127 18.5882 41.5648 18.3798 41.8774C18.2235 42.0858 18.0672 42.3463 17.9109 42.5547C17.7546 42.7631 17.4941 42.8673 17.2857 42.6068C17.1815 42.3984 17.2857 42.19 17.4941 42.0858ZM16.5563 37.7614C16.6605 37.7614 16.7647 37.7093 16.921 37.6572C17.3378 37.553 17.5462 37.7093 17.4941 38.1261C17.4941 38.2824 17.4941 38.4387 17.442 38.595C17.3899 38.7513 17.3899 39.0119 17.2857 39.0119C17.1294 39.064 16.921 38.9598 16.7647 38.9077C16.6605 38.8556 16.5563 38.6992 16.4 38.595C16.3479 38.4908 16.2437 38.3866 16.1916 38.2303C16.0353 37.8135 16.0353 37.7614 16.5563 37.7614ZM16.2437 45.264C16.5042 45.5245 16.1916 45.6808 16.0353 45.8371C15.879 45.9934 15.6185 46.2539 15.4622 45.8892C15.4101 45.7329 15.5664 45.4724 15.6706 45.2119C15.879 45.2119 16.1395 45.1598 16.2437 45.264ZM14.316 39.1682C14.6807 38.595 14.837 38.5429 15.2538 39.1161C15.3059 39.1682 15.358 39.2724 15.4101 39.3766C15.5143 39.5329 15.6706 39.6371 15.7227 39.7934C15.7748 39.9497 15.7227 40.106 15.7227 40.3144C15.5664 40.2623 15.4101 40.2623 15.2538 40.2102C15.1496 40.1581 15.0975 39.9497 14.9412 39.8976C14.7849 39.7934 14.6286 39.7413 14.4202 39.6892C14.316 39.6371 14.1597 39.6371 14.0555 39.6371C14.2118 39.4287 14.2639 39.2724 14.316 39.1682ZM12.7008 40.9396C12.7529 40.9917 12.805 41.0959 12.9092 41.148C13.1176 41.4085 13.326 41.6169 13.0134 41.9816C12.5966 42.3463 12.4403 42.3984 12.0235 42.0337C11.8151 41.8774 11.6588 41.669 11.5025 41.4085C11.1899 40.9396 11.3462 40.5749 11.8672 40.4186C11.9714 40.3665 12.1798 40.4186 12.284 40.4707C12.3882 40.5749 12.5445 40.7312 12.7008 40.9396ZM11.7109 36.7715C11.8151 36.8236 11.8672 36.8757 11.9714 36.9278C12.4924 37.0841 12.5445 37.2404 12.1798 37.6051C11.8151 38.0219 11.3462 38.1261 11.0336 37.7093C10.7731 37.5009 10.8773 37.2404 11.0857 36.9799C11.1899 36.7194 11.3983 36.5631 11.7109 36.7715Z" fill="#FEFEFE"/>
</g>
<defs>
<clipPath id="clip0_0_1365">
<rect width="62" height="62" fill="white" transform="translate(4 4)"/>
</clipPath>
</defs>
</svg>
