<svg width="70" height="70" viewBox="0 0 70 70" fill="none" xmlns="http://www.w3.org/2000/svg">
<path d="M33.0799 22.9457C32.9059 22.8765 32.8015 22.8765 32.7319 22.9803L33.0799 22.9457Z" fill="#FEFEFE"/>
<path d="M20.866 57.2041C21.1443 57.2387 21.4227 57.2733 21.7011 57.3079C21.6663 57.2733 21.6315 57.2387 21.5619 57.2387C21.2835 57.0311 21.04 57.0311 20.866 57.2041Z" fill="#FEFEFE"/>
<path d="M36.0029 10.7994C36.0725 10.9379 36.1421 11.0763 36.0377 11.2493C35.9681 11.3877 36.0725 11.4915 36.2813 11.4915C36.6988 11.4569 36.6988 11.4915 36.6292 11.9068C36.6292 11.976 36.6292 12.0798 36.664 12.149C36.9076 12.4605 37.1164 12.7719 37.3948 13.0487C37.4644 13.1179 37.6036 13.1179 37.708 13.1179C37.9516 13.0833 38.0559 13.1871 37.9516 13.3948C37.8124 13.637 37.9516 13.7754 38.0907 13.9138C38.4039 14.2945 38.7519 14.6751 39.0651 15.0558C39.1347 15.1596 39.2391 15.2634 39.2739 15.4018C39.3087 15.471 39.2043 15.6095 39.1695 15.6095C38.7519 15.7133 38.0559 15.3326 37.882 14.8828C37.8472 14.8136 37.882 14.7097 37.882 14.6405C37.9516 14.2599 37.7776 14.0177 37.36 14.0177C37.2208 14.0177 37.0816 13.9484 36.9772 13.8792C36.664 13.5678 36.4205 13.2218 36.1421 12.9103C36.0029 12.7373 35.8289 12.5989 35.9681 12.2874C36.0725 12.0798 35.7245 11.6992 35.4809 11.7684C35.3417 11.803 35.2373 11.7684 35.133 11.6992L23.9281 22.8072C24.0673 22.8072 24.2065 22.8072 24.3109 22.8418C24.4501 22.8072 24.5893 22.7726 24.6937 22.738C24.9721 22.6688 25.0765 22.8072 25.1461 23.0148C25.2157 23.2571 25.1809 23.4301 24.9025 23.4993C24.7981 23.5339 24.6937 23.5685 24.5893 23.6031C24.3109 23.6377 24.0673 23.7761 23.8238 23.4647C23.7194 23.2917 23.267 23.4993 23.1974 23.7069C23.1278 23.8799 22.8494 24.053 22.6406 24.0876L21.3879 25.3333C21.5967 25.3679 21.7707 25.4718 21.8751 25.6102C21.9099 25.6448 21.8751 25.8178 21.8403 25.8524C21.7011 25.9562 21.5271 26.0254 21.3879 26.0946C21.1791 26.1985 20.9704 26.1985 20.9008 26.5099C20.8312 26.6829 20.2744 26.8213 20.1352 26.6483L20.1004 26.6137L18.6737 28.0325C18.7433 28.0671 18.8129 28.1017 18.8825 28.2055C19.0217 28.4477 19.1957 28.4131 19.2305 28.2055C19.3001 27.8595 19.5785 27.7557 19.8568 27.6864C20.17 27.6172 20.4832 27.5826 20.8312 27.5134C21.1443 27.4442 21.4923 27.4442 21.5619 27.029C21.5619 26.9944 21.8055 26.9251 21.8055 26.9598C21.9099 27.1328 22.0491 27.1674 22.2579 27.202C22.5362 27.2366 22.6406 27.6864 22.4319 27.8941C22.1187 28.2055 22.1187 28.2401 22.5014 28.4131C22.571 28.4477 22.6406 28.517 22.6406 28.5862C22.6406 28.6554 22.571 28.7592 22.5362 28.7592C22.3275 28.8284 22.0839 29.0014 21.8751 28.7246C21.8055 28.6554 21.6315 28.6554 21.4923 28.6554C21.1791 28.69 20.866 28.8976 20.5528 28.517C20.4484 28.3785 20.2396 28.5516 20.2396 28.7246C20.2396 28.7938 20.2396 28.8976 20.2744 28.9668C20.3788 29.2783 20.17 29.3475 19.9264 29.4167C19.648 29.4859 19.5437 29.3475 19.5089 29.1052C19.5089 29.036 19.4741 28.9668 19.4393 28.9322C19.3697 28.863 19.3001 28.7938 19.2305 28.7246C19.1957 28.8284 19.0913 28.8976 19.0913 29.0014C19.0913 29.209 18.9869 29.3129 18.8129 29.3475C18.5345 29.3821 18.2213 29.4513 17.943 29.4859C17.9778 29.5205 18.0126 29.5897 18.0474 29.6243C18.117 29.7281 18.1866 29.8319 18.2909 29.9011C18.6737 30.1434 18.5693 30.4548 18.4997 30.7662C18.6389 30.6624 18.8477 30.6278 19.0565 30.7662C19.1609 30.8355 19.2653 30.8701 19.4045 30.9393C19.4741 30.9739 19.5089 31.0085 19.5785 31.0431C19.5437 31.0777 19.5089 31.1469 19.4741 31.1815C19.2653 31.2853 19.0565 31.3545 18.8477 31.4583C18.7433 31.5275 18.6041 31.5968 18.4997 31.7006C18.4301 31.7698 18.3605 31.8736 18.2909 31.9428C18.2213 31.839 18.117 31.7352 17.9778 31.5968C18.0474 31.4583 18.117 31.3199 18.1866 31.2161C18.2213 31.1815 18.2561 31.1123 18.2909 31.0777C18.2561 31.0777 18.2561 31.0777 18.2561 31.0777C17.9778 30.9739 17.769 31.1123 17.5254 31.1815C17.4906 31.2161 17.3862 31.1815 17.3514 31.1469C17.3166 31.1123 17.3514 31.0431 17.3514 30.9739C17.3514 30.9393 17.3862 30.9047 17.3862 30.8701C17.6298 30.3856 17.6298 30.2472 17.1774 29.9011C17.1426 29.8665 17.073 29.8319 17.073 29.7973L16.8294 30.0396C16.8294 30.2126 16.7599 30.2818 16.5511 30.3164L14.846 31.839C14.8808 31.839 14.9156 31.8044 14.9504 31.8044C15.5071 31.666 15.5767 31.666 15.6463 32.0812C15.6811 32.2542 15.7855 32.4619 15.5419 32.5311C15.4027 32.5657 15.194 32.7041 15.0548 32.6003C15.02 32.6349 14.9504 32.6695 14.9156 32.7041C14.846 32.7387 14.7068 32.6695 14.6372 32.6003C14.5676 32.4965 14.4632 32.4273 14.3936 32.3235L9.17399 37.5141C9.41757 37.5487 9.62636 37.6872 9.86994 37.791C9.93953 37.8256 9.97433 37.9294 10.0091 37.9986C10.0787 38.2062 10.1483 38.4138 10.2179 38.6215C10.2875 38.7945 10.2527 38.9329 10.0439 38.9675C9.93953 38.9675 9.83514 38.8637 9.76555 38.7945C9.66115 38.6561 9.59156 38.4485 9.52196 38.2754C9.38277 38.4138 9.27838 38.5523 9.13919 38.6907C9.10439 38.7253 9.0348 38.7599 9 38.8291L11.1574 40.9746C11.2966 40.8362 11.4358 40.8016 11.6794 41.0092C11.8186 41.113 12.271 40.8708 12.271 40.6631C12.3058 40.4209 12.445 40.3517 12.6189 40.3517C12.9669 40.3171 13.3497 40.1441 13.6629 40.4901C13.8021 40.6285 14.1848 40.4555 14.2196 40.2133C14.2544 39.9711 14.3936 39.8672 14.6024 39.8326C15.3332 39.7288 16.0639 39.625 16.7946 39.3136C17.2122 39.1405 17.4906 39.3136 17.5602 39.7634C17.5602 39.8672 17.5254 39.9711 17.4558 40.0403C17.421 40.1095 17.3166 40.1787 17.2818 40.2479C17.2818 40.4901 17.1078 40.4901 16.9686 40.5247C16.6207 40.5939 16.3075 40.6978 15.9595 40.767C15.6463 40.8362 15.368 40.9054 15.0548 41.0092C14.8112 41.0784 14.6024 41.1822 14.4284 40.9054C14.2892 40.7324 13.8369 40.9054 13.7673 41.1476C13.7325 41.3552 13.6281 41.4244 13.4541 41.459C13.1757 41.5283 12.9321 41.5975 12.6537 41.6667C12.4102 41.7359 12.2014 41.8397 11.9926 41.5629C11.9578 41.4937 11.7838 41.4937 11.6794 41.5283L12.7581 42.601C12.8277 42.428 12.8625 42.2896 12.9321 42.1511C13.0365 42.255 13.1409 42.3588 13.2105 42.4626C13.2801 42.601 13.3149 42.774 13.1061 42.8086C13.0365 42.8086 12.9669 42.774 12.8973 42.7394L13.0017 42.8432C12.7929 43.2931 12.6189 43.7776 12.4798 44.262C12.5493 44.2274 12.6537 44.2274 12.7233 44.1928C13.1061 44.089 13.1409 44.089 13.2801 44.435C13.3497 44.6081 13.4889 44.7119 13.6629 44.7811C13.7325 44.8157 13.7325 44.9195 13.7673 45.0233C13.6977 45.0579 13.5585 45.1271 13.5237 45.0925C13.2453 44.8157 12.9321 44.9887 12.6537 45.0925C12.5146 45.1271 12.3754 45.1271 12.271 45.1271C11.749 47.8609 12.3406 50.7331 14.0108 53.0862H14.0456C14.3936 53.017 14.5328 53.0862 14.6372 53.3976C14.672 53.6052 14.672 53.6744 14.5328 53.7437C14.7068 53.9513 14.9156 54.1589 15.1244 54.3665C16.4815 55.7161 18.0822 56.5812 19.7872 57.0311C19.9264 56.9619 20.0656 56.8581 20.2048 56.685C20.4136 56.339 20.6224 55.9929 20.8312 55.6815C20.9008 55.5431 21.1791 55.5085 21.3531 55.5085C21.4227 55.5085 21.5271 55.7161 21.5967 55.8199C21.6663 55.9237 21.6663 56.0622 21.7359 56.0968C21.8403 56.166 21.9795 56.2352 22.1187 56.2698C22.1187 56.2352 22.1535 56.166 22.2231 56.0968C22.3275 55.993 22.4319 56.0276 22.5014 56.0622C22.5014 55.7507 22.6058 55.5085 22.7102 55.2317C22.745 55.1624 22.8494 55.024 22.9538 55.024C23.0234 55.024 23.1626 55.1278 23.1626 55.2317C23.2322 55.4393 23.3714 55.6815 23.0234 55.7853C22.8494 55.8545 22.8842 56.0276 22.9538 56.166C23.093 56.4082 23.0582 56.5466 22.8494 56.6158C22.8842 56.7196 22.919 56.8581 22.9886 56.9619C22.8146 56.8927 22.6406 56.8235 22.5014 56.7542C22.3971 56.8581 22.3623 56.9619 22.4319 57.2041C22.4319 57.2387 22.4666 57.2733 22.4666 57.3079C23.0234 57.3079 23.5802 57.2733 24.1369 57.1695C24.1369 57.1695 24.1369 57.1349 24.1717 57.1349C24.5545 56.8927 24.3457 56.5812 24.2761 56.2698C24.2065 55.9237 24.3109 55.7853 24.6589 55.7853C24.7285 55.7853 24.8329 55.9237 24.7981 55.9583C24.6241 56.3044 24.7633 56.6504 24.8677 56.9965V57.0311C25.494 56.8927 26.1204 56.685 26.712 56.4082L27.1295 56.8235C27.1991 56.7889 27.3383 56.7889 27.4427 56.7889C27.4427 56.8927 27.4079 56.9619 27.4079 57.0657L28.1386 57.7924C28.243 57.7924 28.3126 57.827 28.3474 57.8616C28.4866 57.9654 28.591 58.0692 28.7998 58.0692C28.8694 58.0692 28.9738 58.2076 28.9738 58.2768C28.9738 58.3461 28.9042 58.4845 28.8346 58.4845L28.939 58.5883C28.939 58.5883 28.9738 58.5883 28.9738 58.5537C29.0086 58.5191 29.0434 58.4845 29.0782 58.4499C29.1826 58.4153 29.3566 58.3807 29.4262 58.4153C29.5653 58.5191 29.461 58.6575 29.3566 58.7267C29.3218 58.7613 29.287 58.7959 29.2174 58.8305L31.3052 60.9068L35.0286 57.2041C34.8894 57.0657 34.8894 56.9273 34.959 56.7196C35.0634 56.4774 34.6806 56.0622 34.4022 56.0968C34.0194 56.2006 33.9498 55.8891 33.7759 55.7161C33.6019 55.5431 33.3583 55.4047 33.6019 55.0932C33.6367 55.024 33.5323 54.8856 33.5671 54.8164C33.6019 54.7126 33.7063 54.5742 33.7759 54.6088C33.915 54.6434 34.0194 54.678 34.1586 54.678L34.1934 54.6434C34.2282 54.6434 34.263 54.678 34.3326 54.7126C34.5414 54.7472 34.7502 54.851 34.8894 55.0586C35.0286 55.2663 35.1678 55.4047 35.0286 55.6815C34.8894 55.8891 34.9938 56.0276 35.2721 55.9583C35.4809 55.9237 35.5853 55.993 35.6897 56.1314C35.6897 56.1314 35.6897 56.1314 35.7245 56.166V56.1314C35.7245 56.0622 35.7941 55.993 35.8289 55.8891C35.8985 55.9237 35.9681 55.9929 36.0029 56.0276C36.0377 56.0622 36.0377 56.1314 36.0725 56.2352L40.2482 52.0826C40.2134 52.0826 40.2134 52.048 40.2134 52.0134C40.1438 51.8058 40.3526 51.8058 40.4918 51.7712C40.5266 51.7712 40.5614 51.7366 40.5962 51.7366L42.3708 49.9718C42.3013 50.0064 42.2317 50.0064 42.1969 49.9718C42.0229 49.9026 42.0925 49.7641 42.1273 49.5911C42.1621 49.2451 42.1969 48.9682 42.51 48.7606C42.5448 48.7606 42.5448 48.726 42.5448 48.6914C42.4752 48.726 42.4404 48.726 42.3708 48.7606C42.3013 48.7606 42.2317 48.8298 42.1273 48.8298C42.0577 48.8298 41.9185 48.7952 41.8837 48.726C41.8489 48.6568 41.8489 48.553 41.8837 48.4492C41.9533 48.3107 42.0229 48.1723 42.1273 48.0685C42.1969 47.9993 42.3013 47.9301 42.3708 47.8955C42.4404 47.8955 42.4752 47.8955 42.5448 47.8609C42.5796 47.7917 42.6144 47.6879 42.684 47.6533C42.7188 47.6187 42.8928 47.6533 42.9276 47.7225C42.9624 47.7571 42.9972 47.7917 43.032 47.8263C43.2408 47.8263 43.3104 47.9301 43.3452 48.1723C43.3452 48.1723 43.3452 48.1723 43.3452 48.2069C43.5192 48.38 43.6584 48.5184 43.6931 48.6568L44.0411 48.3107C43.8671 48.2761 43.7975 48.1723 43.6931 47.9301C43.6236 47.7225 43.6584 47.584 43.8671 47.5148C43.9019 47.4802 43.9715 47.4802 44.0063 47.4802C44.0063 47.3764 44.0063 47.3072 44.0411 47.2034C44.0759 47.0996 44.0759 46.9266 44.1803 46.892C44.2499 46.8574 44.4239 46.9266 44.5283 46.9958C44.5979 47.0304 44.6675 47.1342 44.7371 47.2034C44.7719 47.238 44.7719 47.2726 44.8067 47.3072C44.9459 47.2726 45.0503 47.238 45.1894 47.2034L45.8158 46.5805C45.607 46.5459 45.2938 46.0961 45.3634 45.8884C45.3982 45.7846 45.3982 45.6808 45.433 45.577C45.4678 45.4732 45.4678 45.3694 45.5374 45.3348C45.607 45.3002 45.7114 45.3694 45.781 45.404C45.8854 45.4732 45.955 45.5424 45.9898 45.6116C46.1638 45.8192 46.2682 46.0268 46.2334 46.1653L56.1507 36.303C56.1159 36.2684 56.0811 36.2684 56.0463 36.2338C55.8723 36.1299 55.4895 36.0607 55.4895 35.9915C55.4895 35.7493 55.4199 35.5417 55.2807 35.334C55.1415 35.1264 54.9676 34.9188 54.8284 34.6766C54.7588 34.5727 54.6544 34.4343 54.6892 34.3651C54.898 34.0537 54.6196 33.8807 54.4804 33.673C54.4108 33.5692 54.376 33.3962 54.4456 33.327C54.5848 33.154 54.724 33.327 54.8284 33.4308C55.0023 33.6038 55.1415 33.8461 55.4547 33.7076C55.4895 33.673 55.5939 33.7768 55.6635 33.8114C55.9767 34.1921 56.2899 34.5727 56.603 34.9534C56.6378 34.988 56.6726 35.0572 56.6378 35.0918C56.5334 35.334 56.603 35.5071 56.7422 35.6801L57.9601 34.4689C57.9253 34.4343 57.8905 34.3997 57.821 34.3305C57.5426 34.0537 57.299 33.7422 57.0554 33.4308C56.777 33.0848 56.4639 32.7387 56.1855 32.3927C56.0463 32.2196 56.0115 32.0812 56.2203 31.9082C56.4638 31.666 56.603 31.6314 56.8118 31.9428C56.9858 32.185 57.3686 32.3581 57.1598 32.7733C57.0902 32.9117 57.2294 33.0501 57.4034 32.9809C57.647 32.8771 57.7862 33.0155 57.8905 33.1886C58.0645 33.3962 58.2385 33.6384 58.4473 33.8461C58.4821 33.8807 58.4821 33.9153 58.5169 33.9153L60.7787 31.666L56.2203 27.1328C56.4986 26.5099 56.7074 25.8524 56.8466 25.1949C56.7422 25.2641 56.6378 25.1257 56.5334 25.0565C56.3247 24.8143 56.1159 24.5374 55.9071 24.2952C55.8723 24.226 55.8723 24.1222 55.8375 24.0184C55.9419 24.0184 56.0463 23.9838 56.1159 23.9838C56.2203 23.9838 56.3247 24.053 56.3943 24.053C56.7074 23.9838 56.777 24.0876 56.7074 24.399C56.6726 24.5374 56.8118 24.6759 56.8466 24.8489C56.8466 24.8835 56.8814 24.9527 56.8814 25.0219C57.5426 21.7345 56.603 18.2048 54.0628 15.6441C50.931 12.5297 46.303 11.803 42.4752 13.4986L37.8124 9L36.0029 10.7994ZM21.3531 27.3404C21.2835 27.4096 21.1791 27.375 20.9704 27.4096C21.04 27.2366 21.0399 27.0982 21.1095 27.029C21.1791 26.9944 21.3183 27.029 21.4227 27.029C21.3531 27.1328 21.3879 27.2712 21.3531 27.3404ZM11.0879 38.6907C10.6007 38.8291 10.4267 38.6907 10.4615 38.2062C10.4963 37.9986 10.5659 37.791 10.6703 37.5833C10.7747 37.4103 11.0531 37.4103 11.1227 37.6179C11.1922 37.7218 11.1922 37.8602 11.227 37.9986C11.2618 38.1024 11.2618 38.2408 11.2966 38.3792C11.3662 38.5523 11.2966 38.6215 11.0879 38.6907ZM34.0542 56.5812C34.1238 56.6158 34.1934 56.6158 34.263 56.6504C34.3674 56.7196 34.4718 56.7889 34.5414 56.8581C34.5414 57.1349 34.6458 57.3425 34.3326 57.4463C33.9846 57.5502 33.8802 57.5155 33.7063 57.2041C33.6367 57.0657 33.6367 56.9273 33.6367 56.7889C33.6715 56.3736 33.7063 56.3736 34.0542 56.5812ZM57.7862 31.7006C57.821 31.666 57.9253 31.7006 57.9949 31.7006C57.9949 31.7698 57.9949 31.8736 57.9601 31.9428C57.9253 31.9774 57.821 31.9428 57.7166 31.9428C57.7514 31.839 57.7514 31.7352 57.7862 31.7006ZM37.6384 21.596C37.6732 21.5614 37.708 21.5614 37.7776 21.5614C37.7428 21.423 37.6384 21.2154 37.882 21.1462C38.3691 21.0078 38.8911 20.8694 39.3783 20.7309C39.4826 20.6963 39.587 20.7655 39.6914 20.8001C39.6218 20.8694 39.5522 21.0078 39.4479 21.0424C39.3435 21.1116 39.2043 21.1462 39.0999 21.1808C38.6823 21.2846 38.2299 21.423 37.8124 21.5268C37.8124 21.5614 37.8472 21.6307 37.8124 21.6653C37.7428 21.7345 37.6732 21.8037 37.6036 21.8383L37.4992 21.7691C37.534 21.7345 37.5688 21.6653 37.6384 21.596ZM40.5266 22.738C40.4918 22.8072 40.4918 22.8418 40.457 22.911C40.3874 22.8764 40.283 22.8764 40.283 22.8072C40.2482 22.7726 40.3178 22.6688 40.3178 22.6688C40.3874 22.6688 40.457 22.7034 40.5266 22.738ZM40.4918 21.077C40.631 20.9732 40.7006 20.8694 40.7702 20.8347C40.8398 20.8347 40.9093 20.904 41.0137 20.9386C40.9441 21.0078 40.9093 21.1116 40.8398 21.1808C40.7702 21.1808 40.6658 21.1116 40.4918 21.077ZM40.7354 30.178C40.7702 30.2126 40.7702 30.3164 40.7354 30.351C40.5266 30.5932 40.283 30.8355 40.0742 31.0777C39.935 31.0431 39.8306 31.0085 39.761 30.9739C39.6218 30.9047 39.4826 30.8009 39.3435 30.697C39.2043 30.5932 39.2043 30.4548 39.3783 30.351C39.6218 30.2472 39.935 30.2472 39.9698 29.8665C39.9698 29.8319 40.0742 29.7973 40.0742 29.7973C40.283 29.9011 40.5266 30.0396 40.7354 30.178ZM39.0651 23.7069C38.8215 23.8453 38.7519 23.7761 38.6475 23.3263C38.6475 23.2917 38.6127 23.2225 38.6127 23.1533C38.6127 23.084 38.6823 22.9802 38.7171 22.9802C38.7867 22.9456 38.8911 22.9802 38.9259 23.0148C38.9955 23.084 39.0303 23.1879 39.0999 23.2225C39.1695 23.2917 39.2739 23.3609 39.3783 23.4301C39.2739 23.5339 39.1695 23.6723 39.0651 23.7069ZM39.4826 25.7832C39.5174 25.7832 39.587 25.8524 39.6218 25.887C39.587 25.9216 39.5174 25.9908 39.4479 26.0254C39.4131 26.0254 39.3435 25.9908 39.2391 25.9216C39.3783 25.8524 39.4131 25.8178 39.4826 25.7832ZM38.4735 26.1985C38.4387 26.2331 38.4039 26.3369 38.3691 26.3369C38.2995 26.3369 38.2299 26.3023 38.0907 26.3023C38.1951 26.1985 38.2299 26.1292 38.2995 26.1292C38.3691 26.06 38.4039 26.1292 38.4735 26.1985ZM37.4644 30.4202C37.6036 30.3856 37.6732 30.3856 37.7428 30.351C38.1603 30.0742 38.4039 30.4548 38.6823 30.5932C38.7171 30.5932 38.7171 30.8355 38.6823 30.8701C38.5779 30.9739 38.4387 31.0431 38.2995 31.0777C37.8124 31.1815 37.36 31.2507 36.8728 31.3545C36.7684 31.3545 36.664 31.3199 36.5597 31.3199C36.5944 31.2507 36.664 31.1469 36.6988 31.0777L36.7336 31.0431C36.7336 30.4548 37.186 30.4894 37.4644 30.4202ZM38.0907 31.9774C37.882 31.9774 37.6732 32.012 37.6036 31.9428C37.4296 31.7698 37.6384 31.666 37.7776 31.5622C37.882 31.4583 38.0559 31.2853 38.1951 31.4929C38.2299 31.5968 38.1255 31.7698 38.0907 31.9774ZM38.1951 33.3616C38.1603 33.4308 38.1603 33.5 38.1255 33.5C38.0559 33.5346 37.9864 33.5 37.882 33.4654C37.9516 33.3616 37.9864 33.2924 38.0212 33.2924C38.0559 33.2924 38.1255 33.327 38.1951 33.3616ZM36.3857 26.3715C36.4553 26.2677 36.4901 26.06 36.664 26.1292C36.7684 26.1638 36.838 26.3369 36.9424 26.5099C36.8728 26.6137 36.838 26.8213 36.7336 26.8213C36.5597 26.8559 36.3509 26.7867 36.1421 26.7521C36.1421 26.7521 36.1421 26.6137 36.1769 26.5445C36.2465 26.4753 36.3509 26.4407 36.3857 26.3715ZM36.3857 23.9838C36.5597 23.8799 36.7684 23.8453 36.9772 23.8453C37.1512 23.8453 37.2556 24.399 37.1164 24.6066C37.0468 24.7451 36.9772 24.8835 36.9076 24.9873C36.8728 25.0565 36.8032 25.1257 36.7336 25.1257C36.664 25.1257 36.5944 25.0565 36.5597 24.9873C36.4901 24.8489 36.4901 24.7105 36.4553 24.572C36.4553 24.5028 36.4205 24.4336 36.4205 24.399C36.3509 24.2606 36.3161 24.0184 36.3857 23.9838ZM36.3509 20.2811C36.5597 19.7966 36.5597 19.7966 36.9076 19.7274C36.9424 19.7274 37.0468 19.6928 37.1512 19.6928C37.2208 19.6928 37.2904 19.7966 37.2904 19.8312C37.2904 20.1081 36.838 20.5579 36.5249 20.5579C36.3161 20.5579 36.2465 20.4541 36.3509 20.2811ZM35.9681 22.0459C36.0029 22.0113 36.0725 22.0113 36.1421 21.9767C36.2117 21.9767 36.2813 21.9421 36.3857 21.9421C36.4205 21.9421 36.4901 21.9421 36.5249 21.9767C36.5597 22.0113 36.5945 22.1497 36.5945 22.1497C36.4205 22.2535 36.2465 22.3227 36.0377 22.392C36.0029 22.392 35.8637 22.3227 35.8637 22.2881C35.8637 22.1843 35.8985 22.0805 35.9681 22.0459ZM35.0286 15.2288C35.0634 15.2634 35.133 15.2634 35.133 15.298C35.1678 15.3326 35.133 15.4018 35.133 15.471C35.0634 15.4364 35.0286 15.4018 35.0286 15.3672C34.9938 15.3326 35.0286 15.2634 35.0286 15.2288ZM33.8106 15.3672C33.8454 15.3326 34.0542 15.4364 34.089 15.5057C34.1934 15.7133 34.0194 15.7825 33.8106 15.8517C33.6715 15.8171 33.4279 15.7825 33.4279 15.7133C33.3583 15.471 33.6715 15.471 33.8106 15.3672ZM34.089 17.2013C34.0542 17.2359 34.0542 17.3397 34.0194 17.3397C33.9498 17.3743 33.8802 17.3397 33.7759 17.3397C33.8454 17.2359 33.8802 17.1667 33.915 17.1667C33.9498 17.1667 34.0194 17.2013 34.089 17.2013ZM33.4627 18.3432C33.5323 18.3432 33.5671 18.3086 33.6367 18.3086C33.8106 18.3086 33.9846 18.3086 34.1586 18.3432C34.2282 18.3432 34.2978 18.447 34.3674 18.5162C34.2978 18.5855 34.2282 18.6893 34.1934 18.6893C33.9846 18.6893 33.7759 18.6547 33.5671 18.6201C33.5323 18.6201 33.4627 18.5162 33.4627 18.4816C33.3931 18.447 33.4627 18.4124 33.4627 18.3432ZM34.089 21.1462C34.0194 21.1116 33.9846 21.1116 33.7759 21.0078C33.8802 20.9386 33.915 20.8694 33.9846 20.8694C34.0542 20.8694 34.1238 20.9386 34.1586 20.9732C34.1586 21.0078 34.1238 21.077 34.089 21.1462ZM33.0103 21.2846C33.0103 21.3538 32.9407 21.4576 32.8711 21.4576C32.8015 21.4576 32.7319 21.3884 32.5927 21.3538C32.6971 21.25 32.7319 21.1462 32.8015 21.1462C32.9059 21.1462 33.0103 21.2154 33.0103 21.2846ZM32.8363 17.8242C32.8711 17.8242 32.9755 17.8934 32.9755 17.8934C32.9755 17.9626 32.9407 18.0318 32.9059 18.101C32.8363 18.0664 32.8015 18.0664 32.5927 17.9626C32.6971 17.928 32.7667 17.8588 32.8363 17.8242ZM31.4792 21.1116C31.5488 21.1116 31.6184 21.1116 31.688 21.1462C31.8272 21.1808 31.9316 21.25 32.036 21.3192C32.1056 21.3538 32.1752 21.423 32.2448 21.4576C32.1752 21.5268 32.1404 21.6307 32.0708 21.6653C32.0012 21.7345 31.8968 21.7345 31.7228 21.8037C31.6532 21.7691 31.4792 21.7691 31.4792 21.6999C31.4444 21.5268 31.4792 21.3192 31.4792 21.1116ZM32.2448 21.8037C32.1752 21.9075 32.1752 22.0113 32.1056 22.0459C32.0708 22.0805 32.0012 22.0459 31.9316 22.0113C31.9664 21.9421 31.9664 21.8729 32.0012 21.8037C32.036 21.8037 32.1056 21.8037 32.2448 21.8037ZM29.3566 21.2154C29.461 21.25 29.5306 21.25 29.6001 21.25C29.5653 21.3192 29.5653 21.423 29.5306 21.4576C29.4958 21.4922 29.3566 21.4922 29.3566 21.4576C29.3218 21.423 29.3566 21.3192 29.3566 21.2154ZM29.287 22.0113C29.3566 22.0113 29.4958 22.0805 29.4958 22.1497C29.5306 22.2189 29.461 22.3573 29.3914 22.3573C29.113 22.4266 28.7998 22.4958 28.4866 22.565C28.4518 22.565 28.3126 22.4958 28.3126 22.4266C28.3126 22.3573 28.3474 22.2189 28.417 22.1843C28.5562 22.1151 28.6954 22.1151 28.8346 22.0805C29.0086 22.0459 29.1478 22.0113 29.287 22.0113ZM28.3822 18.5508C28.417 18.5508 28.4866 18.6201 28.4866 18.6547C28.4866 18.6547 28.4518 18.7585 28.417 18.7585C28.3822 18.7585 28.3126 18.7239 28.2082 18.6893C28.3126 18.6201 28.3474 18.5508 28.3822 18.5508ZM27.9299 19.6236C27.9647 19.589 28.243 19.6236 28.243 19.6928C28.2778 19.7966 28.2082 19.935 28.1734 20.1081C27.9647 20.1081 27.8255 20.1081 27.6515 20.1081C27.7559 19.935 27.8255 19.762 27.9299 19.6236ZM27.1991 22.1497C27.4427 22.0459 27.4427 22.3227 27.5123 22.4612C27.5471 22.6342 27.6167 22.8418 27.3731 22.911C27.1991 22.9456 27.0599 22.8764 27.0599 22.7034C27.0599 22.4958 26.9207 22.2189 27.1991 22.1497ZM25.0417 22.2535C25.0069 22.2189 25.0417 22.1497 25.0765 22.1151C25.1809 21.9767 25.9464 22.0113 25.9464 22.1843C25.9464 22.3227 25.8768 22.4612 25.8072 22.5996C25.6332 22.6342 25.4592 22.738 25.3896 22.7034C25.2505 22.5996 25.1461 22.4266 25.0417 22.2535ZM22.5362 24.4336C22.5014 24.4336 22.5362 24.3644 22.5362 24.2606C22.6058 24.2952 22.6754 24.2952 22.7102 24.3298C22.745 24.3298 22.7102 24.4336 22.7102 24.4336C22.6406 24.4336 22.6058 24.4336 22.5362 24.4336ZM22.6754 32.5311C22.7798 32.5311 22.8842 32.6695 23.0234 32.7733C22.9538 32.9463 22.9538 33.154 22.8842 33.154C22.6406 33.2232 22.6406 32.9809 22.571 32.8425C22.5362 32.7387 22.4666 32.5311 22.6754 32.5311ZM22.9538 26.9944C23.0234 27.0636 23.0582 27.0982 23.093 27.1328C23.093 27.1674 23.0582 27.202 23.0234 27.2366C22.9886 27.202 22.919 27.1674 22.8842 27.1328C22.8842 27.1328 22.919 27.0636 22.9538 26.9944ZM22.919 26.9251C22.919 26.8213 22.919 26.7521 22.9538 26.6483C22.9538 26.6137 23.0234 26.5791 23.0582 26.5445C23.1278 26.5099 23.1974 26.4407 23.267 26.4061C23.3018 26.3715 23.3714 26.4061 23.441 26.4061C23.441 26.4753 23.441 26.5445 23.4062 26.5791C23.3366 26.6829 23.3018 26.7867 23.1974 26.8559C23.1626 26.9251 23.0234 26.9251 22.919 26.9251ZM23.5802 29.6243C23.6846 29.6243 23.789 29.5897 23.8933 29.5897C24.2413 29.5205 24.3457 29.6243 24.3109 30.0049C24.2761 30.2126 24.2761 30.3164 23.9977 30.2126C23.789 30.1088 23.5106 30.178 23.2322 30.178C23.1278 30.178 23.0234 30.2126 22.9538 30.2126C22.8842 30.2126 22.8146 30.1434 22.745 30.1088C22.7798 30.0742 22.7798 29.9703 22.8494 29.9703C23.0582 29.8319 23.3366 29.7281 23.5802 29.6243ZM25.4592 26.6483C25.2505 26.9251 25.3896 27.202 25.4244 27.4788C25.4592 27.6518 25.4592 27.9287 25.3896 27.9633C25.2157 28.0671 24.9373 28.1363 24.7285 28.0671C24.3805 27.9287 24.0673 27.7557 23.789 27.5134C23.6498 27.375 23.615 27.0982 23.5802 26.8905C23.5802 26.8213 23.7542 26.7175 23.8933 26.6483C24.1021 26.5791 24.3109 26.5445 24.5197 26.4753C24.5197 26.4753 24.5197 26.4753 24.5197 26.5099C24.7285 26.4407 24.9721 26.3715 25.1809 26.3369C25.4244 26.3023 25.5984 26.4753 25.4592 26.6483ZM25.668 28.0325C25.8768 27.8249 26.016 27.9633 26.1552 28.1363C26.4336 28.4823 26.4336 28.5516 26.1552 28.7938C26.016 28.863 25.8768 29.1398 25.6332 28.863C25.3896 28.5862 25.4244 28.2747 25.668 28.0325ZM24.0325 30.4894C23.9629 30.524 23.8933 30.524 23.789 30.524C23.8238 30.4202 23.8238 30.351 23.8238 30.2818C23.8933 30.3164 23.9629 30.3164 24.0325 30.351C24.0673 30.351 24.0673 30.4894 24.0325 30.4894ZM22.0839 30.0742C22.1187 30.0396 22.2927 30.1434 22.2927 30.2126C22.2927 30.2818 22.2579 30.4202 22.1883 30.4894C22.1187 30.524 22.0143 30.4202 21.8403 30.3856C21.9447 30.2126 21.9795 30.1088 22.0839 30.0742ZM21.1791 34.5381C21.2487 34.5727 21.3183 34.7112 21.4227 34.8496C21.3879 34.988 21.3183 35.1264 21.2487 35.2302C21.2139 35.334 21.1443 35.4033 21.1095 35.5071C20.9704 35.8531 20.6224 35.9569 20.2744 35.7493C20.17 35.6801 19.996 35.6109 19.8916 35.6109C19.6133 35.6109 19.4741 35.4725 19.4045 35.2302C19.3697 35.1264 19.4045 34.9534 19.4393 34.9188C19.5437 34.8842 19.7176 34.8496 19.7872 34.9188C19.996 35.161 20.1352 35.1956 20.2396 34.8496C20.2396 34.6766 20.9704 34.4343 21.1791 34.5381ZM18.9521 38.0678C18.7085 38.1024 18.6041 38.0332 18.7085 37.7564C18.7433 37.6525 18.7085 37.5487 18.7085 37.4449C18.7085 37.3757 18.7085 37.3065 18.7433 37.2027C18.8477 37.2027 18.8825 37.1681 18.9521 37.1681C19.0913 37.1681 19.2305 37.2027 19.3697 37.2373C19.5785 37.2373 19.6828 37.3411 19.5437 37.5141C19.4045 37.7218 19.5437 37.8602 19.648 37.9986C19.7524 38.137 19.8916 38.2754 19.996 38.4138C20.0308 38.4831 20.0308 38.5869 19.996 38.6907C19.996 38.7253 19.8568 38.7253 19.7872 38.7253C19.7176 38.7253 19.648 38.6561 19.5437 38.6561C19.1609 38.6215 19.1609 38.6215 19.2305 38.31C19.3001 38.0678 19.1609 38.0332 18.9521 38.0678ZM20.1352 30.4894C20.344 30.5586 20.4832 30.5932 20.6224 30.6278C20.4484 30.7316 20.3092 30.8701 20.1352 30.9739C20.1004 31.0085 19.8916 30.8355 19.9264 30.8009C19.9612 30.697 20.0656 30.5932 20.1352 30.4894ZM19.7524 33.3616C19.7524 33.1886 19.7524 32.9809 19.7524 32.8079C19.7524 32.6003 19.822 32.4965 20.0308 32.5311C20.2744 32.5657 20.6224 32.3927 20.7268 32.7387C21.0052 33.0501 21.0052 33.0848 20.7616 33.327C20.4832 33.5692 20.2396 33.7768 19.9612 33.9845C19.8916 34.0191 19.7524 34.0191 19.648 34.0191C19.648 33.9845 19.648 33.9499 19.648 33.9499C19.5785 33.9845 19.4741 34.0191 19.3349 34.0537C19.3001 34.0537 19.1957 34.0191 19.0565 33.9499C18.9521 33.9153 18.8825 33.8461 18.7781 33.8114C18.5345 33.7422 18.5693 33.6384 18.7433 33.5346C18.7781 33.5 18.8129 33.5 18.8477 33.4654C18.9521 33.327 19.3001 33.2578 19.4741 33.2578C19.6133 33.1886 19.6828 33.2578 19.7524 33.3616ZM18.7433 31.7698C19.0565 31.4929 19.1609 31.4929 19.4045 31.8044C19.5785 32.012 19.5437 32.1504 19.3697 32.2888C19.0913 32.4965 18.8129 32.4619 18.6041 32.185C18.4301 31.9428 18.6389 31.8736 18.7433 31.7698ZM18.2909 35.2302C18.3257 35.1956 18.4301 35.2302 18.4997 35.2648C18.6389 35.334 18.7433 35.4033 18.8477 35.4725C19.0217 35.5763 19.2305 36.0953 19.0565 36.2338C18.8477 36.4068 18.8825 36.6144 18.8825 36.822C18.8825 36.9259 18.8129 37.0297 18.7781 37.0989C18.7085 37.0297 18.5693 36.9605 18.5345 36.8566C18.4301 36.6144 18.3953 36.3722 18.3257 36.0953C18.2561 35.8531 18.1866 35.6455 18.1518 35.4033C18.1866 35.3687 18.2213 35.2648 18.2909 35.2302ZM16.3075 32.3235C16.3771 32.2888 16.3771 32.1158 16.3771 32.012C16.3771 31.9082 16.3423 31.839 16.3423 31.7352C16.3075 31.5622 16.3771 31.4237 16.5511 31.4237C16.6555 31.4237 16.7599 31.5622 16.899 31.666C16.8294 31.9082 16.7251 32.1158 16.6903 32.3235C16.6555 32.4965 16.6555 32.7041 16.6207 32.8771C16.6207 32.9463 16.5859 32.9809 16.5511 33.0501C16.4815 33.0155 16.3771 33.0155 16.3771 32.9463C16.2379 32.7733 16.0291 32.5657 16.3075 32.3235ZM13.8021 34.815C13.8369 34.7458 13.9413 34.6074 14.0108 34.6074C14.2892 34.6074 14.2544 34.8842 14.324 35.0226C14.3588 35.0918 14.324 35.2994 14.2544 35.334C14.0804 35.4725 13.9413 35.3687 13.8369 35.0226C13.8021 34.988 13.7673 34.8842 13.8021 34.815ZM12.4102 35.5417C12.4102 35.5071 12.4798 35.5417 12.5841 35.5417C12.5493 35.6109 12.5493 35.6801 12.5146 35.7147C12.4798 35.7493 12.445 35.7147 12.3754 35.7147C12.4102 35.6455 12.4102 35.5763 12.4102 35.5417ZM14.7068 38.8291C14.6372 38.8637 14.5676 38.8291 14.4632 38.8291C14.4632 38.7253 14.498 38.6907 14.498 38.6215C14.5676 38.6215 14.6372 38.6215 14.7068 38.6561C14.7068 38.6907 14.7068 38.8291 14.7068 38.8291ZM16.7251 38.9329C16.6207 38.9329 16.5163 38.7945 16.4119 38.7253C16.4815 38.5177 16.2727 38.2408 16.5511 38.1716C16.7947 38.137 16.7946 38.4485 16.8642 38.5869C16.9338 38.7599 16.9338 38.9329 16.7251 38.9329ZM17.4558 37.1335C17.2818 37.1681 17.1426 37.2027 16.9686 37.2373C16.7946 37.2719 16.5859 37.3065 16.5511 37.5833C16.5163 37.7564 16.3771 37.791 16.2379 37.6872C15.8899 37.4449 15.6463 37.5141 15.4723 37.8948C15.3332 38.2062 14.846 38.2408 14.6024 37.9986C14.4284 37.8256 14.1848 37.7564 13.9413 37.6525C13.9065 37.6525 13.7673 37.7218 13.7673 37.7564C13.7325 38.0678 13.4889 38.0678 13.2801 38.1024C13.0365 38.137 12.8277 38.31 12.6189 38.3446C12.2362 38.4485 12.2014 38.4138 12.097 38.0332C12.0622 37.8948 12.0274 37.791 11.9926 37.6525C11.9578 37.5141 11.923 37.3757 11.8882 37.2373C11.8186 36.822 11.8882 36.7528 12.271 36.7182C12.445 36.6836 12.5493 36.7528 12.6189 36.9259C12.7233 37.1681 12.7929 37.4103 12.9321 37.6525C12.9669 37.7218 13.0713 37.791 13.1061 37.791C13.1757 37.7564 13.2801 37.6525 13.2801 37.5833C13.2105 37.2719 13.2801 36.9951 13.4541 36.7182C13.5237 36.649 13.4889 36.476 13.5585 36.4414C13.6977 36.3722 13.8717 36.303 14.0108 36.3376C14.1152 36.3722 14.1848 36.5452 14.2544 36.649C14.324 36.7528 14.4284 36.8912 14.5328 36.9259C14.7068 36.9605 14.7416 36.7874 14.7764 36.649C14.8112 36.5106 14.9156 36.4068 14.9504 36.2684C14.9852 36.0953 15.0896 36.0261 15.2288 35.9915C15.8551 35.8531 16.4467 35.6801 17.073 35.5417C16.899 35.3687 16.7599 35.1956 16.5859 35.0226C16.4815 34.9188 16.3771 34.7804 16.2031 34.7112C16.0639 34.815 15.9247 34.988 15.7507 35.0572C15.5419 35.161 15.4375 34.988 15.4027 34.815C15.4375 34.642 15.3679 34.3997 15.5419 34.3651C15.4375 34.2267 15.3332 34.0883 15.2288 33.9499C15.1592 33.8807 15.2984 33.6384 15.4027 33.5C15.4723 33.4308 15.6463 33.327 15.6811 33.3616C15.9943 33.5346 16.4815 33.4654 16.6207 33.8461C16.7946 34.0883 17.0034 34.2613 16.8642 34.5381C16.8294 34.6074 16.9338 34.7804 17.0034 34.8842C17.1078 35.0572 17.2818 35.2302 17.3862 35.4033C17.3862 35.4379 17.421 35.4725 17.421 35.5071H17.4558C17.6994 35.4379 17.8038 35.5417 17.8386 35.7493C17.8734 35.8531 17.8734 35.9223 17.9082 36.0261C17.9778 36.0607 18.0474 36.13 18.1518 36.2684C18.2561 36.4068 18.4649 36.5452 18.2213 36.7528C18.1518 36.822 18.0822 36.8566 17.9778 36.8912C17.9082 36.9259 17.7342 37.0297 17.4558 37.1335ZM13.4193 50.6292C13.1757 50.6292 13.1061 50.56 13.0017 50.1448C13.0017 50.1102 12.9669 50.0756 12.9669 50.041C12.9669 49.8679 12.9321 49.6257 13.0365 49.5219C13.2105 49.3489 13.3149 49.6257 13.4541 49.6603C13.7325 49.6949 13.8717 49.7987 13.8717 50.1102C13.8717 50.4908 13.8021 50.5946 13.4193 50.6292ZM14.498 44.2966C14.5328 44.1928 14.5676 44.0544 14.6372 44.0544C14.7068 44.0198 14.8112 44.1236 14.8808 44.1928C14.9156 44.2274 14.9504 44.3312 14.9504 44.4004C14.9852 44.5735 15.0548 44.7811 14.8112 44.8503C14.5676 44.9195 14.5328 44.7119 14.498 44.5735C14.5328 44.4696 14.498 44.3658 14.498 44.2966ZM14.7764 46.0961C15.0896 45.9922 15.2636 46.0268 15.4027 46.3037C15.4723 46.4421 15.5071 46.5805 15.5071 46.7189C15.5071 46.8574 15.4723 47.0304 15.3679 47.0996C15.2288 47.2034 15.02 47.2034 14.8808 47.0304C14.7764 46.892 14.672 46.7535 14.6024 46.6843C14.6372 46.4421 14.498 46.2345 14.7764 46.0961ZM14.672 49.9026C14.5676 49.5565 14.6372 49.4873 14.9504 49.3835C15.2636 49.3143 15.2984 49.3489 15.4027 49.7295C15.4723 50.0756 15.4375 50.1448 15.0896 50.2486C14.8112 50.2832 14.7764 50.2486 14.672 49.9026ZM15.5767 51.9788C15.5767 52.048 15.5071 52.1865 15.4375 52.2211C15.368 52.2557 15.2636 52.1518 15.1244 52.0826C15.2288 51.9442 15.2984 51.8404 15.3332 51.8404C15.4375 51.8058 15.5767 51.9096 15.5767 51.9788ZM16.9686 52.9824C16.9338 53.1208 16.7946 53.2246 16.7946 53.4322C16.7946 53.6398 16.5511 53.7091 16.4467 53.5014C16.3075 53.2246 16.0987 53.2592 15.8899 53.3284C15.8203 53.3284 15.7507 53.363 15.7159 53.363C15.2288 53.4668 15.194 53.4322 15.0896 53.0862C15.02 52.8093 15.1592 52.6363 15.5767 52.5325C15.7855 52.6017 16.1335 52.3595 16.3423 52.7055C16.3423 52.7401 16.5511 52.6709 16.5511 52.6363C16.5859 52.4979 16.6903 52.2903 16.7946 52.3941C16.9338 52.5325 17.0034 52.8093 16.9686 52.9824ZM16.2727 50.9061C16.2379 50.8715 16.3423 50.8023 16.3771 50.6639C16.4815 50.7677 16.5511 50.8023 16.5859 50.8715C16.5859 50.9061 16.4815 51.0445 16.4467 51.0445C16.4119 51.0445 16.3075 50.9753 16.2727 50.9061ZM17.595 49.5911C17.2818 49.6949 16.9686 49.7641 16.6555 49.8679C16.4119 49.9372 16.2727 49.8333 16.2379 49.5911C16.2031 49.3835 16.0987 49.1759 16.4119 49.072C16.5859 49.0374 16.7599 48.9682 16.9338 48.9336C17.1426 48.8644 17.3166 48.8298 17.3166 48.553C17.3166 48.2761 17.6298 48.2761 17.8038 48.3107C17.943 48.3107 18.0474 48.5184 18.0822 48.553C18.1866 49.0374 17.943 49.4873 17.595 49.5911ZM17.3862 45.4732C17.6994 45.3694 17.6994 45.6462 17.769 45.8192C17.8734 46.1653 17.8038 46.2691 17.5254 46.3383C17.3166 46.3729 17.1426 46.4075 17.073 46.1307C17.0034 45.75 17.1078 45.5424 17.3862 45.4732ZM17.073 44.089C17.073 44.0544 17.1078 43.9852 17.1426 43.9506L17.247 43.9852C17.247 44.0198 17.247 44.089 17.247 44.1928C17.1774 44.1582 17.1078 44.1236 17.073 44.089ZM18.0474 41.8743C18.0474 41.9435 17.9082 41.9781 17.8038 42.0127C17.595 42.1165 17.3166 42.1165 17.2818 42.428C17.2818 42.4626 17.1774 42.4972 17.1426 42.4972C16.899 42.3588 16.6207 42.2203 16.3771 42.0819C16.2031 41.9781 15.8551 42.0819 15.6811 42.255C15.5419 42.3934 15.4027 42.5318 15.2636 42.601C15.194 42.6356 15.02 42.6356 14.9852 42.601C14.846 42.3242 14.6372 42.3934 14.3936 42.3588C14.1152 42.3588 13.9065 42.0819 13.976 41.8051C13.976 41.7359 14.0804 41.6667 14.1152 41.6667C14.5328 41.5283 14.9852 41.4244 15.4375 41.3206C15.6115 41.286 15.8203 41.2168 15.9595 41.3898C15.9943 41.459 16.1335 41.459 16.2379 41.459C16.4815 41.4244 16.7251 41.4244 16.9686 41.3552C17.2122 41.286 17.4906 41.2514 17.5254 40.9054C17.5254 40.7324 17.7342 40.6977 17.8386 40.8708C17.9778 41.113 18.1866 41.0092 18.3605 41.0092C18.6041 41.0092 18.7433 40.94 18.7085 40.6631C18.7085 40.6285 18.7781 40.5593 18.8129 40.5247C18.9173 40.4555 19.5785 40.8362 19.5785 40.9746C19.5437 41.0784 19.4741 41.1822 19.4045 41.2168C19.2305 41.286 19.0217 41.3552 18.8129 41.3898C18.4649 41.4937 18.0822 41.4244 18.0474 41.8743ZM20.3092 43.3969C20.2048 43.4315 20.1004 43.4661 19.996 43.5007C19.8916 43.5353 19.822 43.5353 19.7176 43.5353C19.648 43.5353 19.5437 43.5007 19.4741 43.4661C19.5089 43.3969 19.5437 43.3277 19.5785 43.2585C19.648 43.0855 19.7176 42.947 19.822 42.774C19.9612 42.8778 20.1004 42.9816 20.2744 43.0855C20.3092 43.0855 20.344 43.0855 20.3788 43.1201C20.4484 43.1547 20.4832 43.2239 20.5528 43.2585C20.4484 43.2931 20.3788 43.3623 20.3092 43.3969ZM20.6572 45.3348C20.6572 45.5078 20.5876 45.6462 20.5528 45.8192C20.4484 45.7154 20.3092 45.577 20.1352 45.4386C20.2396 45.3002 20.3092 45.1617 20.3788 45.1271C20.5876 45.0233 20.6572 45.1963 20.6572 45.3348ZM18.7433 48.8644C18.9521 48.6222 19.2305 48.4146 19.3001 48.1031C19.3001 48.0685 19.4045 47.9993 19.4393 47.9993C19.648 48.0685 19.822 48.1031 19.996 48.2069C20.1004 48.2761 20.1352 48.4146 20.1352 48.4492C20.2396 48.899 20.2048 48.9336 19.8568 49.0374C19.7176 49.072 19.6133 49.1066 19.4741 49.1413C19.2653 49.1759 19.0565 49.2797 19.0565 49.5219C19.0565 49.5565 18.9521 49.6257 18.9173 49.6257C18.7433 49.5565 18.6389 49.0028 18.7433 48.8644ZM20.7616 52.1172C20.5876 52.1865 20.4136 52.3249 20.2744 52.0826C20.17 51.9096 20.0308 51.9442 19.8916 51.9788C19.6828 52.0134 19.4741 52.0826 19.2653 52.1172C19.1957 52.1172 19.0565 52.1172 19.0217 52.048C18.8129 51.7366 19.1957 51.6328 19.3001 51.3905C19.3697 51.2175 19.5785 51.1829 19.6828 51.3559C19.8916 51.6328 20.0656 51.4598 20.2744 51.3905C20.518 51.2867 20.4832 51.0791 20.4136 50.9061C20.344 50.6639 20.344 50.3524 19.9612 50.2832C19.8916 50.2832 19.822 50.1102 19.822 50.0064C19.822 49.9372 19.9264 49.8679 19.996 49.8333C20.344 49.6949 20.4832 49.7641 20.6224 50.1102C20.6572 50.2486 20.692 50.387 20.7268 50.5254C20.7616 50.6639 20.7964 50.8023 20.7964 50.9407C20.866 51.1829 20.9356 51.4598 21.0052 51.702C21.04 51.9442 20.9704 52.048 20.7616 52.1172ZM22.5014 41.9435C22.3275 41.7705 22.2579 41.4244 21.8403 41.5975C21.7011 41.6667 21.5967 41.459 21.7011 41.286C21.9099 40.94 22.1535 40.9054 22.4319 41.2168C22.6406 41.459 22.8494 41.6667 23.2322 41.6667C23.3366 41.6667 23.4062 41.7359 23.4062 41.8397C23.4758 41.8743 23.5802 41.9089 23.6498 41.9781C23.6846 41.9781 23.6498 42.1857 23.5802 42.255C23.5106 42.3242 23.3714 42.3588 23.267 42.3934C23.1626 42.3934 23.0234 42.428 22.8842 42.3934C22.6058 42.3934 22.3623 42.5318 22.2231 42.7394C21.9795 43.1547 21.5619 43.1547 21.1791 43.1893C20.9008 43.1893 20.9356 42.947 20.866 42.774C20.7964 42.5664 20.9008 42.4626 21.0747 42.428C21.3183 42.3588 21.5271 42.3242 21.5619 41.9781C21.5967 41.7705 22.1535 41.7013 22.3275 41.8397C22.5014 41.9781 22.571 42.0473 22.6058 42.0473C22.571 42.0473 22.5362 42.0127 22.5014 41.9435ZM22.2579 39.8326C22.2579 39.7634 22.3971 39.6942 22.4319 39.6942C22.6406 39.798 22.8146 39.9364 23.0234 40.0403C23.0234 40.0403 23.0582 40.1095 23.0234 40.1441C22.8494 40.2479 22.7102 40.3517 22.5362 40.4209C22.4667 40.4555 22.3623 40.2825 22.2927 40.2479C22.2579 40.0403 22.2579 39.9364 22.2579 39.8326ZM24.2413 49.7641C24.2761 49.7641 24.2413 49.9372 24.2065 49.9718C24.1369 50.0064 24.0325 50.0064 23.8933 50.0064C23.9281 49.9372 23.9281 49.868 23.9281 49.7987C23.7194 49.6603 23.441 49.5911 23.3366 49.3143C23.267 49.072 23.267 48.9682 23.6498 48.8644C23.7194 48.899 23.9281 48.9336 24.0325 49.0374C24.2413 49.2451 24.3109 49.4873 24.2413 49.7641ZM23.5802 45.5078C23.3366 45.4732 23.093 45.4732 22.8842 45.4386C22.8494 45.4386 22.8146 45.2655 22.8494 45.1963C22.8842 45.1271 22.9538 45.0579 23.093 44.9195C23.1626 44.9195 23.3366 44.8503 23.3714 44.9195C23.5106 45.0925 23.5454 45.2655 23.6498 45.4732C23.6498 45.4732 23.615 45.5078 23.5802 45.5078ZM21.1791 40.767C21.0747 40.767 20.9704 40.6977 20.866 40.6631C20.9356 40.5593 21.04 40.4555 21.1443 40.2825C21.2835 40.3863 21.4575 40.4209 21.4575 40.5247C21.4923 40.7324 21.3183 40.767 21.1791 40.767ZM20.866 42.1511C20.866 42.1857 20.866 42.255 20.866 42.3242C20.8312 42.3242 20.7616 42.3242 20.7268 42.3242C20.692 42.2896 20.692 42.2203 20.692 42.1511C20.7964 42.1165 20.866 42.1165 20.866 42.1511ZM21.5967 51.4598C21.5271 51.4252 21.4923 51.3905 21.3879 51.3559C21.4575 51.2867 21.4575 51.2175 21.4923 51.1829C21.5619 51.2175 21.6315 51.2521 21.6663 51.3213C21.6663 51.3559 21.6315 51.4252 21.5967 51.4598ZM22.3971 48.38C22.0839 48.4492 21.8055 48.553 21.5271 48.6222C21.1095 48.726 21.04 48.6914 20.9704 48.2761C20.9008 48.1031 20.9356 47.9301 21.1443 47.8263C21.2487 47.7571 21.7011 47.6187 21.8403 47.6533C21.9447 47.6879 22.0491 47.6533 22.1187 47.6533C22.4666 47.6879 22.571 47.7571 22.6058 48.1031C22.6058 48.2761 22.5362 48.3453 22.3971 48.38ZM23.2322 51.0791C23.1626 51.1483 23.0582 51.2521 23.0234 51.3213C22.9886 51.4598 22.9538 51.5982 22.8146 51.5636C22.7102 51.529 22.6754 51.3905 22.6406 51.3559C22.5362 50.9407 22.8146 50.6639 23.1626 50.7677C23.3018 50.8023 23.3366 50.9407 23.2322 51.0791ZM23.615 56.4082C23.5454 56.4428 23.441 56.339 23.267 56.3044C23.4062 56.166 23.4758 56.0622 23.5802 56.0622C23.6498 56.0622 23.7542 56.166 23.8238 56.2006C23.7542 56.2698 23.7194 56.3736 23.615 56.4082ZM24.5893 51.0791C24.2761 51.2867 24.3805 51.529 24.3457 51.8058C24.3457 51.875 24.2761 51.9442 24.2413 52.0134C24.1717 51.9788 24.1021 51.9096 24.0673 51.875C23.9977 51.702 23.9281 51.529 23.8933 51.3905C23.7542 51.0445 23.789 50.9753 24.2065 50.8715C24.2413 50.8715 24.3457 50.8369 24.4501 50.8369C24.5893 50.8369 24.6937 51.0099 24.5893 51.0791ZM24.6937 44.1928C24.5197 44.3312 24.4153 44.1582 24.3109 44.0544C24.2761 44.0198 24.2413 43.9506 24.1717 43.8814C23.9629 43.7429 23.8586 43.4315 23.4758 43.5007C23.267 43.5353 23.093 43.3277 23.2322 43.1547C23.3714 42.947 22.9538 42.428 23.5802 42.4972C23.8933 42.5318 24.2413 42.5318 24.3805 42.947C24.4153 43.0509 24.4849 43.1547 24.4501 43.2239C24.2761 43.5007 24.4849 43.6391 24.6241 43.8122C24.7285 43.9506 24.8329 44.0544 24.6937 44.1928ZM24.3109 39.7634C24.3805 39.6596 24.4153 39.5904 24.4501 39.5904C24.5197 39.5904 24.5893 39.625 24.6589 39.6596C24.6241 39.6942 24.6241 39.798 24.5893 39.798C24.4849 39.8326 24.4153 39.798 24.3109 39.7634ZM24.7285 40.0403C24.6937 39.9711 24.7633 39.798 24.7633 39.625C24.9025 39.625 25.0069 39.625 25.1461 39.625C25.1461 39.5904 25.1809 39.5558 25.2157 39.5212C25.3896 39.4174 25.5984 39.3136 25.7724 39.2444C25.8072 39.2444 25.842 39.2098 25.842 39.2098C25.7724 39.2098 25.7376 39.2098 25.668 39.1751C25.6332 39.1751 25.668 39.0367 25.7028 38.9329C25.8072 38.9675 25.9116 38.9675 25.9464 39.0021C25.9812 39.0367 25.9464 39.1059 25.9464 39.1405C26.0508 39.0713 26.1204 39.0021 26.1204 38.8291C26.1204 38.7945 26.1204 38.7599 26.1204 38.7599C25.6332 38.7945 25.1809 38.7253 24.7285 38.5523C24.7285 38.5523 24.7285 38.5523 24.6937 38.5523C24.6241 38.5523 24.4849 38.5523 24.4153 38.5177C23.9977 38.2754 23.7194 38.3446 23.5106 38.7253C23.3714 38.9329 22.9886 39.0367 22.8146 38.8637C22.6754 38.7253 22.5362 38.7253 22.3971 38.7599C22.1535 38.8291 21.9099 38.8637 21.6663 38.9329C21.4923 38.9675 21.2487 39.0021 21.1791 39.1751C21.3183 39.2098 21.2487 39.9018 21.1443 39.9711C20.866 40.1441 20.7616 39.8326 20.6224 39.6942C20.5528 39.6596 20.518 39.5904 20.518 39.5558C20.4832 39.5558 20.4484 39.5904 20.4136 39.5904C19.8916 39.7288 19.3349 39.8672 18.8129 40.0403C18.5693 40.1095 18.4649 40.0403 18.3605 39.8326C18.117 39.2444 18.2561 39.0021 19.0217 38.7945C19.2653 38.7599 19.5785 38.6215 19.8916 38.7945C20.1004 38.8983 20.3788 38.7945 20.518 38.5869C20.5876 38.5177 20.6572 38.4138 20.7616 38.3792C21.5619 38.1024 22.3275 37.7564 23.1974 37.7218C23.2322 37.7218 23.267 37.7218 23.3366 37.7218C22.571 36.9605 22.2231 35.9569 22.2927 34.988H22.2579C22.1883 34.9534 22.1535 34.8496 22.1187 34.7112C22.0839 34.7804 22.0491 34.8496 22.0143 34.8842C21.9099 34.9534 21.8055 34.988 21.6663 35.0572C21.6663 34.988 21.5967 34.9188 21.6315 34.8842C21.6663 34.815 21.7707 34.7458 21.8055 34.6766C21.8751 34.642 21.9447 34.5727 21.9795 34.5727C22.0143 34.5727 22.0491 34.5727 22.0839 34.6074C22.0839 34.5727 22.0839 34.5381 22.0839 34.5035C22.0839 34.4343 22.2579 34.2959 22.3623 34.2613C22.3971 34.2613 22.3971 34.2613 22.4319 34.2267C22.6058 33.6384 22.919 33.0848 23.3714 32.6349C24.7981 31.2161 27.0947 31.2161 28.5214 32.6349C29.8785 33.9845 29.9481 36.1646 28.6954 37.5833C28.6954 37.5833 28.6954 37.6179 28.6606 37.6179C28.6258 37.6525 28.591 37.7218 28.5214 37.7564C27.9647 38.31 27.2687 38.6561 26.5728 38.7599C26.6424 38.8291 26.7119 38.8983 26.7815 38.8983C27.0947 38.8983 27.0947 39.1059 27.1295 39.3136H27.1643C27.2687 39.3482 27.3731 39.3828 27.4775 39.3828C27.4427 39.4174 27.4427 39.4866 27.4079 39.4866C27.1991 39.5904 27.1643 39.452 27.0947 39.3136C26.8163 39.3828 26.538 39.452 26.2596 39.4866C25.9464 39.5212 25.7028 39.625 25.5288 39.9018C25.4592 40.0403 25.3548 40.1095 25.2157 40.0057C25.1809 39.9711 25.1461 39.9364 25.1461 39.9018C25.1113 39.9364 25.1113 39.9711 25.0765 40.0057C25.0069 40.0749 24.8677 40.2133 24.7285 40.0403ZM22.0491 36.476C21.9795 36.5106 21.8751 36.476 21.8055 36.4414C21.7707 36.4414 21.8055 36.2684 21.8403 36.2338C21.9099 36.1992 22.0143 36.1992 22.1535 36.1992C22.1187 36.3376 22.1187 36.4414 22.0491 36.476ZM22.3275 37.0643C22.4319 37.0643 22.5014 36.9951 22.571 37.0297C22.6754 37.0643 22.7798 37.1335 22.8146 37.2027C22.8494 37.4449 22.6754 37.5141 22.5014 37.5487C22.3275 37.5833 22.1187 37.6872 22.0491 37.4449C22.0143 37.3757 22.0839 37.2373 22.1535 37.1681C22.1535 37.0989 22.2579 37.0989 22.3275 37.0643ZM26.5728 29.3821C26.7815 29.3821 27.0251 29.2783 27.0947 29.3821C27.3035 29.5551 27.0947 29.6935 26.9555 29.8319C26.8163 29.9703 26.6076 30.1434 26.4684 29.8665C26.3988 29.7627 26.538 29.5551 26.5728 29.3821ZM30.1917 33.6384C30.4353 33.4654 30.5397 33.4654 30.7485 33.7422C30.8877 33.8807 30.9225 34.0537 30.7137 34.2267C30.5049 34.3997 30.4005 34.3997 30.1917 34.1575C30.0525 33.9499 29.9829 33.8114 30.1917 33.6384ZM30.0525 32.5311C30.0525 32.4273 30.0873 32.2888 30.1569 32.2542C30.2961 32.185 30.4005 32.2888 30.4353 32.4273C30.4353 32.4619 30.4701 32.5311 30.5049 32.6349C30.5049 32.6349 30.5397 32.7387 30.5397 32.8079C30.5049 32.8771 30.4701 33.0155 30.4005 33.0155C30.3309 33.0155 30.2265 32.9463 30.1917 32.8771C30.0873 32.7733 30.0525 32.6349 30.0525 32.5311ZM30.8181 31.3545C30.7833 31.4237 30.5745 31.4237 30.5397 31.3891C30.3309 31.1815 30.1221 30.9393 29.9829 30.697C29.9481 30.6278 30.0177 30.524 30.0177 30.4202C30.1221 30.4548 30.2265 30.4202 30.2613 30.4894C30.4005 30.5932 30.5049 30.7316 30.6093 30.8355C30.6789 30.9047 30.7833 30.9393 30.8181 31.0431C30.8529 31.1469 30.8877 31.2853 30.8181 31.3545ZM30.1221 27.1328C30.0873 27.1328 30.0177 27.0982 29.9829 27.0636C29.9133 26.9598 29.8437 26.8559 29.8437 26.7521C29.8437 26.6829 29.9133 26.5791 29.9481 26.4753C30.0177 26.5445 30.1221 26.5791 30.1917 26.6483C30.2265 26.6483 30.2265 26.7175 30.2265 26.7521C30.2265 26.8213 30.2613 26.8905 30.2613 26.9944C30.2265 27.029 30.1917 27.1328 30.1221 27.1328ZM30.2613 36.3722C30.4701 36.303 30.7137 36.2684 30.8181 36.0953C30.992 35.8531 31.1312 35.6801 31.4096 35.9569C31.4444 35.9915 31.6184 35.9223 31.6532 35.8531C31.7924 35.5417 32.1056 35.4725 32.3492 35.5417C32.4883 35.6109 32.6275 35.8877 32.6623 36.0953C32.6971 36.4068 32.5231 36.6144 32.1752 36.6836C32.1404 36.6836 32.1056 36.6836 32.1404 36.6836C31.8968 36.7528 31.688 36.8566 31.514 36.6144C31.4444 36.649 31.3748 36.649 31.34 36.6836C31.3748 36.649 31.3748 36.5798 31.4096 36.5452C31.34 36.5452 31.2704 36.6144 31.2008 36.7182C30.992 37.1335 30.7137 37.1681 30.2961 36.9259C30.1917 36.8566 30.0177 36.8912 29.8785 36.8912C29.7393 36.8912 29.5306 36.9951 29.5306 36.7528C29.5306 36.6836 29.7045 36.5452 29.8089 36.5106C29.9133 36.4414 30.0873 36.4414 30.2613 36.3722ZM31.4444 34.988C31.4444 34.8842 31.4792 34.7804 31.4792 34.6766C31.5836 34.7112 31.688 34.7112 31.7924 34.7804C31.862 34.815 31.8968 34.8842 32.0012 34.9534C32.0012 35.0226 32.0708 35.1264 32.036 35.2302C32.036 35.2994 31.862 35.4033 31.8272 35.3687C31.7228 35.334 31.6184 35.2302 31.5488 35.1264C31.4792 35.1264 31.4444 35.0572 31.4444 34.988ZM33.6367 49.1413C33.7759 49.0028 33.9498 48.9336 34.1238 49.1066C34.263 49.2797 34.5414 49.4181 34.3326 49.7295C34.2282 49.9026 34.1934 50.1794 34.089 50.3524C33.8802 50.6639 33.7411 50.6639 33.4975 50.387C33.3583 50.2486 33.2539 50.1102 33.1147 49.9372C33.0103 49.7641 32.8363 49.5565 32.6971 49.3143C32.6623 49.2105 32.6623 49.1066 32.6275 49.0028C32.7319 49.0374 32.8363 49.0374 32.9407 49.072C32.9755 49.072 33.0103 49.1066 33.0103 49.1066C33.2191 49.3489 33.4279 49.3489 33.6367 49.1413ZM33.2539 48.6222C33.3583 48.4838 33.4279 48.3453 33.5671 48.2069C33.6019 48.1723 33.7411 48.1723 33.8106 48.2069C33.8454 48.2069 33.8802 48.3453 33.8454 48.4146C33.8106 48.4838 33.7063 48.553 33.6367 48.6568C33.5671 48.6914 33.4627 48.726 33.3931 48.7606C33.3235 48.726 33.2191 48.6222 33.2539 48.6222ZM34.4718 47.8955C34.5066 47.8955 34.6458 47.8955 34.7154 47.9647C34.8198 48.1031 34.7154 48.1723 34.611 48.2761C34.5414 48.3453 34.5414 48.4838 34.4718 48.553C34.4022 48.6222 34.2978 48.726 34.2282 48.726C34.1586 48.726 34.0542 48.5876 34.0194 48.5184C33.9498 48.1723 34.0542 47.9993 34.4718 47.8955ZM33.0451 48.6222C32.8363 48.6914 32.6623 48.7606 32.4535 48.8298C32.1404 48.899 31.7924 48.899 31.688 49.3143C31.6532 49.4181 31.3052 49.4873 31.1312 49.4873C31.0616 49.4873 30.9573 49.2451 30.9225 49.1066C30.8529 48.899 30.992 48.8298 31.166 48.726C31.2704 48.6914 31.34 48.6222 31.4444 48.5876C31.8968 48.4838 32.3492 48.4146 32.7667 48.3453C32.8363 48.3453 32.9407 48.3107 33.0103 48.3107C33.0799 48.3107 33.1495 48.38 33.1495 48.4146C33.1147 48.4838 33.0799 48.5876 33.0451 48.6222ZM28.2082 48.4492C28.2778 48.6914 28.1734 49.0028 28.0343 48.9682C27.8951 48.9336 27.8255 48.7952 27.6863 48.6568C27.7559 48.5184 27.7907 48.4146 27.8603 48.3107C27.7907 48.2415 27.6863 48.2761 27.5819 48.2415C27.4427 48.2069 27.3035 48.1723 27.1991 48.1031C26.8859 47.8263 26.9207 47.7225 27.2339 47.4456C27.3731 47.3418 27.4775 47.3072 27.6863 47.411C27.8951 47.5148 28.1734 47.3764 28.3822 47.6533C28.5562 47.8955 28.4518 48.0339 28.3474 48.2415C28.3126 48.3107 28.243 48.3453 28.2082 48.38C28.2082 48.38 28.2082 48.4146 28.2082 48.4492ZM26.5032 40.3863C26.538 40.3517 26.6076 40.3171 26.712 40.2825C26.8163 40.2479 26.9207 40.2479 27.0251 40.2133C27.0251 40.3171 26.9903 40.3863 26.9903 40.4901C26.9903 40.5939 26.9555 40.6631 26.9555 40.767C26.9555 40.8708 26.9555 40.9746 26.9207 41.0784C26.8163 41.0438 26.712 40.9746 26.6424 40.94C26.3292 40.7324 26.2944 40.5939 26.5032 40.3863ZM26.364 41.8051C26.364 41.8397 26.2596 41.8743 26.2248 41.9089C25.9812 41.9435 25.5636 41.6321 25.5288 41.3898C25.5288 41.286 25.494 41.1822 25.494 41.113C25.494 40.94 25.668 40.8362 25.7724 40.9746C25.8768 41.1476 26.0856 41.1476 26.19 41.2168C26.3292 41.3552 26.3292 41.5975 26.364 41.8051ZM26.9903 42.255C27.0599 42.2203 27.1991 42.2896 27.2339 42.3242C27.2687 42.428 27.3035 42.4626 27.3035 42.4626C27.3383 42.601 27.4079 42.774 27.4427 42.9124C27.4079 42.9124 27.3383 42.947 27.3035 42.947C27.1295 42.8086 26.9903 42.6356 26.8511 42.4626C26.8511 42.428 26.9555 42.255 26.9903 42.255ZM27.7559 40.8016C27.8255 40.8362 27.8603 40.94 27.8951 41.0092C27.7211 41.113 27.5471 41.2168 27.3731 41.3206C27.3383 41.3206 27.1643 41.1476 27.1643 41.113C27.2339 41.0092 27.3383 40.9054 27.3731 40.8362C27.6167 40.8016 27.6863 40.767 27.7559 40.8016ZM27.4775 38.8983C27.4775 38.7945 27.6515 38.6907 27.7211 38.6215C27.9299 38.6215 28.0691 38.5869 28.1734 38.5869C28.5214 38.5869 28.591 38.6561 28.6606 38.9675C28.6606 39.0713 28.6258 39.1751 28.591 39.279C28.5214 39.2444 28.417 39.2444 28.3474 39.2098C28.1734 39.1751 28.0343 39.1059 27.8603 39.0713C27.7211 39.0021 27.4775 39.1405 27.4775 38.8983ZM28.591 40.5939C28.6606 40.5593 28.6954 40.4555 28.6954 40.3863C28.6954 40.1095 28.8694 40.0749 29.1478 40.0057C29.1826 40.0403 29.3566 40.0403 29.3914 40.1441C29.4958 40.3171 29.6349 40.5247 29.4262 40.6977C29.3914 40.7324 29.287 40.767 29.287 40.8016C29.1478 41.2514 28.9738 41.1822 28.6606 40.94C28.4866 40.8362 28.3822 40.8016 28.591 40.5939ZM28.591 43.6391C28.6606 43.6391 28.7302 43.6391 28.765 43.6737C28.7998 43.7429 28.765 43.8122 28.765 43.8814C28.6954 43.8814 28.6606 43.8814 28.5562 43.8814C28.591 43.7776 28.591 43.7083 28.591 43.6391ZM28.765 48.9682C28.7998 48.9336 28.939 48.9682 29.0782 48.9682C29.0434 49.1066 29.0434 49.2105 28.9738 49.2451C28.9042 49.2797 28.765 49.2451 28.7302 49.2105C28.6954 49.1759 28.6954 49.0028 28.765 48.9682ZM29.0434 46.4075C29.1826 46.1307 29.3566 45.8192 29.5306 45.5424C29.6001 45.4386 29.6697 45.3694 29.7393 45.3002C29.8089 45.3694 29.9133 45.4732 30.0177 45.577C29.9481 45.7154 29.9133 45.8538 29.8437 45.9922C29.8089 46.0961 29.7393 46.1653 29.7045 46.2691C29.6349 46.4421 29.287 46.6151 29.113 46.5113C29.0434 46.5459 29.0086 46.4421 29.0434 46.4075ZM29.9829 40.5939C29.9481 40.4555 29.8785 40.2825 30.0873 40.2479C30.1917 40.2479 30.2961 40.3863 30.4701 40.4901C30.3657 40.6631 30.3309 40.8708 30.2613 40.9054C30.0177 40.9746 30.0177 40.7324 29.9829 40.5939ZM30.2961 38.4138C30.2613 38.3792 30.1917 38.2408 30.2265 38.2062C30.3309 37.9986 30.4701 37.791 30.6441 37.5833C30.6441 37.5487 30.7833 37.5487 30.7833 37.5833C30.9225 37.8602 31.2008 37.8256 31.4096 37.964C31.514 38.0332 31.5488 38.2754 31.514 38.4138C31.4792 38.5177 31.3052 38.5869 31.166 38.6907C30.8181 38.5869 30.5397 38.5177 30.2961 38.4138ZM30.8181 46.1653C30.8529 46.0961 30.8877 46.0268 30.9572 45.9576C31.0268 45.8884 31.1312 45.8192 31.2356 45.8192C31.2704 45.8192 31.3748 45.923 31.3748 45.9922C31.3748 46.0961 31.3052 46.1999 31.2704 46.2345C31.1312 46.3037 31.0616 46.3383 30.992 46.3729C30.9225 46.4075 30.8529 46.3729 30.7485 46.3729C30.8181 46.3037 30.8181 46.2345 30.8181 46.1653ZM32.1404 47.1342C32.2448 47.1688 32.3144 47.2034 32.3492 47.238C32.3839 47.2726 32.3492 47.3418 32.3492 47.411C32.2796 47.411 32.21 47.3764 32.1404 47.3418C32.1056 47.3418 32.1404 47.2726 32.1404 47.1342ZM32.5579 45.7154C32.4535 45.6462 32.3839 45.5424 32.3144 45.4386C32.2448 45.3694 32.21 45.3001 32.1404 45.2309C32.21 45.1617 32.2796 45.1271 32.4187 45.0579C32.5231 45.0925 32.6971 45.0925 32.7319 45.1617C32.8363 45.3002 32.9059 45.4732 32.9059 45.6462C32.9059 45.7846 32.6623 45.8538 32.5579 45.7154ZM32.5231 40.0403C32.4535 40.1095 32.4535 40.2479 32.3839 40.2825C32.2796 40.3517 32.1752 40.3517 32.0708 40.3517C32.036 40.3517 32.0012 40.2479 31.9316 40.2133C31.8272 40.1441 31.7228 40.0403 31.6184 39.9711C31.7228 39.9018 31.862 39.798 31.9664 39.7288C32.036 39.6942 32.1404 39.6596 32.3144 39.5904C32.3839 39.5904 32.5579 39.5904 32.6275 39.6596C32.7667 39.8326 32.6623 39.9364 32.5231 40.0403ZM31.8968 37.7564C31.9664 37.6872 32.0708 37.6872 32.1752 37.6179C32.2448 37.6179 32.3839 37.5833 32.4535 37.6179C32.5231 37.6525 32.5231 37.791 32.5579 37.8948C32.3491 37.8948 32.1404 37.9294 31.9316 37.9294C31.8968 37.8602 31.862 37.7564 31.8968 37.7564ZM29.6697 28.4823C29.6001 28.517 29.5306 28.5516 29.461 28.5862C29.3914 28.5862 29.287 28.6208 29.2174 28.6208C29.1826 28.6208 29.1478 28.5516 29.0782 28.517C29.0782 28.5516 29.113 28.5862 29.113 28.6208C29.1826 28.863 29.1826 29.1398 29.1826 29.3821C29.1826 29.4167 29.0782 29.4859 29.0434 29.4513C28.7302 29.4167 28.5562 29.0706 28.6606 28.7592C28.6954 28.69 28.7302 28.6208 28.6954 28.5862C28.6606 28.4131 27.9995 27.8941 27.7907 27.8941C27.6863 27.8941 27.5819 27.8595 27.5123 27.8249C27.4775 27.8249 27.5123 27.6518 27.5471 27.6172C27.6515 27.5826 27.7559 27.5826 27.8603 27.5826C27.9299 27.5826 28.0343 27.6518 28.1039 27.6172C28.417 27.4442 28.5214 27.7211 28.6954 27.8941C28.8346 28.1017 28.9738 28.3093 29.0782 28.517C29.1826 28.4477 29.287 28.3439 29.3914 28.3093C29.4958 28.2747 29.6001 28.3439 29.7393 28.3439C29.7393 28.3785 29.7045 28.4823 29.6697 28.4823ZM27.6515 30.2126C27.7211 30.178 27.8603 30.2126 27.9647 30.2818C28.0691 30.351 28.1039 30.4548 28.2082 30.524C28.2778 30.5932 28.3126 30.6624 28.3822 30.697C28.5214 30.8701 28.6258 31.0431 28.3822 31.2507C28.1734 31.4237 27.9995 31.4929 27.7907 31.2853C27.7211 31.2161 27.6167 31.1469 27.5471 31.0431C27.1643 30.7316 27.2339 30.3856 27.6515 30.2126ZM24.9721 47.3418C24.8677 47.1342 24.8329 46.9612 25.1113 46.8228C25.1809 46.7881 25.2157 46.6843 25.2505 46.5805C25.3896 46.2691 25.7724 46.2345 26.016 46.4767C26.0856 46.5459 26.1204 46.5805 26.19 46.6151C26.2596 46.6843 26.364 46.7189 26.4336 46.7535C26.364 46.8228 26.2944 46.8574 26.2248 46.9266C26.0856 47.065 25.9464 47.2034 25.7724 47.3418C25.7028 47.411 25.5984 47.4456 25.494 47.5148C25.2505 47.6187 25.0765 47.5494 24.9721 47.3418ZM26.1204 55.7507C26.016 55.8199 25.9116 55.8545 25.7376 55.9237C25.668 55.9237 25.4592 55.9237 25.3896 55.8545C25.2852 55.6815 25.2852 55.5085 25.2852 55.3009C25.2852 55.2663 25.4244 55.1624 25.4592 55.1624C25.7028 55.2663 25.9464 55.4047 26.19 55.5431C26.19 55.5777 26.1552 55.7161 26.1204 55.7507ZM26.2248 50.6639C26.1204 50.6292 26.0508 50.4908 25.9812 50.4562C25.842 50.4216 25.668 50.4216 25.7028 50.214C25.7376 50.1102 25.8768 50.0756 25.9812 49.9718C26.1204 50.0064 26.3292 50.0064 26.364 50.0756C26.4684 50.214 26.4684 50.387 26.4684 50.56C26.5032 50.5946 26.3292 50.6639 26.2248 50.6639ZM26.5728 49.3489C26.5032 49.3489 26.4336 49.3143 26.2944 49.2797C26.364 49.1759 26.3988 49.072 26.4336 49.072C26.5032 49.072 26.6076 49.1413 26.6424 49.1759C26.6424 49.1759 26.6076 49.3489 26.5728 49.3489ZM26.4684 46.6497C26.2596 46.4075 26.0508 46.1307 25.8072 45.8884C25.5984 45.6462 25.3896 45.404 25.1809 45.1617C25.0765 45.0233 25.0069 44.9195 25.1809 44.7811C25.32 44.6773 25.4244 44.7811 25.494 44.8849C25.9116 45.3694 26.3292 45.8538 26.7467 46.3037C26.8859 46.4421 26.9555 46.5805 26.7815 46.7189C26.7119 46.8574 26.5728 46.7535 26.4684 46.6497ZM26.8859 51.3213C26.8859 51.2521 26.9207 51.1829 26.9207 51.1137C26.9555 51.1483 27.0599 51.1483 27.0599 51.1829C27.0947 51.2521 27.0599 51.3213 27.0599 51.4598C26.9903 51.3905 26.8859 51.3905 26.8859 51.3213ZM27.1991 55.5777C27.0947 55.4739 26.9903 55.4393 26.9903 55.3701C26.9903 55.3009 27.0599 55.2317 27.1295 55.197C27.1643 55.197 27.2687 55.2663 27.3035 55.3009C27.3383 55.3701 27.2687 55.4393 27.1991 55.5777ZM27.5123 50.6639C27.4079 50.4908 27.3731 50.3178 27.4427 50.214C27.4427 50.1448 27.4427 50.0756 27.4079 50.0064C27.5123 50.0064 27.6167 50.0064 27.6515 50.041C27.6515 50.041 27.6863 50.041 27.6863 50.0064C27.8255 49.9372 27.9647 49.9026 28.0343 49.6949C28.0343 49.6257 28.1734 49.5219 28.2778 49.4873C28.4518 49.4181 28.6258 49.3835 28.7998 49.3489C28.939 49.3143 29.0782 49.2797 29.2174 49.2451C29.5653 49.1759 29.6001 49.2451 29.6697 49.5565C29.6697 49.5911 29.6697 49.5911 29.6697 49.6257C29.7393 49.6257 29.8089 49.5911 29.8437 49.5565C30.0177 49.4527 30.1917 49.3489 30.3657 49.2451C30.6093 49.1413 30.8877 49.2797 30.9225 49.5565C30.9225 49.5911 30.8181 49.6949 30.7485 49.6949C30.3309 49.6949 30.4005 49.6949 30.2961 50.0756C30.2265 50.4216 30.2961 50.6292 30.5397 50.8369C30.7137 51.0099 30.8877 51.2175 30.7833 51.529C30.7485 51.5982 30.8181 51.702 30.8181 51.8058C30.9225 51.8058 30.992 51.8058 31.0964 51.7712C31.5836 51.5982 31.6532 51.5982 31.8968 51.875C32.21 52.2211 32.036 52.8093 31.5836 52.9824C31.3748 53.0516 31.2704 52.9824 31.166 52.8439C30.9225 52.5671 30.6789 52.2903 30.4701 52.0134C30.2961 51.8058 30.1221 51.5982 29.9481 51.3905C29.7741 51.1829 29.4958 51.0099 29.7045 50.6639C29.7393 50.6292 29.6349 50.4908 29.6001 50.4216C29.4958 50.2832 29.3914 50.1794 29.3218 50.0064V49.9718C28.9738 50.041 28.6258 50.1448 28.3126 50.2486C28.1039 50.3178 27.8255 50.3178 27.8603 50.6639C27.8603 50.6985 27.7559 50.7677 27.6863 50.8023C27.6167 50.7677 27.5471 50.6985 27.5123 50.6639ZM31.688 57.5502C31.6532 57.6194 31.6184 57.6886 31.5488 57.6886C31.514 57.6886 31.4444 57.654 31.34 57.6194C31.4444 57.5502 31.4792 57.4809 31.5488 57.4463C31.5836 57.4809 31.6532 57.5502 31.688 57.5502ZM30.8181 54.0551C30.8181 54.0897 30.7485 54.2281 30.7137 54.2281C30.6441 54.2281 30.5745 54.1589 30.4701 54.1243C30.5397 54.0205 30.6093 53.9167 30.6441 53.9513C30.6789 53.9167 30.7833 53.9859 30.8181 54.0551ZM30.3657 55.7507C30.3657 55.7853 30.3309 55.8891 30.2961 55.8891C30.2613 55.9237 30.1917 55.8545 30.1221 55.8199C30.1917 55.7507 30.2265 55.6815 30.2613 55.6469C30.2613 55.6815 30.3657 55.7161 30.3657 55.7507ZM29.2174 55.5777C29.2174 55.6123 29.2174 55.6123 29.2174 55.5777C29.2522 55.5431 29.3218 55.5085 29.3218 55.5085C29.3914 55.5085 29.4958 55.5431 29.5653 55.6123C29.5653 55.6123 29.5653 55.6815 29.5653 55.7507C29.4958 55.7161 29.3914 55.7161 29.3218 55.6815C29.287 55.6815 29.2522 55.6469 29.2174 55.5777C29.2174 55.6123 29.2174 55.6123 29.2174 55.5777C29.2174 55.6123 29.2174 55.6123 29.2174 55.5777C29.0434 55.6815 28.9042 55.7161 28.8346 55.6815C28.8346 55.6815 28.8346 55.7161 28.7998 55.7161C28.8694 55.7507 28.939 55.8199 29.0086 55.8545C29.2174 55.9583 29.3914 56.2352 29.3218 56.4774C29.287 56.6158 29.113 56.7196 28.9738 56.8235C28.6954 56.8581 28.5562 56.7889 28.4518 56.5812C28.3474 56.4082 28.2082 56.4428 28.1386 56.6158C28.0691 56.7196 28.1386 56.9273 27.9299 56.8581C27.7907 56.8235 27.6167 56.3736 27.7211 56.2698C27.9995 56.0276 27.8951 55.7853 27.8255 55.5085C27.7907 55.2663 27.6515 55.024 27.9995 54.851C28.1386 54.7818 28.1386 54.5396 28.2778 54.4703C28.3474 54.4357 28.4518 54.5742 28.5562 54.6434C28.5562 54.6088 28.6258 54.5742 28.6606 54.5742C28.765 54.5742 28.8694 54.6088 28.939 54.678C29.2522 54.678 29.6001 54.6434 29.7393 54.1935C29.7393 54.1589 29.9133 54.1243 29.9133 54.1589C30.1221 54.4357 30.2265 54.7472 30.1569 55.0586C30.1221 55.2317 29.9829 55.2663 29.8437 55.1278C29.5653 54.8856 29.6001 54.9202 29.3914 55.1624C29.3218 55.2663 29.2174 55.3009 29.0782 55.3701C29.1478 55.4739 29.1826 55.5431 29.2174 55.5777C29.2174 55.6123 29.2174 55.5777 29.2174 55.5777ZM30.9572 58.1384C30.9572 58.3807 30.6789 58.4499 30.5049 58.4153C30.2613 58.3807 30.0177 58.2768 29.8089 58.1384C29.7393 58.1038 29.7393 57.9654 29.6697 57.7924C29.7045 57.7232 29.6697 57.4809 29.7741 57.4463C29.9829 57.3425 30.2265 57.2041 30.4353 57.4463C30.5049 57.5155 30.5745 57.5848 30.6789 57.5848C30.992 57.654 30.9572 57.9308 30.9572 58.1384ZM30.7485 57.3425C30.7485 57.2733 30.7137 57.2041 30.7137 57.1349C30.7485 57.0657 30.8181 57.0311 30.8529 56.9619C30.9225 56.9273 30.992 56.8581 31.0616 56.8235C31.1312 56.8235 31.2008 56.8581 31.2704 56.8581C31.2356 56.9619 31.2008 57.1003 31.1312 57.1695C31.0616 57.2733 30.8877 57.3079 30.7485 57.3425ZM31.688 58.4153C31.5488 58.4845 31.4096 58.4845 31.2356 58.5191C31.3052 58.3807 31.34 58.2076 31.4096 58.1038C31.4444 58.0346 31.6184 58.0692 31.862 58.0346C31.7924 58.2422 31.7576 58.3807 31.688 58.4153ZM33.2539 57.1695C33.1495 57.2733 33.0103 57.3425 32.9059 57.3079C32.8711 57.3425 32.8711 57.3771 32.8363 57.4117C32.8015 57.4463 32.7319 57.3771 32.6971 57.3425C32.6971 57.3079 32.7319 57.2733 32.7667 57.2041C32.6971 57.1349 32.6275 57.0657 32.5231 56.9965C32.4187 56.7889 32.1752 56.5812 32.3492 56.2698C32.3492 56.2352 32.3839 56.2006 32.3839 56.166C32.3839 56.0276 32.3839 55.9237 32.3839 55.7853C32.5231 55.8545 32.6623 55.9237 32.7667 56.0276C32.9755 56.2352 33.1495 56.4774 33.3583 56.685C33.4975 56.8927 33.4279 57.0311 33.2539 57.1695ZM35.3069 53.5014C35.1678 53.536 35.0982 53.6052 35.0286 53.7783C34.9242 54.0205 34.7502 54.2281 34.5762 54.4011C34.5414 54.4357 34.4022 54.4011 34.3674 54.3665C34.2978 54.2973 34.263 54.1935 34.2282 54.1243C34.1586 54.0205 34.0542 53.8475 33.9498 53.8475C33.7411 53.8475 33.5323 53.8475 33.4279 54.1243C33.3931 54.2281 33.2887 54.2973 33.2539 54.3665C33.2191 54.3319 33.2191 54.3319 33.1843 54.2973C33.1495 54.3665 33.0799 54.4357 33.0103 54.4703C32.9407 54.5396 32.7667 54.505 32.6623 54.4703C32.5579 54.4357 32.5231 54.3319 32.3839 54.1935C32.3491 54.2627 32.2796 54.3319 32.2796 54.4011C32.2448 54.5742 32.1752 54.7126 32.0012 54.678C31.8968 54.6434 31.7924 54.505 31.7924 54.4703C31.688 54.1589 31.6532 53.9859 31.9316 53.8821C31.9664 53.8821 32.0012 53.8129 32.036 53.7783C32.1056 53.709 32.036 53.4668 32.21 53.4668C32.2448 53.363 32.2448 53.2246 32.1752 53.1208C32.2796 53.0862 32.3839 53.017 32.4535 53.0516C32.6275 53.1554 32.7667 53.2592 32.8711 53.3976C32.9059 53.3284 32.9059 53.2938 32.9755 53.2246C33.0103 53.19 33.1495 53.2592 33.1843 53.2938C33.3235 53.5014 33.4975 53.4322 33.6715 53.3976C34.0542 53.2938 34.4718 53.19 34.8546 53.1208C35.0634 53.0862 35.2373 53.017 35.2373 52.7747C35.2373 52.7055 35.3417 52.6363 35.3765 52.6363C35.4461 52.6363 35.5157 52.7055 35.5505 52.7401C35.8289 53.19 35.7245 53.363 35.3069 53.5014ZM35.9681 51.5982C35.8985 51.6328 35.7941 51.6674 35.7593 51.6328C35.3765 51.4598 35.0286 51.3905 34.611 51.5636C34.4718 51.6328 34.1586 51.1137 34.263 50.9753C34.2978 50.9407 34.4022 50.9061 34.437 50.9407C34.785 51.1483 34.9242 50.8369 35.0982 50.6639C35.133 50.6292 35.0634 50.4908 34.9938 50.4216C34.959 50.387 34.8546 50.4562 34.8198 50.4216C34.7502 50.3524 34.6806 50.2486 34.6458 50.1794C34.7154 50.1448 34.8198 50.0756 34.8894 50.0756C35.4809 50.1448 35.4809 50.1448 35.9681 50.6639C36.0029 50.6985 36.1073 50.8023 36.1769 50.9061C36.3161 51.1483 36.2813 51.3905 35.9681 51.5982ZM35.6897 47.4802C35.8985 47.4456 36.0029 47.5494 36.0725 47.8609C36.1421 48.2069 36.1073 48.3107 35.8289 48.38C35.4809 48.4492 35.3069 48.3453 35.2026 47.9647C35.1678 47.7571 35.4113 47.5494 35.6897 47.4802ZM37.1512 54.3665C37.0468 54.4011 36.8728 54.3665 36.838 54.2973C36.7684 54.1589 36.7336 53.9859 36.6988 53.8129C36.8728 53.8821 37.012 53.9167 37.2556 54.0205C37.2208 54.1589 37.2208 54.3319 37.1512 54.3665ZM37.012 52.6363C37.0468 52.6709 37.012 52.8093 36.9772 52.8439C36.9076 52.8785 36.7684 52.8785 36.7336 52.8093C36.6988 52.7747 36.7336 52.6363 36.7336 52.4979C36.8728 52.5671 36.9772 52.5671 37.012 52.6363ZM36.9076 47.3072C36.9424 47.2726 37.0816 47.3072 37.1164 47.3764C37.186 47.4456 37.186 47.5494 37.2208 47.6533C37.2208 47.7225 37.2208 47.8263 37.186 47.9301C37.186 47.9647 37.0468 47.9993 37.0468 47.9993C36.9772 47.8609 36.8728 47.7225 36.838 47.5494C36.8032 47.4802 36.838 47.3764 36.9076 47.3072ZM38.1255 53.536C38.0559 53.536 37.9516 53.536 37.882 53.4668C37.8472 53.4322 37.882 53.3284 37.9168 53.2246C38.0212 53.2938 38.1255 53.2938 38.1951 53.363C38.1951 53.3976 38.1255 53.536 38.1255 53.536ZM38.5431 49.6603C38.1951 49.8333 37.8124 49.9026 37.4644 49.9718C37.4296 49.9718 37.3252 49.6949 37.3252 49.5565C37.3252 49.4527 37.4296 49.3143 37.4992 49.2797C37.6384 49.2105 37.8124 49.1759 37.9516 49.1413V49.1066C38.1603 49.072 38.3691 49.0374 38.5779 49.0028C38.6127 49.0028 38.7171 49.1066 38.7171 49.1413C38.6823 49.3143 38.6823 49.5911 38.5431 49.6603ZM38.1951 37.2373C38.4387 37.0297 38.5083 37.0297 38.7171 37.2373C38.9607 37.5141 38.9607 37.5833 38.7171 37.791C38.4387 38.0332 38.3691 38.0332 38.1603 37.791C37.9516 37.5141 37.9516 37.4449 38.1951 37.2373ZM38.6475 35.9223C38.8563 35.8877 38.9259 35.9915 38.9607 36.1646C39.0303 36.5106 38.9955 36.6144 38.6823 36.7182C38.4039 36.7874 38.2995 36.7528 38.2299 36.4414C38.1603 36.1992 38.3343 35.9569 38.6475 35.9223ZM39.1347 41.0092C39.1695 41.0784 39.1347 41.1822 39.1347 41.2514C39.0303 41.2514 38.9259 41.286 38.8911 41.2168C38.8563 41.1822 38.8563 41.0438 38.8215 40.9054C38.9955 40.94 39.0999 40.94 39.1347 41.0092ZM38.1951 39.6942C38.2647 39.798 38.3691 39.9018 38.4039 39.9711C38.4387 40.0749 38.4387 40.2133 38.3691 40.2825C38.3343 40.3517 38.1603 40.3517 38.0559 40.3171C37.882 40.2825 37.6036 39.8672 37.6036 39.6596C37.6036 39.5558 37.6036 39.452 37.6036 39.3482C37.708 39.3828 37.8124 39.4174 37.9168 39.4866C38.0559 39.5558 38.1603 39.6596 38.1951 39.6942ZM38.4039 42.601C38.4735 42.601 38.5083 42.6702 38.5779 42.6702C38.7171 42.7048 38.9607 42.5318 38.9955 42.774C39.0303 42.947 38.8563 43.1547 38.7867 43.3623C38.5779 43.4315 38.4039 43.5007 38.2299 43.5353C38.0559 43.5353 37.8472 43.2239 37.882 43.0855C37.9168 42.774 38.1951 42.5318 38.4039 42.601ZM38.2995 47.2726C38.2299 47.2726 38.1951 47.2726 38.1255 47.2726C38.0907 47.2726 38.1255 47.2034 38.1255 47.0996C38.1951 47.1342 38.2647 47.1342 38.2995 47.1688C38.2995 47.1688 38.2995 47.238 38.2995 47.2726ZM38.9955 47.1342C38.9259 47.1688 38.8563 47.0996 38.7171 47.065C38.7867 46.9612 38.8563 46.8574 38.8911 46.8228C38.9607 46.8228 39.0303 46.892 39.0999 46.9266C39.0999 46.9958 39.0651 47.0996 38.9955 47.1342ZM39.0999 45.9576C39.1347 45.8884 39.1347 45.8192 39.1695 45.75C39.2043 45.7154 39.2739 45.75 39.3783 45.75C39.3435 45.8538 39.3087 45.923 39.2739 45.9576C39.2391 45.9576 39.1695 45.9576 39.0999 45.9576ZM40.8745 42.4972C40.805 42.7394 40.9441 42.9124 41.0485 43.0855C41.0833 43.1893 41.0485 43.3277 41.0485 43.4315C40.9441 43.4315 40.7702 43.4315 40.7006 43.3623C40.4918 43.1893 40.3178 42.947 40.0742 42.7048C39.9698 42.5664 39.8306 42.428 39.6914 42.255C39.587 42.1165 39.5174 42.0127 39.6566 41.8743C39.7958 41.7359 39.935 41.8051 40.0394 41.9089C40.2134 42.0819 40.3526 42.255 40.631 42.2203C40.7354 42.2203 40.8745 42.428 40.8745 42.4972ZM40.6658 40.6977C40.6658 40.6285 40.7006 40.5593 40.7354 40.4901C40.8745 40.5593 41.0137 40.5939 41.1181 40.6977C41.2225 40.8016 41.3617 40.94 41.1877 41.0784C41.1529 41.113 41.0137 41.1476 40.9789 41.113C40.9093 41.0784 40.8398 40.9746 40.7702 40.94C40.7354 40.8362 40.6658 40.767 40.6658 40.6977ZM40.3874 47.6187C40.3526 47.6879 40.3526 47.7571 40.3178 47.8263C40.3178 47.8609 40.1786 47.8263 40.1438 47.7917C40.109 47.7571 40.0742 47.6879 40.0394 47.584C40.2482 47.584 40.3178 47.584 40.3874 47.6187ZM39.9002 44.0198C39.587 44.1236 39.6218 43.8468 39.5522 43.6737C39.5522 43.5699 39.5174 43.4661 39.5522 43.3623C39.5522 43.2931 39.6566 43.2239 39.6914 43.1893C39.761 43.1893 39.8654 43.2239 39.9002 43.2585C39.9698 43.3277 40.0046 43.4315 40.0046 43.5353C40.0394 43.7429 40.1438 43.9506 39.9002 44.0198ZM39.8306 39.452C39.761 39.4866 39.6914 39.4866 39.6218 39.452C39.587 39.4174 39.5522 39.3482 39.5174 39.2098C39.7262 39.279 39.7958 39.279 39.8654 39.3136C39.9002 39.3136 39.8654 39.452 39.8306 39.452ZM39.6914 38.2408C39.587 38.2062 39.5174 38.1716 39.3435 38.137C39.4478 37.9986 39.4826 37.8948 39.5522 37.8256C39.587 37.791 39.761 37.8948 39.761 37.9294C39.7958 38.0332 39.7262 38.137 39.6914 38.2408ZM39.4826 49.5219C39.4478 49.5565 39.3783 49.4527 39.2391 49.4181C39.3435 49.3143 39.4131 49.2105 39.5174 49.1759C39.5522 49.1759 39.6566 49.2797 39.6914 49.3143C39.6566 49.3835 39.587 49.4527 39.4826 49.5219ZM40.283 50.1448C40.1786 50.1448 39.9698 50.2486 39.935 50.1794C39.8306 50.041 39.761 49.8333 39.6566 49.6603C39.7262 49.6257 39.8306 49.5911 39.8654 49.5911C40.0394 49.7987 40.4222 49.3835 40.4918 49.7641C40.5266 49.868 40.3874 50.0064 40.283 50.1448ZM41.3269 48.9682C41.2921 49.1066 40.7702 49.3143 40.631 49.2105C40.5266 49.1413 40.4918 48.9682 40.4222 48.899C40.4222 48.726 40.3874 48.6222 40.3874 48.5184C40.3874 48.38 40.4222 48.2415 40.4222 48.1031C40.5266 48.1723 40.631 48.2761 40.7354 48.3107C40.805 48.3453 40.8745 48.3453 40.9789 48.38C41.2225 48.4146 41.3965 48.7606 41.3269 48.9682ZM41.6401 47.2726C41.5705 47.3072 41.4661 47.3072 41.3965 47.3072C41.3965 47.238 41.3617 47.0996 41.3965 47.065C41.4313 47.0304 41.5705 47.0304 41.6749 47.0304C41.6401 47.1342 41.6749 47.238 41.6401 47.2726ZM42.6492 45.1271C42.7188 45.3694 42.6144 45.3694 42.4056 45.3348C42.3013 45.3002 42.1621 45.3348 42.0229 45.3694C41.8141 45.404 41.6401 45.3002 41.7445 45.1271C41.8837 44.8849 41.7445 44.7465 41.6749 44.5735C41.6401 44.5042 41.5705 44.4004 41.6053 44.3312C41.6749 44.1582 41.7445 43.9852 41.8489 43.8468C41.8837 43.8122 42.0925 43.916 42.2317 43.9852C42.3013 44.0198 42.3708 44.089 42.4404 44.1582C42.5448 44.4004 42.8232 44.5735 42.6144 44.9195C42.6144 44.9541 42.6144 45.0579 42.6492 45.1271ZM42.9276 46.1999C42.858 46.1307 42.7884 46.0961 42.7884 46.0268C42.7884 45.9922 42.8232 45.923 42.858 45.8538C42.9276 45.8884 42.9972 45.923 43.032 45.9922C43.032 46.0268 42.9624 46.0961 42.9276 46.1999ZM43.2756 42.6356C43.2408 42.6356 43.206 42.601 43.1364 42.5664C43.1712 42.774 43.0668 43.0163 42.858 43.0509C42.7884 43.0855 42.6492 43.0163 42.5796 42.947C42.4404 42.8432 42.336 42.6702 42.2317 42.5318C42.0925 42.3588 41.9533 42.2203 41.8141 42.0473C41.7793 42.0127 41.7793 41.8743 41.8141 41.8397C41.8489 41.8051 41.9533 41.7705 42.0229 41.7705C42.1621 41.7705 42.3012 41.8051 42.4404 41.8051C42.5448 41.8397 42.6492 41.8397 42.684 41.9089C42.8232 42.0473 42.9276 42.1857 43.032 42.3242C43.0668 42.3588 43.1016 42.428 43.1016 42.4972C43.1712 42.4626 43.206 42.3934 43.2756 42.3934C43.3104 42.3934 43.38 42.4626 43.4148 42.4972C43.38 42.5664 43.3104 42.6356 43.2756 42.6356ZM43.4148 43.9506C43.38 43.916 43.4148 43.7775 43.4148 43.6391C43.554 43.7083 43.6584 43.7083 43.6931 43.7775C43.7279 43.8122 43.6931 43.9852 43.6584 43.9852C43.5888 43.9852 43.4496 43.9852 43.4148 43.9506ZM43.5888 45.9922C43.554 45.923 43.554 45.8192 43.5192 45.75C43.5888 45.75 43.6584 45.7846 43.7627 45.7846C43.7627 45.8884 43.7975 45.9576 43.7975 46.0268C43.7279 46.0268 43.6236 46.0615 43.5888 45.9922ZM44.2499 39.1751C44.1107 39.279 43.9715 39.4174 43.8323 39.2444C43.7975 39.1751 43.8671 39.0367 43.9019 38.8637C44.0759 38.8291 44.2847 38.7599 44.3891 38.8291C44.5283 38.9675 44.3543 39.1059 44.2499 39.1751ZM44.7371 45.1617C44.6675 45.1963 44.5979 45.1963 44.5283 45.1963C44.5283 45.1271 44.4935 45.0579 44.5283 45.0233C44.5631 44.9887 44.6675 44.9541 44.7719 44.9195C44.7371 45.0579 44.7371 45.1617 44.7371 45.1617ZM45.1546 40.5939C45.0155 40.5593 44.8415 40.5247 44.8067 40.4555C44.7023 40.3171 44.4935 40.1095 44.7023 39.9364C44.7719 39.8672 44.9807 40.0057 45.0851 40.0057C45.1894 40.1787 45.259 40.2479 45.259 40.3517C45.259 40.4555 45.1894 40.5939 45.1546 40.5939ZM40.5614 37.4103C39.8306 36.6836 39.4826 35.7493 39.4826 34.815C39.4478 34.815 39.4131 34.7804 39.3783 34.7458C39.0303 34.5381 38.4039 34.6766 38.2299 35.0226C38.0907 35.2648 37.6036 35.4379 37.3948 35.2302C37.1512 34.988 36.9424 35.1264 36.7336 35.161C36.5597 35.1956 36.3857 35.1956 36.2813 35.3687L36.3857 36.2338L36.4205 36.2684C36.5597 36.3722 36.7336 36.4414 36.8728 36.5452C36.7336 36.649 36.5945 36.7528 36.4205 36.8566L36.5249 37.791C36.5945 37.4103 36.6292 37.4103 36.9772 37.6872C37.0468 37.7218 37.0816 37.791 37.1512 37.8602C37.1512 37.8602 37.1512 37.8602 37.1164 37.8948C37.3252 38.1716 37.534 38.4485 37.7428 38.7253C37.7776 38.7945 37.7776 38.8983 37.8124 39.0021C37.7428 39.0021 37.6384 39.0021 37.5688 38.9675C37.36 38.8291 37.186 38.7253 36.9076 38.7599C36.8728 38.8291 36.8032 38.8637 36.7336 38.9329C36.6988 38.9329 36.664 38.8983 36.6292 38.8983L36.9076 41.459C36.9772 41.4244 37.012 41.4244 37.0816 41.4244C37.2556 41.4244 37.4644 41.6321 37.6384 41.7705C37.6732 41.8051 37.5688 41.9781 37.4992 42.0473C37.36 42.1857 37.186 42.3242 37.0468 42.4626L37.4296 46.0961C37.534 46.1307 37.5688 46.2345 37.6036 46.3383C37.6036 46.3729 37.534 46.4421 37.4644 46.5113L37.4992 46.8228L34.1238 47.1688L34.0542 46.5113C34.0194 46.4767 34.0194 46.4767 34.0194 46.4421C34.0194 46.4075 34.0194 46.3729 34.0542 46.3383L33.8802 44.8503C33.8454 44.8849 33.8106 44.9195 33.7759 44.9541C33.7063 44.9887 33.6367 44.9541 33.5671 44.9541C33.5671 44.9195 33.6019 44.8503 33.6019 44.8157C33.6715 44.7811 33.7063 44.7119 33.7759 44.7119C33.8106 44.7119 33.8106 44.7465 33.8454 44.7465L32.9407 36.4414C32.8711 36.4414 32.8015 36.4414 32.7319 36.4414C32.6971 36.4068 32.6971 36.303 32.6971 36.1992C32.7667 36.1992 32.8363 36.2338 32.9059 36.2338L32.6623 33.2578C32.5927 33.327 32.5231 33.327 32.4187 33.3616C32.3492 33.3616 32.3144 33.3616 32.2448 33.3962C31.5488 33.5 31.3052 33.2578 31.4096 32.5657C31.4096 32.4965 31.4444 32.4273 31.514 32.3927C31.688 32.2196 31.9316 32.1158 32.0012 31.839C32.036 31.666 32.3144 31.7006 32.3839 31.8736C32.4535 32.0812 32.5231 32.3235 32.5927 32.5311L31.8272 25.5064C31.5488 25.5756 31.2704 25.6448 30.9572 25.714C30.5397 25.8178 30.1221 25.9562 29.6697 26.0254C29.2522 26.0946 29.2174 26.1292 29.287 26.5099C29.287 26.5445 29.3218 26.6137 29.3218 26.6483C29.3566 26.7867 29.3914 26.9251 29.2174 26.9598C29.1478 26.9598 29.0434 26.8559 29.0086 26.7521C28.939 26.6137 28.9042 26.5445 28.8346 26.4753V26.5099C28.7998 26.5445 28.6954 26.5099 28.6258 26.4753C28.591 26.4407 28.5562 26.4061 28.4866 26.3369C28.3822 26.3369 28.2778 26.3715 28.1734 26.4061C27.8255 26.5099 27.4427 26.6137 27.0947 26.6829C27.0947 26.7867 27.0947 26.8559 27.0599 26.9251C26.9555 27.0636 26.7815 26.9944 26.6772 26.8559C26.6424 26.8213 26.6076 26.7521 26.538 26.7175C26.364 26.6829 26.1552 26.5099 25.9116 26.4061C25.9812 26.3023 26.0508 26.2331 26.0856 26.1638C25.9116 25.9562 25.7376 25.7486 25.5288 25.5064C25.4244 25.4025 25.3548 25.2987 25.32 25.1949C25.2853 25.1603 25.2505 25.1603 25.2505 25.1257C25.1461 24.9873 25.0765 24.8489 24.9373 24.7797C24.6241 24.6759 24.3805 24.8835 24.4153 25.2295C24.4153 25.3333 24.4501 25.4372 24.4153 25.5064C24.3805 25.5756 24.2413 25.6102 24.1717 25.6448C24.0325 25.3679 23.6498 25.541 23.5106 25.2295C23.5106 25.1949 23.3366 25.1603 23.267 25.1603C23.1626 25.1603 23.0582 25.1949 22.9886 25.1949C22.8146 25.2295 22.6754 25.1949 22.6406 25.0219C22.6058 24.8489 22.745 24.7797 22.8842 24.7451C22.919 24.7451 22.9538 24.7451 22.9886 24.7105C22.9886 24.7105 22.9886 24.7105 22.9886 24.7451C23.5106 24.6066 24.0673 24.4682 24.5893 24.3644H24.6241C24.5893 24.2952 24.5893 24.1914 24.5545 24.053C24.6937 24.0876 24.8329 24.053 24.8677 24.1222C24.9025 24.1568 24.9025 24.2606 24.8677 24.3298C25.1113 24.2952 25.3548 24.2952 25.5984 24.399C25.7376 24.4682 26.1552 24.3298 26.19 24.226C26.2596 23.8799 26.538 23.8453 26.7815 23.7761C27.0599 23.7069 27.3731 23.6723 27.6515 23.6723C27.7211 23.6723 27.7907 23.7415 27.8603 23.8107C27.8255 23.8799 27.7907 23.9838 27.7211 24.0184C27.5819 24.0876 27.4079 24.1222 27.2687 24.1914C27.0947 24.2606 26.8859 24.2952 26.8511 24.5374C26.8511 24.6066 26.7815 24.6759 26.712 24.7105C26.4336 24.8143 26.1552 24.8489 26.0508 25.2295C26.0856 25.2987 26.1204 25.3333 26.19 25.4025C26.3292 25.6102 26.4684 25.7832 26.6424 25.9562C26.6772 25.9562 26.6772 25.9562 26.712 25.9216C26.9555 25.8524 27.1991 25.8524 27.2339 25.5064C27.2687 25.3679 27.4427 25.3333 27.5471 25.4372C27.7211 25.6448 27.8951 25.5756 28.0691 25.5064C28.6606 25.3679 29.287 25.2295 29.8785 25.1257C30.1221 25.0911 30.2961 25.0219 30.4701 25.2641C30.5745 25.4372 30.7485 25.3679 30.7833 25.1949C30.8529 24.9527 30.992 24.9181 31.2008 24.8489C31.4096 24.7797 31.6184 24.7451 31.8272 24.6759L31.5836 23.5339C31.3748 23.5685 31.166 23.6377 31.1312 23.9492C31.1312 23.9838 30.8529 24.0184 30.8181 23.9838C30.6789 23.7415 30.4701 23.8107 30.2961 23.8799C29.8437 24.0184 29.3566 23.9838 28.939 24.226C28.939 24.226 28.8694 24.226 28.8346 24.226C28.6606 24.226 28.417 24.399 28.3474 24.1222C28.243 23.8107 28.5214 23.8453 28.6954 23.7761C28.8346 23.7069 28.9738 23.6723 29.0086 23.4647C29.0434 23.2225 29.2174 23.1879 29.4262 23.3609C29.6001 23.4993 29.6349 23.5339 29.7741 23.3263C29.8785 23.1879 30.0873 23.1186 30.2613 23.0148C30.4701 22.8764 30.5745 23.084 30.7137 23.1879C30.9225 23.3263 31.5836 23.1186 31.7228 22.8764C31.862 22.6342 32.0012 22.565 32.2796 22.738C32.3492 22.7726 32.5579 22.738 32.5927 22.6688C32.7319 22.4266 32.8363 22.3573 33.0103 22.5996C33.1843 22.7726 33.3583 22.738 33.3931 22.4958C33.4279 22.2881 33.5671 22.2535 33.7411 22.1843C34.0542 22.0805 34.3674 22.0113 34.6806 21.9421C34.9938 21.8729 35.0286 22.1151 35.0982 22.2881C35.1678 22.565 35.0982 22.6688 34.8198 22.7034C34.6458 22.7034 34.4718 22.6688 34.3326 22.5996C34.1586 22.4958 34.0194 22.4958 33.915 22.6342C33.8802 22.7034 33.8454 22.8072 33.8106 22.8764L35.0286 22.738L35.1678 24.0876C35.2373 24.0184 35.2721 23.9838 35.3069 23.9838C35.3417 23.9838 35.3765 24.0184 35.4113 24.053C35.3765 24.0876 35.3417 24.1568 35.3069 24.1568C35.2721 24.1568 35.2373 24.1568 35.1678 24.1222L36.2813 34.5035C36.3161 34.5035 36.3509 34.5035 36.3857 34.4689C36.9772 34.2959 37.6036 34.0883 38.1951 33.9499C38.3691 33.9153 38.6127 33.8807 38.7519 33.9499C39.0651 34.1229 39.3435 34.0883 39.6566 34.0537C39.7958 33.3962 40.109 32.7733 40.631 32.2542C42.0577 30.8355 44.3543 30.8355 45.781 32.2542C47.2077 33.673 47.2077 35.9569 45.781 37.3757C44.3195 38.8291 41.9881 38.8291 40.5614 37.4103ZM37.3948 36.2338C37.0816 36.476 37.012 36.4414 36.7684 36.13C36.5945 35.9223 36.664 35.6455 36.9772 35.4379C37.186 35.2994 37.3252 35.3687 37.534 35.6455C37.708 35.9223 37.708 35.9915 37.3948 36.2338ZM42.9276 20.4195C42.9624 20.5925 42.858 20.6963 42.7188 20.7309C42.51 20.8001 42.2665 20.8347 42.0577 20.904V20.9386C41.9185 20.9732 41.7793 21.0078 41.6401 20.9732C41.5357 20.9732 41.3965 20.904 41.3965 20.8001C41.3617 20.7309 41.4661 20.5579 41.5357 20.5579C41.8141 20.4541 42.0577 20.3849 42.2317 20.1081C42.3013 20.0042 42.5796 19.9696 42.7536 20.0042C42.7884 20.0042 42.7884 20.0388 42.8232 20.0388C42.858 20.1427 42.8928 20.3157 42.9276 20.4195ZM42.8928 30.4548C42.858 30.524 42.8232 30.6278 42.7884 30.6278C42.7536 30.6624 42.6492 30.5932 42.4404 30.4894C42.5796 30.4202 42.6492 30.3164 42.684 30.3164C42.7536 30.3164 42.8232 30.3856 42.8928 30.4548ZM41.6053 22.2189C41.9881 22.1151 42.1969 22.2189 42.3012 22.5996C42.4056 22.9456 42.0577 22.8418 41.9185 22.9456C41.5009 23.0494 41.4313 22.9802 41.3269 22.6342C41.2921 22.392 41.3965 22.2535 41.6053 22.2189ZM43.0668 29.1744C43.1016 29.1052 43.1712 29.0014 43.2408 29.0014C43.38 28.9668 43.9019 29.4513 43.9367 29.6243C43.9367 29.7281 43.9367 29.8319 43.9019 29.9357C43.8323 29.9011 43.7279 29.8665 43.6584 29.8665C43.4148 29.7627 43.1016 29.8665 43.1016 29.5205C43.0668 29.3475 43.032 29.2436 43.0668 29.1744ZM45.0503 22.7034C45.0851 22.6342 45.1546 22.6342 45.259 22.4958C45.259 22.4958 45.3286 22.4266 45.433 22.392C45.5374 22.3573 45.6418 22.3573 45.7462 22.3227C45.7462 22.4266 45.7462 22.5304 45.7462 22.6342C45.7462 22.738 45.3286 23.084 45.2242 23.084C45.1199 23.084 44.9807 23.0494 44.8763 23.0494C44.9459 22.9456 44.9807 22.8418 45.0503 22.7034ZM44.9807 21.7345C44.9459 21.596 44.8763 21.423 45.0851 21.3884C45.1894 21.3884 45.2938 21.4922 45.433 21.596C45.3634 21.7691 45.3286 22.0113 45.259 22.0459C45.0503 22.1151 45.0155 21.8729 44.9807 21.7345ZM46.0942 28.6208C46.1986 28.6208 46.2682 28.7592 46.3726 28.8284C46.4074 28.863 46.4074 28.9322 46.4074 29.0014C46.4074 29.0706 46.4422 29.1744 46.4074 29.2783C46.3378 29.4167 46.1986 29.4859 46.0942 29.3475C46.0246 29.2436 45.955 29.1052 45.9202 28.9668C45.8854 28.8284 45.9202 28.6554 46.0942 28.6208ZM46.2334 23.8453C46.477 23.6377 46.5813 23.8453 46.6857 23.9838C46.9641 24.3298 46.9641 24.399 46.7553 24.572C46.477 24.8143 46.3378 24.7797 46.0942 24.5028C45.8854 24.2952 45.955 24.0876 46.2334 23.8453ZM45.7114 42.0819C45.6418 42.0127 45.5722 41.9781 45.5026 41.9435C45.5026 41.9435 45.5722 41.8051 45.607 41.8051C45.6766 41.8051 45.7462 41.8397 45.8158 41.8743C45.781 41.9435 45.7462 42.0127 45.7114 42.0819ZM46.8249 41.8743C46.7205 41.8397 46.5465 41.8743 46.477 41.8051C46.3378 41.5975 46.2334 41.3898 45.8854 41.4937C45.781 41.5283 45.5026 41.2168 45.4678 41.0438C45.433 40.94 45.6418 40.6631 45.781 40.5939C45.9202 40.5593 46.0942 40.7324 46.2682 40.8016C46.2334 40.8362 46.2334 40.8708 46.1986 40.8708C46.4074 41.0784 46.6161 41.286 46.7901 41.5283C46.8945 41.6321 46.8249 41.7705 46.8249 41.8743ZM46.9293 25.4718C46.7205 25.1949 46.7205 25.0565 47.0337 24.8143C47.1729 24.7105 47.3121 24.6759 47.4165 24.8489C47.6601 25.1603 47.9384 25.4372 48.182 25.7486C48.356 25.9908 48.1472 26.0946 48.008 26.2331C47.8689 26.3715 47.6949 26.4407 47.5557 26.2331C47.4165 26.0946 47.3121 25.9216 47.1729 25.7832C47.1729 25.7832 47.1729 25.7832 47.2077 25.7486C47.1033 25.6794 46.9989 25.5756 46.9293 25.4718ZM47.7297 21.2154C47.7297 21.25 47.7297 21.423 47.6601 21.4576C47.5209 21.5614 47.4861 21.6999 47.4861 21.8729C47.4861 21.9421 47.4165 22.0113 47.3469 22.0459C47.2773 22.0459 47.2077 22.0113 47.1729 21.9421C46.9641 21.6307 47.0685 21.0424 47.3469 20.8347C47.4861 20.7309 47.6601 20.8694 47.7297 21.2154ZM47.9732 18.5508C48.0776 18.4816 48.2516 18.5162 48.356 18.5508C48.3908 18.5508 48.4604 18.7239 48.4256 18.7585C48.356 18.8623 48.2168 18.9315 48.1124 19.0353C47.9384 19.0007 47.6949 19.0007 47.6601 18.8969C47.5209 18.6547 47.8341 18.6547 47.9732 18.5508ZM47.8341 28.4823C47.8341 28.517 47.6601 28.5862 47.6601 28.5516C47.5557 28.4823 47.5209 28.3439 47.4513 28.2401C47.4513 28.1017 47.4513 27.9979 47.5209 27.8941C47.5209 27.8595 47.7297 27.8595 47.7297 27.8595C47.7297 28.1017 47.7993 28.3093 47.8341 28.4823ZM48.5996 34.8496C48.5648 34.8842 48.4604 34.9188 48.3908 34.9188C48.356 34.9188 48.2864 34.8842 48.2516 34.8842C48.2864 34.815 48.3212 34.7458 48.356 34.7458C48.4256 34.7112 48.53 34.7112 48.5996 34.7112C48.5996 34.7458 48.6344 34.8496 48.5996 34.8496ZM48.9476 34.0537C48.9128 34.0883 48.8084 34.0883 48.7388 34.0883C48.7388 34.0191 48.7388 33.9153 48.7736 33.8807C48.8084 33.8461 48.9128 33.8461 49.0172 33.8114C48.9824 33.9499 48.9824 34.0191 48.9476 34.0537ZM49.4695 31.9774C49.3999 32.012 49.3304 32.0466 49.226 32.0466C48.6692 32.185 48.1124 32.3235 47.5905 32.4619C47.4165 32.4965 47.2773 32.5311 47.2077 32.3235C47.1381 32.1158 47.2077 31.7698 47.3469 31.7352C47.4513 31.666 47.5905 31.666 47.7297 31.6314C47.7297 31.5968 47.7297 31.5968 47.7645 31.5622C47.9732 31.5968 48.2168 31.666 48.4256 31.7006C48.6344 31.7352 48.8432 31.7006 49.052 31.7006C49.1564 31.7006 49.2608 31.6314 49.3999 31.6314C49.5043 31.6314 49.5739 31.7352 49.6435 31.7698C49.5739 31.839 49.5391 31.9428 49.4695 31.9774ZM50.1655 36.8566C50.0611 36.8913 49.9219 36.822 49.8523 36.822C49.7479 36.5798 49.4695 36.4068 49.7479 36.2338C49.9915 36.0607 50.0959 36.3722 50.2003 36.476C50.3047 36.6144 50.3395 36.7528 50.1655 36.8566ZM50.4439 40.8362C50.3743 40.8362 50.3047 40.8016 50.2351 40.767C50.2699 40.7324 50.2699 40.6285 50.3047 40.6285C50.3743 40.5939 50.4439 40.6285 50.5483 40.6631C50.5135 40.767 50.4787 40.8362 50.4439 40.8362ZM50.9658 31.5968C50.8266 31.666 50.6527 31.666 50.4787 31.7352C50.3395 31.7698 50.2003 31.8044 50.0611 31.8044C49.9915 31.8044 49.9219 31.7352 49.8523 31.666C49.8871 31.5968 49.9219 31.4929 49.9567 31.4929C50.2699 31.3891 50.5831 31.3199 50.8962 31.2507C50.9658 31.2507 51.0354 31.3545 51.105 31.3891C51.0702 31.4583 51.0354 31.5622 50.9658 31.5968ZM51.801 40.1787C51.7662 40.1441 51.7662 40.0749 51.7314 39.9711C51.8358 39.9711 51.9402 39.9711 51.9402 40.0057C51.975 40.0749 51.975 40.1441 51.975 40.2133C51.9054 40.2133 51.8358 40.2133 51.801 40.1787ZM52.7057 36.9259C52.6361 36.9951 52.4969 36.9605 52.3577 36.9605C52.3925 36.822 52.3925 36.7182 52.4273 36.5106C52.6013 36.5106 52.7405 36.5452 52.8797 36.5452C52.8101 36.6836 52.7753 36.8566 52.7057 36.9259ZM56.8466 29.7973C56.8814 29.7973 56.9858 29.8319 56.9858 29.8665C56.9858 29.9357 56.951 30.0049 56.9162 30.0396C56.8814 30.0049 56.8118 30.0049 56.603 29.9011C56.7422 29.8665 56.777 29.7973 56.8466 29.7973ZM56.0463 28.2055C56.2551 28.0325 56.3595 28.2747 56.4638 28.3785C56.4986 28.4131 56.5334 28.4477 56.5334 28.4823C56.5682 28.5862 56.6378 28.7592 56.603 28.8284C56.4639 29.0014 56.3595 28.8284 56.2551 28.7592C56.2203 28.7246 56.2203 28.7246 56.1855 28.69C56.0463 28.517 55.8375 28.3785 56.0463 28.2055ZM55.7331 30.0049C55.8723 29.9703 55.9419 29.9357 56.0115 29.9703C56.0811 30.0049 56.1855 30.0396 56.2551 30.0742C56.2203 30.1434 56.1855 30.2472 56.1159 30.2818C56.0811 30.3164 56.0115 30.351 55.9419 30.351C55.8027 30.3856 55.5939 30.4894 55.5591 30.2472C55.5243 30.178 55.6983 30.0396 55.7331 30.0049ZM55.3155 30.9739C55.5939 30.7316 55.6635 30.7662 55.9071 31.0777C56.0115 31.2161 56.2203 31.3545 55.9767 31.5622C55.6983 31.8044 55.4895 31.7698 55.2459 31.5275C55.0719 31.2507 55.0719 31.1815 55.3155 30.9739ZM53.9584 23.6377C54.028 23.7069 53.9932 23.8107 54.028 23.8799C53.9236 23.8799 53.8192 23.9492 53.7844 23.8799C53.7148 23.8107 53.7148 23.7069 53.6452 23.5339C53.8192 23.6031 53.9236 23.5685 53.9584 23.6377ZM53.2973 28.3785C53.3669 28.3093 53.5757 28.3439 53.6452 28.3785C53.8888 28.5862 54.0976 28.863 54.3412 29.1052C54.55 29.3475 54.724 29.5551 54.9328 29.7973C55.1067 30.0049 55.0719 30.1434 54.898 30.2818C54.724 30.4202 54.55 30.5586 54.3412 30.3164C54.1324 30.0742 53.9236 29.8319 53.7148 29.5897C53.5757 29.4513 53.4365 29.3129 53.6105 29.0706C53.7148 28.8976 53.6105 28.7938 53.4017 28.7938C53.2973 28.7938 53.1581 28.7592 53.0537 28.7246C53.1233 28.6208 53.1929 28.4823 53.2973 28.3785ZM52.7405 30.8009C52.7753 30.9393 52.7753 31.0085 52.7405 31.0777C52.8449 31.2161 52.9841 31.2853 53.1929 31.2161C53.3669 31.1815 54.2716 32.185 54.202 32.3235C54.0976 32.5311 54.0976 32.6695 54.202 32.8771C54.2368 32.9117 54.202 33.0155 54.1324 33.0501C54.0628 33.0848 53.9584 33.1194 53.9236 33.0501C53.7148 32.8425 53.5061 32.7041 53.2277 32.7733C52.7753 32.2542 52.3229 31.7698 51.8706 31.2507C51.8706 31.2507 51.8358 31.2161 51.8706 31.2161C52.149 30.524 51.453 30.351 51.2094 29.9357C51.1746 29.8665 51.0702 29.7973 51.0006 29.7973C50.4439 29.9011 50.3395 29.4167 50.0611 29.1398C49.9915 29.0706 50.0263 28.9322 50.0263 28.8284C50.0959 28.5862 50.0263 28.4823 49.7827 28.517C49.5391 28.5516 49.4695 28.4477 49.5043 28.2055C49.5391 28.1017 49.5043 27.9287 49.3999 27.8249C49.226 27.5826 49.0172 27.3404 48.8084 27.0982C48.6692 27.202 48.5648 27.375 48.3908 27.1674C48.356 27.1328 48.356 26.9944 48.3908 26.9598C48.5996 26.7867 48.6692 26.9944 48.7736 27.0982C48.9128 26.9944 49.0172 26.8559 49.1912 26.9944C49.2608 27.029 49.3652 27.029 49.4695 27.029C49.8175 27.029 50.1307 27.3404 50.0959 27.6864C50.0959 27.7903 50.0611 27.9633 50.1307 28.0325C50.4091 28.3785 50.6875 28.7246 50.9658 29.0706C51.105 29.209 51.2094 29.3821 51.4878 29.2783C51.6618 29.209 51.801 29.3821 51.6966 29.5551C51.5922 29.7973 51.6966 29.9357 51.8358 30.0742C51.9402 30.2126 52.0446 30.351 52.149 30.4548C52.5317 30.4202 52.6361 30.4894 52.7405 30.8009ZM51.2442 27.9979C51.279 27.9287 51.3138 27.8595 51.3138 27.8595C51.3486 27.8595 51.4182 27.8941 51.453 27.9287C51.4182 27.9633 51.4182 28.0325 51.3834 28.0325C51.3486 28.0671 51.279 28.0325 51.2442 27.9979ZM51.627 26.5445C51.3486 26.7867 51.2442 26.7867 51.0354 26.5445C50.7571 26.1985 50.7571 26.06 51.0354 25.8524C51.279 25.6448 51.3486 25.6794 51.627 25.9908C51.8706 26.2331 51.8706 26.3023 51.627 26.5445ZM50.931 20.0042C51.1746 19.7966 51.279 19.7966 51.453 20.0388C51.6966 20.3157 51.6618 20.4195 51.4182 20.6617C51.1746 20.8694 51.105 20.8347 50.8962 20.5925C50.6875 20.3157 50.6875 20.2119 50.931 20.0042ZM50.1307 21.423C50.2003 21.423 50.3047 21.4922 50.3395 21.5614C50.3395 21.596 50.2699 21.7345 50.2351 21.7345C50.1655 21.7345 50.0959 21.6653 49.9567 21.6307C50.0263 21.5268 50.0959 21.423 50.1307 21.423ZM49.226 18.5508C49.2608 18.5855 49.2608 18.5855 49.2956 18.6201C49.3652 18.6201 49.4347 18.5855 49.5043 18.5855C49.6783 18.6201 49.9915 18.6201 49.9915 18.6547C50.0263 18.8969 49.7479 18.8969 49.6087 19.0007C49.5739 19.0353 49.4695 19.0353 49.4347 19.0353C49.2608 19.0353 49.0172 19.1045 48.9824 18.8969C48.9128 18.7931 49.1216 18.6547 49.226 18.5508ZM48.878 22.738C49.1216 23.0148 49.1216 23.084 48.878 23.2917C48.6344 23.4993 48.5648 23.4993 48.356 23.2917C48.1124 23.0148 48.1124 22.9456 48.356 22.738C48.5996 22.4958 48.6692 22.5304 48.878 22.738ZM48.182 16.7514C48.356 16.7514 48.4952 16.7514 48.5996 16.7514C48.5648 16.8552 48.53 16.9936 48.4604 17.0629C48.356 17.1667 48.2168 17.3051 48.1124 17.1321C48.0776 17.0629 48.1472 16.9244 48.182 16.7514ZM47.9037 17.0975C47.9733 17.2359 48.008 17.4435 48.008 17.5819C48.008 17.5819 47.7993 17.6511 47.7297 17.6165C47.6253 17.5819 47.5557 17.4781 47.4861 17.4089C47.4165 17.3397 47.3121 17.2705 47.2077 17.2013C47.3121 17.1321 47.3817 17.0283 47.4861 16.959C47.6601 17.0283 47.8341 17.0283 47.9037 17.0975ZM46.2682 14.7444C46.3378 14.7444 46.4074 14.779 46.5118 14.779C46.6161 14.779 46.6857 14.8136 46.7901 14.779C47.1033 14.7444 47.2077 14.952 47.2773 15.1596C47.3121 15.2288 47.1729 15.4018 47.1033 15.5057C46.9293 15.6787 46.7901 15.5749 46.6161 15.471C46.5465 15.4364 46.477 15.3672 46.4074 15.3326C46.3726 15.2288 46.303 15.125 46.2682 15.0212C46.2334 14.9174 46.2682 14.8136 46.2682 14.7444ZM46.129 19.3468C46.1986 19.416 46.4074 19.3814 46.5466 19.3814C46.7205 19.3468 46.8597 19.2775 47.0337 19.2775C47.1033 19.2775 47.2077 19.3468 47.3121 19.416C47.2425 19.4852 47.2077 19.589 47.1381 19.6582C47.1033 19.6928 46.9989 19.6928 46.9641 19.6928C46.6509 19.762 46.3726 19.8658 46.0594 19.9004C45.781 19.935 45.5026 20.0388 45.2938 19.762C45.259 19.7274 45.2242 19.7274 45.1546 19.6928C45.0503 19.6236 44.9459 19.589 44.8763 19.5198C44.9807 19.4506 45.0503 19.3468 45.1894 19.3121C45.4678 19.1737 45.8158 19.0007 46.129 19.3468ZM44.7023 18.1702C44.7371 18.1702 44.8763 18.2394 44.8763 18.274C44.8763 18.3432 44.8067 18.447 44.7371 18.4816C44.7023 18.5162 44.5979 18.4124 44.4935 18.3778C44.5979 18.274 44.6327 18.2048 44.7023 18.1702ZM44.6327 21.596C44.7719 21.7691 44.8763 21.9767 44.9807 22.1843C44.9807 22.1843 44.9459 22.2535 44.9111 22.2535C44.7023 22.2189 44.4587 22.2535 44.2499 22.1843C44.2499 22.3227 44.2151 22.392 44.0759 22.4958C43.9367 22.5996 43.7975 22.738 43.6931 22.8418C43.5888 22.6688 43.5192 22.5304 43.4148 22.3573C43.38 22.2881 43.2756 22.2535 43.206 22.2189C43.1364 22.1843 43.0668 22.1151 42.9972 22.0459C43.0668 21.9767 43.1364 21.8729 43.206 21.8383C43.3104 21.7691 43.4496 21.7345 43.4844 21.7345C43.9019 21.6307 44.0759 21.6653 44.1803 21.8037C44.2151 21.7345 44.2847 21.6999 44.3195 21.6307C44.3891 21.6307 44.5631 21.5614 44.6327 21.596ZM43.8671 20.6963C43.9715 20.8001 44.0759 20.904 44.1455 21.0424C44.1803 21.1116 44.1455 21.25 44.1455 21.3538C44.0411 21.3538 43.9367 21.3192 43.8323 21.2846C43.7627 21.25 43.7627 21.1808 43.6236 21.0424C43.6584 21.077 43.554 21.0078 43.554 20.9386C43.5192 20.8694 43.5192 20.7309 43.5888 20.6963C43.6584 20.6617 43.8323 20.6617 43.8671 20.6963ZM43.6236 19.8658C43.5888 19.935 43.5192 20.0042 43.4844 20.0042C43.4148 20.0388 43.3104 19.9696 43.1712 19.9696C43.3104 19.8658 43.3452 19.762 43.4148 19.762C43.4844 19.762 43.554 19.8312 43.6236 19.8658ZM42.7884 15.9901C42.9972 15.8517 43.1364 15.9555 43.2408 16.1285C43.4148 16.3362 43.3452 16.44 43.0668 16.6476C42.8232 16.8206 42.7188 16.6822 42.5796 16.5092C42.4752 16.3362 42.5448 16.1631 42.7884 15.9901ZM42.3012 15.4364C42.336 15.471 42.4056 15.5057 42.4056 15.5057C42.4056 15.5403 42.3708 15.6095 42.336 15.6441C42.3013 15.6095 42.2317 15.6095 42.2317 15.5749C42.2665 15.5403 42.3012 15.5057 42.3012 15.4364ZM42.0229 18.5162C42.0925 18.5855 42.1621 18.6547 42.2664 18.7585C42.336 18.8623 42.4404 18.9661 42.51 19.1391C42.5448 19.2083 42.5448 19.3121 42.51 19.3468C42.4752 19.3814 42.3708 19.3814 42.3012 19.3814C42.1969 19.3814 42.0925 19.2775 42.0229 19.3121C41.8489 19.416 41.6401 19.5198 41.5357 19.2429C41.4313 19.0007 41.3269 18.7585 41.5705 18.5162C41.7097 18.3432 41.8489 18.3086 42.0229 18.5162ZM41.4661 17.8934C41.5705 18.0318 41.5357 18.1356 41.3965 18.2048C41.2573 18.274 41.0833 18.3432 40.9093 18.3778C40.8745 18.3432 40.8398 18.3086 40.8398 18.274C40.9441 18.1356 41.0137 17.9626 41.1529 17.8242C41.2573 17.6857 41.3617 17.7549 41.4661 17.8934ZM40.7354 15.7825C40.7702 15.7479 40.9441 15.8517 40.9441 15.9209C40.9441 15.9901 40.8745 16.0939 40.8398 16.1631C40.805 16.1977 40.7006 16.0939 40.5614 16.0247C40.5962 15.9209 40.6658 15.8171 40.7354 15.7825ZM40.9093 17.2013C40.9441 17.2705 40.9441 17.4089 40.9441 17.5127C40.8398 17.5127 40.7006 17.5127 40.631 17.4435C40.4918 17.3397 40.3526 17.2013 40.2482 17.0629C40.109 16.8898 40.0046 16.7168 39.7262 16.8206C39.587 16.8552 39.2043 16.5092 39.2391 16.4054C39.3087 16.2323 39.4479 16.0593 39.587 15.8863C39.6218 15.8517 39.7958 15.9209 39.8654 15.9901C40.0394 16.1631 40.1786 16.3708 40.3526 16.5438C40.5266 16.786 40.7354 16.9936 40.9093 17.2013ZM39.4826 12.2182C39.7262 12.0452 39.8306 12.0452 40.0394 12.322C40.2134 12.5297 40.1786 12.6335 39.935 12.8411C39.761 12.9795 39.587 13.0487 39.4479 12.8411C39.2391 12.5643 39.2391 12.4605 39.4826 12.2182Z" fill="#FEFEFE"/>
</svg>
