<svg width="15" height="15" viewBox="0 0 15 15" fill="none" xmlns="http://www.w3.org/2000/svg">
<g clip-path="url(#clip0_0_1467)">
<path d="M8.025 7.35C8.025 7.275 8.1 7.125 8.1 6.975C8.175 6.975 8.175 7.05 8.25 7.05V6.75H6.75V8.475C6.825 8.55 6.9 8.625 6.9 8.7C6.9 8.7 6.825 8.85 6.75 8.925V11.25H8.25V7.725C8.175 7.575 8.025 7.5 8.025 7.35ZM7.95 10.95C7.95 11.025 7.8 11.025 7.725 11.025C7.65 11.025 7.575 10.95 7.575 10.95C7.5 10.725 7.875 10.275 8.025 10.275C8.1 10.275 8.175 10.35 8.175 10.425C8.1 10.65 8.025 10.8 7.95 10.95Z" fill="#FEFEFE"/>
<path d="M6.75 5.1001V5.2501H7.275C7.125 5.1751 6.9 5.1751 6.75 5.1001Z" fill="#FEFEFE"/>
<path d="M0.449805 10.125C0.449805 9.975 0.374805 9.9 0.299805 9.75C0.374805 9.825 0.449805 9.975 0.449805 10.125Z" fill="#FEFEFE"/>
<path d="M3.225 1.35C3.45 1.425 3.6 1.425 3.9 1.35C4.125 1.275 4.425 1.2 4.65 1.425C4.725 1.5 4.8 1.5 4.95 1.5C4.95 1.425 5.025 1.35 5.025 1.2C5.1 0.675 5.1 0.6 5.475 0.525C5.925 0.375 6.45 0.825 6.375 1.35C6.375 1.575 6.225 1.65 6.075 1.725C5.7 1.8 5.325 1.875 4.95 2.025C4.65 2.025 4.425 2.1 4.125 2.175C3.9 2.25 3.6 2.4 3.375 2.025C3.375 1.95 3.15 2.025 3.075 2.025C2.925 2.025 2.7 2.1 2.55 2.1C2.475 2.1 2.4 2.1 2.325 2.1L2.25 2.175C0.975 3.45 0.225 5.1 0 6.825C0.075 6.825 0.15 6.9 0.15 6.975C0.15 7.05 0.075 7.125 0.075 7.275C0.075 7.275 0 7.275 0 7.2C0 7.275 0 7.425 0 7.5V7.575C0.375 7.575 0.6 8.025 0.525 8.325C0.45 8.55 0.45 8.85 0.45 9.075C0.45 9.15 0.525 9.225 0.6 9.225C0.9 9.15 1.125 9.3 1.425 9.375C1.8 9.375 1.8 9.375 1.575 9.75C1.35 10.125 1.05 10.35 0.675 10.5C1.05 11.4 1.575 12.15 2.25 12.825C2.925 13.5 3.75 14.1 4.65 14.475C4.725 14.475 4.8 14.55 4.95 14.55C4.8 14.4 4.65 14.175 4.5 14.025C4.35 13.875 4.275 13.725 4.125 13.575C3.975 13.425 3.9 13.2 3.525 13.35C3.3 13.425 3.225 13.275 3.3 13.05C3.45 12.825 3.375 12.675 3.225 12.45C3.15 12.3 3 12.15 3.15 12.075C3.225 12 3.45 12.15 3.525 12.225C3.675 12.375 3.825 12.6 3.975 12.75C4.125 12.975 4.275 13.2 4.65 13.05C4.725 13.05 4.8 13.05 4.875 13.125C5.175 13.425 5.4 13.725 5.625 14.1C5.85 14.4 5.55 14.55 5.475 14.7C5.475 14.7 5.4 14.7 5.4 14.775C5.55 14.85 5.7 14.85 5.775 14.85C5.775 14.775 5.7 14.7 5.7 14.625C5.7 14.25 6 14.325 6.225 14.175C6.3 14.175 6.525 14.25 6.6 14.325C6.675 14.475 6.6 14.7 6.45 14.85C6.75 15 7.125 15 7.5 15C9.525 15 11.4 14.175 12.825 12.825C13.05 12.6 13.275 12.3 13.5 12C13.5 11.925 13.5 11.925 13.5 11.85H13.575C14.175 11.1 14.55 10.2 14.775 9.225C14.7 9.225 14.55 9.225 14.475 9.225C14.4 9.225 14.325 9.15 14.325 9.15C14.4 9.075 14.4 9 14.475 9C14.625 8.925 14.775 8.925 14.925 8.775C15 8.325 15.075 7.875 15.075 7.425C15.075 6.45 14.85 5.475 14.475 4.575C14.025 3.75 13.5 2.925 12.825 2.175C12.15 1.5 11.325 0.9 10.425 0.525C10.275 0.6 10.125 0.6 10.05 0.6C9.75 0.75 9.525 0.9 9.3 0.525C9.3 0.45 9.15 0.45 9.075 0.45C9 0.6 8.925 0.675 8.85 0.75C8.625 0.975 8.475 1.125 8.25 1.05C8.175 1.125 8.025 1.125 7.8 1.2C7.5 1.575 7.275 0.975 6.825 0.975C6.825 0.9 6.825 0.75 6.9 0.675C7.125 0.525 7.35 0.45 7.65 0.375C7.65 0.3 7.575 0.225 7.65 0.15C7.725 0.075 7.8 0.075 7.8 0C7.725 0 7.575 0 7.5 0C6.525 0 5.55 0.225 4.65 0.6C4.125 0.75 3.675 1.05 3.225 1.35ZM9.975 14.1C9.975 14.1 9.825 14.025 9.675 14.025C9.75 13.95 9.75 13.8 9.825 13.725C9.9 13.65 9.9 13.5 9.975 13.425C10.05 13.35 10.125 13.275 10.125 13.275C10.2 13.275 10.275 13.35 10.35 13.425C10.5 13.8 10.425 14.025 9.975 14.1ZM11.925 13.2L11.85 13.275C11.85 13.2 11.775 13.2 11.775 13.125C11.775 13.05 11.775 12.975 11.775 12.9C11.85 12.9 11.925 12.9 12 12.975C11.925 13.05 11.925 13.125 11.925 13.2ZM13.65 7.2C13.725 7.125 13.95 7.2 14.025 7.275C14.1 7.5 14.4 7.65 14.175 7.875C14.1 7.95 13.875 7.8 13.8 7.8C13.575 7.5 13.425 7.35 13.65 7.2ZM7.5 1.5C7.95 1.5 8.325 1.575 8.7 1.65C8.625 1.5 8.7 1.35 9 1.2C9.15 1.05 9.9 1.125 9.975 1.275C9.975 1.425 9.975 1.575 9.975 1.725C10.2 1.65 10.5 1.575 10.725 1.5C10.95 1.425 11.1 1.575 11.1 1.8C11.175 2.025 11.175 2.25 10.875 2.325C10.8 2.325 10.725 2.4 10.575 2.4C11.85 3.15 12.825 4.35 13.2 5.775C13.275 5.775 13.35 5.85 13.35 5.925C13.35 6 13.35 6.075 13.275 6.15C13.425 6.6 13.5 7.05 13.5 7.5C13.5 10.8 10.8 13.5 7.5 13.5C5.7 13.5 4.125 12.675 3 11.475C2.925 11.55 2.85 11.625 2.775 11.7C2.7 11.775 2.475 11.625 2.4 11.55C2.175 11.4 2.1 11.175 1.8 11.325L1.65 11.25C1.65 10.95 1.65 10.725 1.725 10.425L1.8 10.35C1.95 10.425 2.1 10.425 2.25 10.425C1.8 9.6 1.5 8.625 1.5 7.575C1.5 6.525 1.8 5.475 2.325 4.575C2.25 4.5 2.175 4.425 2.1 4.35C2.025 4.275 1.95 4.125 1.95 4.05C1.95 4.05 1.95 4.05 1.95 3.975C1.875 3.975 1.8 3.9 1.65 3.9C1.725 3.75 1.8 3.675 1.875 3.6C1.875 3.6 1.95 3.6 2.025 3.675C2.1 3.675 2.175 3.675 2.25 3.675C2.4 3.675 2.475 3.675 2.625 3.675C2.7 3.675 2.775 3.675 2.85 3.675L2.925 3.75C3.9 2.4 5.625 1.5 7.5 1.5Z" fill="#FEFEFE"/>
<path d="M6.975 3.825C7.05 3.9 7.2 3.825 7.35 3.825C7.425 3.825 7.5 3.9 7.575 3.9C7.575 3.975 7.575 4.05 7.5 4.125C7.275 4.5 7.05 4.5 6.75 4.125V4.575C6.9 4.5 7.2 4.425 7.275 4.575C7.425 4.725 7.575 4.725 7.725 4.725C7.725 4.65 7.725 4.65 7.725 4.575C7.8 4.575 7.875 4.5 7.95 4.5C7.95 4.5 8.025 4.575 8.1 4.575C8.025 4.65 8.025 4.725 7.95 4.8C7.95 4.8 7.875 4.8 7.8 4.875C7.8 5.1 7.8 5.25 7.65 5.325H7.8V5.25C7.8 5.175 7.95 5.25 8.1 5.175C8.1 5.25 8.1 5.25 8.1 5.325H8.25V3.75H6.825C6.9 3.75 6.9 3.75 6.975 3.825Z" fill="#FEFEFE"/>
</g>
<defs>
<clipPath id="clip0_0_1467">
<rect width="15" height="15" fill="white"/>
</clipPath>
</defs>
</svg>
