<svg width="70" height="70" viewBox="0 0 70 70" fill="none" xmlns="http://www.w3.org/2000/svg">
<path d="M29.7505 57.3958V57.3411C29.7505 57.3411 29.6947 57.3958 29.7505 57.3958C29.6389 57.5601 29.5831 57.7243 29.5273 57.8338C29.6389 57.8338 29.6947 57.8886 29.8063 57.9433C29.6947 57.7791 29.6947 57.5601 29.7505 57.3958Z" fill="#FEFEFE"/>
<path d="M29.1923 27.657C29.2481 27.7118 29.3039 27.7665 29.3039 27.8213C29.6386 27.5475 29.9733 27.219 30.2523 26.8905C29.6944 26.781 29.1365 26.6715 28.5786 26.562C28.5786 26.7263 28.5786 26.8358 28.6344 26.9453C28.746 27.219 29.0249 27.438 29.1923 27.657Z" fill="#FEFEFE"/>
<path d="M40.8561 28.0408C41.6374 28.6433 41.8048 29.7386 41.191 30.5053C40.8561 30.9982 40.2422 31.2173 39.6842 31.1625C39.5726 31.4364 39.461 31.7102 39.3493 31.984C39.0703 31.765 38.8471 31.6007 38.5681 31.3816C38.5122 31.3268 38.4564 31.2721 38.4006 31.2173C38.289 31.053 38.1774 30.9435 38.0658 30.7792C38.01 30.7244 38.01 30.6696 37.9542 30.6149C37.8984 30.7244 37.8426 30.8339 37.7868 31.053C37.5635 30.8339 37.3961 30.6696 37.3961 30.5601C37.3961 30.4506 37.5635 30.341 37.6752 30.1767C37.731 30.2315 37.7868 30.2315 37.8426 30.2863C37.8426 30.1767 37.8426 30.122 37.8984 30.0124C37.5635 29.6838 37.2287 29.3005 36.9497 28.9171C36.8939 28.9171 36.8939 28.9171 36.8381 28.9171C36.6706 28.9171 36.4474 28.8076 36.3358 28.6433C36.0568 28.3694 35.8335 28.0408 35.5545 27.767C35.0522 27.8218 34.55 27.767 34.1035 27.7122C34.0477 27.8765 33.9361 27.9861 33.8245 28.1504C33.8803 28.1504 33.8803 28.1504 33.9361 28.1504C34.271 28.1504 34.6616 28.6433 34.6058 29.0814C34.55 29.6291 34.6616 29.7386 35.1639 29.7386C35.4987 29.7386 35.6103 30.0124 35.4987 30.2863C35.3871 30.6149 35.5545 30.7244 35.8893 30.7792C36.4474 30.8339 36.7822 31.2173 36.7264 31.765C36.7264 32.0936 36.7822 32.2031 37.0613 32.2031C37.2287 32.2031 37.3961 32.2031 37.5077 32.3126C37.9542 32.7508 38.3448 33.1889 38.7913 33.6271C38.7913 33.408 38.7355 33.2437 38.7355 33.0246C38.7355 32.8056 38.5681 32.5865 38.5681 32.3674C38.5681 32.2031 38.6797 32.0388 38.7355 31.8745C38.8471 31.984 39.0145 32.0936 39.0703 32.2031C39.1819 32.4222 39.1819 32.696 39.2935 32.9151C39.3493 33.1889 39.461 33.4628 39.8516 33.5175C39.9074 33.5175 39.9074 33.5175 39.9632 33.5723C39.9632 33.4628 39.9632 33.408 39.9632 33.2985C39.9632 33.1889 39.9632 33.0246 39.9632 32.9151C39.9074 32.5317 40.1864 32.0936 40.5771 32.0936C40.8003 32.0936 41.0235 32.2579 41.191 32.4222C41.5258 32.696 41.3026 32.9699 41.0793 33.2437C41.0235 33.2985 40.9119 33.408 40.8561 33.4628C40.7445 33.5175 40.5771 33.6271 40.4655 33.6818C40.3539 33.9009 40.2422 33.9009 40.1864 33.9009C40.3539 34.0652 40.5213 34.2843 40.8003 34.2843C40.8003 34.3938 40.8003 34.5581 40.7445 34.6129C40.4655 34.7772 40.1306 34.9415 39.7958 35.1058C39.74 35.1058 39.74 35.1058 39.6842 35.1058C39.6842 35.2153 39.6842 35.3248 39.6284 35.4344C39.5168 35.7082 39.74 35.8725 40.0748 35.9273C40.9119 36.0368 41.749 36.9678 41.8048 37.7893C41.8606 38.6656 42.8652 40.0348 43.6464 40.3086C43.7581 40.3634 43.9255 40.2539 44.0371 40.3086C44.2045 40.3634 44.4277 40.3634 44.5393 40.4729C44.651 40.6372 44.8184 40.8015 44.93 40.9658C44.9858 40.9111 45.0416 40.9111 45.0416 40.9111C45.5997 40.8015 45.8787 40.9658 45.9903 41.404C46.0461 41.623 45.9903 41.8421 45.8229 42.0064C46.1019 42.335 46.4368 42.6636 46.7158 43.047C46.8274 43.2113 46.939 43.3756 46.9948 43.5399C47.0506 43.6494 47.0506 43.8685 46.9948 43.978C46.939 44.0328 46.7716 44.0328 46.66 44.0328C45.8787 44.0328 45.2648 43.7589 45.0416 43.2113C44.8184 42.9374 44.651 42.7731 44.5393 42.6088C44.3161 42.3898 44.2045 42.1707 44.3719 41.8421C44.5393 41.5683 44.3719 41.2944 44.0929 41.404C43.5906 41.5683 43.3674 41.2944 43.2 40.9658C42.8093 40.1991 42.1397 39.6514 41.5258 39.049C41.3026 38.8299 41.1352 38.6108 40.8003 38.7751C40.5213 38.8847 40.3539 38.6656 40.4097 38.3918C40.4655 37.9536 40.5213 37.5155 40.5213 37.0774C40.5213 37.0226 40.2981 36.8583 40.2422 36.9131C39.7958 37.1321 39.6284 36.8035 39.4052 36.5297C39.1261 36.2011 38.7913 35.8725 38.4564 35.5439C38.3448 35.4344 38.1216 35.3248 37.8984 35.3248C37.8426 35.3248 37.731 35.3248 37.6752 35.2701C37.6193 35.4344 37.3961 35.5439 37.0055 35.6534C36.9497 35.6534 36.7822 35.5987 36.559 35.5439C36.6148 35.3796 36.6706 35.2701 36.7264 35.1058C36.7822 34.8867 36.8381 34.7224 36.8939 34.5033C36.8939 34.3938 36.8939 34.339 36.8939 34.2295C37.0055 33.9009 36.8381 33.6818 36.6706 33.4628C36.28 32.9699 35.8893 32.5317 35.4987 32.0388C34.6616 31.1078 33.8803 30.1767 33.0432 29.2457C32.6526 29.7386 32.2061 30.1767 31.7039 30.6149C31.9829 30.9435 32.2619 31.2721 32.4851 31.5459C32.9874 32.1483 33.5455 32.7508 34.0477 33.3532C34.1593 33.5175 34.2151 33.7366 34.1593 33.9009C34.0477 34.1747 33.7687 34.0652 33.5455 34.0652C33.2106 34.0652 32.9316 34.2295 32.6526 34.3938C32.3177 34.6129 32.0945 34.8867 31.7597 35.1058C31.6481 35.2153 31.3132 35.2153 31.2016 35.1058C30.9784 34.9415 30.6435 34.7224 30.811 34.339C30.8668 34.1747 30.9784 34.0104 31.09 33.8461C31.369 33.3532 31.2574 33.0246 30.7551 33.0246C29.8622 33.0246 29.5832 32.2579 29.081 31.8197C28.8577 31.6554 28.9693 31.4364 29.1368 31.2721C29.1926 31.2173 29.2484 31.1078 29.3042 31.053C29.081 30.9435 28.9135 30.7792 28.7461 30.5601C28.3555 30.0672 28.2997 29.4648 28.4671 28.9171C28.3555 28.8623 28.2439 28.8623 28.1881 28.8076C28.2439 28.7528 28.2439 28.698 28.2997 28.698C27.8532 28.2051 27.4068 27.6575 26.9603 27.1646C26.6813 26.836 26.6255 26.5621 26.7929 26.343C25.4535 26.1787 24.1142 26.0692 22.8306 26.0692C22.2168 26.2335 21.6587 26.3978 21.0448 26.5074C20.1519 27.6575 19.3706 28.7528 18.7009 29.6838C19.259 29.5743 19.9287 29.6291 20.0403 28.8076C20.0403 28.7528 20.3193 28.6433 20.4309 28.5885C21.0448 28.4242 21.6029 28.2051 22.2168 28.0408C23.1097 27.8218 24.0584 27.6575 24.9513 27.4932C25.2303 27.4384 25.5651 27.3289 25.7326 27.767C25.8442 28.0956 26.1232 28.4242 25.621 28.698C25.5651 28.7528 25.5093 28.8076 25.5093 28.8623C25.5651 29.3005 25.2861 29.4648 24.8955 29.4648H24.8397C24.728 30.0672 25.1187 30.341 25.5093 30.6696C25.7326 30.8887 25.9558 31.1625 26.0674 31.4364C26.1232 31.6007 26.0116 31.8745 26.0116 32.0936C25.5651 32.3674 25.2861 32.2579 25.0629 32.0388C24.8397 31.8197 24.5048 31.6554 24.8397 31.2721C25.1187 30.9435 24.8955 30.7244 24.728 30.5053C24.5606 30.2863 24.3374 30.122 24.0584 30.341C23.7793 30.5601 23.5561 30.3958 23.3887 30.1767C23.3329 30.0672 23.2213 30.0124 23.1655 29.9029C22.9422 30.0124 22.719 30.0672 22.4958 30.122C21.6029 30.341 20.71 30.4506 19.8171 30.6696C19.6497 30.7244 19.4822 30.7792 19.3148 30.8339C18.8684 30.9435 18.3661 31.1625 17.9197 31.2173C17.808 31.2173 17.6964 31.2173 17.6406 31.2173C17.529 31.3816 17.3616 31.5459 17.25 31.7102C17.3616 31.6554 17.529 31.6554 17.6406 31.7102C18.1987 31.9293 18.5335 32.5865 18.4219 33.2437C18.3661 33.5723 18.5335 33.7366 18.8126 33.6271C19.2032 33.4628 19.4264 33.6818 19.5939 33.9557C19.8729 34.2843 20.0961 34.5581 20.3751 34.8867C20.5984 35.1605 20.8774 35.3796 20.5984 35.763C20.5426 35.8725 20.7658 36.1463 20.8216 36.3654C20.8774 36.5845 20.9332 36.8035 20.989 36.9678C20.7658 37.0226 20.5426 37.0774 20.3193 37.0774C20.0403 37.0774 19.8171 36.9678 19.538 36.9131C19.3148 36.9131 19.1474 36.9678 18.9242 36.9678C18.8126 36.9678 18.5893 36.9131 18.5335 36.8035C18.4777 36.694 18.5335 36.4749 18.6451 36.4202C18.7568 36.2559 18.98 36.1463 19.1474 35.982C19.259 35.8725 19.3706 35.8177 19.4822 35.7082C19.6497 35.5987 19.7613 35.4891 19.7613 35.3248C19.7055 35.3248 19.5939 35.3796 19.4822 35.4344C19.259 35.4344 18.9242 35.4344 18.6451 35.4344C18.4219 35.4344 18.2545 35.2153 18.4777 35.1058C18.8126 34.9415 19.1474 34.8319 19.4822 34.7224C19.2032 34.4486 19.0916 34.4486 18.6451 34.7224C18.4219 34.8867 18.1429 35.051 17.9197 35.2153C17.529 35.4891 17.3058 35.3796 17.0268 35.051C16.7477 34.7772 16.6361 34.5033 16.9709 34.1747C17.0826 34.0652 17.1942 34.0104 17.25 33.9009C17.3616 33.9009 17.3616 33.7914 17.3616 33.6818C17.3616 33.6271 17.1942 33.5723 17.0826 33.5723C16.6361 33.5723 16.3013 33.3532 16.078 33.0246C14.7945 34.7772 13.9016 35.9273 13.3435 36.694C13.4551 36.7488 13.6226 36.8035 13.7342 36.8583C13.9016 36.9131 14.1248 36.9678 14.2364 37.0774C14.5155 37.3512 14.7945 37.6798 15.0735 37.9536C15.1293 37.8989 15.1293 37.8989 15.1293 37.8441C15.1851 37.8989 15.3526 37.9536 15.3526 38.0084C15.3526 38.0632 15.3526 38.1179 15.2968 38.1727C15.8548 38.7204 16.4129 39.3228 16.9151 39.8705C17.25 40.1991 17.6406 40.5825 17.1384 41.0754C17.0826 41.1301 17.0826 41.2397 17.1384 41.2944C17.4174 41.7873 18.0313 41.1849 18.3661 41.5683C18.4777 41.404 18.6451 41.2397 18.6451 41.1301C18.6451 40.9111 18.5335 40.5825 18.8684 40.5825C19.0916 40.5825 19.3706 40.8015 19.538 41.0206C19.7613 41.2397 19.7055 41.4587 19.4822 41.623C19.0916 41.8969 18.8684 42.1159 19.0916 42.6636C19.2032 42.9374 19.0916 43.3756 19.0358 43.7042C19.0358 43.8137 18.8684 43.978 18.8126 43.978C18.3661 43.9232 17.9197 43.8685 17.4732 43.7042C17.1942 43.5946 16.9709 43.2113 16.7477 42.9922C16.5245 42.7731 16.4129 42.5541 16.6361 42.2255C16.8035 41.9516 16.6361 41.6778 16.2455 41.6778C15.4642 41.623 15.3526 41.5683 15.4642 40.7468C15.4642 40.4182 14.9061 39.761 14.5713 39.8157C14.0132 39.8705 13.8458 39.8157 14.1248 39.2681C14.2922 38.8847 13.6784 38.2275 13.2319 38.2275C12.8413 38.2275 12.618 38.1179 12.5064 37.8989C12.339 38.1179 12.339 38.0632 12.339 38.1179C12.1158 38.4465 11.9484 38.7204 11.7251 39.049L11.7809 39.1038C11.8368 39.2681 11.8926 39.4324 12.0042 39.6514C12.06 39.9253 12.0042 40.0348 11.6693 39.98C11.5577 39.9253 11.3903 39.9253 11.2787 39.9253C7.76288 46.6616 9.60449 54.8766 15.52 59.5318C16.3013 59.3128 16.4687 59.4223 16.5803 60.2986C17.3058 60.7915 18.0871 61.2296 18.9242 61.5582C20.1519 62.1059 21.4355 62.5988 22.6632 63.0369C22.6074 62.7631 22.6074 62.544 22.8864 62.3797C22.998 62.3249 23.0539 62.1059 23.1097 61.9416C23.2771 61.5582 23.6677 61.5582 23.9468 61.613C24.1142 61.613 24.2258 61.9416 24.3374 62.1606C24.3932 62.2702 24.2816 62.4892 24.17 62.544C23.891 62.7631 23.5003 62.9274 23.3329 63.256C26.1232 64.187 28.9693 64.7347 31.8713 65.0085C31.8713 64.9538 31.8155 64.8442 31.8155 64.7895C31.8155 64.6799 31.7039 64.5156 31.7597 64.4061C31.8155 64.2966 31.9829 64.0775 32.0945 64.0775C32.541 64.0775 32.4851 64.5156 32.5968 64.7347C32.6526 64.7895 32.6526 64.9538 32.5968 65.0085C33.9361 65.1181 35.3313 65.1181 36.7264 65.0633C36.559 64.899 36.4474 64.7347 36.28 64.5704C36.1126 64.4061 35.9451 64.187 35.6661 64.0775C35.4429 64.2418 35.2197 64.5156 34.9406 64.6252C34.6058 64.7895 34.4384 64.5156 34.3826 64.2418C34.4384 63.9679 34.3268 63.5846 34.6058 63.5298C34.4384 63.3107 34.271 63.0917 34.1035 62.8726C33.9919 62.7631 34.2151 62.3797 34.3826 62.1606C34.4942 62.0511 34.7732 61.8868 34.829 61.9416C35.3313 62.2154 36.1126 62.1059 36.3358 62.7083C36.6148 63.0917 36.9497 63.3655 36.7264 63.8036C36.6706 63.9132 36.8381 64.187 36.9497 64.3513C37.1171 64.5704 37.3403 64.7895 37.5077 65.0633C38.6239 65.0085 39.6842 64.899 40.8003 64.6799C40.8003 64.6252 40.8561 64.6252 40.8561 64.5704C40.9677 64.5156 41.2468 64.5156 41.3584 64.5704C41.6374 64.5156 41.8606 64.4608 42.1397 64.4061C42.3071 64.0775 43.4232 63.7489 43.7023 63.9132C43.7581 63.968 43.8139 63.9679 43.8139 64.0227C44.2603 63.9132 44.7626 63.8036 45.209 63.6941C45.2648 63.5846 45.4881 63.4203 45.6555 63.3655C45.8787 63.256 46.1019 63.256 46.3252 63.2012C46.5484 63.1464 46.7716 63.0917 46.9948 63.0369C47.1623 62.9821 47.2739 62.9821 47.4413 63.0369C48.669 62.5988 49.8968 62.1606 51.1245 61.613C56.2029 59.3128 59.4397 54.7671 60.2768 49.7833C59.9977 49.8381 59.6629 49.9476 59.3839 50.0024C58.7142 50.1667 58.0445 50.3857 57.319 50.4953C56.6494 50.6048 56.5935 50.6596 56.7052 51.262C56.7052 51.3168 56.761 51.4263 56.761 51.4811C56.8168 51.7001 56.8726 51.9192 56.5935 51.974C56.4819 51.974 56.3145 51.8097 56.2587 51.6454C56.1471 51.4263 56.0913 51.3168 55.9797 51.2072V51.262C55.9239 51.3168 55.7564 51.262 55.6448 51.2072C55.589 51.1525 55.5332 51.0977 55.4216 50.9882C55.2542 50.9882 55.0868 51.0429 54.9194 51.0977C54.3613 51.262 53.7474 51.4263 53.1894 51.5358C53.1894 51.7001 53.1894 51.8097 53.1335 51.9192C52.9661 52.1383 52.6871 52.0288 52.5197 51.8097C52.4639 51.7549 52.4081 51.6454 52.2964 51.5906C52.0174 51.5359 51.6826 51.262 51.2919 51.0977C51.4035 50.9334 51.5152 50.8239 51.571 50.7143C51.2919 50.3857 51.0129 50.0571 50.6781 49.6738C50.5106 49.5095 50.399 49.3452 50.3432 49.1809C50.2874 49.1261 50.2316 49.1261 50.2316 49.0713C50.0642 48.8523 49.9526 48.6332 49.7294 48.5237C49.2271 48.3594 48.8364 48.688 48.8923 49.2356C48.8923 49.3999 48.9481 49.5642 48.8923 49.6738C48.8364 49.7833 48.6132 49.8381 48.5016 49.8928C48.2784 49.4547 47.6645 49.7285 47.4413 49.2356C47.4413 49.1809 47.1623 49.1261 47.0506 49.1261C46.8832 49.1261 46.7158 49.1809 46.6042 49.1809C46.3252 49.2356 46.1019 49.1809 46.0461 48.907C45.9903 48.6332 46.2135 48.5237 46.4368 48.4689C46.4926 48.4689 46.5484 48.4689 46.6042 48.4141C46.6042 48.4141 46.6042 48.4141 46.6042 48.4689C47.4413 48.2498 48.3342 48.0308 49.1713 47.8665H49.2271C49.1713 47.7569 49.1713 47.5926 49.1155 47.3736C49.3387 47.4283 49.5619 47.3736 49.6177 47.4831C49.6735 47.5379 49.6735 47.7022 49.6177 47.8117C50.0084 47.7569 50.399 47.7569 50.7897 47.9212C51.0129 48.0308 51.6826 47.8117 51.7384 47.6474C51.85 47.0997 52.2964 47.045 52.6871 46.9354C53.1335 46.8259 53.6358 46.7711 54.0823 46.7711C54.1939 46.7711 54.3055 46.8807 54.4171 46.9902C54.3613 47.0997 54.3055 47.264 54.1939 47.3188C53.9706 47.4283 53.6916 47.4831 53.4684 47.5926C53.1894 47.7022 52.8545 47.7569 52.7987 48.1403C52.7987 48.2498 52.6871 48.3594 52.5755 48.4141C51.9616 48.5784 51.5152 48.688 51.3477 49.2356C51.4035 49.3452 51.4594 49.3999 51.571 49.5095C51.7942 49.8381 52.0174 50.1119 52.2964 50.3857C52.3523 50.3857 52.3523 50.3857 52.4081 50.331C52.7987 50.2214 53.1894 50.2214 53.2452 49.6738C53.301 49.4547 53.58 49.3999 53.7474 49.5642C54.0264 49.8928 54.3055 49.7833 54.5845 49.6738C55.5332 49.4547 56.5377 49.2356 57.4865 49.0713C57.8771 49.0166 58.1561 48.907 58.4352 49.2904C58.6026 49.5642 58.8816 49.4547 58.9374 49.1809C59.049 48.7975 59.2723 48.7427 59.6071 48.6332C59.8861 48.5784 60.1652 48.4689 60.4442 48.4141C60.5 47.7569 60.5 47.045 60.5 46.3878C60.1652 46.4425 59.7745 46.4973 59.7187 47.045C59.7187 47.0997 59.2723 47.1545 59.2164 47.0997C58.9932 46.7164 58.6584 46.8259 58.3794 46.9354C57.6539 47.1545 56.8726 47.0997 56.2029 47.4831C56.0913 47.5926 55.9797 47.5926 55.9239 47.5926C55.6448 47.5926 55.2542 47.8665 55.1426 47.4283C54.9752 46.9354 55.4216 46.9902 55.7006 46.8807C55.9239 46.7711 56.1471 46.7164 56.2029 46.3878C56.2587 46.0044 56.5377 45.9496 56.8726 46.2235C57.1516 46.4425 57.2074 46.4973 57.4306 46.1687C57.5981 45.9496 57.9329 45.8401 58.2119 45.6758C58.5468 45.4567 58.7142 45.7853 58.9374 45.9496C59.2164 46.1139 60.0535 45.8949 60.4442 45.621C60.1652 43.047 59.2723 40.4729 57.6539 38.1727C57.6539 38.1179 57.9329 38.5561 48.669 26.0692C46.8274 25.9049 44.8184 26.0692 42.8652 26.343C42.9768 26.7264 42.7535 27.1098 42.1955 27.2741C41.8048 27.3836 41.4142 27.2193 41.0235 27.1646C40.9677 27.1646 40.9119 26.8907 40.9677 26.7812C40.9677 26.7264 41.0235 26.7264 41.0793 26.6717C40.6329 26.7812 40.1864 26.836 39.74 26.9455C40.019 27.2741 40.4097 27.7122 40.8561 28.0408ZM33.2106 31.8197C33.2106 31.8197 33.099 31.765 32.9874 31.765C33.0432 31.6554 33.099 31.6007 33.1548 31.5459C33.2106 31.5459 33.3222 31.6007 33.3222 31.6007C33.3222 31.7102 33.2664 31.765 33.2106 31.8197ZM22.2726 27.3836C22.1609 27.4384 21.8261 27.3836 21.7703 27.3289C21.6029 27.055 21.2122 26.7812 21.5471 26.4526C21.6587 26.3431 21.9935 26.5073 22.0493 26.5621C22.3842 26.8907 22.6074 27.1098 22.2726 27.3836ZM25.1187 26.6717C25.1187 26.7264 24.8955 26.6717 24.728 26.6717C24.7839 26.5073 24.7839 26.343 24.8397 26.2883C24.8955 26.2335 25.0629 26.2883 25.1745 26.2883C25.1187 26.3978 25.1745 26.5621 25.1187 26.6717ZM14.9061 36.5297C14.7387 36.5297 14.6271 36.3654 14.4597 36.2559C14.5713 36.0916 14.6829 35.9273 14.7945 35.8725C14.9061 35.8177 15.0735 35.982 15.2968 36.1463C15.1293 36.3654 14.9619 36.5845 14.9061 36.5297ZM18.1429 39.9253C18.0871 39.8705 18.0313 39.8705 18.0313 39.8157C18.0313 39.761 18.0871 39.761 18.0871 39.7062C18.1429 39.7062 18.1987 39.761 18.1987 39.761C18.1987 39.8157 18.1429 39.8705 18.1429 39.9253ZM11.1113 51.0429C11.0555 51.0977 10.9438 51.0977 10.7764 51.1525C10.7764 50.9882 10.7764 50.8786 10.8322 50.8239C10.888 50.7691 10.9997 50.8239 11.1113 50.8239C11.1113 50.8786 11.1113 50.9882 11.1113 51.0429ZM11.2229 44.1971C10.7764 44.1971 10.3858 44.0875 9.93933 44.0328C9.88353 44.0328 9.88353 43.9232 9.88353 43.9232C10.1068 43.6494 10.2742 43.3756 10.4974 43.1565C10.6648 43.047 10.9438 43.2113 11.0555 43.266C11.2229 43.5399 11.3345 43.6494 11.3345 43.8137C11.3903 43.9232 11.2787 44.1971 11.2229 44.1971ZM56.761 42.8279C56.9284 42.8827 57.04 42.8827 57.1516 42.8827C57.0958 42.9922 57.0958 43.1565 57.04 43.2113C56.9842 43.266 56.761 43.266 56.761 43.2113C56.7052 43.1565 56.761 42.9922 56.761 42.8279ZM56.6494 44.0875C56.761 44.0875 56.9842 44.1971 56.9842 44.3066C57.04 44.4161 56.9284 44.6352 56.8168 44.6352C56.3703 44.7447 55.8681 44.8543 55.3658 44.9638C55.31 44.9638 55.0868 44.8543 55.0868 44.7447C55.0868 44.6352 55.1426 44.4161 55.2542 44.3614C55.4774 44.2518 55.7006 44.2518 55.9239 44.1971C56.1471 44.1423 56.4261 44.0875 56.6494 44.0875ZM55.1984 38.6108C55.2542 38.6108 55.3658 38.7204 55.3658 38.7751C55.3658 38.7751 55.31 38.9395 55.2542 38.9395C55.1984 38.9395 55.0868 38.8847 54.9194 38.8299C55.0868 38.7204 55.1426 38.6108 55.1984 38.6108ZM54.4729 40.3086C54.5287 40.2539 54.9752 40.3086 54.9752 40.4182C55.031 40.5825 54.9193 40.8015 54.8635 41.0754C54.5287 41.0754 54.3055 41.0754 54.0264 41.0754C54.1939 40.8015 54.3055 40.5277 54.4729 40.3086ZM53.8032 44.7995C53.859 45.0733 53.9706 45.4019 53.58 45.5115C53.301 45.5662 53.0777 45.4567 53.0777 45.1829C53.0777 44.909 52.8545 44.4709 53.301 44.3066C53.6916 44.1423 53.6916 44.5804 53.8032 44.7995ZM51.85 33.1342C52.0174 33.1889 52.1848 33.1889 52.2406 33.2437C52.2964 33.3532 52.2406 33.5175 52.1848 33.6271C52.0732 33.5723 51.9058 33.5723 51.7942 33.5175C51.7384 33.4628 51.7942 33.2985 51.85 33.1342ZM51.9058 39.2681C52.0732 39.1585 52.2964 39.1038 52.5197 38.9942C52.6871 38.9942 52.9661 38.9942 53.1894 38.9942C53.58 39.049 53.58 39.1037 53.3568 39.4324C53.301 39.5419 53.1894 39.6514 53.1335 39.761C52.9661 40.3086 52.6313 40.5825 52.129 40.4182C51.9616 40.3634 51.7942 40.0896 51.6826 39.9253C51.6268 39.7062 51.571 39.4324 51.9058 39.2681ZM41.191 39.3776C41.3026 39.3776 41.4142 39.4324 41.5258 39.4871C41.47 39.5967 41.4142 39.761 41.3026 39.8157C41.2468 39.8705 41.0793 39.761 40.9119 39.6514C41.0793 39.5419 41.1352 39.3776 41.191 39.3776ZM34.6058 31.6007C34.7174 31.7102 34.8848 31.8197 34.9406 31.9293C34.9406 31.984 34.829 32.2579 34.7174 32.2579C34.6058 32.2579 34.4384 32.1483 34.1593 31.984C34.3826 31.8197 34.4942 31.7102 34.6058 31.6007ZM33.3222 48.0308C33.3781 48.0308 33.4339 48.0308 33.4897 48.0855C33.2664 47.7569 33.3222 47.6474 33.6571 47.3736C34.1035 46.9902 34.3826 47.045 34.7732 47.5379C34.9964 47.8117 34.9964 47.9212 34.55 48.3046C34.1035 48.688 33.9361 48.688 33.6013 48.1951C33.6571 48.3046 33.6571 48.3594 33.7129 48.4689C33.8245 48.7427 33.8245 49.0166 34.271 49.0166C34.7732 48.9618 35.1081 48.7975 35.1639 48.3594C35.2197 48.0855 35.3313 47.9212 35.6103 47.9212C35.8893 47.8665 36.1684 47.8117 36.4474 47.8117C36.8939 47.8117 37.3403 48.2498 37.3403 48.6332C37.3403 48.7427 37.1729 48.9618 37.0055 49.0166C36.7264 49.1261 36.3916 49.1809 36.1126 49.2356C35.8335 49.2904 35.6103 49.3452 35.4987 49.7285C35.3871 49.9476 34.9964 50.1119 34.7174 50.2214C34.3268 50.3857 33.8803 50.331 33.8245 50.9334C33.8245 51.0429 33.5455 51.1525 33.3781 51.2072C32.541 51.4263 31.6481 51.6454 30.811 51.8097C30.6435 51.8645 30.4203 51.7002 30.2529 51.6454C29.918 51.5359 29.8064 51.4263 29.639 51.4263C29.4158 51.4263 29.1368 51.5358 29.081 51.2072C29.0251 50.8786 28.9135 50.4953 29.36 50.2762C29.6948 50.1119 30.0297 50.0024 30.0855 49.5642C30.0855 49.5642 30.0855 49.5095 30.1413 49.5095C30.0297 49.5095 29.8622 49.5642 29.7506 49.619C29.6948 49.619 29.5274 49.5642 29.4158 49.4547C28.9135 48.907 28.4671 48.3594 27.9648 47.8117C27.5742 47.3188 27.5742 47.1545 28.0764 46.7711C28.2997 46.5521 28.4671 46.4973 28.8577 46.6068C29.3042 46.7711 29.8064 46.7711 30.2529 46.7711C30.6435 46.7711 30.811 46.8807 30.6993 47.264C30.5319 47.6474 30.6435 47.7569 31.09 47.7569C31.7597 47.7569 32.1503 48.3046 32.0387 48.907C31.8713 48.9618 31.8713 49.1261 31.8713 49.2356C31.8713 49.4547 31.7597 49.5642 31.5922 49.5642C31.8713 49.619 32.1503 49.5095 32.4293 49.4547C32.541 49.4547 32.6526 49.3999 32.7642 49.3999C33.4339 49.2356 33.4339 49.2356 33.3222 48.5784C33.3222 48.4689 33.2664 48.3046 33.2664 48.1951C33.2106 48.1403 33.2664 48.0308 33.3222 48.0308ZM35.1639 41.0206C35.2197 41.1301 35.1081 41.2944 35.0522 41.623C34.829 41.4587 34.6616 41.3492 34.6058 41.2397C34.4942 41.404 34.271 41.5135 34.1035 41.5135C33.8803 41.5683 33.4897 40.9111 33.5455 40.6372C33.5455 40.5825 33.6013 40.5825 33.6571 40.5277C34.0477 40.5825 34.3826 40.6372 34.7732 40.692V40.7468C34.9406 40.8563 35.1081 40.9111 35.1639 41.0206ZM33.7687 43.8137C33.9361 43.7042 34.1035 43.5946 34.271 43.5946C34.6616 43.4851 35.0522 43.4851 35.1639 42.9374C35.2755 42.4993 36.0568 42.4993 36.4474 42.8279C36.7264 43.047 37.1171 43.2113 37.5077 43.3756C37.5635 43.3756 37.731 43.1565 37.8426 43.047C38.0658 42.8279 38.2332 42.8279 38.4006 43.1017C38.5122 43.3756 38.6239 43.6494 38.6797 43.9232C38.7913 44.5257 38.7355 44.5804 37.9542 44.7447C37.8984 44.69 37.6751 44.6352 37.5077 44.5257C37.1171 44.3614 36.7264 44.0875 36.28 43.978C35.9452 43.9232 35.5545 43.9232 35.3313 44.3614C35.2755 44.4709 34.9406 44.6352 34.8848 44.5804C34.55 44.3066 34.2151 44.4161 33.8245 44.3614C33.6571 44.3614 33.5455 44.2518 33.4339 44.1971C33.5455 44.0328 33.6571 43.9232 33.7687 43.8137ZM38.6239 46.4425C38.5122 46.4973 38.289 46.4973 38.2332 46.4425C38.1774 46.3878 38.2332 46.1687 38.2332 45.9496C38.4564 46.0044 38.6239 46.0592 38.6797 46.1139C38.7355 46.1687 38.6797 46.4425 38.6239 46.4425ZM39.2377 47.7022C39.2935 47.7022 39.461 47.7022 39.461 47.7022C39.6284 48.1403 39.8516 48.5784 39.9074 49.0166C39.9632 49.3452 39.8516 49.4547 39.3493 49.5642C38.9029 49.7833 38.7355 49.3999 38.6239 49.0713C38.289 48.4141 38.5681 47.8117 39.2377 47.7022ZM26.4022 45.9496C26.5139 45.7853 26.5139 45.6758 26.5697 45.6758C26.6813 45.6758 26.7929 45.7306 26.9045 45.7853C26.8487 45.8401 26.8487 45.9496 26.7371 46.0044C26.6813 46.0044 26.5697 46.0044 26.4022 45.9496ZM26.458 49.6738C26.458 49.6738 26.2906 49.6738 26.1232 49.6738C26.1232 49.5095 26.1232 49.3999 26.179 49.2904C26.179 49.2356 26.4022 49.2904 26.458 49.3452C26.5139 49.4547 26.5139 49.5642 26.458 49.6738ZM27.0161 49.3999C27.1277 49.3452 27.0719 49.0713 27.1835 48.9618C27.2393 48.8523 27.351 48.6332 27.4068 48.6332C27.5742 48.688 27.7416 48.7975 27.7974 48.907C27.909 49.2904 28.0206 49.6738 28.1322 50.1119C28.2439 50.4405 28.3555 50.8239 28.4113 51.1525C28.4113 51.3168 28.4113 51.5906 28.2997 51.7002C28.1322 51.8645 27.909 51.7549 27.7974 51.5358C27.7974 51.4811 27.7416 51.4263 27.6858 51.4263C26.9045 51.3715 26.9603 50.7143 26.7929 50.2214C26.7371 49.8928 26.7371 49.619 27.0161 49.3999ZM32.3177 39.8157C32.3177 39.7062 32.4851 39.5419 32.541 39.4324C32.6526 39.4871 32.7642 39.5419 32.82 39.6514C32.8758 39.6514 32.9874 39.6514 33.0432 39.6514C33.0432 39.8157 32.9874 39.98 32.9874 40.2539C32.8758 40.2539 32.82 40.2539 32.7642 40.2539C32.7642 40.2539 32.7642 40.3086 32.7084 40.3086C32.7084 40.2539 32.6526 40.2539 32.6526 40.2539C32.541 40.2539 32.4293 40.2539 32.3177 40.2539C32.3735 40.1443 32.3735 40.0896 32.4293 39.98C32.3177 39.9253 32.3177 39.8705 32.3177 39.8157ZM32.0387 43.978C32.1503 44.0328 32.2619 44.0875 32.3735 44.1423C32.7642 44.3066 32.9316 44.6352 32.7642 45.0186C32.5968 45.3472 31.9829 45.5115 31.7039 45.402C31.5922 45.402 31.4806 45.402 31.3132 45.402C31.3132 45.3472 31.369 45.2924 31.369 45.2376C31.3132 45.2376 31.2574 45.1829 31.2016 45.1829C31.1458 45.3472 31.1458 45.5663 31.09 45.7306C31.09 45.8401 31.1458 46.0044 31.09 46.1139C31.0342 46.2235 30.7551 46.333 30.7551 46.333C30.2529 45.7306 29.6948 46.1139 29.1926 46.2235C28.9135 46.2782 28.6903 46.333 28.4113 46.2782C28.188 46.2235 28.0206 46.0592 27.7416 45.8949C27.7974 45.7853 27.7974 45.6758 27.8532 45.5663C27.5184 45.1829 27.9648 45.0186 28.1322 44.8543C28.2439 44.7447 28.3555 44.6352 28.4671 44.6352C28.5229 44.6352 28.6345 44.6352 28.7461 44.6352C28.8019 44.5804 28.8577 44.5257 28.9693 44.4709C29.0251 44.4161 29.1368 44.4161 29.1926 44.4161C29.5274 44.5804 29.918 44.7447 30.2529 44.909C30.6435 45.1281 30.811 45.0186 30.811 44.5804C30.811 44.3066 30.6993 43.978 31.09 43.8137C31.5364 43.5399 31.5922 43.5399 32.0387 43.978ZM28.5787 37.1321C28.4671 37.0774 28.2997 36.9678 28.1881 36.8583C28.1322 36.7488 28.1322 36.6392 28.0206 36.4202C28.0206 36.3654 27.9648 36.2559 27.9648 36.0916C27.9648 35.982 28.0764 35.8725 28.1322 35.8725C28.2439 35.8725 28.4113 35.8725 28.4671 35.982C28.5787 36.2011 28.7461 36.4202 28.8019 36.694C28.8019 36.8583 28.6345 37.0226 28.5787 37.1321ZM28.6345 40.9111C28.6345 40.9111 28.4671 40.9111 28.4113 40.9111C28.3555 40.8563 28.3555 40.7468 28.2997 40.5825C28.4671 40.6372 28.6345 40.6372 28.6345 40.692C28.6903 40.692 28.6345 40.8015 28.6345 40.9111ZM30.4203 42.0064C30.5319 42.0064 30.6435 42.1159 30.7551 42.2255C30.6993 42.335 30.6435 42.4993 30.5319 42.5541C30.4203 42.5541 30.3087 42.4445 30.0855 42.3898C30.2529 42.1707 30.3087 42.0064 30.4203 42.0064ZM30.2529 40.3086C30.3645 40.1443 30.4203 39.98 30.5319 39.9253C30.6435 39.9253 30.811 40.0348 30.8668 40.0896C30.9226 40.1991 30.811 40.3634 30.6993 40.4182C30.5877 40.4729 30.4203 40.3634 30.2529 40.3086ZM28.8577 32.6412L28.9135 32.696C28.8019 32.9699 28.6345 33.2985 28.4671 33.5723C28.4113 33.6818 28.1881 33.7366 28.1881 33.7366C28.0206 33.5723 27.909 33.408 27.7416 33.1889C27.7974 33.0246 27.8532 32.696 27.9648 32.696C28.2439 32.5865 28.5229 32.6412 28.8577 32.6412ZM27.63 29.6838C27.909 29.7386 28.1322 29.6838 28.2439 29.7934C28.5787 30.122 28.2439 30.2863 28.0206 30.5053C27.8532 30.6696 27.5742 30.9435 27.4068 30.6149C27.2951 30.3958 27.5184 30.0672 27.63 29.6838ZM26.6255 32.5865C26.6255 32.5865 26.6813 32.4769 26.7371 32.4769C26.9603 32.5865 27.2393 32.6412 27.4068 32.8056C27.5184 32.9151 27.5742 33.1889 27.5184 33.3532C27.2951 33.9009 27.2951 33.9009 27.9648 33.9557C28.3555 34.0104 28.7461 34.0104 29.081 34.12C29.4158 34.2843 29.7506 34.5581 29.6948 34.9962C29.639 35.3248 29.7506 35.3796 30.0855 35.3796C30.4761 35.3796 31.0342 35.763 31.0342 36.1463C31.0342 36.3106 30.8668 36.4749 30.811 36.694C30.4761 36.9678 30.1413 36.9678 29.8622 36.694C29.6948 36.5297 29.5274 36.4202 29.36 36.3106C28.9693 35.982 28.1322 35.7082 27.5742 35.763C27.2951 35.8177 27.0719 35.7082 27.1835 35.4344C27.4068 34.8319 27.1277 34.3938 26.7929 34.0104C26.4022 33.5723 26.7929 33.0794 26.6255 32.5865ZM26.179 33.0794C26.2906 33.0794 26.5139 33.2437 26.5139 33.3532C26.5139 33.4628 26.3464 33.7366 26.2906 33.7366C26.1232 33.7366 25.9558 33.6271 25.621 33.4628C25.9 33.2437 26.0116 33.0794 26.179 33.0794ZM25.3977 37.8441C25.2861 37.8441 25.0629 37.8989 24.8955 37.7893C24.6722 37.6798 24.8955 37.1321 25.2303 36.9678C25.3419 36.9131 25.6768 36.9131 25.7326 37.0226C26.0116 37.3512 25.7326 37.5703 25.3977 37.8441ZM24.8955 33.0794C25.0629 32.9699 25.1745 32.8603 25.2303 32.8603C25.3419 32.8603 25.3977 32.8603 25.5093 32.8603C25.5093 32.9699 25.5093 33.0794 25.4535 33.1342C25.3977 33.2437 25.3419 33.2985 25.2303 33.3532C25.0629 33.4628 24.8397 33.5175 24.6164 33.5723C24.7839 33.408 24.8397 33.1889 24.8955 33.0794ZM24.3932 36.8583C24.5048 36.8583 24.6164 36.9678 24.728 37.0226C24.6722 37.1321 24.6164 37.2964 24.5606 37.3512C24.449 37.406 24.3374 37.2964 24.1142 37.2417C24.2258 37.0226 24.2816 36.8583 24.3932 36.8583ZM24.0584 38.3918C24.17 38.3918 24.2816 38.4465 24.3932 38.5013C24.3374 38.5561 24.2816 38.6656 24.2258 38.7204C24.17 38.7751 24.0584 38.7204 23.891 38.6656C23.9468 38.5013 24.0026 38.3918 24.0584 38.3918ZM22.998 34.0104C23.1655 34.1747 23.3887 34.339 23.6119 34.5033C23.4445 34.7772 23.3887 35.051 23.2771 35.1058C22.998 35.2153 22.7748 35.051 22.7748 34.7224C22.7748 34.5033 22.8864 34.2295 22.998 34.0104ZM20.8774 38.9942C21.3797 38.5561 21.8261 38.1727 22.3284 37.7893C22.5516 37.5703 22.7748 37.6798 22.9422 37.8989C23.2213 38.2275 23.4445 38.5013 23.7235 38.8299C23.7235 38.8299 23.7793 38.8299 23.7793 38.7751C24.0026 39.049 24.2816 39.3228 24.5048 39.5967C24.6722 39.761 24.728 39.9253 24.6164 40.2539C24.3932 40.9111 24.7839 41.3492 25.4535 41.1849C25.7884 41.1301 25.9558 41.2397 25.8442 41.5683C25.7326 42.2255 26.1232 42.7184 26.7371 42.7184C27.1835 42.7184 27.1277 42.8827 26.9603 43.1565C26.7929 43.4851 26.5139 43.7589 26.6255 44.2518C26.7371 44.6352 25.9 45.0733 25.4535 44.9638C25.2303 44.909 24.6722 44.1971 24.5606 44.0328C24.1142 43.3208 24.3374 42.3898 23.6119 41.7873C23.3329 41.5683 23.1097 41.404 22.7748 41.623C22.6074 41.7326 22.44 41.7873 22.2726 41.7873C22.1609 41.7873 21.9935 41.5683 21.9935 41.5683C22.2168 41.1301 21.8819 40.4182 22.5516 40.1443C22.6074 40.0896 22.6074 39.8705 22.5516 39.761C22.5516 39.7062 22.3284 39.6514 22.2168 39.6514C22.0493 39.6514 21.9377 39.761 21.7703 39.8157C21.4355 39.9253 20.8216 39.6514 20.7658 39.3228C20.7658 39.2133 20.7658 39.049 20.8774 38.9942ZM24.6722 47.3188C24.17 47.4283 24.0584 47.3736 23.891 46.7711C23.8351 46.6616 23.8351 46.5521 23.8351 46.5521C23.7793 46.3878 23.7793 46.333 23.7793 46.2235C23.7235 45.9496 23.5561 45.621 23.9468 45.5115C24.2816 45.4019 24.6722 45.3472 24.8955 45.7306C25.0071 45.9496 25.1187 46.1687 25.1745 46.4425C25.2861 47.0997 25.1745 47.2093 24.6722 47.3188ZM19.3148 39.7062C19.4822 39.5419 19.538 39.4324 19.5939 39.3228C19.7055 39.4324 19.8729 39.4871 19.9287 39.5967C19.9845 39.6514 19.8171 39.9253 19.7613 39.9253C19.6497 39.9253 19.538 39.761 19.3148 39.7062ZM19.0916 53.5622C19.1474 53.3979 19.4264 53.2884 19.6497 53.1241C19.8171 53.1789 20.1519 53.1789 20.1519 53.2884C20.2635 53.5622 20.2635 53.8908 20.2635 54.1647C20.1519 54.1647 19.9845 54.2194 19.8729 54.2194C19.7613 54.1647 19.6497 54.0004 19.538 53.9456C19.3706 53.8361 18.98 53.9456 19.0916 53.5622ZM20.4309 54.329C20.4868 54.4385 20.4309 54.6028 20.3751 54.7123C20.3193 54.7671 20.1519 54.7123 19.9287 54.7671C19.9845 54.548 19.9845 54.3837 20.0403 54.329C20.1519 54.2742 20.3751 54.329 20.4309 54.329ZM18.2545 46.6068C18.4777 46.9354 18.2545 47.0997 18.0313 47.264C17.9755 47.3188 17.8639 47.3736 17.808 47.3736C17.9197 47.4831 17.9755 47.5926 18.0313 47.7022C18.1429 47.976 18.1987 48.3046 18.2545 48.5784C18.2545 48.688 18.1429 48.8523 18.0313 49.0713C17.6406 48.8523 17.3058 48.688 17.0268 48.4689C16.8593 48.3046 16.9709 48.0855 17.1384 47.976C17.1942 47.9212 17.3058 47.8117 17.3058 47.7569C17.3616 47.7022 17.3616 47.5926 17.4174 47.5379C17.1942 47.5379 16.9151 47.4283 16.7477 47.2093C16.5803 46.9902 16.6361 46.8259 16.9709 46.4973C17.529 46.0592 17.8639 46.1139 18.2545 46.6068ZM13.79 46.4425C13.7342 46.2782 14.0132 46.0592 14.1248 45.8401C14.4597 45.9496 14.7945 45.9496 14.8503 46.1139C15.0177 46.4425 14.6271 46.4973 14.4038 46.5521C14.2364 46.6068 13.9016 46.7711 13.79 46.4425ZM13.9574 48.3046C13.9574 48.4141 13.9016 48.4689 13.8458 48.5237C13.8458 48.5237 13.7342 48.4689 13.6226 48.4141C13.7342 48.3046 13.7342 48.2498 13.8458 48.1951C13.8458 48.1951 14.0132 48.3046 13.9574 48.3046ZM13.1203 42.4993C13.0645 42.4445 13.0087 42.3898 13.0087 42.335C13.1203 42.1159 13.2319 41.8421 13.3993 41.623C13.5668 41.404 13.79 41.3492 14.0132 41.5683C14.1806 41.7873 14.1806 42.0064 13.9574 42.1707C13.6226 42.335 13.3435 42.3898 13.1203 42.4993ZM14.6271 49.2904C14.6271 49.1809 14.7387 49.1261 14.7945 49.0166C14.9619 48.7427 14.5155 48.3594 15.0177 48.1951C15.2968 48.1403 15.6316 48.1951 15.9106 48.1951C16.1897 48.1951 16.4129 48.4141 16.2455 48.6332C15.9664 49.0166 16.2455 49.2356 16.4129 49.5642C16.5245 49.7285 16.6361 50.0571 16.5803 50.1667C16.4129 50.4405 16.1897 50.331 15.9106 50.2214C15.6316 50.0571 15.2968 50.0024 14.9619 49.8928C14.8503 49.8381 14.7387 49.7285 14.5713 49.6738C14.6271 49.5642 14.5713 49.3999 14.6271 49.2904ZM15.6874 45.9496C15.799 45.8401 15.8548 45.7306 15.9106 45.621C15.9664 45.6758 16.1339 45.7306 16.1339 45.7853C16.1339 45.8949 16.078 46.0044 16.0222 46.0592C15.9106 46.0592 15.799 46.0044 15.6874 45.9496ZM16.6361 51.0429C16.9709 51.0429 17.3616 51.0977 17.6964 51.1525C17.7522 51.1525 17.808 51.2073 17.9197 51.3168C17.9197 51.4263 17.9755 51.5906 17.9197 51.6454C17.8639 51.7549 17.6964 51.8645 17.529 51.8645C17.1942 51.8645 16.8593 51.8097 16.5245 51.7002C16.4129 51.6454 16.3013 51.4263 16.2455 51.262C16.3013 51.262 16.5245 51.0429 16.6361 51.0429ZM15.9664 43.047C16.1897 43.2113 16.3013 43.3756 16.1897 43.6494C16.0222 44.0328 16.1897 44.1423 16.5803 44.1971C17.0826 44.2518 17.1384 44.4161 16.8035 44.7995C16.5803 45.0733 16.3013 45.2376 16.0222 45.402C15.9106 45.4567 15.6874 45.402 15.52 45.2924C15.1851 45.0734 14.9061 44.7995 14.6271 44.5257C14.0132 43.9232 14.0132 43.5946 14.6271 43.047C15.0735 42.6636 15.52 42.6636 15.9664 43.047ZM12.7297 41.0206C13.2319 40.9111 13.6784 40.8563 14.1806 40.8015C14.2922 40.8015 14.348 40.8563 14.4597 40.9111C14.4038 41.0206 14.348 41.1301 14.2922 41.1849C13.8458 41.3492 13.3435 41.5135 12.7297 41.6778C12.6738 41.623 12.5064 41.5135 12.4506 41.404C12.4506 41.2397 12.618 41.0206 12.7297 41.0206ZM12.5622 45.2376C12.7297 45.1829 12.9529 45.2377 13.1761 45.2924C13.2877 45.3472 13.4551 45.402 13.6226 45.402C13.5668 45.5663 13.5109 45.7306 13.4551 45.8949C13.4551 45.9496 13.3435 46.0044 13.1761 46.1687C13.1203 46.1687 12.7855 46.3878 12.6738 46.333C12.4506 46.1139 12.339 45.8401 12.1716 45.5663C12.1716 45.4567 12.3948 45.2376 12.5622 45.2376ZM13.2319 55.2052C13.1203 55.0957 12.9529 54.9862 12.8413 54.9314C12.7297 54.8219 12.5622 54.7123 12.5622 54.6576C12.5622 54.548 12.7297 54.4385 12.8413 54.329C13.0087 54.2194 13.1761 54.2194 13.2877 54.1647C14.069 54.0004 14.4038 54.1647 14.5713 54.7123C14.6271 54.8219 14.6271 54.9862 14.5713 55.0957C14.348 55.3148 13.4551 55.4243 13.2319 55.2052ZM15.52 57.615C15.4642 57.6698 15.4084 57.8341 15.4084 57.9436C15.2409 58.327 15.0177 58.3817 14.6829 58.1627C14.5155 58.0531 14.348 57.9984 14.2364 57.8888C14.069 57.7793 13.8458 57.615 13.9016 57.5054C13.9016 57.3411 14.1248 57.2316 14.2364 57.1221C14.348 57.0125 14.5155 57.0125 14.6829 56.9578C14.7945 56.9578 14.9061 56.903 15.0735 56.903C15.2968 56.9578 15.6316 56.903 15.7432 57.0673C15.9106 57.2864 15.6874 57.4507 15.52 57.615ZM16.5803 54.6576C16.3013 54.6576 16.1339 54.7123 15.9664 54.6576C15.8548 54.6028 15.9106 54.3837 15.8548 54.2194C16.3013 54.1647 16.0222 53.2336 16.6919 53.5075C16.8593 53.5622 16.9709 54.0004 16.9709 54.2742C16.9709 54.3837 16.6919 54.4933 16.5803 54.6576ZM18.7568 60.0795C18.1429 60.189 17.8639 60.0247 17.6964 59.4771C17.5848 59.0389 17.6964 58.9294 18.3103 58.7651C18.5893 58.7103 18.9242 58.6008 19.0358 59.0937C19.2032 59.7509 19.0916 59.97 18.7568 60.0795ZM22.3842 60.4629C22.0493 60.6272 21.7145 60.7915 21.2122 60.5176C20.8774 60.3533 20.6542 60.1343 20.4868 59.8604C20.431 59.97 20.3193 60.0247 20.2077 60.0795C20.0961 60.189 19.9845 60.2986 19.8729 60.3533C19.8729 60.4081 19.9287 60.4629 19.9287 60.5176C19.9287 60.6272 19.9845 60.7367 19.9287 60.7915C19.9287 60.8462 19.8171 60.901 19.7613 61.0105C19.6497 60.8462 19.538 60.6819 19.4822 60.5176C19.4264 60.3533 19.538 60.189 19.538 60.0247C19.538 59.8604 19.5939 59.6961 19.6497 59.5318C19.9287 59.5318 20.2077 59.4771 20.3751 59.5318C20.3193 59.3675 20.3193 59.1485 20.3193 58.9842C20.3751 58.3817 21.3239 57.7793 21.8819 58.0531C21.9935 58.1079 22.0493 58.2174 22.1051 58.327C22.2168 58.6008 22.2726 58.9294 22.3284 59.2032C22.3284 59.2032 22.3284 59.2032 22.2726 59.2032C22.3284 59.3675 22.3842 59.5318 22.3842 59.6961C22.4958 59.97 22.719 60.2986 22.3842 60.4629ZM22.2168 57.2864C22.161 57.1768 22.161 57.0125 22.2168 56.903C22.2168 56.8482 22.4958 56.8482 22.5516 56.903C22.6074 57.0125 22.6074 57.1768 22.6632 57.3959C22.44 57.2864 22.2726 57.3411 22.2168 57.2864ZM24.3932 60.5176C24.2258 60.4629 24.0584 60.4081 23.9468 60.3533C23.8351 60.2986 23.7793 60.2438 23.6677 60.189C23.1097 59.97 23.0539 59.9152 23.3329 59.5318C23.2771 59.4223 23.2771 59.2032 23.3329 59.0389C23.3329 58.9842 23.3329 58.9294 23.3329 58.9294C23.1655 58.8746 22.9422 58.7103 22.8864 58.546C22.7748 58.327 22.6632 57.8888 22.7748 57.7793C22.998 57.5602 23.3329 57.4507 23.6677 57.4507C23.7793 57.4507 24.0026 57.7245 24.0584 57.8888C24.1142 57.9984 24.1142 58.1627 24.1142 58.327C24.3932 58.327 24.6722 58.1079 24.9513 58.0531C25.0629 58.0531 25.1745 58.0531 25.2861 58.1079C25.2861 58.2174 25.2861 58.327 25.2303 58.3817C25.0071 58.7651 24.8397 59.2032 24.5048 59.4771C24.449 59.4771 24.449 59.5318 24.3932 59.5318C24.449 59.6961 24.5048 59.8604 24.5048 60.0247C24.5606 60.189 24.449 60.4081 24.3932 60.5176ZM24.728 57.5054C24.728 57.3959 24.8955 57.2316 25.0629 57.1768C25.6768 56.903 25.9 57.0125 26.0674 57.834C26.0674 57.8888 26.0674 58.1627 25.9558 58.2722C25.7326 58.4913 25.5651 58.2722 25.3977 58.1079C25.3419 57.9984 25.1745 58.0531 25.0629 57.9436C24.8955 57.7793 24.728 57.615 24.728 57.5054ZM25.6768 62.9274C25.5651 62.9274 25.4535 62.6535 25.3419 62.544C25.2861 62.4892 25.2861 62.3797 25.2303 62.1606C25.2303 62.1059 25.2861 61.832 25.3977 61.7773C25.7326 61.6677 25.8442 61.8868 25.9 62.1606C25.9 62.2154 25.9 62.3249 25.9558 62.3797C25.9 62.5988 26.0116 62.8726 25.6768 62.9274ZM26.0674 60.4081C25.9558 60.6272 25.7326 60.7367 25.621 60.901C25.5093 61.0105 25.4535 61.0653 25.3419 61.1201C25.1745 61.1748 24.9513 61.1748 24.7839 61.2296C24.7839 61.0653 24.728 60.7915 24.8397 60.6819C25.1187 60.4081 25.3977 60.189 25.7326 59.97C25.8442 59.9152 26.0674 59.97 26.1232 60.0247C26.179 60.0795 26.1232 60.2986 26.0674 60.4081ZM27.8532 63.3107C27.4626 63.5846 27.2951 63.5298 26.9603 63.0917C26.6813 62.7083 26.6813 62.544 27.1277 62.2154C27.63 61.832 27.8532 61.8868 28.2439 62.3797C28.5229 62.7083 28.4113 62.9274 27.8532 63.3107ZM27.63 60.5176C28.0206 60.4081 28.188 60.5724 28.2997 61.1201C28.4113 61.5582 28.2997 61.7225 27.6858 61.8868C27.1277 61.9963 27.0161 61.9416 26.9045 61.4487C26.8487 60.901 27.0161 60.6272 27.63 60.5176ZM31.9271 60.6272C31.5364 60.9558 31.1458 61.2296 30.7551 61.5582C30.7551 61.613 30.7551 61.6677 30.6993 61.6677C30.6435 61.6677 30.5877 61.7225 30.5319 61.6677C30.5319 61.6677 30.5319 61.6677 30.4761 61.6677C30.2529 61.832 29.9739 61.9963 29.7506 61.613C29.5832 61.2844 29.5832 61.0105 29.6948 60.8462C29.639 60.6819 29.639 60.5176 29.5832 60.3533C29.6948 60.4629 29.8622 60.5176 29.9739 60.6272C30.2529 60.4629 30.5877 60.4081 30.7551 60.2986C31.1458 60.2438 31.369 60.1343 31.6481 60.1343C31.7597 60.1343 31.8713 60.2438 31.9271 60.3533C32.0387 60.4081 31.9829 60.5724 31.9271 60.6272ZM34.55 60.7367C34.3268 60.7915 33.9919 61.0105 33.7687 60.8462C33.7129 60.901 33.6013 60.9558 33.5455 61.0105C33.4339 61.0653 33.2106 60.9558 33.099 60.8462C32.7084 60.4629 32.3735 60.0247 32.0387 59.6414C31.7597 59.3128 31.5364 59.0389 31.2574 58.7103C31.09 58.546 30.9784 58.3817 30.7551 58.327C30.5319 58.3817 30.3087 58.546 30.3087 58.9294C30.3087 58.9842 30.0855 59.0937 29.9181 59.1485C29.5274 59.258 29.1368 59.3675 28.8019 59.4223C28.5787 59.4771 28.3555 59.5318 28.1322 59.5866C27.351 59.7509 27.2951 59.6961 27.0161 58.9294C26.6813 58.0531 27.2951 57.615 27.7416 57.1221C27.9648 56.8482 28.3555 56.7935 28.4671 56.3553C28.4671 56.3553 28.4671 56.3553 28.4671 56.3006C28.2997 56.191 28.188 56.0267 28.0764 55.8624C27.9648 55.6981 27.7974 55.5338 27.6858 55.3695C27.5184 55.2052 27.4626 55.0409 27.5184 54.8219C26.6813 54.329 25.9558 54.9862 25.1745 55.0409C25.0629 55.0409 24.9513 55.2052 24.8955 55.3695C24.6722 55.8624 24.1142 56.0815 23.6677 55.6981C23.4445 55.4791 23.2213 55.4791 22.9422 55.5338C22.6632 55.5886 22.3284 55.6981 22.0493 55.7529C21.9377 55.7529 21.7145 55.8077 21.6587 55.7529C21.268 55.26 21.1006 55.5886 20.7658 55.8624C19.9845 56.4101 19.0358 56.7387 18.0313 56.7387C17.6406 56.7387 17.3058 56.3553 16.9709 56.1363C16.9151 56.1363 17.0268 55.8077 17.0826 55.7529C17.3616 55.5886 17.6406 55.4791 17.9197 55.4243C18.3661 55.3148 18.8126 55.3148 19.2032 55.1505C20.2077 54.8766 21.2122 54.548 22.2168 54.329C22.998 54.1099 23.7793 54.0004 24.6164 53.8908C24.728 53.8908 24.8955 53.8908 25.0629 53.9456C25.7326 54.2194 26.0116 54.0551 26.5139 53.5622C26.5697 53.5075 26.6255 53.4527 26.7371 53.3979C26.6813 53.2336 26.5139 53.1789 26.179 53.1789C25.7884 53.1789 25.5651 52.9598 25.5093 52.7407C25.4535 52.5764 25.4535 52.4121 25.3977 52.2478C24.8397 52.4121 24.3374 52.5217 23.7793 52.6312C23.5003 52.686 22.998 51.9192 23.1655 51.6454C23.3329 51.3715 23.5561 51.1525 23.8351 50.8786C23.6677 50.7143 23.5561 50.55 23.6677 50.2214C23.8351 49.7285 23.3887 49.2356 22.8864 49.2904C22.4958 49.3452 22.3284 49.1809 22.161 48.9618C21.8819 48.6332 21.6029 48.3046 21.3239 47.976H21.268C20.989 47.976 20.71 47.7569 20.8774 47.5926C20.9332 47.5379 20.9332 47.4831 20.989 47.4283C20.9332 47.3188 20.989 47.1545 21.1006 46.9354C21.1564 46.8807 21.0448 46.6616 20.9332 46.5521C20.7658 46.333 20.5426 46.1139 20.3751 45.8949C20.0403 45.4567 20.0403 45.3472 20.4868 44.909C20.5984 44.8543 20.71 44.8543 20.8216 44.7995C20.71 44.7995 20.5984 44.8543 20.4868 44.8543C20.2077 44.909 20.0961 44.7995 20.0403 44.6352C19.9845 44.69 19.9287 44.69 19.8729 44.7447C19.5939 44.909 19.3706 44.7995 19.3148 44.5257C19.1474 44.1971 19.4822 44.0875 19.7055 43.978C19.9287 43.8685 20.0961 43.5946 20.3751 43.7589C20.4868 43.6494 20.6542 43.5946 20.8774 43.5946C20.8774 43.5946 21.0448 43.6494 21.1564 43.7042C21.268 43.7589 21.268 43.8685 21.3797 43.9232C21.6029 44.0328 21.9935 43.9232 21.9377 44.3066C21.8819 44.4709 21.5471 44.6352 21.3239 44.7447C21.268 44.7995 21.1564 44.7995 21.1006 44.7995C21.1564 44.7995 21.2122 44.7995 21.268 44.7995C21.5471 44.8543 21.8819 45.621 21.7703 45.8949C21.6029 46.333 21.7145 46.4425 22.1051 46.3878C22.2726 46.333 22.44 46.3878 22.5516 46.4425C22.7748 46.4973 22.9422 46.6068 23.1655 46.7164C23.3887 46.7711 23.4445 47.045 23.3329 47.264C23.7235 47.7022 24.1142 48.1951 24.5048 48.6332C24.728 48.907 24.9513 49.1261 24.8955 49.5642C24.8397 49.7833 25.0071 50.0024 25.1187 50.2214C25.2303 50.4405 25.3419 50.6596 25.1745 50.8786C25.5651 50.9882 25.9 51.2072 26.2348 51.4263C26.6813 51.4811 27.1277 51.4263 27.351 51.974C27.4068 52.1383 27.5184 52.2478 27.5184 52.4121C27.5742 52.686 27.5742 52.905 27.6858 53.1241C28.0764 53.0146 28.5229 53.0146 28.9135 52.9598C28.9693 52.9598 29.0251 52.9598 29.1368 52.905C28.9693 52.686 28.7461 52.4121 29.0251 52.1931C29.1368 52.0835 29.5274 52.3026 29.7506 52.4121C29.8622 52.686 30.0297 52.905 29.8064 53.0693C29.9181 53.1241 30.1413 53.0693 30.1971 53.0146C30.4761 52.3026 31.2016 52.3026 31.7597 52.1383C32.541 51.8645 33.3781 51.8097 34.2151 51.5906C34.4942 51.5359 34.7732 51.3715 35.1081 51.262C36.3358 50.9882 37.6193 50.7143 38.8471 50.4405C39.7958 50.2214 40.7445 49.9476 41.5816 49.7833C41.5258 49.7285 41.5816 49.5642 41.5816 49.4547C41.6932 49.4547 41.8606 49.5095 42.0839 49.5095C42.0839 49.5642 42.0839 49.619 42.0281 49.6738C42.5861 49.5095 43.0326 49.3452 43.4232 49.2356C43.9255 49.0713 44.7068 49.2356 44.9858 49.6738C45.0416 49.7285 44.9858 50.0024 44.93 50.0571C44.7068 50.2214 44.4277 50.331 44.2045 50.4405C43.8697 50.6048 43.5348 50.6048 43.4232 51.0977C43.3674 51.4263 42.4187 51.5906 42.1955 51.3715C41.9164 51.0977 41.6374 51.1525 41.3584 51.2072C41.0793 51.262 40.9119 51.262 40.6887 50.9882C40.2981 50.6048 39.6284 50.7691 39.3493 51.262C39.2377 51.4263 39.0703 51.6454 38.9029 51.7549C38.5122 51.9192 38.3448 52.1383 38.2332 52.5217C37.9542 52.4121 37.6193 52.2478 37.3403 52.2478C36.7264 52.3026 36.1684 52.5217 35.6103 52.686C35.4987 52.7407 35.3313 52.7955 35.3313 52.905C35.2197 53.3432 34.9406 53.4527 34.6616 53.5622C34.6058 53.5622 34.6058 53.617 34.55 53.6718C34.271 54.0004 33.8803 54.2742 33.3222 53.8908C33.1548 53.7813 32.9316 53.8361 32.7084 53.7813C32.7642 53.6718 32.82 53.5075 32.9316 53.3979C32.6526 53.3979 32.3177 53.5075 32.0387 53.5622C31.7039 53.617 31.3132 53.7265 30.9784 53.8361C30.5877 53.9456 30.1971 53.9456 30.1413 54.4933C30.1413 54.6028 29.9181 54.7123 29.8064 54.7671C30.0297 54.9862 30.2529 55.26 30.1971 55.4791C29.9739 56.1363 30.4203 56.4101 30.7551 56.7387C31.0342 57.0125 31.369 57.2864 31.6481 57.5602C31.9271 57.834 32.0945 58.0531 32.541 58.1079C32.541 58.1079 32.541 58.1079 32.5968 58.1079C32.541 57.834 32.4851 57.5602 32.82 57.3959C32.9316 57.3411 33.0432 57.0673 32.9874 57.0125C32.8758 56.903 32.7084 56.7935 32.541 56.7935C32.2061 56.7935 31.8155 56.8482 31.4806 56.903C31.0342 57.0125 30.9226 56.7935 30.811 56.4649C30.6993 56.1363 30.6993 55.8624 31.1458 55.7529C31.369 55.6981 31.5922 55.5886 31.7039 55.5886C31.9829 55.5338 32.0945 55.4791 32.2619 55.4791C33.2106 55.3695 33.3222 55.4791 33.5455 56.3553C33.7129 57.0673 33.7129 57.0673 34.4942 56.9578C34.7174 56.9578 34.9406 56.903 34.9406 57.1768C34.9406 57.2864 34.7732 57.4507 34.6058 57.5054C34.3826 57.615 34.1593 57.615 33.9361 57.6698C33.6571 57.7793 33.3222 57.7793 33.2664 58.2174C33.2664 58.2722 33.2106 58.327 33.1548 58.3817C33.2664 58.6008 33.3222 58.8746 33.2106 59.1485C33.099 59.5318 33.2106 59.6414 33.6013 59.6414C33.6571 59.6414 33.7129 59.6414 33.7129 59.6414C33.8245 59.5866 33.9361 59.5318 33.9361 59.5318C34.829 59.3128 34.9406 59.3128 35.0522 59.97C34.7732 60.2986 34.9964 60.6272 34.55 60.7367ZM21.5471 51.0977C21.7703 51.1525 21.9377 51.1525 21.9935 51.2072C22.0493 51.262 21.9935 51.4263 21.9935 51.5358C21.8819 51.5358 21.7703 51.5358 21.7145 51.4811C21.6587 51.4811 21.6587 51.3168 21.5471 51.0977ZM23.1655 53.7813C23.2771 53.5075 23.2771 53.2884 23.3887 53.2336C23.5003 53.1789 23.7235 53.2336 23.8351 53.2336C23.8351 53.3979 23.8351 53.617 23.7793 53.6718C23.7235 53.7265 23.5003 53.7265 23.1655 53.7813ZM40.4655 48.4689C40.6329 48.5784 40.8003 48.5784 40.8561 48.688C40.9119 48.7427 40.8561 48.8523 40.8561 48.9618C40.7445 48.907 40.6329 48.907 40.5213 48.8523C40.4655 48.7975 40.4655 48.688 40.4655 48.4689ZM41.3026 47.264C41.5258 47.3188 41.6374 47.5379 41.9164 47.7569C41.749 48.0308 41.6932 48.2498 41.5258 48.3594C41.3026 48.4689 41.1352 48.3046 41.0793 48.0855C40.9677 47.7022 41.0793 47.2093 41.3026 47.264ZM43.9813 52.0288C43.9813 52.1931 43.9813 52.4121 43.9255 52.5217C43.8139 52.6312 43.6464 52.5764 43.3116 52.6312C43.4232 52.3574 43.4232 52.1383 43.5348 52.0288C43.5906 51.974 43.8139 52.0288 43.9813 52.0288ZM35.3313 56.7387C35.2197 56.4101 35.1081 56.0815 34.9406 55.8077C34.7174 55.4243 34.55 55.4791 34.3268 55.8624C34.2152 56.0267 34.1035 56.1363 33.9919 56.2458C33.8803 56.0815 33.7129 55.972 33.6013 55.8077C33.3222 55.0957 33.4339 54.9862 34.1593 54.8219C34.3826 54.7671 34.6058 54.7123 34.829 54.6576C34.7174 54.4933 34.7174 54.2742 34.829 54.0551C34.9964 53.617 35.3871 53.5075 35.8335 53.617C35.9451 53.6718 36.1126 53.617 36.2242 53.6718C36.3916 53.7265 36.6706 53.7265 36.7264 53.8908C36.7822 54.0004 36.6706 54.2742 36.559 54.4385C36.5032 54.548 36.3916 54.6028 36.28 54.7123C36.2242 54.7671 36.1684 54.7671 36.1126 54.8219C36.1126 54.8766 36.1684 54.9862 36.1684 55.0409C36.2242 55.26 36.28 55.4243 36.3358 55.6434C36.3916 55.8624 36.4474 56.0267 36.5032 56.2458C36.6706 56.8482 36.5032 57.0125 35.8893 57.0673C35.5545 57.1768 35.3871 57.0125 35.3313 56.7387ZM36.3916 60.4081C36.3358 60.6819 36.3358 61.0105 36.28 61.2844C36.28 61.3939 36.2242 61.4487 36.1684 61.5582C36.0568 61.5034 35.8893 61.5034 35.8893 61.3939C35.7219 61.0653 35.3313 60.7915 35.8335 60.4081C35.9451 60.3533 35.9451 60.0795 35.9451 59.9152C35.9451 59.7509 35.8893 59.6414 35.8893 59.4771C35.8335 59.2032 35.9451 58.9842 36.2242 58.9842C36.3916 58.9842 36.559 59.2032 36.7822 59.3675C36.6148 59.8057 36.5032 60.0795 36.3916 60.4081ZM42.921 61.9963C42.4745 62.3797 42.0839 62.7083 41.6374 63.0369C41.5258 63.0917 41.3026 63.0917 41.1352 63.0917C41.1352 63.0369 41.1352 62.9821 41.1352 62.9821C41.0235 63.0369 40.8561 63.0917 40.6329 63.1464C40.5771 63.1464 40.4097 63.0917 40.1864 62.9821C40.019 62.9274 39.9074 62.8178 39.74 62.7631C39.3493 62.6535 39.4052 62.4892 39.6842 62.3249C39.74 62.2702 39.7958 62.2702 39.8516 62.2154C40.019 61.9963 40.5771 61.8868 40.8561 61.8868C41.1352 61.8868 41.3026 61.9963 41.3584 62.1606C41.3584 61.8868 41.3584 61.5582 41.3584 61.2844C41.3584 60.9558 41.47 60.7915 41.8048 60.8462C42.1955 60.901 42.7535 60.6272 42.921 61.1748C43.3674 61.5582 43.3674 61.613 42.921 61.9963ZM39.74 59.5318C40.2422 59.0937 40.4097 59.0937 40.8003 59.5318C41.0793 59.8604 41.0235 60.0795 40.7445 60.2986C40.2981 60.6272 39.8516 60.5724 39.5168 60.1343C39.2377 59.8057 39.5726 59.6961 39.74 59.5318ZM41.6374 57.9984C41.6932 57.8341 41.8606 57.6697 41.9722 57.5054C42.3071 57.615 42.5303 57.6698 42.7535 57.7245C42.4745 57.8888 42.2513 58.1079 41.9722 58.2722C41.9722 58.2722 41.6374 58.0531 41.6374 57.9984ZM45.209 57.4507C45.0974 57.5054 44.93 57.3411 44.651 57.2864C44.8184 57.0673 44.93 56.903 45.0416 56.8482C45.0974 56.7935 45.3764 56.9578 45.3764 57.0673C45.4322 57.1768 45.3206 57.3959 45.209 57.4507ZM48.2226 57.5054C48.111 57.5602 47.9993 57.5602 47.8319 57.5602C47.8877 57.3959 47.8877 57.2864 47.8877 57.1768C47.9993 57.2316 48.111 57.2316 48.2226 57.2864C48.2784 57.2864 48.2784 57.5054 48.2226 57.5054ZM52.0732 60.3533C51.9616 60.2986 51.7942 60.2438 51.7384 60.189C51.6826 60.0795 51.7384 59.9152 51.7942 59.6961C51.9616 59.8057 52.129 59.8604 52.129 59.97C52.1848 60.0795 52.129 60.189 52.0732 60.3533ZM57.6539 51.1525C57.7655 51.262 57.9329 51.3168 58.0445 51.4263C58.1003 51.4263 58.1003 51.5359 58.1003 51.5906C58.1003 51.7002 58.1561 51.8097 58.1561 51.974C58.1561 52.0835 58.1003 52.1931 58.0445 52.1931C57.9887 52.1931 57.8771 52.1383 57.8213 52.0835C57.7097 51.9192 57.5981 51.7549 57.5981 51.5906C57.4865 51.4263 57.5981 51.3168 57.6539 51.1525ZM53.9148 52.9598C54.0823 52.905 54.2497 52.905 54.4171 52.905C54.5287 52.905 54.6961 53.0146 54.8077 52.9598C55.31 52.686 55.4774 53.1241 55.7565 53.3979C55.9797 53.7265 56.2029 54.0551 56.3703 54.3837C56.5377 54.2742 56.7052 54.1099 56.8726 54.0551C57.04 54.0004 57.2074 54.1099 57.4306 54.1099C57.3748 54.2194 57.3748 54.329 57.319 54.3837C57.2074 54.4385 57.0958 54.4933 56.9842 54.548C56.8726 54.548 56.7052 54.6028 56.5935 54.6028C56.5377 54.6028 56.4819 54.4933 56.3703 54.4385C56.3703 54.4933 56.4261 54.548 56.4261 54.6028C56.5377 54.9862 56.5377 55.4243 56.5377 55.8077C56.5377 55.8624 56.3703 55.972 56.3145 55.9172C55.8123 55.8624 55.5332 55.3148 55.7006 54.8219C55.7564 54.7123 55.8123 54.6028 55.7565 54.548C55.7006 54.2742 54.6403 53.4527 54.3055 53.4527C54.1381 53.4527 53.9706 53.3979 53.859 53.3432C53.8032 53.2884 53.8032 53.0146 53.9148 52.9598ZM54.0264 57.0673C54.1381 57.0125 54.3613 57.0673 54.5287 57.1768C54.6961 57.2864 54.7519 57.4507 54.9194 57.5602C55.031 57.6697 55.0868 57.7793 55.1984 57.834C55.4216 58.1079 55.589 58.3817 55.1984 58.7103C54.8635 58.9842 54.5845 59.0937 54.2497 58.7651C54.1381 58.6556 53.9706 58.546 53.859 58.3817C53.2452 57.8888 53.3568 57.3412 54.0264 57.0673ZM52.2964 55.7529C52.6313 55.7529 53.0219 55.5886 53.1335 55.7529C53.4684 56.0267 53.1335 56.2458 52.9103 56.4649C52.6871 56.6839 52.3523 56.9578 52.129 56.5196C52.0174 56.3553 52.1848 56.0267 52.2964 55.7529ZM50.8455 53.617C51.1803 53.2884 51.4035 53.5075 51.6268 53.7813C52.0732 54.329 52.0732 54.4385 51.6268 54.8219C51.4035 54.9314 51.1803 55.3695 50.7897 54.9314C50.399 54.4933 50.4548 54.0004 50.8455 53.617ZM48.0552 51.4263C48.39 51.3168 48.7248 51.262 49.0597 51.1525C49.0597 51.1525 49.0597 51.1525 49.0597 51.2072C49.3945 51.0977 49.7852 50.9882 50.12 50.9334C50.5106 50.8786 50.7339 51.1525 50.5664 51.4263C50.2316 51.8645 50.4548 52.3026 50.5106 52.7407C50.5664 53.0146 50.5664 53.4527 50.4548 53.5075C50.1758 53.6718 49.7294 53.7813 49.3945 53.6718C48.8364 53.4527 48.3342 53.1789 47.8877 52.7955C47.6645 52.5764 47.6087 52.1383 47.5529 51.8097C47.5529 51.7001 47.8319 51.5359 48.0552 51.4263ZM46.4926 51.4263C46.4926 51.3715 46.6042 51.3168 46.66 51.262C46.7716 51.2072 46.8832 51.0977 46.9948 51.0429C47.0506 50.9882 47.1623 51.0429 47.2739 51.0429C47.2739 51.1525 47.2739 51.262 47.2181 51.3168C47.1064 51.4811 47.0506 51.6454 46.8832 51.7549C46.7716 51.8097 46.5484 51.8097 46.4368 51.8097C46.4368 51.7001 46.4368 51.5906 46.4926 51.4263ZM46.4926 51.974C46.6042 52.0835 46.66 52.1383 46.7158 52.1931C46.7158 52.2478 46.66 52.3026 46.6042 52.3574C46.5484 52.3026 46.4368 52.2478 46.381 52.1931C46.381 52.1931 46.4368 52.0835 46.4926 51.974ZM46.2693 56.6292C46.66 56.4649 47.0506 56.2458 47.4413 56.0815V56.1363C47.6087 56.0815 47.7203 56.0267 47.8877 56.0267C48.4458 55.9172 48.6132 56.0815 48.5574 56.6839C48.5016 57.0125 48.5016 57.1768 48.0552 57.0125C47.7203 56.8482 47.2739 56.9578 46.8274 56.9578C46.66 56.9578 46.4926 57.0125 46.381 57.0125C46.2693 57.0125 46.1577 56.903 46.0461 56.8482C46.1577 56.7935 46.2135 56.6839 46.2693 56.6292ZM46.0461 60.7367C46.2135 60.7367 46.381 60.9558 46.6042 61.1201C46.4926 61.3939 46.4926 61.7225 46.381 61.7225C45.9903 61.832 45.9903 61.4487 45.8787 61.2296C45.8229 61.0653 45.7113 60.7367 46.0461 60.7367ZM45.9903 54.3837C45.9903 54.4933 45.8787 54.6576 45.8229 54.6576C45.4881 54.7671 45.0974 55.0409 44.7626 54.6028C44.651 54.4933 44.3719 54.4933 44.1487 54.4933C43.6464 54.548 43.1442 54.8766 42.6419 54.2742C42.4745 54.0551 42.1397 54.329 42.1397 54.6028C42.1397 54.7123 42.1397 54.8766 42.1955 54.9862C42.3629 55.4791 42.0281 55.5886 41.6374 55.6981C41.191 55.8077 41.0235 55.5886 40.9677 55.2052C40.9677 55.0957 40.9119 54.9862 40.8561 54.9314C40.7445 54.8219 40.6329 54.7123 40.5213 54.6028C40.4655 54.7671 40.2981 54.8766 40.2981 55.0409C40.2981 55.3695 40.1306 55.5338 39.8516 55.5886C39.4052 55.6434 38.9029 55.7529 38.4564 55.8077C38.5122 55.8624 38.5681 55.972 38.6239 56.0267C38.7355 56.191 38.8471 56.3553 39.0145 56.4649C39.6284 56.8482 39.461 57.3411 39.3493 57.834C39.5726 57.6697 39.9074 57.615 40.2422 57.834C40.4097 57.9436 40.5771 57.9984 40.8003 58.1079C40.9119 58.1627 40.9677 58.2174 41.0793 58.2722C41.0235 58.327 40.9677 58.4365 40.9119 58.4913C40.5771 58.6556 40.2422 58.7651 39.9074 58.9294C39.74 59.0389 39.5168 59.1485 39.3493 59.3128C39.2377 59.4223 39.1261 59.5866 39.0145 59.6961C38.9029 59.5318 38.7355 59.3675 38.5122 59.1485C38.6239 58.9294 38.7355 58.7103 38.8471 58.546C38.9029 58.4913 38.9587 58.3817 39.0145 58.327C38.9587 58.327 38.9587 58.327 38.9587 58.327C38.5122 58.1627 38.1774 58.3817 37.7868 58.4913C37.731 58.546 37.5635 58.4913 37.5077 58.4365C37.4519 58.3817 37.5077 58.2722 37.5077 58.1627C37.5077 58.1079 37.5635 58.0531 37.5635 57.9984C37.9542 57.2316 37.9542 57.0125 37.2287 56.4649C36.8939 56.191 36.7822 55.9172 37.1171 55.5338C37.1729 55.4791 37.2287 55.3695 37.2845 55.26C37.3961 54.9314 37.4519 54.8219 37.5635 54.8219C37.5077 54.2742 37.7868 54.0004 38.5122 53.7813C38.6239 53.7265 38.7913 53.7265 38.9029 53.7265C39.0703 53.6718 39.2377 53.617 39.461 53.617C39.74 53.5622 39.9074 53.617 40.1306 53.8908C40.3539 54.2742 40.6329 54.2194 40.6887 53.8908C40.8003 53.3432 41.2468 53.1789 41.6932 53.0693C42.1955 52.9598 42.6977 52.905 43.2558 52.7955C43.7581 52.686 44.3161 52.686 44.4277 52.0288C44.4277 51.974 44.8184 51.8645 44.8184 51.9192C44.9858 52.1931 45.209 52.2478 45.5439 52.3026C45.9903 52.3574 46.1577 53.0693 45.8229 53.3979C45.3206 53.8908 45.3206 53.9456 45.9345 54.2194C45.8229 54.1647 45.9903 54.2742 45.9903 54.3837ZM46.1019 47.9212C46.0461 47.9212 45.9345 47.9212 45.8229 47.9212C45.7671 47.9212 45.8229 47.8117 45.8229 47.6474C45.9345 47.7022 46.0461 47.7022 46.1019 47.7569V47.9212ZM50.7339 39.5967C51.0129 39.4324 51.2361 39.7062 51.2361 39.98C51.2919 40.2539 51.4035 40.5825 51.0129 40.692C50.6223 40.8015 50.5664 40.4729 50.399 40.0896C50.4548 39.9253 50.5664 39.6514 50.7339 39.5967ZM51.2919 44.3614C51.2919 44.5804 51.1803 44.7995 51.0687 45.0186C50.7897 45.0734 50.5106 45.2376 50.399 45.1829C50.1758 45.0186 49.9526 44.7447 49.7852 44.4709C49.7293 44.4161 49.7852 44.3066 49.841 44.2518C50.0642 44.0328 51.2919 44.0875 51.2919 44.3614ZM49.0039 27.4932C49.1155 27.4932 49.3387 27.6575 49.3387 27.7122C49.3387 27.8765 49.1713 27.9861 49.1155 28.0956C49.0039 27.9861 48.8923 27.9313 48.7248 27.8218C48.8364 27.6575 48.8923 27.4932 49.0039 27.4932ZM48.5016 33.5723C48.5574 33.5175 48.7248 33.408 48.7806 33.4628C49.1713 33.6271 49.5061 33.9009 50.0084 34.0104C50.399 34.12 49.9526 34.3938 49.8968 34.5581C49.6735 34.7772 48.669 34.9415 48.4458 34.7772C48.3342 34.7224 48.2784 34.5033 48.2784 34.3938C48.3342 34.12 48.39 33.8461 48.5016 33.5723ZM47.5529 40.5277C47.7203 40.692 47.8877 40.8563 48.111 41.0754C47.9435 41.2944 47.8877 41.4587 47.7761 41.623C47.6645 41.5135 47.4413 41.404 47.4413 41.2944C47.3855 41.0754 47.4971 40.8015 47.5529 40.5277ZM47.4971 45.6758C47.4971 45.621 47.4971 45.5663 47.4971 45.5663C47.4971 45.5115 47.6645 45.3472 47.7203 45.3472C48.0552 45.402 48.39 45.2924 48.669 45.402C48.8923 45.3472 49.1155 45.2924 49.2829 45.2376C49.7293 45.1281 49.8968 45.3472 50.0084 45.6758C50.12 46.0592 50.0642 46.333 49.6177 46.4425C49.4503 46.4973 49.2829 46.5521 49.1155 46.6068C48.669 46.6616 48.2784 46.8807 47.8877 46.3878C47.7203 46.1139 46.9948 46.4425 46.8832 46.7711C46.7158 47.1545 46.1019 47.4831 45.7113 47.3736C45.5439 47.3188 45.4323 47.0997 45.4323 46.8807C45.3764 46.9354 45.0974 47.2093 45.0416 47.1545C44.651 46.9902 44.3719 47.1545 44.0929 47.264C44.2045 47.3188 44.2603 47.4283 44.3719 47.4831C44.2045 47.5926 44.0929 47.7569 43.9255 47.8665C43.8697 47.9212 43.8139 47.9212 43.7581 47.9212C43.4232 47.976 43.0884 48.0855 42.921 47.6474C42.8652 47.5379 42.6419 47.5926 42.5303 47.4831C42.4187 47.3736 42.3071 47.2093 42.3071 47.045C42.3071 46.9354 42.4745 46.7711 42.5861 46.7711C42.7535 46.7711 42.921 46.7164 43.0884 46.7164C43.0884 46.6616 43.0884 46.6068 43.1442 46.4973C43.4232 45.8401 42.9768 45.5662 42.6977 45.2376C42.3071 44.7995 41.9164 44.4161 41.5258 43.978C41.2468 43.6494 41.0793 43.7589 40.8003 43.9232C40.1306 44.4161 40.1306 44.4161 39.5726 43.7589C38.8471 42.9374 38.1216 42.1159 37.3961 41.2944C37.2287 41.1301 37.1729 41.0206 37.0613 40.9111C36.8939 40.9111 36.7822 40.8015 36.6148 40.692C36.6706 40.5825 36.7264 40.3634 36.8381 40.3086C36.8939 40.2539 36.9497 40.2539 37.0055 40.1991C37.0613 40.0896 37.1171 39.98 37.2287 39.8157C37.2845 39.7062 37.2845 39.5419 37.3403 39.3776C37.1729 39.4324 37.0613 39.4324 36.8939 39.4871C36.8381 39.4871 36.7822 39.5967 36.6706 39.5967C36.4474 39.7062 36.2242 39.9253 36.0568 39.6514C36.001 39.5419 36.0568 39.2681 36.1684 39.1038C36.6706 38.337 36.6148 38.1727 36.001 37.4607C35.6661 37.0774 35.1639 36.8035 35.3313 36.1463C35.3871 35.8725 35.1081 35.8177 34.829 35.9273C34.4384 36.0916 34.0477 36.2559 33.6571 35.8725C33.3781 35.6534 33.3222 35.3796 33.6013 35.1605C33.8245 34.9415 34.1035 34.6676 34.3826 34.4486C34.6058 34.2843 34.829 34.1747 35.1081 34.3938C35.2197 34.5033 35.4987 34.4486 35.6661 34.5033C36.1126 34.5033 36.5032 34.9962 36.3916 35.4891C36.28 35.982 36.3358 36.0368 36.7822 35.982C37.2287 35.9273 37.2845 36.0368 37.2287 36.4202C37.1729 36.8583 37.1729 37.2417 37.1729 37.6798C37.1729 37.7346 37.3961 37.8441 37.4519 37.8441C37.8984 37.6798 38.0658 38.0084 38.3448 38.2275C38.6239 38.4465 38.6797 38.7204 38.5122 39.049C38.3448 39.4324 38.8471 39.98 39.2935 39.8705C40.019 39.761 40.1306 40.3086 40.4097 40.692C40.6887 41.0754 40.5771 41.4587 40.2981 41.7873C40.1864 41.8969 40.0748 42.0064 39.9632 42.1159C39.9074 42.1707 39.9074 42.2802 39.9632 42.335C40.019 42.3898 40.1306 42.3898 40.1864 42.3898C40.3539 42.2802 40.5771 42.1707 40.7445 42.0612C41.2468 41.7326 41.3584 41.7326 41.749 42.1159C41.749 42.0064 41.8048 41.8421 41.8606 41.7873C42.2513 41.5683 42.6977 41.404 43.1442 41.2944C43.2558 41.2397 43.5906 41.4587 43.5906 41.5683C43.6464 41.8421 43.5348 42.1159 43.479 42.3898C43.479 42.3898 43.3116 42.4445 43.2558 42.3898C42.8093 41.8969 42.3071 42.1159 41.8048 42.2255C41.9164 42.3898 42.0281 42.4993 42.1955 42.6636C42.3071 42.8279 42.4745 42.9922 42.5861 43.1565C42.8652 43.4851 43.1442 43.8137 43.4232 44.1423C43.6464 44.4161 43.8697 44.69 43.5906 45.1281C43.4232 45.402 43.5906 45.6758 43.9813 45.5115C44.2603 45.4019 44.4835 45.3472 44.7068 45.621C44.9858 46.0044 45.2648 46.333 45.4881 46.7711C45.4881 46.5521 45.4881 46.2782 45.5997 46.1139C45.7113 45.9496 45.8229 45.7306 45.8787 45.5663C45.9903 45.2377 46.3252 45.1281 46.4926 45.402C46.7158 45.8949 47.0506 45.7306 47.3855 45.6758C47.4413 45.6758 47.4971 45.6758 47.4971 45.6758ZM46.66 32.2031C46.6042 32.2579 46.381 32.2031 46.1577 32.2579C46.2135 32.0388 46.2135 31.8745 46.2693 31.8197C46.381 31.7102 46.5484 31.7102 46.66 31.7102C46.66 31.8745 46.7158 32.0388 46.66 32.2031ZM45.8229 26.1787C45.9903 26.1787 46.1577 26.2335 46.4368 26.2335C46.4368 26.5074 46.6042 26.836 46.4926 26.9455C46.2135 27.2193 45.9903 26.8907 45.8787 26.7264C45.7671 26.5621 45.8229 26.3431 45.8229 26.1787ZM43.9813 29.2457C43.9813 29.0266 44.0371 28.8076 44.0929 28.5885C44.2045 28.3147 44.3161 28.0956 44.4835 27.8765C44.7068 27.8218 44.93 27.7122 44.93 27.767C45.0416 27.8765 45.0416 28.0408 45.0974 28.2051C45.0974 28.3147 44.9858 28.479 44.9858 28.5885C45.3206 29.1909 44.8184 29.41 44.4835 29.6291C44.3719 29.6838 44.1487 29.6838 43.9813 29.6291C43.9813 29.6291 43.9813 29.41 43.9813 29.2457ZM43.2 27.3289C43.3116 27.2193 43.5348 27.2193 43.8697 27.1098C43.8139 27.4384 43.8139 27.6575 43.7581 27.7122C43.5906 27.767 43.3674 27.767 43.2 27.6575C43.1442 27.7122 43.0884 27.3836 43.2 27.3289ZM42.4745 33.2437C42.5861 33.2437 42.8093 33.3532 42.8652 33.5175C43.0884 33.7914 43.2 34.12 43.479 34.339C44.2045 34.8319 43.8139 35.4891 43.8697 36.0916C43.8697 36.2011 43.7023 36.3106 43.5906 36.4202C43.8139 36.5845 43.9813 36.8035 44.3161 36.6392C44.4835 36.5845 44.8184 36.694 44.93 36.8035C45.209 37.0774 45.3764 37.4607 45.5997 37.7893C45.8229 38.1727 45.4881 38.337 45.2648 38.5561C45.0416 38.7751 44.8184 38.7751 44.5952 38.5561C44.2045 38.1179 43.8697 37.7346 43.479 37.2964C43.1442 36.9131 43.2 36.6392 43.5906 36.4202C43.4232 36.3106 43.2 36.0916 43.0884 36.1463C42.5861 36.3654 42.4187 36.0368 42.1955 35.763C42.0281 35.5987 41.9164 35.3796 41.749 35.2153C41.2468 34.5033 41.6374 33.408 42.4745 33.2437Z" fill="#FEFEFE"/>
<path d="M48.9481 19.7164C48.8923 19.7164 48.8365 19.6616 48.7806 19.6616C48.5016 19.5521 48.2784 19.1687 48.0552 18.9496C47.6645 18.9496 47.3855 18.9496 47.1065 18.9496L47.1623 19.0044C47.3855 19.1687 47.4971 19.333 47.3855 19.6068C47.2181 19.9902 47.3855 20.0997 47.7761 20.1545C48.2784 20.2093 48.3342 20.3736 47.9994 20.7569C47.7761 21.0308 47.4971 21.1951 47.2181 21.3594C47.1064 21.4141 46.8832 21.3594 46.7158 21.2498C46.381 21.0308 46.1019 20.7569 45.8229 20.4831C45.209 19.8807 45.209 19.5521 45.8229 19.0044C46.1019 18.7853 46.3252 18.6758 46.6042 18.7306C46.939 18.2924 47.2181 17.9638 47.4413 17.6352C46.7716 17.5804 46.7158 17.4709 46.7716 16.7042C46.7716 16.3756 46.2135 15.7184 45.8787 15.7731C45.3206 15.8279 45.1532 15.7731 45.4323 15.2255C45.5997 14.8421 44.9858 14.1849 44.5394 14.1849C43.9255 14.1849 43.6464 13.9111 43.7581 13.3086C43.8139 12.8157 43.3674 12.1585 42.921 12.2133C42.3071 12.3228 42.0839 11.9395 41.9723 11.6108C41.9164 11.3918 42.1955 11.0084 42.3629 10.7346C42.6977 10.6798 43.0884 10.4607 43.3116 10.5703C43.6464 10.7346 43.9255 11.0084 43.9255 11.5013C43.8697 12.2133 44.4277 12.761 45.1532 12.9253C45.3206 12.98 45.5439 13.0348 45.6555 13.1443C45.9345 13.4182 46.2135 13.7468 46.4926 14.0206C46.5484 13.9658 46.5484 13.9658 46.5484 13.9111C46.6042 13.9658 46.7716 14.0206 46.7716 14.0754C46.7716 14.1301 46.7716 14.1849 46.7158 14.2397C47.2739 14.7873 47.8319 15.3898 48.3342 15.9374C48.4458 16.047 48.5574 16.1565 48.6132 16.3208C49.2271 15.4993 49.0039 15.7731 50.6223 13.692C50.7897 13.4729 50.9571 13.2539 51.1245 13.0348C51.0687 13.0348 50.9571 12.98 50.9013 12.98C50.6781 12.98 50.5106 13.0348 50.2874 13.0348C50.1758 13.0348 49.9526 12.98 49.8968 12.8705C49.841 12.761 49.8968 12.5419 50.0084 12.4871C50.12 12.3228 50.3432 12.2133 50.5106 12.049C50.6223 11.9395 50.7339 11.8847 50.8455 11.7751C51.0129 11.6656 51.1245 11.5561 51.1245 11.3918C51.0687 11.3918 50.9571 11.4465 50.8455 11.5013C50.6223 11.5013 50.2874 11.5013 50.0084 11.5013C49.7852 11.5013 49.6177 11.2822 49.841 11.1727C50.1758 11.0084 50.5106 10.8989 50.8455 10.7893C50.5665 10.5155 50.4548 10.5155 50.0084 10.7893C49.7852 10.9536 49.5061 11.1179 49.2829 11.2822C48.8923 11.5561 48.669 11.4465 48.39 11.1179C48.111 10.8441 47.9994 10.5703 48.3342 10.2417C48.4458 10.1321 48.5574 10.0774 48.6132 9.96784C48.6132 9.80354 48.6132 9.69401 48.6132 9.58447C48.6132 9.5297 48.4458 9.47494 48.3342 9.47494C47.8319 9.47494 47.3855 9.2011 47.2739 8.76297C47.1623 8.3796 47.4413 8.2153 47.6645 8.051C47.9994 7.77716 48.2784 7.33903 48.7806 7.50333C49.3387 7.72239 49.6735 8.3796 49.5619 9.0368C49.5061 9.3654 49.6735 9.5297 49.9526 9.42017C50.4548 9.31064 50.6223 9.58447 50.8455 9.80354C51.1245 10.1321 51.3477 10.406 51.6268 10.7346C51.6826 10.7893 51.7384 10.8441 51.7942 10.9536C52.0174 9.42017 51.5152 7.83193 50.5106 6.68182C50.0642 6.79136 49.6177 7.01042 49.1155 7.06519C48.4458 7.17472 48.39 7.06519 48.1668 6.35322C48.1668 6.29845 48.1668 6.07938 48.1668 5.91508C48.1668 5.64125 48.111 5.36741 48.4458 5.31265C47.8319 5.03881 47.1623 4.87451 46.381 4.87451C45.8787 4.87451 45.4323 5.09358 45.0416 5.42218C45.0416 5.42218 43.3674 7.11996 40.5213 8.16053C40.8003 8.43436 41.0794 8.7082 41.3026 8.98203C41.5816 9.25587 41.8606 9.5297 41.47 9.80354C41.2468 9.96784 40.8561 10.1869 40.6887 10.1321C40.4655 10.0226 40.1306 9.5297 40.1864 9.3654C40.2981 8.98203 40.1864 8.7082 39.9632 8.48913C39.9074 8.59867 39.8516 8.65343 39.7958 8.7082C39.6284 8.81773 39.461 8.81773 39.2935 8.8725C39.1819 8.92727 38.9587 9.0368 38.9029 9.09157C38.8471 9.58447 38.4006 9.63924 38.1216 9.80354C37.8426 9.96784 37.5077 10.4607 37.3961 10.406C37.0613 10.2417 36.7264 10.1869 36.3358 10.2417C35.9452 10.2964 35.4987 10.406 35.1081 10.4607C34.9406 10.4607 34.6616 10.5155 34.6058 10.4607C34.271 9.96784 33.8803 10.2417 33.4897 10.2417C33.3222 10.2417 33.0432 10.1869 32.9874 10.0774C32.8758 9.74877 33.1548 9.694 33.3781 9.63924C33.7687 9.5297 34.1593 9.47494 34.2152 8.98203C34.2152 8.92727 34.3826 8.81773 34.4942 8.76297C35.1081 8.59867 35.7219 8.48913 36.3358 8.32483C36.2242 8.32483 36.1126 8.3796 36.001 8.3796C35.8335 8.3796 35.6661 8.32483 35.4987 8.27006C35.5545 8.10576 35.6103 7.94146 35.6661 7.77716C35.7219 7.66763 35.8335 7.55809 35.8893 7.50333C36.28 7.17472 36.5032 7.28426 36.7264 7.88669C36.7823 8.051 36.8381 8.16053 36.8381 8.2153C36.8939 8.2153 36.9497 8.2153 36.9497 8.27006C37.4519 8.8725 38.0658 8.43436 38.5681 8.3796C38.9029 8.27006 39.2377 8.2153 39.5168 8.16053C39.4052 7.99623 39.2935 7.83193 39.1819 7.72239C39.1261 7.61286 38.9587 7.55809 38.7355 7.66763C38.5123 7.72239 38.4006 7.55809 38.5123 7.33903C38.5681 7.22949 38.6239 7.11996 38.6797 7.06519C38.3448 6.73659 38.01 6.46275 37.6752 6.24369C37.6193 6.24369 37.5635 6.24369 37.5077 6.24369C37.2845 6.24369 37.1171 6.13415 37.1171 5.96985C37.0055 5.96985 36.8939 6.02462 36.7264 6.07938C36.1126 6.24369 35.4987 6.40799 34.9406 6.51752C34.2152 6.73659 33.5455 6.90089 32.8758 7.06519C32.541 7.11996 32.3177 7.06519 32.2061 6.73659C32.1503 6.57229 32.1503 6.46275 32.1503 6.35322C31.9271 6.51752 31.7597 6.68182 31.5364 6.84612C31.5364 7.22949 31.369 7.39379 30.9226 7.50333C30.8668 7.50333 30.8668 7.50333 30.8668 7.50333C30.6435 7.77716 30.3645 8.10576 30.1971 8.43436C29.7506 8.27006 29.3042 8.16053 28.9135 7.99623C28.8577 8.051 28.8019 8.051 28.6903 8.10576C28.1881 8.2153 27.7416 8.3796 27.2393 8.48913C26.9603 8.5439 26.6255 8.65343 26.4022 8.27006C26.2348 7.99623 26.0116 8.10576 25.9 8.3796C25.8442 8.5439 25.6768 8.65343 25.5651 8.81773C25.4535 8.59867 25.2861 8.43436 25.2303 8.2153C25.2303 8.051 25.3419 7.83193 25.4535 7.77716C25.9558 7.61286 26.4581 7.44856 26.9603 7.33903C27.0719 7.33903 27.1835 7.28426 27.2393 7.28426C25.7326 6.29845 24.8955 5.47695 24.8955 5.42218C24.5606 5.03881 24.0584 4.87451 23.5561 4.87451C19.0358 4.87451 16.5245 10.1321 19.4264 13.5277C23.6119 19.0044 23.6677 19.5521 23.9468 19.9354C24.3374 20.5926 25.1745 22.2904 25.1745 22.4547C25.2303 22.3452 25.3419 22.2356 25.5093 22.1261C25.9 21.7975 25.9558 21.7975 26.4581 22.3452C26.5139 22.4547 26.6255 22.5095 26.6813 22.619C29.1368 22.9476 31.4806 23.4953 33.6013 24.0429C33.8803 23.6048 33.6013 23.331 33.3781 23.0571C33.2106 22.8928 33.099 22.6738 32.9874 22.4547C32.9874 22.3999 33.1548 22.2904 33.2664 22.1809C33.2664 22.1809 33.3222 22.1809 33.3222 22.2356C34.0477 22.7833 34.6616 23.3857 35.0522 24.2073C35.0522 24.262 35.0522 24.262 35.1081 24.3168C35.2755 24.3168 35.4429 24.3168 35.6103 24.262C38.4564 23.4405 41.8606 22.6738 45.2648 22.4547C45.209 22.3999 45.209 22.3999 45.1532 22.2904C45.0974 22.1261 45.3764 21.907 45.4881 21.688C45.8229 21.7975 46.1577 21.7975 46.2135 21.9618C46.381 22.2904 46.0461 22.3452 45.8229 22.3999C46.66 22.3452 48.4458 22.3999 48.5574 22.3452C48.3342 21.5784 48.669 20.4831 48.9481 19.7164ZM46.1577 12.4324C45.9903 12.4324 45.8787 12.2681 45.7113 12.1585C45.8229 11.9942 45.9345 11.8299 46.0461 11.7751C46.1577 11.7204 46.3252 11.8847 46.5484 12.049C46.381 12.2681 46.2135 12.4871 46.1577 12.4324ZM44.7626 6.24369C44.8742 6.07938 45.0416 6.02462 45.1532 5.86032C45.209 5.80555 45.3206 5.69602 45.3764 5.64125C45.9345 5.20311 46.4926 5.36741 46.7158 6.02462C46.7716 6.13415 46.7158 6.40799 46.6042 6.40799C46.3252 6.51752 45.9903 6.62705 45.6555 6.68182C45.4881 6.73659 45.2648 6.73659 45.0416 6.73659C44.8742 6.73659 44.651 6.68182 44.5952 6.57229C44.5952 6.57229 44.651 6.35322 44.7626 6.24369ZM43.0884 7.99623C43.1442 8.10576 43.1442 8.3796 43.0326 8.43436C42.921 8.48913 42.6977 8.5439 42.5861 8.43436C42.4745 8.3796 42.5303 8.16053 42.5303 7.88669C42.8093 7.94146 43.0326 7.94146 43.0884 7.99623ZM31.7039 7.50333C31.9271 7.55809 32.0945 7.50333 32.2061 7.61286C32.2619 7.66763 32.2619 7.94146 32.1503 7.99623C31.9271 8.16053 31.6481 8.27006 31.4248 8.43436C31.4248 8.43436 31.3132 8.3796 31.3132 8.32483C31.4248 8.051 31.5364 7.77716 31.7039 7.50333ZM20.6542 8.81773C20.9332 8.76297 21.1006 8.7082 21.2122 8.76297C21.2122 8.65343 21.268 8.59867 21.4355 8.59867C21.8261 8.5439 22.2168 9.14633 22.161 9.47494C22.161 9.5297 22.1051 9.63924 22.0493 9.694C22.0493 9.91307 22.2726 10.2964 21.8819 10.3512C21.6587 10.406 21.3797 10.1321 21.0448 10.0226C20.3751 10.1869 20.1519 10.0774 20.0403 9.58447C19.9287 9.09157 19.9845 8.98203 20.6542 8.81773ZM27.6858 16.5946C27.63 16.5399 27.6858 16.266 27.6858 16.1017C27.909 16.1565 28.0764 16.2113 28.3555 16.3208C28.3555 16.5946 28.4113 16.7589 28.4113 16.978C28.1322 16.8685 27.909 16.7589 27.6858 16.5946ZM29.9181 18.4567C29.7506 18.6758 29.5274 18.8401 29.3042 18.9496C29.1926 19.0044 28.9693 18.9496 28.8019 18.9496C28.8019 18.7853 28.8019 18.621 28.8577 18.4567C28.9135 18.3472 29.0251 18.2924 29.1368 18.1829C29.1926 18.1281 29.3042 18.0186 29.4716 17.9638C29.5832 17.9638 29.6948 17.9638 29.8064 18.0734C29.7506 17.9638 29.8622 17.8543 29.8622 17.69C30.0297 17.8543 30.1413 17.909 30.1413 17.9638C30.1413 18.0733 30.0855 18.1829 30.0297 18.2924C29.9739 18.2377 29.8622 18.2377 29.8064 18.1829C29.9739 18.2924 29.9739 18.4567 29.9181 18.4567ZM31.4806 20.9212C31.4248 21.0855 31.4806 21.3046 31.4248 21.4689C31.2016 21.3594 30.9784 21.2498 30.7551 21.1403C30.5877 21.0308 30.4761 20.8665 30.3645 20.7569C29.9739 20.3188 29.9739 20.1545 30.5319 19.7164C30.5877 19.7164 30.9784 19.5521 31.0342 19.6068C31.2574 19.8807 31.4248 20.2093 31.5922 20.5926C31.6481 20.6474 31.4806 20.7569 31.4806 20.9212ZM30.811 19.2235C30.811 19.1139 30.8668 19.0044 30.9226 18.8401C30.9784 18.8949 31.1458 18.8949 31.1458 19.0044C31.2016 19.1139 31.1458 19.2235 31.1458 19.333C31.09 19.3878 31.0342 19.4425 30.9784 19.4973C30.9226 19.4425 30.811 19.333 30.811 19.2235ZM32.3177 10.4607C31.9271 10.625 31.5922 10.7893 31.4806 11.2275C30.4761 11.5013 29.4158 11.7751 28.4113 12.049H28.3555C27.5742 11.2275 26.8487 11.9942 26.0674 12.1038C25.9558 12.1038 25.7884 12.2133 25.7326 12.3228C25.5093 13.1443 24.7281 12.98 24.17 13.1443C24.0584 13.1991 23.8351 13.0896 23.7235 12.98C23.4445 12.7062 23.2213 12.761 23.1097 13.1443C22.998 13.5277 22.8306 13.5277 22.4958 13.3086C22.3284 13.1991 22.1051 13.1443 21.8819 13.1443C21.3797 13.1991 20.9332 13.3634 20.431 13.4729C20.4868 13.692 20.6542 13.9658 20.2635 14.0754C20.2077 14.0754 19.9845 13.9658 19.9845 13.9111C19.8729 13.5277 20.2077 13.5277 20.431 13.4729C20.3751 13.2539 20.2635 12.98 20.5426 12.8157C20.6542 12.761 20.71 12.5967 20.8216 12.4871C21.0448 11.9942 21.7145 11.8299 22.161 12.1038C22.3284 12.2133 22.5516 12.3228 22.6632 12.2681C23.3329 12.1585 24.0584 11.9942 24.7281 11.8299C25.0071 11.7751 25.3419 11.6656 25.3977 11.2822C25.4535 11.0084 25.7326 10.8989 25.9 11.1727C26.179 11.5013 26.4581 11.3918 26.7371 11.337C27.2951 11.2275 27.909 11.0632 28.4671 10.9536C28.8019 10.8441 29.081 10.7893 29.1926 10.3512C29.2484 10.0774 31.3132 9.47494 31.4806 9.694C31.7039 9.96784 31.9271 10.1321 32.2619 10.0774C32.3177 10.0774 32.4293 10.1869 32.4851 10.2964C32.4293 10.2964 32.3735 10.4607 32.3177 10.4607ZM34.7174 18.621C34.3268 18.5663 33.8803 18.8949 33.8245 18.402C33.7687 17.9638 34.2152 18.0186 34.4942 17.9638C34.7732 17.8543 34.9964 17.9638 34.9964 18.2377C34.9964 18.3472 34.829 18.5115 34.7174 18.621ZM35.6103 13.0896C35.6661 12.98 35.7777 12.8705 35.8893 12.761C36.001 12.7062 36.1126 12.5967 36.2242 12.5967C36.3358 12.5967 36.559 12.7062 36.559 12.7062C36.5032 12.8705 36.5032 13.0896 36.3916 13.1443C36.2242 13.3086 35.9452 13.3634 35.7219 13.4182C35.6661 13.3086 35.5545 13.1991 35.6103 13.0896ZM36.7264 15.2802C36.559 15.1707 36.3916 15.0612 36.1684 14.8969C36.3358 14.6778 36.3916 14.4587 36.5032 14.2944C36.6148 14.4587 36.8381 14.5683 36.8939 14.7873C36.8939 14.8969 36.7823 15.1159 36.7264 15.2802ZM39.9632 16.3208C40.1306 16.8137 39.9632 17.1971 39.6284 17.5257C39.3493 17.7995 39.1261 17.7447 38.9029 17.4709C38.4564 16.9232 38.4564 16.5946 39.1261 16.1017C39.1819 16.1017 39.2377 15.9922 39.2935 15.9922C39.5168 15.8827 39.7958 15.7184 40.019 15.7731C40.2981 15.8279 39.9074 16.1565 39.9632 16.3208ZM39.7958 12.8705C39.5168 13.0348 39.4052 12.761 39.2377 12.5967C38.8471 12.1585 39.0703 11.6656 38.9587 11.1727C38.9587 11.0084 39.3493 10.7346 39.5726 10.625C39.74 10.5703 39.9632 10.7346 40.2423 10.8441C40.3539 11.337 40.5771 11.8299 40.5213 12.2681C40.5213 12.4871 40.0748 12.7062 39.7958 12.8705ZM40.8561 18.1829C40.8003 18.2377 40.6887 18.1829 40.5213 18.1281C40.6329 17.9638 40.6887 17.8543 40.6887 17.8543C40.8003 17.8543 40.9119 17.909 41.0235 17.9638C40.9677 18.0733 40.9677 18.1829 40.8561 18.1829ZM42.4745 20.0997C42.0281 20.0997 41.6374 19.9902 41.191 19.9354C41.1352 19.9354 41.1352 19.8259 41.1352 19.8259C41.3584 19.5521 41.5258 19.2782 41.749 19.0592C41.8606 19.0044 42.1397 19.1139 42.2513 19.1687C42.4187 19.4425 42.5303 19.5521 42.5303 19.7164C42.6419 19.8259 42.5303 20.0997 42.4745 20.0997ZM42.9768 15.8279C42.8094 15.7731 42.6419 15.7184 42.5303 15.7731C42.0839 15.8827 41.9723 15.7184 42.1397 15.335C42.1955 15.2802 42.1955 15.1707 42.1955 15.1159C42.1955 14.8969 42.1955 14.6778 42.1955 14.5135C42.4187 14.623 42.6419 14.7326 42.8652 14.8421C42.921 14.8969 42.9768 14.9516 43.0884 15.0064C43.1442 15.1707 43.2 15.335 43.3116 15.5541C43.3674 15.8279 43.3116 15.9374 42.9768 15.8279ZM43.9813 16.9232C44.4835 16.8137 44.93 16.7589 45.4323 16.7042C45.5439 16.7042 45.5997 16.7589 45.7113 16.8137C45.6555 16.9232 45.5997 17.0328 45.5439 17.0875C45.0974 17.2518 44.5952 17.4161 43.9813 17.5804C43.9255 17.5257 43.7581 17.4161 43.7023 17.3066C43.7023 17.1423 43.8697 16.9232 43.9813 16.9232ZM44.7068 21.7975C44.651 21.8523 44.5952 21.907 44.4277 22.0713C44.3719 22.0713 44.0371 22.2904 43.9255 22.2356C43.7023 22.0166 43.5906 21.7427 43.4232 21.4689C43.4232 21.4141 43.6464 21.1951 43.7581 21.1951C43.9255 21.1403 44.1487 21.1951 44.3719 21.2498C44.5394 21.3046 44.7068 21.3594 44.8742 21.3594C44.8184 21.4689 44.7626 21.6332 44.7068 21.7975ZM45.0974 18.1281C44.8742 18.2377 44.5952 18.3472 44.3161 18.402C44.2603 18.3472 44.2045 18.2924 44.2045 18.2377C44.3161 18.0186 44.4277 17.7447 44.5952 17.5257C44.7626 17.3066 44.9858 17.2518 45.209 17.4709C45.3764 17.7447 45.3206 17.9638 45.0974 18.1281ZM47.2181 22.0166C47.1623 21.9618 47.0506 21.9618 46.8832 21.8523C46.9948 21.7427 47.0506 21.6332 47.1065 21.5237C47.1623 21.5784 47.3297 21.6332 47.3297 21.688C47.3855 21.7975 47.2739 21.907 47.2181 22.0166Z" fill="#FEFEFE"/>
<path d="M35.5536 5.0936C35.1631 4.9841 34.7726 4.9841 34.4378 5.0936C34.382 5.0936 33.7684 5.3126 32.9873 5.80535C33.3778 5.69585 33.7684 5.5316 34.1031 5.9696C34.2705 6.13385 34.5494 6.02435 34.5494 5.80535C34.5494 5.36735 34.8841 5.3126 35.1631 5.25785C35.3304 5.2031 35.4978 5.2031 35.6652 5.14835C35.6094 5.0936 35.5536 5.0936 35.5536 5.0936Z" fill="#FEFEFE"/>
</svg>
