<svg width="70" height="70" viewBox="0 0 70 70" fill="none" xmlns="http://www.w3.org/2000/svg">
<path d="M27.9831 20.0838L27.2781 24.3943C27.5131 24.6711 27.7481 24.9479 27.9831 25.2247C28.5707 25.897 29.1582 26.5693 29.7457 27.2811C29.8633 27.4393 30.0199 27.5975 30.0591 27.7952L30.725 27.4393C30.7641 27.3997 30.8425 27.3206 30.9208 27.3206L33.1926 26.1343C33.1143 26.0947 33.0751 26.0552 32.9968 25.9761C32.9576 25.8575 32.9185 25.7388 32.8793 25.5806C32.8401 25.5806 32.7618 25.5806 32.7226 25.5411C32.7618 25.5015 32.801 25.462 32.8401 25.4225C32.801 25.1456 32.6834 24.9875 32.4093 24.9084C31.9784 24.8293 31.7826 24.5129 31.7042 24.0779C31.665 24.0779 31.5867 24.0779 31.5475 24.0779C31.4692 24.0779 31.3517 23.8802 31.3125 23.8406C31.3125 23.6429 31.2734 23.5638 31.2734 23.4452C31.2734 23.4056 31.3909 23.287 31.43 23.3265C31.3909 23.2079 31.3909 23.1288 31.5084 23.0102C31.7042 22.852 31.7826 22.6147 32.1351 22.6938C32.2526 22.7334 32.4093 22.6938 32.5659 22.6938C32.6443 22.6938 32.7618 22.7729 32.8401 22.852C32.8793 22.8915 32.801 23.0102 32.801 23.0893C32.801 23.1288 32.7618 23.1288 32.7226 23.1684C32.5268 23.3661 32.2918 23.5243 32.5268 23.8802C32.7618 24.1965 32.9185 24.592 33.3885 24.5129C33.506 24.5129 33.6627 24.5525 33.7802 24.6711C34.0152 24.9084 34.2502 25.1456 34.4461 25.3829C34.4461 25.3829 34.4461 25.4225 34.4852 25.4225L34.8378 25.2247C34.7986 25.2247 34.7594 25.2247 34.7203 25.2247C34.6419 25.2247 34.5244 25.1456 34.4852 25.0665C34.4852 25.027 34.5636 24.9084 34.6027 24.8688C35.0336 24.7106 35.5036 24.5525 35.9345 24.4338C36.0128 24.3943 36.2087 24.5525 36.2087 24.592C36.2087 24.6711 36.1695 24.7502 36.1303 24.7897C36.1695 24.7897 36.2087 24.8293 36.2479 24.8293C36.287 24.8688 36.2479 24.9084 36.2479 24.9875C36.1695 24.9875 36.1304 24.9875 36.052 24.9479C36.052 24.9479 36.052 24.9084 36.052 24.8688C36.052 24.8688 36.052 24.8688 36.0128 24.8688C35.817 24.9479 35.582 24.9875 35.2686 25.0665C35.2295 25.0665 35.1511 25.1061 35.0728 25.1061L36.3262 25.7784C36.4045 25.7784 36.4437 25.7784 36.5612 25.7784C36.5612 25.8179 36.5612 25.8575 36.522 25.897L37.2271 26.2529C37.2271 26.2134 37.2271 26.2134 37.2271 26.1738C37.3054 26.1738 37.3446 26.1738 37.4621 26.1738C37.4621 26.2529 37.4621 26.332 37.4621 26.3715L37.8538 26.5693C37.7755 26.5297 37.7363 26.4506 37.6971 26.332C37.6188 26.0947 37.7363 25.9761 37.9713 25.897C38.0105 25.897 38.0496 25.8575 38.0888 25.8575C37.8538 25.9365 37.7363 25.7388 37.5404 25.5411C37.1488 25.3434 37.3446 24.9875 37.3838 24.6315C37.2663 24.592 37.1488 24.5525 37.1096 24.4734C37.0704 24.4338 37.0312 24.3547 36.9921 24.3152C36.6004 24.0384 36.6004 23.9988 37.0704 23.8011C37.1488 23.7615 37.2271 23.722 37.3054 23.6825V23.722C37.6971 23.6429 38.0496 23.5638 38.4413 23.5243C38.5197 23.5243 38.6372 23.5638 38.7547 23.6034C38.7155 23.6824 38.6764 23.8011 38.598 23.8406C38.4022 23.9593 38.2455 24.0779 38.128 24.2756C38.4413 24.2361 38.5588 24.3547 38.4413 24.7106C38.3238 25.1061 38.3238 25.1061 38.7155 25.1061C38.9505 25.1061 39.3814 25.462 39.4206 25.6597C39.4206 25.6993 39.4206 25.7784 39.3814 25.8179C39.4206 25.8575 39.4206 25.9365 39.4597 26.0156C39.5381 26.4111 39.5381 26.4902 39.1464 26.6088C38.833 26.6879 38.5588 26.767 38.2455 26.8065C38.128 26.8461 38.0496 26.8065 37.9713 26.767L41.0265 28.3884C41.0657 28.3884 41.1049 28.3884 41.144 28.4279C41.2224 28.4675 41.2615 28.507 41.3399 28.5466L41.7707 28.7838C41.8099 28.7838 41.8491 28.7838 41.8882 28.7838C41.8099 28.7443 41.7316 28.7047 41.6924 28.6256C41.6924 28.6256 41.7707 28.4675 41.8099 28.4675C41.8882 28.4675 41.9666 28.507 42.0057 28.5466C41.9666 28.5861 41.9666 28.6652 41.9274 28.7443C41.9666 28.7443 42.0057 28.7443 42.0449 28.7443C42.1233 28.7443 42.2408 28.9025 42.3583 29.0211C42.3583 29.0211 42.3583 29.0606 42.3974 29.1002L43.7684 29.812L43.1808 26.4111C43.1417 26.4111 43.1025 26.4111 43.0633 26.3715C42.5541 26.332 42.4366 26.1343 42.4366 25.6597C42.4366 25.462 42.3191 25.2247 42.2016 25.0665C41.7316 24.4734 41.2615 23.9593 40.7915 23.3661C40.674 23.2079 40.5173 23.0497 40.3998 22.8915C40.2431 22.6147 40.3606 22.4565 40.6348 22.417C40.8698 22.3774 41.1049 22.3379 41.3399 22.2984C41.4574 22.2984 41.5749 22.2984 41.6532 22.3379C41.6924 22.3774 41.6924 22.4961 41.6532 22.5752C41.5357 23.0497 41.8099 23.3661 42.2799 23.3265C42.5541 23.287 42.6325 23.4056 42.5933 23.6429C42.5541 23.9197 42.6325 24.0384 42.8283 24.0384L42.7108 23.2474C42.6716 23.2079 42.6325 23.1684 42.6325 23.1288C42.5933 23.0102 42.5933 22.9311 42.6325 22.8915L42.1624 21.5074C42.0841 21.547 42.0449 21.547 41.9666 21.5865C41.8491 21.5865 41.7707 21.6261 41.6924 21.6261C41.6141 21.5865 41.5749 21.5074 41.5357 21.4284C41.6532 21.3097 41.8099 21.1911 41.9274 21.1515C41.9666 21.112 42.0449 21.112 42.0841 21.112L41.9274 20.1234L44.1992 17.9088C44.1992 17.8693 44.1992 17.8297 44.1992 17.7506C44.2776 17.4738 44.1601 17.3947 43.925 17.4343C43.8075 17.4343 43.6509 17.4343 43.5725 17.3552C43.5725 17.3552 43.5725 17.3552 43.5334 17.3552C43.4942 17.3947 43.455 17.3947 43.455 17.3947C43.2592 17.4343 42.985 17.5529 42.9066 17.2365C42.8675 17.1574 43.0633 16.9993 43.1417 16.9202C42.8283 16.5247 42.6325 15.9711 42.7108 15.4965C42.75 15.2988 43.0633 15.0615 43.2592 14.9429C43.3767 14.8638 43.5725 15.1011 43.455 15.2593C43.2592 15.4965 43.2983 15.6943 43.4942 15.9315C43.6117 16.0897 43.5725 16.2874 43.8467 16.4061C43.925 16.4456 44.0034 16.4852 44.0817 16.5247V16.4852C44.1209 16.327 44.3559 16.2083 44.5518 16.0897C44.5518 16.1293 44.5909 16.1688 44.5909 16.2083C44.9043 16.1293 45.2176 16.0106 45.531 15.9315C45.6093 15.9315 45.766 16.0502 45.8835 16.0897C45.8052 16.2083 45.7268 16.3665 45.6485 16.3665C45.3743 16.4061 45.1393 16.4061 45.061 16.8015C45.061 16.8806 44.7868 16.9993 44.5518 16.9993C44.6301 17.0783 44.6693 17.1574 44.7476 17.2365C44.7868 17.2761 44.7868 17.2761 44.8259 17.3156L48.9387 13.282L40.0865 11.977V12.0165C40.1256 12.0561 40.0081 12.1747 39.9689 12.2538C39.9298 12.3724 39.9689 12.5306 39.9298 12.6492C39.7731 12.5702 39.6164 12.4911 39.4597 12.412C39.3422 12.3329 39.2639 12.2142 39.1856 12.1352C38.9897 11.8979 38.9505 11.7792 39.1072 11.542L38.6764 10.672C38.598 10.7511 38.5197 10.7906 38.4413 10.8697C38.363 10.9092 38.2063 10.8697 38.0888 10.8697C38.0888 10.7511 38.0888 10.6324 38.128 10.5138C38.1672 10.4347 38.2455 10.3951 38.3238 10.3161C38.363 10.3161 38.4022 10.2765 38.4413 10.237L36.3654 5.84741C36.287 5.88696 36.2087 5.88696 36.1303 5.88696C36.052 5.88696 35.9345 5.96605 35.8953 6.04514C35.7387 6.63832 35.1903 6.51969 34.7986 6.63832C34.7203 6.67787 34.5636 6.59878 34.4852 6.51969C34.2894 6.32196 34.1327 6.3615 34.0544 6.63832C33.976 6.91514 33.8585 6.91514 33.6235 6.75696C33.506 6.67787 33.3493 6.63832 33.1926 6.63832L31.1167 10.9092C31.1558 10.9092 31.1558 10.9092 31.195 10.9092C31.3517 10.8697 31.6259 11.1861 31.7434 11.3838C31.9001 11.6211 31.6259 11.7397 31.5084 11.8979C31.3125 12.0956 31.1558 12.0956 30.9992 11.8583C30.9208 11.7792 30.8817 11.7002 30.8033 11.5815L30.6858 11.7792L21.011 13.2424L27.9831 20.0838ZM40.7523 25.5015C40.8698 25.3038 41.144 25.2247 41.379 25.1456C41.4182 25.1456 41.5749 25.3038 41.5749 25.4225C41.6924 25.7388 41.7316 26.0947 41.8099 26.4506C41.9666 26.4506 42.1624 26.332 42.2408 26.6088C42.2408 26.6484 42.2016 26.767 42.1233 26.767C41.8491 26.8461 41.8491 26.6088 41.7707 26.4506C41.5749 26.4902 41.379 26.5693 41.2615 26.2925C41.2224 26.2134 41.0657 26.1343 40.9482 26.0947C40.7132 25.9761 40.674 25.6597 40.7523 25.5015ZM30.49 25.897C30.4116 25.897 30.3333 25.9365 30.2941 25.9365C30.1766 25.9365 30.0199 25.897 29.9024 25.897C29.9416 25.7388 29.9808 25.6202 30.0199 25.5806C30.2941 25.3038 30.49 25.2247 30.6858 25.5015C30.8033 25.6993 30.7642 25.8179 30.49 25.897ZM30.49 22.6543C30.4508 22.7334 30.2941 22.6938 30.0591 22.7334C30.0983 22.5356 30.0983 22.3774 30.1766 22.3379C30.2549 22.2984 30.4116 22.3379 30.5291 22.3379C30.49 22.4565 30.5291 22.5752 30.49 22.6543ZM33.5843 20.0838C33.4668 19.9256 33.4277 19.8465 33.3885 19.7674C33.3102 19.5697 33.4277 19.4115 33.5843 19.4906C33.9369 19.6884 34.1327 19.4511 34.3677 19.2533C34.5244 19.1347 34.6811 19.0556 34.8769 18.9765C34.9161 18.937 35.0336 18.9765 35.0728 19.0161C35.1119 19.0556 35.1119 19.1743 35.0728 19.2138C34.7986 19.6884 34.3286 19.8861 33.8977 20.1629C33.8194 20.2815 33.6235 20.1234 33.5843 20.0838ZM33.8585 17.2365C33.9369 17.1179 33.976 16.9993 34.0152 16.9993C34.0935 16.9993 34.1719 17.0783 34.2502 17.1179C34.2111 17.197 34.1719 17.2761 34.0935 17.3156C34.0544 17.3552 33.976 17.2761 33.8585 17.2365ZM35.0728 23.9593C34.7986 23.9593 34.6419 23.9593 34.4461 23.9593C34.5244 23.7615 34.6027 23.5638 34.7203 23.4056C34.7594 23.3265 34.9553 23.4056 35.1119 23.4056C35.1119 23.5243 35.1119 23.6825 35.0728 23.9593ZM36.3654 23.1288C36.287 23.1684 36.052 23.0497 35.9737 22.9311C35.8953 22.8125 35.7778 22.7334 35.6995 22.6147V22.6543C35.7778 23.0497 35.7387 23.1288 35.2686 23.2474C34.9553 23.3265 34.7203 23.0893 34.6811 22.6938C34.6419 22.417 34.7594 22.2984 35.1511 22.2193C35.2295 22.2193 35.3078 22.1797 35.347 22.1797C35.2295 22.0611 35.1119 21.9029 35.0336 21.7843C34.8769 21.8238 34.6811 21.9424 34.6027 21.9029C34.4461 21.7843 34.3286 21.547 34.2502 21.3493C34.2111 21.1515 34.2111 20.9538 34.2502 20.7561C34.2502 20.677 34.4069 20.5584 34.4852 20.5584C34.7203 20.5584 35.0336 21.0329 34.9161 21.2702C34.7986 21.5074 34.9161 21.6261 34.9944 21.7843C35.2295 21.5074 35.4253 21.5074 35.6211 21.8238C35.817 22.1006 36.052 22.3379 36.2479 22.6147C36.3654 22.8124 36.6004 22.9706 36.3654 23.1288ZM35.1903 18.6997C35.1903 18.5811 35.3861 18.4624 35.3861 18.4229C35.9345 18.3043 36.0912 18.3833 36.1303 18.7393C36.1303 19.0952 36.0912 19.1347 35.7387 19.0161C35.6603 18.9765 35.582 18.9765 35.5428 18.9765C35.347 18.9765 35.1511 18.8974 35.1903 18.6997ZM37.6188 22.6543C37.2663 22.7334 37.1879 22.6938 37.0704 22.3379C36.9921 21.982 37.0312 21.9029 37.3446 21.8238C37.7363 21.7052 37.8146 21.7447 37.893 22.1006C38.0105 22.4961 37.9713 22.5752 37.6188 22.6543ZM40.3998 27.637C40.439 27.6765 40.3998 27.8347 40.3606 27.8743C40.2823 27.9138 40.1256 27.9138 40.0865 27.8743C40.0473 27.8347 40.0865 27.6765 40.0473 27.5184C40.204 27.5579 40.3215 27.5579 40.3998 27.637ZM40.204 23.6825C40.2431 23.7615 40.1648 23.9197 40.0865 23.9988C39.9689 24.157 39.4206 24.2361 39.2247 24.157C39.1072 24.1175 39.0289 24.0384 38.9114 23.9988C38.9897 23.9197 39.068 23.8011 39.1856 23.7615C39.3031 23.6825 39.4597 23.6429 39.5381 23.6034C39.6948 23.5638 39.8123 23.5243 39.9298 23.5638C40.0081 23.5243 40.1648 23.6034 40.204 23.6825ZM39.6948 21.982C39.8514 21.7843 39.8906 21.7052 39.9689 21.6656C40.0081 21.6656 40.1256 21.7447 40.0865 21.7843C40.0865 21.8634 40.0473 21.9424 39.9689 21.982C39.9298 22.0215 39.8514 22.0215 39.6948 21.982ZM41.1832 13.2029C41.1832 13.2029 41.2224 13.2029 41.2224 13.2424C41.7316 13.6379 42.1624 14.0729 42.4366 14.6661C42.5541 14.9824 42.2408 15.1011 42.0449 15.2197C41.9274 15.2593 41.6924 15.1406 41.4965 15.0615C41.4574 14.8638 41.379 14.6265 41.4182 14.5474C41.6532 14.2311 41.4574 14.0333 41.2615 13.7961C41.144 13.6774 41.0657 13.5192 40.9873 13.3611C40.9873 13.3611 41.144 13.2424 41.1832 13.2029ZM41.2224 16.6038C41.2615 16.6038 41.4965 16.4456 41.5749 16.5247C41.7316 16.6433 42.0057 16.9202 41.9666 17.0388C41.9274 17.0783 41.9274 17.1574 41.9274 17.197C41.9274 17.2365 41.9666 17.2761 41.9666 17.3156C42.0057 17.3947 42.0057 17.5133 42.0057 17.5924C42.0449 17.7111 42.1233 17.8297 42.1624 17.9483C42.2016 18.067 42.1624 18.2252 42.0841 18.3438C42.0057 18.4624 41.8491 18.502 41.6924 18.5415C41.6532 18.4229 41.6141 18.2647 41.5749 18.1461C41.5357 18.0274 41.4574 17.8693 41.379 17.7506C41.3007 17.5924 41.144 17.4738 41.0657 17.3552C40.8307 17.0388 40.8307 16.9597 41.2224 16.6038ZM41.0265 19.2929C41.1832 19.1347 41.3399 19.0161 41.5357 19.2533C41.8099 19.5697 41.8099 19.807 41.5749 20.0443C41.2615 20.3211 41.144 20.3211 40.909 20.0443C40.6348 19.6884 40.674 19.5697 41.0265 19.2929ZM38.5588 13.9147C38.6764 13.9938 38.7939 13.9938 38.833 14.0729C38.8722 14.1124 38.833 14.1915 38.7939 14.2706C38.7155 14.2311 38.6372 14.2311 38.5588 14.1915C38.5197 14.152 38.5588 14.0333 38.5588 13.9147ZM38.4413 16.6038C38.7155 16.2479 38.8722 16.2479 39.1856 16.6038C39.3422 16.8015 39.5381 16.9993 39.6948 17.197C39.9298 17.4738 40.204 17.7506 40.3998 18.067C40.5565 18.2647 40.3215 18.7788 40.0865 18.8579C40.0081 18.8579 39.8514 18.8183 39.8123 18.7393C39.5381 18.4229 39.2247 18.1065 38.9897 17.7506C38.9114 17.6715 38.9114 17.4738 38.9505 17.3552C39.0289 16.9993 38.9897 16.9597 38.598 16.9202C38.5197 16.9202 38.4413 16.8806 38.363 16.8806C38.363 16.762 38.4022 16.6433 38.4413 16.6038ZM38.5588 17.7902C38.598 17.7506 38.6764 17.8693 38.7547 17.9088C38.7155 17.9879 38.6764 18.1065 38.598 18.1461C38.5588 18.1856 38.4413 18.1065 38.3238 18.0274C38.4413 17.9088 38.4805 17.7902 38.5588 17.7902ZM37.3054 8.77378C37.4621 8.81333 37.5796 8.85287 37.7755 8.93196C37.7755 9.12969 37.8146 9.24833 37.8146 9.40651C37.658 9.32742 37.4621 9.24833 37.3054 9.12969C37.2663 9.0506 37.3054 8.89242 37.3054 8.77378ZM35.817 13.1633C36.0912 12.9261 36.1303 12.9261 36.4829 13.3215C36.7179 13.5983 36.9529 13.8752 37.1879 14.152C37.4229 14.4288 37.6971 14.7056 37.9321 15.022C38.2063 15.3779 38.2063 15.457 37.9321 15.6943C37.6188 15.9315 37.5404 15.9315 37.2271 15.6152C37.1096 15.4965 36.9921 15.3383 36.8746 15.1802C36.522 14.7452 36.1695 14.3497 35.8562 13.9147C35.4645 13.4797 35.5036 13.4006 35.817 13.1633ZM33.1143 9.64378C33.3102 9.68333 33.4277 9.72288 33.506 9.80197C33.6627 9.9206 33.6235 10.0788 33.4668 10.1579C33.3102 10.237 33.0751 10.2765 32.9185 10.3161C32.9576 10.1183 33.036 9.9206 33.1143 9.64378ZM31.9392 13.4402C31.9784 13.3611 32.0176 13.3215 32.0567 13.2424C32.2918 12.9656 32.3309 12.7283 32.0567 12.4515C31.9784 12.3724 31.9392 12.1747 31.9784 12.0561C32.0567 11.8979 32.2134 11.8979 32.4093 11.977C32.9968 12.1747 32.9968 12.1747 32.6443 12.6492C32.5268 12.8074 32.4876 12.9656 32.6443 13.1238C32.7618 13.282 32.8793 13.5192 33.1143 13.4006C33.4668 13.2029 33.741 13.5983 34.0544 13.5588C34.0935 13.5588 34.1719 13.7565 34.1719 13.8356C34.2111 14.2706 34.4069 14.5079 34.8378 14.6661C34.9161 14.7056 35.0336 14.8243 35.0336 14.9033C35.0728 15.2197 35.2686 15.5361 34.9553 15.8129C34.9553 15.8129 35.0728 16.0502 35.1511 16.0502C35.4645 16.0897 35.7387 16.0502 36.052 16.0897C36.287 16.0897 36.6004 16.4456 36.5612 16.6829C36.5612 16.8411 36.4829 17.0783 36.522 17.1574C36.6787 17.3156 36.8746 17.4738 37.1096 17.5529C37.6188 17.7111 37.6188 17.7902 37.7755 18.3438C37.893 18.7393 38.2455 19.0952 38.5197 19.4511C38.833 19.8861 39.2247 20.2815 39.5772 20.7165C39.8123 20.9934 39.5381 21.112 39.3031 21.3097C39.1464 21.5074 38.9114 21.4679 38.7155 21.2306C38.5588 21.0329 38.363 20.8747 38.0496 20.9143C37.8146 20.9538 37.5796 20.5188 37.5796 20.2024C37.6188 19.7279 37.1096 19.1743 36.6396 19.1743C36.4045 19.1743 36.287 19.0556 36.3654 18.8974C36.522 18.5811 36.3654 18.4229 36.2087 18.2647C35.1903 17.0783 34.1719 15.8524 33.1926 14.6661C32.9968 14.4288 32.8401 14.2311 32.6443 13.9938C32.4876 13.7961 32.3309 13.5588 31.9784 13.6774C31.9392 13.7565 31.8609 13.5983 31.9392 13.4402ZM32.5659 18.0274C32.5268 18.2252 32.5659 18.3833 32.4876 18.4229C32.4093 18.4624 32.2134 18.4624 32.1742 18.3833C32.1351 18.3043 32.0959 18.1461 32.1742 18.067C32.2134 18.0274 32.3701 18.067 32.5659 18.0274ZM31.2342 16.6829C31.2734 16.7224 31.2734 16.8411 31.2734 16.9202C31.195 16.9202 31.0775 16.9597 30.9992 16.9202C30.96 16.9202 30.96 16.762 30.96 16.6433C31.0775 16.6433 31.195 16.6433 31.2342 16.6829ZM29.6282 20.9143C29.9024 20.5979 30.0983 20.5584 30.4508 20.7956C30.6858 20.5979 30.9208 20.4397 31.1167 20.2024C31.1558 20.1629 31.195 20.1234 31.2342 20.0838C31.2342 20.0443 31.2342 20.0047 31.195 19.9652C31.1558 19.807 31.0383 19.5697 31.3125 19.5302C31.43 19.5302 31.5475 19.7279 31.7434 19.8465C31.7042 19.9256 31.665 20.0443 31.6259 20.1234C31.665 20.1629 31.665 20.2024 31.7042 20.242C31.9001 20.0443 32.1351 19.9652 32.2918 20.242C32.3701 20.3606 32.4093 20.5188 32.4484 20.677C32.2918 20.6374 32.1351 20.5979 32.0176 20.5188C31.9001 20.4397 31.7826 20.3211 31.7042 20.242C31.4692 20.4397 31.195 20.6374 30.9992 20.8352C30.7642 21.0329 30.5683 20.9934 30.4116 20.7956C30.2158 20.9538 30.0591 21.112 29.8633 21.2306C29.7849 21.2702 29.6282 21.2306 29.5107 21.2306C29.5891 21.1515 29.5891 20.9934 29.6282 20.9143ZM28.2965 19.5697C28.3357 19.3324 28.5707 19.2929 28.8057 19.4511L28.8449 19.4906C29.0015 19.5697 29.3149 19.2929 29.3541 19.6093C29.3932 19.807 29.1582 20.0443 29.0799 20.2024C28.884 20.2815 28.7665 20.3606 28.6098 20.4397C28.5315 20.4793 28.3748 20.4397 28.3748 20.4397C28.3357 20.1234 28.2573 19.8465 28.2965 19.5697ZM28.179 22.8124C28.2965 22.852 28.414 22.852 28.4532 22.8915C28.6098 23.0497 28.7273 23.2079 28.8449 23.3661C28.9232 23.4452 29.0407 23.5243 29.119 23.6429C29.2757 23.8406 29.6282 23.3661 29.6282 23.8011C29.6282 23.9988 29.5499 24.1965 29.6674 24.3943C29.7066 24.4338 29.6674 24.5525 29.6282 24.592C29.3932 24.8293 29.119 25.0665 28.884 25.2643C28.8057 25.3038 28.6882 25.3038 28.5707 25.3434C28.5707 25.3038 28.5315 25.2643 28.5315 25.1852C28.5707 25.0665 28.6098 24.9479 28.6882 24.8688C29.119 24.3547 29.119 24.3547 28.7273 23.8406C28.5315 23.6034 28.3357 23.3661 28.179 23.1288C28.1398 23.0497 28.179 22.9311 28.179 22.8124ZM27.4739 18.3833C27.2389 18.5415 27.0822 18.3833 26.8864 18.1065C26.8864 18.0274 26.8864 17.8693 26.9256 17.7111C27.1214 17.7902 27.3172 17.8297 27.5131 17.9483C27.6698 18.067 27.6698 18.2647 27.4739 18.3833ZM26.2205 13.8356C26.6122 13.5192 26.7297 13.5192 27.1214 13.8752C27.1997 13.9542 27.2781 14.0333 27.2781 14.1124C27.3172 14.2706 27.3172 14.4288 27.3564 14.587C27.2389 14.5474 27.0822 14.5079 26.9647 14.4683C26.808 14.3892 26.6514 14.3102 26.4947 14.2706C26.3772 14.2311 26.2597 14.2311 26.1422 14.1915C26.1813 13.9938 26.2205 13.8752 26.2205 13.8356ZM25.9855 16.5643C26.103 16.4852 26.2988 16.5643 26.5339 16.6038C26.5339 16.8806 26.6122 17.1179 26.5339 17.197C26.2988 17.3947 26.1422 17.0783 25.9855 16.9993C25.8288 16.8806 25.7896 16.6829 25.9855 16.5643Z" fill="#FEFEFE"/>
<path d="M27.1214 26.8063C27.1214 26.6481 27.043 26.49 27.0038 26.3318C27.0038 26.2922 26.9647 26.2527 26.9647 26.2527L26.8472 26.925C26.9255 26.8459 27.043 26.8459 27.1214 26.8063Z" fill="#FEFEFE"/>
<path d="M27.6698 27.4787C27.5131 27.4392 27.3564 27.3601 27.2781 27.2019C27.1214 27.2414 26.9256 27.281 26.7689 27.3205L26.4555 29.2583C26.4947 29.4955 26.4947 29.6537 26.3772 29.7724L28.6882 28.5465C28.649 28.5465 28.6099 28.5465 28.5707 28.5069C28.2573 28.4674 27.9831 28.1905 28.0223 27.8742C28.0223 27.5974 27.944 27.5183 27.6698 27.4787Z" fill="#FEFEFE"/>
<path d="M33.7802 5.96592C34.2502 5.88683 34.7594 5.76819 35.2294 5.64955C35.4253 5.61001 35.6603 5.53092 35.6995 5.2541C35.7386 5.09591 35.8953 5.01682 36.0128 5.09591L34.9553 3L33.5452 5.88683C33.6235 5.92637 33.7018 5.96592 33.7802 5.96592Z" fill="#FEFEFE"/>
<path d="M28.4591 53.3355C28.761 53.6911 29.0126 53.9958 29.3145 54.3514C29.5157 54.5546 29.6164 54.7578 29.3648 54.961C29.1635 55.1642 28.9623 55.0118 28.8113 54.8594C28.5094 54.5038 28.2075 54.0974 27.8553 53.7419C27.6541 53.4879 27.4528 53.2339 27.2516 52.9799L19.3019 50.2876C19.2013 50.2876 19.1509 50.3384 19.0503 50.3384C18.9497 50.3384 18.7987 50.2876 18.6981 50.2368C18.6981 50.186 18.7484 50.1352 18.7484 50.1352L13.4151 48.3573C13.3145 48.4081 13.2642 48.4589 13.2138 48.5097C13.0126 48.7129 12.8113 48.9161 12.6101 49.0177C12.5094 49.0685 12.2579 49.0685 12.2075 49.0177C12.0063 48.6113 11.7044 48.7129 11.3522 48.6621C11.2013 48.6621 11.1006 48.6113 11 48.5097V58.974L11.7547 59.228C11.7547 59.0248 11.9057 58.974 12.2579 58.8724C12.7107 58.7708 12.761 58.8216 12.9119 59.3804C12.9119 59.482 12.9623 59.5328 12.9623 59.6344L19.7044 61.9203C19.7547 61.8695 19.805 61.8695 19.8553 61.8187C20.2075 61.6663 20.1572 61.3615 20.0566 61.1075C19.956 60.7519 19.956 60.2948 19.4025 60.1932C19.3019 60.1932 19.2013 59.9392 19.2013 59.7868C19.2013 59.6852 19.3522 59.5836 19.4528 59.5328C19.956 59.3296 20.1572 59.4312 20.3585 59.9392C20.4088 60.1424 20.4591 60.3456 20.5094 60.5487C20.5597 60.7519 20.6101 60.9551 20.6101 61.1583C20.7107 61.5139 20.761 61.8695 20.8616 62.2251L33.1887 66.3905C33.3396 66.2889 33.4403 66.1365 33.5409 65.8825C33.5409 65.8317 33.7925 65.7809 33.7925 65.8317C33.9937 66.0857 34.1447 66.3905 34.1447 66.6953L35.0503 67.0001L36.6101 66.4413C36.5597 66.3905 36.5094 66.2889 36.4591 66.2889C36.3082 65.8317 36.2579 65.5777 36.6604 65.4253C36.7107 65.4253 36.761 65.3237 36.8113 65.2729C36.9119 65.1713 36.8113 64.8158 37.0629 64.8158C37.1132 64.6634 37.1132 64.4602 37.0126 64.3078C37.1635 64.257 37.3145 64.1554 37.4151 64.2062C37.6667 64.3586 37.8679 64.511 38.0189 64.7142C38.0692 64.6126 38.0692 64.5618 38.1698 64.4602C38.2201 64.4094 38.4214 64.511 38.4717 64.5618C38.673 64.8666 38.9245 64.765 39.1761 64.7142C39.7296 64.5618 40.3333 64.4094 40.8868 64.3078C41.1887 64.257 41.4403 64.1554 41.4403 63.7998C41.4403 63.6982 41.5912 63.5966 41.6415 63.5966C41.7421 63.5966 41.8428 63.6982 41.8931 63.749C42.1447 64.1046 42.1447 64.3586 41.9434 64.511L50.195 61.6663C50.2956 61.5139 50.3962 61.3615 50.4969 61.2091C50.6478 61.1583 50.7987 61.0567 50.8994 61.0567C51.0503 61.0059 51.3019 60.9551 51.4025 61.0059C51.5031 61.0567 51.5031 61.1583 51.5031 61.2091L54.0692 60.3456C54.0189 60.2948 54.0189 60.2948 53.9686 60.244C53.6164 59.7868 53.6667 59.482 54.0692 59.1264C54.4214 58.8216 54.522 58.8724 54.9245 59.3804C55.0755 59.5836 55.2767 59.7868 54.9748 60.0916L57.088 59.3804C56.8365 59.0756 56.5849 58.7708 56.434 58.3644C56.283 58.0597 56.434 57.6025 56.4843 57.1961C56.4843 57.1453 56.7862 57.0945 56.8365 57.1453C57.088 57.2977 57.2893 57.5009 57.4906 57.7041C57.7421 58.0089 57.9434 58.3644 58.2453 58.72C58.2956 58.7708 58.3459 58.8216 58.3962 58.8724L58.8491 58.72V47.2397L58.195 47.4429C58.195 47.4937 58.195 47.5953 58.195 47.6461C58.0943 47.6461 57.8931 47.6461 57.7924 47.5953L34.8994 55.3166L28.4591 53.3355ZM11.5031 51.4052C11.5535 51.2528 11.6038 51.0496 11.7044 51.0496C11.805 50.9988 11.956 51.1512 12.0566 51.2528C12.1069 51.3036 12.1572 51.456 12.1572 51.5576C12.2075 51.8115 12.3082 52.1163 11.956 52.2179C11.6038 52.3195 11.5535 52.0147 11.5031 51.8115C11.5535 51.6083 11.5031 51.5068 11.5031 51.4052ZM12.8113 55.5198C12.6101 55.6722 12.3082 55.6722 12.1069 55.4182C11.956 55.215 11.805 55.0118 11.7044 54.9102C11.7044 54.5038 11.5031 54.199 11.9057 54.0466C12.3585 53.8942 12.6101 53.945 12.8113 54.3514C12.9119 54.5546 12.9623 54.7578 12.9623 54.961C13.0126 55.1642 12.9119 55.4182 12.8113 55.5198ZM15.3774 50.8464L15.5283 50.8972C15.5283 50.948 15.5283 51.0496 15.5283 51.202C15.3774 51.1004 15.2767 51.1004 15.2767 50.9988C15.2264 50.9988 15.327 50.8972 15.3774 50.8464ZM15.6792 53.0815C16.1321 52.9291 16.1321 53.3355 16.2327 53.5895C16.3836 54.0974 16.283 54.2498 15.8805 54.3514C15.5786 54.4022 15.327 54.453 15.2264 54.0466C15.1258 53.4879 15.2767 53.1831 15.6792 53.0815ZM15.9811 59.1772C15.5283 59.3296 15.0755 59.4312 14.6226 59.5836C14.2704 59.6852 14.0692 59.5328 14.0189 59.1772C13.9686 58.8724 13.8176 58.5676 14.2704 58.4152C14.522 58.3644 14.7736 58.2628 15.0252 58.2121C15.327 58.1105 15.5786 58.0597 15.5786 57.6533C15.5786 57.2469 16.0314 57.2469 16.283 57.2977C16.4843 57.2977 16.6352 57.6025 16.6855 57.6533C16.8868 58.3136 16.4843 59.0248 15.9811 59.1772ZM19.2516 58.3136C19.0503 58.3644 18.8994 58.4152 18.6981 58.466C18.3962 58.5168 18.0943 58.6692 18.0943 59.0248C18.0943 59.0756 17.9434 59.1772 17.8931 59.1772C17.6415 59.1264 17.4403 58.3136 17.6415 58.1105C17.9434 57.7549 18.3459 57.4501 18.4465 56.9929C18.4465 56.9421 18.5975 56.8405 18.6478 56.8405C18.9497 56.9421 19.2013 56.9929 19.4528 57.1453C19.6038 57.2469 19.6541 57.4501 19.6541 57.5009C19.8553 58.1105 19.805 58.1613 19.2516 58.3136ZM20.2579 53.5895C20.1069 53.4371 19.9057 53.2339 19.6541 53.0307C19.805 52.8275 19.9057 52.6243 20.0063 52.5735C20.2579 52.4719 20.4088 52.7259 20.4088 52.9291C20.4088 53.1323 20.3082 53.3863 20.2579 53.5895ZM23.5786 52.6751C23.6289 52.5735 23.7296 52.4719 23.9308 52.2687C24.0314 52.2687 24.283 52.1671 24.3333 52.2687C24.5346 52.5227 24.5849 52.7767 24.7358 53.0815C24.7358 53.0815 24.6855 53.1831 24.6352 53.1831C24.283 53.1323 23.9308 53.1323 23.6289 53.0815C23.5786 53.0307 23.5283 52.7767 23.5786 52.6751ZM21.7673 61.9203C21.6667 61.8695 21.6164 61.8187 21.4654 61.7679C21.566 61.6663 21.566 61.5647 21.6164 61.5139C21.717 61.5647 21.8176 61.6155 21.8679 61.7171C21.9182 61.7171 21.8176 61.8187 21.7673 61.9203ZM22.9245 57.3485C22.4717 57.4501 22.0692 57.6025 21.6667 57.7041C21.0629 57.8565 20.9623 57.8057 20.8616 57.1961C20.761 56.9421 20.8113 56.6881 21.1132 56.5357C21.2642 56.4341 21.9182 56.2309 22.1195 56.2817C22.2704 56.3325 22.4214 56.2817 22.522 56.2817C23.0252 56.3325 23.1761 56.4341 23.2264 56.9421C23.2264 57.1961 23.1258 57.2977 22.9245 57.3485ZM24.1321 61.3107C24.0314 61.4123 23.8805 61.5647 23.8302 61.6663C23.7799 61.8695 23.7296 62.0727 23.5283 62.0219C23.3774 61.9711 23.327 61.7679 23.2767 61.7171C23.1258 61.1075 23.5283 60.7011 24.0314 60.8535C24.2327 60.9551 24.283 61.1075 24.1321 61.3107ZM24.3333 58.7708C24.2327 58.4152 24.2327 58.2628 24.7862 58.1105C24.8868 58.1613 25.1887 58.2121 25.3396 58.3644C25.6415 58.6692 25.6918 59.0248 25.5912 59.3804C25.6415 59.3804 25.5912 59.6344 25.5409 59.6852C25.4403 59.736 25.2893 59.736 25.088 59.736C25.1384 59.6344 25.1384 59.5328 25.1384 59.4312C24.8365 59.2788 24.434 59.1772 24.3333 58.7708ZM26.0943 61.3615C25.6415 61.6663 25.7925 62.0219 25.7421 62.4283C25.7421 62.5299 25.6415 62.6314 25.5912 62.733C25.4906 62.6822 25.3899 62.5807 25.3396 62.5299C25.239 62.2759 25.1384 62.0219 25.088 61.8187C24.8868 61.3107 24.9371 61.2091 25.5409 61.0567C25.5912 61.0567 25.7421 61.0059 25.8931 61.0059C26.1447 61.0059 26.2453 61.2599 26.0943 61.3615ZM26.6478 55.8246C26.4969 55.5198 26.4465 55.2658 26.8491 55.0626C26.9497 55.0118 27 54.8594 27.0503 54.707C27.2516 54.2498 27.805 54.199 28.1572 54.5546C28.2579 54.6562 28.3082 54.707 28.4088 54.7578C28.5094 54.8594 28.6604 54.9102 28.761 54.961C28.6604 55.0626 28.5597 55.1134 28.4591 55.215C28.2579 55.4182 28.0566 55.6214 27.805 55.8246C27.7044 55.9262 27.5535 55.977 27.4025 56.0785C27.0503 56.2817 26.7987 56.1801 26.6478 55.8246ZM28.5094 60.7011C28.3585 60.6503 28.2579 60.4472 28.1572 60.3964C27.956 60.3456 27.7044 60.3456 27.7547 60.0408C27.805 59.8884 28.0063 59.8376 28.1572 59.6852C28.3585 59.736 28.6604 59.736 28.7107 59.8376C28.8616 60.0408 28.8616 60.2948 28.8616 60.5487C28.8616 60.6503 28.6101 60.7519 28.5094 60.7011ZM28.9623 58.7708C28.8616 58.7708 28.761 58.72 28.5597 58.6692C28.6604 58.5168 28.7107 58.3644 28.761 58.3644C28.8616 58.3644 29.0126 58.466 29.0629 58.5168C29.1132 58.5676 29.0126 58.7708 28.9623 58.7708ZM32.1321 58.2628C32.1824 58.212 32.3836 58.2628 32.5849 58.2628C32.5346 58.466 32.5346 58.6184 32.434 58.6692C32.3333 58.72 32.1321 58.6692 32.0818 58.6184C32.0314 58.5168 32.0818 58.3136 32.1321 58.2628ZM29.717 61.9203C29.566 61.8187 29.4654 61.7679 29.4654 61.7171C29.4654 61.6155 29.5157 61.5139 29.5157 61.4123C29.566 61.4631 29.717 61.4631 29.717 61.5139C29.717 61.6155 29.717 61.7171 29.717 61.9203ZM29.9686 55.9769C30.1698 55.8246 30.3208 55.7738 30.6226 55.9262C30.9245 56.0785 31.327 55.8754 31.6289 56.2817C31.8805 56.6373 31.7296 56.8405 31.5786 57.1453C31.5283 57.2469 31.4277 57.2977 31.3774 57.3485C31.3774 57.3993 31.4277 57.3993 31.4277 57.4501C31.5283 57.8057 31.3774 58.2628 31.1761 58.2121C30.9748 58.1613 30.8742 57.9581 30.673 57.7549C30.7736 57.5517 30.8239 57.3993 30.9245 57.2469C30.8239 57.1453 30.673 57.1961 30.522 57.1453C30.3208 57.0945 30.1195 57.0437 29.9686 56.9421C29.4654 56.5357 29.4654 56.3833 29.9686 55.9769ZM34.9497 65.9333C34.8491 65.9333 34.7484 65.8317 34.5975 65.7809C34.6981 65.6285 34.7987 65.4761 34.8491 65.5269C34.9497 65.5269 35.0503 65.6285 35.1509 65.7301C35.1509 65.7301 35 65.9333 34.9497 65.9333ZM55.9811 53.7419C56.0314 53.5895 56.0314 53.4371 56.0818 53.2847C56.1321 53.1323 56.1321 52.9799 56.2327 52.9291C56.3333 52.8783 56.4843 52.9799 56.5849 53.0307C56.7358 53.1323 56.8365 53.2339 56.8868 53.3355C57.3396 53.8942 57.3396 54.2498 56.9371 54.6562C56.8365 54.707 56.7358 54.8086 56.6352 54.8086C56.3333 54.7578 55.8805 54.0466 55.9811 53.7419ZM54.9245 52.4719C54.9748 52.4211 55.1258 52.3703 55.2767 52.3195C55.2264 52.4719 55.2767 52.6243 55.2264 52.6751C55.1258 52.7259 55.0252 52.7259 54.9245 52.7259C54.9245 52.6243 54.8742 52.5227 54.9245 52.4719ZM54.2704 55.2658C54.3711 55.215 54.6226 55.3166 54.7736 55.4182C54.8742 55.469 54.9748 55.6214 55.0755 55.723C55.1258 55.7738 55.1258 55.8246 55.1761 55.8754C55.7296 55.723 56.283 55.5706 56.7862 55.469C57.2893 55.3674 57.5912 55.469 57.6918 55.7738C57.7421 55.723 57.8428 55.6722 57.8931 55.6214C58.0943 56.0277 58.7987 55.3166 58.8491 56.0277C58.8491 56.1801 58.5472 56.4341 58.3459 56.5357C58.195 56.5865 57.9937 56.4341 57.8428 56.3833C57.7924 56.3325 57.7924 56.2817 57.7421 56.2309C57.7421 56.3325 57.5912 56.4849 57.4403 56.5865C57.1887 56.6881 56.9371 56.7389 56.6855 56.7897C56.6855 56.7897 56.6855 56.7897 56.6855 56.7389C56.434 56.8405 56.1321 56.9421 55.8805 56.9929C55.4277 57.0437 55.6792 57.7549 55.2264 57.6533C54.9245 57.6025 54.7736 57.2469 54.3711 57.3485C53.8679 57.4501 53.717 57.2977 53.566 56.8405C53.4654 56.5357 53.5157 56.3325 53.8176 56.2309C53.8679 56.1801 53.9686 56.1801 54.0189 56.1801C54.0189 56.0277 54.0189 55.9262 54.0692 55.7738C54.1195 55.5706 54.1698 55.3166 54.2704 55.2658ZM53.8679 53.945C53.7673 53.945 53.6163 53.945 53.566 53.8942C53.5157 53.7926 53.5157 53.6403 53.4654 53.5387C53.566 53.5387 53.6667 53.5895 53.8176 53.5895C53.8679 53.6911 53.8679 53.8434 53.8679 53.945ZM53.3145 50.3892C53.5157 50.4908 53.6667 50.4908 53.717 50.5924C53.7673 50.6432 53.717 50.8972 53.6667 50.8972C53.566 50.948 53.3648 50.948 53.3145 50.8464C53.2641 50.7956 53.3145 50.6432 53.3145 50.3892ZM53.0629 57.1961C53.0629 57.2469 53.0629 57.2469 53.0629 57.1961C53.9182 58.1105 53.8679 58.2121 52.761 58.9232C52.4088 59.1264 52.1572 59.482 51.8553 59.736C51.7044 59.8376 51.5031 59.9392 51.3522 59.8884C51.1006 59.7868 51.2013 59.5836 51.2516 59.3296C51.3019 58.8216 51.3522 58.4152 51.805 58.1105C51.8553 58.1105 51.8553 58.0597 51.8553 58.0089C51.7547 58.0597 51.7044 58.0597 51.6038 58.1105C51.5031 58.1105 51.4025 58.2121 51.2516 58.2121C51.1509 58.2121 50.9497 58.1613 50.8994 58.0597C50.8491 57.9581 50.8491 57.8057 50.8994 57.6533C51 57.4501 51.1006 57.2469 51.2516 57.0945C51.3522 56.9929 51.5031 56.8913 51.6038 56.8405C51.7044 56.8405 51.7547 56.8405 51.8553 56.7897C51.9057 56.6881 51.956 56.5357 52.0566 56.4849C52.1069 56.4341 52.3585 56.4849 52.4088 56.5865C52.4591 56.6373 52.5094 56.6881 52.5597 56.7389C52.9119 56.6881 52.9623 56.8405 53.0629 57.1961ZM52.5094 53.6403C52.6101 53.6911 52.7107 53.7419 52.761 53.8434C52.8113 53.8942 52.7107 53.9958 52.6604 54.1482C52.5597 54.0466 52.4591 53.9958 52.4591 53.8942C52.4088 53.8434 52.4591 53.7419 52.5094 53.6403ZM51.1509 50.694C51.2013 50.6432 51.5031 50.7956 51.7044 50.8972C51.805 50.948 51.9057 51.0496 52.0063 51.1512C52.1572 51.5068 52.5597 51.7607 52.2579 52.2687C52.2075 52.3703 52.2579 52.5227 52.2579 52.6243C52.3585 52.9799 52.2075 52.9799 51.9057 52.9291C51.7547 52.8783 51.5535 52.9291 51.3522 52.9799C51.0503 53.0307 50.7987 52.8783 50.9497 52.6243C51.1509 52.2687 50.9497 52.0655 50.8491 51.8115C50.7987 51.7099 50.6981 51.5575 50.7484 51.456C50.8491 51.1512 50.9497 50.8972 51.1509 50.694ZM50.3962 55.4182C50.4465 55.3674 50.6478 55.3674 50.7987 55.3674C50.7987 55.5198 50.7987 55.6722 50.7484 55.723C50.6478 55.7738 50.4969 55.7738 50.3962 55.7738C50.3459 55.6722 50.2956 55.469 50.3962 55.4182ZM49.0377 56.8913C49.1887 56.9929 49.3396 57.1453 49.4906 57.1961C49.5912 57.2469 49.6918 57.2469 49.8428 57.2977C50.1446 57.3993 50.3962 57.8565 50.3459 58.1613C50.2956 58.3644 49.5409 58.6692 49.3396 58.5168C49.1887 58.4152 49.1384 58.1613 49.0377 58.0597C49.0377 57.8057 48.9874 57.6533 48.9874 57.5009C48.9874 57.2977 49.0377 57.0945 49.0377 56.8913ZM48.9371 56.2309C48.8868 56.3325 48.8868 56.4341 48.8365 56.5357C48.8365 56.5865 48.6352 56.5357 48.5849 56.4849C48.5346 56.4341 48.4843 56.3325 48.434 56.1801C48.7358 56.2309 48.8365 56.2309 48.9371 56.2309ZM48.2327 59.1772C48.4843 59.482 49.0377 58.8724 49.1384 59.4312C49.1887 59.5328 48.9371 59.736 48.7862 59.9392C48.6352 59.9392 48.3333 60.0916 48.283 59.99C48.1321 59.7868 48.0314 59.482 47.8805 59.228C48.0314 59.228 48.1824 59.1264 48.2327 59.1772ZM47.7296 58.5168C47.7799 58.5168 47.9308 58.6692 47.9811 58.72C47.8805 58.8216 47.7799 58.9232 47.6792 59.0248C47.6289 59.0756 47.5283 58.9232 47.327 58.8724C47.478 58.72 47.5786 58.5676 47.7296 58.5168ZM47.1761 53.4879C47.2264 53.4371 47.327 53.4879 47.478 53.4879C47.4277 53.6403 47.3774 53.7419 47.327 53.7927C47.2767 53.8434 47.1761 53.7927 47.0755 53.7927C47.1258 53.6911 47.1258 53.5895 47.1761 53.4879ZM46.8239 55.0626C46.9245 55.0626 47.0252 55.1642 47.1258 55.215C47.0755 55.3166 47.0252 55.469 46.9748 55.5198C46.8742 55.5706 46.7736 55.469 46.5723 55.4182C46.673 55.2658 46.7233 55.1134 46.8239 55.0626ZM45.9182 55.5706C45.9686 55.5706 45.9182 55.6722 45.9182 55.7738C45.8176 55.7738 45.7673 55.7738 45.6667 55.7738C45.6164 55.7738 45.6667 55.6722 45.6667 55.5198C45.7673 55.5198 45.8679 55.5198 45.9182 55.5706ZM46.3208 58.3136C46.3711 58.3136 46.522 58.466 46.522 58.5168C46.4717 58.7708 46.4214 59.1772 46.2704 59.2788C45.7673 59.5328 45.2138 59.6344 44.7107 59.736C44.6604 59.736 44.5094 59.3296 44.5094 59.1264C44.5094 58.974 44.6604 58.7708 44.761 58.72C44.9623 58.6184 45.2138 58.5676 45.4151 58.5168V58.466C45.7673 58.4152 46.0189 58.3136 46.3208 58.3136ZM44.0566 54.3514C44.2579 54.199 44.3585 54.1482 44.4591 54.0974C44.761 53.9958 44.9119 54.199 44.9623 54.453C44.9623 54.5038 44.8113 54.6562 44.7107 54.7578C44.6604 54.8086 44.5597 54.8086 44.4591 54.8594C44.3082 54.8594 44.1069 54.8594 43.956 54.8594C44.0063 54.6562 44.0063 54.453 44.0566 54.3514ZM43.9057 55.8246C43.956 55.7738 44.1572 55.8246 44.2075 55.9262C44.3082 56.0277 44.3082 56.1801 44.3585 56.3325C44.3585 56.4341 44.3585 56.5865 44.3082 56.7389C44.3082 56.7897 44.1069 56.8405 44.1069 56.8405C44.0063 56.6373 43.8553 56.4341 43.805 56.1801C43.7547 56.0785 43.8553 55.8754 43.9057 55.8246ZM43.7044 63.4442C43.9057 63.5458 44.0566 63.5458 44.1069 63.5966C44.1572 63.6474 44.1069 63.8506 44.0566 63.9014C43.956 63.9522 43.7547 63.9522 43.7044 63.8506C43.6038 63.7998 43.7044 63.6474 43.7044 63.4442ZM42.1447 56.0785C42.4465 56.0278 42.5975 56.1801 42.6981 56.6373C42.7987 57.1453 42.7484 57.2977 42.3459 57.3993C41.8428 57.5009 41.5912 57.3485 41.4403 56.7897C41.4403 56.4849 41.7421 56.1293 42.1447 56.0785ZM42.4465 60.6503C42.4969 60.7011 42.6478 60.8535 42.7484 61.0059C43.0503 61.4631 43 61.7679 42.5472 62.0727C42.4465 62.1235 42.2956 62.1743 42.2453 62.1235C41.6918 61.8695 41.1887 61.7679 40.5849 62.0219C40.3836 62.1235 39.9308 61.3615 40.0818 61.1583C40.1321 61.1075 40.283 61.0567 40.3333 61.1075C40.8365 61.4123 41.0377 60.9551 41.2893 60.7011C41.3396 60.6503 41.239 60.4471 41.1384 60.3456C41.088 60.2948 40.9371 60.3963 40.8868 60.3456C40.7862 60.244 40.6855 60.0916 40.6352 59.99C40.7358 59.9392 40.8868 59.8376 40.9874 59.8376C41.7421 59.8884 41.7421 59.8884 42.4465 60.6503ZM40.7358 54.8594C40.7862 54.8594 40.8365 54.961 40.8868 55.0118C40.8365 55.0626 40.7862 55.1642 40.6855 55.1642C40.6352 55.1642 40.5346 55.1134 40.3836 55.0626C40.5849 54.961 40.6352 54.9102 40.7358 54.8594ZM39.9308 54.2498C40.0314 54.3006 40.2327 54.3514 40.2327 54.453C40.283 54.5546 40.1824 54.707 40.1321 54.961C39.9308 54.8086 39.7799 54.7578 39.7799 54.6562C39.7296 54.5038 39.8805 54.4022 39.9308 54.2498ZM40.3836 56.6373C40.434 56.6373 40.6352 56.6373 40.7358 56.7389C40.8868 56.9421 40.7358 57.0437 40.5849 57.1961C40.4843 57.2977 40.4843 57.5009 40.3836 57.6025C40.283 57.7041 40.1321 57.8565 40.0314 57.8565C39.9308 57.8565 39.7799 57.6533 39.7296 57.5517C39.6289 57.0437 39.7799 56.8405 40.3836 56.6373ZM39.8805 58.466C40.0818 58.72 40.4843 58.9232 40.1824 59.3804C40.0314 59.6344 39.9811 60.0408 39.8302 60.2948C39.5283 60.7519 39.327 60.7519 38.9748 60.3456C38.7736 60.1424 38.6226 59.9392 38.4214 59.6852C38.2704 59.4312 38.0189 59.1264 37.8176 58.7708C37.7673 58.6184 37.7673 58.466 37.717 58.3136C37.8679 58.3644 38.0189 58.3644 38.1698 58.4152C38.2201 58.4152 38.2704 58.466 38.2704 58.466C38.5723 58.72 38.8742 58.7708 39.1761 58.466C39.3774 58.3136 39.6289 58.2121 39.8805 58.466ZM39.0252 57.1453C39.0755 57.0945 39.2767 57.0945 39.3774 57.1453C39.4277 57.1453 39.478 57.3485 39.4277 57.4501C39.3774 57.5517 39.2264 57.6533 39.1258 57.8057C39.0252 57.8565 38.8742 57.9073 38.7736 57.9581C38.7233 57.9581 38.5723 57.8057 38.5723 57.8057C38.7233 57.5517 38.8742 57.2977 39.0252 57.1453ZM37.0126 55.5706C37.1635 55.6214 37.2641 55.6722 37.3145 55.723C37.3648 55.7738 37.3145 55.8754 37.3145 55.9769C37.2138 55.9769 37.1132 55.9262 37.0126 55.8754C36.9623 55.8754 37.0126 55.723 37.0126 55.5706ZM35.5535 57.8565C35.7044 57.8057 35.805 57.7041 35.956 57.6533C36.6101 57.5009 37.2642 57.3993 37.8679 57.2977C37.9686 57.2977 38.1195 57.2469 38.2201 57.2469C38.3208 57.2469 38.4214 57.3485 38.4214 57.3993C38.4214 57.5009 38.3711 57.6533 38.3208 57.7041C38.0189 57.8057 37.7673 57.9073 37.4654 58.0089C37.0126 58.1105 36.5094 58.1105 36.3585 58.72C36.3082 58.8724 35.805 58.974 35.5535 58.974C35.4528 58.974 35.3019 58.6184 35.2516 58.4152C35.1509 58.1105 35.3522 57.9581 35.5535 57.8565ZM35.3522 59.0248C35.3522 59.0756 35.2013 59.228 35.1006 59.228C34.4969 59.228 34.5975 59.228 34.4465 59.7868C34.3459 60.2948 34.4465 60.5995 34.7987 60.9043C35.0503 61.1583 35.3019 61.4631 35.1509 61.9203C35.1006 62.0219 35.2013 62.1743 35.2013 62.3267C35.3522 62.3267 35.4528 62.3267 35.6038 62.2759C36.3082 62.0219 36.4088 62.0219 36.761 62.4283C37.2138 62.9362 36.9623 63.7998 36.3082 64.0538C36.0063 64.1554 35.8553 64.0538 35.7044 63.8506C35.3522 63.4442 35 63.0378 34.6981 62.6314C34.4465 62.3267 34.195 62.0219 33.9434 61.7171C33.6918 61.4123 33.2893 61.1583 33.5912 60.6503C33.6415 60.5995 33.4906 60.3964 33.4402 60.2948C33.2893 60.0916 33.1384 59.9392 33.0377 59.6852V59.6344C32.5346 59.736 32.0314 59.8884 31.5786 60.0408C31.2767 60.1424 30.8742 60.1424 30.9245 60.6503C30.9245 60.7011 30.7736 60.8027 30.673 60.8535C30.6226 60.8535 30.522 60.7519 30.4717 60.7011C30.3208 60.4472 30.2704 60.1932 30.3711 60.0408C30.3711 59.9392 30.3711 59.8376 30.3208 59.736C30.4717 59.736 30.6226 59.736 30.673 59.7868C30.673 59.7868 30.7233 59.7868 30.7233 59.736C30.9245 59.6344 31.1258 59.5836 31.2264 59.2788C31.2264 59.1772 31.4277 59.0248 31.5786 58.974C31.8302 58.8724 32.0818 58.8216 32.3333 58.7708C32.5346 58.72 32.7358 58.6692 32.9371 58.6184C33.4402 58.5168 33.4906 58.6184 33.5912 59.0756C33.5912 59.1264 33.5912 59.1264 33.5912 59.1772C33.6918 59.1772 33.7925 59.1264 33.8428 59.0756C34.0943 58.9232 34.3459 58.7708 34.5975 58.6184C34.8994 58.466 35.3019 58.6692 35.3522 59.0248Z" fill="#FEFEFE"/>
<path d="M37.3648 65.9841C37.3145 66.0857 37.2139 66.1873 37.2139 66.2889C37.2139 66.3397 37.2139 66.3397 37.2139 66.3905L37.6164 66.2381C37.5661 66.1365 37.4654 66.0857 37.3648 65.9841Z" fill="#FEFEFE"/>
<path d="M38.9246 65.7809L39.7296 65.5269C39.6793 65.5269 39.6793 65.4761 39.629 65.4761C39.3774 65.4761 39.0755 65.4761 38.9246 65.7809Z" fill="#FEFEFE"/>
<path d="M11 47.4419V47.543C11.0499 47.543 11.1496 47.4924 11.1994 47.4924L11 47.4419Z" fill="#FEFEFE"/>
<path d="M58.9497 33.8958C58.7484 33.6926 58.5975 33.4894 58.7987 33.1338C58.8994 32.9307 58.7484 32.7783 58.4465 32.7783C57.7924 32.7783 57.5409 32.4227 57.5912 31.7115C57.5912 31.5083 57.4906 31.3051 57.3899 31.1019C57.2893 30.8987 57.0377 30.6956 57.3396 30.5432C57.4402 30.4924 57.7421 30.6448 57.8428 30.7464C58.044 30.8987 58.195 31.1527 58.3962 31.3051C58.5975 31.5083 58.7484 31.7115 59 31.8131V29.9336L52.7107 32.0671C52.761 32.1179 52.8113 32.1687 52.8616 32.2195C52.8616 32.2703 52.9623 32.5243 52.8616 32.6767C52.7107 32.9307 52.5094 33.2354 52.1069 33.0831C52.0063 33.0323 51.956 32.9307 51.8553 32.9307C51.3522 33.0323 51.2013 32.8799 51.2013 32.5751L40.9874 36.0293C41.1887 36.1817 41.088 36.3849 40.8868 36.5373C40.5849 36.7913 40.1321 36.8421 40.0818 36.6389C40.0818 36.5373 40.0818 36.4357 40.1321 36.2833L38.4717 36.8421C38.4717 36.8421 38.4717 36.8421 38.522 36.8421C38.7233 36.9945 38.8742 37.1469 39.1761 37.0961C39.2767 37.0453 39.478 37.1977 39.5786 37.2993C39.6289 37.3501 39.6289 37.3501 39.6792 37.4009C40.0818 37.1977 40.6352 37.0961 41.1384 37.0961C41.239 37.0961 41.3396 37.2485 41.4906 37.2993C41.7421 37.3501 41.9937 37.4517 42.195 37.4517C42.4465 37.4517 42.4969 37.2993 42.4969 37.0961C42.4465 36.9437 42.4465 36.7913 42.4465 36.5881C42.4465 36.2325 42.5975 36.1817 42.8994 36.2833C43.0503 36.3341 43.2013 36.4357 43.3019 36.4865C43.6541 36.6389 43.7044 36.7913 43.5031 37.0961C43.4025 37.1977 43.3019 37.2993 43.3019 37.4517C43.3019 37.8072 43.0503 37.858 42.7987 37.9088C42.0943 38.0612 41.4402 38.2644 40.7358 38.4168C40.6855 38.4168 40.6352 38.4168 40.5849 38.4676C40.8365 38.8232 40.7862 38.9248 40.434 39.2296C40.1824 39.4328 39.9811 39.4328 39.7799 39.1788C39.6792 39.0264 39.5283 38.9248 39.4277 38.7724C39.1258 38.8232 38.8239 38.9248 38.5723 38.9756C38.4214 39.0264 38.1698 38.9248 38.1195 38.7724C38.0189 38.5184 38.1698 38.366 38.3711 38.3152C38.5723 38.2644 38.673 38.1628 38.8239 38.0612C38.7233 37.9596 38.673 37.858 38.5723 37.7564C38.3711 37.5024 38.1698 37.1469 37.717 37.4009C37.6667 37.4517 37.5157 37.3501 37.4151 37.2485C37.4151 37.2485 37.4151 37.1977 37.4151 37.1469L35 37.9596L27.6038 35.6229C27.6038 35.6737 27.6038 35.6737 27.6038 35.7245C27.7547 35.9277 27.805 36.1817 27.7547 36.4357V36.4865C28.1572 36.1309 28.4591 36.1817 28.6101 36.6897C28.6604 36.7913 28.5094 36.9945 28.5094 36.9945C27.9057 36.9945 27.5535 37.4009 27.1509 37.7564C26.9497 37.9088 25.9434 37.9596 25.8428 37.7564C25.7925 37.5532 25.8931 37.2993 25.9434 37.0961C26.195 36.9945 26.3962 36.8421 26.4969 36.8929C26.8491 37.0961 27.0503 37.0453 27.3019 36.8929C27.2516 36.8421 27.2516 36.8421 27.2013 36.7913C27.1006 36.6389 27.1006 36.4357 27.0503 36.2325C27.0503 36.1309 27 36.0293 27 35.9785C27 35.8261 26.9497 35.5721 27 35.4197L25.1887 34.8102C25.1384 34.9118 25.1384 35.0134 25.1384 35.0642C25.3396 35.5213 25.088 35.6737 24.7358 35.8769C24.5849 35.9277 24.434 36.0801 24.3333 36.1817C24.1321 36.3341 23.9308 36.4865 24.0314 36.8421C24.0818 36.9437 23.9308 37.1469 23.8302 37.2993C24.3333 37.1977 24.7358 37.1469 25.1384 37.0961C25.239 37.0961 25.3396 37.1469 25.4403 37.1977C25.3899 37.2993 25.3396 37.4009 25.2893 37.4517C24.9371 37.6548 24.5346 37.7564 24.3836 38.1628C24.434 38.2644 24.5346 38.366 24.4843 38.366C24.1824 38.8232 24.5346 39.1788 24.7358 39.5344C24.7862 39.5852 24.7358 39.7884 24.6352 39.8391C24.5849 39.8899 24.434 39.8899 24.3836 39.8899C23.7799 39.5852 23.327 39.0264 23.0252 38.4168C22.9748 38.3152 23.0252 38.0612 23.1258 37.9596C23.1761 37.9088 23.2264 37.858 23.2767 37.8072C23.2264 37.7564 23.1761 37.6548 23.2264 37.5533C23.2264 37.4517 23.478 37.3501 23.5283 37.3501C23.5786 37.3501 23.6289 37.3501 23.6792 37.2993C23.5786 37.1977 23.478 37.0453 23.3774 36.9437C23.2264 36.7405 23.2264 36.5881 23.3774 36.3341C23.5786 36.0293 23.8302 35.8261 23.6792 35.3689C23.5786 35.115 23.8805 34.9118 24.2327 35.0642C24.5346 35.2166 24.6352 35.115 24.5849 34.8102C24.5849 34.7594 24.5849 34.7594 24.5849 34.7086L23.0755 34.099C22.8742 34.2514 22.673 34.1498 22.4717 33.9466C22.4214 33.8958 22.4214 33.8958 22.4214 33.845L20.3082 33.1338C20.4088 33.2862 20.5597 33.4386 20.6604 33.591C20.9119 33.845 21.0629 34.2514 21.5157 33.9974C21.5157 33.9974 21.717 34.1498 21.717 34.2514C21.717 34.7086 21.6667 35.115 21.6667 35.5721C21.6667 35.6737 21.8176 35.8261 21.9182 35.9277C22.0692 36.1309 22.2201 36.2833 22.3208 36.5373C22.3711 36.6897 22.4214 36.9437 22.3208 37.0453C22.1195 37.2485 21.9182 37.1469 21.7673 36.9437C21.6667 36.8421 21.566 36.6897 21.4151 36.5373C21.2642 36.3341 21.1132 36.1309 21.0126 35.9277C20.8616 35.6229 20.7107 35.4705 20.3082 35.4705C20.0566 35.4705 19.7044 35.2674 19.5535 35.0642C19.3019 34.7594 19.6541 34.607 19.805 34.4038C19.8553 34.3022 19.956 34.2514 20.0063 34.2006C20.0566 34.099 20.0566 33.9974 20.0566 33.8958C19.956 33.8958 19.805 33.7942 19.7044 33.845C19.1006 33.9974 18.1447 33.6926 17.8428 33.1846C17.6918 32.8799 17.5409 32.6259 17.7421 32.3211L13.6667 30.9495L13.6164 31.0003C13.5157 31.1527 13.4151 31.3051 13.2642 31.3559C13.1132 31.4575 12.9623 31.4575 12.8113 31.5083C12.2075 31.6607 12.0063 31.6607 11.805 31.3051C11.805 31.3051 11.7547 31.3051 11.7547 31.2543C11.7547 31.2543 11.7547 31.2035 11.7547 31.1019C11.7044 31.0003 11.7044 30.8987 11.6541 30.7972C11.7044 30.6448 11.7044 30.4416 11.7547 30.2384L11 29.9844V38.62C11.3522 38.6708 11.7044 38.874 11.8553 39.2296C11.956 39.5852 11.9057 39.9915 11.805 40.3471C11.7547 40.6011 11.5031 40.4995 11.3522 40.3471C11.2516 40.2455 11.1509 40.1439 11.0503 40.0423V41.4647L16.8868 43.4458C17.2893 43.1918 17.7925 43.141 18.2956 42.9886C18.5975 42.887 18.9497 42.887 19 42.4298C19 42.3282 19.3019 42.2774 19.4528 42.2266C19.5031 42.2266 19.5535 42.2774 19.6541 42.3282C20.1572 42.5314 22.1698 42.0234 22.522 41.5663C22.673 41.3631 22.7736 41.3631 22.9748 41.5155C23.4277 41.8711 23.9308 41.7187 24.1824 41.2107C24.2327 41.1091 24.3836 41.0075 24.4843 40.9059C24.5849 41.0075 24.6855 41.1599 24.7358 41.2615C24.9371 41.7695 24.8868 41.8711 24.3333 42.0234C24.0818 42.125 23.8805 42.1758 23.8302 42.5314C23.7799 42.6838 23.5786 42.8362 23.3774 42.887C22.8742 43.0394 22.3711 43.141 21.8679 43.2934C21.5157 43.395 21.1132 43.395 21.0629 43.903C21.0629 43.9538 20.7107 44.0554 20.7107 44.0046C20.5094 43.5474 19.8553 43.8522 19.6038 43.395C19.4528 43.141 18.2453 43.4966 18.0943 43.8014C18.0943 43.8014 18.0943 43.8014 18.0943 43.8522L25.9434 46.4936H25.9937C25.6918 45.4269 25.6918 45.3761 26.7987 45.1221C28.2075 44.7665 28.0063 44.6649 28.4088 46.0873C28.4088 46.1381 28.4088 46.1889 28.4591 46.2397C28.6604 47.0524 28.6604 47.154 28.0566 47.2556L31.8302 48.5256V48.4748C31.9308 48.4748 32.0314 48.4748 32.3333 48.424C32.283 48.5256 32.2327 48.5764 32.2327 48.6271L34.2956 49.3383C34.2956 49.3383 34.2956 49.3383 34.3459 49.3383C34.3962 49.3383 34.4969 49.3891 34.5975 49.4399L35.1509 49.6431L36.9119 49.0335C36.8616 48.9827 36.8616 48.8811 36.8616 48.8303C36.9119 48.6779 37.0126 48.5764 37.0629 48.4748C37.1635 48.2716 37.3145 48.0684 37.2641 47.916C37.1132 47.662 36.9623 47.3572 36.5597 47.408C36.4088 47.408 36.2579 47.3572 36.1069 47.3064C36.1572 47.154 36.2075 47.0016 36.2579 46.8492C36.3082 46.7476 36.4591 46.646 36.5597 46.5444C36.7107 46.4428 36.8113 46.3413 36.9623 46.2905C37.0629 46.2397 37.2138 46.2397 37.3648 46.2905C37.4151 46.2905 37.4151 46.5444 37.4151 46.5952C37.2138 46.9 37.4151 47.1032 37.566 47.3064C37.8176 47.6112 38.1195 47.9668 38.3711 48.2716C38.4214 48.2716 38.522 48.2208 38.5723 48.2208C38.7233 48.2208 38.9748 48.2208 39.0755 48.2716L40.5346 47.7636L40.5849 47.7128L40.6352 47.7636L45.717 46.0365C45.7673 45.9349 45.8679 45.8333 46.0189 45.7317C46.1698 45.6301 46.3711 45.6301 46.5723 45.7317L50.5472 44.3601C50.5472 43.9538 50.4969 43.7506 50.044 43.8522C49.8931 43.8522 49.6918 43.8014 49.5912 43.649C49.4402 43.4966 49.2893 43.1918 49.3396 43.0394C49.5409 42.7346 49.7421 43.0394 49.9434 43.141C50.4465 43.2934 50.9497 43.649 51.5535 43.4458C51.6541 43.395 51.805 43.4966 51.8553 43.5474C51.9057 43.5982 51.9057 43.6998 51.9057 43.8522L58.9497 41.4647V33.8958ZM14.7233 39.1788C14.5723 38.9756 14.4214 38.874 14.3711 38.7724C14.3711 38.6708 14.4717 38.5692 14.5723 38.4676C14.673 38.5692 14.8239 38.62 14.8239 38.7216C14.8239 38.7724 14.7736 38.9248 14.7233 39.1788ZM17.7925 34.861C17.8428 34.8102 17.8931 34.8102 17.9434 34.7594C17.9434 34.8102 17.9937 34.861 17.9937 34.861C17.9937 34.9118 17.9434 34.9118 17.8931 34.9118C17.8428 34.9118 17.8428 34.9118 17.7925 34.861ZM18.4465 39.6868C18.2956 39.6868 18.1447 39.4836 17.9937 39.3312C18.0943 39.128 18.1447 38.9248 18.2453 38.874C18.5472 38.7724 18.5975 39.0264 18.6478 39.2296C18.6478 39.382 18.7484 39.636 18.4465 39.6868ZM21.8679 38.8232C21.566 39.0264 21.1635 39.1788 20.761 39.1788C20.3585 39.2296 20.4088 38.8232 20.3082 38.5692C20.2075 38.366 20.2075 38.1628 20.4591 38.0612C20.6101 38.0104 20.7107 37.9596 20.9119 37.9088C21.0629 37.9088 21.2641 37.858 21.4654 37.9088C21.6667 37.9596 21.9686 38.0104 21.9686 38.112C22.0692 38.366 22.0692 38.7216 21.8679 38.8232ZM28.1069 44.1062C28.0063 44.1569 27.805 44.157 27.7044 44.0554C27.4528 43.8014 27.2516 43.4966 27 43.2426C27 43.2426 26.9497 43.2426 26.9497 43.2934C26.6981 42.9378 26.4969 42.5314 26.2453 42.2266C26.044 41.9219 25.8428 41.5155 25.3396 41.7187C25.239 41.7695 25.0377 41.6171 24.9874 41.5155C24.6855 41.0075 25.0377 40.0931 25.5912 39.9407C25.7421 39.8899 25.9434 39.9915 26.0943 40.0931C26.2453 40.1947 26.3962 40.3471 26.4465 40.4995C26.4969 40.4487 26.5472 40.4487 26.5975 40.4487C26.6981 40.4487 26.7987 40.5503 26.8491 40.6011C26.8994 40.6519 26.7987 40.7535 26.7484 40.8551C26.6981 40.8551 26.6478 40.8043 26.4969 40.7535C26.4969 40.8043 26.4969 40.8551 26.4465 40.9059C26.2453 41.5155 26.5472 41.8711 27.1509 41.8203C27.5535 41.7695 28.3585 42.5822 28.2579 43.0394C28.2075 43.2934 28.1572 43.5474 28.2579 43.8014C28.3082 43.8522 28.2075 44.0554 28.1069 44.1062ZM58.0943 35.115C58.0943 35.2166 57.8931 35.3181 57.7924 35.4197C57.6415 35.1658 57.4906 34.861 57.3396 34.607C57.4402 34.5562 57.5409 34.5054 57.5912 34.5054C57.6918 34.5562 57.7924 34.6578 57.9434 34.7594C57.9937 34.861 58.1446 35.0134 58.0943 35.115ZM55.8805 32.5243C56.2327 32.5243 56.5849 32.5751 56.9874 32.6767C57.0377 32.6767 57.088 32.8291 57.088 32.8291C56.8868 33.0831 56.9371 33.337 56.9874 33.591C56.9874 33.4894 56.9874 33.3878 56.9874 33.2862C57.088 33.2862 57.239 33.2862 57.239 33.337C57.2893 33.7434 57.9937 33.4894 57.9434 33.9466C57.9434 34.0482 57.6918 34.1498 57.4906 34.3022C57.3396 34.2514 57.0377 34.2006 57.0377 34.099C57.0377 34.0482 57.0377 33.9974 57.0377 33.9466C56.9874 34.099 56.7358 34.3022 56.5346 34.353C56.3836 34.4038 56.1824 34.2006 55.9308 34.0482C55.8805 33.6418 55.7799 33.1846 55.7296 32.7783C55.6289 32.6767 55.7799 32.4735 55.8805 32.5243ZM52.5094 33.7434C52.6604 33.591 52.8616 33.3878 53.0629 33.6418C53.1132 33.7434 53.0629 33.9466 53.0126 34.2006C53.0629 34.1498 53.1635 34.099 53.3145 33.9974C53.4151 33.8958 53.6164 33.845 53.6667 33.7434C53.8679 33.3878 54.0189 33.337 54.3711 33.591C54.522 33.6926 54.7736 33.6418 54.9748 33.591C55.5786 33.4894 55.5786 33.4894 55.7799 34.2514C55.7799 34.3022 55.7799 34.5562 55.6792 34.6578C55.478 34.9118 54.8239 34.9626 54.6226 34.7594C54.3711 34.4546 54.2704 34.4038 54.1195 34.8102C54.0189 35.1658 53.7673 35.1658 53.4654 34.9118C53.4151 34.861 53.3648 34.8102 53.3145 34.7594C52.9623 34.5562 52.8113 34.4546 52.8616 34.3022C52.6101 34.3022 52.3585 34.353 52.2579 34.2514C52.0566 34.0482 52.3585 33.8958 52.5094 33.7434ZM55.4277 36.7405C55.327 36.9945 55.1258 36.9437 54.8742 36.8421C54.7736 36.7913 54.5723 36.8421 54.4717 36.7913C54.3208 36.6897 54.2704 36.5373 54.1698 36.3849C54.1698 36.3341 54.2704 36.2325 54.2704 36.1309C54.3208 35.9277 54.3711 35.7245 54.3711 35.5721C54.5723 35.6737 54.7736 35.7753 54.9245 35.8769C55.0252 35.9785 55.1258 36.0801 55.327 36.2833C55.3774 36.3849 55.478 36.5881 55.4277 36.7405ZM51.3522 34.6578C51.4528 34.6578 51.5535 34.7086 51.6038 34.8102C51.6541 34.861 51.6038 35.0134 51.6038 35.1658C51.3522 34.9626 51.3019 34.9118 51.2013 34.8102C51.2013 34.8102 51.3019 34.6578 51.3522 34.6578ZM44.1069 36.3341C44.6101 36.3341 45.1132 36.3849 45.566 36.4357C45.717 36.4357 45.8679 36.4865 46.0189 36.5373C45.9686 36.6897 45.9182 36.8929 45.8176 37.0961C45.566 37.0961 45.3648 37.1469 45.1635 37.1469C45.0126 37.1469 44.8616 37.1469 44.6604 37.1469C44.3585 37.1469 43.9057 36.7913 43.956 36.4865C43.9057 36.4865 44.0063 36.3341 44.1069 36.3341ZM44.5597 40.9059C44.5597 41.0075 44.4591 41.1091 44.4088 41.3123C44.2579 41.1599 44.1069 41.1091 44.1069 41.0075C44.1069 40.9059 44.2075 40.8043 44.3082 40.7027C44.3585 40.8043 44.5094 40.8551 44.5597 40.9059ZM35.3019 38.7216C35.5535 38.6708 36.0063 38.5184 36.0566 38.6708C36.3585 39.0772 36.6604 38.9756 37.0126 38.874C37.0629 38.874 37.1132 38.8232 37.1635 38.874C37.3145 38.9248 37.4151 39.0264 37.5157 39.0772C37.4654 39.1788 37.3648 39.3312 37.3145 39.382C37.0126 39.4836 36.7107 39.5344 36.4088 39.636C36.2075 39.6868 36.0566 39.7375 35.8553 39.7883C35.3522 39.9407 35.2516 39.8391 35.1509 39.3312C35.1006 39.0772 35 38.8232 35.3019 38.7216ZM31.5283 39.0772C31.7799 38.9756 32.0314 38.9248 32.283 38.874C32.283 38.874 32.283 38.874 32.283 38.8232C32.5346 38.7724 32.7358 38.7216 32.9874 38.6708C33.2893 38.62 33.5912 38.5184 33.8428 38.8232C33.8931 38.874 33.9937 38.9248 34.0943 38.9248C34.2956 38.9756 34.5975 38.9248 34.5472 39.2296C34.4969 39.382 34.2453 39.4836 34.0943 39.5852C33.8428 39.6868 33.5912 39.7375 33.3396 39.7883C33.239 39.8391 33.088 39.8391 33.0377 39.9407C32.8868 40.1947 32.8868 40.7535 32.3836 40.1947C32.1824 39.9915 31.6792 40.1947 31.6289 39.6868C31.6289 39.5852 31.5786 39.4836 31.478 39.4328C31.1258 39.1788 31.1258 39.1788 31.5283 39.0772ZM30.7736 39.5344C30.8742 39.4836 31.0252 39.5344 31.1258 39.636C31.1761 39.6868 31.1258 39.8899 31.0755 39.9407C30.9748 39.9915 30.8239 39.9915 30.6226 39.9915C30.673 39.7375 30.673 39.5852 30.7736 39.5344ZM29.0629 37.7056C29.2138 37.5025 29.4654 37.3501 29.717 37.1977C29.7673 37.1469 30.0189 37.2993 30.0189 37.3501C30.0189 37.7564 30.0189 38.1628 29.9686 38.5692C29.9686 38.62 29.717 38.6708 29.6667 38.62C29.5157 38.5692 29.4151 38.4168 29.2138 38.2136C29.1635 38.112 29.0126 37.8072 29.0629 37.7056ZM29.2138 40.7535C29.2642 40.2455 29.6164 40.0931 29.9686 39.9407C30.3208 39.8391 30.4717 40.0423 30.5723 40.3471C30.7233 40.8551 30.673 41.0075 30.3208 41.1599C30.2704 41.1599 30.2704 41.1599 30.2201 41.2107C30.5723 41.2615 30.8239 41.0075 31.0755 40.8043C31.3774 40.6011 31.6289 40.2455 32.0818 40.6519C32.2327 40.8043 32.5849 40.6519 32.7862 40.7535C32.8868 40.8043 32.6855 41.2615 32.7862 41.4139C33.088 41.9219 33.2893 42.6838 34.1447 42.5314C34.195 42.5314 34.3459 42.7346 34.2956 42.7854C34.0943 43.2426 33.7421 43.5474 33.239 43.6998C32.9874 43.8014 32.8365 43.5982 32.9371 43.2934C33.088 42.7854 33.088 42.7854 32.5849 42.7346C32.3333 42.6838 32.1321 42.4806 31.9308 42.379C31.7799 42.3282 31.6289 42.2774 31.478 42.2774C31.478 42.4298 31.4277 42.5314 31.4277 42.6838C31.4277 43.0394 31.1761 43.4966 30.8239 43.5474C30.6226 43.5982 30.3711 43.395 30.1698 43.2934C29.9686 42.9886 29.9182 42.7346 30.1195 42.4298C30.2704 42.1758 30.1698 42.0234 29.8679 42.0234C29.717 42.0234 29.4654 42.2266 29.4151 41.8711C29.4151 41.7695 29.5157 41.5663 29.6667 41.4139C29.4654 41.4139 29.1635 41.5155 29.0629 41.4139C28.7107 41.0075 29.1635 40.9059 29.2138 40.7535ZM30.8742 47.3064C30.7736 47.2556 30.673 47.2556 30.5723 47.2048C30.522 47.154 30.5723 47.0524 30.522 46.8492C30.673 46.9 30.8239 46.9508 30.8742 47.0016C30.9245 47.1032 30.8742 47.2048 30.8742 47.3064ZM34.6478 44.4109C34.6478 44.5633 34.7484 44.7157 34.7484 44.8681C34.7987 45.1221 34.9497 45.4269 34.5975 45.6301C34.195 45.8333 33.7925 45.7317 33.4906 45.4269C33.4403 45.3253 33.2893 45.3253 33.239 45.2745C33.1887 45.3761 33.088 45.4777 33.088 45.6301C33.088 45.9349 32.9371 46.0365 32.6855 46.0873C31.8805 46.2905 31.1258 46.4936 30.3208 46.6968C30.0692 46.7476 29.8176 46.7984 29.566 46.7984C29.3648 46.7984 29.0629 46.9508 28.9623 46.5952C28.9119 46.392 28.8616 46.2397 28.9119 46.0365C28.8616 45.7317 28.8616 45.4269 28.8616 45.0713C28.8616 44.9697 29.0629 44.8681 29.2138 44.6649C29.2642 44.6649 29.3145 44.6141 29.3648 44.6141C29.4654 44.3093 29.717 44.1569 30.1698 44.1062C30.673 43.9538 31.1761 43.8014 31.7296 43.6998C32.0818 43.649 32.4843 43.4458 32.7862 43.9538C32.9371 44.2585 33.6918 43.9538 33.8931 43.5982C33.9937 43.4458 34.1447 43.2934 34.2956 43.1918C34.3962 43.141 34.5975 43.1918 34.7484 43.2426V43.2934C34.8994 43.3442 35.0503 43.3442 35.0503 43.395C35.1006 43.4966 35.0503 43.649 35 43.7506C35 43.8014 34.7484 43.7506 34.6981 43.6998C34.6981 43.649 34.6478 43.5982 34.6478 43.5474C34.6478 43.5982 34.6478 43.649 34.6478 43.6998C34.6981 43.9538 34.6478 44.2078 34.6478 44.4109ZM36.3082 48.7287C36.3585 48.7795 36.3082 48.9319 36.3082 49.0335C36.2075 49.0335 36.1069 49.0335 36.0566 48.9827C36.0063 48.9319 36.0063 48.7795 35.956 48.5764C36.1069 48.6779 36.2579 48.6779 36.3082 48.7287ZM35.8553 46.0365C35.7044 46.0365 35.5535 45.9349 35.4528 45.9857C35.2013 46.0873 35 46.0873 34.8994 45.8333C34.8491 45.6809 35 45.4777 35 45.4269C35.3522 45.1221 35.5535 44.9189 35.8553 45.2237C35.9057 45.2745 35.956 45.2745 36.0566 45.3253C36.2579 45.3761 36.5094 45.0713 36.6101 45.4269C36.7107 45.6301 36.1572 46.0365 35.8553 46.0365ZM44.0566 43.1918C44.0063 43.2426 43.8553 43.2426 43.805 43.2426C43.6038 43.2934 43.4025 43.3442 43.2013 43.3442C42.8994 43.395 42.6981 43.2426 42.6478 42.9886C42.4465 42.3282 41.8931 42.2266 41.3899 42.0234C41.4403 42.125 41.4402 42.2266 41.4906 42.379C41.6918 43.2426 41.5409 43.4966 40.6352 43.5474C40.2327 43.5474 39.9811 43.5474 39.9308 44.0554C39.8805 44.4109 39.0755 44.6141 38.7736 44.3601C38.5723 44.2077 38.522 44.157 38.3711 44.4109C37.9182 45.0205 37.2138 45.0713 36.4591 44.8173C35.956 44.6649 35.805 44.0554 35.3019 44.0554C35.3019 44.0554 35.2013 43.8522 35.2516 43.8014C35.6541 43.4966 35.6541 42.7854 36.3585 42.7854C36.7107 42.7854 37.0629 42.5314 37.4151 42.4298C37.566 42.379 37.717 42.2774 37.8679 42.2774C38.4214 42.2774 38.8742 42.125 39.327 41.9219C39.6289 41.8203 39.9811 41.6679 40.1824 42.125C40.2327 42.2266 40.434 42.2774 40.5849 42.2774C40.8365 42.2774 41.1384 42.1758 41.3899 42.125C41.2893 41.8711 41.3396 41.6679 41.5409 41.5155C41.4906 41.4139 41.4403 41.3631 41.3899 41.2615C41.3396 41.1599 41.6415 40.9059 41.7925 40.7027C41.9937 40.4487 42.2453 40.6011 42.4465 40.7535C42.5472 40.8551 42.6981 40.9059 42.7987 41.0075C43.0503 41.3631 43.3522 41.7187 43.6038 42.0742C43.6541 42.0742 43.7044 42.0234 43.805 42.0234C44.1069 41.9219 44.3585 41.9219 44.4591 42.3282C44.6101 42.8362 44.6101 42.9886 44.2075 43.141C44.1069 43.141 44.1069 43.1918 44.0566 43.1918ZM45.717 45.0205C45.6163 45.2237 45.4151 45.1729 45.2138 45.0713C45.0629 45.0205 44.9119 45.1221 44.761 45.0713C44.6101 45.0205 44.4088 44.9697 44.3585 44.8173C44.3082 44.7157 44.4088 44.5125 44.5094 44.4109C44.9119 44.0554 45.2138 44.0554 45.6164 44.5633C45.6667 44.7157 45.7673 44.9189 45.717 45.0205ZM47.3774 44.3601C47.2767 44.3093 47.1761 44.3093 47.1258 44.2585C47.0755 44.2077 47.0755 44.1062 47.0755 43.9538C47.2264 44.0554 47.3774 44.0554 47.4277 44.157C47.4277 44.2078 47.3774 44.3093 47.3774 44.3601ZM47.5786 43.4966C47.478 43.5982 47.327 43.5474 47.0755 43.5982C47.1258 43.3442 47.1258 43.141 47.1761 43.141C47.2767 43.0902 47.478 43.141 47.5786 43.141C47.6289 43.2426 47.6289 43.4458 47.5786 43.4966ZM58.195 37.7056C57.8931 38.2136 57.3899 38.62 57.5912 39.3312C57.6415 39.4328 57.4402 39.636 57.3396 39.6868C56.7862 39.8391 56.283 39.9915 55.7296 40.0423C55.6289 40.0423 55.478 39.7883 55.3774 39.636C55.1258 39.6868 54.8742 39.7376 54.6226 39.8391C54.4717 39.8899 54.2704 39.9915 54.2201 40.0931C54.1195 40.7535 53.566 40.7027 53.1635 40.8551C52.8616 41.0075 52.3585 41.1091 52.1572 40.9567C51.6541 40.4995 51.4528 40.6011 51.2013 41.1599C51.1006 41.4139 50.5975 41.4647 50.2453 41.2615C50.0943 41.2107 49.7924 41.2107 49.7421 41.2615C49.6415 41.4647 49.4906 41.5663 49.3899 41.6679C49.4403 41.7187 49.3396 41.8203 49.3396 41.9219C49.239 41.8711 49.1384 41.8711 49.088 41.8203C48.8365 41.9219 48.5346 41.9726 48.3333 42.0742C47.7296 42.379 47.0252 42.4806 46.3711 42.633C46.0692 42.6838 45.7673 42.6838 45.4654 42.5822C45.0629 42.4806 44.9119 42.0742 45.0629 41.6679C45.1132 41.5155 45.2138 41.3123 45.2138 41.1599C45.2641 40.3979 45.2641 40.3471 46.0189 40.1947C46.7233 39.9915 46.7233 39.9915 46.9748 40.7027C47.0755 40.9567 47.1761 41.0583 47.4277 41.0583C47.327 41.0075 47.2264 40.8043 47.2767 40.6519C47.327 40.4487 47.4277 40.2963 47.478 40.1439C47.5283 40.0423 47.5786 39.8899 47.6289 39.7883C47.7296 39.8391 47.8805 39.9407 48.0818 40.0423C48.1321 40.1947 48.2327 40.3979 48.1321 40.5503C48.0314 40.7535 47.8805 40.9059 47.6792 41.0583C47.9811 40.9567 48.283 40.9059 48.5849 40.8551C48.9371 40.7535 49.3396 40.8043 49.3899 40.2455C49.3899 39.9915 49.6415 39.9915 49.8931 40.1439C50.4969 40.6011 50.7484 40.4995 51.1006 39.8899C51.1509 39.7376 51.3522 39.636 51.5031 39.5852C52.2579 39.382 53.0126 39.1788 53.7673 38.9756C54.1195 38.874 54.4214 38.874 54.4717 38.4168C54.4717 38.366 54.6226 38.2644 54.673 38.2644C54.7233 38.2644 54.8239 38.366 54.8742 38.4168C55.0252 38.874 55.2264 39.2804 55.3774 39.7375C55.7296 39.2804 56.1321 38.9248 56.6855 38.6708C56.9371 38.5692 57.0377 38.112 57.1887 37.8072C57.3396 37.4517 57.7421 37.1977 58.0943 37.2993C58.3459 37.2993 58.3459 37.4517 58.195 37.7056Z" fill="#FEFEFE"/>
</svg>
