<svg width="70" height="70" viewBox="0 0 70 70" fill="none" xmlns="http://www.w3.org/2000/svg">
<path d="M54.7688 27.5298C54.7161 27.6354 54.7688 27.7937 54.7688 27.8993C54.8744 28.2688 54.7161 28.2688 54.3994 28.216C54.241 28.1632 54.0299 28.216 53.8187 28.2688C53.502 28.3216 53.2381 28.1632 53.3965 27.8993C53.6076 27.5826 53.3965 27.3187 53.2909 27.0548L43.3677 25.6296L43.2093 25.3657C43.2093 25.4185 43.2093 25.4713 43.2093 25.524C43.1037 25.524 43.051 25.524 42.8926 25.524C42.8926 25.3657 42.8926 25.2601 42.9454 25.1546C42.9454 25.1546 43.051 25.1546 43.1037 25.1546L38.9867 16.8676C38.7755 16.8676 38.5116 16.9204 38.3005 16.9204C38.3005 16.8148 38.3005 16.7092 38.3533 16.6565C38.4588 16.5509 38.6172 16.5509 38.7755 16.4453H38.8283L38.1949 15.1785C37.9838 15.2313 37.8254 15.1785 37.6671 14.9674C37.5615 15.0202 37.4559 15.0202 37.4032 15.073C37.4559 15.0202 37.4559 14.9146 37.5087 14.8618C37.4032 14.8618 37.2976 14.9674 37.192 15.1257C36.8753 15.7591 36.4531 15.8119 35.8197 15.4424C35.6613 15.3369 35.3974 15.3897 35.1863 15.3897C34.9751 15.3897 34.6584 15.548 34.6584 15.1785C34.6584 15.073 34.9223 14.8618 35.0807 14.809C35.3446 14.7035 35.6085 14.6507 35.8724 14.5451C36.1891 14.4396 36.5586 14.3868 36.717 14.1229C36.9809 13.8062 37.1392 13.5422 37.5087 13.8062L36.2947 11.3781C36.0836 11.4309 35.978 11.3781 35.7141 11.1142C35.503 10.8503 35.3974 10.6392 35.7141 10.3752C35.7141 10.3752 35.7141 10.3752 35.7669 10.3752L34.6056 8L33.8667 9.74185C33.9195 9.79463 33.9195 9.9002 33.9722 9.95298C34.0778 10.3752 34.025 10.4808 33.55 10.6392C33.4972 10.6392 33.4444 10.6392 33.4444 10.6919L30.9108 15.8119C31.0164 15.8119 31.1747 15.7591 31.2803 15.7591C31.3859 15.7591 31.597 15.8119 31.597 15.8119C31.597 15.9703 31.597 16.287 31.5442 16.287C31.1219 16.3398 31.4914 17.3426 30.7525 16.8676C30.5941 16.762 30.4885 16.7092 30.4358 16.7092L29.5384 18.5567C29.5384 18.6094 29.5384 18.6622 29.5384 18.7678C29.6968 18.6622 29.8024 18.5567 29.8024 18.2927C29.8024 17.8705 30.1191 17.8177 30.4358 18.0816C30.5413 18.1872 30.6469 18.2927 30.7525 18.3455C31.2275 18.3455 31.2275 18.6622 31.2803 18.9789H31.3331C31.4914 19.0317 31.6498 19.0845 31.8081 19.0845C31.7553 19.1373 31.7553 19.2428 31.7026 19.2428C31.3859 19.4012 31.3331 19.1901 31.2275 18.9789C30.8052 19.0845 30.383 19.1901 29.9607 19.2428C29.5385 19.2956 29.2218 19.454 28.9578 19.7179L26.7937 24.1517C26.9521 24.2572 27.0576 24.3628 27.1104 24.5739C27.1632 24.7323 27.2688 24.8906 27.216 24.9962C26.9521 25.4185 27.2688 25.6296 27.4799 25.8935C27.6383 26.0519 27.7966 26.263 27.5855 26.4741C27.3216 26.6853 27.1632 26.4214 27.0049 26.263C26.9521 26.2102 26.8993 26.1047 26.7937 25.9991C26.5826 25.8407 26.4242 25.5768 26.1603 25.4713L26.1075 25.6296L7.21113 28.3743C7.15835 28.5327 7.05278 28.6383 7 28.7966L12.8062 34.4444C12.8589 34.4444 12.8589 34.4444 12.9117 34.4444C13.3868 34.3389 13.4396 34.3916 13.5979 34.9722C13.6507 35.1306 13.6507 35.2362 13.6507 35.2889L14.9703 36.6085C15.0231 36.5557 15.0231 36.503 15.0758 36.4502C15.2342 36.6085 15.3398 36.6613 15.3925 36.7669C15.3925 36.8197 15.3398 36.8724 15.3398 36.9252L20.7764 42.2563L20.143 46.1095C20.4069 46.0039 20.6181 45.8984 20.8292 45.5289C21.1459 45.0011 21.4626 44.4732 21.7793 43.9982C21.8849 43.7871 22.3071 43.7343 22.5711 43.7343C22.6766 43.7343 22.835 44.051 22.9405 44.2093C23.0461 44.3677 23.0461 44.5788 23.1517 44.6316C23.31 44.7371 23.5212 44.8427 23.7323 44.8955C23.7323 44.8427 23.7851 44.7371 23.8906 44.6316C24.049 44.4732 24.2073 44.526 24.3129 44.5788C24.3129 44.1038 24.4713 43.7343 24.6296 43.312C24.6824 43.2064 24.8407 42.9953 24.9991 42.9953C25.1047 42.9953 25.3158 43.1536 25.3158 43.312C25.4214 43.6287 25.6325 43.9982 25.1047 44.1565C24.8407 44.2621 24.8935 44.526 24.9991 44.7372C25.2102 45.1066 25.1574 45.3178 24.8407 45.4233C24.8935 45.5817 24.9463 45.7928 25.0519 45.9512C24.788 45.8456 24.524 45.74 24.3129 45.6345C24.1546 45.7928 24.1018 45.9512 24.2073 46.3207C24.2601 46.479 24.4185 46.6901 24.524 46.6901C24.9991 46.7429 25.1047 47.0068 25.1047 47.3763C25.1047 47.5347 25.1574 47.7458 25.1574 47.9041C25.2102 48.1681 25.263 48.432 25.6325 48.4848C25.7908 48.5375 25.8964 48.7487 26.002 48.9598C26.2659 48.907 26.5826 48.8015 26.8465 48.7487C26.9521 48.7487 27.1632 48.6959 27.216 48.7487C27.5327 49.2237 27.955 49.0654 28.3772 49.0654C28.4828 49.0654 28.5884 49.1709 28.6411 49.2765C28.6939 49.3293 28.5883 49.4876 28.5356 49.5404C27.955 49.9627 27.3216 50.121 26.5826 50.121C26.477 50.121 26.2659 49.9627 26.2131 49.8043C26.1075 49.5404 26.0548 49.2237 25.9492 48.9598C25.7381 49.0126 25.5797 49.0654 25.3686 49.0654C25.1047 49.1182 24.9463 49.0126 24.8407 48.8015C24.6824 48.4848 24.5768 48.1681 24.1018 48.0625C23.8379 48.0097 23.7851 47.6402 24.049 47.4291C24.3129 47.218 24.3129 47.1124 23.9434 47.0068C23.5212 46.8485 23.2045 46.5318 22.835 46.3207C22.2544 46.004 21.7793 46.0039 21.5154 46.6373C21.4626 46.7429 21.357 46.8485 21.3043 46.954C21.0931 47.3235 21.3043 47.5874 21.6737 47.5874C21.7793 47.5874 21.8849 47.5874 21.9904 47.5347C22.4655 47.3763 22.5183 47.693 22.6238 48.0097C22.7294 48.3792 22.6238 48.5375 22.2544 48.6431C21.7793 48.8015 21.4626 48.6431 21.1459 48.3792C20.9876 48.6431 20.2486 48.6431 20.0375 48.432C19.8263 48.2208 19.8791 47.9041 20.143 47.5874C20.0375 47.4819 19.9319 47.4291 19.7735 47.3763L19.2457 50.385C19.2985 50.4377 19.4041 50.4905 19.4568 50.4905C19.5624 50.4905 19.6152 50.4905 19.668 50.4905C20.143 50.385 20.6181 50.2266 21.0931 50.121C21.4626 50.0155 21.8849 50.0155 21.8849 49.4876C21.8849 49.4876 22.1488 49.3821 22.2016 49.4349C22.5711 49.646 22.9405 49.8571 23.3628 50.0683C23.4684 50.121 23.6267 50.0683 23.7851 50.0155C24.049 49.9627 24.2601 49.9099 24.524 49.9099C24.6824 49.9099 24.9463 50.0155 24.9991 50.121C25.1047 50.385 24.8935 50.4905 24.6824 50.5961C24.524 50.6489 24.3657 50.7017 24.1546 50.7017C24.1546 50.7017 24.1546 50.7017 24.1546 50.7544C23.8906 50.8072 23.6795 50.86 23.4156 50.86C23.0461 50.86 22.835 50.9656 22.6766 51.3351C22.5711 51.5462 22.2016 51.7573 21.9377 51.8629C21.5682 51.9685 21.5682 51.5462 21.4626 51.3351C21.4098 51.2295 21.4098 51.1239 21.357 51.0711C21.3043 50.9656 21.1987 50.9128 21.0931 50.86C21.0403 50.9656 20.882 51.0711 20.882 51.1767C20.8292 51.3351 20.7764 51.4934 20.7236 51.6518C20.8292 52.0212 20.882 52.4435 20.882 52.813C20.882 53.1825 20.0902 53.3936 19.7735 53.1297C19.6152 52.9713 19.5096 52.813 19.3513 52.6019C19.1929 52.6019 19.0874 52.6019 18.929 52.5491L17.6622 59.8332C17.7678 59.8332 17.8206 59.8859 17.8206 59.9387C17.8734 60.0443 17.8206 60.2026 17.715 60.3082C17.715 60.3082 17.6094 60.3082 17.5567 60.3082L17.3455 61.575L23.9434 58.0913L23.8906 58.0385C23.6267 57.7746 23.4156 57.4579 23.1517 57.194C23.0461 57.0884 22.835 57.0356 22.6766 57.0356C22.1488 56.9829 21.8321 56.719 21.9377 56.1911C21.9904 55.8744 21.8849 55.7161 21.7265 55.5049C21.4098 55.1355 21.0931 54.7132 20.7764 54.3437C20.5653 54.1326 20.4069 53.8687 20.7764 53.6575C21.0403 53.4464 21.357 53.1825 21.7265 53.552C21.9377 53.7631 22.1488 54.027 22.3599 54.2909C22.6766 54.6076 22.9933 54.8715 23.31 55.1882C23.5739 55.4521 23.7323 55.7161 23.9962 55.98C24.3657 56.4022 24.7352 56.7717 25.1047 57.194C25.1574 57.2468 25.263 57.2468 25.3686 57.2468C25.4214 57.2468 25.4741 57.2468 25.5269 57.2468L34.8168 52.3379L52.2352 61.4694L51.9713 59.9387C51.8658 59.8859 51.7074 59.8859 51.4963 59.9915C51.3907 60.0443 51.2324 59.8332 51.1268 59.7276C50.8629 59.5165 50.6517 59.0942 50.1767 59.3053C50.1239 59.3053 49.9656 59.1998 49.9656 59.147C49.9656 58.7247 50.0183 58.2497 50.0183 57.8274C50.0183 57.5107 49.6489 57.0884 49.2794 56.9829C49.0155 56.9301 48.7515 56.7717 48.5404 56.6662C48.4876 56.6662 48.4348 56.719 48.3821 56.719C47.9598 56.7717 47.8015 57.0357 47.907 57.4051C48.0654 57.9858 47.3792 58.1969 47.3792 58.6719L47.2208 58.7247C47.0097 58.408 46.6402 58.4608 46.3235 58.3025C46.0596 58.1441 46.1124 57.4051 46.3763 57.194C46.6402 56.9829 46.9569 56.8245 47.1153 56.4023C47.1681 56.1911 47.5903 56.1383 47.8542 56.0328V56.0856C48.0126 56.0328 48.1709 55.98 48.3293 55.9272H48.3821C48.3821 55.7161 48.2765 55.5049 48.1709 55.241C48.0126 54.8188 48.2237 54.3437 48.646 54.2909C48.7515 54.2909 48.9099 54.3437 48.9627 54.3965C49.4377 54.9243 49.9128 55.4521 50.3351 55.98C50.5462 56.1911 50.7573 56.4022 50.599 56.7717C50.5462 56.8773 50.599 57.0884 50.6517 57.194C50.8629 57.5107 51.0212 57.8802 51.2851 58.1441C51.3907 58.2497 51.4435 58.3552 51.5491 58.408L51.1268 55.8744C50.9685 55.6633 50.7573 55.4522 50.599 55.241C50.3878 54.9771 50.0711 54.766 50.3351 54.2909C50.4934 53.9742 49.9656 53.4464 49.5433 53.552C49.2266 53.6047 49.0682 53.4992 48.9099 53.288C48.646 52.9713 48.3293 52.6019 48.0654 52.2852C47.907 52.074 47.6959 51.9157 47.6959 51.6518C47.1153 51.8629 46.5347 52.0212 46.0068 52.2324C45.7429 52.3379 45.5318 52.7074 45.2679 52.7602C45.0039 52.813 44.6872 52.5491 44.4233 52.5491C44.1066 52.5491 43.7371 52.7074 43.4204 52.813C43.1565 52.8658 42.8926 52.9713 42.7343 52.7074C42.6287 52.4963 42.4703 52.4435 42.312 52.3907C42.4176 52.6546 42.2592 52.9186 41.9425 52.8658C41.6786 52.8658 41.4147 52.8658 41.1508 52.813C41.0452 52.813 40.9396 52.7602 40.8341 52.6546C40.7813 52.6546 40.7285 52.7074 40.6757 52.7074C40.5174 52.7074 40.4118 52.6019 40.2534 52.5491C40.3062 52.4435 40.3062 52.2324 40.4118 52.1796C40.4646 52.1268 40.4646 52.1268 40.5174 52.074C40.4118 51.9157 40.359 51.8101 40.2534 51.6518C40.2007 51.599 40.2007 51.5462 40.2007 51.4934C39.7784 51.2295 39.7256 50.6489 39.9895 50.2794C40.1479 50.0683 40.2007 49.8043 40.2007 49.5404C40.2007 49.1709 40.3062 48.9598 40.7285 48.8542C41.1508 48.7487 41.2035 49.0126 41.3091 49.3293C41.4675 49.8043 41.6258 50.2794 41.8369 50.7017C41.9953 51.1767 42.5759 51.1239 42.8926 51.3878C42.8926 51.3878 43.1565 51.2295 43.1565 51.1767C43.1565 50.7544 43.4732 50.7017 43.7371 50.5961C44.0011 50.4377 44.2122 50.4377 44.4233 50.7544C44.6345 51.1239 44.9512 51.0711 45.1095 50.7017C45.3206 50.2794 45.479 49.8043 45.8485 49.3821C46.0068 49.2237 45.9013 48.8015 45.9013 48.4848H45.8485C45.8485 48.432 45.8485 48.432 45.7957 48.3792C45.6901 48.3264 45.5846 48.2736 45.479 48.2736C44.8456 48.2208 44.2122 47.5347 44.265 46.7957C44.3178 46.479 44.1594 46.3206 43.8955 46.3734C43.526 46.479 43.3677 46.2679 43.2093 46.0567C42.9982 45.8456 42.9982 45.6345 43.1037 45.3178C43.2621 44.9483 42.6815 44.3149 42.2592 44.3677C41.6786 44.526 41.573 44.051 41.3091 43.7871C41.0452 43.5231 40.6757 43.312 41.0452 42.837C41.098 42.7314 40.9396 42.5203 40.9924 42.4147C41.0452 42.2563 41.2035 42.0452 41.3091 42.098C41.5202 42.1508 41.6786 42.2036 41.8897 42.2036L41.9425 42.1508C41.9953 42.1508 42.0481 42.2036 42.1536 42.2563C42.4703 42.3091 42.787 42.4675 42.9982 42.7842C43.2093 43.1009 43.4204 43.312 43.2093 43.7343C42.9982 44.051 43.1565 44.2621 43.5788 44.1565C43.8955 44.1038 44.0538 44.2093 44.2122 44.4205C44.2122 44.4205 44.2122 44.4205 44.265 44.4732V44.4205C44.265 44.3149 44.3705 44.2093 44.4233 44.051C44.5289 44.1038 44.6345 44.2093 44.6872 44.2621C44.74 44.3149 44.74 44.4732 44.7928 44.6316C44.7928 44.5788 44.8456 44.6844 44.7928 44.7372C44.7928 44.7899 44.74 44.8427 44.6872 44.8955C45.0039 45.265 45.3734 45.6873 45.6901 46.0567C45.954 46.3734 46.218 46.6374 46.1124 47.1124C46.1124 47.1652 46.1124 47.218 46.1124 47.218C46.218 47.1652 46.3763 47.1652 46.5874 47.218C46.7986 47.2707 46.9041 47.5874 46.9569 47.8514C46.9569 47.8514 46.9569 47.8514 47.0097 47.8514C47.2208 47.693 47.432 47.4819 47.6959 47.3763C47.8542 47.2708 48.1182 47.218 48.2237 47.2707C48.4349 47.5347 48.1709 47.6402 48.0126 47.7986C47.8015 48.0097 47.5903 48.1681 47.432 48.3792C47.1681 48.5903 47.2208 48.8015 47.4848 49.0126C47.6431 49.1182 47.7487 49.2765 47.907 49.3293C48.0126 49.3293 48.0654 49.3293 48.1181 49.3821C48.5932 49.2765 49.0683 49.1709 49.5433 49.1182C49.7544 49.0654 49.9656 48.9598 50.2295 49.0126L49.9656 47.5874C49.9656 47.6402 49.9128 47.693 49.9128 47.7458C49.7544 47.693 49.6489 47.6402 49.385 47.5347C49.5433 47.3235 49.6489 47.1652 49.7544 47.1124C49.8072 47.1124 49.86 47.1124 49.9128 47.1652L49.5433 45.0011C49.3322 45.1066 49.121 45.1594 48.9627 44.8955C48.7516 44.6316 48.4349 44.4205 48.5932 44.051C48.6988 43.7343 48.646 43.6287 48.3293 43.6287C47.907 43.6287 47.8015 43.3648 47.9598 42.9425C48.0654 42.6258 47.8015 42.2563 48.1709 41.9924C48.3821 41.8341 48.6988 41.7813 49.0155 41.7813L53.1326 37.7698C53.0798 37.7698 53.027 37.7698 53.027 37.7698C52.9214 37.7698 52.7631 37.4531 52.8159 37.4003C52.9214 37.1364 53.0798 36.9252 53.2381 36.7141C53.3965 36.6613 53.5548 36.5557 53.6604 36.5557C53.8187 36.503 54.0827 36.4502 54.1882 36.503C54.241 36.5557 54.2938 36.6085 54.2938 36.6613L58.1998 32.8609C58.147 32.8609 58.147 32.8609 58.0942 32.8609C57.7775 32.8081 57.6191 32.4386 57.1969 32.5442C56.669 32.6498 56.5107 32.4914 56.3523 32.0164C56.2468 31.6997 56.2996 31.4886 56.6163 31.383C56.669 31.3302 56.7746 31.3302 56.8274 31.3302C56.8274 31.1719 56.8274 31.0663 56.8802 30.9079C56.933 30.7496 56.933 30.4857 57.0913 30.4329C57.1969 30.3801 57.4608 30.4857 57.6191 30.5912C57.7247 30.644 57.8303 30.8024 57.9358 30.9079C57.9886 30.9607 57.9886 31.0135 58.0414 31.0663C58.622 30.9079 59.2026 30.7496 59.7305 30.644C60.0999 30.5385 60.3639 30.5912 60.5222 30.6968L63.0558 28.216L58.0942 27.477C58.0942 27.5826 58.0942 27.6882 58.0414 27.7409C57.9358 27.7937 57.8303 27.7937 57.7247 27.7937C57.7247 27.6882 57.6719 27.5826 57.7247 27.5298C57.7775 27.477 57.8303 27.477 57.883 27.477L54.98 27.0548C54.8744 27.3715 54.8216 27.4242 54.7688 27.5298ZM27.1632 36.6085C27.4271 36.6613 27.5327 36.8724 27.3743 37.0308C26.8993 37.3475 27.0576 37.717 27.0049 38.1392C27.0049 38.2448 26.8993 38.3504 26.8465 38.4559C26.7409 38.4032 26.6354 38.2976 26.5826 38.2448C26.477 37.9809 26.3715 37.717 26.3187 37.5058C26.1075 36.978 26.1603 36.8724 26.7937 36.7141C26.8465 36.6613 27.0049 36.6085 27.1632 36.6085ZM26.5826 33.9166C26.8993 34.2333 26.9521 34.6028 26.8465 34.9722C26.8993 34.9722 26.8465 35.2362 26.7937 35.2889C26.6882 35.3417 26.5298 35.3417 26.3187 35.3417C26.3715 35.2362 26.3715 35.1306 26.3715 35.025C26.0548 34.8139 25.6325 34.7083 25.4741 34.2861C25.3686 33.9166 25.3686 33.7582 25.9492 33.5999C26.1075 33.7054 26.3715 33.7582 26.5826 33.9166ZM24.7352 28.0049C24.788 27.8993 24.8935 27.7937 25.1047 27.5826C25.2102 27.5826 25.4741 27.477 25.5269 27.5826C25.7381 27.8465 25.7908 28.1104 25.9492 28.4271C25.9492 28.4271 25.8964 28.5327 25.8436 28.5327C25.4741 28.4799 25.1047 28.4799 24.788 28.4271C24.7352 28.3743 24.6824 28.1104 24.7352 28.0049ZM21.0403 27.8465C21.3043 27.7409 21.4626 28.0049 21.4626 28.216C21.4626 28.4799 21.357 28.691 21.3043 28.955C21.1459 28.7966 20.9348 28.5855 20.6709 28.3743C20.7764 28.1632 20.882 27.9521 21.0403 27.8465ZM16.4482 28.4271C16.9233 28.2688 16.9233 28.691 17.0288 28.955C17.1872 29.4828 17.0816 29.6411 16.6593 29.7467C16.3426 29.7995 16.0787 29.7995 15.9732 29.3772C15.8676 28.8494 16.0259 28.5327 16.4482 28.4271ZM13.4396 30.9607C13.2284 31.1191 12.9117 31.1191 12.7006 30.8552C12.5422 30.644 12.3839 30.4329 12.2783 30.3273C12.2783 29.9051 12.0672 29.5884 12.4895 29.43C12.9645 29.2717 13.2284 29.3244 13.4396 29.7467C13.5451 29.9578 13.5979 30.169 13.5979 30.3801C13.6507 30.5385 13.5451 30.8552 13.4396 30.9607ZM16.7649 34.7611C16.2899 34.9195 15.8148 35.025 15.3398 35.1834C14.9703 35.2889 14.7591 35.1306 14.7064 34.7611C14.6536 34.4444 14.4952 34.1277 14.9703 33.9694C15.2342 33.9166 15.4981 33.811 15.762 33.7582C16.0787 33.6527 16.3426 33.5999 16.3426 33.1776C16.3426 32.7554 16.8177 32.7553 17.0816 32.8081C17.2927 32.8081 17.4511 33.1248 17.5039 33.1776C17.715 33.8638 17.2927 34.6028 16.7649 34.7611ZM18.5067 33.5999C18.8234 33.2304 19.2457 32.9137 19.3513 32.4387C19.3513 32.3859 19.5096 32.2803 19.5624 32.2803C19.8791 32.3859 20.143 32.4387 20.4069 32.597C20.5653 32.7026 20.6181 32.9137 20.6181 32.9665C20.7764 33.6527 20.7236 33.7054 20.1958 33.8638C19.9847 33.9166 19.8263 33.9694 19.6152 34.0221C19.2985 34.0749 18.9818 34.2333 18.9818 34.6028C18.9818 34.6555 18.8234 34.7611 18.7707 34.7611C18.5595 34.6555 18.3484 33.811 18.5067 33.5999ZM21.5682 38.5615C21.3043 38.6671 21.0403 38.8782 20.8292 38.5087C20.6709 38.2448 20.4597 38.2976 20.2486 38.3504C19.9319 38.4032 19.6152 38.5087 19.2985 38.5615C19.1929 38.5615 18.9818 38.5615 18.929 38.4559C18.6123 37.9809 19.1929 37.8225 19.3513 37.4531C19.4568 37.1891 19.7735 37.1364 19.9319 37.4003C20.2486 37.8225 20.5125 37.5586 20.8292 37.4531C21.1987 37.2947 21.1459 36.978 21.0403 36.7141C20.9348 36.3446 20.9348 35.8696 20.3542 35.764C20.2486 35.764 20.143 35.5001 20.143 35.3417C20.143 35.2362 20.3014 35.1306 20.4069 35.0778C20.9348 34.8667 21.1459 34.9722 21.357 35.5001C21.4098 35.7112 21.4626 35.9223 21.5154 36.1335C21.5682 36.3446 21.621 36.5557 21.621 36.7669C21.7265 37.1364 21.8321 37.5586 21.9377 37.9281C21.9904 38.2976 21.8849 38.4559 21.5682 38.5615ZM22.835 37.5586C22.7294 37.5058 22.6766 37.4531 22.5183 37.4003C22.6238 37.2947 22.6238 37.1891 22.6766 37.1364C22.7822 37.1891 22.8878 37.2419 22.9405 37.3475C22.9933 37.4003 22.8878 37.5058 22.835 37.5586ZM24.049 32.8609C23.5739 32.9665 23.1517 33.1248 22.7294 33.2304C22.096 33.3887 21.9904 33.336 21.8849 32.7026C21.7793 32.4387 21.8321 32.1747 22.1488 32.0164C22.3071 31.9108 22.9933 31.6997 23.2045 31.7525C23.3628 31.8053 23.5212 31.7525 23.6267 31.7525C24.1546 31.8053 24.3129 31.9108 24.3657 32.4387C24.3657 32.7026 24.2601 32.8081 24.049 32.8609ZM25.3158 36.978C25.2102 37.0836 25.0519 37.2419 24.9991 37.3475C24.9463 37.5586 24.8935 37.7698 24.6824 37.717C24.524 37.6642 24.4713 37.4531 24.4185 37.4003C24.2601 36.7669 24.6824 36.3446 25.2102 36.503C25.4214 36.6085 25.4741 36.7669 25.3158 36.978ZM25.9492 45.1066C25.8436 45.1594 25.6853 45.0011 25.4214 44.9483C25.6325 44.7372 25.7381 44.5788 25.8964 44.5788C26.002 44.5788 26.1603 44.7371 26.2659 44.7899C26.1075 44.8955 26.0548 45.0539 25.9492 45.1066ZM27.2688 47.9569C27.0049 48.0097 26.6882 48.0625 26.4242 48.0625C26.3187 48.0625 26.2131 47.9569 26.1603 47.8514C26.1075 47.7458 26.1603 47.6402 26.1603 47.5347C26.4242 47.3235 27.2688 47.4291 27.3743 47.693C27.4271 47.7458 27.3216 47.9569 27.2688 47.9569ZM27.216 47.218C27.0049 47.218 26.8465 46.9541 26.6354 46.8485C26.6882 46.5846 26.6354 46.3206 26.7409 46.2679C27.3216 45.8984 27.0049 45.4233 26.8993 44.9483C26.7937 44.4205 26.9521 44.2093 27.4799 44.2093C27.5855 44.2093 27.7438 44.4205 27.691 44.4732C27.4271 45.0011 27.6383 45.5289 27.7966 46.0567C27.8494 46.3207 27.4271 47.218 27.216 47.218ZM23.4684 47.1124C23.3628 47.1652 23.2045 47.1652 22.9933 47.218C23.0461 47.0068 22.9933 46.7957 23.0461 46.7429C23.0989 46.6901 23.31 46.6901 23.4156 46.7957C23.4684 46.7957 23.5212 47.0596 23.4684 47.1124ZM24.7352 52.813C24.3129 53.3408 24.049 53.3408 23.5739 52.7602C23.5739 52.7074 23.5212 52.5491 23.4684 52.3379C23.6267 52.3379 23.8379 52.2852 23.9962 52.2852C24.1546 52.2852 24.3129 52.2324 24.4713 52.2852C24.5768 52.2852 24.7352 52.3379 24.788 52.4435C24.8407 52.5491 24.8407 52.7074 24.7352 52.813ZM26.3715 54.6076C26.3187 54.6604 26.1603 54.7132 26.1075 54.7132C26.0548 54.7132 25.9492 54.6604 25.8964 54.6604C25.9492 54.5548 26.002 54.5021 26.0548 54.4493C26.1603 54.3965 26.2659 54.3965 26.3715 54.3437C26.3715 54.3965 26.4242 54.5021 26.3715 54.6076ZM51.5491 60.5193C51.6018 60.5193 51.7602 60.6249 51.7602 60.6249C51.7602 60.7305 51.7074 60.836 51.6546 60.9416C51.5491 60.8888 51.4963 60.8888 51.1796 60.7305C51.3379 60.6249 51.4435 60.5193 51.5491 60.5193ZM46.8514 53.1297C47.1681 53.0769 47.432 53.0769 47.6431 53.0769C47.5375 53.288 47.4848 53.4992 47.3792 53.7103C47.2736 53.8687 47.0097 54.0798 46.8514 53.8159C46.7458 53.6575 46.8514 53.3936 46.8514 53.1297ZM45.2679 57.0356C45.4262 56.9301 45.479 56.8245 45.6373 56.8245C45.7957 56.8245 46.0068 56.7717 46.1124 56.8773C46.1652 56.9829 46.1652 57.194 46.1124 57.3524C46.0596 57.4579 45.954 57.5107 45.8485 57.6163C45.6373 57.8274 45.3734 57.9857 45.1095 57.7218C44.7928 57.3523 45.1095 57.194 45.2679 57.0356ZM43.051 53.552C43.1037 53.0769 43.526 52.9713 43.8427 53.288C43.9483 53.3936 44.0538 53.4992 44.1594 53.6047C44.265 53.7103 44.3178 53.8159 44.4233 53.8687C44.5289 53.9742 44.5817 54.0798 44.6872 54.1326C45.1095 54.6076 45.1095 54.6076 44.6872 55.0827C44.4761 55.2938 44.4233 55.5577 44.4761 55.8216C44.4761 55.9272 44.3178 56.0328 44.2122 56.1383C44.1066 56.0328 43.9483 55.9272 43.9483 55.8744C44.1594 55.2938 43.6844 54.9771 43.3677 54.6604C42.9982 54.3437 42.9982 53.9742 43.051 53.552ZM42.8926 49.0126C42.9982 49.0126 43.1037 48.9598 43.2621 48.907C43.2621 48.8542 43.2621 48.8542 43.2621 48.8015C43.2621 48.6959 43.3677 48.4848 43.4204 48.4848C43.526 48.432 43.6844 48.5375 43.7899 48.6431C44.1066 49.0126 44.1594 49.4876 44.1594 49.9627C44.1594 50.0683 44.0011 50.2266 43.8955 50.2266C43.7899 50.2266 43.6316 50.121 43.5788 50.0155C43.526 49.9627 43.526 49.8571 43.526 49.8043C43.4204 49.7516 43.3149 49.7516 43.2093 49.6988C43.051 49.646 42.8926 49.5932 42.787 49.5404C42.7343 49.3821 42.787 49.2237 42.8926 49.0126ZM41.7314 45.3706C41.8369 45.4233 41.9425 45.4233 42.0481 45.4761C42.2064 45.5817 42.3648 45.6873 42.4703 45.7928C42.4703 46.2151 42.6287 46.5318 42.1536 46.6901C41.6258 46.8485 41.4675 46.7957 41.2035 46.3207C41.1508 46.1623 41.1508 45.8984 41.1508 45.6872C41.1508 45.0538 41.2035 45.0539 41.7314 45.3706ZM41.8897 29.6411C41.9953 29.6939 42.2064 29.7467 42.2064 29.8523C42.2592 29.9578 42.1536 30.1162 42.1009 30.3801C41.8897 30.2218 41.7314 30.169 41.7314 30.0634C41.6786 29.9051 41.8369 29.7995 41.8897 29.6411ZM42.3648 32.122C42.4176 32.122 42.6287 32.122 42.7343 32.2275C42.8926 32.4387 42.7343 32.5442 42.5759 32.7026C42.4703 32.8081 42.4703 33.0193 42.3648 33.1248C42.2592 33.2304 42.1009 33.3888 41.9953 33.3888C41.8897 33.3888 41.7314 33.1776 41.6786 33.072C41.573 32.5442 41.7314 32.2803 42.3648 32.122ZM42.3648 30.4857C42.5231 30.3801 42.6287 30.2745 42.6815 30.2745C42.7343 30.2745 42.787 30.3801 42.8398 30.4329C42.787 30.4857 42.7343 30.5912 42.6287 30.5912C42.6287 30.644 42.5759 30.5912 42.3648 30.4857ZM42.1536 34.9722C41.9953 35.2362 41.9425 35.6584 41.7842 35.9223C41.4675 36.3974 41.2563 36.3974 40.8868 35.9751C40.6757 35.764 40.5174 35.5529 40.3062 35.2889C40.1479 35.025 39.884 34.7083 39.6728 34.3388C39.62 34.1805 39.62 34.0221 39.5673 33.8638C39.7256 33.9166 39.884 33.9166 40.0423 33.9694C40.0951 33.9694 40.1479 34.0221 40.1479 34.0221C40.4646 34.2861 40.7813 34.3388 41.098 34.0221C41.3091 33.811 41.573 33.7055 41.8369 33.9694C42.0481 34.2861 42.4703 34.4972 42.1536 34.9722ZM41.098 27.5298C41.2035 27.477 41.2563 27.3715 41.3619 27.3715C41.4147 27.3715 41.4675 27.477 41.573 27.5298C41.4675 27.5826 41.4147 27.6882 41.3091 27.7409C41.2035 27.7937 41.098 27.7409 40.9924 27.7409C41.0452 27.6882 41.098 27.6354 41.098 27.5298ZM40.9396 32.6498C40.9924 32.597 41.2035 32.597 41.3091 32.6498C41.3619 32.6498 41.4147 32.8609 41.3619 32.9665C41.3091 33.0721 41.1508 33.1776 41.0452 33.336C40.9396 33.3887 40.7813 33.4415 40.6757 33.4943C40.6229 33.4943 40.4646 33.336 40.4646 33.336C40.6229 33.0193 40.7813 32.8081 40.9396 32.6498ZM39.9895 28.691C39.9895 28.9022 39.6728 29.0077 39.4617 28.7966C39.3034 28.691 39.1978 28.5327 39.0922 28.3743C38.9867 28.2688 38.9339 28.1632 38.8283 28.0576C38.9339 27.9521 39.0394 27.8993 39.2506 27.7937C39.4089 27.8465 39.6728 27.8465 39.7256 27.9521C39.884 28.1632 39.9368 28.4271 39.9895 28.691ZM39.145 31.4358C39.0394 31.4358 38.9339 31.383 38.8283 31.3302C38.7755 31.2774 38.8283 31.1719 38.8283 31.0135C38.9867 31.0663 39.0922 31.1191 39.145 31.1719C39.1978 31.2246 39.145 31.3302 39.145 31.4358ZM38.5644 19.6651C38.67 19.6123 38.8283 19.5595 39.0922 19.454C39.1978 19.454 39.4617 19.454 39.5673 19.5595C39.7256 19.7707 39.62 19.929 39.4089 20.0874C39.3033 20.1929 39.3034 20.4041 39.1978 20.4568C39.0394 20.5624 38.8811 20.5624 38.7227 20.5624C38.67 20.5624 38.6172 20.4041 38.5116 20.3513C38.3533 20.2457 38.1949 20.0874 38.0366 19.9818C38.1949 19.929 38.3533 19.7707 38.5644 19.6651ZM39.7256 32.8081C39.8312 32.8081 39.9895 32.7553 40.0951 32.7553C40.2007 32.7553 40.3062 32.8609 40.3062 32.9137C40.3062 33.0193 40.2534 33.1776 40.2007 33.2304C39.884 33.336 39.62 33.4415 39.3033 33.5471C38.8283 33.6527 38.3005 33.6527 38.1421 34.2861C38.0893 34.4444 37.5615 34.55 37.2976 34.55C37.192 34.55 37.0337 34.1805 36.9809 33.9694C36.8753 33.6527 37.0865 33.5471 37.3504 33.3888C37.5087 33.336 37.6143 33.2304 37.7726 33.1776C38.406 33.0193 39.0922 32.9137 39.7256 32.8081ZM38.0893 39.8283C37.7726 39.9339 37.6143 39.8283 37.4559 39.6172C37.0865 39.1949 36.717 38.7726 36.4003 38.3504C36.1364 38.0337 35.8724 37.717 35.6085 37.4003C35.3446 37.0836 34.9223 36.8197 35.239 36.2918C35.2918 36.239 35.1335 36.0279 35.0807 35.9223C34.9223 35.7112 34.764 35.5529 34.6584 35.2889V35.2362C34.1306 35.3417 33.6028 35.5001 33.1277 35.6584C32.811 35.764 32.3887 35.764 32.4415 36.2918C32.4415 36.3446 32.2832 36.4502 32.1776 36.503C32.1248 36.503 32.0193 36.3974 31.9665 36.3446C31.8081 36.0807 31.7553 35.8168 31.8609 35.6584C31.8609 35.5529 31.8609 35.4473 31.8081 35.3417C31.9665 35.3417 32.1248 35.3417 32.1776 35.3945C32.1776 35.3945 32.2304 35.3945 32.2304 35.3417C32.4415 35.2362 32.6527 35.1834 32.7582 34.8667C32.7582 34.7611 32.9694 34.6028 33.1277 34.55C33.3916 34.4444 33.6555 34.3916 33.9195 34.3388C34.1306 34.2861 34.3417 34.2333 34.5529 34.1805C35.0807 34.0749 35.1335 34.1805 35.239 34.6555C35.239 34.7083 35.239 34.7083 35.239 34.7611C35.3446 34.7611 35.4502 34.7083 35.503 34.6555C35.7669 34.4972 36.0308 34.3389 36.2947 34.1805C36.6642 34.0222 37.0865 34.2333 37.1392 34.6555C37.1392 34.7083 36.9809 34.8667 36.8753 34.8667C36.2419 34.8667 36.3475 34.8667 36.1891 35.4473C36.0836 35.9751 36.1891 36.2918 36.5586 36.6085C36.8225 36.8724 37.0865 37.1891 36.9281 37.6642C36.8753 37.7698 36.9809 37.9281 36.9809 38.0865C37.1392 38.0865 37.2448 38.0865 37.4032 38.0337C38.1421 37.7698 38.2477 37.7698 38.6172 38.192C39.0394 38.6671 38.7755 39.5644 38.0893 39.8283ZM38.1949 46.9013C38.1421 47.0068 38.0893 47.1124 37.9838 47.1124C37.931 47.1124 37.8254 47.0596 37.6671 47.0068C37.8254 46.9013 37.8782 46.7957 37.9838 46.7429C38.0366 46.7429 38.0893 46.8485 38.1949 46.9013ZM36.8225 41.5174C36.8225 41.5702 36.717 41.7813 36.6642 41.7813C36.5586 41.7813 36.4531 41.6757 36.2947 41.6229C36.4003 41.4646 36.5058 41.3062 36.5586 41.359C36.6114 41.3062 36.7698 41.4118 36.8225 41.5174ZM36.1364 44.1565C36.1364 44.2093 36.0836 44.3677 36.0308 44.3677C35.978 44.4204 35.8724 44.3149 35.7669 44.2621C35.8724 44.1565 35.9252 44.051 35.978 43.9982C35.978 43.9982 36.1364 44.1038 36.1364 44.1565ZM32.9166 32.9665C33.0221 33.336 32.8638 33.811 32.6527 33.7582C32.4415 33.7054 32.336 33.4943 32.1248 33.2832C32.2304 33.072 32.2832 32.9137 32.3887 32.7553C32.2832 32.6498 32.1248 32.7026 31.9665 32.6498C31.7553 32.597 31.5442 32.5442 31.3859 32.4387C30.9108 32.0164 30.9636 31.858 31.4386 31.4358C31.6498 31.2774 31.8081 31.2246 32.1248 31.383C32.4415 31.5413 32.8638 31.3302 33.1805 31.7525C33.4444 32.1219 33.2861 32.3331 33.1277 32.6498C33.0749 32.7554 32.9694 32.8081 32.9166 32.8609C32.8638 32.8609 32.8638 32.9137 32.9166 32.9665ZM31.4914 43.4176C31.4914 43.5231 31.4386 43.6287 31.3331 43.8398C31.1747 43.6815 31.0164 43.6287 31.0164 43.5231C31.0164 43.4176 31.1219 43.312 31.2275 43.2592C31.3331 43.2064 31.4914 43.3648 31.4914 43.4176ZM31.1747 37.1891C31.2275 37.2947 31.1747 37.4003 31.1747 37.6114C31.0164 37.5058 30.9108 37.4531 30.9108 37.4003C30.9108 37.2947 30.9636 37.1891 30.9636 37.0836C31.0164 37.0836 31.1219 37.1364 31.1747 37.1891ZM31.1747 45.8456C31.2803 45.74 31.4914 45.7928 31.7026 45.74C31.7026 45.9512 31.6498 46.1095 31.597 46.4262C31.2803 46.4262 31.0692 46.4262 30.858 46.4262C30.9636 46.2151 31.0164 46.0039 31.1747 45.8456ZM33.7611 25.9991C33.6555 25.9991 33.6028 25.9991 33.4444 25.9991C33.4444 25.8407 33.4972 25.7352 33.4972 25.6296C33.6028 25.6296 33.7083 25.6296 33.7611 25.6824C33.7611 25.788 33.7611 25.8935 33.7611 25.9991ZM34.1306 33.7582C34.0778 33.9694 34.0778 34.1277 33.9722 34.1805C33.8667 34.2333 33.6555 34.1805 33.6028 34.1277C33.55 34.0749 33.6028 33.811 33.6555 33.7582C33.7611 33.7054 33.9195 33.7582 34.1306 33.7582ZM36.8225 29.8523C36.8225 29.7467 36.8225 29.6411 36.8753 29.5356C36.9281 29.43 36.9809 29.3244 37.0865 29.2189C37.192 29.1133 37.3504 29.0077 37.5087 29.0077C37.5615 29.0077 37.7199 29.1661 37.7199 29.2717C37.7199 29.43 37.6143 29.5884 37.5615 29.6411C37.3504 29.7467 37.2448 29.7995 37.1392 29.8523C37.0337 29.8523 36.9281 29.8523 36.8225 29.8523ZM35.9252 17.3426C36.0836 17.0259 36.2947 16.7092 36.5586 16.3925C36.5586 16.3398 36.7698 16.3398 36.7698 16.3925C36.9809 16.8148 37.4032 16.762 37.7199 16.9732C37.8782 17.0787 37.931 17.4482 37.8782 17.6593C37.8254 17.8177 37.5615 17.9233 37.3504 18.0816C36.9281 17.976 36.5058 17.8177 36.0836 17.6593C35.9252 17.6066 35.8724 17.3954 35.9252 17.3426ZM35.7141 20.4568C35.8724 20.4568 36.0308 20.668 36.2947 20.8263C36.1364 21.0902 36.0836 21.4069 35.978 21.4597C35.6085 21.5653 35.6613 21.1958 35.5557 20.9847C35.503 20.7735 35.3974 20.4568 35.7141 20.4568ZM35.1863 28.216C35.2918 28.3216 35.4502 28.4799 35.6085 28.6383C35.503 28.8494 35.4502 29.0605 35.3446 29.2717C35.2918 29.43 35.1863 29.5356 35.1335 29.6939C35.0279 29.9578 34.5001 30.2218 34.2362 30.0634C34.1834 30.0106 34.1306 29.9051 34.1306 29.8523C34.3417 29.43 34.6056 28.955 34.8696 28.5327C34.9223 28.4271 35.0807 28.3216 35.1863 28.216ZM34.7112 20.2985C34.8696 20.5624 35.0807 20.8791 34.764 21.143C34.7112 21.1958 34.5529 21.2486 34.5529 21.3014C34.3417 21.9876 34.0778 21.882 33.6028 21.5125C33.3388 21.3014 33.1805 21.2486 33.4972 20.9847C33.6028 20.9319 33.6555 20.7736 33.6555 20.668C33.6028 20.2457 33.9195 20.1929 34.3417 20.0874C34.3945 20.1401 34.6056 20.1929 34.7112 20.2985ZM32.4415 15.7064C32.5471 15.4952 32.811 15.3369 33.0221 15.1785C33.2333 15.1785 33.3916 15.1785 33.4972 15.2313C33.7083 15.2841 33.9195 15.3369 34.0778 15.3897C33.9722 15.548 33.9195 15.7064 33.8139 15.8647C33.7611 15.9703 33.7611 16.0758 33.7083 16.1814C33.55 16.4981 33.3388 16.6037 33.0221 16.3398C32.9694 16.287 32.9166 16.1814 32.811 16.1286C32.6527 16.0231 32.336 15.9703 32.4415 15.7064ZM31.7553 18.3983C31.7553 18.24 32.0193 18.0816 32.1248 17.976C32.4415 17.976 32.6527 17.9233 32.811 17.9233C33.3388 17.9233 33.4444 18.0288 33.55 18.5039C33.55 18.6622 33.4972 18.8206 33.4444 18.9789C33.3388 18.9261 33.1805 18.9261 33.0749 18.8734C32.811 18.8206 32.5999 18.715 32.336 18.6622C32.1248 18.6094 31.7553 18.7678 31.7553 18.3983ZM31.7026 21.3542C31.9665 21.3014 32.1248 21.2486 32.1776 21.3014C32.2832 21.3542 32.336 21.5125 32.3887 21.6181C32.1248 21.7764 31.8609 21.9348 31.597 22.0931C31.5442 22.0931 31.2803 21.8292 31.2803 21.7764C31.4386 21.5653 31.597 21.4069 31.7026 21.3542ZM31.4386 23.6238C31.4914 23.7822 31.5442 23.835 31.5442 23.835C31.597 24.0461 31.7026 24.31 31.7553 24.5212C31.7026 24.5212 31.597 24.5739 31.5442 24.5739C31.2803 24.3628 31.0692 24.0989 30.858 23.835C30.8052 23.7822 30.9636 23.5183 31.0692 23.5183C31.1747 23.4655 31.3331 23.5711 31.4386 23.6238ZM30.2774 20.668C30.3302 20.6152 30.4358 20.5624 30.5941 20.5096C30.7525 20.4569 30.9108 20.4569 31.0692 20.4041C31.0692 20.5624 31.0164 20.668 31.0164 20.8263C31.0164 20.9847 30.9636 21.0902 30.9636 21.2486C30.9636 21.4069 30.9636 21.5653 30.9108 21.7236C30.7525 21.6709 30.5941 21.5653 30.4885 21.5125C30.0135 21.1958 29.9607 20.9847 30.2774 20.668ZM29.169 21.5653C29.3273 21.8292 29.644 21.8292 29.8024 21.9348C30.0135 22.1459 30.0135 22.5154 30.0663 22.8321C30.0663 22.8849 29.9079 22.9377 29.8551 22.9904C29.4857 23.0432 28.8523 22.5682 28.7995 22.1987C28.7995 22.0403 28.7467 21.882 28.7467 21.7764C28.7467 21.5125 29.0106 21.3542 29.169 21.5653ZM28.3244 27.3715C28.5356 27.2131 28.6939 27.3715 28.7995 27.5298C29.4329 28.2688 30.0663 29.0077 30.6997 29.6939C30.9108 29.9051 31.0164 30.1162 30.7525 30.3273C30.5413 30.5385 30.3302 30.3801 30.1718 30.2218C29.8551 29.8523 29.5385 29.43 29.169 29.0605C28.8523 28.691 28.5356 28.3216 28.2189 27.9521C28.1661 27.7409 28.0605 27.5298 28.3244 27.3715ZM29.9607 34.2333C30.0663 34.0749 30.1191 33.9166 30.1718 33.9166C30.2774 33.9166 30.4358 34.0221 30.4885 34.0749C30.4885 34.0749 30.4358 34.3388 30.383 34.3388C30.2774 34.3388 30.1191 34.2861 29.9607 34.2333ZM30.2774 36.239C30.2774 36.2918 30.0135 36.3974 29.8551 36.3446C29.6968 36.2918 29.5912 36.0807 29.4857 36.0279C29.2745 35.9751 29.0106 35.9751 29.0634 35.6584C29.1162 35.5001 29.3273 35.4473 29.4857 35.2889C29.6968 35.3417 30.0135 35.3417 30.0663 35.4473C30.2246 35.6584 30.2774 35.9751 30.2774 36.239ZM27.955 31.2774C27.7966 30.9607 27.7438 30.6968 28.1661 30.4857C28.2717 30.4329 28.3244 30.2745 28.3772 30.1162C28.5884 29.6411 29.169 29.5884 29.5384 29.9578C29.644 30.0634 29.6968 30.1162 29.8024 30.169C29.9079 30.2745 30.0663 30.3273 30.1718 30.3801C30.0663 30.4857 29.9607 30.5385 29.8551 30.644C29.644 30.8552 29.4329 31.0663 29.169 31.2774C29.0634 31.383 28.9051 31.4358 28.7467 31.5413C28.3772 31.7525 28.1133 31.5941 27.955 31.2774ZM28.43 43.4176C28.43 43.3648 28.6411 43.2064 28.6939 43.2064C29.0634 43.3648 29.4329 43.5759 29.8024 43.7871C29.8551 43.7871 29.8024 44.051 29.6968 44.1037C29.5385 44.2093 29.3801 44.2621 29.1162 44.3677C29.0106 44.3677 28.6939 44.3677 28.5883 44.2621C28.4828 44.051 28.4828 43.7343 28.43 43.4176ZM31.4386 48.8542C31.0692 48.907 30.5941 48.907 30.5941 49.4876C30.5941 49.5932 30.383 49.6988 30.2774 49.6988C29.6968 49.7516 29.0106 49.0126 29.1162 48.4848C29.1162 48.3264 29.3273 48.1681 29.4857 48.1153C29.7496 48.0097 30.0663 47.7986 30.383 48.1153C30.858 48.5375 31.3331 48.432 31.5442 47.9041C31.7026 47.5347 32.811 47.1652 33.1277 47.4291C33.3388 47.5874 33.4972 47.7458 33.8139 47.7458C33.9195 47.7458 34.0778 47.9569 34.0778 48.0625C34.0778 48.1681 33.9722 48.3792 33.8667 48.3792C33.4972 48.4848 33.1277 48.5903 32.811 48.6431V48.6959C32.2832 48.7487 31.8609 48.7487 31.4386 48.8542ZM34.5529 48.7487C34.5001 48.8015 34.4473 48.8542 34.3417 48.907C34.1306 49.0126 33.9722 49.3821 33.7083 49.0654C33.4972 48.8015 33.8139 48.6431 33.9722 48.4848C34.025 48.432 34.0778 48.3792 34.1306 48.3264C34.2889 48.2736 34.5529 48.2208 34.6584 48.2736C34.8696 48.432 34.7112 48.5903 34.5529 48.7487ZM34.3945 43.8926C34.4473 43.8398 34.5529 43.7871 34.5529 43.7871C34.6584 43.7871 34.8168 43.8398 34.9223 43.9454C34.9223 43.9454 34.9223 44.051 34.9223 44.1565C34.8168 44.1038 34.6584 44.1038 34.5529 44.051C34.5001 43.9982 34.4473 43.9454 34.3945 43.8926C34.1306 44.051 33.9195 44.1038 33.8139 44.051C33.8139 44.051 33.8139 44.1037 33.7611 44.1037C33.8667 44.1565 33.9722 44.2621 34.0778 44.3149C34.3945 44.4732 34.6584 44.8955 34.5529 45.265C34.5001 45.4761 34.2362 45.6345 34.025 45.7928C33.6028 45.8456 33.3916 45.74 33.2333 45.4233C33.0749 45.1594 32.8638 45.2122 32.7582 45.4761C32.6527 45.6345 32.7582 45.9512 32.4415 45.8456C32.2304 45.7928 31.9665 45.1066 32.1248 44.9483C32.5471 44.5788 32.3887 44.2093 32.2832 43.7871C32.2304 43.4176 32.0193 43.0481 32.5471 42.7842C32.7582 42.6786 32.7582 42.3091 32.9694 42.2036C33.0749 42.1508 33.2333 42.3619 33.3916 42.4675C33.3916 42.4147 33.4972 42.3619 33.55 42.3619C33.7083 42.3619 33.8667 42.4147 33.9722 42.5203C34.4473 42.5203 34.9751 42.4675 35.1863 41.7813C35.1863 41.7285 35.4502 41.6757 35.4502 41.7285C35.7669 42.1508 35.9252 42.6258 35.8197 43.1009C35.7669 43.3648 35.5557 43.4176 35.3446 43.2064C34.9223 42.837 34.9751 42.8897 34.6584 43.2592C34.5529 43.4176 34.3945 43.4703 34.1834 43.5759C34.2889 43.7343 34.3417 43.7871 34.3945 43.8926ZM36.6114 52.0212C36.5586 52.074 36.2419 52.1268 36.1891 52.0212C36.0836 51.9157 36.1364 51.7045 36.0836 51.4406C36.3475 51.4934 36.6114 51.4934 36.6642 51.5462C36.6642 51.6518 36.6642 51.9157 36.6114 52.0212ZM37.0337 47.7458C37.0337 48.1153 36.6114 48.2208 36.3475 48.1681C35.978 48.1153 35.6085 47.9569 35.2918 47.7458C35.1863 47.693 35.1863 47.4819 35.0807 47.218C35.1335 47.1124 35.0807 46.7429 35.239 46.6901C35.5557 46.5318 35.9252 46.3207 36.2419 46.6901C36.3475 46.7957 36.4531 46.9013 36.6114 46.9013C37.0865 47.0068 37.0337 47.4291 37.0337 47.7458ZM36.7698 46.5318C36.7698 46.4262 36.717 46.3206 36.717 46.2151C36.7698 46.1095 36.8753 46.0567 36.9281 45.9512C37.0337 45.8984 37.1392 45.7928 37.2448 45.74C37.3504 45.74 37.4559 45.7928 37.5615 45.7928C37.5087 45.9512 37.4559 46.1623 37.3504 46.2679C37.192 46.4262 36.9809 46.479 36.7698 46.5318ZM38.1421 48.1681C37.931 48.2736 37.7199 48.2736 37.4559 48.3264C37.5615 48.1153 37.6143 47.8514 37.7199 47.693C37.7726 47.5874 38.0366 47.6402 38.406 47.5874C38.3005 47.9569 38.2477 48.1153 38.1421 48.1681ZM40.5174 46.2679C40.359 46.4262 40.1479 46.5318 39.9895 46.479C39.9368 46.5318 39.9367 46.5846 39.884 46.6373C39.8312 46.6901 39.7256 46.5846 39.6728 46.5318C39.6728 46.479 39.7256 46.4262 39.7784 46.3207C39.6728 46.2151 39.5673 46.1095 39.4089 46.0039C39.2506 45.6872 38.8811 45.3705 39.145 44.8955C39.145 44.8427 39.1978 44.7899 39.1978 44.7372C39.1978 44.526 39.1978 44.3677 39.1978 44.1565C39.4089 44.2621 39.62 44.3677 39.7784 44.526C40.0951 44.8427 40.359 45.2122 40.6757 45.5289C40.8868 45.8456 40.7813 46.0567 40.5174 46.2679ZM43.6316 40.6728C43.4204 40.7256 43.3149 40.8312 43.2093 41.0951C43.051 41.4646 42.787 41.7813 42.5231 42.0452C42.4703 42.098 42.2592 42.0452 42.2064 41.9924C42.1009 41.8869 42.0481 41.7285 41.9953 41.6229C41.8897 41.4646 41.7314 41.2007 41.573 41.2007C41.2563 41.2007 40.9396 41.2007 40.7813 41.6229C40.7285 41.7813 40.5701 41.8869 40.5174 41.9924C40.4646 41.9396 40.4646 41.9396 40.4118 41.8869C40.359 41.9924 40.2534 42.098 40.1479 42.1508C40.0423 42.2563 39.7784 42.2036 39.62 42.1508C39.4617 42.098 39.4089 41.9396 39.1978 41.7285C39.145 41.8341 39.0394 41.9396 39.0394 42.0452C38.9867 42.3091 38.8811 42.5203 38.6172 42.4675C38.4588 42.4147 38.3005 42.2036 38.3005 42.1508C38.1421 41.6757 38.0893 41.4118 38.5116 41.2535C38.5644 41.2535 38.6172 41.1479 38.67 41.0951C38.7755 40.9895 38.67 40.6201 38.9339 40.6201C38.9867 40.4617 38.9866 40.2506 38.8811 40.0922C39.0394 40.0394 39.1978 39.9339 39.3033 39.9867C39.5673 40.145 39.7784 40.3034 39.9367 40.5145C39.9895 40.4089 39.9895 40.3561 40.0951 40.2506C40.1479 40.1978 40.359 40.3034 40.4118 40.3561C40.6229 40.6728 40.8868 40.5673 41.1508 40.5145C41.7314 40.3561 42.3648 40.1978 42.9454 40.0922C43.2621 40.0394 43.526 39.9339 43.526 39.5644C43.526 39.4588 43.6844 39.3533 43.7371 39.3533C43.8427 39.3533 43.9483 39.4588 44.0011 39.5116C44.4233 40.2506 44.3178 40.5145 43.6316 40.6728ZM44.6345 37.7698C44.5289 37.8225 44.3705 37.8753 44.3178 37.8225C43.7371 37.5586 43.2093 37.4531 42.5759 37.717C42.3648 37.8225 41.8897 37.0308 42.0481 36.8197C42.1009 36.7669 42.2592 36.7141 42.312 36.7669C42.8398 37.0836 43.051 36.6085 43.3149 36.3446C43.3677 36.2918 43.2621 36.0807 43.1565 35.9751C43.1037 35.9223 42.9454 36.0279 42.8926 35.9751C42.787 35.8696 42.6815 35.7112 42.6287 35.6056C42.7343 35.5529 42.8926 35.4473 42.9982 35.4473C43.8955 35.5529 43.8955 35.5529 44.6345 36.3446C44.6872 36.3974 44.8456 36.5557 44.9512 36.7141C45.1623 37.0836 45.1095 37.4531 44.6345 37.7698ZM44.2122 31.5413C44.5289 31.4886 44.6872 31.6469 44.7928 32.122C44.8984 32.6498 44.8456 32.8081 44.4233 32.9137C43.8955 33.0193 43.6316 32.8609 43.4732 32.2803C43.4732 31.9636 43.7899 31.5941 44.2122 31.5413ZM45.2151 27.3187C44.9512 27.4242 44.5817 27.5826 44.3178 27.477C43.9483 27.3187 43.7371 27.2659 43.6316 27.6882C43.5788 27.8465 43.4204 27.9521 43.2621 28.0049C43.051 28.0576 42.6815 28.0576 42.6287 27.9521C42.4176 27.6354 42.8398 27.5826 42.9982 27.4242C43.3677 27.002 43.8955 26.7381 44.0011 26.1047C44.0011 25.9991 44.1594 25.8935 44.265 25.8935C44.4761 25.8407 45.2679 26.4741 45.3734 26.7908C45.2679 26.9492 45.3206 27.2659 45.2151 27.3187ZM58.7276 29.1133C58.7804 28.955 58.7804 28.7966 58.8331 28.6383C58.8859 28.4799 58.8859 28.3216 58.9915 28.2688C59.0971 28.216 59.2554 28.3216 59.361 28.3743C59.5193 28.4799 59.6249 28.5855 59.6777 28.691C60.1527 29.2717 60.1527 29.6411 59.7305 30.0634C59.6249 30.1162 59.5193 30.2218 59.4138 30.2218C59.0971 30.169 58.622 29.43 58.7276 29.1133ZM51.3379 31.6997C51.2851 31.8053 51.2851 31.9108 51.2324 32.0164C51.2324 32.0692 51.0212 32.0164 50.9684 31.9636C50.9157 31.9108 50.8629 31.8053 50.8101 31.6469C51.1268 31.6469 51.2324 31.6997 51.3379 31.6997ZM48.1709 31.0135C48.2237 31.0135 48.1709 31.1191 48.1709 31.2246C48.0654 31.2246 48.0126 31.2246 47.907 31.2246C47.8542 31.2246 47.907 31.1191 47.907 30.9607C48.0126 30.9607 48.1182 30.9607 48.1709 31.0135ZM46.0596 31.2774C46.1124 31.2246 46.3235 31.2774 46.3763 31.383C46.4819 31.4886 46.4819 31.6469 46.5347 31.8053C46.5347 31.9108 46.5347 32.0692 46.4819 32.2275C46.4819 32.2803 46.2707 32.3331 46.2707 32.3331C46.1652 32.122 46.0068 31.9108 45.954 31.6469C45.9013 31.4886 46.0068 31.3302 46.0596 31.2774ZM45.8485 39.1421C46.0596 39.2477 46.218 39.2477 46.2707 39.3005C46.3235 39.3533 46.2707 39.5644 46.218 39.6172C46.1124 39.67 45.9013 39.67 45.8485 39.5644C45.7429 39.5644 45.7957 39.3533 45.8485 39.1421ZM46.3763 45.1594C46.3235 45.1594 46.1652 45.1066 46.1124 45.0538C46.0068 44.7371 45.954 44.4732 45.8485 44.1565C45.8485 44.1038 45.954 43.9454 46.0068 43.9454C46.1124 43.9454 46.2707 43.9982 46.3235 44.051C46.4291 44.2093 46.4291 44.3677 46.5347 44.526C46.5347 44.6316 46.5874 44.7899 46.5874 44.9483C46.5874 45.0539 46.4819 45.1066 46.3763 45.1594ZM46.4819 41.9924C46.3235 42.0452 46.0596 41.9924 46.0068 41.8869C45.9013 41.6757 45.8485 41.4118 45.7957 41.1479C46.0596 41.2535 46.2707 41.3062 46.6402 41.4646C46.5347 41.6757 46.5347 41.9396 46.4819 41.9924ZM46.1124 30.2218C46.1652 30.0106 46.218 29.8523 46.218 29.7467C46.4291 29.5884 46.5347 29.5356 46.6402 29.4828C46.9569 29.3772 47.1153 29.5884 47.1681 29.8523C47.1681 29.9051 47.0097 30.0634 46.9041 30.169C46.8514 30.2218 46.7458 30.2218 46.6402 30.2745C46.4291 30.2218 46.2707 30.2218 46.1124 30.2218ZM47.907 40.7784C47.8015 40.7784 47.6431 40.7784 47.5375 40.6728C47.4848 40.6201 47.5375 40.4617 47.5903 40.3034C47.7487 40.4089 47.907 40.4089 48.0126 40.5145C48.0126 40.5145 47.9598 40.7784 47.907 40.7784ZM48.5932 34.8139C48.0654 35.0778 47.4848 35.1834 46.9569 35.2889C46.9041 35.2889 46.7458 34.8667 46.7458 34.6555C46.7458 34.4972 46.9041 34.2861 47.0097 34.2333C47.2208 34.1277 47.4848 34.0749 47.6959 34.0221V33.9694C48.0126 33.9166 48.3293 33.8638 48.646 33.811C48.6988 33.811 48.8571 33.9694 48.8571 34.0221C48.7516 34.2861 48.7516 34.7611 48.5932 34.8139ZM49.2794 30.9607C49.1738 31.0135 49.0683 30.9079 48.8571 30.8552C48.9627 30.6968 49.0683 30.5385 49.121 30.4857C49.2266 30.4857 49.3322 30.5912 49.4377 30.644C49.3849 30.7496 49.3322 30.9079 49.2794 30.9607ZM49.385 29.1661C49.4377 29.0605 49.4377 28.955 49.4905 28.8494C49.5433 28.7966 49.6489 28.8494 49.8072 28.8494C49.7544 29.0077 49.7017 29.1133 49.6489 29.1661C49.5961 29.1661 49.4905 29.1661 49.385 29.1661ZM50.0183 34.6028C49.9656 34.6555 49.86 34.4972 49.6489 34.4444C49.8072 34.2861 49.9128 34.1277 50.0711 34.0749C50.1239 34.0749 50.2823 34.2333 50.3351 34.2861C50.2295 34.3916 50.1239 34.55 50.0183 34.6028ZM50.6517 35.6056C50.4934 35.3945 50.3878 35.0778 50.2295 34.8139C50.335 34.7611 50.4934 34.7083 50.5462 34.7083C50.8101 35.025 51.3907 34.3916 51.4963 34.9722C51.5491 35.0778 51.2852 35.2889 51.1268 35.5001C51.0212 35.5529 50.7573 35.7112 50.6517 35.6056ZM51.7074 38.6143C51.6546 38.6671 51.5491 38.6671 51.2851 38.7726C51.1796 38.7199 50.9157 38.6671 50.8629 38.5615C50.7573 38.2448 51.074 38.2448 51.2851 38.192C51.3379 38.192 51.4435 38.1392 51.4963 38.1392C51.6546 38.192 51.7602 38.2448 51.9185 38.2976C51.8658 38.4032 51.7602 38.5615 51.7074 38.6143ZM52.7631 33.7582C52.7103 33.9694 51.9185 34.2861 51.7074 34.1277C51.5491 34.0221 51.4963 33.7582 51.3907 33.6527C51.3907 33.3888 51.3379 33.2304 51.3379 33.072C51.3379 32.8609 51.3907 32.6498 51.3907 32.4387C51.5491 32.5442 51.7074 32.7026 51.8658 32.7553C51.9713 32.8081 52.0769 32.8081 52.2352 32.8609C52.6047 32.9137 52.8686 33.4415 52.7631 33.7582ZM53.2381 31.1719C53.1326 31.2246 52.9742 31.2246 52.8686 31.2246C52.8686 31.1191 52.8159 30.9079 52.8686 30.8552C52.9214 30.8024 53.1326 30.8024 53.2909 30.8024C53.2381 30.9607 53.2909 31.1191 53.2381 31.1719ZM56.4579 28.9022C56.4579 29.0605 56.5107 29.1661 56.5107 29.2717C56.4051 29.2717 56.2468 29.2717 56.194 29.2189C56.1412 29.1133 56.1412 28.955 56.0884 28.8494C56.2468 28.9022 56.3523 28.9022 56.4579 28.9022ZM55.6662 32.7026C56.5635 33.6527 56.5107 33.7582 55.3495 34.4972C54.98 34.7083 54.7161 35.0778 54.3994 35.3417C54.241 35.4473 54.0299 35.5529 53.8715 35.5001C53.6076 35.3945 53.7132 35.1834 53.766 34.9195C53.8187 34.3916 53.8715 33.9694 54.3466 33.6527C54.3994 33.6527 54.3994 33.5999 54.3994 33.5471C54.2938 33.5999 54.241 33.5999 54.1354 33.6527C54.0299 33.6527 53.9243 33.7582 53.766 33.7582C53.6604 33.7582 53.4493 33.7054 53.3965 33.5999C53.3437 33.4943 53.3437 33.336 53.3965 33.1776C53.502 32.9665 53.6076 32.7554 53.766 32.597C53.8715 32.4914 54.0299 32.3859 54.1354 32.3331C54.241 32.3331 54.2938 32.3331 54.3994 32.2803C54.4521 32.1747 54.5049 32.0164 54.6105 31.9636C54.6633 31.9108 54.9272 31.9636 54.98 32.0692C55.0328 32.122 55.0855 32.1747 55.1383 32.2275C55.455 32.1747 55.5606 32.2803 55.6662 32.7026ZM55.2967 29.2189C55.3495 29.2717 55.2439 29.3772 55.1911 29.5356C55.0855 29.43 54.98 29.3772 54.98 29.2717C54.98 29.2189 55.0328 29.1133 55.0855 29.0077C55.1383 29.0605 55.2967 29.1133 55.2967 29.2189Z" fill="#FEFEFE"/>
<path d="M50.7572 53.5522L50.335 51.2297C50.2294 51.2825 50.1238 51.2825 50.0183 51.3353C49.9655 51.3353 49.9127 51.3881 49.8071 51.3881C49.8599 51.4409 49.8599 51.4937 49.9127 51.4937C50.1766 51.9687 50.7044 52.3382 50.4405 53.0244C50.3877 53.1827 50.5461 53.3938 50.7572 53.5522Z" fill="#FEFEFE"/>
<path d="M46.9035 49.9093C46.7981 49.7512 46.6928 49.6459 46.5874 49.5405C46.6401 49.7512 46.7454 49.8566 46.9035 49.9093Z" fill="#FEFEFE"/>
<path d="M58.2524 32.9663L58.7803 32.4385C58.7275 32.4385 58.6747 32.4385 58.6219 32.4913C58.358 32.4913 58.358 32.808 58.2524 32.9663Z" fill="#FEFEFE"/>
</svg>
