<svg width="31" height="30" viewBox="0 0 31 30" fill="none" xmlns="http://www.w3.org/2000/svg">
<path d="M27.5 14.7252C27.3166 14.8163 27.1332 14.8163 26.9498 14.9074C27.1332 14.9984 27.2249 15.1806 27.4083 15.2716L27.3166 15.3627L12.9192 23.65C12.7358 23.7411 12.6441 23.7411 12.4607 23.8322C12.369 23.9232 12.2773 23.9232 12.1856 24.0143L11.5437 24.3786C11.452 24.3786 11.3603 24.2875 11.2686 24.1965C10.9017 23.9232 10.1681 24.1054 9.98472 24.4697L9.89301 24.5607C9.98471 24.8339 9.89301 25.1072 9.80131 25.3804L7.14192 26.9285C6.86681 27.1107 6.5 26.9285 6.5 26.5643V26.2911C6.68341 26.2 6.77511 26.0179 6.6834 25.8357C6.6834 25.5625 6.77511 25.4714 6.95852 25.4714C7.14192 25.4714 7.23362 25.3804 7.32533 25.1982C7.50873 25.2893 7.69214 25.2893 7.96725 25.3804C8.05895 25.3804 8.15066 25.2893 8.24236 25.1982C8.15066 25.1072 8.15065 25.0161 8.05895 25.0161C7.87555 24.925 7.69214 24.925 7.50873 24.8339C7.50873 24.6518 7.60044 24.5607 7.60044 24.3786C7.60044 24.3786 7.60044 24.2875 7.69214 24.2875C8.24236 24.2875 7.23362 23.2858 8.15065 23.559C8.42576 23.2858 8.70087 22.9215 9.06769 22.6483C9.5262 22.1929 9.98471 21.7376 10.3515 21.1912C10.6266 20.9179 10.9017 20.6447 10.7183 20.1894C10.7183 20.0983 10.7183 20.0073 10.81 19.9162C11.1769 19.5519 11.452 19.0966 11.8188 18.7323C11.9105 18.5501 12.0939 18.4591 12.369 18.5501C12.7358 18.6412 13.286 18.0037 13.1943 17.5484C13.1026 17.093 13.1943 17.093 13.5611 17.093C13.9279 17.093 14.0197 16.9109 14.1114 16.7287C14.2031 16.6377 14.0197 16.4555 14.0197 16.2734C14.0197 16.1823 13.9279 16.1823 13.9279 16.1823C13.4694 15.727 13.286 15.727 12.9192 16.1823C12.8275 16.3645 12.6441 16.4555 12.5524 16.6377C12.369 16.8198 12.2773 17.002 12.0939 17.1841C12.0022 17.2752 11.9105 17.4573 12.0022 17.4573C12.2773 17.9127 11.9105 18.0948 11.7271 18.368C11.6354 18.4591 11.6354 18.5501 11.5437 18.5501C11.2686 18.9144 10.9935 19.0055 10.6266 18.8233C10.2598 18.6412 10.2598 18.7323 10.3515 19.0055C10.3515 19.2787 10.1681 19.5519 10.4432 19.8251C10.4432 19.9162 10.2598 20.1894 10.0764 20.2805C9.98472 20.3715 9.80131 20.2805 9.70961 20.1894C9.5262 20.0983 9.34279 19.9162 9.15939 19.734C9.06769 19.643 8.88428 19.734 8.79258 19.643C8.79258 19.734 8.79258 20.0073 8.88428 20.0073C9.4345 20.1894 9.15939 20.6447 9.34279 21.009C9.4345 21.1912 9.25109 21.2822 9.06769 21.2822C8.79258 21.1912 8.60917 21.3733 8.51747 21.5554C8.05895 22.1019 7.60044 22.7393 7.05022 23.2858C6.95852 23.3768 6.86681 23.4679 6.77511 23.559V21.1912C6.77511 21.1912 6.77511 21.1912 6.77511 21.1001C6.86681 21.009 6.77511 20.9179 6.77511 20.7358V6.89323C6.86681 6.80216 6.86681 6.71109 6.95852 6.62002C7.14192 6.62002 7.23362 6.43788 7.32533 6.16467C7.32533 6.0736 7.32533 5.98253 7.32533 5.98253C7.41703 5.98253 7.50873 5.98253 7.50873 5.98253C7.87555 5.61825 8.24236 5.25397 8.51747 4.79863C8.51747 4.79863 8.51747 4.61649 8.42576 4.52542C8.33406 4.52542 8.24236 4.43435 8.15065 4.52542C8.05895 4.61649 7.96725 4.70756 7.87555 4.70756C7.69214 4.88969 7.60044 4.88969 7.32533 4.98076C7.05022 5.07183 6.86681 5.1629 6.6834 5.34504V3.88793C6.6834 3.88793 6.6834 3.88793 6.77511 3.88793C7.14192 3.979 7.23362 3.979 7.32533 3.61472C7.41703 3.25044 7.41703 3.15937 7.05022 3.0683C6.95852 3.0683 6.95852 3.0683 6.86681 3.0683C6.86681 2.97723 7.05022 2.97723 7.23362 3.0683L8.24236 3.61472C8.15066 3.79686 8.24236 3.88793 8.42576 4.07007C8.70087 4.25221 8.79258 4.16114 8.97598 4.07007L16.3122 8.25927C16.2205 8.25927 16.2205 8.25927 16.1288 8.25927C16.0371 8.25927 15.9454 8.35034 15.8537 8.35034C15.9454 8.44141 15.9454 8.53248 16.0371 8.62355C16.2205 8.71462 16.4039 8.71462 16.5873 8.80569C16.8624 8.89676 17.0459 8.89676 17.0459 9.16997C17.0459 9.35211 17.5961 9.53425 17.6878 9.44318C17.7795 9.35211 17.7795 9.26104 17.8712 9.16997L27.4083 14.6341L27.5 14.7252ZM12.0939 22.7393C12.0939 22.8304 12.0939 22.9215 12.0939 23.0126C12.1856 23.0126 12.369 23.0126 12.369 22.9215C12.4607 22.9215 12.369 22.7393 12.369 22.5572C12.2773 22.6483 12.1856 22.7393 12.0939 22.7393ZM13.286 21.5554C13.1026 21.4644 12.9192 21.1912 12.7358 21.4644C12.6441 21.5554 12.8275 21.8286 12.9192 22.0108C13.1026 22.0108 13.1943 22.0108 13.286 21.9197C13.4694 21.7376 13.4694 21.5554 13.286 21.5554ZM9.70961 17.2752C9.80131 17.2752 9.89301 17.2752 9.98472 17.1841C9.98472 17.1841 9.98472 17.002 9.98472 16.9109C9.89301 16.9109 9.70961 16.9109 9.70961 16.9109C9.70961 17.002 9.70961 17.1841 9.70961 17.2752ZM7.23362 16.0913C7.05022 16.1823 7.05022 16.3645 7.23362 16.4555C7.41703 16.6377 7.60044 16.4555 7.78384 16.1823C7.78384 16.0913 7.78384 16.0002 7.78384 15.8181C7.60044 16.0002 7.41703 16.0002 7.23362 16.0913ZM7.60044 12.0842C7.50873 12.1753 7.50873 12.1753 7.41703 12.2663C7.41703 12.4485 7.32533 12.5395 7.32533 12.7217C7.41703 12.7217 7.60044 12.6306 7.69214 12.6306C7.87555 12.5395 7.96725 12.4485 8.15065 12.4485C8.24236 12.4485 8.33406 12.3574 8.51747 12.3574C8.51747 12.2663 8.42576 12.0842 8.42576 12.0842C8.15066 11.811 7.96725 11.811 7.60044 12.0842ZM8.79258 5.98253C8.70087 6.0736 8.60917 6.0736 8.51747 6.16467C8.33406 6.16467 8.24236 6.71109 8.24236 6.80216C8.33406 6.89323 8.33406 6.9843 8.42576 7.16644C8.51747 7.07537 8.60917 6.9843 8.70087 6.80216C8.70087 6.71109 8.70087 6.71109 8.79258 6.52895C8.79258 6.52895 8.79258 6.43788 8.79258 6.34681C8.88428 6.16467 8.79258 6.0736 8.79258 5.98253ZM8.79258 14.7252C8.70087 14.6341 8.51747 14.7252 8.24236 14.7252C8.24236 14.9984 8.15066 15.2716 8.24236 15.2716C8.51747 15.4538 8.60917 15.1806 8.79258 15.0895C8.88428 15.0895 8.97598 14.9074 8.79258 14.7252ZM8.79258 17.9127C8.79258 18.0948 8.70087 18.2769 8.70087 18.368C8.88428 18.5501 9.06769 18.6412 9.25109 18.7323C9.34279 18.6412 9.4345 18.5501 9.4345 18.4591C9.4345 18.368 9.34279 18.1859 9.25109 18.0948C9.25109 18.0037 9.15939 17.8216 9.15939 17.7305C9.06769 17.7305 8.97598 17.8216 8.79258 17.9127ZM10.0764 6.71109C9.80131 6.62002 9.5262 6.62002 9.34279 6.62002L9.25109 6.71109C9.4345 6.9843 9.5262 7.25751 9.80131 7.43964C10.0764 7.62178 10.0764 7.25751 10.1681 6.9843C10.1681 6.9843 10.1681 6.71109 10.0764 6.71109ZM10.9935 17.5484C10.9935 17.4573 10.9935 17.3662 10.9935 17.3662C10.9935 17.3662 10.81 17.2752 10.81 17.3662C10.81 17.4573 10.81 17.5484 10.7183 17.5484C10.81 17.4573 10.81 17.4573 10.9935 17.5484ZM10.5349 16.1823C10.6266 16.1823 10.7183 16.2734 10.81 16.1823C10.9017 16.1823 10.81 16.0002 10.81 15.8181C10.6266 15.9091 10.5349 15.9091 10.5349 15.9091C10.5349 16.0002 10.5349 16.1823 10.5349 16.1823ZM11.2686 6.9843C11.0852 6.89323 10.9934 6.89323 10.81 6.89323C10.7183 6.89323 10.6266 6.9843 10.5349 6.9843C10.6266 7.07537 10.6266 7.16644 10.7183 7.2575C10.7183 7.2575 10.81 7.25751 11.0852 7.34858H11.1769C11.2686 7.34858 11.3603 7.2575 11.452 7.16644C11.452 7.16644 11.3603 7.07537 11.2686 6.9843ZM12.0939 10.7182C12.1856 10.7182 12.2773 10.7182 12.369 10.7182C12.369 10.7182 12.369 10.536 12.369 10.4449C12.1856 10.4449 12.0939 10.4449 12.0022 10.536L12.0939 10.7182ZM12.4607 7.71285C12.369 7.80392 12.2773 7.80392 12.2773 7.89499C12.2773 7.98606 12.369 8.07713 12.4607 8.1682C12.5524 8.07713 12.6441 7.98606 12.6441 7.89499C12.6441 7.89499 12.5524 7.80392 12.4607 7.71285ZM14.7533 21.5554C15.2118 21.9197 15.2118 21.9197 15.4869 21.6465C15.762 21.3733 15.9454 21.009 16.4039 21.1001C16.4039 21.1001 16.5873 20.918 16.4956 20.8269C16.4039 20.5537 16.0371 20.2805 16.0371 19.9162C16.0371 19.9162 15.8537 19.8251 15.762 19.9162C15.3035 20.0983 15.1201 20.4626 15.1201 20.918C15.1201 21.1001 15.1201 21.2822 14.845 21.2822C14.6616 21.2822 14.4782 21.1912 14.3865 21.3733C14.5699 21.3733 14.7533 21.5554 14.7533 21.5554ZM15.8537 19.0966C15.8537 19.0966 15.8537 19.0055 15.762 18.8233C15.6703 18.9144 15.5786 19.0055 15.5786 19.0966C15.5786 19.0966 15.6703 19.1876 15.6703 19.2787C15.762 19.1876 15.8537 19.1876 15.8537 19.0966ZM13.286 9.26104C13.3777 9.26104 13.4694 9.26104 13.5611 9.26104C13.5611 9.16997 13.6528 9.0789 13.5611 8.98783C13.4694 8.89676 13.3777 8.89676 13.286 8.89676C13.1943 8.89676 13.1943 8.89676 13.1026 8.98783C13.1943 9.16997 13.1943 9.26104 13.286 9.26104ZM14.3865 7.71285C14.2948 7.71285 14.2031 7.62178 14.0197 7.62178C13.9279 7.62178 13.7445 7.53071 13.5611 7.53071C13.4694 7.53071 13.3777 7.62178 13.3777 7.62178C13.3777 7.71285 13.3777 7.80392 13.4694 7.89499C13.5611 7.98606 13.6528 8.07713 13.6528 8.1682C13.6528 8.35034 13.6528 8.62355 13.9279 8.62355C14.2031 8.62355 14.4782 8.62355 14.6616 8.25927C14.6616 7.98606 14.6616 7.80392 14.3865 7.71285ZM15.2118 7.98606C15.0284 7.98606 14.9367 8.07713 14.9367 8.25927C14.9367 8.44141 14.9367 8.62355 15.0284 8.80569C15.1201 8.80569 15.1201 8.80569 15.2118 8.80569C15.3035 8.62355 15.4869 8.44141 15.4869 8.25927C15.5786 8.07713 15.3952 8.07713 15.2118 7.98606ZM17.5044 11.7199C17.4127 11.7199 17.2293 11.811 17.1376 11.811C16.9541 11.9021 16.8624 12.1753 16.7707 12.2663C16.679 12.3574 16.4956 12.3574 16.4039 12.3574C16.0371 12.3574 15.5786 12.7217 15.762 13.086C15.8537 13.3592 15.8537 13.4502 15.6703 13.6324C15.3952 13.8145 15.3035 14.1788 14.9367 14.1788C14.4782 14.1788 14.2948 14.452 14.3865 14.9074C14.3865 14.9984 14.3865 15.1806 14.3865 15.1806C14.2031 15.4538 14.2948 15.5448 14.4782 15.727C14.845 16.0002 14.845 16.0002 15.1201 15.6359C15.2118 15.5448 15.3035 15.4538 15.3952 15.2716C15.5786 15.0895 15.762 14.9074 15.8537 14.7252C15.9454 14.5431 15.8537 14.2699 15.9454 14.0877C16.0371 13.9967 16.4039 14.0877 16.4956 13.9967C16.679 13.8145 17.0459 13.6324 16.7707 13.2681C16.679 13.177 16.7707 12.9949 16.8624 12.9038C17.0459 12.6306 17.321 12.3574 17.5044 12.0842C17.5044 11.9931 17.4127 11.811 17.5044 11.7199ZM17.5044 18.6412C17.4127 18.6412 17.2293 18.7323 17.1376 18.6412C16.9541 18.5501 16.8624 18.5501 16.7707 18.7323C16.7707 18.8233 16.8624 18.9144 16.8624 19.0966C16.8624 19.0966 16.9541 19.1876 17.0459 19.2787C17.0459 19.2787 17.321 19.3698 17.4127 19.3698C17.5961 19.1876 17.5961 19.0055 17.6878 18.8233C17.6878 18.7323 17.5961 18.6412 17.5044 18.6412ZM18.238 16.0913C18.238 16.0913 18.3297 16.1823 18.4214 16.0913C18.5131 16.0913 18.5131 16.0002 18.6048 16.0002C18.6048 15.9091 18.6048 15.9091 18.5131 15.8181C18.4214 15.6359 18.3297 15.4538 18.238 15.3627C18.1463 15.2716 18.0546 15.2716 17.9629 15.2716C17.9629 15.3627 17.8712 15.4538 17.8712 15.5448C18.0546 15.727 18.1463 15.9091 18.238 16.0913ZM18.9716 9.98959C18.8799 9.98959 18.6965 9.89852 18.6965 9.98959C18.6048 10.0807 18.4214 10.2628 18.3297 10.4449C18.1463 10.6271 18.0546 10.8092 17.8712 10.9914C17.8712 11.0824 17.8712 11.1735 17.8712 11.2646C17.9629 11.2646 18.0546 11.2646 18.1463 11.2646C18.4214 10.9003 18.7882 10.6271 19.0633 10.2628C19.0633 10.1717 19.0633 9.98959 18.9716 9.98959ZM20.4389 15.3627C20.3472 15.3627 20.2555 15.4538 20.0721 15.4538C20.0721 15.5448 20.0721 15.727 20.1638 15.727C20.2555 15.727 20.4389 15.727 20.4389 15.6359C20.5306 15.5448 20.5306 15.4538 20.5306 15.3627C20.6223 15.3627 20.5306 15.3627 20.4389 15.3627ZM22.548 12.8128C22.3646 12.7217 22.1812 12.7217 22.0895 12.7217C22.0895 12.8128 22.0895 12.9949 21.9978 13.086C21.9978 13.086 21.9978 13.086 21.9978 13.177C21.9061 13.3592 21.8144 13.7234 22.1812 13.7234C22.3646 13.7234 22.548 13.4502 22.6397 13.2681C22.6397 13.086 22.548 12.9038 22.548 12.8128ZM26.3079 14.6341C26.2162 14.6341 26.2162 14.7252 26.1245 14.7252C26.1245 14.8163 26.2162 14.9074 26.2162 14.9074C26.3079 14.9074 26.3996 14.9074 26.4913 14.9074C26.3996 14.7252 26.3996 14.6341 26.3079 14.6341Z" fill="#D76700"/>
</svg>
