<svg width="70" height="70" viewBox="0 0 70 70" fill="none" xmlns="http://www.w3.org/2000/svg">
<path d="M38.9159 49.4792C38.8322 49.3962 38.7065 49.3132 38.7065 49.2303C38.7065 48.8984 38.539 48.7739 38.3296 48.6909C38.3715 48.7739 38.4134 48.8569 38.4134 48.9398C38.4134 49.3132 38.6646 49.5622 38.9997 49.5622C38.9578 49.5622 38.9159 49.5207 38.9159 49.4792Z" fill="#D76700"/>
<path d="M24.1733 58.0674C24.299 58.1504 24.3828 58.2333 24.4665 58.2748C24.4246 58.1504 24.3409 58.0674 24.1733 58.0674Z" fill="#D76700"/>
<path d="M37.8689 48.1103C37.6176 48.0273 37.3663 47.9443 37.115 47.8613C37.1569 47.9028 37.1569 47.9858 37.1569 48.0273C37.1988 48.5251 37.1988 48.5251 37.6595 48.4422C37.7432 48.4422 37.7851 48.4422 37.8689 48.4422C37.827 48.3177 37.827 48.1932 37.8689 48.1103Z" fill="#D76700"/>
<path d="M14.708 6.20744C14.6242 6.58083 14.4986 6.66381 14.1635 6.58083C14.0379 6.53934 13.9541 6.45637 13.8704 6.37339C13.7866 6.37339 13.7028 6.41488 13.6191 6.41488C13.4934 6.41488 13.4096 6.29041 13.3678 6.29041C13.3259 6.16595 13.284 6.16595 13.2421 6.12446C13.2421 6.08298 13.2002 6.08298 13.2002 6.04149H12.7395C12.7395 6.20744 12.7395 6.37339 12.6558 6.49785V9.402H12.9489C12.8233 9.31903 12.6558 9.19456 12.6976 9.0701C12.7395 8.86266 12.9071 8.65522 13.0327 8.44778C13.0327 8.44778 13.0746 8.44778 13.0746 8.40629C13.284 8.28183 13.4515 8.15737 13.6609 8.07439C13.7028 8.36481 13.7866 8.61373 13.8285 8.90415C13.8285 8.94564 13.7866 9.02861 13.7866 9.19456C13.7866 9.23605 13.7447 9.31903 13.7028 9.402H15.7551C15.7551 9.36052 15.7551 9.31903 15.7551 9.27754C15.7551 9.11159 15.8807 8.94564 16.0482 9.02861C16.1739 9.11159 16.1739 9.27754 16.2577 9.44349C16.1739 9.52647 16.132 9.56795 16.132 9.60944C16.1739 10.5222 16.2577 11.3934 16.3414 12.2647C16.5089 12.3891 16.6346 12.5136 16.8021 12.6795C16.844 12.721 16.7602 12.97 16.7184 13.1359C16.8859 13.2604 17.0534 13.3848 17.2209 13.5093C17.3466 13.5923 17.5141 13.6752 17.5979 13.6338C18.0586 13.3848 18.3518 13.7582 18.6449 13.9242C18.8962 14.0486 19.2313 14.3391 19.2313 14.505C19.1894 15.0443 19.357 15.1273 19.8595 15.0029C20.069 14.9614 20.3621 15.2518 20.4459 15.5837C20.4459 15.6667 20.5297 15.7496 20.6134 15.8326C20.069 14.0072 19.692 11.9328 19.6082 9.48498H23.4195C23.4195 9.44349 23.4195 9.44349 23.4195 9.44349C23.5452 9.36051 23.6708 9.31903 23.8384 9.27754C23.8384 9.31903 23.8384 9.36051 23.8384 9.44349H30.2045C30.3301 9.31903 30.4558 9.19456 30.5814 9.0701C30.749 8.86266 30.8746 8.65522 30.6652 8.40629C30.4977 8.15737 30.6652 8.0329 30.8746 7.86695C31.0421 7.74249 31.2097 7.65951 31.4191 7.82546C31.5866 7.94993 31.7541 8.11588 31.6285 8.36481C31.5029 8.57225 31.3772 8.7382 31.2516 8.90415C31.084 9.0701 31.084 9.19456 31.1678 9.402V9.44349H33.3457C33.3038 9.402 33.3038 9.402 33.2619 9.36051C33.22 9.31903 33.3457 9.11159 33.3457 9.11159C33.597 9.15308 33.8483 9.19456 34.0996 9.27754C34.0996 9.27754 34.1414 9.36051 34.1414 9.44349H42.3923C42.3504 9.402 42.3504 9.36051 42.3085 9.31903C41.9735 8.94564 42.141 8.15737 42.5598 7.90844C42.8111 7.78398 42.8949 7.65951 42.6436 7.41059C42.5598 7.32761 42.5179 7.28612 42.476 7.20315C42.2666 6.82976 42.2666 6.87124 41.9316 7.12017C41.8478 7.16166 41.6803 7.24464 41.6384 7.20315C41.5546 7.16166 41.4709 7.0372 41.4709 6.91273C41.3033 6.45637 41.5546 6.24893 42.0153 6.29041C42.476 6.3319 42.5179 6.37339 42.6436 6.04149H38.4553C38.581 6.12446 38.581 6.29041 38.5391 6.45637C38.5391 6.53934 38.4972 6.62232 38.4553 6.70529C38.4135 6.91273 38.2878 7.07868 38.0784 6.95422C37.9946 6.91273 37.9109 6.70529 37.869 6.58083C37.8271 6.49785 37.869 6.41488 37.9109 6.3319C37.9527 6.20744 37.9527 6.08298 38.0365 6H36.6963C36.6963 6.04149 36.6963 6.08298 36.6963 6.08298C36.5287 6.20744 36.3612 6.29041 36.2356 6.3319C36.1518 6.3319 35.9843 6.12446 35.9843 6.08298C35.9843 6.04149 36.0262 6 36.0262 6H31.084C30.9165 6.08298 30.749 6.16595 30.7071 6.41488C30.6233 6.82976 30.4139 6.87124 29.9951 6.87124C29.7438 6.82976 29.5763 6.70529 29.6181 6.45637C29.6181 6.37339 29.66 6.24893 29.66 6.16595C29.66 6.12446 29.66 6.08298 29.7019 6.04149H26.0163C26.1419 6.12446 26.2675 6.20744 26.3932 6.3319C26.5188 6.45637 26.812 6.58083 26.6445 6.82976C26.5188 7.07868 26.4351 7.3691 25.9744 7.24464C25.7231 7.16166 25.4299 7.45207 25.1367 7.16166C24.8017 6.91273 24.676 6.41488 24.8017 6.04149H16.844C16.8021 6.08298 16.7184 6.16595 16.6765 6.20744C16.6346 6.16595 16.5927 6.08298 16.5508 6.04149H14.7499C14.7499 6.08298 14.708 6.16595 14.708 6.20744ZM40.1725 9.02861C40.2144 9.02861 40.2563 9.11159 40.2982 9.19456C40.2144 9.23605 40.1725 9.27754 40.0469 9.36051C40.005 9.27754 39.9631 9.19456 39.9212 9.15308C40.0469 9.11159 40.0887 9.02861 40.1725 9.02861ZM37.9527 7.61803C37.9946 7.65951 38.0365 7.701 37.9946 7.74249C37.9946 7.78398 37.9109 7.82546 37.869 7.86695C37.8271 7.78398 37.7852 7.74249 37.7852 7.701C37.8271 7.701 37.9109 7.65951 37.9527 7.61803ZM37.6177 8.86266C37.7015 8.94564 37.7852 9.0701 37.869 9.19456C37.7433 9.27754 37.6177 9.36051 37.492 9.36051C37.4083 9.36051 37.3245 9.19456 37.1989 9.02861C37.4083 8.98712 37.5339 8.86266 37.6177 8.86266ZM29.2412 8.32332C29.2831 8.11588 29.4087 7.90844 29.4506 7.701C29.5763 7.32761 29.7019 7.28612 30.0788 7.41059C30.3301 7.45207 30.4139 7.57654 30.372 7.82546C30.3301 8.11588 30.2464 8.44778 30.2045 8.82117C30.2045 8.90415 30.2045 9.02861 30.1207 9.11159C30.0789 9.19456 29.9532 9.31903 29.8694 9.31903C29.7857 9.31903 29.66 9.23605 29.5763 9.15308C29.4506 9.02861 29.325 8.86266 29.2412 8.69671C29.2412 8.61373 29.1993 8.44778 29.2412 8.32332ZM28.5711 6.29041C28.613 6.29041 28.613 6.41488 28.6548 6.53934C28.5292 6.49785 28.4036 6.49785 28.3617 6.45637C28.3198 6.41488 28.3198 6.3319 28.3198 6.24893C28.4454 6.29041 28.5292 6.24893 28.5711 6.29041ZM27.3984 6.41488C27.4403 6.41488 27.4821 6.49785 27.6078 6.62232C27.4821 6.66381 27.3984 6.70529 27.3565 6.70529C27.3146 6.70529 27.2727 6.62232 27.189 6.53934C27.2727 6.49785 27.3146 6.41488 27.3984 6.41488ZM26.6864 7.53505C27.0633 6.99571 27.189 6.99571 27.6916 7.3691C27.8591 7.49356 28.0266 7.61803 28.1941 7.74249C28.4036 7.90844 28.6548 8.07439 28.8224 8.24034C28.948 8.32332 28.9899 8.44778 28.9899 8.53076C28.9899 8.61373 28.8224 8.65522 28.7386 8.65522C28.3198 8.69671 27.901 8.69671 27.4821 8.7382C27.1471 8.77969 26.4351 8.28183 26.477 7.99142C26.4351 7.86695 26.5607 7.65951 26.6864 7.53505ZM22.54 8.61373C22.54 8.53076 22.6657 8.44778 22.7494 8.40629C22.8751 8.36481 23.0007 8.40629 23.1264 8.40629C23.3358 8.44778 23.629 8.44778 23.5871 8.77969C23.5452 9.15308 23.252 8.98712 23.0007 8.98712C22.8751 8.94564 22.7075 8.94564 22.6238 8.86266C22.5819 8.82117 22.54 8.69671 22.54 8.61373ZM19.6082 6.3319C19.7758 6.12446 19.9433 6.24893 20.1108 6.37339C20.2784 6.49785 20.5297 6.62232 20.3202 6.87124C20.1527 7.16166 19.9852 6.95422 19.7758 6.87124C19.6501 6.70529 19.3988 6.62232 19.6082 6.3319ZM17.3466 8.7382C17.3885 8.77969 17.3885 8.90415 17.4304 8.98712C17.3466 8.98712 17.2628 9.02861 17.2209 9.02861C17.1791 8.98712 17.1372 8.90415 17.0534 8.77969C17.2209 8.7382 17.3466 8.69671 17.3466 8.7382Z" fill="#D76700"/>
<path d="M43.6487 6.70482C43.4393 6.74631 43.4812 6.87077 43.6068 6.99524C43.9838 7.4516 43.8162 8.23987 43.3137 8.57177C43.0205 8.73773 42.9367 9.1526 43.0624 9.44302H47.6275C47.6694 9.36004 47.837 9.31856 48.0045 9.23558C48.0045 9.31856 48.0045 9.40153 48.0045 9.44302H50.308C50.1405 12.6376 49.596 15.2098 48.7584 17.3672H47.3762C47.3344 17.4087 47.2925 17.4502 47.2087 17.5331C47.125 17.5746 46.9155 17.6576 46.9155 17.6991C46.9155 18.2384 46.3292 18.3214 46.1198 18.6948C45.9522 18.9852 45.6591 18.8193 45.4078 18.7778C45.2821 18.7363 45.1146 18.5703 45.1146 18.4874C45.1565 18.2384 45.2402 17.8651 45.4497 17.7821C45.701 17.6576 45.8266 17.5746 45.7847 17.4087H43.2718C43.2299 17.4917 43.188 17.5746 43.1042 17.6576C42.6435 18.031 42.8948 18.4459 42.8529 18.8608C42.8111 19.0267 44.1513 20.0639 44.3188 19.9809C44.6958 19.815 44.9052 19.815 44.8214 20.3128C44.7795 20.5203 45.2402 20.8937 45.4497 20.8107C45.5753 20.7692 45.7428 20.5203 45.8266 20.3128C45.7847 20.3128 45.701 20.3128 45.5753 20.2713C45.5334 20.2299 45.324 20.0639 45.324 19.9394C45.324 19.649 45.5753 19.649 45.8266 19.6905H45.8685C45.9104 19.649 46.036 19.649 46.2873 19.6075C47.0831 19.5246 47.3762 20.1469 47.8788 20.5203C48.0883 20.6862 47.7951 21.1011 47.46 21.1426C47.125 21.1841 46.7899 21.3085 46.4967 21.3915C46.3711 21.433 46.2873 21.5575 46.2035 21.6819C46.1617 21.7649 46.1198 21.9309 46.1617 21.9723C46.2035 22.0138 46.3711 22.0553 46.4548 22.0553C46.8737 21.9723 47.5019 22.2628 47.5857 22.6362C47.6275 22.8021 47.5438 23.0095 47.4181 23.1755C47.2506 23.4244 47.3344 23.5904 47.5438 23.7563C47.7113 23.5489 47.837 23.3829 48.0045 23.1755C47.837 23.0095 47.7532 22.7606 47.837 22.5117C47.9207 22.2628 48.0464 22.2213 48.4233 22.3043C48.9259 22.4287 48.9678 22.5117 48.8421 22.9266C48.8003 23.051 48.8003 23.1755 48.7584 23.3C48.8003 23.5489 48.9678 23.6733 49.1353 23.7978C49.261 23.6319 49.3866 23.4244 49.5123 23.2585C49.4704 23.1755 49.4704 23.0095 49.5123 22.8851C49.5541 22.6776 49.6379 22.4702 49.9311 22.4702C49.973 22.4702 50.0148 22.4702 50.0148 22.4702C50.5593 21.599 51.0619 20.6862 51.5645 19.649C51.7739 18.8608 51.9414 18.0725 52.1508 17.2842C52.2346 17.0353 52.3603 16.9938 52.5278 16.9938C52.6116 16.7034 52.6953 16.3715 52.821 16.0396C52.4859 15.9151 52.444 15.7907 52.5697 15.4173C52.6116 15.2928 52.7372 15.2098 52.821 15.1269C52.8628 15.2098 52.9466 15.2513 52.9885 15.3343C53.2817 14.0482 53.533 12.6376 53.6586 11.144C53.3236 11.0196 53.4492 10.7291 53.4492 10.3972C53.533 10.3558 53.6167 10.1898 53.7424 10.1898C53.7424 9.94087 53.7843 9.69195 53.7843 9.40153H54.245L54.3287 9.36004C54.3706 9.36004 54.4125 9.40153 54.4544 9.40153H57.2186V6.04102H55.292C55.3758 6.16548 55.4177 6.33143 55.3758 6.53887C55.3339 6.87077 55.292 7.28565 55.1245 7.57607C55.0407 7.70053 54.9151 7.82499 54.7894 7.90797C54.9151 8.03243 54.8732 8.19838 54.6638 8.44731C54.4544 8.73773 54.3287 8.73773 54.0356 8.53029C53.7005 8.23987 53.6586 8.11541 53.868 7.82499C53.9518 7.70053 54.0356 7.65904 54.1193 7.61755C54.1193 7.32714 54.1612 7.03672 54.1612 6.7878C54.1612 6.7878 54.1612 6.7878 54.2031 6.7878C54.245 6.62185 54.2869 6.49738 54.2869 6.33143C54.3287 6.20697 54.3287 6.12399 54.3706 6.0825H50.8525C50.7687 6.16548 50.685 6.20697 50.6012 6.24845C50.5593 6.28994 50.3918 6.28994 50.3499 6.24845C50.308 6.20697 50.308 6.16548 50.308 6.0825H48.2558C48.2558 6.12399 48.2558 6.16548 48.2558 6.20697C48.2139 6.41441 48.172 6.62185 48.172 6.87077C47.9207 6.7878 47.6275 6.70482 47.3762 6.58036C47.2506 6.37292 46.9993 6.24845 47.125 6.04102H44.1094C44.1094 6.12399 44.0675 6.20697 44.0675 6.28994C44.0675 6.53887 43.9419 6.66333 43.6487 6.70482ZM49.0097 20.5203C49.0097 20.3543 48.9678 20.2713 48.9678 20.1469C48.9678 20.1054 49.0934 20.0224 49.1353 20.0224C49.2191 20.0639 49.261 20.1469 49.3028 20.1884C49.3028 20.3128 49.2191 20.3543 49.0097 20.5203ZM49.596 18.031C49.5541 18.031 49.5123 18.031 49.4704 18.0725C49.3028 18.1555 49.2191 18.5703 48.9678 18.3214C48.8421 18.1555 48.884 17.8651 48.8003 17.5331C48.9678 17.3672 49.1353 17.1183 49.3028 17.0768C49.4704 17.0353 49.8054 17.0353 49.8892 17.3257C50.0148 17.5746 49.8473 17.948 49.596 18.031ZM51.9414 6.33143C52.1927 6.33143 52.4859 6.28994 52.7372 6.41441C52.9885 6.53887 53.3654 6.62185 53.1979 7.07821C53.156 7.20268 53.2398 7.41011 53.2817 7.57607C53.1979 7.61755 53.156 7.65904 53.1141 7.61755C52.8628 7.53458 52.6953 7.61755 52.5278 7.78351C52.4859 7.82499 52.3603 7.78351 52.2765 7.74202C52.2346 7.70053 52.1927 7.57607 52.2346 7.53458C52.4859 7.20268 52.2346 6.99524 51.9833 6.82928C51.8996 6.7878 51.7739 6.70482 51.7739 6.62185C51.8158 6.49738 51.8996 6.33143 51.9414 6.33143ZM50.7268 10.1483C50.8106 10.1898 50.8525 10.2728 50.8944 10.3558C50.8106 10.3972 50.685 10.4802 50.685 10.4802C50.6431 10.4387 50.5593 10.3558 50.5593 10.2728C50.5593 10.2313 50.685 10.1483 50.7268 10.1483ZM50.3499 12.1397C50.4337 12.1812 50.5174 12.3057 50.5174 12.3887C50.5174 12.4301 50.3918 12.5131 50.2661 12.5961C50.2243 12.4716 50.1405 12.3472 50.1405 12.2642C50.1405 12.2227 50.3499 12.0982 50.3499 12.1397ZM47.46 7.99094C47.6694 7.70053 47.8788 7.41011 48.1301 7.16119C48.172 7.1197 48.2977 7.16119 48.3814 7.16119C48.3814 7.49309 48.5908 7.70053 48.8421 7.86648C48.8421 7.86648 48.8421 7.94946 48.8421 8.03243C48.7584 8.03243 48.6746 8.07392 48.5908 8.11541C48.2558 8.11541 47.8788 7.94946 47.6275 8.23987C47.6275 8.23987 47.5019 8.23987 47.46 8.19838C47.46 8.11541 47.46 8.03243 47.46 7.99094ZM46.2035 6.45589C46.2454 6.41441 46.413 6.37292 46.4548 6.41441C46.4967 6.49738 46.5805 6.62185 46.5386 6.70482C46.4967 6.7878 46.3711 6.7878 46.2035 6.82928C46.2035 6.66333 46.1617 6.53887 46.2035 6.45589Z" fill="#D76700"/>
<path d="M47.5438 23.7566C47.3763 23.881 47.3344 24.1715 47.0412 24.047C46.7899 23.9225 46.4549 23.7566 46.4968 23.4247C46.5387 23.0513 46.3711 23.0098 46.0361 23.0513C45.9104 23.0513 45.8266 23.0513 45.7848 23.0098C45.7429 23.0928 45.6591 23.1757 45.5754 23.2172C45.3659 23.3832 44.8633 23.0928 44.7796 22.7609C44.7377 22.4705 44.6958 22.2215 44.4445 21.9726C44.3189 21.8481 44.4445 21.5162 44.4445 21.3088H44.4864C44.5283 21.1843 44.5283 21.0184 44.5702 20.8939C44.2351 20.562 43.7325 20.2301 43.6069 20.3131C42.853 20.6035 42.2666 20.3546 41.6803 19.9397C41.5128 19.8152 41.429 19.6908 41.5128 19.4418C41.5965 19.1514 41.4709 19.027 41.1777 19.0684C41.2196 19.2344 41.2615 19.4004 41.2196 19.5663C41.1777 20.1471 41.052 20.728 41.0102 21.2673C41.0102 21.5162 41.2196 21.7652 41.1777 21.9726C41.1358 22.0971 41.0102 22.2215 40.8845 22.3045C40.9683 22.346 41.0102 22.346 41.0939 22.3875C41.3033 22.6364 41.4709 22.8024 41.5965 23.0098C41.6384 23.0513 41.6384 23.2172 41.5965 23.2587C41.5128 23.3002 41.3871 23.3417 41.3033 23.3002C41.0939 23.1757 40.8845 23.0098 40.6332 23.0513C40.6332 23.1343 40.5913 23.2172 40.5913 23.3417C40.5495 23.5491 40.5495 23.7566 40.2982 23.7981C39.8793 23.7981 39.8793 24.13 39.8375 24.3789C39.7956 24.6278 39.7537 24.8767 39.6699 25.1257C39.7118 25.0842 39.7537 25.0427 39.7537 25.0012C39.8793 24.8767 40.005 24.7108 40.2144 24.8767C40.3819 25.0012 40.5076 25.2087 40.5913 25.4161C40.6751 25.5406 40.6751 25.7065 40.717 25.8725C40.717 25.9554 40.8008 26.0799 40.7589 26.1214C40.5076 26.5363 40.8845 26.6607 41.0939 26.8682C41.2615 27.0341 41.5965 27.0756 41.5128 27.4075C41.3033 27.3245 41.0939 27.2416 40.9264 27.1171C40.6751 26.9511 40.4657 26.7022 40.0888 26.9097C39.9631 26.9926 39.6699 26.7437 39.4186 26.6607C38.9579 26.4533 38.9998 25.9554 38.8323 25.6235C38.7485 25.4161 38.916 25.2087 39.0836 25.2916C39.1255 25.2916 39.1255 25.2916 39.1673 25.2916C39.0836 24.9597 38.9579 24.9597 38.6648 25.1672C38.5391 25.2501 38.4135 25.2916 38.2878 25.2916C38.0784 25.4576 37.9109 25.4576 37.7015 25.2501C37.5758 25.1672 37.492 24.9182 37.5339 24.8353C37.4502 24.7108 37.2826 24.6278 37.157 24.5448C36.9057 24.4204 36.8219 24.2959 36.8219 24.0885C36.7382 23.964 36.6544 23.7566 36.5706 23.6321C36.7382 23.6736 36.8638 23.6736 37.0313 23.7151C37.1151 23.6736 37.2407 23.7151 37.3664 23.7151C37.7433 23.7566 38.1622 23.7981 38.581 23.8396C38.9998 23.881 39.1255 23.4662 39.4605 23.3417C39.4605 23.3417 39.4605 23.1343 39.3768 23.0928C39.0836 22.9683 39.1673 22.7194 39.1255 22.4705C39.1255 22.2215 39.1673 22.0556 39.5024 22.0556C39.7537 22.0141 39.8793 21.8896 39.7956 21.6822C39.7956 21.7237 39.7956 21.7652 39.7537 21.8066C39.6699 21.8896 39.5443 21.8481 39.4186 21.8896C39.4186 21.7652 39.3349 21.5992 39.4186 21.5162C39.4605 21.4747 39.5443 21.4747 39.6699 21.4333C39.4605 21.1428 39.2092 20.8939 39.0417 20.5205C38.9998 20.479 38.9579 20.4375 38.916 20.3961C38.916 20.4375 38.916 20.479 38.9579 20.5205C38.9579 20.645 38.9579 20.728 38.9579 20.8524C39.0417 21.1428 38.9579 21.4333 38.7066 21.5577C38.4135 21.6822 38.1622 21.4747 38.0784 21.2673C37.9946 21.0599 38.1622 20.8109 38.204 20.562C38.2459 20.562 38.2459 20.562 38.2878 20.562C38.3716 20.479 38.4553 20.3961 38.5391 20.3131C38.581 20.3131 38.6229 20.2716 38.6229 20.2716C38.5391 20.2301 38.4553 20.2301 38.4135 20.1886C38.4135 20.1886 38.4135 20.2301 38.3716 20.2301C38.2878 20.2301 38.204 20.1886 38.1203 20.1886C37.6596 20.1056 37.492 19.6908 37.8271 19.3174C37.9946 19.1099 38.581 19.2344 38.7066 19.5248C38.7904 19.7737 38.9579 19.8567 39.1673 19.8982C39.5024 19.9812 39.6699 19.8982 39.7537 19.5663C39.628 19.4833 39.5024 19.3589 39.4186 19.2344C39.4186 19.1929 39.628 18.9025 39.6699 18.944C39.7537 18.9855 39.8375 18.9855 39.8793 18.9855C39.9631 18.6536 40.0469 18.2802 40.1725 17.9483C40.0888 17.9483 39.9631 17.8653 39.8793 17.8238C39.7118 17.7408 39.5443 17.6579 39.3768 17.5749C39.2511 17.5334 39.0836 17.4504 38.9579 17.4504C38.7485 17.4919 38.6229 17.4504 38.4972 17.326H34.309C34.4346 17.4919 34.5603 17.6164 34.7278 17.7823C34.6859 17.8238 34.6022 17.8653 34.5603 17.8653C34.4346 17.8238 34.3509 17.7408 34.2671 17.6994C34.2252 17.6164 34.0996 17.5334 34.0996 17.4919C34.0996 17.4089 34.1414 17.3674 34.1833 17.326H25.765C25.765 17.4089 25.765 17.4504 25.765 17.4919C25.7231 17.5749 25.5137 17.6164 25.4299 17.6164C25.1786 17.5749 25.0111 17.4919 24.9692 17.326H23.252L23.2939 17.3674C23.4614 17.5334 23.629 17.7408 23.7127 17.9483C23.8384 18.2387 23.629 18.5706 23.3358 18.6536C23.2101 18.6951 23.0426 18.7365 22.917 18.8195C22.3725 19.1929 22.3725 19.1929 21.8699 18.778C21.4092 18.4046 21.3673 18.4046 21.7024 17.9068C21.828 17.6994 21.828 17.5749 21.7024 17.4504C21.7442 17.5749 21.6605 17.6994 21.5348 17.7408C21.4092 17.7823 21.2417 17.8238 21.0741 17.8653C20.9904 17.9068 20.8647 17.9068 20.781 17.9483C20.781 17.8238 20.7391 17.7408 20.6972 17.5334C20.781 17.4504 20.8647 17.243 20.9904 17.243C21.0322 17.243 21.0741 17.243 21.116 17.243C21.0741 17.1185 21.0322 16.9941 20.9904 16.8696C20.9904 16.8696 20.9485 16.8696 20.9485 16.8281C20.6972 16.6622 20.5297 16.3717 20.1527 16.6207C19.9433 16.7866 19.7758 16.6622 19.7758 16.4132C19.7758 15.8324 19.5664 15.6664 18.98 15.7909C18.8544 15.8324 18.6868 15.7494 18.5612 15.6664C18.0586 15.2931 17.5141 14.9197 17.0115 14.5048C16.8859 14.4218 16.7602 14.2973 16.6346 14.2559C17.8492 20.562 20.781 24.2959 23.5871 27.0341C24.2991 27.7394 25.0111 28.3617 25.6393 28.9426C26.8539 30.0212 27.8172 30.934 28.4873 31.8052C28.5711 31.7637 28.6549 31.7637 28.6549 31.7637C28.948 32.1786 29.4087 32.1786 29.8276 32.2616C30.037 32.3031 30.5814 32.9254 30.4977 33.0913C30.4139 33.2158 30.1626 33.2988 30.037 33.3818C29.8276 33.2573 29.66 33.1743 29.6181 33.0913C29.5763 32.7594 29.4087 32.635 29.1993 32.5935C29.1993 32.635 29.1993 32.6765 29.1993 32.6765C29.1993 32.718 29.1574 32.718 29.1574 32.7594C29.4925 33.3403 29.66 33.9626 29.7019 34.6679C29.7438 34.6679 29.8276 34.7094 29.8694 34.7509C29.9951 34.7923 30.1207 34.8338 30.2883 34.8753C30.4977 34.9168 30.7071 34.9583 30.8746 34.7509C30.9584 34.6679 31.084 34.6679 31.2516 34.6679C30.9584 34.3775 30.6652 34.17 30.4139 33.9211C30.372 33.8796 30.372 33.7551 30.3301 33.6722C30.4139 33.6722 30.5396 33.6307 30.5814 33.6307C30.8746 33.7551 31.1678 33.9626 31.5029 33.8796C31.5447 33.7966 31.5447 33.7137 31.5866 33.7137C32.0473 33.6722 32.0892 33.2573 32.2149 32.9669C32.2567 32.9254 32.3824 32.8424 32.4662 32.8839C32.508 32.8839 32.5918 32.9669 32.6337 33.0499C32.7174 33.6307 32.6337 34.17 32.3824 34.6679C32.3405 34.7509 32.173 34.8338 32.0473 34.8338C31.9636 34.8338 31.9217 34.8338 31.8379 34.7923C31.8379 34.8338 31.796 34.9168 31.7123 34.9583C31.6285 34.9998 31.4191 34.8753 31.4191 34.8753C31.3772 34.8338 31.3353 34.8338 31.3353 34.7923C31.2934 34.9168 31.2934 35.0413 31.2516 35.1657C31.2097 35.3732 31.084 35.4562 30.8746 35.4562C30.5814 35.4562 30.2883 35.4147 30.0789 35.7466C29.9951 35.871 29.7857 35.871 29.66 35.7051C29.6181 36.0785 29.4925 36.4104 29.3669 36.7423C29.4087 36.7423 29.4506 36.7423 29.4925 36.7423C29.7857 36.7838 29.8694 36.9497 29.8276 37.2401C29.7857 37.821 29.2412 37.9454 28.9061 38.1943C28.6967 38.3188 28.4454 38.3603 28.236 38.4848C28.1523 38.6092 28.0266 38.6922 27.9428 38.8167C27.8591 39.0241 27.8591 39.273 27.7753 39.4805C27.7753 39.522 27.7753 39.5634 27.7753 39.6049C27.6497 39.8539 27.7753 40.2687 27.3565 40.2687C27.2308 40.2687 27.0633 40.0613 26.9377 39.8124C26.8539 39.8954 26.7701 39.9783 26.6864 40.0613C26.7283 40.0613 26.812 40.0198 26.8539 39.9783C26.8958 40.0613 27.0214 40.2273 27.0214 40.2687C26.9377 40.4762 26.812 40.6836 26.6864 40.8496C26.7283 40.8496 26.812 40.8081 26.812 40.8496C26.8958 40.8911 26.9377 41.0155 26.9377 41.0985C26.9377 41.14 26.9377 41.223 26.9377 41.2645C26.9796 41.1815 27.0633 41.0985 27.1052 41.0155C27.1471 40.9325 27.2308 40.8496 27.2727 40.8081C27.3984 40.7251 27.6078 40.5592 27.6916 40.6006C27.8591 40.7251 28.0266 40.8911 28.1523 41.0985C28.236 41.2644 28.2779 41.4719 28.236 41.6378C28.1941 41.8868 28.1104 42.1357 27.9847 42.3016C27.9428 42.3431 27.6916 42.3016 27.524 42.2187C27.3984 42.1772 27.3146 42.1357 27.2308 42.0527C27.0214 41.8868 26.8958 41.7623 26.8539 41.6793C26.7283 42.2602 26.6445 42.2602 26.0581 42.1357C25.9325 42.0942 25.765 42.0942 25.6393 42.0112C25.5137 41.9697 25.4299 41.8453 25.3461 41.7623C25.4299 41.6793 25.5137 41.6378 25.5974 41.5549C25.6393 41.5134 25.7231 41.4719 25.765 41.4304C25.6393 41.3889 25.5137 41.3059 25.388 41.1815C24.4666 42.0112 23.5033 42.924 22.54 43.9612C22.8332 44.1686 23.1264 44.3346 23.0007 44.7909C22.9588 44.9569 23.1683 45.0813 23.3777 44.9569C23.7127 44.7494 23.8384 44.8739 23.7546 45.2058C23.7127 45.4962 23.964 45.5792 24.0897 45.7451C24.2991 45.9941 24.2572 46.077 23.964 46.2015C23.7546 46.2845 23.5871 46.4504 23.4195 46.5749C23.1683 46.8238 23.0426 46.8238 22.7075 46.5749C22.4563 46.4089 22.2887 46.2015 22.54 45.9111C22.6238 45.8281 22.6238 45.7451 22.7075 45.6622C22.8332 45.4962 22.8332 45.3303 22.6657 45.2058C22.4981 45.0813 22.3306 44.8324 22.0374 45.0813C21.9955 45.1228 21.9955 45.1228 21.9537 45.1643C21.7024 45.3717 21.4511 45.4132 21.2417 45.3303C20.1946 46.6579 19.1894 48.1514 18.3518 49.9769C18.3518 49.9769 18.3518 50.0184 18.3937 50.0184H18.3518C18.1005 50.5162 17.8911 51.0556 17.6817 51.6364C17.7235 51.6364 17.7654 51.5949 17.8073 51.5949C18.3099 51.5949 18.4774 51.7609 18.3518 52.3417C18.3099 52.3832 18.2261 52.4662 18.1424 52.5906C18.0586 52.5077 17.9329 52.3832 17.8492 52.3002C17.7654 52.2172 17.6817 52.0928 17.5979 52.0098C17.5979 52.0098 17.5979 51.9683 17.556 51.9683C17.4304 52.3832 17.2628 52.7981 17.1372 53.2129C17.1791 53.2544 17.2209 53.2959 17.2628 53.3374C17.4304 53.5448 17.5979 53.6693 17.8911 53.5863C18.1005 53.5449 18.3937 53.6693 18.5612 53.7938C18.8125 53.9597 18.5612 54.1672 18.4774 54.3331C18.4355 54.4161 18.3937 54.4576 18.3518 54.5406C18.3518 54.6235 18.3518 54.7065 18.3518 54.7895C18.4355 54.7895 18.5612 54.7895 18.6449 54.748C18.7706 54.7065 18.8962 54.665 19.0219 54.6235C19.1894 54.3746 19.4407 54.1672 19.692 53.9597C19.9433 53.7938 20.4459 54.1672 20.4459 54.4991C20.4459 54.665 20.404 54.831 20.3621 55.0384C20.5297 55.2459 20.6134 55.4533 20.4878 55.7437C20.404 55.9097 20.4878 56.1586 20.4459 56.3245C20.404 56.449 20.3202 56.6979 20.1946 56.6979C20.0271 56.7394 19.8595 56.5735 19.9014 56.366C19.9433 56.2001 19.9433 56.0756 19.9014 56.0341C19.8595 56.0341 19.8177 56.0756 19.7758 56.0756C19.7339 56.0756 19.692 56.449 19.7339 56.532C19.9852 56.7394 19.9433 56.9469 19.9014 57.1958C19.7339 58.067 19.5245 58.9798 19.357 59.851C19.5245 60.017 19.4407 60.1414 19.2313 60.4318C19.1057 61.0956 18.98 61.8009 18.8125 62.4647C18.7706 62.6307 18.7287 62.7966 18.6868 63.0041C18.6449 63.2115 18.6031 63.4604 18.268 63.3775C17.9329 63.336 17.7235 63.1285 17.7235 62.7966C17.7235 61.8839 17.8911 61.0127 18.3099 60.2244C18.3099 60.1829 18.3518 60.1829 18.3518 60.1414C18.3099 59.9755 18.268 59.768 18.268 59.6021C18.268 59.5191 18.268 59.3946 18.3099 59.3531C18.3518 59.1872 18.4355 59.0212 18.4774 58.8138C18.6868 57.9841 18.8125 57.1543 18.98 56.3245C19.0219 56.2001 19.0219 56.0341 18.9381 55.9926C18.8962 55.9511 18.8544 55.9097 18.8125 55.8682C18.5193 55.6192 18.1842 55.4118 17.8911 55.1629C17.6817 54.9969 17.4722 54.7065 17.1372 54.9969C17.1372 54.9969 16.9697 54.8725 16.9278 54.831C16.8859 54.6235 16.844 54.4161 16.8021 54.2087C16.7184 54.5821 16.6346 54.9969 16.5508 55.3703C16.7184 55.5778 16.7602 55.7852 16.7602 56.0341C17.0115 55.9926 17.3466 56.4905 17.3047 56.6979C17.2628 56.9469 17.0534 57.0713 16.7602 57.0298C16.7602 57.1543 16.7602 57.2788 16.8021 57.3617C16.9278 57.6107 17.2209 57.7766 17.4722 57.9841C17.5141 58.0255 17.556 58.0255 17.556 58.067C17.7235 58.2745 18.1424 58.3574 17.9748 58.7308C17.8911 58.9383 17.1372 58.9798 16.9278 58.8138C16.6346 58.6064 16.3833 58.3574 16.0901 58.15C16.0064 58.8968 15.9226 59.6851 15.9226 60.5563H12.6558V63.9583H13.7866C13.8704 63.7509 14.0379 63.5849 14.2054 63.5019C14.3729 63.419 14.5824 63.5019 14.7918 63.336C15.0012 63.17 15.2106 63.3775 15.1268 63.5849C15.0431 63.7509 15.0431 63.8753 15.0849 63.9583H17.8911C17.9329 63.9583 17.9329 63.9583 17.9748 63.9583H23.5452C23.5033 63.7509 23.5033 63.5434 23.4614 63.3775C23.4614 63.3775 23.629 63.336 23.7127 63.336C23.8384 63.3775 24.0059 63.4604 24.1315 63.5434C24.2153 63.6264 24.2572 63.6679 24.2991 63.7094C24.341 63.7924 24.3828 63.8753 24.4247 63.9583H25.8068C25.8068 63.9168 25.765 63.8753 25.765 63.8338C25.765 63.7924 25.765 63.7094 25.8068 63.5849C25.8068 63.5434 25.8487 63.3775 25.9325 63.2945C25.9744 63.2115 26.0581 63.1285 26.1419 63.1285C26.6026 63.1285 26.3932 63.6679 26.6864 63.7923C26.6445 63.8753 26.6026 63.9168 26.6026 63.9998H34.1414L34.1833 63.9583C33.9739 63.8338 33.7645 63.6679 33.597 63.5019C33.597 63.5019 33.597 63.5019 33.597 63.5434C33.3457 63.336 33.0944 63.1285 32.885 62.9211C32.8431 62.8796 32.8012 62.6722 32.8431 62.6722C32.9269 62.6307 33.0525 62.5477 33.1363 62.5892C33.4294 62.7552 33.6389 62.9626 34.0158 62.7552C34.0158 62.7552 34.1833 62.8381 34.1833 62.8796C34.0577 63.253 34.3509 63.4604 34.5603 63.6679C34.6022 63.7094 34.644 63.7923 34.644 63.8753C34.7697 63.8753 34.8953 63.9168 34.9791 63.9998H35.8167C35.733 63.9168 35.7749 63.7924 35.8167 63.6264C35.9005 63.253 36.0262 63.17 36.3612 63.2115C36.6963 63.2945 36.8219 63.5434 36.7382 63.8753C36.7382 63.9168 36.6963 63.9168 36.6963 63.9583H42.4342C42.4342 63.9168 42.4342 63.8338 42.4761 63.7923C42.5598 63.419 42.6436 63.3775 43.0205 63.4604C43.3975 63.5434 43.4394 63.6264 43.3975 63.9583H57.3443V61.0956C57.3024 61.0956 57.2606 61.0956 57.2187 61.1371C57.2187 61.0542 57.2187 60.9712 57.2187 60.9297C57.2187 60.9297 57.2606 60.8882 57.3024 60.8882V60.5563H53.8262C53.7843 59.3531 53.6587 58.233 53.533 57.1958C53.2817 57.0713 53.2398 57.1543 53.198 57.6107C53.1561 57.8596 52.9885 57.9426 52.6535 57.9841C52.6954 58.15 52.7791 58.3574 52.7791 58.5234C52.7791 58.6064 52.6116 58.6893 52.5278 58.7723C52.4441 58.6479 52.3603 58.4819 52.2765 58.316C52.4022 58.1915 52.5278 58.067 52.6116 57.9841C52.5697 57.9841 52.5278 57.9841 52.486 57.9841C52.2347 57.9841 52.1928 57.8596 52.2347 57.6107C52.3184 57.1958 51.9415 57.1128 51.6902 56.9054C51.5645 56.7809 51.3551 56.7394 51.2295 56.6564C50.8525 56.3245 50.8525 56.2001 51.1457 55.7852C51.2714 55.6192 51.397 55.4948 51.4808 55.2873C51.5227 55.2044 51.5227 55.0799 51.4808 55.0384C51.4389 54.9969 51.3132 54.9554 51.2295 54.9969C50.8525 55.0799 50.3918 54.9969 50.1824 55.4948C50.1405 55.5363 49.8474 55.5778 49.7217 55.4948C49.5542 55.3288 49.2191 55.1629 49.3867 54.831C49.4285 54.748 49.4704 54.7065 49.5123 54.6235C49.5542 54.4991 49.5961 54.3331 49.638 54.2087C49.5123 54.2087 49.3448 54.1672 49.2191 54.2087C48.9678 54.2501 48.8422 54.1257 48.9259 53.8768C48.9678 53.7523 49.0097 53.6278 49.0935 53.5034C49.3867 53.13 49.7217 52.7566 50.0568 52.4247C50.2243 52.2587 50.4337 52.3002 50.4756 52.5491C50.4756 52.6321 50.4337 52.7151 50.4756 52.7566C50.6012 52.964 50.7688 53.2129 50.9363 53.3374C51.2295 53.5034 51.3132 53.1715 51.4808 53.047C51.5645 53.0055 51.6902 52.964 51.774 52.964C51.7321 53.0885 51.7321 53.1715 51.6902 53.2959C51.6064 53.4204 51.5227 53.5449 51.397 53.6693C51.2714 53.8768 51.062 54.0842 51.3132 54.2916C51.5227 54.4991 51.6902 54.748 52.0671 54.582C52.1509 54.5406 52.3184 54.5821 52.4022 54.6235C52.4022 54.748 52.4022 54.831 52.3603 54.9554C52.2765 55.0799 52.1928 55.2044 52.109 55.3288C51.9415 55.5363 51.7321 55.7437 51.9415 56.0341C51.9834 56.0756 51.9415 56.1586 51.9415 56.2001C51.9415 56.366 51.8577 56.5735 51.9415 56.6564C52.0671 56.7809 52.2765 56.8639 52.4441 56.9054C52.6954 56.9469 52.9885 56.532 52.9467 56.2001C52.9467 56.0341 52.9467 55.9097 52.9885 55.8267C52.9467 55.7437 52.9048 55.7022 52.9048 55.6192C52.9048 55.5363 52.9048 55.4533 52.9467 55.2873C52.9885 55.2458 53.0304 55.2044 53.1142 55.1214C52.0252 50.0599 49.8055 46.7408 47.5019 44.2101C47.4601 44.3345 47.4601 44.5005 47.4182 44.625C47.3763 44.8324 47.2925 44.9984 47.0412 44.9984C46.7899 44.9984 46.7062 45.1228 46.7062 45.3303C46.7062 45.4132 46.7062 45.5377 46.7062 45.6207C46.6643 45.8281 46.5387 45.9111 46.3711 45.8281C46.2874 45.7866 46.2036 45.6207 46.2036 45.4962C46.2036 45.3717 46.3292 45.2473 46.3711 45.1228C46.413 44.7909 46.6224 44.459 46.1617 44.2516C46.0779 44.2101 46.0361 44.0026 46.0361 43.8782C46.0779 43.5463 46.1198 43.2144 46.3292 42.9655C45.7848 42.5506 45.3659 42.1357 44.9052 41.7208C44.8633 41.8868 44.8215 42.0527 44.7796 42.2187H44.7377C44.6958 42.5091 44.6121 42.7995 44.5702 43.0899C44.5283 43.4633 44.277 43.4633 43.9838 43.3803C43.6906 43.3388 43.6069 43.1729 43.6488 42.8825C43.7325 42.4676 43.7744 42.0112 43.8163 41.5963C43.8582 41.3059 43.9419 41.0985 44.0676 40.974C43.4812 40.4347 42.9368 39.9368 42.4342 39.4805C42.1829 39.6049 42.2248 39.8539 42.141 40.0198C41.9735 40.3102 41.8897 40.3102 41.6384 40.1028C41.4709 39.9783 41.2615 39.8539 41.0521 39.7709C40.717 39.6464 40.6332 39.5634 40.717 39.1486C40.7589 38.8582 40.8426 38.6092 41.2615 38.6922C41.3452 38.7337 41.4709 38.7337 41.5546 38.7337C41.5546 38.6922 41.5546 38.6507 41.5546 38.6092C41.1777 38.1943 40.8426 37.7795 40.6332 37.3231C40.34 37.4061 40.0469 37.4476 39.7537 37.4891C39.6699 37.4891 39.5443 37.4061 39.5024 37.3646C39.4186 37.1157 39.3768 36.8252 39.3768 36.5763C39.3768 36.4933 39.5024 36.4104 39.5862 36.3274C39.5024 36.2859 39.4605 36.2029 39.4186 36.2029C38.7485 36.2859 38.3716 35.7881 37.9109 35.4562C37.7015 35.2902 37.492 35.0828 37.1989 35.2902C37.157 35.3317 36.9476 35.2072 36.8219 35.1242C36.78 35.1242 36.8219 34.9998 36.78 34.9583C36.6544 34.5434 35.2723 33.4647 34.8116 33.4647C34.6022 33.4647 34.5603 33.4232 34.5603 33.2158C34.5184 32.7594 34.1833 32.5105 33.7645 32.552C33.6389 32.552 33.5132 32.5105 33.3876 32.5105C33.4294 32.386 33.4294 32.2616 33.4713 32.1371C33.6807 31.7637 33.7645 31.7637 34.1414 32.0127C34.3509 32.1371 34.4765 32.2201 34.7278 32.0956C34.8535 32.0541 35.0629 32.1371 35.1885 32.2201C35.5655 32.469 35.8586 32.718 36.2356 32.9669C36.4869 33.1328 36.6963 33.4232 37.0732 33.1743C37.1151 33.1328 37.3245 33.3403 37.3245 33.3403C37.1151 33.7137 37.6596 33.9626 37.492 34.3775C37.4083 34.5849 38.2459 35.2072 38.5391 35.1657C38.8742 35.1242 39.2092 35.0828 39.5024 35.0413C39.5443 35.0413 39.628 35.1242 39.628 35.1242C39.5024 35.4147 39.7956 35.6636 39.7956 35.9125C39.7956 36.037 39.6699 36.1614 39.5862 36.2859C39.7537 36.3274 39.9631 36.4104 40.0469 36.3274C40.0888 36.2859 40.1306 36.2444 40.1725 36.2444C40.0469 35.8295 40.005 35.4147 40.005 34.9998C40.005 34.2945 40.1725 33.6722 40.4238 33.0499C39.8375 32.635 39.2511 32.2616 38.7066 31.8052C38.2878 31.4733 38.3297 31.4318 38.6648 30.9755C38.7066 30.8925 38.7485 30.851 38.7904 30.8095C38.8323 30.768 38.8742 30.7265 38.916 30.685C39.3349 30.0627 39.7956 30.0212 40.3819 30.685C40.5913 30.8925 40.5913 31.0999 40.4238 31.3074C40.2982 31.4733 40.1306 31.6393 40.0469 31.8467C40.005 31.9297 40.0469 32.0956 40.0469 32.1786C40.1306 32.1371 40.2982 32.1371 40.34 32.0956C40.5076 31.9297 40.6332 31.7637 40.7589 31.5978C40.7589 31.5563 40.7589 31.5563 40.717 31.5148C40.8845 31.3903 41.0102 31.2659 41.1358 31.1829C41.1358 31.2659 41.1777 31.3074 41.1777 31.3903C41.2196 31.3903 41.2615 31.4318 41.3033 31.4733C41.3452 31.5148 41.3871 31.5563 41.429 31.5978C41.9735 30.934 42.7273 30.2702 43.565 29.4819C43.2718 29.1915 42.9368 28.9426 42.5179 28.7766C42.2248 28.6521 42.0572 28.3202 41.8059 28.0713C41.7641 28.0298 41.7641 27.8639 41.8059 27.8224C41.8478 27.7809 42.0153 27.7394 42.0572 27.7809C42.2666 27.8639 42.4342 27.9883 42.5598 28.0713C43.0205 28.4862 43.4393 28.8596 43.8582 29.233C43.9001 29.1915 43.9419 29.15 43.9838 29.1085C45.3659 27.8639 46.9575 26.4533 48.3815 24.6278C48.2139 24.2544 47.8789 24.0055 47.5438 23.7566ZM20.5715 22.0556C20.5297 22.0971 20.404 22.0556 20.3621 22.0141C20.1108 21.6822 19.9014 21.3503 19.6501 21.0184C19.5664 20.8939 19.5245 20.7695 19.4826 20.6865C19.6082 20.645 19.7758 20.6035 19.9433 20.5205C20.069 20.6865 20.1946 20.8109 20.3202 20.9354C20.404 21.0184 20.4878 21.1428 20.5715 21.2673C20.781 21.4333 20.7391 21.9311 20.5715 22.0556ZM53.4492 61.3446C53.5749 61.1786 53.7005 61.1371 53.91 61.2616C54.1194 61.4275 54.3288 61.552 54.5382 61.6765C54.6638 61.7594 54.7476 61.8424 54.8733 61.9254C54.9151 61.9254 54.9151 61.9669 54.957 61.9669C55.0408 61.6765 55.0827 61.4275 55.4177 61.469C55.7109 61.5105 55.6271 61.7594 55.5853 61.9254C55.5434 62.1328 55.5434 62.4647 55.1664 62.3403C55.1664 62.3403 55.1664 62.3403 55.1245 62.3403C55.1245 62.5477 55.0827 62.7552 55.2083 62.9211C55.0827 62.9626 54.957 63.0871 54.8733 63.0456C54.245 62.7966 53.7005 62.3403 53.2817 61.8009C53.1142 61.6765 53.3236 61.5105 53.4492 61.3446ZM52.5697 60.7637C52.7791 60.7222 52.9885 60.6393 53.1142 60.7223C53.2817 60.7637 53.2817 60.9297 53.1561 61.0956C52.9467 61.3446 52.6116 61.5105 52.5278 61.3446C52.5278 61.1786 52.5697 61.0127 52.5697 60.7637ZM50.8107 59.3531C50.9782 59.1457 51.1038 59.1042 51.3551 59.2702C51.6483 59.5191 51.6902 59.8095 51.397 60.0999C51.3132 60.1829 51.1038 60.1414 51.0201 60.1414C50.5594 59.851 50.5594 59.6851 50.8107 59.3531ZM49.7636 58.316C49.7636 58.2745 49.973 58.2745 50.0149 58.316C50.0568 58.3574 50.0568 58.4819 50.1405 58.6479C49.973 58.6064 49.8474 58.6479 49.8055 58.5649C49.7217 58.5234 49.7217 58.3989 49.7636 58.316ZM38.581 21.8896C38.6648 21.9311 38.7485 22.0971 38.7066 22.18C38.6648 22.263 38.5391 22.346 38.4553 22.346C38.2878 22.346 38.1622 22.3045 37.9946 22.263C37.9946 22.263 37.9946 22.263 37.9946 22.3045C37.8271 22.263 37.6177 22.2215 37.492 22.1386C37.4083 22.0971 37.2826 21.9726 37.3245 21.8896C37.3245 21.8066 37.4502 21.7237 37.5339 21.6822C37.869 21.5577 38.2459 21.7237 38.581 21.8896ZM37.6596 20.0642C37.7433 20.1471 37.6596 20.3131 37.6596 20.479C37.492 20.562 37.3664 20.6035 37.2826 20.645C37.2826 20.562 37.2407 20.4375 37.2407 20.3546C37.2407 20.3131 37.2407 20.2716 37.2407 20.2301C37.2407 20.1056 37.2407 19.9812 37.2826 19.8567C37.4083 19.8982 37.5758 19.9397 37.6596 20.0642ZM36.3193 19.1099C36.6125 19.027 36.9057 18.9855 37.1989 18.9855C37.2407 18.9855 37.3664 19.1514 37.3245 19.1929C37.2826 19.4004 37.1989 19.6078 37.0732 19.7737C36.9895 19.8567 36.7382 19.8152 36.6544 19.8152C36.4869 19.6493 36.4031 19.5248 36.3193 19.4418C36.2775 19.3174 36.3193 19.1099 36.3193 19.1099ZM36.1518 23.2587C36.0262 23.4247 35.9005 23.4662 35.6911 23.3417C35.3979 23.1343 35.3142 22.8024 35.5236 22.5534C35.733 22.3045 35.8586 22.3045 36.1518 22.5119C36.445 22.7609 36.445 22.9268 36.1518 23.2587ZM34.8953 18.3217C34.9372 18.2387 35.021 18.1557 35.0629 18.1557C35.1885 18.1557 35.356 18.1557 35.4817 18.1972C35.5655 18.2387 35.6911 18.2387 35.8167 18.3217C35.8586 18.3632 35.9005 18.4461 35.8586 18.5291C35.8586 18.5706 35.7749 18.6951 35.6911 18.6951C35.4398 18.6536 35.1885 18.6121 34.9372 18.5706C34.9372 18.5291 34.8953 18.3632 34.8953 18.3217ZM34.8953 19.6493C34.9791 19.6493 35.0629 19.6908 35.2304 19.6908C35.1885 19.6908 35.2723 19.6908 35.3142 19.7323C35.356 19.7737 35.3979 19.8567 35.4817 19.9397C35.3979 19.9812 35.356 20.0227 35.2723 20.0227C35.1466 20.0227 34.9791 20.0227 34.8535 19.9397C34.7697 19.8982 34.7278 19.7737 34.644 19.6908C34.7278 19.7323 34.8116 19.6908 34.8953 19.6493ZM34.644 21.7652C34.7697 21.6822 34.9372 21.5992 35.021 21.5577C35.3142 21.7237 35.6492 21.7237 35.5655 22.0971C35.5236 22.5119 35.3979 22.6364 34.9791 22.6364C34.8116 22.6364 34.644 22.5534 34.4765 22.5119C34.0158 22.3045 34.0158 22.2215 34.4346 21.9726C34.4765 21.9311 34.5603 21.8481 34.644 21.7652ZM34.2671 23.5906C34.4346 23.5906 34.5184 23.5491 34.5603 23.5491C34.6022 23.5906 34.6859 23.6736 34.6859 23.7566C34.6859 23.7981 34.6022 23.8396 34.5603 23.881C34.4765 23.8396 34.4346 23.7981 34.2671 23.5906ZM34.3509 25.3331C34.3509 25.3746 34.2671 25.4161 34.1414 25.5406C34.0996 25.4161 34.0577 25.2916 34.0577 25.2501C34.0577 25.2087 34.1833 25.1672 34.2252 25.1257C34.309 25.1672 34.3509 25.2501 34.3509 25.3331ZM33.7645 21.5577C33.8483 21.4747 34.0158 21.4333 34.0996 21.4747C34.1833 21.5162 34.1833 21.6822 34.2252 21.8896C34.0158 21.8896 33.8483 21.8896 33.7645 21.8481C33.7645 21.8066 33.7226 21.5992 33.7645 21.5577ZM32.4243 20.8524C32.4662 20.8109 32.5499 20.7695 32.6337 20.728C32.6756 20.7695 32.7174 20.8524 32.7174 20.8939C32.7174 20.9769 32.6337 21.0184 32.508 21.1428C32.4662 20.9769 32.3824 20.8939 32.4243 20.8524ZM30.4139 21.2258C30.7071 21.1843 30.749 20.9769 30.7909 20.7695C30.8746 20.4375 30.9584 20.1056 31.0003 19.7737C30.9584 19.7323 30.8746 19.6908 30.8746 19.6493C30.7909 19.5248 30.6233 19.3174 30.6652 19.2344C30.749 19.0684 30.9584 18.944 31.1259 18.8195C31.084 18.778 31.0421 18.7365 30.9584 18.6951C30.9165 18.6536 30.8327 18.5291 30.8746 18.4461C30.9165 18.3632 31.0003 18.3217 31.084 18.3217C31.6285 18.2387 31.796 18.4461 31.6704 18.9855C31.6285 19.1929 31.6704 19.2759 31.8379 19.4418C32.0473 19.6908 32.173 19.9812 32.2986 20.2716C32.3405 20.3131 32.2149 20.479 32.173 20.479C32.0892 20.5205 31.9217 20.479 31.8379 20.5205C31.6704 20.562 31.4191 20.562 31.3772 20.645C31.2934 20.8524 31.1259 21.1014 31.3772 21.3503C31.461 21.4333 31.5029 21.5577 31.5447 21.6822C31.4191 21.7237 31.2934 21.7652 31.1678 21.8066C31.0421 21.8066 30.9165 21.8066 30.7909 21.7652C30.6652 21.7237 30.4977 21.6822 30.4139 21.6407C30.3301 21.5992 30.2464 21.4747 30.2045 21.3918C30.2045 21.3503 30.3301 21.2258 30.4139 21.2258ZM30.8746 22.4705C30.9584 22.5534 30.9584 22.7194 31.0422 22.7609C31.2097 22.8853 31.3353 23.0098 31.2097 23.1757C31.1259 23.3002 30.9165 23.3002 30.8746 23.3002C30.4977 23.2587 30.2464 23.1757 30.3301 22.8438C30.3301 22.8024 30.3301 22.7194 30.2883 22.6779C30.2464 22.5534 29.9113 22.5119 30.0789 22.263C30.1626 22.1386 30.749 22.3045 30.8746 22.4705ZM29.5344 18.1557C29.5344 18.1142 29.6181 18.0313 29.66 18.0313C29.7857 17.9898 29.9113 17.9483 30.037 17.9068C30.037 18.0313 30.037 18.1972 29.9951 18.3217C29.9951 18.3632 29.9532 18.4046 29.8276 18.5706C29.7438 18.5706 29.5763 18.6121 29.4506 18.6121C29.5344 18.4461 29.5344 18.2802 29.5344 18.1557ZM23.0845 19.4418C23.1264 19.4004 23.252 19.4004 23.4195 19.3589C23.4195 19.5248 23.4195 19.6493 23.3777 19.6908C23.3358 19.7323 23.1683 19.7323 23.0845 19.7323C23.0845 19.6078 23.0426 19.4833 23.0845 19.4418ZM22.6657 24.4619C22.54 24.5863 22.3306 24.5863 22.1212 24.6693C21.9955 24.5034 21.828 24.3374 21.828 24.2129C21.828 24.0055 21.9955 23.9225 22.205 23.964C22.4981 24.0885 22.7913 24.3374 22.6657 24.4619ZM24.7179 27.0341C24.6341 26.9926 24.5923 26.9511 24.5085 26.8682C24.5504 26.8267 24.6341 26.7437 24.676 26.7437C24.7598 26.7437 24.8435 26.8267 24.9692 26.9097C24.8017 26.9926 24.7598 27.0341 24.7179 27.0341ZM25.1367 24.7108C25.053 24.9182 24.8435 24.8767 24.676 24.7938C24.5504 24.7108 24.4247 24.6693 24.2991 24.6278C24.2991 24.7108 24.2572 24.8353 24.2572 24.9182C24.2153 25.1672 24.0897 25.4576 24.4666 25.6235C24.5085 25.665 24.5504 25.7895 24.5085 25.8725C24.5085 25.9139 24.3828 25.9554 24.2991 25.9554C23.8384 25.9969 23.629 25.7895 23.6708 25.3746C23.6708 25.1672 23.7127 25.0012 23.5033 24.8353C23.4195 24.7938 23.3777 24.5863 23.4195 24.4619C23.4195 24.4204 23.4195 24.3789 23.4195 24.3374C23.0426 24.1715 22.7494 23.881 22.4563 23.5491C22.4144 23.4662 22.4563 23.3417 22.4144 23.2172C22.3306 23.0098 22.2468 22.8438 22.1212 22.6779C21.9955 22.5119 21.8699 22.5534 21.7442 22.6779C21.6605 22.7609 21.5348 22.8853 21.4511 22.9683C21.2417 23.1343 21.116 23.0928 21.0322 22.8438C20.9904 22.7194 20.9904 22.5949 20.9485 22.4705C20.8647 22.18 20.9485 22.0556 21.2417 22.0141C21.3673 22.0141 21.493 22.0556 21.5767 21.9726C21.828 21.8066 21.9537 21.9726 22.1212 22.0971C22.5819 22.4705 23.0426 22.8024 23.5033 23.1757C23.5452 23.2172 23.5452 23.2172 23.5871 23.2587C23.6708 22.9268 23.7965 22.8853 24.1734 22.9683C24.4247 23.0098 24.5504 23.1757 24.4666 23.4247C24.4247 23.5491 24.4247 23.7151 24.3828 23.8396C24.5923 24.0055 24.7598 24.13 24.9692 24.2959C25.0948 24.3789 25.1786 24.5863 25.1367 24.7108ZM24.9692 21.1428C24.9273 21.2258 24.9273 21.3088 24.8854 21.3503C24.8435 21.4333 24.5085 21.3918 24.341 21.3918C24.0897 21.3503 24.0478 21.1428 24.0478 20.9354C24.0478 20.8109 24.0059 20.6865 24.0478 20.562C24.1315 20.2301 24.2572 19.8567 24.341 19.5248C24.2991 19.4833 24.2572 19.4418 24.2153 19.4418C24.0059 19.3174 23.8803 19.1514 24.0897 18.861C24.341 18.5291 24.4666 18.4461 24.7598 18.6121C24.8017 18.6121 24.8017 18.6121 24.8017 18.6121C24.8435 18.6536 24.9273 18.6951 24.9692 18.778C25.0948 18.9025 25.2205 19.027 25.388 19.1099C25.5974 19.2759 25.5974 19.4418 25.4299 19.6493C25.0948 20.1056 25.3043 20.5205 25.4718 20.9354C25.5137 20.8524 25.5974 20.7695 25.6393 20.6865C26.1 20.1056 26.3513 20.1056 26.812 20.645C27.0214 20.8939 27.1471 21.0599 27.524 20.8524C27.7753 20.6865 28.3198 21.1428 28.3198 21.4747C28.3198 21.6822 28.3198 21.7237 28.5711 21.7237C29.1993 21.7237 29.5763 22.1386 29.8276 22.7609C29.9951 23.1757 29.66 23.5491 29.9532 23.9225C29.9532 23.9225 29.8694 24.0885 29.8276 24.0885C29.4087 24.0055 28.948 24.3374 28.5711 23.881C28.3617 23.6736 28.0685 23.5491 27.7753 23.3832C27.6497 23.3002 27.524 23.2587 27.4403 23.1343C27.189 22.8024 26.812 22.5534 26.4351 22.346C26.2257 22.2215 25.9325 22.0556 26.1419 21.6822C26.1838 21.5992 26.1 21.4333 26.0163 21.3503C25.8487 21.1843 25.6812 21.0599 25.5137 20.8939C25.3043 21.1428 25.1786 21.2258 24.9692 21.1428ZM26.8539 26.3703C26.7283 26.4948 26.6026 26.6607 26.4351 26.5363C26.2676 26.4118 25.9744 26.1629 25.9744 26.0799C26.0581 25.7065 25.8487 25.5406 25.5974 25.3746C25.5556 25.3331 25.5137 25.3331 25.5137 25.2916C25.4718 25.1672 25.4718 25.0427 25.4718 24.9182C25.5974 24.9182 25.7231 24.8767 25.8068 24.9182C26.0163 25.0427 26.2257 25.2087 26.4351 25.3746C26.5607 25.4576 26.6864 25.582 26.812 25.665C27.1471 25.9554 27.1471 26.0384 26.8539 26.3703ZM28.0685 28.4447C27.901 28.3202 27.7753 28.1958 27.6078 28.0713C27.3984 27.9054 27.189 27.7809 27.2727 27.449C27.2727 27.366 27.2727 27.283 27.2308 27.2416C27.1471 27.0756 26.9796 26.9097 27.189 26.7852C27.3146 26.7437 27.524 26.8267 27.6497 26.9097C27.8172 26.9926 27.9847 27.1586 28.1941 27.283C28.2779 27.3245 28.3617 27.4075 28.4454 27.4075C28.6967 27.366 29.0737 27.1171 28.948 27.6979C28.9061 27.9468 29.2831 28.1543 28.9899 28.4447C28.948 28.4862 28.9061 28.5692 28.9061 28.6521C28.8643 29.0255 28.8643 29.0255 28.5711 28.8181C28.4036 28.6936 28.236 28.5692 28.0685 28.4447ZM29.1993 30.768C29.1574 30.851 29.0318 31.0999 28.948 31.0999C28.7386 31.0999 28.4873 31.017 28.2779 30.934C28.236 30.934 28.1941 30.685 28.236 30.685C28.4873 30.4776 28.7805 30.2702 29.0737 30.1042C29.1156 30.1042 29.2412 30.1872 29.2831 30.2702C29.2831 30.3946 29.2412 30.5191 29.1993 30.768ZM29.2831 29.067C29.1993 29.0255 29.1574 28.9011 29.1574 28.8181C29.1574 28.7766 29.325 28.6936 29.3669 28.6936C29.4506 28.7351 29.4925 28.8181 29.6181 28.9426C29.4506 29.0255 29.325 29.1085 29.2831 29.067ZM31.461 28.1128C31.2097 28.1128 31.1678 28.2788 31.3353 28.4862C31.4191 28.6107 31.6704 28.6521 31.5029 28.8596C31.4191 28.9426 31.2516 28.9426 31.084 28.9426C31.2097 29.067 31.3772 29.233 31.3772 29.3574C31.3353 29.6479 31.0421 29.3989 30.9165 29.4819C30.5814 29.6893 30.2883 29.5649 29.9951 29.3989C29.7438 29.233 29.7857 29.0255 29.9532 28.8181C30.2045 28.4862 30.3301 28.4032 30.6233 28.5692C30.6652 28.5692 30.6652 28.6107 30.7071 28.6107C30.5396 28.3617 30.2464 28.3202 29.9951 28.2788C29.7019 28.1958 29.3669 28.1958 29.3669 27.7394C29.3669 27.5735 29.0737 27.4075 29.0737 27.2416C29.0737 27.1586 29.4506 27.0756 29.4925 26.9097C29.66 26.4533 30.037 25.9554 29.5344 25.4576C29.4925 25.4161 29.5763 25.2501 29.6181 25.2501C30.037 25.1672 30.4139 25.2501 30.749 25.4576C30.9165 25.582 30.8746 25.748 30.6652 25.831C30.2464 25.9969 30.2883 25.9969 30.4977 26.3288C30.5814 26.4948 30.5396 26.7437 30.6233 26.9511C30.6652 27.0756 30.7071 27.2001 30.7909 27.283C30.8746 27.2416 31.0003 27.2001 31.084 27.1171C31.2934 26.9511 31.7123 26.8682 31.9636 27.0756C32.0892 27.2001 32.0892 27.449 32.173 27.6149C31.8798 27.9468 31.7542 28.1128 31.461 28.1128ZM20.5715 59.0627C20.8228 58.7308 20.9485 58.7308 21.2835 58.9798C21.5767 59.1872 21.5767 59.3946 21.2835 59.768C21.116 59.9755 20.9485 60.017 20.7391 59.851C20.404 59.5191 20.3202 59.3117 20.5715 59.0627ZM21.116 61.2201C21.0741 61.1786 21.0322 61.0541 21.0322 60.9712C21.116 60.9297 21.2417 60.8882 21.2835 60.8882C21.3673 60.9297 21.3673 61.0541 21.4511 61.1786C21.2835 61.2201 21.1579 61.2616 21.116 61.2201ZM21.9118 62.7552C21.8699 62.8381 21.828 62.9211 21.7861 62.9626C21.7024 63.0456 21.6605 63.1285 21.5767 63.17C21.5348 63.2115 21.4511 63.2115 21.3673 63.253C21.3673 63.17 21.2835 63.0871 21.3254 63.0041C21.4511 62.6722 21.7024 62.3818 21.4092 62.0499C21.4092 62.0499 21.4511 61.8839 21.5348 61.8839C21.6186 61.8424 21.7442 61.8839 21.7861 61.8839C22.0374 61.9669 22.1212 62.3403 21.9118 62.7552ZM22.2887 62.3403C22.2468 62.2158 22.1631 62.0913 22.1631 62.0084C22.1631 61.9669 22.3306 61.8839 22.3725 61.8839C22.4563 61.9254 22.4981 62.0499 22.54 62.1328C22.54 62.1743 22.4144 62.2158 22.2887 62.3403ZM22.7494 58.6064C22.6657 58.6479 22.54 58.6479 22.4563 58.6064C22.2468 58.4819 22.0793 58.316 21.9118 58.1915C21.7861 58.1085 21.6605 57.9841 21.5348 57.9011C21.2835 57.7351 21.1579 57.5277 21.4092 57.2373C21.6186 56.9469 21.828 56.9469 22.0793 57.1128C22.4563 57.3202 22.7494 57.4862 22.6657 57.9841C22.6657 58.1085 22.7494 58.233 22.7913 58.3574C22.7913 58.3989 22.7913 58.5649 22.7494 58.6064ZM22.8751 61.2616C22.8332 61.2616 22.8751 61.1786 22.8751 61.1371C22.9588 61.1371 23.0007 61.1371 23.0426 61.1371C23.0845 61.1371 23.0845 61.2201 23.1264 61.3446C23.0007 61.2616 22.917 61.2616 22.8751 61.2616ZM24.2153 62.3818C24.0897 62.2573 24.0059 62.2158 23.964 62.1328C23.9221 62.0913 23.964 62.0084 23.964 61.9669C24.0059 61.9254 24.0897 61.9254 24.1315 61.9254C24.2153 61.9669 24.2991 62.0084 24.3828 62.0499C24.4666 62.1743 24.5504 62.2988 24.6341 62.4232C24.4666 62.4232 24.341 62.3818 24.2153 62.3818ZM25.765 60.9712C25.5974 61.0127 25.3461 60.8052 25.1786 60.7223C25.1367 60.6808 25.0948 60.6393 25.053 60.5978C24.8435 60.4318 24.5504 60.3074 24.676 59.934C24.7179 59.768 24.6341 59.6436 24.4666 59.5606L24.4247 59.6021C24.4247 59.5606 24.4247 59.5606 24.3828 59.5191C24.2572 59.4361 24.0897 59.4361 23.9221 59.4776C23.5033 59.6021 23.1264 59.2702 23.2101 58.8138C23.2101 58.7308 23.252 58.6064 23.2101 58.5234C23.0426 58.233 23.0845 58.1085 23.4614 58.1915C23.5452 58.1915 23.629 58.1915 23.6708 58.15C23.7127 58.1085 23.7965 58.067 23.8384 58.0255C23.7546 58.0255 23.7127 58.0255 23.6708 57.9841C23.5871 57.9426 23.5033 57.8596 23.5033 57.7766C23.5033 57.6936 23.629 57.6107 23.6708 57.6107C24.0478 57.6521 24.4666 57.6107 24.8017 57.7766C25.053 57.9011 25.1786 58.2745 25.3461 58.5649C25.3461 58.6064 25.2205 58.8138 25.1367 58.8138C24.8435 58.8138 24.7598 58.9383 24.676 59.1457C24.7598 59.3117 24.9273 59.4361 25.0948 59.5191C25.3043 59.6021 25.4718 59.7265 25.6393 59.851C25.8068 59.9755 25.9325 60.0999 25.8068 60.3489C25.8068 60.3903 25.765 60.4318 25.765 60.4733C25.8906 60.5978 26.1 60.8882 25.765 60.9712ZM25.2624 55.5778C25.3461 55.5778 25.4299 55.5778 25.5137 55.6192C25.5556 55.6607 25.5556 55.7437 25.5556 55.8682C25.4299 55.8267 25.3043 55.8267 25.2624 55.7852C25.2624 55.7022 25.2624 55.6192 25.2624 55.5778ZM25.8487 52.9225C25.8068 52.7566 25.7231 52.6321 25.7231 52.5491C25.765 52.4662 25.8906 52.4247 26.0163 52.4247C26.0581 52.4247 26.1419 52.5906 26.1419 52.6321C26.1 52.7566 25.9744 52.8396 25.8487 52.9225ZM27.5659 62.0499C27.4403 62.1743 27.3146 62.3403 27.1052 62.1743C26.9377 62.0084 26.6026 61.9669 26.7283 61.5935C26.7701 61.5105 26.7701 61.3861 26.7701 61.3031C26.7701 61.1786 26.7701 61.0127 26.7701 60.8882C26.9377 60.9297 27.1052 60.9297 27.2727 60.9712C27.3565 60.9712 27.3984 61.0542 27.3984 61.0542C27.9428 61.5105 27.9428 61.635 27.5659 62.0499ZM27.2308 53.047C27.1052 52.9225 27.0214 52.881 27.0214 52.8396C26.9796 52.7981 26.9796 52.6736 26.9796 52.6321C27.0214 52.5906 27.1052 52.5906 27.189 52.5906C27.2727 52.5906 27.3565 52.6321 27.3984 52.7151C27.4821 52.8396 27.5659 52.964 27.6497 53.13C27.4821 53.0885 27.3146 53.047 27.2308 53.047ZM27.6078 57.5277C27.6078 57.5692 27.4821 57.6521 27.3565 57.6936C27.2727 57.5692 27.189 57.4862 27.2308 57.4447C27.2727 57.3617 27.3984 57.3202 27.4821 57.2373C27.4821 57.3617 27.5659 57.4447 27.6078 57.5277ZM28.2779 53.3374C28.1941 53.3374 28.1104 53.13 28.0685 53.047C28.3198 52.6736 28.4036 52.3417 27.9428 52.1758C27.901 52.1758 27.9428 51.9683 27.9428 51.8853C28.1523 51.8853 28.3198 51.8439 28.5292 51.9268C28.6549 51.9683 28.7805 52.1343 28.7805 52.2587C28.7386 52.5906 28.6549 52.9225 28.9899 53.1715C29.0318 53.1715 28.9899 53.3374 28.9899 53.3374C28.7386 53.2959 28.4873 53.3789 28.2779 53.3374ZM30.0789 63.5849C30.037 63.6679 29.8276 63.6264 29.7019 63.6264C29.4506 63.253 29.2412 63.0456 28.8643 63.3775C28.8224 63.419 28.6967 63.2945 28.5711 63.253C28.6549 63.0871 28.6967 62.8796 28.8224 62.7552C28.9061 62.6722 29.1156 62.6307 29.1993 62.6722C29.4925 62.8381 29.7438 63.0871 30.0789 62.8796C30.1207 62.8796 30.2045 62.9211 30.2045 62.9626C30.2045 63.17 30.1626 63.3775 30.0789 63.5849ZM30.2045 61.3861C30.1626 61.2201 30.1207 61.1371 30.1626 61.0542C30.1626 61.0127 30.2883 60.9712 30.3301 60.9297C30.372 61.0127 30.4558 61.0956 30.4558 61.1371C30.4139 61.2201 30.3301 61.2616 30.2045 61.3861ZM30.2045 57.4447C30.1626 57.5277 30.037 57.6107 29.9532 57.6936C29.9113 57.5692 29.7857 57.4862 29.7857 57.3617C29.8276 57.0713 29.8694 56.8224 29.9532 56.532C29.9532 56.532 29.9532 56.532 29.9113 56.532C29.9951 56.2416 30.0789 55.9097 30.1626 55.6192C30.2045 55.5363 30.3301 55.4533 30.372 55.4533C30.372 55.3703 30.4139 55.3288 30.4558 55.2459C30.4977 55.2044 30.6233 55.1629 30.6652 55.2044C30.7071 55.2873 30.749 55.3703 30.7071 55.4533C30.7071 55.4948 30.5814 55.5363 30.5396 55.5778C30.5814 55.6192 30.5814 55.6607 30.5814 55.7022C30.5396 56.0341 30.4977 56.3245 30.8327 56.5735C30.8327 56.5735 30.7909 56.7394 30.7909 56.7809C30.372 56.8224 30.3301 57.1543 30.2045 57.4447ZM30.7071 58.8968C30.6652 58.8138 30.6233 58.7308 30.6233 58.6893C30.6233 58.6479 30.7071 58.6479 30.749 58.6064C30.7909 58.6479 30.8327 58.7308 30.8327 58.7723C30.8746 58.8138 30.7909 58.8138 30.7071 58.8968ZM31.461 55.4533C31.4191 55.4118 31.3353 55.3288 31.3772 55.2873C31.4191 55.2044 31.5029 55.1629 31.5447 55.1214C31.5866 55.1629 31.6285 55.2459 31.7123 55.3288C31.5866 55.3703 31.5447 55.4118 31.461 55.4533ZM31.3353 54.3331C31.3353 54.2501 31.3353 54.1257 31.3772 54.0427C31.4191 54.0012 31.5447 54.0427 31.6704 54.0012C31.6285 54.1672 31.6285 54.2501 31.5866 54.3331C31.5447 54.3746 31.4191 54.3331 31.3353 54.3331ZM33.0525 61.718C33.0106 61.6765 33.0106 61.552 32.9687 61.469C33.0525 61.469 33.0944 61.4275 33.22 61.4275C33.22 61.552 33.22 61.635 33.2619 61.718C33.22 61.718 33.0944 61.7594 33.0525 61.718ZM33.1782 55.6607C33.0525 55.7852 32.9269 56.1171 32.6756 55.9511C32.3824 55.7437 32.7593 55.5778 32.7593 55.3703C32.8431 55.2873 32.885 55.2044 32.9687 55.1629C33.0106 55.1214 33.1363 55.1214 33.1782 55.1629C33.22 55.2044 33.3038 55.3288 33.2619 55.4118C33.3038 55.4948 33.2619 55.5778 33.1782 55.6607ZM36.6544 58.15C36.6125 58.233 36.5287 58.233 36.4031 58.316C36.4031 58.1915 36.3612 58.067 36.4031 58.067C36.445 58.0255 36.5706 57.9841 36.6125 57.9841C36.6544 58.0255 36.6963 58.1085 36.6544 58.15ZM37.1989 61.3031C37.0732 61.1786 36.9476 61.0541 36.8638 60.9712C37.0313 60.9297 37.1989 60.8882 37.3664 60.8882C37.492 60.8882 37.5758 61.0127 37.7015 61.0956C37.5339 61.1371 37.3664 61.2201 37.1989 61.3031ZM40.8845 59.2287C40.717 59.3117 40.5913 59.3532 40.4238 59.3946C40.4657 59.2287 40.5076 59.0627 40.5913 58.9383C40.6332 58.8553 40.8008 58.8138 40.9264 58.7308C40.9264 58.8968 40.8845 59.0212 40.8845 59.2287ZM40.2982 51.6364C40.2982 51.512 40.2982 51.3875 40.3819 51.263C40.4238 51.18 40.5913 51.1386 40.8008 51.0556C40.7589 51.3045 40.7589 51.4705 40.6751 51.5119C40.5913 51.5949 40.4238 51.5949 40.2982 51.6364ZM41.7222 53.6278C41.4709 53.5448 41.3452 53.5034 41.1777 53.4619C40.9683 53.3374 40.9683 53.2129 41.1358 53.047C41.2196 53.0055 41.3033 52.964 41.3452 52.9225C41.3033 52.881 41.3033 52.881 41.2615 52.8396C41.0939 52.6736 41.0939 52.5077 41.2615 52.3002C41.4709 52.2587 41.6803 52.0928 41.8059 52.1343C42.0153 52.2172 42.3504 52.3417 42.2666 52.7151C42.2666 52.7566 42.2666 52.7981 42.2666 52.8396C42.3085 52.881 42.3504 52.964 42.3923 53.047C42.4761 53.13 42.5598 53.1715 42.6017 53.2544C42.6436 53.3789 42.7273 53.5034 42.6855 53.5863C42.6436 53.6693 42.4761 53.7108 42.3504 53.7523C42.2248 53.7938 42.0991 53.7938 41.9735 53.7938C41.9735 53.7523 41.8059 53.6693 41.7222 53.6278C41.7641 53.6278 41.7641 53.6278 41.7222 53.6278ZM42.6017 50.4333C42.6855 50.3918 42.7692 50.3088 42.8111 50.3088C42.8949 50.3503 42.9368 50.4333 43.0205 50.5577C42.8949 50.5992 42.7692 50.6822 42.7273 50.6822C42.6855 50.6407 42.6855 50.5162 42.6017 50.4333ZM42.4342 62.8796C42.3504 62.9626 42.3085 63.0456 42.2248 63.0871C42.1829 63.1285 42.0153 63.1285 42.0153 63.1285C41.9735 63.0041 41.9316 62.8796 41.9735 62.7966C42.0991 62.6307 42.141 62.3403 42.4761 62.4232C42.5179 62.4232 42.5179 62.6722 42.5179 62.7966C42.5179 62.7966 42.4761 62.8381 42.4342 62.8796ZM42.8949 61.469C42.6855 61.718 42.5179 61.6765 42.3085 61.5105C42.0153 61.2616 41.9735 61.1371 42.1829 60.8882C42.3923 60.6393 42.6855 60.6393 42.9368 60.8467C43.1462 61.0127 43.1462 61.1786 42.8949 61.469ZM43.9419 59.6436C43.6488 59.7265 43.6906 60.017 43.565 60.1829C43.4812 60.2659 43.3975 60.4318 43.2718 60.4318C43.1881 60.4318 43.0624 60.3074 42.9786 60.2244C42.8949 60.1414 42.8111 60.017 42.7692 59.8925C42.7273 59.768 42.7273 59.5606 42.7692 59.5191C43.1462 59.3946 43.1881 59.0627 43.3137 58.7723C43.3975 58.5649 43.565 58.4819 43.8163 58.5234C43.9419 58.6893 44.1932 58.8138 44.2351 58.9798C44.3189 59.2287 44.3189 59.5606 43.9419 59.6436ZM44.277 57.6107C44.1514 57.5692 44.1095 57.4032 44.0257 57.3202C44.1514 57.2788 44.277 57.1958 44.4026 57.2373C44.4864 57.2373 44.5702 57.3617 44.7796 57.5277C44.5283 57.5692 44.3608 57.6521 44.277 57.6107ZM47.6276 59.851C47.5019 59.934 47.3763 59.9755 47.2088 60.0584C47.0831 60.0999 46.9994 60.1414 46.8737 60.1829C46.8318 60.0584 46.7899 59.934 46.7899 59.8095C46.7899 59.768 46.7899 59.7265 46.7899 59.6851C46.8737 59.3531 47.3344 59.1457 47.6695 59.3531C47.837 59.4776 47.837 59.768 47.6276 59.851ZM48.0045 57.7766C47.9627 57.7351 47.9627 57.6107 47.9627 57.5277C47.9627 57.4862 48.1302 57.4447 48.1302 57.4862C48.1721 57.5277 48.1721 57.6522 48.2558 57.8596C48.1302 57.8596 48.0045 57.8596 48.0045 57.7766ZM48.1302 54.4576C48.0883 54.2916 48.0045 54.2087 48.0045 54.1257C48.0045 54.0842 48.1721 53.9597 48.2139 54.0012C48.2977 54.0427 48.3815 54.1672 48.3815 54.2501C48.3815 54.2916 48.2558 54.3746 48.1302 54.4576ZM45.1146 44.625C45.1984 44.6665 45.1984 44.8324 45.2403 44.9569C45.0728 44.9569 44.9052 44.9984 44.6958 44.9984C44.6121 44.7909 44.5702 44.625 44.5283 44.5005C44.6958 44.542 44.9052 44.542 45.1146 44.625ZM42.6017 42.841C42.6855 42.8825 42.7273 42.924 42.7692 43.0069C42.8111 43.0899 42.7692 43.1729 42.8111 43.2559C42.7273 43.2559 42.6436 43.2974 42.6017 43.2559C42.5179 43.2144 42.4761 43.1729 42.3085 43.0899C42.2666 43.0069 42.2248 42.8825 42.1829 42.758C42.3504 42.758 42.4761 42.758 42.6017 42.841ZM35.2723 37.1572C35.3979 37.0327 35.5236 36.8252 35.6911 36.9912C35.7749 37.0742 35.6911 37.2816 35.6911 37.4891C35.5236 37.5305 35.356 37.6135 35.2723 37.572C35.021 37.4476 35.1885 37.2816 35.2723 37.1572ZM34.5184 47.5291C34.5603 47.4046 34.6859 47.2802 34.7697 47.1557C34.7278 47.1142 34.644 47.0727 34.644 47.0313C34.644 46.9483 34.644 46.8238 34.6859 46.7408C34.6859 46.7408 34.7697 46.7408 34.8535 46.7408C34.8535 46.8238 34.8535 46.9483 34.8535 47.0313C34.8535 47.0727 34.8116 47.1142 34.7697 47.1557C34.8953 47.2387 35.021 47.2802 35.1047 47.3632C35.4817 47.778 35.9424 47.5706 36.4031 47.5291C36.4869 47.5291 36.5706 47.5291 36.6963 47.5291V34.9998C36.6963 37.572 37.8271 39.3975 39.3349 41.0985C39.4186 41.057 39.5024 41.0155 39.628 40.974C39.7956 40.8911 39.8793 41.0985 39.8375 41.3059C39.8375 41.3889 39.7956 41.5134 39.7956 41.5963C39.9631 41.7623 40.1725 41.9697 40.34 42.1357C40.3819 42.1357 40.3819 42.0942 40.4238 42.0942C40.5913 42.0527 40.717 42.0112 40.7589 41.8868C40.6751 41.8453 40.5913 41.7623 40.5495 41.6793C40.5076 41.6378 40.6332 41.4304 40.717 41.4304C40.7589 41.4304 40.8008 41.4304 40.8426 41.4304C40.8845 41.2644 41.0102 41.1815 41.2615 41.223C41.7641 41.3059 41.9316 41.4304 41.8478 41.7623C41.8059 41.9697 41.7641 42.2187 41.4709 42.3016C41.3871 42.3016 41.3452 42.5091 41.3033 42.5921C41.429 42.6335 41.5128 42.7165 41.5965 42.675C41.7641 42.6335 41.8897 42.3846 42.0572 42.5921C42.141 42.7165 42.0991 42.924 42.0991 43.0899C42.0991 43.2144 42.0572 43.3803 42.0153 43.5048C42.0153 43.5463 42.0153 43.5463 41.9735 43.5878C42.6017 44.1271 43.2299 44.7079 43.8582 45.3303C43.9838 45.3717 44.1095 45.4132 44.1095 45.5792C44.6958 46.16 45.2403 46.7823 45.7848 47.4461C45.8685 47.2387 45.9523 47.0313 46.1198 46.9068C46.3292 46.7408 46.5387 46.5334 46.7899 46.4504C46.8737 46.4089 47.0831 46.7823 47.2088 46.9898C47.2925 47.1142 47.3344 47.2387 47.3763 47.4046C47.3763 47.5291 47.3344 47.6951 47.3344 47.8195C47.2088 48.4004 47.125 48.5248 46.6643 48.4833C47.4601 49.645 48.2139 50.9311 48.8422 52.4662L45.7848 51.2215C45.8685 51.4705 46.0779 51.6364 46.2036 51.8439C46.413 52.1758 46.413 52.5906 46.1198 52.7566C45.701 53.0055 45.701 53.0055 45.9942 53.4204C46.2036 53.6693 46.0779 54.1672 45.7848 54.3331C45.4497 54.4991 45.3241 54.831 45.4497 55.1214C45.701 54.8725 45.7848 54.8725 46.1198 55.1214C46.413 55.3288 46.3292 55.5363 46.1198 55.7437C45.9523 55.9926 45.8266 56.0341 45.5754 55.8682C45.4916 56.0341 45.3241 56.1586 45.0728 56.1586C44.9052 56.1586 44.6958 56.1586 44.5283 56.1171C44.1932 56.0756 44.0257 55.8682 44.0676 55.5363C44.1514 54.9969 44.277 54.4991 44.3608 53.9597C44.4445 53.4619 44.7377 52.9225 44.3608 52.4247C44.3189 52.3417 44.4445 52.1343 44.5283 52.0098C44.6539 51.8024 44.8215 51.6779 44.9471 51.4705C44.989 51.3875 44.989 51.18 44.9052 51.0971C44.8215 50.9726 44.7796 50.8481 44.7377 50.7652L40.1306 48.8567C40.0888 48.8982 40.005 48.9397 39.9631 48.9812C39.7537 49.1471 39.6699 49.3546 39.9212 49.5205C40.2563 49.7695 40.0888 50.0599 40.0469 50.3503C40.005 50.6407 40.005 50.9311 39.5862 51.0141C39.4605 51.0141 39.4186 51.3045 39.293 51.4705C39.2092 51.5949 39.1255 51.7609 39.0417 51.7609C38.916 51.7609 38.7904 51.6364 38.6648 51.5534C38.581 51.5119 38.5391 51.3875 38.4553 51.346C38.1622 51.0141 38.204 50.9311 38.581 50.7652C38.6229 50.7652 38.6229 50.7237 38.6648 50.7237C38.2878 50.4748 37.9109 50.1843 37.5339 49.9354C37.1151 49.645 36.78 49.1886 36.1518 49.2716C36.068 49.2716 35.9424 49.1057 35.8586 48.9812C35.733 48.7737 35.6911 48.5663 35.5655 48.4004C35.5236 48.3174 35.3142 48.2759 35.2304 48.2759C34.6022 48.3589 34.3927 48.1099 34.5184 47.5291ZM37.4502 50.3503C37.5339 50.3088 37.6596 50.2673 37.7433 50.2673C37.7852 50.2673 37.8271 50.3918 37.9109 50.5162C37.7433 50.5577 37.6596 50.5992 37.5758 50.5577C37.492 50.5577 37.492 50.4333 37.4502 50.3503ZM37.5339 52.4662C37.492 52.5491 37.4502 52.6321 37.3664 52.6736C37.2826 52.7151 37.157 52.6736 37.0732 52.6736C36.9057 52.5906 36.5287 52.6321 36.5706 52.3417C36.6125 51.9683 36.9476 52.2172 37.157 52.1758C37.2407 52.2172 37.3664 52.2172 37.4502 52.3002C37.492 52.3002 37.5339 52.3832 37.5339 52.4662ZM36.1099 50.2673C36.068 50.2673 35.9843 50.1843 35.9005 50.1428C35.9005 50.1014 35.9424 50.0184 35.9424 49.9769C36.0262 49.9769 36.1099 49.9354 36.1518 49.9354C36.1937 49.9354 36.2775 50.0599 36.2775 50.1014C36.2775 50.1843 36.1937 50.2673 36.1099 50.2673ZM36.2356 51.4705C36.2775 51.6779 36.1099 51.8853 36.068 52.0098C35.9005 52.1758 35.7749 52.3002 35.6911 52.3832C35.4817 52.5491 35.356 52.4662 35.3142 52.2587C35.2723 52.1343 35.3142 52.0098 35.2304 51.9268C34.9791 51.5949 35.1466 51.429 35.3979 51.2215C35.6911 51.0141 36.1518 51.1386 36.2356 51.4705ZM34.4346 53.9597C34.4765 53.9182 34.4765 53.8768 34.5184 53.8768C34.6859 53.7523 34.7697 53.4619 35.021 53.6278C35.3142 53.7938 35.021 54.0012 34.9372 54.1672C34.8535 54.3331 34.7278 54.4576 34.9372 54.6235C35.1466 54.7895 35.2723 55.0799 35.6073 54.9554C35.9005 54.8725 36.1937 54.831 36.4869 54.7895C36.7382 54.748 37.4502 55.3703 37.492 55.6607C37.492 55.7437 37.5339 55.8267 37.5339 55.9097C37.6177 55.8682 37.7015 55.8682 37.7852 55.8682C38.0365 55.8682 38.2878 55.9511 38.581 55.9926C38.6648 55.9926 38.7485 55.8682 38.8323 55.8267C38.7904 55.7437 38.7066 55.6192 38.6648 55.6192C38.1203 55.5778 38.0784 55.1214 37.8271 54.831C37.5339 54.4161 37.6596 54.0427 37.7433 53.6278C37.8271 53.2959 37.869 53.0055 37.9528 52.7151C38.0365 52.4247 38.4135 52.3832 38.4972 52.6321C38.6229 53.047 38.916 53.047 39.2511 53.13C39.293 53.13 39.3349 53.13 39.3768 53.1715C39.5443 53.2544 39.8793 53.213 39.8375 53.5034C39.7956 53.8353 39.5024 53.6693 39.293 53.6693C39.1255 53.6693 38.916 53.6278 38.8742 53.8768C38.8323 54.1257 38.6229 54.3746 38.8742 54.665C39.0836 54.8725 39.2511 55.1214 39.4186 55.3703C39.5862 55.5778 39.293 56.532 39.0836 56.6564C38.9579 56.7394 38.8742 56.8224 38.7485 56.8639L37.9946 57.8181C37.869 57.8596 37.7433 57.9426 37.6177 57.9011C37.2407 57.8596 37.1151 57.7766 37.1151 57.4447C37.0732 57.3617 37.0313 57.2788 36.9895 57.1543C36.9476 56.9054 36.8219 56.8224 36.5706 56.8639C36.5287 56.8639 36.5287 56.8639 36.4869 56.8639C36.445 56.9054 36.4031 56.9469 36.3612 56.9469C36.2775 56.9469 36.1937 56.8639 36.068 56.7809C36.1518 56.7394 36.2356 56.6564 36.2775 56.6564C36.2775 56.5735 36.3193 56.4905 36.3612 56.4075C36.4869 56.2001 36.6544 55.9926 36.78 55.7852C36.8219 55.7022 36.7382 55.5778 36.7382 55.4948C36.6544 55.4948 36.5287 55.4948 36.4869 55.5363C36.2356 55.9926 35.8167 55.8267 35.4398 55.9097C34.9791 55.9926 34.6859 55.7437 34.3509 55.4948C34.0996 55.2873 33.8483 55.1214 33.597 54.914C33.3876 54.7065 33.4713 54.3746 33.7226 54.4161C34.1414 54.4576 34.2671 54.2087 34.4346 53.9597ZM33.5551 46.7408C33.5132 46.6994 33.5132 46.5749 33.5132 46.4919C33.597 46.4919 33.7226 46.4504 33.8064 46.4504C33.8483 46.4504 33.8483 46.6164 33.8902 46.7408C33.7645 46.7408 33.6389 46.7823 33.5551 46.7408ZM33.932 49.562C33.932 49.6865 33.932 49.8524 33.8902 49.8524C33.8064 49.8939 33.6807 49.8939 33.597 49.8939C33.597 49.8109 33.5551 49.6865 33.597 49.645C33.6807 49.6035 33.7645 49.6035 33.932 49.562ZM34.1833 35.7051C34.4346 35.954 34.0996 36.12 34.0158 36.2859C33.932 36.4519 33.8064 36.5763 33.597 36.4519C33.5132 36.4104 33.3876 36.3274 33.2619 36.2444V44.7494C33.3038 44.7494 33.3038 44.7909 33.3457 44.7909C33.7645 45.1228 33.8483 45.2473 33.7226 45.5377V45.5792C33.7226 45.6207 33.6807 45.6207 33.6389 45.6622C33.597 45.7451 33.5551 45.8281 33.5132 45.9111C33.4294 45.9526 33.3876 45.9941 33.3038 46.0356V47.7366C32.7593 47.861 32.2567 47.9855 31.7542 48.1929L31.5866 48.2344C31.4191 48.4418 31.2516 48.5663 31.0422 48.4833L29.3669 49.1471C29.4087 49.3131 29.4506 49.4376 29.4925 49.6035C29.4925 49.6865 29.4925 49.7695 29.4925 49.7695C29.4506 49.8939 29.4506 50.0184 29.4087 50.1014C29.4506 50.1014 29.4925 50.1014 29.5344 50.1014C29.66 50.1014 29.8276 50.1014 29.9532 50.1843C30.1626 50.3088 30.3301 50.4748 30.5396 50.5992C30.6652 50.6822 30.8327 50.7652 30.9165 50.7237C31.3772 50.5162 31.3353 50.7652 31.2934 51.0556C31.2516 51.263 31.3353 51.4705 31.3772 51.6779C31.4191 51.9268 31.5866 52.0928 31.8379 51.9268C32.2149 51.7194 32.3824 52.0098 32.5918 52.1758C32.8012 52.3417 33.0944 52.4662 32.9687 52.8396C32.9269 52.964 33.1782 53.13 33.2619 53.2959C33.3457 53.4204 33.4713 53.5448 33.4294 53.6278C33.3876 53.7523 33.22 53.7938 33.0944 53.8768C33.0106 53.9182 32.9269 53.9182 32.8012 53.9597C32.4243 54.0427 32.2986 54.0012 32.3405 53.5863C32.3824 53.0885 31.7542 52.5906 31.2934 52.7151C31.1678 52.7566 31.0421 52.8396 30.9584 52.7981C30.6233 52.5906 30.4139 52.7981 30.2045 53.047C29.9951 53.2959 29.5344 53.13 29.4925 52.8396C29.4506 52.6321 29.6181 52.5491 29.7857 52.5906C30.1626 52.6321 30.2464 52.5491 30.1207 52.1758C30.0789 51.9683 30.2464 51.7194 30.2883 51.4705C30.3301 51.346 30.3301 51.2215 30.3301 51.0971C30.2045 51.0971 30.037 51.0556 29.9113 51.0971C29.66 51.18 29.3669 51.0556 29.0737 51.3045C29.0318 51.346 28.6549 51.0971 28.4873 50.9311C28.4036 50.8481 28.4454 50.5992 28.5292 50.4748C28.5711 50.4333 28.5711 50.3918 28.613 50.3503C28.4454 50.3088 28.2779 50.2258 28.3198 50.0184C28.3617 49.8939 28.3198 49.728 28.4036 49.6035L27.6497 49.8939C27.6078 50.0184 27.524 50.1843 27.3146 50.3918C27.2308 50.5162 27.1471 50.6407 27.0214 50.7652C26.9796 50.8067 26.812 50.8067 26.7701 50.7652C26.7283 50.7237 26.7283 50.5992 26.7283 50.5162C26.7283 50.4748 26.7701 50.4333 26.812 50.3503C26.8539 50.2673 26.9377 50.2258 26.9796 50.1428L25.4718 50.7652C25.5137 50.8481 25.5556 50.9311 25.5974 50.9726C25.4718 51.0141 25.3461 51.0556 25.2205 51.0971C25.1786 51.0971 25.0948 51.0971 25.053 51.0556C24.9692 51.0556 24.9273 51.0141 24.8435 50.9726L21.2417 52.4662C21.3254 52.2172 21.4511 51.9683 21.5348 51.7194C21.493 51.7194 21.493 51.7609 21.4511 51.7609C21.2417 51.8853 21.1998 52.0513 21.1579 52.2172C21.0741 52.5906 20.9904 53.0055 20.9066 53.3789C20.8647 53.6278 20.781 53.8353 20.4878 53.7523C20.2365 53.6693 19.9014 53.6278 19.9433 53.2129C19.9852 52.964 20.0271 52.7151 20.1108 52.4662C20.1527 52.1343 20.1527 51.8024 20.1946 51.4705C20.2365 51.18 20.3202 50.9311 20.3621 50.6407C20.4459 50.2258 20.4878 49.7695 20.5715 49.3546C20.5715 49.2716 20.5297 49.2301 20.4878 49.1471C20.1527 48.6908 20.2365 48.2759 20.7391 48.027C20.9485 47.9025 21.1579 47.778 21.3673 47.6121C21.5348 47.4876 21.493 47.3632 21.3673 47.1972C21.3254 47.1142 21.3254 46.9483 21.3254 46.8238C21.5348 46.8238 21.7024 46.7823 21.9118 46.8238C22.0374 46.8653 22.1212 46.9898 22.1631 47.0728C22.205 47.1557 22.1631 47.2802 22.1212 47.3632C21.9537 48.1099 21.7861 48.8567 21.6186 49.645C21.5767 49.9354 21.493 50.2258 21.4511 50.5162C21.4511 50.6407 21.493 50.7652 21.5767 50.8896C21.6605 50.9726 21.7024 51.0971 21.7024 51.18C23.0007 48.5248 24.676 46.6164 26.3513 44.9984C26.3513 44.9984 26.3513 44.9984 26.3094 44.9984C26.2676 44.9569 26.1838 44.9154 26.1419 44.8739C26.1419 44.9154 26.1419 44.9154 26.1419 44.9569C26.1419 45.2473 25.8068 45.4547 25.388 45.4547C25.3043 45.4547 25.1786 45.4132 25.1367 45.4132C25.0111 45.3717 24.9273 45.3717 24.8854 45.3303C24.8435 45.2888 24.8017 45.2058 24.7179 45.1643C24.8017 45.1228 24.8435 45.0398 24.9273 44.9984C25.2624 44.9569 25.6393 45.0813 25.8487 44.625C25.8487 44.625 25.8906 44.625 25.9325 44.625C25.765 44.376 25.8068 44.0856 26.0581 43.8367C26.2257 43.6707 26.3513 43.6707 26.5188 43.7952C26.5188 43.7952 26.5607 43.7952 26.5607 43.8367L26.6026 43.7952C26.6445 43.8367 26.7701 43.9197 26.7701 43.9612C26.8958 44.0441 26.9796 44.1271 27.1052 44.2101C27.3984 43.9612 27.6497 43.7122 27.901 43.4633H27.8591C27.5659 43.4218 27.4821 43.2559 27.5659 43.0069C27.6916 42.5506 27.8591 42.3846 28.1941 42.4676C28.3198 42.5091 28.4036 42.5091 28.4454 42.5506C28.4454 42.4261 28.5292 42.4261 28.8224 42.4261C28.9061 42.4261 28.9899 42.4261 29.0737 42.4261C29.4925 42.0527 29.8694 41.6793 30.2464 41.3059C30.2045 41.3059 30.1207 41.2645 30.1207 41.2645C29.9951 41.0985 30.0789 40.8911 30.2883 40.8496C30.5814 40.7666 30.7071 40.7251 30.4139 40.4347C30.3301 40.3517 30.2883 40.1443 30.2883 40.0198C30.372 39.522 30.4977 39.0241 30.5814 38.4848C30.6652 38.1943 30.7909 37.9039 30.4139 37.6965C30.4139 37.6965 30.4139 37.4891 30.4977 37.4476C30.7909 37.2401 31.084 37.0327 31.3772 36.8252C31.461 36.7423 31.461 36.6178 31.5029 36.4933C31.5447 36.2859 31.5866 36.0785 31.6704 35.9125C31.7123 35.7881 31.8798 35.6636 32.0054 35.6636C32.2567 35.6636 32.2567 35.871 32.2149 36.0785C32.173 36.2029 32.173 36.3689 32.1311 36.4933C32.1311 36.4933 32.1311 36.4933 32.173 36.4933C32.0892 36.7008 32.0473 36.8667 31.9636 37.0742C31.8379 37.3231 31.8379 37.5305 32.0473 37.7795C32.173 37.9454 32.2149 38.2773 32.173 38.4848C32.1311 38.7752 31.796 38.6507 31.5866 38.6507C31.5029 38.6507 31.4191 38.6092 31.3353 38.6507C31.2516 38.6507 31.1678 38.7337 31.084 38.7752C31.1259 38.8582 31.1678 38.9826 31.2516 39.0241C31.4191 39.1486 31.5866 39.356 31.6704 39.6049C32.4243 38.5677 32.9269 37.4061 33.1363 36.037C33.0525 35.954 32.9687 35.871 32.9269 35.7881C32.8431 35.6636 32.7593 35.4147 32.8012 35.3732C32.9269 35.2902 33.0525 35.1657 33.22 35.1242C33.22 35.0413 33.22 34.9998 33.22 34.9168V35.1242C33.2619 35.1242 33.3457 35.0828 33.3876 35.1242C33.6807 35.2902 33.9739 35.4976 34.1833 35.7051ZM32.7593 49.0642C32.5918 49.1886 32.4243 49.2716 32.2149 49.3546C32.2149 49.1471 32.2567 48.9812 32.2567 48.6908C32.4243 48.6908 32.5918 48.6493 32.6756 48.6908C32.885 48.7738 32.885 48.9812 32.7593 49.0642ZM33.597 29.6479H33.6389C33.5132 29.9798 33.3876 30.3117 33.3038 30.6436C33.22 30.934 33.0525 31.2659 33.4713 31.4733C33.5132 31.5148 33.5551 31.7222 33.5132 31.8052C33.3457 32.2201 32.5499 32.469 32.2149 32.2201C32.1311 32.1371 32.0473 31.9712 32.0892 31.8052C32.0892 31.6808 32.0892 31.5148 32.1311 31.3489C32.0892 31.3489 32.0473 31.3074 32.0473 31.3074C32.0054 31.2659 32.0054 31.1414 32.0054 31.0584C32.0054 31.017 32.1311 31.017 32.2149 31.017C32.2149 31.0584 32.2567 31.1414 32.2567 31.2244C32.2986 31.1829 32.3405 31.1829 32.3824 31.1829C32.885 31.017 32.9687 30.6436 32.6337 30.2702C32.4243 30.0212 32.508 29.067 32.8431 28.9426C33.0525 28.8596 33.22 28.7766 33.3457 28.5692C33.3876 28.4862 33.5551 28.4447 33.6389 28.4862C33.7226 28.5277 33.8064 28.6521 33.8064 28.7766C33.7226 29.067 33.6389 29.3574 33.597 29.6479ZM33.4294 27.449C33.3876 27.449 33.3876 27.4075 33.3038 27.366C33.0525 27.449 32.8431 27.366 32.5499 27.1171C32.2149 26.8682 31.8379 26.5778 31.5029 26.2873C31.2934 26.0799 30.9584 25.9139 31.1259 25.4576C31.2097 25.2087 30.6652 24.8767 30.3301 24.9182C30.1626 24.9597 29.9951 24.9182 29.8694 24.8353C29.7857 24.7938 29.7438 24.6278 29.66 24.5448C29.66 24.5448 29.7019 24.5448 29.7019 24.5034C29.66 24.3789 29.5763 24.2959 29.5763 24.2544C29.6181 24.1715 29.7438 24.13 29.8276 24.0885C29.8694 24.0885 29.9532 24.2544 29.9532 24.2959C29.9532 24.3374 29.9113 24.3789 29.8694 24.3789C29.9113 24.3789 29.9532 24.3374 29.9532 24.3374C30.1207 24.2129 30.2464 24.13 30.4139 24.0055C30.4977 23.9225 30.5814 23.7981 30.6652 23.6736C30.7909 23.5077 30.9165 23.2587 31.2097 23.3832C31.5447 23.5076 31.7123 23.8396 31.6704 24.1715C31.6704 24.2544 31.6704 24.3374 31.7123 24.4204C31.796 24.4204 31.9636 24.4204 32.0054 24.3374C32.2149 24.1715 32.3405 24.2129 32.508 24.3374C33.0525 24.7523 33.597 25.1672 34.1414 25.582C34.309 25.7065 34.4765 25.8725 34.6022 25.9969C34.7278 26.1214 34.9791 26.2458 34.8116 26.4948C34.7278 26.6192 34.6022 26.7437 34.4765 26.8267C34.309 27.0341 34.0996 27.2001 33.8902 27.3245C33.8064 27.532 33.6389 27.449 33.4294 27.449ZM39.0417 29.7723C38.916 29.9798 38.6229 30.3117 38.4972 30.2702C38.1622 30.1872 38.0365 30.3531 37.869 30.5606C37.7852 30.685 37.5339 30.8095 37.4502 30.768C37.2407 30.6021 36.9895 30.3946 36.9057 30.1872C36.8219 29.9383 36.9057 29.6064 36.8638 29.3159C36.8638 29.233 36.78 29.1085 36.6963 29.0255C36.5706 28.9011 36.4031 28.7766 36.2356 28.6521C35.6911 29.3989 35.6911 29.3989 34.9372 28.8596C33.9739 28.1543 34.0158 28.3202 34.7278 27.3245C34.7697 27.283 34.7697 27.283 34.8116 27.2416C35.3142 26.6192 35.2723 26.6192 35.9005 27.1586C36.3193 27.532 36.8219 27.8639 37.2826 28.1958C37.8271 28.5692 38.3297 28.984 38.8742 29.3989C38.9998 29.4819 39.1255 29.7308 39.0417 29.7723ZM41.9316 29.067C42.0572 29.233 42.2248 29.3574 42.2248 29.4819C42.1829 29.7308 41.9735 29.6893 41.8059 29.6064C41.6384 29.5649 41.3452 29.5649 41.429 29.2745C41.429 29.1915 41.7222 29.1915 41.9316 29.067ZM42.7273 26.2458C42.6436 26.2458 42.6017 26.1214 42.5179 26.0384C42.6017 25.9554 42.7273 25.8725 42.8111 25.8725C42.853 25.8725 42.9368 25.9969 43.0624 26.1214C42.9368 26.1629 42.8111 26.2458 42.7273 26.2458ZM45.5754 26.1629C45.5754 26.4118 45.3659 26.6607 45.1146 26.8267C44.9052 26.9511 44.7377 27.283 44.4026 27.1171C44.3608 27.283 44.3189 27.4075 44.3189 27.5735C44.4864 27.6564 44.7377 27.6149 44.6958 27.9054C44.6958 27.9468 44.5283 28.0713 44.4864 28.0298C44.1932 27.9468 44.3189 27.7394 44.3189 27.5735C44.277 27.5735 44.1932 27.5735 44.1513 27.532C44.0676 27.449 43.9838 27.366 43.9419 27.2416C44.0676 27.2001 44.1514 27.1171 44.277 27.0756C44.3189 27.0756 44.4026 27.0756 44.4445 27.0756C44.4864 26.8682 44.5702 26.6607 44.277 26.5778C43.8582 26.4533 43.8163 25.9969 43.7744 25.7065C43.7325 25.2916 43.7325 24.7523 44.2351 24.5034C44.277 24.4619 44.3189 24.3789 44.3608 24.3374C44.5702 24.047 45.1984 24.0055 45.3659 24.2959C45.4916 24.4619 45.4078 24.6278 45.1984 24.7108C44.8215 24.8767 44.8215 24.8767 45.0728 25.1672C45.2403 25.3746 45.3659 25.6235 45.4497 25.8725C45.4916 25.8725 45.4916 25.8725 45.5335 25.831C45.5335 25.9969 45.6172 26.1214 45.5754 26.1629Z" fill="#D76700"/>
<path d="M40.2144 17.6166C40.2144 17.5336 40.2563 17.4507 40.2982 17.3677H39.9631C40.005 17.4092 40.0469 17.4507 40.0888 17.4921C40.1725 17.4921 40.2144 17.5336 40.2144 17.6166Z" fill="#D76700"/>
<path d="M16.7183 13.0527C16.6346 13.0527 16.5508 13.0527 16.467 13.0527C16.467 13.1772 16.5089 13.3017 16.5089 13.4261C16.5927 13.3017 16.6346 13.1772 16.7183 13.0527C16.7183 13.0942 16.7183 13.0527 16.7183 13.0527Z" fill="#D76700"/>
</svg>
