<svg width="70" height="70" viewBox="0 0 70 70" fill="none" xmlns="http://www.w3.org/2000/svg">
<path d="M55.9903 57.6676C52.1782 57.6676 48.4131 57.6676 44.601 57.6676C43.9892 57.6676 43.9892 57.6676 43.9892 57.0558C43.9892 56.1145 43.8951 56.2087 44.8363 56.2087C52.3665 56.2087 59.8966 56.2087 67.4267 56.2087C67.8974 56.2087 68.0386 56.3499 67.9915 56.7734C67.9444 57.7618 68.1327 57.7147 67.0502 57.7147C63.3793 57.6676 59.6613 57.6676 55.9903 57.6676Z" fill="#D76700"/>
<path d="M8.0328 56.1618C9.82121 56.1618 11.6096 56.1618 13.398 56.1618C14.0098 56.1618 14.0098 56.1618 14.0098 56.7736C14.0098 57.7149 14.151 57.6678 13.1156 57.6678C9.63295 57.6678 6.1032 57.6678 2.62051 57.6678C2.00869 57.6678 2.00869 57.6678 2.00869 57.056C2.00869 56.0206 1.96163 56.1618 2.90289 56.1618C4.59717 56.1618 6.33852 56.1618 8.0328 56.1618Z" fill="#D76700"/>
<path d="M14.0569 63.6449C13.2098 63.6449 12.3627 63.6449 11.5626 63.6449C11.1861 63.6449 11.0449 63.5508 11.0449 63.1742C11.0449 61.9035 10.9508 62.1389 12.0803 62.0918C13.5863 62.0918 15.0453 62.0918 16.5513 62.0918C16.9749 62.0918 17.1631 62.1859 17.1161 62.6566C17.069 63.7861 17.2573 63.6449 16.1277 63.6449C15.7983 63.6449 15.4218 63.6449 15.0923 63.6449C14.7158 63.6449 14.3864 63.6449 14.0569 63.6449Z" fill="#D76700"/>
<path d="M55.6137 63.174C55.5667 63.4093 55.5196 63.7858 55.4255 63.8329C55.049 63.927 49.9191 63.8799 49.4955 63.8329C49.4484 63.8329 49.4014 63.6917 49.4014 63.5976C49.4014 63.4564 49.4014 63.3622 49.4014 63.2211C49.4014 62.5622 49.3543 62.3739 49.6367 62.3268C49.7779 62.2798 54.6725 62.3268 55.049 62.2798C55.5196 62.2798 55.6608 62.421 55.6137 62.8445C55.5667 62.9857 55.5667 63.0799 55.6137 63.174C55.5667 63.174 55.5667 63.174 55.6137 63.174Z" fill="#D76700"/>
<path d="M38.1063 66.5156C38.2004 66.5156 38.2946 66.6097 38.3416 66.7038C39.0946 66.7038 39.8006 66.7038 40.5536 66.7038C40.8831 66.7038 40.9772 66.6097 40.9772 66.2803C40.9772 65.5743 40.9772 64.8213 40.9772 64.1153C40.9772 63.7388 40.836 63.6918 40.5065 63.6918C39.8477 63.6918 39.1417 63.6918 38.4828 63.6918C38.1063 63.6918 37.9181 63.5976 37.9181 63.1741C37.9181 59.5031 37.9181 55.8322 37.9181 52.1612C37.9181 51.7847 38.0593 51.6435 38.4358 51.6435C39.0946 51.6435 39.7065 51.5965 40.3654 51.6435C40.836 51.6435 40.9772 51.5024 40.9772 51.0317C40.9301 50.3728 40.9772 49.761 40.9772 49.1021C40.9772 48.7256 41.1184 48.6315 41.4478 48.6315C41.9655 48.6315 42.4832 48.6315 43.0009 48.6315C43.048 48.5844 43.095 48.4903 43.1421 48.4432C43.1892 48.3962 43.4715 48.4903 43.5186 48.5844C43.5186 48.5844 43.5186 48.5844 43.5186 48.6315C43.801 48.6315 43.8951 48.4903 43.8951 48.1609C43.8951 47.0313 43.8951 45.9489 43.8951 44.8194C43.848 44.8194 43.801 44.8194 43.7069 44.8194C43.7069 44.8194 43.7069 44.8194 43.7069 44.7723C43.4715 44.7252 43.2833 44.7252 43.048 44.6782C42.8127 44.6311 42.5773 44.584 42.3891 44.9135C42.295 45.1017 42.0596 45.1017 42.0126 44.8664C41.9655 44.537 41.7302 44.537 41.4949 44.4899C41.3066 44.4429 41.0713 44.4429 41.1654 44.2075C41.1654 44.1134 41.4478 44.0663 41.589 44.0663C41.8243 44.0663 42.1067 44.1134 42.342 44.1605C42.6244 44.1605 42.9538 44.2546 43.095 43.8781C43.1421 43.831 43.2833 43.784 43.3304 43.784C43.801 43.831 44.2246 43.8781 44.6952 43.9722C44.8364 43.9722 44.9305 44.0663 44.9776 44.1134C45.307 44.1134 45.6365 44.1134 46.013 44.1134C46.013 44.1134 46.013 44.1134 46.013 44.0663C45.9659 43.784 45.8718 43.4545 46.2483 43.3133C46.4836 43.2192 46.6719 43.1251 46.8601 43.031C46.8601 40.066 46.8601 37.101 46.8601 34.136C46.8601 33.7124 46.9542 33.5712 47.3778 33.5712C48.0367 33.6183 48.7426 33.6183 49.4015 33.5712C49.8251 33.5712 49.9192 33.7124 49.9192 34.0889C49.8722 34.7007 49.9192 35.3596 49.9192 35.9714C49.8722 36.4421 50.0604 36.5362 50.484 36.5362C51.0958 36.4891 51.7076 36.4891 52.3195 36.5362C52.743 36.5362 52.9313 36.4421 52.8842 35.9714C52.8371 34.3242 52.8842 32.677 52.8842 31.0298C52.8842 30.6062 52.743 30.5121 52.3665 30.5121C51.4723 30.5121 50.531 30.5121 49.6368 30.5121V30.5592C49.6368 30.8886 49.6368 31.171 50.0133 31.3592C50.1075 31.4063 50.0604 31.6416 50.1075 31.8769C50.0133 32.0181 49.9192 32.2534 49.778 32.3005C49.5427 32.3476 49.4015 32.2064 49.2603 31.9711C48.8838 31.4534 49.1191 30.9827 49.1662 30.5121C48.5544 30.5121 47.9896 30.5121 47.3778 30.5121C46.9542 30.5121 46.813 30.418 46.813 29.9473C46.8601 28.3942 46.813 26.8412 46.813 25.2881C46.813 24.535 46.813 24.535 47.5661 24.535C47.8955 24.535 48.2249 24.535 48.6014 24.535C48.6014 24.4409 48.6014 24.3468 48.6014 24.2527C48.6014 24.2056 48.7426 24.0644 48.8368 24.1115C48.9309 24.1115 49.025 24.2056 49.0721 24.2997C49.1191 24.3468 49.0721 24.4409 49.0721 24.535C52.1312 24.535 55.2374 24.535 58.2965 24.535C58.673 24.535 58.8613 24.4409 58.8613 24.0174C58.8613 23.4055 58.8613 22.7937 58.8613 22.1819C58.8613 21.4759 58.8613 21.4759 58.2024 21.4759C57.2611 21.4759 56.2728 21.4759 55.3315 21.4759C55.3315 21.5701 55.1903 21.6171 55.0962 21.7112C55.0491 21.6171 54.955 21.523 54.955 21.4759C53.449 21.4759 51.9429 21.4759 50.4369 21.4759C50.0133 21.4759 49.9192 21.3347 49.9192 20.9582C49.9663 20.3464 49.9663 19.6875 49.9192 19.0757C49.9192 18.6051 50.0604 18.5109 50.484 18.5109C54.3902 18.5109 58.2965 18.5109 62.2028 18.5109C62.1557 18.4639 62.1086 18.4168 62.0616 18.3697C62.2028 18.2756 62.2969 18.1815 62.391 18.1815C62.4851 18.1815 62.5793 18.3227 62.5793 18.4168C62.5793 18.4639 62.5322 18.4639 62.5322 18.5109C63.144 18.5109 63.7088 18.5109 64.3206 18.5109C64.7442 18.5109 64.8854 18.3697 64.8854 17.9462C64.8854 17.805 64.8854 17.6167 64.8854 17.4755C64.8383 17.4285 64.7442 17.3814 64.6971 17.3344C64.5559 17.3344 64.4147 17.2873 64.2735 17.2402C64.2265 17.2402 64.1794 17.099 64.1794 17.0049V16.9578C64.0382 16.9108 63.85 16.9108 63.7088 16.8637C63.5676 16.8167 63.4735 16.7225 63.3323 16.6284C63.4264 16.5343 63.5205 16.4402 63.6147 16.346C63.7088 16.2519 63.7559 16.1107 63.8029 16.0166C63.897 15.7813 63.9441 15.5459 64.0382 15.3577C64.1324 15.0753 64.5089 14.9812 64.7442 15.1694C64.7912 15.2165 64.7442 15.4048 64.6971 15.4518C64.3206 15.7813 64.3677 15.7342 64.6501 16.1107C64.6971 16.2048 64.7912 16.299 64.8854 16.3931C64.8854 14.9341 64.8854 13.5222 64.8854 12.0633C64.7912 12.1103 64.6971 12.1574 64.6501 12.2044C64.4618 12.0162 64.2735 11.9221 64.2265 11.7809C64.1794 11.5456 64.4147 11.4985 64.603 11.5456C64.6971 11.5456 64.7912 11.5926 64.8854 11.5926C64.8854 9.5689 64.8854 7.59224 64.8854 5.56851C64.8854 5.23907 64.7912 5.09788 64.603 5.05082C64.603 5.05082 64.603 5.05082 64.5559 5.05082C64.5089 5.05082 64.5089 5.05082 64.4618 5.05082C64.4147 5.05082 64.4147 5.05082 64.3677 5.05082C63.7088 5.05082 63.097 5.05082 62.4381 5.05082C62.0616 5.05082 61.9204 4.95669 61.9674 4.58018C61.9674 4.20368 61.9674 3.82717 61.9674 3.49773C61.9204 3.68598 61.7792 3.73304 61.4968 3.68598C61.4497 4.06249 61.5909 4.43899 61.8263 4.67431C62.1557 4.95669 62.1086 5.19201 61.7321 5.3332C61.5439 5.42732 61.4027 5.56851 61.2144 5.66264C61.1203 5.7097 60.9791 5.85089 60.932 5.80383C60.8379 5.7097 60.7438 5.61558 60.6967 5.47439C60.6967 5.19201 60.6967 4.86256 60.7438 4.58018C60.7438 4.34487 60.7909 4.15661 60.5085 3.96836C60.3673 3.87423 60.2732 3.68598 60.3202 3.49773C60.3202 3.49773 60.3202 3.49773 60.3202 3.45066C60.132 3.4036 60.0378 3.26241 60.0849 3.02709C60.0849 2.79178 60.2261 2.69765 60.3673 2.69765C60.4144 2.46233 60.4143 2.22702 60.4614 1.9917C58.3436 1.9917 56.2728 1.9917 54.1549 1.9917C54.1549 2.08583 54.1079 2.22702 54.0608 2.27408C53.9196 2.32114 53.7784 2.32114 53.6372 2.32114C53.5431 2.32114 53.496 2.27408 53.4019 2.22702C53.3548 2.17995 53.3078 2.08583 53.2607 2.03876C52.8842 2.03876 52.5077 2.03876 52.1783 2.03876C52.1783 2.08583 52.1783 2.08583 52.1783 2.13289C52.1312 2.46233 52.0371 2.55646 51.6606 2.5094C51.3782 2.46233 51.1899 2.41527 51.2841 2.08583C50.8134 2.08583 50.3428 2.08583 49.8722 2.08583C46.06 2.08583 42.2479 2.08583 38.3887 2.08583C37.9651 2.08583 37.8239 2.22702 37.8239 2.65059C37.8239 3.30947 37.8239 3.96836 37.8239 4.62725C37.8239 5.05082 37.6827 5.14494 37.3062 5.14494C36.6474 5.09788 35.9885 5.14494 35.3296 5.14494C34.906 5.14494 34.8119 5.28613 34.8119 5.66264C34.8119 6.55685 34.8119 7.45105 34.8119 8.39232C34.8589 8.34525 34.906 8.29819 35.0001 8.25113C35.1413 8.20406 35.2825 8.06287 35.3766 8.10994C35.4708 8.157 35.5178 8.34525 35.5649 8.48644C35.612 8.58057 35.5649 8.6747 35.5649 8.76882C35.5649 8.86295 35.5178 8.95708 35.5178 9.0512C35.4237 9.23946 35.4708 9.5689 35.1413 9.52184C35.0472 9.52184 34.9531 9.47477 34.8589 9.47477C34.8589 9.75715 34.8589 10.0395 34.8589 10.3219C34.8589 11.122 34.8589 11.9221 34.8589 12.7221C34.906 12.6751 35.0001 12.6751 35.0472 12.581C35.3766 12.2986 35.8473 12.4868 36.0355 12.8633C36.1767 13.0987 36.2708 13.0987 36.5062 12.9575C36.6003 12.8633 36.7415 12.7692 36.8827 12.7692C37.0709 12.7692 37.3533 12.8163 37.4004 12.9575C37.4945 13.1457 37.4474 13.381 37.3533 13.5693C37.3533 13.6634 37.118 13.7105 37.0239 13.7105C36.6474 13.6634 36.2238 13.6163 35.8473 13.5693C35.5649 13.5222 35.2825 13.5222 34.9531 13.4752C34.906 13.4752 34.906 13.4752 34.8589 13.4752C34.8589 14.0399 34.8589 14.6047 34.8589 15.1224C35.0472 15.0753 35.2355 15.0282 35.4708 15.0282C35.659 15.0282 35.8473 15.1224 36.0355 15.1694C36.0826 15.1694 36.1297 15.2636 36.1297 15.3106C36.1297 15.3577 36.0826 15.4048 36.0355 15.4048C35.8473 15.4048 35.659 15.4048 35.3296 15.4048C35.2355 15.3577 35.0472 15.2165 34.906 15.1224C34.906 15.7342 34.906 16.299 34.906 16.9108C35.0001 16.9108 35.0943 16.9108 35.2355 16.9578C35.5178 17.0049 35.612 17.1932 35.5178 17.6638C35.4708 17.9932 35.3296 18.0874 34.9531 17.9932C34.9531 19.9699 34.9531 21.9936 34.9531 23.9703C34.9531 24.6292 34.9531 24.6292 34.2942 24.6292C33.6824 24.6292 33.0235 24.6292 32.4116 24.6292C32.0822 24.6292 31.941 24.7704 31.941 25.0998C31.941 25.7587 31.941 26.4646 31.941 27.1235C31.941 27.5471 31.7998 27.6883 31.3763 27.6883C30.5291 27.6883 29.6349 27.6883 28.7878 27.6883C28.7878 27.8765 28.7407 28.0648 28.4583 28.0648C28.3642 28.0648 28.1759 27.8765 28.0348 27.6883C27.9877 27.6883 27.8936 27.6883 27.8465 27.6883C27.47 27.6883 27.3759 27.8295 27.3759 28.1589C27.3759 28.5825 27.3759 29.0061 27.3759 29.4296C27.47 29.4767 27.5171 29.4767 27.6112 29.5238C27.8465 29.6179 28.0348 29.8532 28.223 29.9003C28.4113 29.9473 28.5995 29.712 28.8348 29.665C29.0702 29.6179 29.3055 29.665 29.4937 29.7591C29.8232 29.9003 29.9644 30.2768 29.7761 30.5592C29.729 30.6533 29.5408 30.7003 29.4467 30.7003C29.2113 30.7003 28.929 30.6533 28.6936 30.6533C28.6936 30.6533 28.6936 30.6533 28.6936 30.6062C28.2701 30.5592 27.7994 30.5121 27.3759 30.465C27.3288 30.6533 27.1876 30.7003 26.9052 30.7003C26.4817 30.7003 26.0581 30.7003 25.6345 30.7003C24.9286 30.7003 24.1756 30.7003 23.4696 30.7003C23.046 30.7003 22.9049 30.7945 22.9049 31.2651C22.9519 31.924 22.9049 32.5829 22.9049 33.2418C22.9049 33.6183 22.8107 33.7595 22.4342 33.7595C21.7753 33.7124 21.0694 33.7595 20.4105 33.7595C20.034 33.7595 19.8928 33.8536 19.8928 34.2772C19.8928 34.9831 19.8928 35.6891 19.8928 36.395C19.8928 36.7245 19.7987 36.8186 19.4692 36.8186C19.328 36.8186 19.2339 36.8186 19.0927 36.8186C19.0457 36.8657 18.9986 36.8657 18.9515 36.9127C18.9045 36.9127 18.8574 36.9598 18.8103 36.9598C18.6691 37.0539 18.4809 37.2892 18.3868 37.2422C18.1985 37.148 18.0573 36.9598 17.8691 36.8186C17.3043 36.8186 16.7396 36.8186 16.2219 36.8186C16.0807 36.9598 15.8924 37.0539 15.61 37.0068C15.5159 36.9598 15.4218 36.8657 15.3276 36.8186C14.9982 36.8186 14.6688 36.8186 14.3393 36.8186C14.1981 36.8186 14.104 36.7715 14.0569 36.7715C13.7746 36.7715 13.4922 36.6774 13.2098 36.4421C13.0686 36.348 12.9274 36.2538 12.7392 36.2068C12.5509 36.1597 12.3627 36.1126 12.4097 35.8773C12.4568 35.642 12.3627 35.3596 12.645 35.2184C12.7862 35.1714 12.8333 35.0302 12.9745 34.9361C13.0686 34.889 13.1627 34.8419 13.2569 34.8419C13.3039 34.8419 13.351 34.9831 13.3981 35.0772C13.3981 35.1243 13.3981 35.1714 13.3981 35.1714C13.351 35.4537 13.351 35.7361 13.7746 35.8303H13.8216C13.8216 35.3126 13.8216 34.7478 13.8216 34.2301C13.8216 33.9007 13.7275 33.8065 13.3981 33.8065C12.6921 33.8065 11.9862 33.8065 11.2802 33.8065C10.9978 33.8065 10.8566 33.7124 10.8096 33.5242C10.7625 33.5242 10.6684 33.5242 10.6213 33.5242C10.5742 33.8536 10.5272 34.136 10.4801 34.4654C10.4331 34.7949 10.2448 34.889 10.0095 34.8419C9.96243 35.0772 9.96243 35.3596 9.91536 35.5949C9.8683 35.6891 9.72711 35.7361 9.68005 35.8303C9.63298 35.7361 9.49179 35.642 9.49179 35.5479C9.44473 35.1243 9.63298 34.9361 10.0566 34.889C10.1036 34.5595 10.1507 34.2772 10.1507 33.9477C10.1507 33.6183 10.3389 33.43 10.6684 33.5242C10.6684 33.3359 10.7154 33.1947 10.8566 33.1006C10.8566 32.5358 10.8566 31.9711 10.8566 31.4063C10.8566 30.7945 10.8566 30.7945 10.2448 30.7945C9.63298 30.7945 9.02116 30.7474 8.40934 30.7945C7.98576 30.8415 7.89164 30.6533 7.89164 30.2768C7.89164 29.5708 7.89164 28.8649 7.89164 28.1589H7.84457C7.56219 28.1119 7.27981 28.0648 6.95037 28.0177C6.66799 27.9707 6.43267 27.9236 6.24442 28.2531C6.15029 28.3942 6.0091 28.3472 5.96204 28.1589C5.96204 28.0648 5.91498 28.0177 5.91498 27.9236C5.91498 27.5471 5.77379 27.3589 5.35022 27.3118C5.20903 27.3118 5.06784 27.1706 5.02077 27.0765C4.97371 26.8882 5.1149 26.7941 5.30315 26.7C5.91498 26.4176 5.91498 26.4176 5.96204 27.0294C6.0091 27.2177 6.05617 27.3589 6.29148 27.4059C6.47974 27.453 6.76212 27.5471 6.85624 27.2647C6.99743 26.8882 7.46807 26.9823 7.70338 26.7C7.70338 26.7 7.79751 26.7 7.89164 26.747C7.89164 26.2764 7.89164 25.8058 7.89164 25.3351C7.89164 24.7704 7.84457 24.7233 7.27981 24.7233C6.66799 24.7233 6.10323 24.7704 5.49141 24.7233C5.06784 24.7233 4.92665 24.8645 4.92665 25.2881C4.92665 27.9236 4.92665 30.5121 4.92665 33.1476C4.92665 35.2184 4.92665 37.2892 4.92665 39.36C4.97371 39.2659 5.06784 39.1718 5.1149 39.0776C5.25609 38.7011 5.30315 38.7011 5.53847 39.0306C5.72672 39.2659 6.05617 39.36 6.10323 39.7365C6.10323 39.7836 6.47974 39.8306 6.71505 39.8306C6.80918 39.8306 6.95037 39.6424 6.95037 39.5012C6.99743 39.2659 6.99743 38.9835 7.09156 38.7482C7.13862 38.607 7.27981 38.5129 7.37394 38.4187C7.421 38.5599 7.60926 38.7011 7.56219 38.7482C7.32688 39.2659 7.79751 39.5012 7.98576 39.8777C8.07989 40.066 8.26815 40.066 8.36227 39.8777C8.50346 39.5953 8.73878 39.6424 8.9741 39.6424C9.77417 39.7365 10.5272 39.8306 11.3273 39.9248C12.2685 40.0189 13.2098 40.113 14.104 40.2542C14.4334 40.3013 14.7629 40.2542 14.9041 40.7248C14.9511 40.9602 16.5042 41.1014 16.6925 40.9602C16.9278 40.7719 17.1631 40.5837 17.4455 40.3954C17.4926 40.3483 17.6808 40.3954 17.7279 40.4425C18.1515 40.9131 18.9515 41.0543 19.4222 40.6778C19.6575 40.4895 19.9869 40.5366 20.1752 40.7719C20.3634 41.0543 20.5987 41.2896 20.8341 41.5249C20.8811 41.572 21.0694 41.572 21.0694 41.5249C21.2576 41.1955 21.5871 41.1955 21.8695 41.1484C22.1518 41.1014 22.1989 40.9131 22.1989 40.6778C22.246 40.4425 22.3401 40.2542 22.6225 40.3013C22.8578 40.3483 23.1402 40.3954 23.1402 40.7248C23.1872 41.2425 23.3284 41.3837 23.8932 41.4308C24.4579 41.4779 25.0227 41.5249 25.5875 41.572C25.6816 41.572 25.7757 41.572 25.8228 41.572C26.0581 41.7132 26.2934 41.0072 26.5287 41.572C26.6229 41.8544 27.0935 41.7602 27.0935 42.1838C27.0935 42.2309 27.2817 42.325 27.3759 42.325C27.5641 42.3721 27.7053 42.3721 27.8936 42.3721C28.0818 42.3721 28.3171 42.5133 28.4113 42.2309C28.4583 41.9956 28.6466 41.7132 28.3642 41.5249C28.223 41.3837 28.0818 41.2896 28.1759 41.1014C28.223 41.0543 28.3642 40.9602 28.4113 40.9602C28.5995 41.0543 28.7878 41.1484 29.0231 41.2896V41.3837C29.0231 41.9014 29.3525 42.0426 29.7761 42.1367C30.3879 42.2779 30.3879 42.2779 30.5291 41.619C30.5762 41.4308 30.6232 41.2896 30.8586 41.3367C31.0468 41.3837 31.0939 41.5249 30.9997 41.7132C30.8115 42.0897 31.0468 42.2309 31.3292 42.2779C31.6116 42.3721 31.894 42.4191 32.1763 42.4662C32.4587 42.5133 32.7411 42.5133 32.8823 42.8898C32.9764 43.1251 33.4941 43.1251 33.7294 42.9368C34.0118 42.7015 34.7178 42.7015 35.0001 42.9368C35.0943 43.0309 35.0472 43.1721 35.2355 42.9839C35.5178 42.7015 36.0355 42.8898 36.2238 43.2192C36.365 43.4545 36.5532 43.6898 36.7415 43.8781C36.7885 43.9252 36.9297 43.9252 36.9297 43.9252C37.118 43.5957 37.4474 43.5957 37.6827 43.4075C38.0122 43.1721 37.9651 43.1721 38.0593 43.5486C38.1534 44.0193 38.1063 44.4429 37.871 44.8664C37.8239 44.9135 37.5886 44.9135 37.5886 44.9135C37.4004 44.4429 36.9768 44.4899 36.6003 44.4429C36.365 44.3958 36.1297 44.3958 36.0355 44.0663C35.9885 43.8781 35.7531 43.831 35.659 44.0663C35.5649 44.3017 35.3766 44.3487 35.1884 44.3017C34.5766 44.2546 33.9647 44.3487 33.5412 43.6898C33.4 43.5016 32.8352 43.5016 32.694 43.6898C32.5528 43.9252 32.3646 43.8781 32.1763 43.8781C31.6116 43.784 30.9998 43.7369 30.435 43.6428C29.9644 43.5957 29.4467 43.5016 29.0231 43.831C28.976 43.8781 28.8348 43.8781 28.7878 43.831C28.5995 43.5957 28.4583 43.3604 28.3171 43.1251C28.1289 42.8427 27.9877 42.7956 27.7994 43.078C27.6583 43.2663 27.5641 43.2663 27.3759 43.2663C26.4817 43.1721 25.6345 43.0309 24.7403 42.9368C24.4579 42.8898 24.1285 42.9839 23.8461 43.1251C23.4696 43.3133 23.1402 43.2663 22.8578 42.8898C22.6695 42.6544 22.3872 42.5603 22.246 42.2309C22.1989 42.0897 21.5871 42.0897 21.4459 42.2779C21.3047 42.4662 21.1164 42.4662 20.9282 42.4662C20.5987 42.4191 20.2222 42.4191 19.8928 42.325C19.5163 42.2779 19.1868 42.2779 18.9045 42.5133C18.7162 42.6544 18.6221 42.6544 18.4338 42.4662C18.2456 42.325 18.0103 42.0897 17.822 42.0897C17.3043 42.0897 16.8337 41.9014 16.2689 42.1838C15.9395 42.3721 15.3747 42.325 14.9982 41.9014C14.6688 41.5249 14.3393 41.5249 13.9157 41.8073C13.6334 41.9956 13.2098 41.9956 13.0215 41.7132C12.8333 41.4779 12.7392 41.4779 12.5038 41.6661C12.2215 41.8544 11.845 41.7602 11.6096 41.5249C11.4685 41.4308 11.3273 41.3367 11.1861 41.2425C11.139 41.2425 11.0919 41.1955 11.0919 41.1955C10.6684 41.572 10.7154 40.113 10.1507 40.9602C9.72711 40.9131 9.25648 40.9131 8.83291 40.866C8.12696 40.819 7.46807 40.7719 6.76212 40.7248C6.38561 40.6778 5.91498 40.6778 5.77379 40.1601C5.77379 40.066 5.58553 40.0189 5.49141 40.0189C5.25609 39.9718 5.06784 39.9718 4.83252 39.9248C4.83252 40.5837 4.83252 41.1955 4.83252 41.8544C4.83252 42.5133 4.83252 42.5133 5.49141 42.5133C6.05617 42.5133 6.57386 42.5133 7.13862 42.5133C7.84457 42.5133 7.84457 42.5133 7.84457 43.1721C7.84457 43.5486 7.84457 43.8781 7.84457 44.2546C8.17402 44.2546 8.31521 44.1134 8.36227 43.7369C8.40934 43.2663 9.11529 42.8898 9.53886 43.031C9.58592 43.031 9.63298 43.0309 9.63298 43.078C9.82124 43.4545 10.1977 43.6428 10.5743 43.6898C10.6213 43.6898 10.6684 43.831 10.6213 43.8781C10.6213 43.9252 10.5272 44.0193 10.4801 44.0193C10.2448 44.0193 10.0095 44.0193 9.77417 43.9722C9.77417 43.9722 9.77417 43.9722 9.77417 43.9252C9.53886 43.9252 9.25648 43.8781 9.02116 43.8781C8.92703 43.8781 8.83291 43.9722 8.83291 44.0663C8.83291 44.1134 8.87997 44.2546 8.9741 44.3017C9.06822 44.3958 9.20941 44.3958 9.3506 44.4429C9.44473 44.4899 9.58592 44.537 9.58592 44.584C9.63298 44.8194 9.68005 45.0547 9.63298 45.29C9.63298 45.3371 9.39767 45.4312 9.30354 45.4312C9.06822 45.4312 8.78584 45.5253 8.64465 45.1959C8.59759 45.1017 8.50346 45.0076 8.4564 44.9135C8.36227 45.0076 8.22108 45.1017 8.22108 45.1959C8.17402 45.29 8.12695 45.3841 8.07989 45.4782C8.12695 45.4782 8.22108 45.5253 8.31521 45.5253C9.02116 45.5253 9.72711 45.5253 10.4331 45.5253C10.5742 45.5253 10.6684 45.5724 10.7625 45.6194C10.9037 45.4312 11.0919 45.29 11.2802 45.1959C11.7508 45.0547 11.7979 44.7252 11.845 44.3487C11.892 44.1134 11.892 43.831 11.9391 43.5957C11.9391 43.5016 12.0803 43.4545 12.1744 43.4075C12.2215 43.5016 12.3627 43.5957 12.3627 43.6428C12.3627 43.8781 12.3627 44.0663 12.3156 44.3017C12.2685 44.537 12.2685 44.7252 12.5038 44.8664C12.598 44.9135 12.645 45.1017 12.6921 45.1959C12.6921 45.4782 12.6921 45.8077 12.645 46.0901C12.645 46.1842 12.5038 46.3254 12.4097 46.3724C12.3156 46.3724 12.1273 46.2783 12.0803 46.2313C11.9391 45.8077 11.845 45.7606 11.5626 46.1371C11.4214 46.3254 11.0919 46.3254 10.9508 46.6078C10.9508 46.6078 10.9508 46.6078 10.9037 46.6078C10.9037 47.1255 10.9037 47.6432 10.9037 48.1609C10.9037 48.4903 11.0449 48.6315 11.3743 48.6315C12.0332 48.6315 12.7392 48.6315 13.3981 48.6315C13.8216 48.6315 13.9157 48.7727 13.9157 49.1492C13.9157 49.8081 13.9157 50.514 13.9157 51.1729C13.9157 51.3612 13.9628 51.4553 14.0099 51.5494C14.2452 51.5024 14.4805 51.5494 14.7629 51.5965C14.857 51.5965 14.9041 51.5965 14.9982 51.6435C15.2335 51.6906 15.4218 51.5494 15.6571 51.4553C15.7042 51.4553 15.8453 51.5965 15.9395 51.6906C16.1277 51.6906 16.2689 51.6906 16.4572 51.6906C16.6925 51.6906 16.8337 51.7377 16.8807 51.8789C17.069 51.8789 17.2572 51.8318 17.4455 51.6906C17.7749 51.4553 18.1985 51.6435 18.4809 51.973C18.528 52.0671 18.6221 52.1142 18.6691 52.1612C18.9045 52.3495 18.8574 52.4436 18.6221 52.5377C18.528 52.5848 18.3868 52.6319 18.3397 52.726C18.2456 52.9143 18.1515 53.0554 17.9161 53.0554C17.822 53.0554 17.7749 53.1496 17.6808 53.1966C17.4455 53.432 17.1161 53.4319 16.8807 53.2908C16.8807 53.5731 16.8807 53.8085 16.8807 54.0908C16.8807 54.4203 16.9749 54.6085 17.3514 54.5615C17.9632 54.5144 18.528 54.5615 19.1398 54.5615C20.034 54.5615 19.9399 54.4203 19.9399 55.3615C19.9399 58.2324 19.9399 61.0562 19.9399 63.9271C20.3164 64.3036 20.8341 64.3507 21.3518 64.0683C21.4459 64.0212 21.6812 64.0212 21.7283 64.0683C21.9636 64.4448 22.3401 64.4918 22.7166 64.5389C23.046 64.586 23.1872 64.7742 23.1872 65.1037C23.2343 65.4802 23.1402 65.5743 22.7637 65.5272C22.0577 65.4331 21.3988 65.339 20.7399 65.2449C20.5517 65.1978 20.3634 65.1507 20.2222 64.9154C20.1752 64.8213 20.081 64.7272 19.9399 64.6801C19.9399 65.1507 19.9399 65.6214 19.9399 66.092C19.9399 66.4214 19.9399 66.6568 20.3634 66.6568C22.1048 66.6568 23.7991 66.6568 25.5404 66.6568C25.8228 66.6568 25.964 66.5156 25.9169 66.2332C25.9169 65.4802 25.9169 64.7742 25.9169 64.0212C25.9169 63.6918 25.8228 63.5976 25.4933 63.5976C24.7874 63.5976 24.0814 63.5976 23.3755 63.5976C23.046 63.5976 22.8578 63.5035 22.8578 63.127C22.8578 62.4211 22.8578 61.7151 22.8578 61.0092C22.8578 60.6797 22.9519 60.5385 23.3284 60.5385C24.0344 60.5385 24.6933 60.5385 25.3992 60.5385C25.8228 60.5385 25.9169 60.3973 25.9169 60.0208C25.8698 59.3619 25.9169 58.703 25.9169 58.0442C25.9169 57.6677 26.011 57.4794 26.4346 57.5265C27.0935 57.5735 27.7994 57.5265 28.4583 57.5265C28.7878 57.5265 28.8819 57.3853 28.8819 57.1029C28.8819 56.3969 28.8819 55.691 28.8819 54.985C28.8819 54.6556 29.0231 54.5615 29.3055 54.5615C30.0114 54.5615 30.7644 54.5615 31.4704 54.5615C31.7998 54.5615 31.941 54.6556 31.941 55.0321C31.941 55.7381 31.941 56.444 31.941 57.15C31.941 57.4794 32.0351 57.5735 32.3646 57.5735C33.0235 57.5735 33.6824 57.5735 34.3412 57.5735C34.906 57.5735 34.906 57.5735 34.906 58.1854C34.906 60.8209 34.906 63.4564 34.906 66.092C34.906 66.3744 34.906 66.6568 35.3296 66.6568C35.8002 66.6568 36.3179 66.6568 36.7885 66.6568C36.7885 66.6097 36.7415 66.6097 36.7415 66.5626C36.8827 66.4685 37.0239 66.3273 37.118 66.3744C37.2121 66.4214 37.3533 66.6097 37.3533 66.6568C37.4945 66.6568 37.6357 66.6568 37.7769 66.6568C37.9651 66.6568 38.0593 66.5156 38.1063 66.5156ZM42.6715 46.9372C42.7185 46.8901 42.8127 46.6548 42.9538 46.5607C43.1892 46.4666 43.3303 46.6548 43.3774 46.8901C43.3774 46.9372 43.4245 46.9843 43.4245 47.0313C43.5186 47.2196 43.5657 47.4078 43.6598 47.549C43.4245 47.5961 43.2362 47.7373 43.0009 47.7373C42.6715 47.7844 42.5773 47.549 42.6715 46.9372ZM50.5781 32.3946C50.5781 32.3005 50.7664 32.2534 50.9076 32.2064C50.9076 32.2534 50.9076 32.3005 50.9076 32.3476C51.3311 32.3476 51.8018 32.3946 52.2253 32.3946C52.7901 32.4417 53.0254 32.7241 52.8842 33.1947C52.8371 33.2888 52.743 33.43 52.696 33.43C52.6018 33.43 52.4606 33.3359 52.4606 33.2888C52.3195 32.9123 52.2253 32.9123 51.9429 33.1947C51.7076 33.4771 51.1429 33.3359 50.9546 33.0535C50.8605 32.9594 50.7664 32.8653 50.7193 32.7711C50.6252 32.677 50.531 32.5358 50.5781 32.3946ZM47.4719 31.5004C47.5661 31.0769 47.8484 31.171 48.1308 31.171C48.4603 31.2651 48.5544 31.5004 48.4603 31.9711C48.4603 32.0181 48.4132 32.0652 48.4132 32.1122C48.5073 32.1593 48.6014 32.2534 48.6014 32.3476C48.6014 32.4417 48.4603 32.4888 48.3661 32.6299C48.3191 32.4888 48.2249 32.3946 48.2249 32.3005C48.1308 32.3476 47.9896 32.3005 47.8484 32.3005C47.4719 32.1593 47.3778 31.9711 47.4719 31.5004ZM64.2265 12.2515C64.2735 12.2515 64.3206 12.3456 64.3677 12.3927C64.2735 12.4398 64.2265 12.4868 64.1324 12.4868C64.0853 12.4868 64.0382 12.3927 63.9441 12.2986C64.0853 12.2986 64.1324 12.2515 64.2265 12.2515ZM57.3552 18.4639C57.3082 18.4639 57.167 18.3227 57.167 18.2286C57.167 18.1344 57.3082 18.0403 57.4494 17.8991C57.5435 18.0874 57.6847 18.1815 57.6376 18.2756C57.6376 18.3697 57.4964 18.4639 57.3552 18.4639ZM58.673 16.3931C58.6259 16.3931 58.5789 16.3931 58.4848 16.3931C58.4848 16.6284 58.3906 16.8637 58.0141 16.9108C58.0141 16.9108 57.9671 16.9108 57.9671 16.9578C57.7788 17.099 57.6847 17.3814 57.4023 17.1461C57.2611 17.0049 57.3082 16.4402 57.4964 16.2519C57.1199 16.2048 56.7434 16.1578 56.3669 16.1107C56.1786 16.0636 55.9904 16.0166 56.0845 15.7813C56.1316 15.5459 56.2728 15.593 56.461 15.6401C56.9317 15.6871 57.4494 15.7342 57.92 15.7813C57.8729 15.6871 57.8259 15.6401 57.6847 15.5459C57.5905 15.4518 57.5435 15.2636 57.5435 15.1224C57.5435 14.4164 57.5905 13.7105 57.6847 13.0045C57.7317 12.6751 57.8729 12.581 58.5318 12.6751C58.5789 12.7221 58.8613 12.8633 58.8613 13.0045C58.8613 13.334 58.9554 13.8046 58.5318 13.9929C58.1082 14.134 58.1082 14.3223 58.4377 14.5576L58.4848 14.6047C58.4848 15.0282 58.5789 15.4518 58.5318 15.8754C58.5789 15.8754 58.673 15.8754 58.7201 15.8754C58.9554 15.8754 59.0966 15.9695 59.0966 16.2048C59.0495 16.4402 58.8613 16.4402 58.673 16.3931ZM58.1082 12.1103C58.1553 12.0633 58.2494 11.9691 58.2965 12.0162C58.3906 12.0633 58.4377 12.1103 58.4848 12.2044C58.4377 12.2515 58.3906 12.2986 58.2965 12.3927C58.2024 12.2515 58.1553 12.1574 58.1082 12.1103ZM59.0024 11.3102C58.9554 11.6397 58.6259 11.5456 58.4377 11.4985C58.2024 11.4985 57.9671 11.4514 57.9671 11.122C57.9671 10.8867 58.0141 10.6043 58.0612 10.369C58.0612 10.2278 58.0612 10.0395 58.1082 9.89834C58.1553 9.71009 58.2494 9.5689 58.2965 9.38065C58.3906 9.47477 58.5318 9.5689 58.6259 9.66303C58.8142 9.80422 59.0966 9.94541 59.1436 10.0866C59.1436 10.4631 59.0495 10.8867 59.0024 11.3102ZM58.4377 6.50978C58.4377 6.41566 58.7201 6.2274 58.8142 6.2274C59.0495 6.32153 59.2378 6.50978 59.4731 6.65097C59.3319 6.79216 59.1436 6.88629 59.0966 6.93335C58.673 6.88629 58.3906 6.88629 58.4377 6.50978ZM59.5672 13.381C59.9908 13.1928 60.0378 13.0516 59.6613 12.7692C59.6143 12.7221 59.5672 12.581 59.5672 12.4868C60.0849 12.2986 60.2732 11.4514 61.0262 11.7809C61.2144 11.875 61.4497 11.8279 61.638 11.9221C61.7321 11.9691 61.8263 12.0633 61.8263 12.1574C61.8263 12.2515 61.7321 12.3927 61.638 12.4398C60.9791 12.8163 60.5085 13.334 60.5085 14.134C60.5085 14.4164 60.5085 14.7459 60.0849 14.6988C59.8025 14.6517 59.4731 14.5576 59.2848 14.3694C59.1436 14.1811 59.3319 13.4752 59.5672 13.381ZM61.1674 16.7696C61.0732 16.7696 60.9791 16.8637 60.885 16.9108C60.7438 16.9578 60.6026 17.099 60.4143 17.099C59.9437 17.099 59.8496 17.0049 59.9437 16.4872C59.9437 16.299 60.0378 16.1578 60.3202 16.0636C60.6026 15.9695 60.7438 15.6401 61.1203 15.7342C61.4497 15.8283 61.4968 16.0166 61.5439 16.2519C61.5909 16.5343 61.4968 16.7696 61.1674 16.7696ZM61.7321 16.5343C61.6851 16.5343 61.5439 16.3931 61.5909 16.3931C61.638 16.299 61.7321 16.2519 61.8263 16.1578C61.9204 16.2519 61.9674 16.346 62.0145 16.3931C61.8733 16.4402 61.7792 16.5343 61.7321 16.5343ZM63.4264 6.69804C63.5205 6.7451 63.5676 6.79216 63.6147 6.88629C63.5676 6.93335 63.5205 6.98042 63.4264 7.07454C63.3793 6.98042 63.2852 6.88629 63.2852 6.83923C63.2852 6.7451 63.3793 6.65097 63.4264 6.69804ZM62.7675 16.3931C62.8146 16.5343 62.9087 16.6284 62.9087 16.7225C62.9087 16.8167 62.7675 16.9108 62.6734 16.8637C62.6263 16.8637 62.4851 16.7225 62.5322 16.6284C62.5322 16.5343 62.6263 16.4872 62.7675 16.3931ZM62.5322 12.2044C62.4851 12.3456 62.4381 12.4868 62.391 12.5339C62.3439 12.628 62.2498 12.6751 62.2028 12.7221C62.1557 12.628 62.0616 12.581 62.0616 12.4868C62.0145 12.3927 62.0145 12.2986 62.0145 12.2044C62.0145 12.0633 62.0616 11.9691 62.1557 11.875C62.2028 11.8279 62.391 11.8279 62.4381 11.9221C62.4851 12.0162 62.4851 12.1574 62.5322 12.2044ZM60.4614 7.02748C60.5555 7.02748 60.6026 6.79216 60.6967 6.69804C60.7909 6.55685 60.932 6.46272 61.0262 6.41566C61.5909 6.50978 61.8263 6.7451 61.8263 7.21573C61.8263 7.49811 61.8263 7.73343 62.2028 7.87462C62.4851 7.96875 62.4381 8.20406 62.2028 8.29819C61.5909 8.48644 61.4027 9.0512 61.1203 9.52184C61.0262 9.66303 60.932 9.85128 60.7909 9.99247C60.6497 9.85128 60.5085 9.71009 60.3673 9.61596C59.7084 9.33358 59.9437 8.81589 59.9908 8.29819C60.0378 8.10994 60.0378 7.87462 60.0849 7.68637C60.0378 7.40399 60.0378 7.12161 60.4614 7.02748ZM57.4023 2.93297C57.8729 2.41527 58.4848 2.41527 59.0966 2.5094C59.0495 2.46233 58.9554 2.41527 58.9083 2.36821C59.0966 2.32114 59.2848 2.22702 59.5201 2.13289C59.6613 2.27408 59.8025 2.41527 59.9437 2.5094C59.8496 2.55646 59.7084 2.69765 59.6613 2.74471C59.6613 2.83884 59.6613 2.98003 59.6613 3.07416C59.6143 3.30947 59.5672 3.49773 59.2378 3.45066C58.9554 3.4036 58.673 3.4036 58.4377 3.35654C58.1082 3.30947 57.8259 3.30947 57.4964 3.21535C57.4494 3.21535 57.3552 3.12122 57.3552 3.07416C57.3082 3.07416 57.3552 2.98003 57.4023 2.93297ZM56.0375 2.22702C56.0845 2.22702 56.2257 2.36821 56.1786 2.41527C56.1316 2.5094 56.0375 2.55646 55.9433 2.60352C55.8963 2.60352 55.8021 2.5094 55.708 2.41527C55.8963 2.32114 55.9433 2.22702 56.0375 2.22702ZM55.5668 12.1574C55.6139 12.0633 55.7551 12.0633 55.8492 12.0162C55.9433 12.0633 55.9904 12.0633 56.0375 12.1103C56.1786 12.2044 56.3669 12.2986 56.5081 12.3927C56.461 12.4398 56.461 12.5339 56.414 12.5339C56.1316 12.5339 55.8963 12.5339 55.6139 12.4868C55.6139 12.4868 55.5198 12.2515 55.5668 12.1574ZM55.2374 17.7579C55.0021 17.9462 54.8138 18.0874 54.5785 18.2756C54.5314 18.2756 54.3902 18.1815 54.3432 18.0874C54.2961 17.9932 54.3432 17.8521 54.2961 17.6638C54.3432 17.6167 54.4844 17.3814 54.5314 17.4285C54.7667 17.4755 55.0021 17.5697 55.1903 17.6638C55.2844 17.6638 55.2844 17.7579 55.2374 17.7579ZM54.7197 3.26241C54.7667 3.21535 54.8138 3.12122 54.8609 3.12122C54.9079 3.12122 54.955 3.21535 55.0021 3.26241C55.0021 3.30947 55.0021 3.4036 55.0021 3.49773C54.955 3.63892 54.8609 3.78011 54.7667 3.9213C54.7197 3.78011 54.6726 3.63892 54.6256 3.54479C54.7197 3.4036 54.7197 3.35654 54.7197 3.26241ZM53.6843 10.9808C53.6843 10.9337 53.7314 10.8396 53.7784 10.7455C53.8255 10.6514 53.9196 10.5572 54.0137 10.4631C54.0608 10.5572 54.1079 10.6514 54.202 10.7455C54.2491 10.8396 54.3432 10.9337 54.3902 11.0279C54.4844 11.122 54.5314 11.2161 54.6256 11.3102C54.4844 11.3573 54.3902 11.4044 54.2491 11.4044C53.7784 11.4044 53.6372 11.3102 53.6843 10.9808ZM52.8372 15.1694C53.1666 14.9341 53.449 14.6517 53.8725 14.8871C53.9667 14.9341 54.1079 14.9812 54.1549 15.0753C54.202 15.4518 54.5314 15.4048 54.7667 15.4518C54.955 15.4989 55.1433 15.4989 55.1433 15.7342C55.0962 15.9695 54.9079 15.9225 54.7197 15.9225C54.6256 15.9225 54.5785 15.8754 54.4373 15.8754C54.1549 15.9225 53.8255 15.7342 53.5431 16.1107C53.4019 16.299 53.0725 16.2519 53.0254 16.0166C53.0254 15.6871 52.2253 15.593 52.8372 15.1694ZM52.696 18.1344C52.743 18.1344 52.8372 18.2756 52.7901 18.3227C52.743 18.4168 52.6489 18.4639 52.5548 18.5109C52.5077 18.5109 52.4136 18.4639 52.2253 18.3697C52.5548 18.1815 52.6489 18.1344 52.696 18.1344ZM52.0841 10.1807C52.1312 10.1807 52.1783 10.3219 52.2253 10.369C52.1312 10.416 52.0841 10.5102 51.99 10.5102C51.9429 10.5102 51.8959 10.369 51.8018 10.2748C51.9429 10.2278 52.0371 10.1807 52.0841 10.1807ZM51.99 11.2161C52.0371 11.4044 52.1312 11.5456 52.1312 11.7338C52.1312 11.9221 52.1312 12.1103 51.8488 12.0633C51.7547 12.0162 51.6606 11.8279 51.5664 11.6397C51.7076 11.4985 51.8488 11.3573 51.99 11.2161ZM50.8134 14.9341C51.1899 14.9812 51.5664 14.9812 51.8488 14.6988C51.99 14.5576 52.1312 14.6517 52.1783 14.84C52.2253 14.9341 52.2253 15.0282 52.2253 15.1224C52.2724 15.5459 52.1783 15.593 51.7547 15.5459C51.6606 15.5459 51.5664 15.4989 51.4252 15.4989C51.1429 15.4989 50.8134 15.2636 50.5781 15.7342C50.484 15.9225 50.2487 15.8283 50.2016 15.593C50.1545 15.1224 50.2957 14.9341 50.8134 14.9341ZM50.2016 16.9578C50.2487 17.0049 50.2957 17.052 50.3428 17.099C50.2957 17.1461 50.2487 17.1932 50.2016 17.1932C50.1545 17.1932 50.1075 17.1461 50.0133 17.052C50.1075 17.0049 50.2016 16.9578 50.2016 16.9578ZM48.8838 10.2278C48.9309 10.0395 48.8838 9.75715 49.1662 9.80422C49.2603 9.80422 49.3074 10.0395 49.4015 10.2278C49.2603 10.369 49.1662 10.6043 49.0721 10.6043C48.7897 10.6514 48.8368 10.416 48.8838 10.2278ZM5.20903 34.889C5.39728 34.7949 5.58553 34.7007 5.82085 34.6537C6.0091 34.6066 6.15029 34.7478 6.10323 34.9831C6.05617 35.2655 5.82085 35.2655 5.44434 35.2184C5.44434 35.1714 5.35022 35.0302 5.20903 34.889ZM6.10323 38.1364C6.0091 38.0893 5.86791 38.0893 5.77379 38.0422C5.67966 37.9481 5.67966 37.7599 5.6326 37.6187C5.58553 37.4775 5.49141 37.3833 5.44434 37.2892C5.58553 37.2422 5.72672 37.1951 5.91498 37.148C6.0091 37.2422 6.24442 37.3363 6.24442 37.4304C6.24442 37.6657 6.15029 37.901 6.10323 38.1364ZM7.79751 31.0298C7.84457 31.0298 7.9387 31.1239 7.98576 31.171C7.89164 31.218 7.84457 31.3122 7.75045 31.3592C7.70338 31.3592 7.60926 31.2651 7.51513 31.171C7.65632 31.1239 7.70338 31.0298 7.79751 31.0298ZM8.4564 35.7361C8.40933 35.8303 8.26815 35.9244 8.26815 35.8773C8.03283 35.6891 7.75045 35.5479 7.60926 35.3126C7.46807 35.1243 7.60926 34.889 7.89164 34.889H7.9387C8.12696 34.8419 8.17402 34.4184 8.40934 34.6066C8.55053 34.7478 8.55053 35.0302 8.64465 35.2655C8.55053 35.4067 8.50346 35.5949 8.4564 35.7361ZM9.77417 31.0769C9.8683 31.2651 10.0095 31.3592 10.0095 31.4534C10.0095 31.5475 9.82124 31.6416 9.72711 31.6416C9.63298 31.6416 9.49179 31.5004 9.49179 31.4063C9.49179 31.3592 9.63298 31.2651 9.77417 31.0769ZM11.2331 35.8303C11.3273 35.9244 11.4214 36.0185 11.4214 36.1126C11.4214 36.2068 11.2802 36.3009 11.139 36.4421C11.0449 36.2538 10.9037 36.1126 10.9508 36.0656C10.9508 35.9714 11.139 35.9244 11.2331 35.8303ZM12.0332 39.2188C12.0332 39.3129 11.892 39.4071 11.845 39.5012C11.7979 39.4541 11.7508 39.4541 11.7038 39.4071C11.6567 39.3129 11.6096 39.1718 11.6096 39.0776C11.6096 38.3717 11.6096 38.3717 10.9508 38.2776C10.6213 38.2305 10.3389 38.2305 10.0095 38.1364C9.91536 38.1364 9.8683 37.9481 9.77417 37.854C9.8683 37.8069 9.96243 37.7128 10.0566 37.7128C10.2919 37.7128 10.4801 37.7599 10.7154 37.7599C10.8566 37.7599 10.9978 37.7599 11.139 37.7599C11.3743 37.8069 11.3743 37.1951 11.6567 37.5245C11.7979 37.7128 11.892 37.854 12.0803 37.9481C12.1273 37.9481 12.1744 38.0893 12.1744 38.1364C12.1273 38.5129 12.0803 38.8894 12.0332 39.2188ZM13.7275 38.5599C13.6804 38.607 13.6334 38.7011 13.5863 38.7482C13.4922 38.8423 13.351 38.9364 13.2569 38.9835C13.2098 38.8423 13.1157 38.7011 13.1157 38.6541C13.1627 38.2305 13.2098 38.0422 13.5392 38.1364C13.7746 38.1834 13.8687 38.3246 13.7275 38.5599ZM15.8924 39.9248C15.8924 40.0189 15.8924 40.113 15.8453 40.2071C15.7512 40.3954 15.563 40.4425 15.4218 40.2542C15.2806 40.113 15.1394 39.9248 15.0453 39.7836C14.9041 39.5953 14.9982 39.36 15.1865 39.3129C15.61 39.1718 15.9865 39.4541 15.8924 39.9248ZM21.3518 34.0889C21.3988 34.0889 21.493 34.0889 21.54 34.0419C21.8695 33.5242 22.0577 33.6183 22.1989 34.183C22.1989 34.2772 22.4813 34.3242 22.6695 34.3713C22.9519 34.4184 23.046 34.5595 22.999 34.9361C22.999 34.9831 22.8578 35.1714 22.7637 35.1714C22.293 35.1714 21.8224 35.1243 21.3518 35.0302C21.0694 34.9831 21.0223 34.7007 21.0223 34.4654C20.9753 34.2301 21.1164 34.0889 21.3518 34.0889ZM23.1872 37.5245C23.1872 37.6187 22.999 37.7599 22.9049 37.7599C22.8107 37.7599 22.6225 37.6657 22.6225 37.5716C22.5754 37.2892 22.3401 37.2892 22.1518 37.1951C21.9165 37.0539 21.8224 37.2422 21.6341 37.3833C21.4459 37.5245 21.0694 37.5245 20.8341 37.4775C20.7399 37.4775 20.6929 37.101 20.6458 36.8657C20.787 36.7245 20.9282 36.6303 21.0694 36.5362C21.2576 36.395 21.4459 36.2068 21.5871 36.2068C21.7283 36.2068 21.8695 36.5362 22.0577 36.6303C22.293 36.7245 22.6225 36.8657 22.8107 36.4891C22.8578 36.395 23.046 36.348 23.1402 36.395C23.2343 36.395 23.3284 36.5833 23.3284 36.6303C23.2814 36.9127 23.2343 37.2422 23.1872 37.5245ZM25.3521 37.5245C25.258 37.4775 25.211 37.3833 25.1168 37.2422C25.258 37.1951 25.3992 37.101 25.4463 37.101C25.5404 37.148 25.5875 37.2892 25.5875 37.3833C25.5875 37.4304 25.3992 37.5245 25.3521 37.5245ZM26.5758 40.1601C26.4817 40.1601 26.3875 39.9718 26.4346 39.9248C26.4346 39.8777 26.5758 39.7365 26.6699 39.7836C26.764 39.7836 26.8111 39.9248 26.9052 40.0189C26.764 40.066 26.6229 40.1601 26.5758 40.1601ZM26.764 34.2301C26.5758 34.2301 26.3875 34.2301 26.2463 34.2301C26.1522 34.2301 26.0581 34.3713 26.011 34.4654C26.011 34.5125 26.1052 34.6066 26.1993 34.6537C26.2934 34.7007 26.3875 34.7007 26.4817 34.7007C26.8111 34.7478 26.9523 34.9361 26.8582 35.2184C26.8111 35.4067 26.764 35.6891 26.6229 35.6891C26.3875 35.7832 26.0581 35.7361 25.8698 35.4538C25.6345 35.1243 25.3521 34.7949 25.1168 34.4184C25.0227 34.2772 25.0698 34.0419 25.0227 33.8536C24.9756 33.7595 24.9286 33.6653 24.8815 33.5712C24.8344 33.5242 24.6933 33.6183 24.6462 33.6653C24.4109 33.8536 23.5637 33.9477 23.3755 33.7124C23.2814 33.6183 23.2814 33.383 23.2814 33.2418C23.2814 33.1006 23.4225 32.9594 23.5637 32.9123C23.8932 32.8653 24.2226 32.9123 24.4579 32.5829C24.505 32.5358 24.6933 32.5829 24.8815 32.5358C24.9756 32.5829 25.1639 32.6299 25.1639 32.7241C25.211 33.1006 25.4933 33.0535 25.7287 33.1476C25.8228 33.1476 25.9169 33.1476 25.964 33.1947C26.1522 33.5712 26.4817 33.7124 26.8582 33.7595C26.9052 33.7595 26.9523 33.9007 26.9523 33.9948C26.9052 34.136 26.8111 34.2301 26.764 34.2301ZM29.5878 37.901C29.4937 38.1834 29.3055 38.0893 29.1172 38.0422C28.929 37.9952 28.7878 37.9952 28.5995 37.9481C28.1289 37.9481 28.0348 37.854 28.1289 37.3363C28.1289 37.2892 28.1289 37.1951 28.1759 37.101C28.2701 36.9127 28.5054 36.9127 28.5525 37.0539C28.6466 37.4304 28.929 37.4304 29.2113 37.4775C29.4467 37.5716 29.6349 37.6187 29.5878 37.901ZM29.6349 34.136C29.3525 34.136 29.0702 34.0889 28.7878 34.0419C28.5054 33.9948 28.5525 33.7595 28.5995 33.5712C28.4583 33.5712 28.2701 33.5242 28.1289 33.5242C28.0818 33.7124 28.1289 33.9477 27.8465 33.9007C27.7994 33.9007 27.7053 33.7595 27.7053 33.7124C27.7524 33.43 27.9877 33.5242 28.1289 33.5242C28.1759 33.3359 28.1289 33.1006 28.4113 33.1476C28.6936 33.1947 28.5995 33.43 28.5995 33.6183C28.976 33.6653 29.3525 33.7124 29.682 33.7595C29.7761 33.7595 29.8232 33.9477 29.9173 34.0419C29.8232 33.9948 29.729 34.136 29.6349 34.136ZM31.7057 38.4187C31.3763 38.4187 31.0939 38.4187 30.7644 38.607C30.3409 38.8423 29.9173 38.4187 29.9644 37.9481C29.9644 37.901 29.9644 37.8069 30.0114 37.8069C30.3879 37.6187 30.7644 37.4304 31.188 37.1951C31.3292 37.3833 31.4704 37.4775 31.5645 37.6187C31.6586 37.7128 31.7528 37.8069 31.7998 37.901C31.894 37.9952 31.9881 38.1364 31.941 38.2305C31.9881 38.3246 31.7998 38.4187 31.7057 38.4187ZM31.3763 35.5949C31.3763 35.5479 31.4704 35.5008 31.6586 35.3596C31.7057 35.4537 31.7528 35.5479 31.7057 35.5949C31.6586 35.642 31.5645 35.6891 31.5174 35.7361C31.4704 35.7361 31.3763 35.642 31.3763 35.5949ZM32.7411 34.5125C32.2705 34.4654 31.7528 34.3713 31.2821 34.3242C31.0939 34.2772 30.9998 34.0889 31.1409 33.9948C31.3292 33.8536 31.5645 33.7595 31.6586 33.5242C31.7057 33.4771 31.894 33.4771 32.0351 33.4771C32.1763 33.5712 32.3175 33.7124 32.4587 33.8536C32.5528 33.9477 32.694 34.0418 32.7882 34.136C32.8352 34.2301 32.9293 34.3242 32.9293 34.4184C32.9293 34.4184 32.7882 34.5125 32.7411 34.5125ZM34.9531 38.7952C34.8589 38.8423 34.7178 38.7952 34.6236 38.8423C34.4824 38.7952 34.3412 38.7482 34.2471 38.7011C34.153 38.6541 34.0589 38.5129 34.0118 38.4187C34.0118 38.3717 34.153 38.2775 34.2001 38.1834C34.2942 38.0893 34.3883 37.9952 34.4824 37.901C34.5295 37.854 34.5766 37.8069 34.6707 37.7599C34.906 37.6657 35.1884 37.9952 35.3296 38.4187C35.3766 38.7011 35.1413 38.7482 34.9531 38.7952ZM35.2355 34.3713C35.1884 34.2772 35.0943 34.183 35.0943 34.136C35.1413 34.0418 35.1884 33.9948 35.2825 33.9477C35.3296 33.9948 35.3766 34.0889 35.3766 34.136C35.3766 34.183 35.3296 34.2301 35.2355 34.3713ZM34.8119 31.3122C34.2942 31.2651 33.8236 31.171 33.3059 31.1239C32.9764 31.0769 32.5999 30.9827 32.2705 30.9827C31.7057 31.0298 31.4704 30.6062 31.1409 30.2768C30.9998 30.1356 31.0939 29.9473 31.2821 29.9473C31.4233 29.9473 31.6116 29.9944 31.7528 29.9944C32.2705 29.9944 32.7411 30.0885 33.2117 29.8061C33.4941 29.6179 33.8235 29.8061 34.0589 30.0885C34.153 30.1827 34.2942 30.2768 34.4354 30.3238C34.5766 30.3709 34.7648 30.3709 34.906 30.3709C35.1413 30.3709 35.4237 30.2768 35.4237 30.7003C35.3766 31.171 35.2355 31.3592 34.8119 31.3122ZM40.6477 44.2075C40.6477 44.3017 40.3654 44.3487 40.1771 44.3487C39.8947 44.3958 39.6123 44.3017 39.4712 44.6311C39.4712 44.6782 39.2829 44.7252 39.2829 44.6782C39.0946 44.4429 38.9064 44.2075 38.7181 43.9722C38.7181 43.9722 38.7181 43.8781 38.7652 43.8781C39.1888 43.7369 39.4241 43.1251 40.0359 43.3133C40.2242 43.4075 40.5065 43.4545 40.6007 43.5957C40.7419 43.7369 40.7419 44.0193 40.6477 44.2075ZM43.8951 43.7369C43.6598 43.6428 43.5186 43.5957 43.4245 43.5486C43.3774 43.5016 43.2833 43.4075 43.2833 43.4075C43.4715 43.2192 43.6598 42.9839 43.8951 42.7956C43.9422 42.7486 44.1304 42.7486 44.1304 42.7486C44.1775 43.031 44.2716 43.2663 44.2716 43.5486C44.2716 43.6428 43.9892 43.6898 43.8951 43.7369ZM44.8364 41.3837C44.6952 41.4308 44.554 41.3837 44.4599 41.3837C44.3657 41.3837 44.3187 41.3837 44.2246 41.3367C43.9892 41.2896 43.848 41.1955 43.9422 40.9602C43.9892 40.819 44.2246 40.7248 44.3657 40.7248C44.554 40.7248 44.7893 40.819 44.9305 40.9131C45.0246 40.9602 45.0717 41.1014 45.0717 41.1955C45.0246 41.2896 44.9305 41.3837 44.8364 41.3837ZM45.2129 38.4658C44.6952 38.4187 44.6481 38.7952 44.6481 39.1718C44.6481 39.2659 44.6481 39.4541 44.554 39.5012C44.4599 39.5483 44.2246 39.5953 44.1775 39.5483C43.9892 39.2659 43.801 38.9835 43.7539 38.7011C43.7069 38.3717 43.5657 37.9481 44.1304 37.8069C44.3187 37.7599 44.4128 37.5245 44.554 37.3833C44.6011 37.4304 44.6952 37.4775 44.6952 37.5245C44.7422 37.8069 44.9305 37.9481 45.2129 38.0422C45.2599 38.0422 45.3541 38.2305 45.3541 38.3246C45.4011 38.3246 45.307 38.4658 45.2129 38.4658ZM44.9776 28.3472C44.9305 28.3001 44.8364 28.1589 44.8834 28.0648C44.8834 27.9707 45.0246 27.8765 45.1188 27.8765C45.2599 27.8295 45.4482 27.8765 45.6365 27.8765C45.8718 27.9236 46.1071 27.9707 46.3424 28.1119C46.5307 28.206 46.5307 28.4413 46.3424 28.5354C46.013 28.6296 45.2129 28.5825 44.9776 28.3472ZM46.3895 19.7346C46.813 19.7816 46.8601 19.9228 46.813 20.4405C46.766 20.817 46.5777 20.9112 46.2483 20.8641C45.7776 20.77 45.6835 20.6759 45.7306 20.2052C45.7776 19.7816 45.9188 19.6875 46.3895 19.7346ZM46.013 18.2286C46.1542 18.1344 46.2483 18.0874 46.4365 17.9462C46.5777 18.0874 46.7189 18.1815 46.8601 18.3227C46.7189 18.3697 46.5777 18.4639 46.4365 18.4639C46.2483 18.4168 46.1542 18.3227 46.013 18.2286ZM45.8247 24.4409C45.9659 24.4409 46.06 24.6292 46.2012 24.7704C46.013 24.8645 45.8247 24.9586 45.5423 25.0998C45.4482 24.8645 45.3541 24.7233 45.2599 24.5821C45.4482 24.488 45.6365 24.3939 45.8247 24.4409ZM47.0013 32.5829C47.0013 32.677 46.7189 32.7711 46.6718 32.7711C46.3424 32.7241 46.06 32.7241 46.1071 32.3946C46.1071 32.3005 46.3424 32.1593 46.4365 32.1593C46.6248 32.3005 47.0013 32.2534 47.0013 32.5829ZM48.1308 14.1811C48.272 14.134 48.7897 14.7459 48.7426 14.9341C48.6014 15.3106 48.3191 15.1224 48.0838 15.1224C47.8014 15.1224 47.6602 14.9812 47.7072 14.6517C47.8484 14.5106 47.9426 14.2752 48.1308 14.1811ZM46.5307 10.7925C46.6248 10.9337 46.7189 11.0279 46.6718 11.122C46.6718 11.2161 46.5307 11.2632 46.4365 11.2632C46.3895 11.2632 46.2953 11.122 46.2953 11.0749C46.2953 11.0279 46.3895 10.9337 46.5307 10.7925ZM44.9776 9.71009C45.0246 9.61596 45.0246 9.52184 45.0717 9.47477C45.1188 9.42771 45.2129 9.42771 45.2599 9.38065C45.307 9.52184 45.3541 9.61596 45.3541 9.75715C45.3541 9.89834 45.2599 10.0395 45.2129 10.1807C45.1658 10.1337 45.0717 10.1337 45.0246 10.0866C44.9776 9.89834 44.9776 9.80422 44.9776 9.71009ZM44.554 14.2282C44.6952 14.134 44.8364 14.0399 44.9776 13.9458C45.1658 13.8046 45.307 13.8046 45.3541 14.0399C45.4011 14.3223 45.5894 14.3694 45.8247 14.3694C46.06 14.3694 46.2483 14.4164 46.4836 14.4635C46.5307 14.4635 46.5307 14.5106 46.5777 14.5106C46.6718 14.4164 46.766 14.3694 46.9072 14.2752C47.0954 14.5106 47.2366 14.6517 47.3307 14.84C47.1425 14.8871 46.9542 15.0282 46.813 14.9812C46.7189 14.9812 46.6718 14.9341 46.5777 14.8871L46.5307 14.9341C46.4365 14.9812 46.3424 14.9812 46.2953 15.0753C45.9659 15.3577 45.9659 15.3577 45.7306 15.0282C45.5423 14.7929 45.4482 14.84 45.2599 15.0753C45.0717 15.3106 44.9305 15.3106 44.7893 15.0282C44.7423 14.9341 44.6011 14.84 44.5069 14.7459C44.4599 14.6988 44.4128 14.6047 44.3187 14.5106C44.4599 14.3223 44.5069 14.2752 44.554 14.2282ZM44.6481 35.4538C45.0717 35.5008 45.1658 35.5949 45.1188 36.0656C45.0717 36.5833 44.9305 36.6774 44.5069 36.6303C44.0363 36.5833 43.8951 36.395 43.9422 35.9244C44.0363 35.5008 44.1775 35.3596 44.6481 35.4538ZM44.1304 32.0652C44.1304 32.3005 43.9892 32.5829 43.9422 32.8182C43.9422 32.8182 43.6598 32.7711 43.6598 32.7241C43.6127 32.3005 43.2362 32.3476 42.9538 32.3005C42.7656 32.2534 42.4832 32.3005 42.342 32.2064C42.2008 32.1123 42.1067 31.8299 41.9184 31.7828C41.8243 31.7357 41.6361 31.9711 41.4949 32.0652C41.4008 32.1122 41.3066 32.0652 41.2125 32.0652C41.0713 32.0181 40.7889 31.9711 40.7419 31.8769C40.6948 31.6416 40.7419 31.3592 40.836 31.1239C40.836 31.0769 41.0713 31.0298 41.2125 31.0298C41.6361 31.0769 42.0596 31.1239 42.4832 31.171C42.7656 31.218 43.1421 31.218 43.2833 31.6416C43.3303 31.7357 43.5657 31.7828 43.7069 31.8769C43.7069 31.8299 43.7539 31.7828 43.7539 31.7357C43.8951 31.8769 44.1304 31.9711 44.1304 32.0652ZM41.7773 35.3596C41.7773 35.4537 41.6361 35.5479 41.5419 35.6891C41.4008 35.5008 41.3066 35.4067 41.3066 35.3126C41.3066 35.2184 41.4478 35.0772 41.5419 35.0772C41.6361 35.1714 41.7302 35.3126 41.7773 35.3596ZM41.9655 16.299C41.7302 16.2519 41.5419 16.1578 41.3066 16.0636C41.3537 15.9695 41.3537 15.8754 41.4007 15.8283C41.4949 15.7813 41.6361 15.8283 41.7773 15.8283C41.8714 15.8754 41.9655 15.8754 42.0596 15.9225C42.1067 15.9695 42.1538 16.0636 42.1067 16.1107C42.1067 16.2048 42.0126 16.299 41.9655 16.299ZM42.2008 19.0757C42.1538 19.1228 42.1067 19.1698 42.0126 19.264C41.9655 19.1698 41.9184 19.1228 41.8714 19.0757C41.9184 19.0286 42.0126 18.9816 42.0596 18.9345C42.1067 18.9345 42.2008 19.0286 42.2008 19.0757ZM42.3891 14.3223C42.4361 13.9458 42.5303 13.8987 43.0009 13.9458C43.1892 13.9929 43.5186 13.9458 43.4715 14.3223C43.4245 14.7459 43.1892 14.9341 42.8127 14.8871C42.3891 14.84 42.342 14.7459 42.3891 14.3223ZM43.4245 4.20368C43.4715 4.20368 43.5657 4.2978 43.5657 4.34487C43.5657 4.43899 43.4715 4.48606 43.3774 4.58018C43.2833 4.43899 43.2833 4.39193 43.2362 4.2978C43.2833 4.25074 43.3774 4.20368 43.4245 4.20368ZM41.4007 6.65097C42.1538 6.65097 42.8597 6.65097 43.6127 6.65097C43.8951 6.65097 43.9892 6.7451 43.9892 7.02748C43.9892 7.78049 43.9892 8.53351 43.9892 9.28652C43.9892 9.5689 43.848 9.66303 43.5657 9.66303C43.3774 9.66303 43.1892 9.66303 42.9538 9.66303C42.9068 9.99247 42.8597 10.3219 42.8127 10.6514C42.8127 10.7455 42.6715 10.8396 42.5773 10.9337C42.5303 10.8396 42.3891 10.7925 42.3891 10.6984C42.295 10.3219 41.9655 10.0866 41.7302 9.80422C41.6831 9.75715 41.6361 9.71009 41.6361 9.66303C41.589 9.66303 41.4949 9.66303 41.4478 9.66303C41.1654 9.66303 41.0242 9.5689 41.0242 9.28652C41.0242 8.91001 41.0242 8.53351 41.0242 8.157C41.0242 7.82756 41.0242 7.45105 41.0242 7.12161C40.9772 6.79216 41.1184 6.65097 41.4007 6.65097ZM40.0359 9.66303C40.083 9.19239 40.1771 9.09827 40.6477 9.14533C40.9301 9.19239 41.0713 9.33358 41.0242 9.61596C40.9772 9.99247 40.6948 10.2278 40.2712 10.1337C39.8947 10.1337 40.0359 9.85128 40.0359 9.66303ZM39.7535 13.1457C40.083 13.1928 40.4124 13.1928 40.5065 13.5693C40.5065 13.6634 40.7419 13.7105 40.8831 13.7575C41.1184 13.8046 41.4007 13.8046 41.6361 13.8987C41.7302 13.8987 41.7773 14.0399 41.8714 14.134C41.7773 14.1811 41.6831 14.3223 41.6361 14.3223C41.3066 14.3223 41.0242 14.2752 40.6948 14.2282C40.3654 14.2282 40.083 14.1811 39.7535 14.4164C39.5182 14.6047 39.0005 14.4635 38.624 14.3694C38.5299 14.3223 38.4358 14.0399 38.3887 13.8046C38.3887 13.7105 38.4358 13.4752 38.5299 13.4752C39.0005 13.334 39.33 12.9104 39.7535 13.1457ZM40.2242 35.2184C40.2242 35.2655 40.083 35.4067 40.0359 35.3596C39.9418 35.3126 39.8477 35.2184 39.8477 35.1714C39.8477 35.1243 39.9418 35.0302 40.083 34.889C40.1771 35.0772 40.2712 35.1243 40.2242 35.2184ZM39.377 21.1465C39.33 21.1465 39.2829 21.1936 39.2829 21.1936C39.2358 21.1936 39.2358 21.1465 39.1888 21.0994C39.2358 21.0524 39.2829 21.0053 39.2829 21.0053C39.33 21.0524 39.33 21.0994 39.377 21.1465ZM38.3416 31.7357C37.7769 31.6416 37.6827 31.5475 37.7769 31.0298C37.8239 30.8415 38.4828 30.2768 38.624 30.3709C38.8593 30.5592 39.0946 30.8415 39.1888 31.1239C39.2358 31.2651 38.9535 31.5475 38.7652 31.6887C38.624 31.7828 38.3887 31.7357 38.3416 31.7357ZM38.7181 33.9477C38.7181 34.2772 38.3887 34.183 38.2004 34.136C38.0122 34.136 37.7298 34.136 37.7769 33.8536C37.7769 33.7124 38.0593 33.6653 38.2475 33.5242C38.4358 33.7124 38.7181 33.8536 38.7181 33.9477ZM38.2946 27.5C38.2475 27.4059 38.4358 27.2177 38.624 26.9823C38.8123 27.2647 39.0005 27.4059 38.9535 27.5471C38.8593 27.7824 38.7181 28.206 38.577 28.206C38.2004 28.1119 38.3416 27.7354 38.2946 27.5ZM38.4828 3.49773C38.577 3.59185 38.6711 3.68598 38.6711 3.78011C38.6711 3.87423 38.5299 3.96836 38.3887 4.15661C38.2946 3.96836 38.2004 3.82717 38.2004 3.73304C38.2475 3.63892 38.3887 3.54479 38.4828 3.49773ZM37.0239 9.28652C36.6944 9.28652 36.5062 9.19239 36.5062 8.86295C36.5062 8.76882 36.4591 8.72176 36.4591 8.62763C36.2708 8.25113 36.2708 8.20406 36.7415 8.25113C37.0239 8.25113 37.3062 8.29819 37.6357 8.34525C37.7769 8.34525 37.9181 8.39232 38.0593 8.39232C38.624 8.29819 38.7652 8.72176 39.0005 9.0512C39.0476 9.14533 39.0005 9.38065 38.9535 9.42771C38.6711 9.5689 38.577 9.85128 38.4358 10.0866C38.3887 10.1337 38.3416 10.2278 38.2475 10.2278C38.2004 10.2278 38.1534 10.1337 38.1063 10.0866C38.1063 10.0395 38.1063 9.99247 38.0593 9.99247C37.871 9.38065 37.7298 9.23946 37.0239 9.28652ZM37.5416 13.5693C37.6357 13.381 37.9181 13.4281 38.0122 13.6163C38.0593 13.7105 38.0593 13.8517 38.0122 13.9458C37.9181 14.134 37.7769 14.3223 37.6827 14.4635C37.5886 14.2752 37.4945 14.134 37.4004 14.0399C37.4474 13.8046 37.4945 13.6634 37.5416 13.5693ZM37.8239 18.0874C37.8239 18.1344 37.7298 18.1344 37.6827 18.1815C37.6357 18.1344 37.5886 18.0874 37.5886 17.9932C37.5886 17.9462 37.6827 17.9462 37.7298 17.8521C37.7769 17.9462 37.8239 18.0403 37.8239 18.0874ZM37.4945 24.7704C37.6827 24.8174 37.7769 24.7704 37.871 24.8174C37.9651 24.9116 38.0122 25.0057 38.1063 25.0998C37.9651 25.1469 37.871 25.1939 37.7769 25.1939C37.7298 25.1939 37.6357 25.1469 37.5416 25.0998C37.4004 25.0057 37.2592 24.9116 37.118 24.8174C37.2592 24.8174 37.4474 24.7704 37.4945 24.7704ZM35.5178 24.3468C35.7061 24.2056 35.8473 24.0644 35.9414 24.0644C36.1767 24.0644 36.1767 24.2997 36.1297 24.488C36.0826 24.6762 36.1297 24.9586 35.8473 24.9116C35.7531 24.8174 35.659 24.535 35.5178 24.3468ZM36.8356 34.8419C36.6003 35.0302 36.365 35.2184 36.0826 35.4067C36.0355 35.4067 35.8943 35.3126 35.8943 35.2655C35.8473 35.0772 35.8002 34.7949 35.8943 34.6537C35.9414 34.5595 36.2238 34.5595 36.365 34.5125C36.5532 34.5595 36.6944 34.6066 36.7885 34.7007C36.8356 34.6537 36.8827 34.7949 36.8356 34.8419ZM36.5532 31.5475C36.4591 31.5475 36.412 31.5475 36.3179 31.5004C36.1767 31.4534 35.9414 31.3592 35.9414 31.2651C35.9414 31.0298 36.0355 30.7945 36.1297 30.5592C36.1767 30.465 36.365 30.465 36.365 30.3709C36.4591 29.9473 36.6944 30.0885 36.9768 30.1356C37.4004 30.2297 37.3533 30.5121 37.3533 30.7945C37.3533 31.5475 37.2592 31.5946 36.5532 31.5475ZM37.7769 35.1714C37.7769 35.1243 37.7769 35.1714 37.7769 35.1714C37.8239 35.1243 37.8239 35.1243 37.7769 35.1714C37.8239 34.9361 37.871 34.7478 38.1534 34.7478C38.2946 34.7478 38.3887 34.5595 38.4828 34.4654C38.577 34.4184 38.6711 34.3713 38.7181 34.3713C38.7652 34.4184 38.8593 34.5125 38.8593 34.6066C38.9064 35.0772 38.7652 35.2655 38.2946 35.2184C38.1534 35.1714 37.9651 35.1714 37.7769 35.1714C37.8239 35.1714 37.8239 35.1243 37.7769 35.1714C37.8239 35.1714 37.7769 35.1714 37.7769 35.1714C37.7298 35.3596 37.7769 35.5949 37.4945 35.5479C37.4474 35.5479 37.3533 35.4067 37.3533 35.3596C37.4004 35.0302 37.6357 35.1714 37.7769 35.1714ZM37.7769 39.1247C37.5886 39.0776 37.3062 39.0306 37.3533 38.7482C37.4004 38.5129 37.3062 38.1834 37.7298 38.1364C37.8239 38.1364 37.9181 38.0422 38.0122 37.9481C38.3416 37.6187 38.577 37.7128 38.8593 38.0422C39.1888 38.3717 39.377 38.8894 39.9888 38.8423C40.3183 38.8894 40.6948 39.0306 40.836 38.5599C41.1184 38.607 41.4478 38.5599 41.7302 38.6541C41.8243 38.7011 41.7302 39.1247 41.6831 39.36C41.6831 39.4071 41.4478 39.5012 41.3537 39.5012C40.6948 39.4541 40.083 39.5483 39.4241 39.2659C39.2358 39.1718 39.0005 39.2188 38.8123 39.2188C38.4828 39.2188 38.1063 39.1718 37.7769 39.1247ZM15.61 43.8781C15.7042 43.9252 15.7512 44.0193 15.8453 44.0663C15.7512 44.1134 15.7042 44.2075 15.61 44.2546C15.563 44.2546 15.4688 44.1605 15.2806 43.9722C15.4218 43.9252 15.5159 43.8781 15.61 43.8781ZM15.6571 49.8551C15.563 50.2316 15.3277 50.2316 15.0453 50.1846C14.9041 50.1375 14.7629 50.1846 14.6688 50.1375C14.6217 50.2787 14.6688 50.5611 14.3864 50.514C14.3393 50.514 14.2452 50.3728 14.2452 50.3258C14.2923 50.0434 14.5276 50.1375 14.6688 50.1375C14.7158 49.761 14.7629 49.3845 14.81 49.0551C14.857 48.7727 14.9982 48.7256 15.2335 48.9609C15.2806 49.008 15.3747 49.1492 15.4218 49.1492C15.8453 49.2904 15.7512 49.5728 15.6571 49.8551ZM16.1748 46.1842C16.1277 46.2783 15.8924 46.3254 15.7512 46.3254C15.1394 46.3254 15.1394 46.3254 15.0453 46.9372C14.9982 47.1255 14.9982 47.3137 14.9511 47.502C14.9041 47.5961 14.81 47.6902 14.7158 47.6902C14.6217 47.6902 14.5746 47.549 14.5276 47.4549C14.4805 47.4078 14.5276 47.3608 14.5276 47.2667C14.5276 46.7019 14.5276 46.7019 14.0099 46.5607C13.7746 46.5136 13.6804 46.3724 13.6804 46.1371C13.6334 45.8548 13.7275 45.5253 13.4451 45.3371C13.4451 45.3371 13.4922 45.1488 13.5392 45.1488C13.6334 45.1017 13.7275 45.1488 13.8216 45.1488C14.4334 45.1959 15.0923 45.2429 15.7042 45.29C16.2219 45.3371 16.4572 45.7606 16.1748 46.1842ZM16.316 44.584C16.363 44.2075 16.5513 44.0193 16.8807 44.0663C17.2102 44.1134 17.3514 44.2546 17.3043 44.6782C17.3043 45.0547 17.0219 45.0076 16.7866 44.9605C16.5513 44.9135 16.2689 44.9605 16.316 44.584ZM16.7866 50.8435C16.7395 50.8435 16.6454 50.7493 16.5513 50.6552C16.6925 50.5611 16.7396 50.514 16.8337 50.514C16.8807 50.514 16.9749 50.6552 16.9749 50.7023C16.9749 50.7493 16.8807 50.7964 16.7866 50.8435ZM16.9749 49.9022C16.8807 49.9022 16.7866 49.8081 16.6925 49.7139C16.8337 49.6198 16.9278 49.5257 16.9749 49.5257C17.069 49.5257 17.1161 49.6669 17.1631 49.761C17.1631 49.8081 17.0219 49.9022 16.9749 49.9022ZM18.3397 47.4078C18.2456 47.549 17.9161 47.549 17.7279 47.549C17.6338 47.549 17.5396 47.3137 17.5396 47.2196C17.5396 46.8901 17.6338 46.6078 17.2102 46.4195C17.1161 46.3724 17.1631 46.1371 17.1161 45.9018C17.2102 45.8077 17.3043 45.5253 17.3514 45.5724C17.5867 45.5724 17.822 45.6665 18.0573 45.8077C18.1985 45.9018 18.3397 46.043 18.4338 46.1842C18.4809 46.2783 18.575 46.3724 18.575 46.4666C18.575 46.796 18.528 47.1255 18.3397 47.4078ZM22.0106 46.4195C22.0577 46.2783 22.246 46.1842 22.3872 46.1371C22.5283 46.0901 22.6695 46.1842 22.8578 46.1842C22.9049 46.1842 22.9519 46.1842 23.046 46.1842C23.2343 46.2313 23.5167 46.1842 23.5637 46.4666C23.6108 46.796 23.5167 47.1725 23.2343 47.2667C22.999 47.3608 22.999 47.7843 22.6695 47.6432C22.4813 47.549 22.4342 47.2667 22.246 47.1725C21.9165 46.9372 21.9636 46.6548 22.0106 46.4195ZM22.293 51.1258C22.3872 51.1258 22.4813 51.22 22.5754 51.3141C22.4813 51.4082 22.4342 51.5024 22.3401 51.5024C22.246 51.5024 22.1048 51.4082 21.9165 51.3141C22.1048 51.22 22.1989 51.1258 22.293 51.1258ZM19.4692 45.9018C19.7516 45.9018 20.081 45.8077 20.2693 45.9018C20.6929 46.1371 21.0694 46.4195 21.3988 46.796C21.54 46.9372 21.3988 47.2667 21.3988 47.549C21.3988 47.549 21.3988 47.549 21.3518 47.549C21.3518 47.6902 21.3518 47.8314 21.3047 47.9726C21.2576 48.1138 21.2106 48.3491 21.0694 48.3962C20.8341 48.4903 20.8341 48.2079 20.7399 48.0667C20.6929 48.0197 20.6458 47.9726 20.5987 47.9726C20.2222 47.9255 19.9869 47.6902 19.7045 47.4549C19.4222 47.2196 19.328 46.8431 18.9986 46.6548C18.8574 46.5136 19.1868 45.9018 19.4692 45.9018ZM19.5163 50.0434C19.4692 50.0905 19.3751 50.1375 19.281 50.1375C19.2339 50.1375 19.1868 50.0434 19.1868 49.9493C19.0457 49.4316 19.1398 49.2433 19.7045 49.3374C20.081 49.3845 20.5517 49.1963 20.8811 49.4786C20.9282 49.5257 20.9753 49.6198 21.0694 49.6669C21.0223 49.7139 20.9753 49.761 20.8811 49.8081C20.6929 49.8551 20.5517 49.8551 20.4105 49.9022C20.3164 49.8551 20.2693 49.8551 20.2222 49.8551C19.8928 49.7139 19.6575 49.7139 19.5163 50.0434ZM20.5046 56.8676C20.4576 56.7264 20.4105 56.6323 20.4105 56.5852C20.4105 56.5381 20.5046 56.4911 20.5517 56.444C20.5987 56.5381 20.6458 56.5852 20.6458 56.6793C20.6929 56.6793 20.5987 56.7264 20.5046 56.8676ZM21.2576 59.4561C21.1635 59.3149 21.0694 59.2207 21.0694 59.1737C21.0694 59.0796 21.2106 58.9854 21.3047 58.9854C21.3988 58.9854 21.493 59.1266 21.493 59.1737C21.4459 59.2678 21.3518 59.3619 21.2576 59.4561ZM20.9753 56.2087C20.9753 56.1146 21.0694 56.0675 21.1164 56.0204C21.1635 56.0675 21.2576 56.1146 21.2576 56.1616C21.2576 56.2558 21.2106 56.3028 21.1164 56.444C21.0223 56.3028 20.9282 56.2558 20.9753 56.2087ZM22.1989 61.2445C22.1518 61.2915 22.0106 61.3857 21.9165 61.4798C21.8695 61.3386 21.7753 61.2445 21.7753 61.1033C21.7753 61.0092 21.7753 60.915 21.8224 60.8209C21.8695 60.7268 21.9636 60.6797 22.0577 60.6326C22.1048 60.6797 22.1989 60.7738 22.1989 60.868C22.246 60.915 22.1989 61.0562 22.1989 61.2445ZM23.3284 53.7143C23.2814 53.7143 23.1872 53.7143 23.1872 53.7614C22.9519 54.232 22.7637 54.185 22.6225 53.7143C22.6225 53.6673 22.4342 53.6202 22.3872 53.6202C22.1518 53.5261 21.9165 53.479 21.7283 53.1966C21.6341 53.0554 21.2576 53.0084 20.9753 53.0084C20.8811 53.0084 20.787 53.2437 20.6929 53.3849C20.6458 53.479 20.6458 53.5731 20.5987 53.6673C20.5517 53.7143 20.4105 53.8085 20.3634 53.8085C20.1752 53.5731 19.8928 53.3378 19.7516 53.1025C19.6575 52.9143 19.9869 52.4907 20.2693 52.4907C20.5987 52.4436 20.9753 52.4436 21.3047 52.4436C21.3047 52.4907 21.3047 52.4907 21.3047 52.5377C21.9165 52.5848 22.5283 52.6319 23.1872 52.6789C23.4225 52.726 23.752 52.6789 23.7991 53.0084C23.7991 53.2437 23.6108 53.6202 23.3284 53.7143ZM23.7049 50.7493C23.6579 50.7493 23.5637 50.6552 23.4696 50.5611C23.6108 50.467 23.7049 50.3728 23.752 50.3728C23.7991 50.3728 23.9402 50.514 23.8932 50.5611C23.8932 50.6552 23.7991 50.7023 23.7049 50.7493ZM24.6462 45.0076C24.6933 45.0076 24.7874 45.0076 24.8344 45.0547C24.9286 45.1017 25.0227 45.1959 25.1168 45.29C25.0227 45.3371 24.9286 45.4312 24.7874 45.4782C24.7403 45.4782 24.6933 45.4782 24.505 45.4782C24.4579 45.4312 24.3638 45.29 24.2697 45.1959C24.3638 45.0547 24.505 45.0076 24.6462 45.0076ZM26.5758 53.8555C26.5287 53.9967 26.5287 54.185 26.4817 54.3262C26.4346 54.4203 26.3405 54.5144 26.2934 54.5144C25.9169 54.4673 25.5404 54.4673 25.211 54.3262C25.0227 54.232 24.9286 53.9496 24.6933 53.8555C24.6462 53.8555 24.5991 53.6202 24.6462 53.5731C24.6933 53.479 24.7874 53.3849 24.9286 53.3849C25.0698 53.3849 25.211 53.479 25.3051 53.479C25.4463 53.479 25.6345 53.479 25.6816 53.3849C25.8698 52.9613 26.2463 53.0554 26.4817 53.1966C26.6229 53.2908 26.6229 53.6202 26.717 53.8555C26.6229 53.8555 26.5758 53.8555 26.5758 53.8555ZM27.0464 48.255C26.9052 48.255 26.764 48.255 26.6229 48.2079C26.5287 48.1609 26.3875 48.0667 26.3405 47.9726C26.2934 47.8314 26.3405 47.5961 26.1052 47.5961C25.8228 47.5961 25.5875 47.6902 25.3521 47.7373C25.258 47.7373 25.211 47.9255 25.1639 47.9255C24.9286 47.9255 24.6462 47.8785 24.4579 47.7844C24.3168 47.6902 24.4579 47.1255 24.6462 46.9843C24.7403 46.8901 24.8815 46.8431 24.9756 46.749C25.3051 46.4195 25.7757 46.5136 26.011 46.8901C26.1993 47.2196 26.2934 47.2196 26.4346 46.8901C26.5287 46.6548 26.717 46.6548 26.9052 46.6548C27.47 46.7019 27.9877 47.3137 27.8936 47.8785C27.7994 48.302 27.7524 48.302 27.3288 48.255C27.2347 48.255 27.1406 48.255 27.0464 48.255C27.0464 48.2079 27.0464 48.2079 27.0464 48.255ZM28.976 54.3732C28.7878 54.3732 28.6466 54.3262 28.4583 54.3262C28.3642 54.3262 28.2701 54.3262 28.1759 54.3732C28.0348 54.4673 27.7994 54.7027 27.7524 54.6556C27.5641 54.5144 27.3759 54.2791 27.2347 54.0908C27.1876 54.0438 27.1876 53.9496 27.2347 53.9496C27.47 53.7614 27.6582 53.479 27.9406 53.3849C28.223 53.2908 28.5995 53.3849 28.929 53.3849C29.3525 53.3849 29.5878 53.6202 29.5878 53.9496C29.4937 54.3732 29.3996 54.4203 28.976 54.3732ZM29.7761 51.4082C29.7761 51.4553 29.5408 51.5024 29.5408 51.4553C29.3525 51.22 29.2113 50.9847 29.0231 50.7493C29.0231 50.7493 29.1172 50.6082 29.2113 50.6082C29.2584 50.5611 29.3525 50.6082 29.5408 50.6082C29.5878 50.6552 29.8232 50.7023 29.8232 50.7964C29.8702 50.9847 29.8232 51.1729 29.7761 51.4082ZM31.5174 54.3262C31.3763 54.185 31.0939 54.0438 31.1409 53.9496C31.188 53.6202 31.5645 53.7614 31.7528 53.7143C31.7998 53.7143 31.9881 53.9026 31.9881 54.0438C31.9881 54.2791 31.7998 54.3262 31.5174 54.3262ZM32.1763 48.5374C32.1763 48.6315 32.0351 48.7256 31.941 48.7727C31.894 48.7727 31.7998 48.6786 31.7528 48.6315C31.5645 48.3962 31.3292 48.1138 31.1409 47.8785C31.0939 47.8314 30.9527 47.8785 30.9056 47.9255C30.7644 48.2079 30.5291 48.2079 30.2467 48.1609C30.2467 48.3491 30.2467 48.5374 29.9644 48.5844C29.8702 48.5844 29.729 48.6786 29.682 48.7727C29.4937 49.1021 29.2584 48.9139 29.0231 48.8668C28.7407 48.8197 28.7878 48.5844 28.7878 48.3962C28.7878 48.2079 28.7878 48.0197 28.8348 47.8785C28.8819 47.7373 28.976 47.6432 29.0702 47.549C29.1643 47.6432 29.2113 47.7373 29.3055 47.8314C29.3996 47.9255 29.5408 47.9726 29.6349 48.0197C29.8232 48.0667 30.0114 48.0667 30.1997 48.1138C30.1997 47.9726 30.1997 47.8314 30.2467 47.7373C30.3879 47.3137 30.4821 47.2667 30.9056 47.2667C31.2351 47.2667 31.5645 47.3137 31.894 47.3137C32.1293 47.3137 32.2705 47.4078 32.2234 47.6902C32.2705 47.9726 32.2234 48.255 32.1763 48.5374ZM32.7882 51.4553C32.8352 51.267 32.8352 50.9847 33.1647 51.0317C33.4941 51.0788 33.4 51.3612 33.3529 51.5494C33.3529 51.7377 33.3059 51.973 33.0235 51.9259C32.694 51.8789 32.7882 51.6435 32.7882 51.4553ZM35.4708 55.2204C35.2355 55.1733 34.9531 55.1262 34.7178 55.0792C34.6236 55.0321 34.4824 54.985 34.4354 54.8909C34.1059 54.4203 33.8236 54.4203 33.447 54.7497C33.3529 54.7968 33.2117 54.8909 33.1647 54.8439C33.0705 54.7968 33.0235 54.6556 33.0235 54.5615C32.9764 53.9967 33.2117 53.8555 34.0589 53.9496C34.3883 54.0438 34.7648 54.0438 35.0472 54.4203C35.1413 54.5615 35.4237 54.5144 35.5649 54.5615C35.7532 54.6085 35.9414 54.7027 35.9414 54.938C35.8943 55.3145 35.659 55.2674 35.4708 55.2204ZM35.2825 51.7847C35.2825 51.6906 35.3296 51.5965 35.3766 51.5024C35.3766 51.4553 35.4237 51.4082 35.4708 51.3612C35.5178 51.3612 35.659 51.3612 35.659 51.4082C35.659 51.6435 35.659 51.8789 35.659 52.0671C35.659 52.1142 35.5178 52.1612 35.4708 52.1612C35.3766 52.1142 35.3296 52.0201 35.2825 51.9259C35.2355 51.9259 35.2825 51.8318 35.2825 51.7847ZM35.9885 49.4786C35.9885 49.5728 35.8473 49.7139 35.8002 49.7139C35.7061 49.7139 35.612 49.6198 35.5649 49.5257C35.4708 49.2433 35.0001 49.1962 35.0472 48.8197C34.9531 48.8197 34.8119 48.7727 34.7178 48.8197C34.5766 48.9139 34.5295 49.1963 34.3412 49.008C34.2471 48.9139 34.2471 48.6786 34.2471 48.5374C34.2471 48.302 34.3412 48.1609 34.5766 48.1609C34.7648 48.1609 34.9531 48.1138 35.0472 48.1138C35.4237 48.1609 35.7061 48.1609 35.659 48.5374C35.659 48.5844 35.7061 48.6786 35.7531 48.7256C36.1767 48.9609 36.0355 49.2433 35.9885 49.4786ZM37.3533 48.9609C37.3062 48.9609 37.2592 48.8197 37.165 48.7256C37.3062 48.6786 37.4004 48.5844 37.4945 48.6315C37.5416 48.6315 37.6357 48.8197 37.5886 48.8197C37.5416 48.8668 37.4474 48.9609 37.3533 48.9609Z" fill="#D76700"/>
</svg>
