<svg width="70" height="70" viewBox="0 0 70 70" fill="none" xmlns="http://www.w3.org/2000/svg">
<path d="M24.9684 3.13013L10.3662 8.85167C10.5881 8.98473 10.8988 9.11778 11.1207 9.2952C11.1651 9.33955 11.1651 9.47261 11.1207 9.51696C10.8544 9.82743 10.4993 10.1823 10.233 10.4927C10.0555 10.4484 9.92235 10.404 9.7892 10.3597C9.61167 10.271 9.38975 10.1379 9.21221 9.96049C9.03468 9.82743 9.03468 9.65002 9.2566 9.47261C9.5229 9.33955 9.92235 9.33955 10.0111 8.94037L8.05823 9.69437C8.10262 9.73873 8.19139 9.78308 8.23577 9.82743C8.28015 9.82743 8.28015 10.1379 8.23577 10.2266C8.10262 10.3597 7.92508 10.4484 7.70316 10.4927C7.03741 10.6258 6.41603 10.7145 5.75028 10.8919C5.61713 10.8919 5.48398 10.8476 5.30644 10.8476C5.30644 10.8476 5.30644 10.8476 5.30644 10.8032L4.15246 11.2467C4.01931 11.2911 3.88616 11.3798 3.70863 11.4685C3.75301 11.5128 3.84178 11.5572 3.97493 11.5572C4.01931 11.5572 4.10808 11.7346 4.10808 11.779C4.10808 11.8677 3.97493 11.9564 3.93054 11.9564C3.70863 11.9564 3.44232 12.0007 3.2204 11.912C3.13164 12.2225 2.99849 12.6217 2.99849 13.0652V13.1983C3.08725 13.1539 3.13164 13.1096 3.2204 13.0652C3.26479 13.0652 3.44232 13.1096 3.44232 13.1539C3.44232 13.4644 3.44232 13.8192 3.39794 14.2184C3.39794 14.2627 3.17602 14.3514 3.13164 14.3071C3.08725 14.2627 3.04287 14.2184 3.04287 14.2184V15.7264C3.08725 15.7264 3.13164 15.682 3.2204 15.682C3.53109 15.3716 3.93054 16.2143 4.19685 15.682C4.41877 15.2829 4.77384 15.2829 5.08452 15.1941C5.88343 14.9724 6.72672 14.6619 7.52563 14.4845C7.74755 14.4401 8.10262 14.3958 8.28015 14.4845C8.72399 14.7063 9.12345 14.6619 9.56728 14.6176C9.70043 14.6176 9.87797 14.6619 10.0555 14.6619C10.0111 14.795 9.92235 14.928 9.87797 15.1054C9.83359 15.1941 9.7892 15.2829 9.74482 15.3716C9.65605 15.6377 9.5229 15.682 9.2566 15.5046C8.76837 15.2385 7.92508 15.4159 7.70316 15.9038C7.52563 16.2143 6.85987 16.4804 6.54919 16.1699C6.2385 15.8594 5.92781 16.0369 5.66151 16.0812C5.39521 16.1256 4.99575 16.1256 4.95137 16.6134C4.8626 17.057 3.75301 17.2344 3.44232 17.0126C3.39794 16.9239 3.2204 16.7465 3.13164 16.7465C3.08725 16.7465 3.04287 16.7465 2.99849 16.7465V20.3834C3.04287 20.4278 3.08725 20.5165 3.13164 20.6052C3.35356 20.8713 3.17602 21.0931 2.99849 21.2262V29.3871C3.04287 29.3871 3.04287 29.3428 3.08725 29.3428C3.39794 28.9436 3.88616 28.7218 3.97493 28.1452C3.97493 28.0565 4.10808 27.9678 4.19685 27.9678C4.37438 27.9235 5.08452 28.5 5.17329 28.7662C5.17329 28.8549 5.17329 29.1653 5.08452 29.2097C4.8626 29.2984 4.50753 29.4315 4.28561 29.3428C3.97493 29.2097 3.75301 29.1653 3.66424 29.5202C3.61986 29.6532 3.48671 29.7419 3.35356 29.7863C3.26479 29.7863 3.13164 29.8306 2.9541 29.8306C2.9541 32.2701 3.17602 34.4877 3.57547 36.5279C3.84178 36.6166 4.01931 36.7497 4.46315 37.2376C4.50753 37.2819 4.64068 37.415 4.72945 37.5481C4.99575 37.9916 4.95137 38.2577 4.55192 38.5238C4.46315 38.5682 4.33 38.6125 4.28561 38.5682C4.19685 38.5238 4.15246 38.5238 4.0637 38.4795C5.21767 42.9148 7.08179 46.33 9.30098 49.0798C9.47852 49.0355 9.74482 49.0798 9.92235 49.3016C10.0111 49.4347 10.4993 49.3016 10.7656 49.1685C10.8544 49.1242 10.8988 48.7694 10.8544 48.592C10.81 48.4145 10.7213 48.2815 10.6769 48.1041C10.6325 48.0597 10.5881 48.0154 10.5437 47.971C10.0555 47.4388 10.0999 47.1283 10.7656 46.8622C11.0319 46.7735 11.387 46.7735 11.6533 46.7735C11.9196 46.7735 12.0972 47.1727 11.8752 47.3501C11.7865 47.4831 11.6533 47.5718 11.4758 47.7492C11.387 47.838 11.2539 47.8823 11.1651 47.971C11.3426 48.3702 11.4314 48.3702 11.964 48.2815C12.1415 48.2815 12.3635 48.2371 12.5854 48.1484C12.6741 48.1041 12.7185 48.0154 12.8073 47.971C13.2955 47.6605 13.4287 47.7049 13.695 48.1484C13.7394 48.2371 13.7837 48.2815 13.7837 48.3258C13.9169 48.3258 14.05 48.2371 14.1832 48.1041C14.4939 47.5718 14.6714 47.5275 15.1596 47.8823C15.3816 48.0154 15.4703 47.971 15.6479 47.7492C15.8698 47.1727 16.4024 47.0396 16.8462 47.4388C17.0681 47.6605 17.1569 47.6162 17.3788 47.3057C17.5564 46.9065 17.5564 46.9065 17.9114 47.217C18.2221 47.4388 18.3997 47.4388 18.5328 47.084C18.5772 47.0396 18.6216 46.9509 18.666 46.9065C18.4884 46.8178 18.3997 46.6404 18.5772 46.3743C18.8435 46.0638 19.1542 45.8864 19.4205 46.1082C19.598 46.2412 19.8199 46.4187 19.9531 46.5961C19.9975 46.5961 20.0419 46.6404 20.0862 46.6848C20.3525 46.8622 20.5301 46.8622 20.6188 46.5517C20.6632 46.463 20.7076 46.3743 20.752 46.2856C21.0183 45.8864 21.0183 45.8864 20.5745 45.709C20.4413 45.576 20.3082 45.4429 20.3082 45.3542V45.3098C20.1306 45.1324 19.9975 44.8663 19.7755 44.6889C19.6424 44.5558 19.5092 44.3784 19.3761 44.201C18.9323 43.6244 18.9766 43.5801 19.4649 43.0922C20.0418 42.4712 20.6188 42.8261 21.1514 43.0035C21.4177 43.0922 21.684 43.3139 22.0391 43.2252C22.261 43.1809 22.7049 43.8018 22.6161 44.068C22.5273 44.3341 22.0835 44.6445 21.7728 44.5558C21.6397 44.5558 21.5065 44.5558 21.329 44.5558C21.3734 44.6889 21.329 44.8663 21.4177 44.9994C21.5509 45.2211 21.8172 45.4429 21.9947 45.709V45.7534H22.0835C22.3054 45.709 22.5717 45.6647 22.838 45.6203C22.7936 45.576 22.7493 45.5316 22.7493 45.4872C22.5273 45.2211 22.6605 44.9994 22.838 44.7776C23.0599 44.6002 23.2819 44.4671 23.5482 44.7332C23.6813 44.8663 23.8145 44.9994 23.9476 45.1324C24.0808 45.3098 24.1695 45.3985 24.2139 45.576C24.2583 45.6647 24.3027 45.7534 24.3471 45.7977C24.3471 45.7977 24.3471 45.7977 24.3915 45.7977C24.7909 45.7534 25.146 46.0195 25.146 46.4187C25.146 46.5074 25.0572 46.6848 24.9684 46.6848C24.7021 46.7291 24.4358 46.9065 24.1695 46.7291C24.1252 46.7735 24.0808 46.7735 24.0364 46.8178C23.5038 47.217 23.5038 47.217 23.9032 47.7936C23.992 47.9267 24.0808 48.1041 23.9032 48.2815C23.8145 48.3258 23.6369 48.2371 23.5038 48.1928C23.3706 48.0597 23.2375 47.8823 23.0599 47.7049C22.8824 47.5275 22.7493 47.2614 22.3498 47.4388C22.3054 47.4388 22.261 47.4388 22.2167 47.3944C22.0391 47.3944 21.906 47.3501 21.7728 47.1727C21.6397 46.9952 21.5509 47.084 21.4621 47.2614C21.1958 47.838 20.3082 48.0597 19.7755 47.7492C19.3761 47.5275 18.8435 47.7049 18.6216 48.0597C18.3553 48.6363 17.6007 48.8137 17.0681 48.3702C16.8018 48.1928 16.6243 48.1928 16.5355 48.5033C16.4468 48.8137 16.2692 48.9024 16.0029 48.6363C15.781 48.4145 15.5591 48.4145 15.4703 48.725C15.4259 48.9911 15.2484 49.0355 14.9821 49.1685C14.272 49.346 13.5174 49.5677 12.8073 49.7451C12.8073 49.7895 12.8073 49.7895 12.8073 49.7895C12.8961 49.8338 13.0736 49.9225 13.118 49.8782C13.5174 49.6121 13.8725 49.5677 14.3163 49.6121C14.4495 49.6121 14.627 49.5234 14.7602 49.5677C14.9377 49.7008 15.1596 49.8782 15.204 50.1C15.2484 50.233 15.0709 50.4104 14.9821 50.6322C14.8933 50.8096 14.7602 51.0314 14.8046 51.1644C14.849 51.3862 15.0709 51.3418 15.3372 51.2975C15.5147 51.2531 15.781 51.2975 15.9585 51.2531C16.1805 51.1644 16.358 51.2531 16.4911 51.4305C17.2013 52.2289 17.867 53.0716 18.5772 53.9143C18.7991 54.1361 18.7103 54.3578 18.4884 54.5353C18.2221 54.757 17.9114 55.0231 17.6451 55.2006C17.1125 55.511 16.8462 55.4667 16.4024 55.0231C16.358 54.9788 16.3136 54.8901 16.2692 54.8457C16.1361 54.8014 16.0029 54.8457 15.8254 54.8457C15.7366 54.8457 15.6922 54.8457 15.6479 54.8901C16.3136 55.3336 16.9794 55.7328 17.6007 56.132C17.7783 55.9546 18.0446 55.8215 18.2221 55.5997C18.444 55.378 18.7547 55.1562 19.021 54.9344C19.0654 54.8901 19.2429 54.8901 19.2873 54.9344C19.3317 54.9788 19.3761 55.1118 19.3761 55.2006C19.3761 55.378 19.3317 55.5997 19.3317 55.7771C19.3317 56.0433 18.7547 56.6199 18.5328 56.5311C18.444 56.4868 18.3553 56.4868 18.2665 56.4868C18.7991 56.7529 19.3761 57.0634 19.8199 57.2851C19.8199 57.2408 19.8199 57.1964 19.7755 57.1521C19.598 56.8416 19.7312 56.5311 19.9531 56.3094C20.0419 56.2207 20.2638 56.132 20.3525 56.1763C20.4413 56.265 20.5745 56.4868 20.5301 56.6199C20.3525 57.0634 20.3969 57.1964 20.9295 57.1521C21.1958 57.1077 21.9504 57.8617 21.9504 58.2166V58.2609C23.1487 58.7488 24.0808 59.0149 24.6578 59.148C24.7021 59.0593 24.8353 58.9706 24.9241 58.9262C25.0572 58.7931 25.2348 58.6157 25.4123 58.8819C25.4567 58.9706 25.3679 59.148 25.3235 59.3697C25.3679 59.3697 25.3679 59.3697 25.3679 59.3697C25.5011 59.4141 25.5898 59.4141 25.7674 59.4141C25.8561 59.4141 25.9893 59.4141 26.078 59.3697L26.6106 59.281C27.4096 59.1923 28.2085 58.9706 29.0518 58.6601C28.963 58.4827 28.8298 58.2609 28.7411 58.0835C28.6967 57.9504 28.5635 57.9061 28.5191 57.773C28.4748 57.6843 28.5191 57.5956 28.5191 57.5069C28.6079 57.5069 28.6967 57.5069 28.7411 57.5513C29.0074 57.773 29.3181 58.0391 29.6287 58.2609C29.6287 58.2609 29.6287 58.2609 29.5844 58.3053C29.6287 58.3496 29.6287 58.394 29.6731 58.394C30.0726 58.2166 30.4277 57.9948 30.8271 57.773C30.6496 57.6843 30.5164 57.5513 30.2945 57.5069C30.2945 57.5069 30.2945 57.2408 30.3389 57.1964C30.5608 57.1077 30.8271 57.019 31.049 56.9303C30.8715 56.4868 30.7383 56.0876 30.5608 55.5997C30.472 55.6441 30.472 55.7771 30.472 56.132C30.472 56.2207 30.4277 56.3537 30.3833 56.3981C30.2945 56.4424 30.1613 56.3981 30.117 56.3537C29.9394 56.132 29.54 55.9546 29.8063 55.511C29.8507 55.4223 29.7619 55.1118 29.6731 54.9788C29.4512 54.5796 28.963 54.3135 29.2293 53.7369C29.3181 53.5595 29.0074 53.3377 28.7411 53.4708C28.6523 53.5151 28.5635 53.5595 28.4748 53.6482C28.1641 53.9587 27.8978 53.7369 27.6759 53.5151C27.4096 53.2047 27.5427 52.9829 27.809 52.8055C27.8978 52.7611 27.9422 52.7168 27.9865 52.6281C28.0309 52.495 28.0753 52.362 28.1197 52.1846C27.9865 52.1846 27.809 52.1402 27.6759 52.1846C27.4096 52.3176 27.232 52.2289 27.0989 52.0515C27.0101 51.9184 26.9213 51.7854 26.8326 51.6523C26.7882 51.6523 26.7438 51.6523 26.6994 51.6523C26.3887 51.608 26.3 51.4749 26.4775 51.1644C26.4331 51.1201 26.3887 51.0314 26.3443 50.987C26.1668 50.7209 26.2556 50.4548 26.4775 50.233C27.0989 49.6564 27.4096 49.6564 27.9865 50.3217C28.0753 50.4104 28.1197 50.4991 28.1641 50.5878C28.2085 50.6322 28.2528 50.6765 28.2528 50.7209C28.3416 50.5435 28.4304 50.4548 28.5191 50.2774C28.6079 50.3661 28.7855 50.4548 28.8298 50.5878C28.8742 50.7209 28.7855 50.854 28.7411 51.0757C28.6523 50.987 28.5191 50.9427 28.3416 50.8096C28.386 50.854 28.386 50.8983 28.4304 50.9427C28.6079 51.1201 28.6079 51.3418 28.4748 51.5636C28.2972 51.8741 28.386 52.0958 28.6967 52.0071C29.1849 51.9184 29.4956 52.1402 29.7175 52.495C29.7619 52.5394 29.8063 52.6281 29.8507 52.7168C29.7175 51.8297 29.6731 50.854 29.6731 49.9225C29.6731 49.8782 29.6731 49.8782 29.6731 49.8338C29.6287 49.8338 29.6287 49.7895 29.5844 49.7895C29.3624 49.5677 29.0518 49.5234 28.7411 49.5677C28.6967 49.3016 28.7411 48.9911 28.6079 48.8137C28.3416 48.3702 27.9422 48.0154 27.6315 47.6162C27.5871 47.5275 27.4539 47.4831 27.3652 47.4831C26.5663 47.6162 26.4775 46.8178 26.0337 46.4187C25.9893 46.4187 25.9893 46.33 25.9893 46.33C25.9449 46.33 25.9005 46.33 25.8561 46.3743C25.7674 46.3743 25.5898 46.2856 25.5898 46.1969C25.5454 46.1082 25.6342 45.9308 25.723 45.9308C25.8561 45.8864 25.9893 45.8864 26.1668 45.8421C26.078 45.576 25.8561 45.3542 25.6342 45.1768C25.4567 44.955 25.1904 44.6889 25.0128 44.4671C24.7909 44.2454 24.6134 43.8905 24.2139 44.0236C24.1252 44.068 23.992 43.9349 23.9032 43.8462C23.6369 43.5357 23.3262 43.1365 23.0156 42.7817C22.9712 42.7374 22.8824 42.6043 22.9268 42.5599C23.1043 41.6285 22.2167 41.2737 21.906 40.6528C21.8616 40.5641 21.684 40.5641 21.5065 40.5641C20.9739 40.5641 20.6632 40.2536 20.752 39.7657C20.7964 39.4996 20.752 39.3222 20.6188 39.1448C20.4413 38.9674 20.3082 38.7012 20.0862 38.5238C20.0419 38.4351 19.9087 38.3021 19.9531 38.2577C20.175 37.7698 19.8643 37.7698 19.5536 37.5924C18.7991 37.1489 18.1777 36.6166 17.867 35.7739C17.7339 35.5078 17.867 35.0643 17.9114 34.6651C17.9114 34.6208 18.1777 34.5764 18.2221 34.6208C18.444 34.7538 18.666 34.9312 18.8435 35.153C19.0654 35.4191 19.2873 35.7739 19.5536 36.0844C20.175 36.7497 20.7964 37.415 21.329 38.1246C21.8172 38.6569 22.1723 39.2778 22.6161 39.8544C22.7049 39.9431 22.7049 40.0762 22.7049 40.2536C22.7493 40.7415 22.8824 40.9632 23.1931 41.0963C23.1931 40.9632 23.2375 40.8302 23.415 40.8302C23.5926 40.8302 23.8589 40.9189 24.0364 40.9632C23.9476 41.0519 23.8589 41.1407 23.7257 41.2737C23.9476 41.3624 24.1695 41.5398 24.3471 41.7616C24.569 42.0277 24.7909 42.3825 24.9684 42.6487C25.1016 42.8704 25.3679 43.0478 25.2348 43.3583C25.1904 43.447 25.3235 43.6688 25.4123 43.6688C26.078 43.6244 26.3443 44.201 26.7438 44.5558C27.2764 45.0881 27.6315 45.709 28.0753 46.2856C28.2528 46.463 28.5191 46.5961 28.6523 46.8622C29.0961 47.3944 29.4956 47.9267 29.9394 48.4589C29.9838 47.7936 30.0726 47.1727 30.1613 46.5517C29.9838 46.5517 29.6731 46.33 29.4956 46.1082C29.3624 45.9751 29.2293 45.7977 29.0074 45.6647C28.8742 45.576 28.7855 45.576 28.6967 45.576C28.5191 45.576 28.2085 45.5316 28.2085 45.4872C28.2085 45.4429 28.2085 45.3542 28.1641 45.3098C27.6759 44.7332 27.1876 44.1123 26.6994 43.4914C26.6106 43.3583 26.6106 43.1809 26.6106 43.0035C26.6106 42.8704 26.6106 42.693 26.5663 42.5599C26.4775 42.3825 26.3 42.1608 26.5219 42.0277C26.7438 41.8947 27.0545 41.5842 27.3652 41.8503C27.5871 42.0277 27.8534 42.2938 28.2085 42.1164C28.4304 42.0277 28.963 42.693 28.8298 42.9148C28.5635 43.4027 28.9186 43.6244 29.0961 43.8905C29.1405 43.9792 29.2293 44.0236 29.2737 44.068C29.6731 44.5115 29.7175 44.5558 30.1613 44.201C30.2501 44.1567 30.3389 44.068 30.4277 44.0236C30.472 44.0236 30.5164 44.0236 30.5608 44.0236C30.8271 43.1365 31.1822 42.2051 31.5816 41.3624H31.5372C31.4485 41.4068 31.3597 41.5398 31.2709 41.4955C31.1822 41.4955 30.9603 41.3181 30.9603 41.3181C31.2266 40.6971 30.7383 40.431 30.4277 40.0318C30.2945 39.8544 30.1613 39.6326 30.0282 39.4552C29.9838 39.2778 30.0726 39.0561 30.0726 38.7899C30.3389 38.7899 30.5608 38.7012 30.694 38.7899C31.0046 38.8786 31.3597 39.0561 31.626 39.2335C31.6704 39.2335 31.7148 39.3222 31.7148 39.3665C31.7148 39.677 31.7148 40.0762 31.7148 40.431C31.7148 40.5641 31.7148 40.6528 31.7592 40.7415C33.4014 37.4594 36.02 34.6651 39.1269 32.7579C39.1269 32.6692 39.1269 32.5362 39.1269 32.2701C39.3044 32.3588 39.4376 32.4031 39.5707 32.4475C41.9674 31.0725 44.6748 30.1411 47.5598 29.8306C47.8705 28.2783 48.1368 26.7259 48.2699 25.2623V23.7543C48.1812 23.7543 48.0924 23.7099 48.048 23.6212C47.7817 23.3551 47.5154 23.0446 47.2935 22.7342C47.0716 22.468 46.8053 22.1576 46.5833 21.8914C46.4946 21.8027 46.4946 21.6253 46.6721 21.4479C46.8496 21.3149 47.1159 20.96 47.3822 21.2262C47.7817 21.5366 48.0924 21.8914 48.3143 22.2906V13.0652C48.3143 12.2225 47.7817 11.5128 47.0272 11.2024L38.2836 7.83155C38.3723 7.92025 38.4167 8.00896 38.5055 8.05331C38.6386 8.18637 38.7274 8.36378 38.9049 8.5412C39.4376 8.85167 39.2156 9.33955 39.1713 9.82743C39.1269 10.0492 38.9493 10.1379 38.683 9.96049C38.6386 9.91614 38.5943 9.87179 38.5499 9.82743C38.0617 9.25084 37.5734 8.67425 37.0852 8.09767C36.8189 7.78719 36.8189 7.56543 37.0408 7.34366L34.6441 6.27919C34.6441 6.4566 34.511 6.54531 34.3334 6.63402C34.2447 6.67837 34.0671 6.67837 33.934 6.63402C33.4901 6.4566 33.2682 6.05743 33.0907 5.7026L26.3887 3.13013C25.9449 2.95272 25.4567 2.95272 24.9684 3.13013ZM7.52563 13.8192C7.43686 13.8636 7.34809 13.8192 7.21494 13.7748C7.30371 13.6418 7.34809 13.5531 7.39248 13.5531C7.48125 13.5531 7.57001 13.5974 7.65878 13.6418C7.57001 13.6861 7.57001 13.8192 7.52563 13.8192ZM7.48125 11.7346C7.21494 11.7346 6.90426 11.779 6.81549 11.6903C6.59357 11.4685 6.85987 11.2911 7.03741 11.158C7.17056 11.025 7.43686 10.7588 7.6144 11.0693C7.65878 11.2024 7.52563 11.4241 7.48125 11.7346ZM4.41877 34.2216C3.93054 34.3103 3.70863 34.1772 3.57547 33.645C3.53109 33.4232 3.84178 33.0684 4.19685 33.0241C4.46315 32.9797 4.64068 33.1128 4.72945 33.5563C4.8626 34.0442 4.77384 34.1329 4.41877 34.2216ZM17.0238 49.7895C16.935 49.8782 16.7131 49.9225 16.5355 49.8782C16.2692 49.7895 16.3136 49.479 16.6687 49.1685C16.7131 49.1242 16.8462 48.9911 16.935 48.9911C17.0681 48.9911 17.2457 49.0355 17.3344 49.1242C17.512 49.479 17.2013 49.6121 17.0238 49.7895ZM18.7547 51.9184C18.5328 51.8297 18.2221 51.741 18.0446 51.5193C17.8227 51.3418 17.9114 51.0757 18.1333 50.8983C18.3553 50.8096 18.7103 50.4991 18.7991 50.8983C18.8879 51.2088 18.7547 51.608 18.7547 51.9184ZM19.3317 56.8416C19.2873 56.886 19.1542 56.7973 19.021 56.7086C19.1098 56.5755 19.1986 56.4868 19.2873 56.4424C19.3317 56.4424 19.5092 56.5311 19.5092 56.5755C19.4649 56.6199 19.4205 56.7086 19.3317 56.8416ZM20.6188 48.9468C20.6632 48.8581 20.6632 48.7694 20.7076 48.6363C20.752 48.5033 20.752 48.3702 20.752 48.1928C20.8851 48.2371 21.0183 48.2815 21.1958 48.3258C21.329 48.4145 21.4177 48.5033 21.4621 48.5476C21.9947 49.1242 21.9947 49.2573 21.5509 49.6121C21.3734 49.7451 21.1514 50.0556 20.9295 49.7451C20.752 49.5677 20.3525 49.3903 20.6188 48.9468ZM20.9295 51.3862C20.9295 51.2975 20.8851 51.1644 20.9295 51.1201C21.1071 50.8983 21.1958 50.4548 21.684 50.6765C21.7728 50.7209 21.9504 50.6322 22.1279 50.5878C22.261 50.5435 22.3498 50.4548 22.4386 50.3661C22.6161 50.233 22.8824 50.1887 22.9712 50.4104C23.0156 50.5435 22.9268 50.7209 22.8824 50.987C22.483 51.0314 22.2167 51.0314 21.9504 51.1201C21.7284 51.1644 21.4177 51.2975 21.1958 51.3862C21.0627 51.3862 21.0183 51.3862 20.9295 51.3862ZM21.5509 56.2207C21.4621 56.132 21.329 56.0876 21.329 56.0876C21.3734 55.9989 21.4177 55.9102 21.4621 55.8658C21.5065 55.8658 21.6397 55.9102 21.6397 55.9546C21.6397 55.9546 21.5953 56.0433 21.5509 56.2207ZM22.2167 55.7771C21.906 55.9546 21.6397 55.8658 21.3734 55.4667C21.3734 55.4223 21.329 55.2449 21.329 55.0675C21.329 54.9344 21.3734 54.8014 21.329 54.624C21.2846 54.3135 21.4177 54.2248 21.6397 54.4022C21.684 54.4466 21.7284 54.4909 21.8172 54.4909C22.0391 54.5353 22.3942 54.9344 22.483 55.1118C22.6605 55.4667 22.5273 55.6441 22.2167 55.7771ZM23.0599 52.9385C23.0599 52.9385 23.0156 52.9829 22.9268 53.0273C22.8824 52.9829 22.7936 52.8942 22.7493 52.8055C22.5717 52.5394 22.5273 52.0515 22.0835 51.9628C22.0391 51.9628 22.0391 51.8297 22.0835 51.7854C22.1279 51.741 22.2167 51.6523 22.3054 51.6967C22.7049 51.741 23.0599 51.8297 23.4594 51.9184C23.5038 51.9184 23.5482 52.0515 23.5926 52.1402C23.1931 52.2733 23.1043 52.5394 23.0599 52.9385ZM25.146 53.7369C24.9241 53.5595 24.6578 53.2934 24.4358 53.116C24.3027 53.0273 24.1252 52.9386 23.9476 52.8498C23.8145 52.8055 23.6813 52.7611 23.4594 52.7611C23.5482 52.5837 23.5926 52.4507 23.7257 52.1402C23.9476 52.1402 24.1695 52.1402 24.3471 52.1846C24.5246 52.1846 24.6578 52.2289 24.8797 52.2289C25.2791 52.2733 25.5011 52.6281 25.4567 52.9829C25.4567 53.1603 25.4567 53.2934 25.4567 53.5151C25.4567 53.6038 25.4123 53.6926 25.4123 53.7813C25.3235 53.7813 25.1904 53.7813 25.146 53.7369ZM28.0753 56.4868C28.1197 56.5311 28.1197 56.7529 28.0309 56.7973C27.9422 56.8416 27.7646 56.886 27.6315 56.8416C27.5427 56.7973 27.5871 56.6199 27.5871 56.3094C27.809 56.3981 27.9865 56.3981 28.0753 56.4868ZM26.6994 57.6843C26.6994 57.6843 26.6994 57.7287 26.6994 57.6843C26.877 57.6843 27.0101 57.64 27.232 57.5956C27.7646 57.4626 27.8978 57.5513 27.9865 57.8617C28.1197 58.394 27.9865 58.6157 27.5427 58.7488C27.1433 58.8375 26.7882 59.0149 26.3887 58.9706C26.078 58.9262 25.723 58.7044 25.4123 58.527C25.4123 58.527 25.4567 58.2609 25.5454 58.2166C25.9005 57.9948 26.2556 57.8617 26.6994 57.6843ZM26.3443 54.3135C26.3887 54.5796 26.4331 54.8457 26.4331 55.0231C26.2112 54.8901 25.9005 54.8014 25.723 54.5796C25.6786 54.5353 25.7674 54.1804 25.7674 54.1804C26.0337 54.2248 26.1668 54.3135 26.3443 54.3135ZM25.5011 47.1283C25.6786 47.3944 25.9449 47.6605 26.1668 47.9267C26.5663 48.3702 26.5663 48.4145 26.078 48.7694C25.9449 48.9024 25.8117 48.9911 25.6342 49.0798C25.5011 49.1685 25.3679 49.3016 25.1904 49.3903C24.7465 49.7895 24.569 49.7008 24.3027 49.2573C24.1695 49.0355 24.2139 48.8137 24.3915 48.6807C24.569 48.5033 24.8353 48.2371 24.9684 48.0154C25.146 47.7049 25.0572 47.5718 24.7465 47.5275C24.6134 47.5275 24.4358 47.4388 24.2583 47.3944C24.3027 47.2614 24.3471 47.084 24.4358 46.9065C24.9241 46.5961 25.1016 46.5961 25.5011 47.1283ZM46.8053 16.4804C46.9828 16.2586 47.1159 16.436 47.3379 16.5691C47.4266 16.6134 47.5154 16.6578 47.5154 16.7465C47.5598 16.8796 47.5154 17.057 47.5154 17.2344C47.3823 17.2344 47.2491 17.2344 47.0716 17.19C46.9828 17.19 46.9384 17.057 46.8053 16.9239C46.8053 16.7909 46.6721 16.5691 46.8053 16.4804ZM20.2638 6.19049C20.2638 6.14613 20.5301 6.14613 20.5301 6.14613C20.6188 6.3679 20.6632 6.67837 20.7076 6.94449C20.7076 6.98884 20.4857 7.07755 20.4857 7.03319C20.3525 6.94449 20.3082 6.76708 20.2194 6.58966C20.175 6.4566 20.175 6.32355 20.2638 6.19049ZM18.3553 7.1219C18.4884 7.1219 18.5772 7.29931 18.7547 7.38802C18.7991 7.43237 18.7991 7.52108 18.7991 7.60978C18.7991 7.69849 18.8435 7.83155 18.7991 8.00896C18.7103 8.18637 18.5328 8.27508 18.3553 8.09767C18.2665 7.96461 18.1777 7.78719 18.1333 7.56543C18.089 7.43237 18.1333 7.16625 18.3553 7.1219ZM17.9558 23.5325C18.1333 23.4882 18.3997 23.7099 18.6216 23.7986C18.6216 23.843 18.6216 23.8873 18.5772 23.9317C18.8435 24.1978 19.1542 24.5083 19.3761 24.8187C19.4649 24.9075 19.3761 25.0849 19.3761 25.3066C19.2429 25.2623 18.9766 25.3066 18.8879 25.2179C18.7103 24.9518 18.5772 24.6413 18.089 24.7744C17.9558 24.8187 17.5564 24.3752 17.512 24.1535C17.512 24.0204 17.7339 23.6656 17.9558 23.5325ZM16.4911 22.6455C16.5799 22.5567 16.8906 22.7342 17.0238 22.7342C17.1569 22.9559 17.2457 23.0446 17.2457 23.222C17.2457 23.3107 17.1569 23.5325 17.1125 23.5325C16.935 23.4882 16.6687 23.4438 16.6243 23.3551C16.4911 23.1777 16.1805 22.8672 16.4911 22.6455ZM16.5799 29.5202C16.5355 29.6532 16.5799 29.7863 16.5355 29.8306C16.4468 29.875 16.358 29.875 16.2692 29.875C16.2692 29.7863 16.2248 29.6976 16.2692 29.6532C16.2692 29.5645 16.4024 29.5645 16.5799 29.5202ZM17.2457 30.8508C17.2901 30.7177 17.2901 30.5846 17.3344 30.4072C17.3788 30.2742 17.3788 30.1411 17.4676 30.0968C17.5564 30.0524 17.6895 30.1411 17.7783 30.1855C17.9114 30.2742 18.0002 30.3629 18.0446 30.4516C18.4884 30.9838 18.4884 31.2943 18.089 31.6935C18.0002 31.7378 17.9114 31.8265 17.8227 31.8265C17.5564 31.8265 17.1569 31.1612 17.2457 30.8508ZM17.5564 25.3953C17.5564 25.3953 17.6451 25.2179 17.6895 25.2179C17.7783 25.2179 17.867 25.2623 17.9558 25.3066C17.9114 25.3953 17.9114 25.4397 17.8227 25.5728C17.7339 25.5284 17.6451 25.484 17.5564 25.3953ZM15.9142 15.3272C16.0917 15.2385 16.358 15.1941 16.5355 15.1054C16.7131 15.0167 16.9794 14.928 17.1569 14.8393C17.1569 14.8393 17.1569 14.8393 17.1569 14.8837C17.2457 14.8837 17.3344 14.795 17.3788 14.8393C17.512 14.8837 17.6895 14.9724 17.7783 15.0611C17.8227 15.1498 17.6895 15.3272 17.6007 15.3716C17.4232 15.4603 17.2013 15.5046 17.0238 15.5046C16.7131 15.549 16.4024 15.6377 16.0917 15.682C15.9585 15.682 15.8698 15.5933 15.6922 15.5933C15.7366 15.5933 15.781 15.3716 15.9142 15.3272ZM15.8698 21.6253C15.6922 21.7584 15.4703 21.9358 15.2928 21.714C15.2484 21.6253 15.3372 21.4479 15.3816 21.1818C15.6035 21.1374 15.9142 21.0487 16.0473 21.1374C16.2248 21.3149 16.0029 21.4923 15.8698 21.6253ZM14.272 7.8759C14.3163 7.78719 14.4051 7.65414 14.4939 7.65414C14.6714 7.60978 15.3816 8.27508 15.4259 8.49684C15.4259 8.6299 15.4259 8.76296 15.3816 8.94037C15.2928 8.89602 15.1596 8.85167 15.0709 8.85167C14.7602 8.76296 14.3163 8.89602 14.3163 8.40814C14.3163 8.14202 14.2276 7.96461 14.272 7.8759ZM14.5826 13.287C14.8046 13.2426 15.0265 13.1539 15.2484 13.1539C15.3372 13.1539 15.5147 13.2426 15.5147 13.3313C15.5147 13.42 15.4259 13.5974 15.3816 13.5974C15.1153 13.6861 14.7602 13.7305 14.4939 13.8192C14.4939 13.8192 14.4939 13.8192 14.4939 13.8636C14.3163 13.9079 14.05 13.9966 13.8281 13.9966C13.695 13.9966 13.3843 13.9523 13.3843 13.8636C13.3399 13.6418 13.3843 13.3757 13.3843 13.1539C13.4287 13.1539 13.5174 13.1539 13.5618 13.1539C13.9169 13.5087 14.272 13.3757 14.5826 13.287ZM15.204 30.6733C15.204 30.8064 15.2484 30.8951 15.2484 30.9838C15.1596 30.9838 15.0265 30.9838 14.9821 30.9395C14.9377 30.8508 14.9377 30.7177 14.8933 30.629C15.0265 30.629 15.1153 30.6733 15.204 30.6733ZM14.7158 28.1452C14.6714 28.1009 14.7158 27.9235 14.7158 27.7017C14.8933 27.7904 15.0265 27.7904 15.1153 27.8791C15.1596 27.9235 15.1153 28.1452 15.0709 28.1452C14.9821 28.1896 14.8046 28.1896 14.7158 28.1452ZM13.4287 19.2303C13.5174 19.3633 13.6062 19.4077 13.6062 19.4964C13.6062 19.5851 13.5174 19.6738 13.4731 19.7182C13.4287 19.7625 13.3399 19.6738 13.2511 19.6294C13.2955 19.5407 13.2955 19.4964 13.4287 19.2303ZM13.118 18.3432C13.0736 18.3432 13.118 18.1658 13.0736 17.944C13.2511 17.9884 13.3843 17.9884 13.4731 18.0327C13.5174 18.0771 13.4731 18.2101 13.4731 18.2989C13.3399 18.3876 13.2068 18.3876 13.118 18.3432ZM13.5174 16.1256C13.695 15.9481 13.9169 15.8151 14.1832 15.549C14.3163 15.682 14.5826 15.7707 14.5826 15.8594C14.5826 15.9925 14.4495 16.1699 14.3163 16.1699C13.9613 16.303 13.7394 16.2143 13.5174 16.1256ZM13.7394 9.47261C13.8281 9.47261 13.9169 9.56131 14.0057 9.60567C13.9613 9.69437 13.9169 9.82743 13.8725 9.82743C13.8281 9.87179 13.695 9.78308 13.3843 9.65002C13.5618 9.56131 13.6506 9.47261 13.7394 9.47261ZM12.5854 13.9079C12.7185 13.8192 12.8961 13.8192 13.118 13.7748C13.118 13.9079 13.118 14.041 13.0736 14.2184C13.0736 14.2627 13.0292 14.3071 12.9848 14.3958C12.9404 14.4845 12.8517 14.6176 12.8073 14.7063C12.7185 14.6176 12.6298 14.4845 12.541 14.3958C12.541 14.2627 12.4966 13.9966 12.5854 13.9079ZM12.541 25.2623C12.5854 25.2179 12.7185 25.1736 12.8073 25.1736C12.9848 25.1736 13.2068 25.2179 13.3843 25.2179C13.5174 25.2623 13.6506 25.2623 13.695 25.351C13.8725 25.5284 14.0057 25.7502 14.1832 25.9276C14.2276 25.9719 14.272 26.0606 14.272 26.1493C14.3607 26.105 14.4051 26.0163 14.4939 26.0163C14.5383 26.0163 14.627 26.105 14.6714 26.1493C14.627 26.1937 14.5383 26.2824 14.4939 26.3267C14.4495 26.3267 14.4051 26.2824 14.3163 26.238C14.3607 26.5042 14.2276 26.859 13.9169 26.9033C13.8281 26.9477 13.6506 26.859 13.5174 26.7703C13.3399 26.6372 13.2068 26.3711 13.0292 26.1937C12.8517 25.9719 12.6298 25.7502 12.4522 25.5284C12.4966 25.484 12.4966 25.3066 12.541 25.2623ZM14.05 31.2499C13.9613 31.1169 13.8725 31.0725 13.8725 31.0282C13.8725 30.9838 13.9169 30.8951 13.9613 30.8064C14.05 30.8508 14.1388 30.8951 14.1832 30.9838C14.2276 30.9838 14.0944 31.1169 14.05 31.2499ZM12.6741 28.0122C12.7185 27.9678 12.9848 28.1009 13.2068 28.1896C13.2955 28.2339 13.3843 28.3226 13.4731 28.4113C13.6062 28.7218 14.0057 28.9879 13.695 29.4758C13.6506 29.5645 13.695 29.6976 13.695 29.7863C13.7837 30.0968 13.6506 30.0968 13.3843 30.0524C13.2511 30.008 13.0736 30.0524 12.8517 30.0968C12.5854 30.1411 12.3191 30.008 12.4522 29.7863C12.6298 29.4758 12.4522 29.254 12.3635 29.0323C12.3191 28.9436 12.2303 28.8105 12.2747 28.7218C12.4078 28.4557 12.4966 28.1896 12.6741 28.0122ZM12.3635 32.3144C12.3635 32.4475 12.3635 32.5805 12.3191 32.6249C12.2303 32.7136 12.0972 32.7136 11.964 32.7136C11.964 32.6249 11.9196 32.4475 11.964 32.4031C12.0084 32.3144 12.1859 32.3588 12.3635 32.3144ZM11.964 16.6134C11.9196 16.6578 11.6977 16.6134 11.6533 16.5691C11.6089 16.5247 11.6533 16.3473 11.6533 16.1256C11.8309 16.1699 11.964 16.1699 12.0528 16.2586C12.0972 16.3917 12.0084 16.5691 11.964 16.6134ZM9.96674 28.2339C9.5229 28.367 9.56728 28.0122 9.47852 27.746C9.47852 27.613 9.43413 27.4799 9.47852 27.3025C9.47852 27.2138 9.61167 27.1251 9.65605 27.0807C9.74482 27.0807 9.87797 27.1251 9.92235 27.1695C10.0111 27.2582 10.0555 27.3912 10.0555 27.5686C10.1443 27.8791 10.2774 28.1452 9.96674 28.2339ZM10.6325 33.2015C10.5881 33.2902 10.5881 33.3789 10.5437 33.4676C10.5437 33.5119 10.3662 33.4676 10.3218 33.4232C10.2774 33.3789 10.233 33.2902 10.1887 33.1571C10.4106 33.1571 10.4993 33.1571 10.6325 33.2015ZM9.43413 35.3304C9.47852 35.3304 9.61167 35.4635 9.65605 35.5078C9.56728 35.5965 9.47852 35.6852 9.38975 35.7739C9.34536 35.8183 9.2566 35.6852 9.07906 35.6409C9.2566 35.4635 9.34536 35.3304 9.43413 35.3304ZM9.92235 35.9514C10.1443 36.2175 10.6769 35.6852 10.7656 36.1731C10.81 36.2618 10.5881 36.4392 10.455 36.661C10.3218 36.661 10.0111 36.7941 9.96674 36.7054C9.83359 36.5279 9.74482 36.2175 9.56728 35.9957C9.74482 35.9957 9.92235 35.907 9.92235 35.9514ZM10.7213 34.8869C10.7213 34.6651 10.6769 34.4877 10.6769 34.3546C10.6769 34.1772 10.7213 33.9555 10.7213 33.7781C10.8544 33.8668 10.9876 33.9998 11.1651 34.0442C11.2539 34.0885 11.3426 34.0885 11.4758 34.1329C11.7421 34.2216 12.0084 34.6651 11.964 34.9312C11.9196 35.1086 11.2095 35.4191 11.0319 35.2417C10.8544 35.2417 10.7656 35.0199 10.7213 34.8869ZM11.4758 24.2422C11.387 24.1978 11.2982 24.0647 11.2095 24.0204C11.1207 23.9317 11.0763 23.843 11.0319 23.7099C11.0319 23.6212 11.0763 23.5325 11.1207 23.4438C11.2982 23.5325 11.5202 23.5769 11.6533 23.7099C11.7865 23.843 11.964 24.0204 11.7421 24.2422C11.6977 24.2422 11.5202 24.2422 11.4758 24.2422ZM11.8752 12.5773C11.9196 12.666 11.8752 12.7991 11.8752 12.8878C11.7865 12.8878 11.6533 12.8878 11.6089 12.8434C11.5646 12.7991 11.5646 12.666 11.5646 12.533C11.6977 12.5773 11.8752 12.533 11.8752 12.5773ZM10.6769 14.795C10.81 14.7506 10.9876 14.8837 11.1207 14.8837C11.5646 15.4159 11.5646 15.6377 11.1651 15.8594C10.7656 16.0369 10.6769 15.9925 10.6325 15.549C10.6325 15.4603 10.5881 15.3716 10.5881 15.3272C10.4106 15.1498 10.4106 14.928 10.6769 14.795ZM10.455 16.7465C10.4993 16.7465 10.5881 16.8352 10.5881 16.8796C10.5881 16.9239 10.4993 17.0126 10.455 17.0126C10.4106 17.0126 10.3218 16.9683 10.233 16.8796C10.3662 16.7909 10.4106 16.7465 10.455 16.7465ZM10.1887 25.351C10.4106 25.5728 10.6325 25.8389 10.9876 25.7945C11.0763 25.7945 11.2982 26.0606 11.2539 26.1937C11.1651 26.5042 11.3426 26.7703 11.4758 26.992C11.5202 27.1251 11.4758 27.3025 11.4758 27.4799C11.3426 27.4799 11.0763 27.4799 10.9876 27.3912C10.7213 27.1695 10.455 26.8146 10.1443 26.5042C10.0111 26.3267 9.83358 26.105 9.61167 25.8832C9.47851 25.7058 9.38975 25.5728 9.56728 25.351C9.83359 25.1292 10.0111 25.2179 10.1887 25.351ZM9.96674 21.8027C10.0111 21.8027 9.96674 21.9802 9.92235 22.0245C9.83359 22.0689 9.74482 22.0689 9.65605 22.0245C9.61167 21.9802 9.56728 21.8914 9.5229 21.714C9.74482 21.7584 9.83359 21.7584 9.96674 21.8027ZM9.47852 19.7625C9.5229 19.7182 9.74482 19.8512 9.74482 19.8956C9.7892 20.0286 9.70043 20.1617 9.65605 20.2947C9.5229 20.2504 9.43413 20.206 9.16783 20.1617C9.34536 19.9399 9.38975 19.8069 9.47852 19.7625ZM9.2566 30.629C9.21221 30.762 9.16783 30.8508 9.12345 30.8951C9.07906 30.9395 8.99029 30.8951 8.90153 30.8951C8.94591 30.8064 8.94591 30.7177 8.99029 30.629C8.99029 30.5846 9.07906 30.629 9.2566 30.629ZM7.74755 27.5243C7.52563 27.5243 7.21494 27.0808 7.25933 26.9033C7.30371 26.5929 7.70316 26.238 7.96947 26.2824C8.05823 26.2824 8.10262 26.3711 8.19139 26.3711C8.36892 26.4155 8.72399 26.1937 8.76837 26.5042C8.81276 26.7259 8.59084 27.0364 8.50207 27.3025C8.147 27.3912 7.96947 27.4799 7.74755 27.5243ZM7.79193 32.7136C7.70316 32.7136 7.65878 32.7136 7.57001 32.7136C7.52563 32.7136 7.57001 32.6249 7.57001 32.4918C7.65878 32.5362 7.74755 32.5362 7.79193 32.5805C7.79193 32.5805 7.79193 32.6692 7.79193 32.7136ZM8.63522 32.0926C8.72399 32.0926 8.81276 32.1813 8.90153 32.2257C8.85714 32.3144 8.81276 32.4475 8.76837 32.4918C8.67961 32.5362 8.59084 32.4475 8.36892 32.4031C8.50207 32.2257 8.54646 32.0926 8.63522 32.0926ZM8.94591 24.4639C8.81276 24.4639 8.67961 24.5083 8.63522 24.4196C8.59084 24.3752 8.59084 24.1978 8.54646 23.976C8.72399 24.0204 8.94591 24.0204 8.99029 24.0647C8.99029 24.1535 8.94591 24.3309 8.94591 24.4639ZM8.23577 17.1457C8.50207 17.1013 8.63522 17.2344 8.67961 17.4561C8.76837 17.944 8.72399 18.0771 8.28015 18.2101C7.8807 18.2989 7.74755 18.2545 7.65878 17.811C7.57001 17.5005 7.83632 17.19 8.23577 17.1457ZM7.65878 18.9642C7.96947 18.698 8.10262 18.698 8.36892 18.9642C8.67961 19.3633 8.67961 19.452 8.36892 19.7182C7.96947 20.0286 7.8807 20.0286 7.6144 19.7182C7.30371 19.319 7.30371 19.2303 7.65878 18.9642ZM7.65878 22.335C7.74755 22.468 7.8807 22.6011 7.92508 22.7342C7.96947 22.8672 7.96947 23.0446 7.8807 23.1777C7.83632 23.2664 7.6144 23.2664 7.43686 23.222C7.21494 23.1777 6.81549 22.6011 6.81549 22.335C6.81549 22.2019 6.81549 22.0689 6.81549 21.8914C6.94864 21.9358 7.08179 21.9802 7.25933 22.0689C7.43686 22.1576 7.57001 22.2463 7.65878 22.335ZM5.92781 16.4804C6.19412 16.303 6.41604 16.3917 6.68234 16.7465C6.94864 17.1013 6.90426 17.2344 6.5048 17.5449C6.06097 17.8553 5.9722 17.811 5.66151 17.4118C5.39521 17.1457 5.57274 16.7465 5.92781 16.4804ZM3.44232 27.613C3.35356 27.613 3.30917 27.613 3.17602 27.613C3.17602 27.4799 3.17602 27.3912 3.2204 27.3025C3.2204 27.3025 3.39794 27.3025 3.44232 27.3469C3.44232 27.3912 3.44232 27.5243 3.44232 27.613ZM4.90699 23.3995C4.50753 23.7099 4.37438 23.7099 4.0637 23.3551C3.84178 23.089 3.57547 22.7342 3.35356 22.468C3.17602 22.2463 3.2204 22.0245 3.39794 21.8027C3.61986 21.581 3.84178 21.6697 4.01931 21.8471C4.28561 22.1132 4.5963 22.3793 4.8626 22.6011C5.12891 22.8672 5.21767 23.1333 4.90699 23.3995ZM4.77384 18.698C4.72945 18.698 4.64068 18.698 4.55192 18.698L4.5963 18.7424C4.64068 18.8311 4.5963 19.1416 4.55192 19.1416C4.41877 19.1859 4.24123 19.1859 4.0637 19.0972C3.88616 18.9198 3.66424 18.698 3.44232 18.3876C3.35356 18.2545 3.17602 18.0771 2.99849 17.7666C2.9541 17.6779 2.99849 17.5449 3.04287 17.3674C3.04287 17.3231 3.26479 17.3674 3.30917 17.4118C3.53109 17.6336 3.79739 17.8997 4.01931 18.1214C4.0637 18.0771 4.0637 18.0327 4.10808 17.944C4.19685 17.7666 4.24123 17.5005 4.33 17.4561C4.55192 17.4118 4.8626 17.4561 5.08452 17.5005L5.21767 17.5892C5.39521 17.7223 5.66151 17.811 5.83905 17.9884C5.61713 18.1658 5.30644 18.3876 5.08452 18.565C5.08452 18.6537 4.99575 18.6537 4.77384 18.698ZM5.12891 21.1374C5.21767 21.0487 5.35082 20.96 5.43959 20.8713C5.30644 20.6496 5.21767 20.3391 5.30644 20.1173C5.35082 20.0286 5.39521 19.9843 5.39521 19.8956C5.48398 19.2746 5.52836 19.2746 6.01658 19.7182C6.10535 19.7625 6.14973 19.8512 6.2385 19.9399C6.2385 19.9399 6.2385 19.9399 6.19412 19.9843C6.46042 20.3834 6.77111 20.7383 7.03741 21.1374C7.08179 21.2262 7.08179 21.3592 7.12618 21.5366C7.03741 21.5366 6.90426 21.5366 6.81549 21.4923C6.54919 21.2705 6.28288 21.0487 5.92781 21.0931C5.88343 21.1818 5.79466 21.2262 5.70589 21.3149C5.43959 21.2262 5.30644 21.1818 5.12891 21.1374ZM5.75028 26.4598C5.61713 26.238 5.39521 26.0606 5.66151 25.7945C5.75028 25.7058 5.75028 25.5284 5.70589 25.351C5.66151 24.9075 5.9722 24.73 6.14973 24.73C6.37165 24.73 6.68234 24.9962 6.90426 25.2179C6.94864 25.2623 6.81549 25.484 6.72672 25.6171C6.41604 25.8832 6.06096 26.1493 5.75028 26.4598C5.83905 26.6372 6.14973 26.7703 5.83905 27.0364C5.79466 27.0808 5.66151 27.0808 5.61713 27.0364C5.35082 26.7259 5.66151 26.6372 5.75028 26.4598ZM5.75028 33.0684C5.70589 32.9797 5.79466 32.8466 5.88343 32.7579C5.92781 32.7136 6.10535 32.7579 6.14973 32.8466C6.2385 32.9353 6.2385 33.0684 6.28288 33.2458C6.28288 33.3345 6.28288 33.4676 6.2385 33.645C6.2385 33.6893 6.06097 33.7337 6.06097 33.7337C5.92781 33.5119 5.83905 33.2902 5.75028 33.0684ZM5.9722 40.2979C5.88343 40.3423 5.70589 40.3423 5.66151 40.2536C5.61713 40.2092 5.66151 40.0318 5.66151 39.8101C5.83905 39.8988 5.9722 39.8988 6.06097 39.9431C6.06097 40.1205 6.01658 40.2979 5.9722 40.2979ZM6.19412 42.4269C6.06096 42.4712 5.79466 42.4269 5.75028 42.3382C5.66151 42.1608 5.61713 41.8947 5.57274 41.6729C5.79466 41.7616 6.01658 41.806 6.32727 41.939C6.32727 42.1608 6.32727 42.3825 6.19412 42.4269ZM5.92781 31.8709C5.9722 31.6935 6.01658 31.5604 6.01658 31.4273C6.19412 31.2943 6.28288 31.2499 6.41603 31.2056C6.68234 31.1169 6.85987 31.2943 6.90426 31.5161C6.90426 31.5604 6.77111 31.6935 6.68234 31.7822C6.63795 31.8265 6.54919 31.8265 6.46042 31.8709C6.19412 31.8709 6.06097 31.8709 5.92781 31.8709ZM6.46042 35.8626C6.46042 35.7296 6.59357 35.5522 6.68234 35.4635C6.85987 35.3748 7.12618 35.3304 7.30371 35.2861V35.2417C7.57001 35.1973 7.8807 35.153 8.147 35.1086C8.19139 35.1086 8.32454 35.2417 8.32454 35.2861C8.28015 35.5078 8.23577 35.907 8.10262 35.9957C7.6144 36.2175 7.12618 36.3062 6.63795 36.4392C6.63795 36.3949 6.46042 36.0401 6.46042 35.8626ZM7.25933 40.8745C7.39248 40.9632 7.52563 40.9632 7.57001 41.0519C7.6144 41.0963 7.52563 41.2737 7.52563 41.3181C7.43686 41.3181 7.30371 41.3181 7.21494 41.2294C7.17056 41.185 7.21494 41.0519 7.25933 40.8745ZM9.21221 47.9267C9.07906 47.8823 8.99029 47.838 8.72399 47.7492C8.85714 47.5718 8.94591 47.4388 9.03468 47.3501C9.07906 47.3057 9.2566 47.4388 9.30098 47.5275C9.34536 47.7049 9.2566 47.7936 9.21221 47.9267ZM10.7213 46.1082C10.5437 46.2856 10.3218 46.5074 10.1443 46.6848C10.1887 46.6848 10.1887 46.7291 10.233 46.7291C10.1887 46.8178 10.1443 46.9509 10.0555 46.9952C10.0111 46.9952 9.92235 46.9509 9.83358 46.9065C9.74482 46.9065 9.65605 46.9065 9.56728 46.7735C9.5229 46.6848 9.56728 46.463 9.61167 46.2856C9.74482 46.0638 9.92235 45.8421 10.0999 45.6647C9.87797 45.576 9.61167 45.5316 9.38975 45.4429C9.2566 45.3985 9.12345 45.3542 8.99029 45.3985C8.76837 45.4872 8.54646 45.576 8.36892 45.3542C8.19139 45.1324 7.8807 44.9107 8.05823 44.6002C8.147 44.3341 8.10262 44.201 7.83632 44.201C7.43686 44.201 7.34809 43.9792 7.52563 43.5801C7.6144 43.3139 7.39248 42.9591 7.70316 42.7374C8.10262 42.4712 8.90153 42.4712 9.21221 42.7817C9.34536 42.9148 9.47852 43.0922 9.65605 43.3139C9.7892 43.447 9.92235 43.6244 10.0555 43.8018C10.1887 43.9792 10.3218 44.2454 10.5437 44.3784C11.0763 44.7776 10.8544 45.3098 10.9876 45.8421C10.8544 45.8864 10.7656 46.0638 10.7213 46.1082ZM10.5437 39.5439C10.455 39.4996 10.233 39.4552 10.1443 39.3665C10.0555 39.1004 10.3218 39.1004 10.5437 39.0561C10.5881 39.0561 10.6769 39.0117 10.7213 39.0117C10.8544 39.0561 10.9432 39.1004 11.1207 39.1448C11.0319 39.2335 10.9876 39.3222 10.8988 39.4109C10.8544 39.4552 10.7656 39.4552 10.5437 39.5439ZM11.4314 41.0519C11.3426 41.0519 11.1651 40.9189 11.1651 40.8302C11.1651 40.7415 11.2539 40.5641 11.3426 40.5197C11.4314 40.4754 11.5646 40.6084 11.7865 40.6971C11.5646 40.8745 11.4758 41.0519 11.4314 41.0519ZM12.9848 38.2577C12.9404 38.3021 12.9404 38.3464 12.9404 38.3908C12.9404 38.5682 12.9404 38.9674 12.8961 38.9674C12.6298 39.0117 12.2747 39.0117 12.0084 38.9674C11.9196 38.9674 11.7865 38.7012 11.8309 38.6569C11.9196 38.4351 12.0528 38.2134 12.2303 38.0359C12.3635 37.9916 12.4966 37.9029 12.6298 37.9029C12.7629 37.8585 13.0292 37.8142 13.118 37.8585C13.2511 37.9472 13.118 38.1246 12.9848 38.2577ZM12.8961 36.5723C12.6741 36.4836 12.7629 36.3062 12.8073 36.0401C12.8517 35.5522 12.8961 35.1973 13.3399 34.8869C13.3843 34.8869 13.3843 34.8425 13.3843 34.7982C13.2955 34.8425 13.2511 34.8425 13.1624 34.8869C13.0736 34.8869 12.9848 34.9756 12.8517 34.9756C12.7629 34.9756 12.5854 34.9312 12.541 34.8425C12.4966 34.7538 12.4966 34.6208 12.541 34.4433C12.6298 34.2659 12.7185 34.0442 12.8517 33.9111C12.9404 33.8224 13.0736 33.7337 13.1624 33.6893C13.2511 33.6893 13.2955 33.6893 13.3843 33.645C13.4287 33.5563 13.4731 33.4232 13.5618 33.3789C13.6062 33.3345 13.8281 33.3789 13.8725 33.4676C13.9169 33.5119 13.9613 33.5563 14.0057 33.6006C14.272 33.6006 14.4051 33.7337 14.4495 34.0885C14.4495 34.0885 14.4495 34.0885 14.4495 34.1329C15.2484 34.9756 15.204 35.0199 14.1832 35.6852C13.8725 35.8626 13.6062 36.2175 13.3399 36.4392C13.2068 36.5723 12.9848 36.6166 12.8961 36.5723ZM14.272 39.0561C14.1388 38.923 14.05 38.7899 13.8725 38.6125C13.9169 38.4351 13.9169 38.3021 14.0057 38.1246C14.05 38.0803 14.272 38.0803 14.272 38.1246C14.3607 38.3908 14.4051 38.6569 14.4495 38.923C14.5383 38.9674 14.3163 39.1004 14.272 39.0561ZM14.4495 40.6971C14.272 40.6528 14.1388 40.6084 14.05 40.6084C13.9169 40.4754 13.8725 40.431 13.8725 40.3867C13.8281 40.2979 13.8281 40.1649 13.7837 39.9875C13.9169 40.0318 14.05 40.0318 14.1832 40.0762C14.2276 40.0762 14.272 40.1205 14.272 40.1649C14.3607 40.3423 14.4051 40.4754 14.4495 40.6971ZM14.4051 43.0478C14.2276 43.2252 13.9169 43.3139 13.6506 43.3583C13.5174 43.3583 13.3843 43.1809 13.2511 43.0922C13.2511 42.8704 13.2511 42.7817 13.2511 42.6487C13.2511 42.5156 13.3399 42.4269 13.3843 42.3382C13.4731 42.3825 13.5618 42.4269 13.6506 42.4712C13.7837 42.5156 13.9613 42.5599 14.1388 42.6043C14.4495 42.693 14.5383 42.9148 14.4051 43.0478ZM15.5591 42.3382C15.2484 42.1608 14.8933 41.8503 14.4495 42.0277C14.4051 42.0277 14.272 41.8947 14.272 41.8947C14.3163 41.7616 14.3607 41.5842 14.4051 41.4955C14.6714 41.2737 14.8933 41.0963 15.1596 41.2737C15.2484 41.3181 15.4259 41.2737 15.6035 41.2737C16.0029 41.2294 16.1361 41.5398 16.2248 41.8059C16.2692 41.939 16.0917 42.2051 15.9585 42.3382C15.9142 42.3825 15.6922 42.3825 15.5591 42.3382ZM15.3816 37.8585C15.4703 37.7698 15.6479 37.7698 15.8254 37.7255C15.8254 37.8142 15.8698 37.9029 15.8254 37.9472C15.781 38.0359 15.6922 38.0803 15.6035 38.169C15.5591 38.2134 15.4703 38.2577 15.3816 38.3021C15.3372 38.3021 15.2484 38.2577 15.1596 38.2577C15.204 38.1246 15.2484 37.9472 15.3816 37.8585ZM15.5147 36.0401C15.8254 35.7739 15.9585 35.8183 16.3136 36.2618C16.4468 36.4392 16.6243 36.7054 16.3136 36.9715C15.8698 37.2819 15.6479 37.3706 15.4703 37.1045C15.1153 36.661 15.1596 36.3505 15.5147 36.0401ZM16.6243 42.2495C16.6243 42.3825 16.4911 42.5156 16.4468 42.693C16.3136 42.6043 16.1805 42.5599 16.0473 42.4269C16.0029 42.3382 16.1361 42.2051 16.2248 41.939C16.4468 42.1164 16.6243 42.2051 16.6243 42.2495ZM16.5355 43.4914C16.4911 43.5357 16.4468 43.5801 16.358 43.5801C16.1805 43.6688 15.9585 43.8462 15.8254 43.6244C15.781 43.5357 15.9142 43.3583 16.0029 43.1809C16.0473 43.1365 16.0917 43.0922 16.2248 42.9591C16.2692 42.9591 16.4911 42.8704 16.6243 42.9591C16.8462 43.1365 16.7131 43.3583 16.5355 43.4914ZM18.3109 44.9994C18.0446 45.2211 17.867 45.2211 17.6451 44.9994C17.6451 45.0437 17.6007 45.0437 17.6007 45.0881C17.512 45.0437 17.4676 44.9994 17.3344 44.955C17.3788 44.9107 17.4232 44.8663 17.4232 44.822C17.1569 44.5115 17.2013 44.3784 17.512 44.1123C17.9114 43.8018 18.1777 43.8462 18.4884 44.2897C18.7547 44.5115 18.7103 44.7332 18.3109 44.9994ZM17.7339 42.0721C17.7783 41.9834 17.8227 41.939 17.8227 41.8947C17.867 41.939 17.9558 41.9834 18.0002 42.0277C17.9558 42.0721 17.9558 42.1608 17.9114 42.1608C17.9114 42.1608 17.7783 42.0721 17.7339 42.0721ZM19.598 41.2737V41.2294C19.6424 41.0963 19.6868 40.9189 19.7755 40.7858C19.8199 40.7415 20.0419 40.8302 20.175 40.9189C20.6632 41.3181 20.6188 41.4955 20.0862 41.9834C20.0419 41.9834 19.8199 42.1164 19.6424 42.0721C19.598 42.0721 19.5536 42.0277 19.5092 41.9834C19.4649 41.9834 19.4649 41.9834 19.4205 42.0277C19.3317 42.0277 19.2429 42.0721 19.1542 42.0721C18.9323 42.1164 18.7103 42.0721 18.7103 41.8503C18.7103 41.7172 18.8435 41.5842 18.9766 41.4511C19.021 41.4068 19.1098 41.4068 19.1986 41.3624C19.3761 41.2737 19.5092 41.2737 19.598 41.2737ZM18.7991 39.4109C19.021 39.4996 19.2873 39.7214 19.4205 39.9875C19.4649 40.0762 19.3317 40.3867 19.1986 40.4754C19.021 40.6528 18.7103 40.7415 18.4884 40.9189L18.5328 40.9632C18.2665 41.185 17.9558 41.4955 17.6895 41.6729C17.6007 41.7616 17.4232 41.7172 17.2457 41.7616C17.2457 41.6285 17.2013 41.4955 17.2013 41.3181C17.2013 41.2294 17.2457 41.1407 17.2457 41.0963C17.2457 40.5197 17.2457 40.4754 17.8227 40.5641C18.0446 40.6084 18.1333 40.5641 18.1333 40.2979C18.1333 40.1649 18.1333 39.8988 18.2665 39.8101C18.3553 39.5883 18.666 39.3665 18.7991 39.4109ZM18.3109 38.7456C18.3109 38.8343 18.2665 38.9674 18.1777 39.0117C18.0002 39.1891 17.7339 39.3222 17.5564 39.5439C17.4232 39.6327 17.3344 39.7214 17.1569 39.8101C16.9794 39.9431 16.8462 40.2536 16.5355 40.0318C16.3136 39.8101 16.0029 39.6326 16.0473 39.1891C16.0917 38.4795 16.358 38.1246 16.935 37.8585C17.4676 37.6811 18.2665 38.2134 18.3109 38.7456ZM19.4649 33.4232C19.3317 33.4676 19.1542 33.3345 18.9766 33.2902C18.9323 33.2458 18.9323 33.2015 18.8879 33.1571C18.8879 33.2458 18.7547 33.3789 18.6216 33.4676C18.3997 33.5563 18.1333 33.6006 17.9114 33.645C17.9114 33.645 17.9114 33.645 17.9114 33.6006C17.6895 33.6893 17.3788 33.7781 17.1569 33.8224C16.7131 33.8668 16.9794 34.5321 16.5355 34.4433C16.2692 34.399 16.0917 34.0442 15.7366 34.1772C15.2484 34.2659 15.1153 34.1329 14.9821 33.6893C14.8933 33.4232 14.9377 33.2015 15.204 33.1128C15.2484 33.0684 15.3372 33.0684 15.3816 33.0684C15.3816 32.9353 15.3816 32.8466 15.4259 32.6692C15.4703 32.5362 15.4703 32.2701 15.6035 32.2257C15.6922 32.1813 15.9142 32.2701 16.0917 32.3588C16.1805 32.4031 16.2692 32.5362 16.358 32.6249C16.4024 32.6692 16.4024 32.7136 16.4468 32.7579C16.9794 32.6249 17.4676 32.4918 17.9558 32.3588C18.444 32.2701 18.7103 32.3588 18.7991 32.6249C18.8435 32.5805 18.9323 32.5362 18.9766 32.4918C19.1542 32.891 19.8199 32.2257 19.8643 32.891C19.9087 33.0684 19.6424 33.3345 19.4649 33.4232ZM21.3734 35.5522C21.1958 35.7296 20.9295 35.8183 20.7076 35.9957C20.6632 35.907 20.5301 35.8183 20.5301 35.6852C20.5301 35.5522 20.6188 35.4635 20.6188 35.2861C20.6188 35.1086 20.4413 34.8425 20.7076 34.7538C20.8408 34.7095 21.0183 34.8869 21.2846 35.0199C21.329 35.2861 21.4621 35.5078 21.3734 35.5522ZM21.1514 29.4315C21.0183 29.3428 20.9295 29.254 20.8408 29.1653C20.9739 29.0766 21.0627 28.9436 21.1071 28.9436C21.7284 28.8105 22.0391 29.0766 21.906 29.6089C21.8616 29.8306 21.7284 29.875 21.5065 29.7419C21.3734 29.6089 21.2846 29.5202 21.1514 29.4315ZM21.2846 15.7707C21.329 15.682 21.3734 15.5933 21.4177 15.5933C21.5065 15.549 21.6397 15.549 21.7284 15.549C21.7284 15.6377 21.7284 15.7264 21.684 15.7707C21.6397 15.8151 21.5065 15.8594 21.4177 15.8594C21.4621 15.7707 21.329 15.7707 21.2846 15.7707ZM22.0391 36.6166C21.8616 36.7054 21.5953 36.7497 21.5509 36.4836C21.5509 36.3949 21.7284 36.2618 21.8616 36.0401C22.0391 36.1288 22.1723 36.2175 22.3498 36.2618C22.261 36.3505 22.1723 36.5279 22.0391 36.6166ZM21.9504 14.6176C21.9504 14.5289 21.9504 14.3958 21.9947 14.3514C22.0391 14.3071 22.1723 14.3071 22.3054 14.2627C22.261 14.4401 22.261 14.5289 22.2167 14.5732C22.1723 14.6176 22.0391 14.6176 21.9504 14.6176ZM20.3969 12.4443C20.175 12.4886 19.9531 12.533 19.8643 12.2668C19.7755 12.0007 19.8643 11.5128 20.0419 11.4685C20.175 11.3798 20.3525 11.3798 20.5745 11.3354C20.5745 11.2911 20.5745 11.2911 20.6188 11.2467C20.8851 11.2911 21.2402 11.3798 21.5065 11.4241C21.7728 11.4685 22.0835 11.4241 22.3498 11.4241C22.483 11.4241 22.6161 11.3354 22.838 11.3354C22.9712 11.3354 23.0599 11.4685 23.1487 11.5128C23.1043 11.6016 23.0599 11.7346 22.9712 11.779C22.8824 11.8233 22.7936 11.8677 22.6605 11.8677C21.906 12.0007 21.1514 12.2668 20.3969 12.4443ZM23.0156 28.7662C22.9268 28.7662 22.8824 28.7662 22.7936 28.7662C22.7936 28.7662 22.7936 28.6775 22.7936 28.5444C22.8824 28.5888 22.9712 28.5888 23.0156 28.6331C23.0599 28.6331 23.0156 28.7662 23.0156 28.7662ZM24.9684 39.6326C24.9241 39.9431 24.7465 40.0762 24.5246 39.8101C24.0364 39.2778 23.5926 38.7012 23.1043 38.169C22.9712 37.9916 23.3262 37.2819 23.6369 37.3263C24.0808 37.3706 24.4358 37.5481 24.9684 37.7255C24.9684 37.9916 24.9684 38.2577 25.0128 38.4351C25.146 38.8343 25.1016 39.2778 24.9684 39.6326ZM25.3235 31.7822C25.2348 31.7822 25.146 31.7822 25.0572 31.7822C24.8797 31.9596 24.6578 32.0926 24.4802 32.2701C24.3915 32.3144 24.2583 32.2701 23.992 32.2701C23.992 32.2257 23.992 32.137 23.992 32.0926C23.8589 32.1813 23.6813 32.2257 23.5038 32.2257C23.3706 32.2257 23.2375 32.0483 23.0156 31.9152C23.0599 31.6935 23.0156 31.4273 23.1043 31.3386C23.2819 31.1612 23.415 31.3386 23.5926 31.5161C23.6369 31.5604 23.6369 31.5604 23.6813 31.6048C23.7701 31.6491 23.9032 31.6491 23.992 31.6935C23.992 31.5604 24.0364 31.4273 24.0364 31.2499C24.0808 31.0725 24.3027 31.0725 24.5246 31.1612H24.569C24.5246 30.8951 24.7021 30.7177 24.9684 30.6733C25.7674 30.4959 26.6106 30.3629 27.4096 30.1411C27.6315 30.0968 27.809 30.2298 27.7202 30.4072C27.5427 30.8064 27.4983 31.2943 26.8769 31.3386C26.655 31.3386 26.3887 31.4273 26.1668 31.5161V31.4717C25.9005 31.6048 25.5898 31.6935 25.3235 31.7822ZM24.4358 27.9235C24.5246 27.8348 24.8353 27.9235 25.0572 27.9678C25.1016 28.2339 25.1904 28.5444 25.1016 28.6331C24.8797 28.8992 24.7021 28.6331 24.569 28.5C24.4802 28.2783 24.1695 28.1009 24.4358 27.9235ZM24.2583 23.8873C24.1695 23.8873 24.0808 23.843 23.992 23.7986C24.0364 23.7543 24.0364 23.6212 24.0808 23.6212C24.1695 23.5769 24.2583 23.6212 24.3915 23.6656C24.3915 23.7986 24.3471 23.8873 24.2583 23.8873ZM24.9684 11.2024C24.7909 11.2911 24.5246 11.2911 24.3027 11.3798C24.1252 11.4241 23.9032 11.4685 23.7257 11.4685C23.6369 11.4685 23.5482 11.3798 23.4594 11.2911C23.5038 11.2024 23.5482 11.0693 23.5926 11.0693C24.0364 10.9363 24.4358 10.8476 24.8797 10.7588C24.9684 10.7588 25.0572 10.8919 25.146 10.9363C25.146 11.025 25.1016 11.158 24.9684 11.2024ZM23.9476 17.8997C24.1252 18.0771 24.1252 18.2989 23.9032 18.4319C23.7701 18.4763 23.5926 18.3876 23.4594 18.3876C23.3262 18.0771 22.9268 17.811 23.3262 17.5892C23.6369 17.3231 23.7701 17.7223 23.9476 17.8997ZM25.5011 29.2097C25.6342 29.2097 25.723 29.254 25.8117 29.254C25.8117 29.3428 25.8117 29.4315 25.7674 29.4758C25.6786 29.5202 25.5898 29.4758 25.5011 29.4758C25.5011 29.3871 25.5011 29.3428 25.5011 29.2097ZM26.0337 22.6898C26.1668 22.6898 26.3 22.6898 26.3 22.7342C26.3443 22.8229 26.3443 22.9116 26.3443 23.0003C26.2556 23.0003 26.1668 23.0003 26.1224 22.9559C26.078 23.0003 26.078 22.8229 26.0337 22.6898ZM26.8769 18.6093C26.9213 18.4319 26.9213 18.2989 26.9657 17.9884C27.1876 17.9884 27.4096 18.0327 27.5871 18.0327C27.4983 18.1658 27.4983 18.4319 27.3652 18.5206C27.2764 18.6093 27.0101 18.565 26.8769 18.6093ZM25.9005 34.399C25.7674 34.1772 25.8561 33.8668 26.078 33.9111C26.5219 33.9555 26.9213 33.9111 27.3652 34.2216C27.7646 34.5321 27.5871 34.9312 27.6315 35.2861C27.6759 35.5522 27.3652 35.7296 27.0989 35.5522C26.8326 35.3748 26.5663 35.1086 26.3 34.9312C26.3 34.9312 26.3 34.8869 26.3443 34.8869C26.1224 34.7538 25.9893 34.6208 25.9005 34.399ZM27.8534 39.7214C27.8534 39.7657 27.809 39.8101 27.809 39.8101C27.5871 40.0318 27.2764 40.2979 27.0101 40.5197C26.7882 40.6971 26.5219 40.9632 26.3 41.1407C26.1668 41.2294 25.9893 41.3181 25.8117 41.2737C25.6342 41.185 25.6342 41.0076 25.7674 40.8302C25.8117 40.7858 25.8117 40.7415 25.8117 40.6971C25.6786 40.3867 25.7674 40.1205 25.9449 39.9431C25.8561 39.8101 25.723 39.6326 25.6342 39.4109C25.5898 39.3665 25.723 39.2335 25.7674 39.1448C25.9005 39.2335 26.0337 39.3222 26.2556 39.4552C26.2112 39.5883 26.1668 39.677 26.1224 39.7657C26.2112 39.677 26.3443 39.5883 26.4331 39.4996C26.6106 39.3222 26.8326 39.2335 27.0989 39.4109C27.1433 39.4109 27.1433 39.4109 27.1876 39.4109C27.2764 39.1004 27.0545 38.7456 27.4096 38.6569C27.8534 38.5682 27.809 38.9674 27.8534 39.2335C27.8978 39.4552 27.9865 39.6327 27.8534 39.7214ZM29.1405 36.3505C29.0074 36.5279 28.8742 36.7497 28.6967 36.8384C28.2528 37.1489 28.1197 37.1045 27.8534 36.7941C27.5871 36.4836 27.5871 36.3505 27.9865 35.9514C28.0309 35.907 28.1197 35.8183 28.1197 35.8183C28.2085 35.7296 28.2528 35.6852 28.3416 35.6409C28.5191 35.5078 28.7411 35.2417 28.963 35.5078C29.1849 35.7296 29.4512 35.9957 29.1405 36.3505ZM29.0961 33.4676C28.963 33.5119 28.6523 33.2902 28.5191 33.1571C28.3416 33.0241 28.2085 32.7579 28.0309 32.5805C27.8534 32.3588 27.9865 32.137 28.2085 32.0483C28.5191 31.9596 28.8742 31.8265 29.1849 32.3588C29.1849 32.3588 29.2293 32.4918 29.2293 32.6249C29.2293 32.7136 29.1405 32.8023 29.1405 32.8466C29.1405 33.0684 29.4068 33.4232 29.0961 33.4676ZM28.8298 26.1937C28.5191 25.9276 28.2085 25.5727 27.8534 25.2179C27.8534 25.1736 27.8978 24.9962 27.9865 24.9075C28.0753 24.8631 28.2972 24.9075 28.386 24.9518C28.6523 25.2623 28.8742 25.6615 29.0961 26.0163C29.1405 26.0606 29.0961 26.1493 29.1405 26.238C29.0074 26.238 28.8742 26.2824 28.8298 26.1937ZM29.7175 38.7012C29.5844 38.6125 29.4956 38.5682 29.4956 38.5238C29.4956 38.4351 29.54 38.3464 29.5844 38.2577C29.6287 38.3021 29.7619 38.3021 29.7619 38.3464C29.7619 38.3908 29.7175 38.4795 29.7175 38.7012ZM29.7175 37.9029C29.6731 37.8585 29.6731 37.7698 29.6287 37.6368C29.7619 37.6368 29.895 37.6368 29.895 37.6811C29.9394 37.7698 29.9394 37.8585 29.9394 37.9472C29.8507 37.9472 29.7619 37.9472 29.7175 37.9029ZM30.6052 30.4516C30.2057 30.5403 30.0726 30.4516 29.9838 29.9193C29.9394 29.6976 29.895 29.4315 30.2057 29.3428C30.6496 29.254 30.9603 29.3871 31.049 29.8306C31.1378 30.2298 31.0934 30.3185 30.6052 30.4516ZM31.4929 36.8384C31.3153 36.7497 30.9603 37.0602 30.9159 36.7941C30.8715 36.5723 31.1378 36.3062 31.1822 36.1731C31.3597 36.0401 31.4485 35.9514 31.5816 35.907C31.7148 35.8626 31.8923 35.8626 32.0699 35.8183C32.0699 35.9514 32.0699 36.1288 32.0699 36.3062C32.0699 36.3505 32.0255 36.3949 32.0255 36.4392C32.1586 36.8828 32.1142 37.1045 31.4929 36.8384ZM31.3597 25.5728C31.5816 25.6171 31.6704 25.6171 31.8035 25.6615C31.8035 25.7502 31.8035 25.8389 31.7592 25.8832C31.6704 25.9276 31.5816 25.9276 31.4929 25.8832C31.4041 25.8832 31.4041 25.7502 31.3597 25.5728ZM32.203 30.0968C32.1586 30.1411 31.9367 30.1411 31.8923 30.0968C31.8479 30.008 31.8923 29.875 31.8923 29.6089C32.0698 29.6532 32.203 29.6532 32.3362 29.6976C32.3362 29.8306 32.3362 30.008 32.203 30.0968ZM33.1794 25.0849C32.9575 25.0405 32.7356 25.0405 32.6912 24.9518C32.6468 24.8187 32.6912 24.6857 32.7356 24.4639C32.8688 24.5083 33.0463 24.5083 33.1794 24.597C33.2682 24.597 33.2238 24.8187 33.1794 25.0849ZM33.3126 18.4763C33.1794 18.3876 33.1351 18.2545 33.0019 18.1658C32.9131 18.0771 32.78 17.944 32.6912 17.9884C32.2474 18.1658 32.0699 17.811 31.8035 17.6779C31.5816 17.5449 31.049 17.4562 31.049 17.3674C31.049 17.057 30.9603 16.7465 30.7827 16.4804C30.6052 16.2143 30.3389 15.9038 30.1613 15.5933C30.0726 15.4603 29.9394 15.2829 29.9838 15.1498C30.2501 14.7063 29.895 14.4845 29.7175 14.2184C29.6287 14.0853 29.5844 13.8192 29.6731 13.7305C29.8507 13.5087 30.0726 13.7305 30.2057 13.8636C30.4277 14.0853 30.6496 14.4401 31.049 14.2627C31.0934 14.2184 31.2266 14.3514 31.3153 14.3958C31.7592 14.928 32.1586 15.4603 32.6025 15.9481C32.6468 15.9925 32.6912 16.0812 32.6468 16.1256C32.3805 16.7465 32.9575 17.0126 33.1794 17.4561C33.4014 17.6779 33.6233 17.944 33.7564 18.1658C33.8008 18.2545 33.8008 18.4319 33.712 18.4763C33.5789 18.5206 33.4014 18.5206 33.3126 18.4763ZM33.8008 29.6532C33.6677 29.5645 33.5789 29.5202 33.5789 29.4758C33.5789 29.3871 33.6233 29.2984 33.6233 29.2097C33.6677 29.254 33.8008 29.254 33.8008 29.2984C33.8452 29.3871 33.8008 29.4758 33.8008 29.6532ZM34.5997 33.0241C34.5553 32.9797 34.5553 32.891 34.511 32.7579C34.6441 32.7579 34.7773 32.7579 34.7773 32.8023C34.8216 32.891 34.8216 32.9797 34.8216 33.0684C34.7329 33.0684 34.6441 33.0684 34.5997 33.0241ZM36.1088 32.8023C36.02 32.8023 35.8425 32.8466 35.7981 32.7579C35.7537 32.7136 35.7537 32.5805 35.7537 32.3588C35.9312 32.4031 36.0644 32.3588 36.1532 32.4475C36.1532 32.5362 36.1088 32.6692 36.1088 32.8023ZM36.0644 28.3226C35.9756 28.367 35.8425 28.4113 35.7537 28.367C35.6649 28.3226 35.5762 28.1896 35.443 28.1009C35.3542 27.9235 35.2211 27.6573 35.1323 27.4356C35.0436 27.2582 35.1767 27.0364 35.3099 27.2138C35.6206 27.4356 35.9312 27.7904 36.1975 28.0565C36.1532 28.1009 36.1088 28.2783 36.0644 28.3226ZM37.6622 30.9395C37.3959 30.9395 37.174 30.9838 37.0408 30.8951C36.8189 30.7177 36.9077 30.4516 37.1296 30.3629C37.3071 30.2742 37.5734 30.2742 37.7954 30.2742C37.7954 30.4959 37.751 30.6733 37.6622 30.9395ZM39.1269 27.5686C39.0825 27.6573 38.9049 27.746 38.8162 27.7904C38.7718 27.7904 38.683 27.7904 38.6386 27.7904C38.3723 27.7904 38.1948 27.8791 38.1504 28.2339C38.1504 28.5 37.6178 28.7662 37.3959 28.6775C37.3515 28.6331 37.3071 28.5888 37.3071 28.5444C37.2628 28.3226 37.7066 27.6573 37.8841 27.613C38.1504 27.5243 38.4167 27.4356 38.683 27.3469C38.8162 27.3025 38.9937 27.3025 39.1269 27.3469C39.1269 27.3025 39.1713 27.5243 39.1269 27.5686ZM43.6096 20.6052C43.6984 20.5609 43.8315 20.6052 43.9203 20.6052C43.9203 20.6939 43.9203 20.827 43.8759 20.8713C43.8315 20.9157 43.6984 20.9157 43.5652 20.9157C43.6096 20.7826 43.5652 20.6052 43.6096 20.6052ZM41.0798 22.0245C41.2129 22.0245 41.3904 21.9802 41.5236 22.0689C41.7899 22.335 42.1006 22.6898 42.3669 23.0003C42.5444 23.222 42.8107 23.4882 42.9883 23.7099C43.3877 24.1535 43.7428 24.5526 44.0979 24.9962C44.2754 25.2179 44.6305 25.484 44.3198 25.8832C44.231 26.0606 44.4085 26.2824 44.5861 26.1493C44.8968 26.0163 45.1187 26.238 45.2962 26.4155C45.385 26.5042 45.4294 26.5929 45.5181 26.6372C45.7401 26.6816 46.0951 26.6372 46.1839 26.7703C46.2727 26.9033 46.1395 27.2582 46.1839 27.4356C46.4058 27.9235 46.0064 28.0122 45.7844 28.1896C45.5625 28.4113 45.3406 28.2339 45.2074 28.0565C45.0743 27.9235 44.9855 27.7904 44.808 27.613C44.1866 26.859 43.5209 26.1493 42.8995 25.3953C42.722 25.1736 42.4557 24.9518 42.3669 24.6857C42.2781 24.4639 42.4113 24.0647 42.2781 23.843C42.145 23.6212 41.6567 23.976 41.4792 23.6212C41.3461 23.4438 41.1685 23.222 40.991 23.0446C41.0354 23.1333 41.0354 22.0245 41.0798 22.0245ZM38.6386 19.5407C39.0381 19.2303 39.1712 19.2746 39.4819 19.6294C39.7482 19.9399 39.7482 20.073 39.3932 20.3391C39.1713 20.5165 38.9493 20.7383 38.683 20.3834C38.328 19.9843 38.328 19.8512 38.6386 19.5407ZM38.683 23.9317C38.8606 23.843 39.1269 23.6656 39.3044 23.9317C39.4376 24.1535 39.7926 24.3309 39.5707 24.6857C39.5263 24.8187 39.5263 25.0849 39.6151 25.1736C39.9258 25.5727 40.1477 26.238 40.8578 25.9276C40.9022 25.9276 41.0798 26.0606 41.1241 26.1493C41.5236 26.5485 41.8787 26.9033 42.2781 27.3469C42.8107 27.9678 43.2546 28.6331 43.7872 29.2984C43.9203 29.4758 44.1866 29.7419 43.8315 30.008C43.6096 30.1855 43.4321 30.5846 43.077 30.2298C43.0326 30.1855 42.9439 30.1855 42.8995 30.1855C42.5888 30.4072 42.3669 30.2298 42.1894 29.9637C42.0562 29.7419 41.7899 29.5202 42.0562 29.1653C42.1894 28.9436 42.0118 28.6775 41.7455 28.7662C41.2129 28.8992 40.991 28.5444 40.7691 28.2339C40.2365 27.613 39.837 26.992 39.3488 26.3267C39.26 26.1937 39.1269 26.105 39.0381 26.0163C38.7718 25.7058 38.4167 25.3953 38.1948 25.0849C37.8841 24.597 37.9285 24.5083 38.4167 24.1091C38.4167 24.0647 38.5499 23.976 38.683 23.9317ZM37.2184 16.9683C37.174 16.9683 37.174 17.0126 37.2184 16.9683C37.4403 17.2787 37.751 17.6336 38.0173 17.944C38.0617 18.0327 38.0617 18.1658 38.106 18.3432C37.9729 18.3432 37.8841 18.3432 37.7066 18.3876C37.0408 18.5206 36.5526 17.8997 35.9756 17.8553C35.9312 17.8553 35.7981 17.6336 35.7981 17.5892C35.9756 17.19 35.7537 16.9683 35.5762 16.7465C35.3099 16.3473 35.3542 16.2586 35.7093 15.9481C35.9756 15.7264 36.2419 15.7707 36.4638 16.0369C36.6858 16.3473 36.9521 16.6578 37.2184 16.9683ZM34.6441 7.16625C34.866 6.98884 35.0879 6.67837 35.3986 6.94449C35.5762 7.07755 35.7981 7.21061 35.9312 7.38802L35.8425 7.43237C36.02 7.69849 36.2863 7.96461 36.4638 8.23072C36.597 8.45249 36.5082 8.67425 36.2863 8.67425C35.6206 8.6299 34.9992 8.40814 34.6441 7.78719C34.5553 7.56543 34.3778 7.34366 34.6441 7.16625ZM34.289 11.3354C34.3334 11.2911 34.4666 11.3354 34.5553 11.3354C34.5553 11.4241 34.5553 11.5572 34.511 11.6459C34.4666 11.6903 34.3334 11.6459 34.2003 11.6459C34.2003 11.5572 34.2003 11.3798 34.289 11.3354ZM33.5789 13.1983C33.8896 13.0652 34.1115 13.2426 34.2447 13.4644C34.4666 13.7305 34.7329 14.0853 34.9992 14.3514C35.2211 14.6176 35.2655 14.8393 34.9548 15.0611C34.5553 15.3272 34.511 15.3716 34.2003 15.0167C33.8008 14.6176 33.4901 14.2184 33.1794 13.7748C32.78 13.287 32.3805 12.8434 31.9811 12.3556C31.8035 12.1338 31.7592 11.912 32.0255 11.6903C32.3362 11.3798 32.5581 11.2911 32.8244 11.7346C33.0463 12.0451 33.5789 12.3112 33.3126 12.8878C33.1794 13.1096 33.4014 13.287 33.5789 13.1983ZM32.9575 8.71861C33.0019 8.71861 33.1351 8.76296 33.1351 8.80731C33.1351 8.89602 33.0907 8.98473 33.0463 9.02908C33.0019 8.98473 32.9131 8.98473 32.6025 8.85167C32.8244 8.85167 32.8688 8.71861 32.9575 8.71861ZM31.8923 6.54531C32.1586 6.32355 32.3362 6.63402 32.4693 6.76708C32.5137 6.81143 32.5581 6.85578 32.5581 6.90013C32.6025 7.03319 32.6912 7.29931 32.6468 7.38802C32.4693 7.60978 32.3362 7.38802 32.1586 7.29931C32.1142 7.25496 32.1142 7.25496 32.0699 7.21061C31.8923 6.98884 31.626 6.81143 31.8923 6.54531ZM31.4485 9.02908C31.626 8.98473 31.7148 8.94037 31.8479 8.98473C31.9367 9.02908 32.0698 9.07343 32.1586 9.11778C32.1142 9.20649 32.0699 9.33955 31.9811 9.3839C31.9367 9.42826 31.8479 9.47261 31.7592 9.47261C31.5816 9.51696 31.2709 9.65002 31.2266 9.33955C31.1822 9.25084 31.4041 9.07343 31.4485 9.02908ZM30.9159 10.3597C31.3153 10.0492 31.4041 10.0936 31.7148 10.4927C31.8479 10.6701 32.1586 10.8919 31.8035 11.158C31.4041 11.4685 31.1378 11.4241 30.8271 11.1137C30.5608 10.7145 30.5608 10.6258 30.9159 10.3597ZM28.1641 6.81143C28.2528 6.72272 28.5635 6.76708 28.6523 6.81143C28.963 7.07755 29.2737 7.47672 29.5844 7.78719C29.8507 8.09767 30.117 8.40814 30.3833 8.71861C30.6052 8.98473 30.5608 9.20649 30.3389 9.3839C30.117 9.56131 29.8507 9.78308 29.5844 9.42826C29.3181 9.11778 29.0074 8.76296 28.7411 8.45249C28.5635 8.27508 28.3416 8.05331 28.6079 7.74284C28.7411 7.52108 28.6079 7.34366 28.3416 7.34366C28.2085 7.34366 28.0309 7.29931 27.8534 7.25496C27.8978 7.1219 28.0309 6.94449 28.1641 6.81143ZM26.6994 9.73873C27.1433 9.60567 27.2764 9.69437 27.4096 10.1823C27.4539 10.3597 27.4539 10.4484 27.4096 10.5814C27.5427 10.7588 27.7202 10.8476 28.0309 10.7588C28.2528 10.7145 29.4956 12.0894 29.4068 12.2668C29.2737 12.533 29.2737 12.7547 29.4068 13.0208C29.4512 13.0652 29.4068 13.1983 29.3181 13.2426C29.2293 13.287 29.0961 13.3313 29.0518 13.2426C28.7855 12.9765 28.4748 12.7547 28.1197 12.8434C27.4983 12.1338 26.877 11.4685 26.2556 10.7588C26.2556 10.7588 26.2112 10.7145 26.2556 10.7145C26.655 9.78308 25.6786 9.51696 25.3679 8.94037C25.3235 8.85167 25.1904 8.76296 25.1016 8.76296C24.3471 8.89602 24.2139 8.23072 23.8145 7.8759C23.7257 7.78719 23.7701 7.60978 23.7701 7.43237C23.8589 7.1219 23.7701 6.94449 23.4594 6.98884C23.1487 7.03319 23.0156 6.90013 23.0599 6.54531C23.1043 6.41225 23.0599 6.14613 22.9268 6.01307C22.7049 5.7026 22.3942 5.34778 22.1279 5.03731C21.9504 5.17037 21.8172 5.43649 21.5509 5.12601C21.5065 5.08166 21.5065 4.90425 21.5509 4.8599C21.8172 4.63813 21.9504 4.90425 22.0835 5.03731C22.261 4.90425 22.3942 4.72684 22.6605 4.90425C22.7493 4.9486 22.8824 4.9486 23.0599 4.9486C23.5482 4.9486 23.9476 5.39213 23.9032 5.83566C23.9032 5.96872 23.8589 6.23484 23.9476 6.32355C24.3471 6.81143 24.7021 7.25496 25.1016 7.74284C25.2791 7.92025 25.4123 8.18637 25.8117 8.00896C26.0337 7.92025 26.2556 8.14202 26.078 8.40814C25.9449 8.71861 26.078 8.94037 26.2556 9.11778C26.3887 9.33955 26.5663 9.56131 26.6994 9.73873ZM25.3679 6.27919C25.4123 6.19049 25.4567 6.10178 25.4567 6.10178C25.5011 6.10178 25.5898 6.14613 25.6342 6.19049C25.5898 6.23484 25.5898 6.32355 25.5454 6.32355C25.5011 6.3679 25.4123 6.32355 25.3679 6.27919ZM25.9005 3.48495C26.2112 3.88413 26.2112 3.97284 25.9005 4.23895C25.5011 4.54943 25.3679 4.54943 25.1016 4.23895C24.7021 3.75107 24.7021 3.57366 25.1016 3.30754C25.4123 2.99707 25.5011 3.04142 25.9005 3.48495Z" fill="#D76700"/>
<path d="M10.4551 50.4547C11.9197 52.0514 13.4732 53.382 15.0266 54.4908C14.9822 54.4021 14.9822 54.3134 14.9378 54.1803V54.136C14.8935 54.0916 14.8935 53.9586 14.8935 53.8255C14.9822 53.2046 14.7603 52.9828 14.1833 52.9828C13.6951 52.9828 13.3844 52.4062 13.5176 51.9183C13.6063 51.6079 13.5619 51.253 13.5619 50.8539C13.5619 50.8095 13.3844 50.6764 13.34 50.7208C12.8962 50.8539 12.8074 50.5877 12.5855 50.2773C12.4967 50.1442 12.3636 50.0555 12.2748 49.9668C12.0973 50.0111 11.831 50.0999 11.6534 50.1442C11.3428 50.2329 10.9877 50.2773 10.6326 50.366C10.5438 50.4547 10.4995 50.4547 10.4551 50.4547Z" fill="#D76700"/>
<path d="M23.0601 46.7733C23.1044 46.7733 23.1932 46.7733 23.1932 46.7289V46.6846C23.1488 46.7289 23.1044 46.7289 23.0601 46.7733Z" fill="#D76700"/>
<path d="M30.3832 44.2454C30.2945 44.3341 30.2057 44.4229 30.1613 44.5116C30.2057 44.5116 30.2501 44.5559 30.2501 44.5559C30.2057 44.6003 30.1613 44.6446 30.1169 44.689C30.1169 44.7333 30.1613 44.7777 30.1613 44.822C30.2057 44.8664 30.2057 44.9107 30.2501 44.9551C30.2945 44.689 30.3832 44.3785 30.4276 44.1567C30.4276 44.2011 30.4276 44.2454 30.3832 44.2454Z" fill="#D76700"/>
<path d="M32.6912 46.2858C32.7356 46.3745 32.6912 46.5519 32.6468 46.5963C32.6468 46.5963 32.6024 46.5963 32.558 46.5963C32.3805 47.5277 32.2917 48.5478 32.2917 49.5679C32.2917 49.7897 32.2917 50.0558 32.2917 50.2776C32.3361 50.2332 32.4249 50.1445 32.4693 50.1889C32.5581 50.2776 32.6468 50.3663 32.6912 50.455C32.6912 50.4106 32.6912 50.3663 32.7356 50.3663C32.78 50.3219 33.0019 50.2776 33.0463 50.3219C33.3126 50.588 33.6233 50.8985 33.8896 51.1646C33.9339 51.2533 33.9339 51.4751 33.8452 51.5638C33.8452 51.5638 33.8008 51.6082 33.7564 51.6082C34.0671 51.6969 34.4222 51.7412 34.7329 51.9186C34.9104 52.0073 34.9104 52.3178 34.8216 52.5839C34.866 52.5839 34.9104 52.5839 34.9992 52.6283C35.1767 52.6726 35.5318 52.6283 35.6205 52.717C35.7093 52.8501 35.6205 53.1605 35.5761 53.3379C35.5318 53.5154 35.5318 53.7371 35.4874 53.9145C35.3098 53.9589 35.1767 54.0032 34.9992 54.0476C34.9548 53.9589 34.9548 53.8258 34.9104 53.6484C34.866 53.3823 34.7772 53.1162 34.3778 53.2492C34.289 53.2936 34.2002 53.2492 34.0671 53.2049C33.9783 53.2936 33.9783 53.471 34.0227 53.8258C34.0227 53.9589 33.9783 54.1363 33.8896 54.225C33.6676 54.3137 33.4013 54.3137 33.1794 54.3137C33.1794 54.2694 33.1794 54.225 33.1794 54.1806V54.225C33.0463 54.5355 33.1794 54.7572 33.3126 54.9346C33.5345 55.2008 33.4901 55.4669 33.2682 55.6886C33.4013 56.1322 33.5789 56.487 33.8008 56.8862C33.8452 56.7975 33.8896 56.7088 34.0227 56.5757C34.289 56.3096 34.5553 56.3983 34.7772 56.6201C34.8216 56.6644 34.866 56.7088 34.9548 56.7975C34.9992 56.8862 35.0879 57.0192 35.1323 57.241C35.3098 57.7732 35.2655 57.8176 34.6885 57.7289C34.5109 57.6845 34.2446 57.7289 34.0671 57.5958C34.9548 59.3256 36.1531 60.8779 37.5734 62.2085C37.6178 62.1198 37.6178 61.9868 37.6178 61.8094C37.6178 61.632 37.9285 61.3215 38.1948 61.1884C38.2836 61.1441 38.6386 61.2771 38.7718 61.4102C39.26 61.9424 39.6595 62.4747 40.1033 62.9625C40.5471 63.4948 40.991 64.027 41.4348 64.5149C41.5236 64.6036 41.568 64.781 41.568 64.9584C42.2781 65.3576 43.0326 65.6681 43.7871 65.8898C43.8315 65.7568 43.8315 65.6237 43.8759 65.4463C43.8759 65.3576 43.8759 65.3133 43.8759 65.2245C43.9647 64.9584 43.8315 64.7367 43.6984 64.5592C43.3877 64.1157 43.0326 63.7609 42.7219 63.3174C42.0118 62.4747 41.3017 61.6763 40.5915 60.7892C40.414 60.6118 40.1921 60.3457 39.837 60.5231C39.5707 60.6118 39.0825 59.9909 39.1268 59.6361C39.1712 59.0151 38.9937 58.7934 38.3723 58.7934C38.0616 58.7934 37.6178 58.2611 37.751 57.995C37.9285 57.5958 37.751 57.4628 37.5734 57.241C37.4846 57.1079 37.3515 57.0192 37.2627 56.8418C37.2183 56.8418 37.174 56.8418 37.0852 56.8418C36.6414 56.8418 36.5526 56.7531 36.4638 56.3096C36.4194 56.1765 36.4638 56.0435 36.5082 55.9991C36.4638 55.9548 36.4194 55.9104 36.3751 55.8661C36.2863 55.733 36.1531 55.5999 36.1088 55.3782C36.0644 55.2895 36.02 55.1121 36.1088 54.979C36.1975 54.8903 36.3751 54.8459 36.5526 54.8459C36.6857 54.8459 36.8189 54.9346 36.952 54.8903C37.2183 54.7572 37.4403 54.9346 37.5734 55.1121C37.6622 55.2451 37.751 55.3338 37.8397 55.5112C37.2627 54.3581 36.8633 53.1162 36.597 51.8743C36.4638 51.963 36.2863 52.0073 35.9756 52.0073C35.4874 52.0517 35.3542 51.963 35.3986 51.4751C35.3986 51.2977 35.4874 51.0316 35.6205 50.9872C35.8424 50.8985 36.1975 50.7211 36.4194 50.9872L36.4638 51.0316C36.4194 50.4993 36.3751 49.9671 36.3751 49.4349C36.3751 48.1043 36.5526 46.818 36.952 45.6205C36.8189 45.5318 36.8633 45.31 37.0852 45.0883C37.3959 44.2012 37.7953 43.3142 38.2836 42.5158C38.1948 42.5158 38.106 42.5158 38.0616 42.4715C37.9729 42.5158 37.9729 42.3827 37.9729 42.2053C38.1504 42.2497 38.2836 42.2497 38.3723 42.3384C38.4167 42.3384 38.4167 42.294 38.4611 42.294C40.8134 38.7014 44.9411 36.262 49.6458 36.262C55.5932 36.262 60.653 40.2094 62.3839 45.6205C62.5615 45.6205 62.6946 45.7536 62.9165 45.931C63.0941 46.064 63.1385 46.2415 63.0053 46.5519C62.9165 46.7293 62.9609 46.9955 62.9165 47.2172C62.8722 47.2172 62.8278 47.1729 62.8278 47.1729C62.9609 47.9712 63.0497 48.8139 63.0497 49.701C63.0497 50.1445 63.0497 50.5437 63.0053 50.9872C63.2272 50.9872 63.4491 50.9429 63.6711 51.1646C64.5144 51.963 65.047 53.0718 65.8903 53.9145C65.979 54.0032 66.0678 54.1363 66.0234 54.1806C65.8015 54.5798 66.0234 54.8459 66.1566 55.1121C66.7335 53.3823 66.9998 51.6082 66.9998 49.701C66.9998 48.7696 66.9111 47.8382 66.7779 46.9511C66.7335 46.9068 66.7335 46.8624 66.6892 46.8624C66.556 46.7737 66.4229 46.7293 66.2009 46.685C66.1122 46.6406 65.979 46.6406 65.8903 46.6406C65.9346 46.5519 65.9346 46.4632 65.979 46.3745C66.2009 45.9753 66.3785 45.8423 66.6004 46.064C64.9138 38.2579 57.9456 32.4033 49.6902 32.4033C41.2573 32.4033 34.2446 38.4353 32.6468 46.4632C32.6468 46.2415 32.6912 46.2858 32.6912 46.2858ZM42.0562 63.1843C42.1449 63.273 42.2781 63.3617 42.3225 63.4504C42.3225 63.4948 42.2337 63.7165 42.1449 63.7165C42.0562 63.7165 41.923 63.6278 41.6567 63.4948C41.8786 63.3617 41.9674 63.273 42.0562 63.1843ZM40.8578 63.14C40.9022 63.14 40.991 63.1843 40.991 63.1843C40.991 63.2287 40.9466 63.3174 40.9022 63.3617C40.9022 63.3617 40.8134 63.3174 40.7247 63.3174C40.7247 63.2287 40.8134 63.14 40.8578 63.14ZM36.3751 54.4468C36.4638 54.4468 36.5526 54.5355 36.6414 54.5798C36.597 54.6685 36.5526 54.8016 36.5082 54.8459C36.4194 54.8903 36.3307 54.8016 36.1088 54.7572C36.2419 54.5798 36.2863 54.4468 36.3751 54.4468ZM36.1531 58.2611C36.4194 58.3055 36.7745 58.3055 36.9077 58.4385C37.0408 58.5716 36.9077 58.9708 36.9964 59.1482C37.0852 59.3699 37.3071 59.5917 37.4846 59.8135C37.6622 59.9909 37.8841 60.257 38.0173 60.4344C38.0616 60.5231 38.106 60.7449 38.0173 60.8779C37.9729 60.9667 37.751 60.9667 37.5734 60.9667C37.3959 60.9667 37.174 60.9223 36.9964 60.8779C36.8633 60.8336 36.7301 60.7892 36.5526 60.7449C36.597 60.7005 36.597 60.6562 36.6414 60.6562C36.2419 60.2127 35.8868 59.7691 35.4874 59.3256C35.2211 58.9264 35.2211 58.6603 35.5761 58.3942C35.7981 58.2611 36.02 58.2168 36.1531 58.2611ZM64.5144 47.7938C64.5587 47.8382 64.6031 47.9269 64.6919 47.9712C64.8694 48.193 65.0913 48.4148 64.7807 48.7252C64.3812 49.0357 64.2481 49.1244 63.893 48.7696C63.7155 48.6365 63.5823 48.4591 63.4048 48.193C63.1385 47.7495 63.2716 47.439 63.7155 47.3059C63.8042 47.2616 63.9818 47.3059 64.1149 47.3503C64.2481 47.4833 64.3812 47.6164 64.5144 47.7938ZM63.0053 44.2012C63.1385 43.9795 63.316 43.802 63.6267 44.0238C63.7155 44.0682 63.7598 44.1125 63.8486 44.1569C64.3368 44.2899 64.3812 44.423 64.0261 44.7778C63.7155 45.177 63.2716 45.2657 63.0053 44.8665C62.739 44.6891 62.8722 44.423 63.0053 44.2012ZM35.3986 48.2817C35.5318 48.4148 35.6649 48.4591 35.6649 48.5478C35.6649 48.6365 35.5761 48.7252 35.4874 48.7696C35.443 48.7696 35.3098 48.6809 35.2655 48.6365C35.2655 48.5478 35.3098 48.4591 35.3986 48.2817ZM34.3778 49.701C34.7772 49.6123 34.9104 49.701 34.9992 50.1002C35.0879 50.588 35.0435 50.6768 34.5109 50.8098C34.289 50.8985 34.0227 50.8985 33.9339 50.5881C33.8452 49.9671 33.9339 49.8341 34.3778 49.701Z" fill="#D76700"/>
<path d="M44.1423 63.8051C44.2754 63.8051 44.4086 63.8051 44.5417 63.8938C44.9412 64.2929 45.2518 64.6478 45.6513 65.0469C45.6513 64.8695 45.6069 64.7365 45.6069 64.5147C45.6069 64.3373 45.4738 64.1155 45.4738 63.9381C45.4738 63.805 45.5625 63.672 45.6069 63.4946C45.6957 63.5833 45.8288 63.672 45.8732 63.7607C45.962 63.9381 45.962 64.2042 46.0508 64.3816C46.0951 64.6034 46.1839 64.8695 46.539 64.9139C46.5834 64.9139 46.5834 64.9139 46.6277 64.9582C46.6277 64.8695 46.6277 64.8252 46.6277 64.7365C46.6277 64.6478 46.6277 64.5147 46.6277 64.426C46.5834 64.1155 46.8053 63.7163 47.1604 63.7163C47.3379 63.7163 47.5598 63.8494 47.693 63.9825C47.9593 64.2042 47.7817 64.4704 47.6042 64.6921C47.5598 64.7365 47.471 64.8252 47.4267 64.8695C47.3379 64.9139 47.2047 65.0026 47.116 65.0469C47.0716 65.0469 46.9828 65.0913 46.9384 65.0913C47.0716 65.2243 47.2047 65.4018 47.471 65.4018C47.471 65.4905 47.471 65.6235 47.4267 65.6679C47.2047 65.8009 46.894 65.934 46.6277 66.1114C46.5834 66.1114 46.5834 66.1114 46.539 66.1114C46.539 66.2001 46.539 66.2888 46.4946 66.3775C46.4502 66.4662 46.4946 66.5106 46.4946 66.5549C47.2491 66.688 48.048 66.7767 48.8469 66.8211C48.7582 66.7323 48.7138 66.6436 48.6694 66.5549C48.5362 66.4219 48.4475 66.2445 48.2699 66.0671C47.7817 65.4461 48.1368 64.5591 48.8913 64.426C48.9801 64.426 49.1576 64.5147 49.202 64.6478C49.3795 64.8695 49.4683 65.18 49.7346 65.3574C50.356 65.8009 50.0009 66.3332 50.0453 66.8654C55.5489 66.7767 60.3867 64.1155 63.538 60.0351C63.538 59.9907 63.538 59.9463 63.538 59.902L63.5823 59.9463C63.6711 59.8576 63.7155 59.7689 63.8043 59.6802C63.7599 59.6802 63.6711 59.6802 63.6711 59.6359C63.6267 59.5915 63.6267 59.4585 63.538 59.3254C63.7155 59.3698 63.8043 59.3698 63.8486 59.4141C63.893 59.4585 63.8486 59.5028 63.8486 59.5472C64.6919 58.3496 65.3577 57.0634 65.9347 55.6885L65.8903 55.7328C65.8015 55.7772 65.5796 55.7328 65.4021 55.6441C65.2245 55.511 65.0914 55.2449 64.9139 55.0675C64.7807 54.8901 64.6032 54.757 64.47 54.5353C64.3813 54.4466 64.3813 54.2692 64.3813 54.0917C64.47 53.5152 64.1593 53.2047 63.6267 53.2934C63.3604 53.3377 63.1829 53.249 63.0497 53.0716C62.9166 52.8942 62.8278 52.6724 62.6503 52.4507C62.1177 54.757 61.0081 56.886 59.4547 58.527H59.499C59.499 58.6601 59.499 58.7488 59.4103 58.9262C59.3659 59.0149 59.2327 59.1036 59.144 59.1923C58.9664 59.281 58.8333 59.4141 58.6114 59.5028C58.567 59.5472 58.4782 59.5472 58.3894 59.5028C56.0371 61.5874 52.9302 62.8293 49.6015 62.8293C48.4475 62.8293 47.3379 62.6962 46.2727 62.3858C46.2727 62.4745 46.3171 62.5188 46.2727 62.5632C46.1839 62.7849 46.0951 63.0954 45.962 63.3172C45.7401 63.1398 45.5182 63.0067 45.2962 62.7849C45.2519 62.7406 45.2075 62.6962 45.1631 62.6519C45.0743 62.5188 44.9855 62.4301 44.8968 62.2527C44.8524 62.2083 44.8524 62.164 44.808 62.1196C44.7636 62.2083 44.7192 62.297 44.6749 62.5188C44.4973 62.3414 44.3642 62.2083 44.3642 62.0753C44.3642 61.9422 44.4529 61.8979 44.5417 61.8092C43.077 61.1882 41.7011 60.3455 40.5916 59.2367C40.5916 59.8133 40.7247 59.9907 41.3905 59.9907C41.6568 59.9907 42.0118 60.4342 41.9675 60.7891C41.9231 61.2769 42.0118 61.3656 42.4557 61.3656C42.722 61.3656 42.8551 61.5874 42.722 61.8535C42.6332 62.1196 42.7664 62.2527 43.0327 62.297C43.5209 62.3414 43.7872 62.6962 43.7428 63.1398C43.876 63.672 43.9203 63.8051 44.1423 63.8051ZM63.4492 57.2852C63.4936 57.2852 63.6267 57.3739 63.6267 57.4626C63.6267 57.5513 63.5823 57.6843 63.538 57.773C63.4492 57.7287 63.3604 57.6843 63.0497 57.5513C63.2273 57.4182 63.2717 57.3295 63.4492 57.2852ZM62.5171 58.2166C62.6503 58.1722 62.8278 58.2166 63.0497 58.2166C63.0941 58.527 63.0941 58.7488 63.1385 58.9706C62.9166 58.8375 62.6059 58.7488 62.4284 58.527C62.384 58.527 62.4284 58.2166 62.5171 58.2166ZM61.4075 56.8416C61.4963 56.7529 61.6295 56.7973 61.9401 56.7529C61.807 57.019 61.7626 57.1965 61.6738 57.2408C61.5851 57.2852 61.4519 57.2408 61.3632 57.2408C61.3188 57.1078 61.3188 56.9303 61.4075 56.8416ZM57.5905 62.4301C57.5905 62.3414 57.6793 62.2083 57.7237 62.2083C57.8125 62.164 57.9456 62.2083 58.0344 62.2527C58.1231 62.2971 58.1675 62.4301 58.2563 62.5188C58.3451 62.6075 58.4338 62.7406 58.567 62.8293C58.3451 62.9623 58.1231 63.0954 57.9012 63.1398C57.8125 63.1398 57.6793 62.918 57.5905 62.8736C57.5905 62.6519 57.5018 62.5188 57.5905 62.4301ZM56.7029 64.5147C56.836 64.5591 56.9692 64.5591 57.0135 64.6034C57.0579 64.6921 57.0135 64.8252 56.9692 64.9139C56.8804 64.8695 56.7472 64.8695 56.6585 64.8252C56.6141 64.7808 56.6585 64.6478 56.7029 64.5147ZM53.9067 64.9139C53.9511 64.8695 54.0842 64.7808 54.1286 64.8252C54.4393 64.9582 54.75 65.2243 55.1494 65.3131C55.4601 65.4018 55.105 65.6235 55.0607 65.8009C54.8831 65.9784 54.0398 66.1114 53.8179 65.9784C53.7291 65.934 53.6848 65.7566 53.6848 65.6679C53.7291 65.3574 53.8179 65.1356 53.9067 64.9139ZM51.9982 63.3172C52.0869 63.2728 52.2201 63.2728 52.3089 63.2728C52.3089 63.4059 52.3533 63.5389 52.2645 63.7163C52.2201 63.7607 52.0426 63.7607 51.8206 63.7607C51.9538 63.5833 51.9538 63.4059 51.9982 63.3172Z" fill="#D76700"/>
<path d="M33.5346 53.5594C33.4014 53.5151 33.2239 53.4707 33.0463 53.4707C32.9576 53.4707 32.8688 53.5151 32.78 53.5151C32.8244 53.6925 32.8688 53.9142 32.9132 54.0473C32.9576 54.0473 32.9576 54.0029 33.0019 54.0029C33.1795 53.9142 33.3126 54.0029 33.4014 54.0916C33.4014 54.0473 33.4014 54.0029 33.4014 53.9586C33.4014 53.8255 33.4902 53.6925 33.5346 53.5594Z" fill="#D76700"/>
<path d="M45.0299 66.4218C44.9855 66.4218 44.9855 66.4218 44.9412 66.3774C44.9412 66.3774 44.9855 66.4218 45.0299 66.4218Z" fill="#D76700"/>
<path d="M39.1269 57.8173C38.9938 57.6399 38.8606 57.4181 38.6831 57.2407C38.6831 57.3738 38.7275 57.5512 38.8163 57.6843C38.905 57.7286 39.0382 57.773 39.1269 57.8173Z" fill="#D76700"/>
<path d="M33.3125 51.8295C33.3569 51.7408 33.49 51.7408 33.7119 51.6521C33.6675 51.6521 33.6232 51.6078 33.5788 51.6078C33.4456 51.5191 33.3125 51.3416 33.1349 51.1642C33.0462 51.0755 33.0018 50.9868 32.913 50.8981V50.9425C32.913 51.0312 32.8686 51.1199 32.8243 51.1642C32.7799 51.2086 32.6023 51.2086 32.6023 51.1642C32.5136 50.9425 32.4692 50.6764 32.4248 50.4546C32.4692 51.1199 32.5136 51.7408 32.6023 52.3618C32.8243 52.2731 33.1793 52.2287 33.3125 51.8295Z" fill="#D76700"/>
<path d="M57.7236 44.9992C57.4129 44.6 57.4129 44.5113 57.768 44.2452C57.9455 44.1121 58.0787 44.0234 58.1674 43.979L56.037 41.8501L48.3142 50.7207C48.3142 50.7207 43.6096 46.862 43.5208 46.8176L40.9465 49.7893C40.9909 49.9223 46.2726 54.4464 48.0923 56.0431C48.4474 56.3535 48.9356 56.3092 49.2463 55.9544L50.8441 54.0028C50.711 54.0472 50.6222 54.0028 50.5334 53.8254C50.4447 53.4262 50.7553 53.5149 50.9773 53.4262C51.0216 53.4262 51.066 53.3819 51.1104 53.3819C51.1548 53.3819 51.2436 53.4262 51.3323 53.4262L52.7082 51.8739C52.5307 51.8739 52.2644 51.9182 52.22 51.6521C52.1756 51.386 51.9981 51.0755 52.3088 50.8981C52.4863 50.8094 52.7082 50.7207 52.8858 50.632V50.6763C53.1965 50.632 53.5515 50.5433 53.8622 50.4989L54.6167 49.6562C54.4392 49.7006 54.2173 49.7449 54.0841 49.7893C53.5515 49.878 53.4184 49.7893 53.374 49.3014C53.3296 49.0353 53.4184 48.8579 53.6403 48.8135C53.951 48.7248 54.306 48.6805 54.5723 48.5918C54.7499 48.5474 55.0162 48.5474 55.1493 48.4587C55.3713 48.3256 55.5932 48.3256 55.7263 48.37L58.3006 45.4427C58.1231 45.3983 57.9455 45.2653 57.7236 44.9992ZM46.7164 52.0513C46.2726 52.1843 45.8731 52.2731 45.4293 52.3618C45.3405 52.3618 45.2074 52.3174 45.0298 52.2731C45.1186 52.0513 45.1186 51.8739 45.163 51.8295C45.2074 51.7408 45.3405 51.6521 45.3849 51.5634C45.4737 51.1199 45.6512 51.1199 45.9619 51.4303C46.0951 51.5191 46.4057 51.4747 46.5833 51.5191C46.7164 51.5634 47.0271 51.5634 47.0271 51.6521C47.1159 51.9626 46.894 52.0069 46.7164 52.0513ZM51.643 51.9182C51.1104 52.4061 50.4447 52.1844 49.9121 52.3618C49.8233 52.3618 49.7345 52.1843 49.6014 52.0513C49.6458 51.9626 49.6901 51.7852 49.8233 51.6078C49.8677 51.5634 50.0896 51.6965 50.2671 51.7408C50.3559 51.7852 50.4447 51.8739 50.5334 51.9182C50.5778 51.7852 50.6222 51.6965 50.6222 51.5191C50.711 51.2529 51.1104 51.0312 51.4655 51.0755C51.7318 51.1199 51.7762 51.3416 51.7762 51.5634C51.7762 51.6965 51.7318 51.8295 51.643 51.9182ZM51.9981 50.2772C51.5543 50.3659 51.4655 50.3215 51.3767 49.9667C51.2436 49.5232 51.288 49.4345 51.6874 49.3458C52.1756 49.2571 52.2644 49.3014 52.3532 49.6562C52.4863 50.0998 52.4419 50.1885 51.9981 50.2772ZM53.8622 47.749C53.7291 47.749 53.5959 47.6603 53.4628 47.616C53.3296 47.4386 53.2408 47.3499 53.2408 47.1725C53.1965 47.0394 53.2408 46.9063 53.3296 46.862C53.5515 46.7733 54.1285 47.2612 54.0841 47.4829C54.0397 47.5716 53.9066 47.749 53.8622 47.749ZM57.191 43.4468C57.0135 43.6242 56.7028 43.6686 56.4809 43.7573C56.4365 43.4912 56.3477 43.1807 56.3477 42.9146C56.3477 42.8259 56.5696 42.6485 56.6584 42.6485C56.7915 42.6485 56.9247 42.8259 57.191 42.9146C57.191 43.0476 57.2798 43.3581 57.191 43.4468Z" fill="#D76700"/>
</svg>
