<svg width="70" height="70" viewBox="0 0 70 70" fill="none" xmlns="http://www.w3.org/2000/svg">
<path d="M32.8243 20.6322C32.6175 20.5497 32.4934 20.5497 32.4106 20.6735L32.8243 20.6322Z" fill="#D76700"/>
<path d="M18.3052 61.4908C18.6361 61.5321 18.967 61.5733 19.2979 61.6146C19.2566 61.5733 19.2152 61.5321 19.1325 61.5321C18.8015 61.2844 18.512 61.2844 18.3052 61.4908Z" fill="#D76700"/>
<path d="M36.2988 6.1461C36.3815 6.31119 36.4642 6.47627 36.3402 6.68263C36.2574 6.84771 36.3815 6.97153 36.6297 6.97153C37.1261 6.93025 37.1261 6.97153 37.0434 7.46678C37.0434 7.54932 37.0433 7.67314 37.0847 7.75568C37.3743 8.12712 37.6224 8.49856 37.9534 8.82873C38.0361 8.91127 38.2015 8.91127 38.3256 8.91127C38.6152 8.87 38.7393 8.99381 38.6152 9.24144C38.4497 9.53034 38.6152 9.69543 38.7806 9.86051C39.1529 10.3145 39.5666 10.7685 39.9388 11.2225C40.0216 11.3463 40.1457 11.4701 40.187 11.6352C40.2284 11.7177 40.1043 11.8828 40.0629 11.8828C39.5666 12.0066 38.7393 11.5526 38.5325 11.0161C38.4911 10.9336 38.5325 10.8097 38.5325 10.7272C38.6152 10.2732 38.4084 9.98432 37.912 9.98432C37.7465 9.98432 37.5811 9.90178 37.457 9.81924C37.0847 9.4478 36.7952 9.03509 36.4642 8.66365C36.2988 8.45729 36.092 8.2922 36.2574 7.92076C36.3815 7.67314 35.9679 7.21915 35.6783 7.3017C35.5129 7.34297 35.3888 7.3017 35.2647 7.21915L21.9454 20.4672C22.1109 20.4672 22.2763 20.4672 22.4004 20.5085C22.5659 20.4672 22.7313 20.4259 22.8554 20.3847C23.1863 20.3021 23.3104 20.4672 23.3932 20.7148C23.4759 21.0037 23.4345 21.2101 23.1036 21.2926C22.9795 21.3339 22.8554 21.3752 22.7313 21.4164C22.4004 21.4577 22.1109 21.6228 21.8213 21.2514C21.6972 21.045 21.1595 21.2926 21.0768 21.5403C20.994 21.7466 20.6631 21.953 20.415 21.9942L18.9258 23.48C19.174 23.5213 19.3808 23.6451 19.5049 23.8102C19.5463 23.8514 19.5049 24.0578 19.4636 24.0991C19.2981 24.2229 19.0913 24.3054 18.9258 24.388C18.6777 24.5118 18.4295 24.5118 18.3467 24.8832C18.264 25.0896 17.6022 25.2547 17.4367 25.0483L17.3954 25.007L15.6994 26.6992C15.7822 26.7404 15.8649 26.7817 15.9476 26.9055C16.1131 27.1944 16.3199 27.1531 16.3613 26.9055C16.444 26.4928 16.7749 26.369 17.1058 26.2864C17.4781 26.2039 17.8504 26.1626 18.264 26.0801C18.6363 25.9975 19.0499 25.9975 19.1327 25.5023C19.1327 25.461 19.4222 25.3785 19.4222 25.4198C19.5463 25.6261 19.7118 25.6674 19.9599 25.7086C20.2909 25.7499 20.4149 26.2864 20.1668 26.5341C19.7945 26.9055 19.7945 26.9468 20.2495 27.1531C20.3322 27.1944 20.415 27.277 20.415 27.3595C20.415 27.442 20.3322 27.5659 20.2909 27.5659C20.0427 27.6484 19.7531 27.8547 19.5049 27.5246C19.4222 27.442 19.2154 27.442 19.0499 27.442C18.6777 27.4833 18.3054 27.7309 17.9331 27.277C17.809 27.1119 17.5608 27.3182 17.5608 27.5246C17.5608 27.6071 17.5608 27.7309 17.6022 27.8135C17.7263 28.1849 17.4781 28.2675 17.1885 28.35C16.8576 28.4325 16.7335 28.2675 16.6922 27.9786C16.6922 27.896 16.6508 27.8135 16.6094 27.7722C16.5267 27.6897 16.444 27.6071 16.3613 27.5246C16.3199 27.6484 16.1958 27.7309 16.1958 27.8547C16.1958 28.1024 16.0717 28.2262 15.8649 28.2675C15.534 28.3087 15.1617 28.3913 14.8308 28.4325C14.8722 28.4738 14.9135 28.5564 14.9549 28.5976C15.0376 28.7214 15.1203 28.8453 15.2444 28.9278C15.6994 29.2167 15.5753 29.5881 15.4926 29.9596C15.6581 29.8358 15.9063 29.7945 16.1544 29.9596C16.2785 30.0421 16.4026 30.0834 16.5681 30.1659C16.6508 30.2072 16.6922 30.2485 16.7749 30.2898C16.7335 30.331 16.6922 30.4136 16.6508 30.4548C16.4026 30.5786 16.1544 30.6612 15.9063 30.785C15.7822 30.8675 15.6167 30.9501 15.4926 31.0739C15.4099 31.1564 15.3272 31.2803 15.2444 31.3628C15.1617 31.239 15.0376 31.1152 14.8722 30.9501C14.9549 30.785 15.0376 30.6199 15.1203 30.4961C15.1617 30.4548 15.2031 30.3723 15.2444 30.331C15.2031 30.331 15.2031 30.331 15.2031 30.331C14.8722 30.2072 14.624 30.3723 14.3344 30.4548C14.2931 30.4961 14.169 30.4548 14.1276 30.4136C14.0862 30.3723 14.1276 30.2898 14.1276 30.2072C14.1276 30.1659 14.169 30.1247 14.169 30.0834C14.4585 29.5056 14.4585 29.3405 13.9208 28.9278C13.8794 28.8865 13.7967 28.8453 13.7967 28.804L13.5071 29.0929C13.5071 29.2992 13.4244 29.3818 13.1762 29.4231L11.1494 31.239C11.1907 31.239 11.2321 31.1977 11.2735 31.1977C11.9353 31.0326 12.018 31.0326 12.1008 31.5279C12.1421 31.7342 12.2662 31.9819 11.9767 32.0644C11.8112 32.1057 11.563 32.2708 11.3976 32.147C11.3562 32.1882 11.2735 32.2295 11.2321 32.2708C11.1494 32.312 10.9839 32.2295 10.9012 32.147C10.8185 32.0231 10.6944 31.9406 10.6116 31.8168L4.40702 38.0075C4.69657 38.0487 4.94475 38.2138 5.2343 38.3376C5.31703 38.3789 5.35839 38.5027 5.39976 38.5853C5.48248 38.8329 5.56521 39.0805 5.64794 39.3281C5.73067 39.5345 5.68931 39.6996 5.44112 39.7409C5.31703 39.7409 5.19294 39.617 5.11021 39.5345C4.98611 39.3694 4.90339 39.1218 4.82066 38.9154C4.6552 39.0805 4.53111 39.2456 4.36565 39.4107C4.32429 39.452 4.24156 39.4932 4.2002 39.5758L6.76477 42.1346C6.93023 41.9695 7.09569 41.9282 7.38524 42.1759C7.55069 42.2997 8.08843 42.0108 8.08843 41.7631C8.12979 41.4742 8.29525 41.3917 8.50207 41.3917C8.91571 41.3504 9.37072 41.1441 9.74299 41.5568C9.90845 41.7219 10.3635 41.5155 10.4048 41.2266C10.4462 40.9377 10.6116 40.8139 10.8598 40.7726C11.7285 40.6488 12.5971 40.525 13.4658 40.1536C13.9621 39.9472 14.2931 40.1536 14.3758 40.6901C14.3758 40.8139 14.3344 40.9377 14.2517 41.0203C14.2103 41.1028 14.0862 41.1853 14.0449 41.2679C14.0449 41.5568 13.838 41.5568 13.6726 41.5981C13.2589 41.6806 12.8867 41.8044 12.473 41.887C12.1008 41.9695 11.7698 42.052 11.3976 42.1759C11.108 42.2584 10.8598 42.3822 10.653 42.052C10.4875 41.8457 9.94982 42.052 9.86709 42.3409C9.82572 42.5886 9.70163 42.6711 9.49481 42.7124C9.1639 42.7949 8.87435 42.8775 8.54343 42.96C8.25388 43.0425 8.0057 43.1664 7.75751 42.8362C7.71615 42.7537 7.50933 42.7537 7.38524 42.7949L8.66753 44.0743C8.75025 43.868 8.79162 43.7029 8.87435 43.5378C8.99844 43.6616 9.12253 43.7854 9.20526 43.9092C9.28799 44.0743 9.32935 44.2807 9.08117 44.322C8.99844 44.322 8.91571 44.2807 8.83298 44.2394L8.95708 44.3632C8.70889 44.8998 8.50207 45.4776 8.33661 46.0553C8.41934 46.0141 8.54343 46.0141 8.62616 45.9728C9.08117 45.849 9.12253 45.849 9.28799 46.2617C9.37072 46.4681 9.53617 46.5919 9.74299 46.6744C9.82572 46.7157 9.82572 46.8395 9.86709 46.9633C9.78436 47.0046 9.6189 47.0871 9.57754 47.0459C9.24662 46.7157 8.87435 46.922 8.54343 47.0459C8.37798 47.0871 8.21252 47.0871 8.08843 47.0871C7.46796 50.3476 8.17116 53.7731 10.1566 56.5795H10.198C10.6116 56.497 10.7771 56.5795 10.9012 56.9509C10.9426 57.1986 10.9426 57.2811 10.7771 57.3637C10.9839 57.6113 11.2321 57.8589 11.4803 58.1065C13.0935 59.7161 14.9962 60.7479 17.0231 61.2844C17.1885 61.2019 17.354 61.0781 17.5195 60.8717C17.7676 60.459 18.0158 60.0463 18.264 59.6748C18.3467 59.5098 18.6777 59.4685 18.8845 59.4685C18.9672 59.4685 19.0913 59.7161 19.174 59.8399C19.2568 59.9637 19.2568 60.1288 19.3395 60.1701C19.4636 60.2526 19.629 60.3352 19.7945 60.3765C19.7945 60.3352 19.8359 60.2526 19.9186 60.1701C20.0427 60.0463 20.1668 60.0876 20.2495 60.1288C20.2495 59.7574 20.3736 59.4685 20.4977 59.1383C20.539 59.0558 20.6631 58.8907 20.7872 58.8907C20.87 58.8907 21.0354 59.0145 21.0354 59.1383C21.1181 59.3859 21.2836 59.6748 20.87 59.7987C20.6631 59.8812 20.7045 60.0876 20.7872 60.2526C20.9527 60.5415 20.9113 60.7066 20.6631 60.7892C20.7045 60.913 20.7459 61.0781 20.8286 61.2019C20.6218 61.1193 20.415 61.0368 20.2495 60.9543C20.1254 61.0781 20.084 61.2019 20.1668 61.4908C20.1668 61.532 20.2081 61.5733 20.2081 61.6146C20.87 61.6146 21.5318 61.5733 22.1936 61.4495C22.1936 61.4495 22.1936 61.4082 22.235 61.4082C22.69 61.1193 22.4418 60.7479 22.3591 60.3765C22.2763 59.9637 22.4004 59.7987 22.8141 59.7987C22.8968 59.7987 23.0209 59.9637 22.9795 60.005C22.7727 60.4177 22.9382 60.8304 23.0623 61.2431V61.2844C23.8068 61.1193 24.5514 60.8717 25.2546 60.5415L25.7509 61.0368C25.8337 60.9955 25.9991 60.9955 26.1232 60.9955C26.1232 61.1193 26.0818 61.2019 26.0818 61.3257L26.9505 62.1924C27.0746 62.1924 27.1573 62.2337 27.1987 62.2749C27.3641 62.3987 27.4882 62.5226 27.7364 62.5226C27.8191 62.5226 27.9432 62.6876 27.9432 62.7702C27.9432 62.8527 27.8605 63.0178 27.7778 63.0178L27.9019 63.1416C27.9019 63.1416 27.9432 63.1416 27.9432 63.1003C27.9846 63.0591 28.026 63.0178 28.0673 62.9765C28.1914 62.9353 28.3982 62.894 28.481 62.9353C28.6464 63.0591 28.5223 63.2242 28.3982 63.3067C28.3569 63.348 28.3155 63.3892 28.2328 63.4305L30.7146 65.9068L35.1406 61.4908C34.9751 61.3257 34.9751 61.1606 35.0579 60.913C35.182 60.6241 34.727 60.1288 34.396 60.1701C33.941 60.2939 33.8583 59.9225 33.6515 59.7161C33.4447 59.5098 33.1551 59.3447 33.4447 58.9732C33.486 58.8907 33.3619 58.7256 33.4033 58.6431C33.4447 58.5192 33.5688 58.3542 33.6515 58.3954C33.8169 58.4367 33.941 58.478 34.1065 58.478L34.1479 58.4367C34.1892 58.4367 34.2306 58.478 34.3133 58.5193C34.5615 58.5605 34.8097 58.6843 34.9751 58.932C35.1406 59.1796 35.3061 59.3447 35.1406 59.6748C34.9751 59.9225 35.0992 60.0876 35.4301 60.005C35.6783 59.9637 35.8024 60.0463 35.9265 60.2114C35.9265 60.2114 35.9265 60.2114 35.9679 60.2526V60.2114C35.9679 60.1288 36.0506 60.0463 36.092 59.9225C36.1747 59.9637 36.2574 60.0463 36.2988 60.0876C36.3402 60.1288 36.3402 60.2114 36.3815 60.3352L41.3452 55.3826C41.3039 55.3826 41.3039 55.3414 41.3039 55.3001C41.2211 55.0525 41.4693 55.0525 41.6348 55.0112C41.6761 55.0112 41.7175 54.9699 41.7589 54.9699L43.8684 52.8651C43.7857 52.9064 43.703 52.9064 43.6616 52.8651C43.4548 52.7826 43.5375 52.6175 43.5789 52.4111C43.6203 51.9984 43.6616 51.6682 44.0339 51.4206C44.0753 51.4206 44.0753 51.3793 44.0753 51.3381C43.9925 51.3793 43.9512 51.3793 43.8684 51.4206C43.7857 51.4206 43.703 51.5031 43.5789 51.5031C43.4962 51.5031 43.3307 51.4619 43.2893 51.3793C43.248 51.2968 43.248 51.173 43.2893 51.0492C43.3721 50.8841 43.4548 50.719 43.5789 50.5952C43.6616 50.5126 43.7857 50.4301 43.8684 50.3888C43.9512 50.3888 43.9925 50.3888 44.0753 50.3476C44.1166 50.265 44.158 50.1412 44.2407 50.0999C44.2821 50.0587 44.4889 50.0999 44.5303 50.1825C44.5716 50.2237 44.613 50.265 44.6544 50.3063C44.9025 50.3063 44.9853 50.4301 45.0266 50.719C45.0266 50.719 45.0266 50.719 45.0266 50.7603C45.2335 50.9666 45.3989 51.1317 45.4403 51.2968L45.8539 50.8841C45.6471 50.8428 45.5644 50.719 45.4403 50.4301C45.3575 50.1825 45.3989 50.0174 45.6471 49.9348C45.6885 49.8936 45.7712 49.8936 45.8126 49.8936C45.8126 49.7698 45.8125 49.6872 45.8539 49.5634C45.8953 49.4396 45.8953 49.2332 46.0194 49.192C46.1021 49.1507 46.3089 49.2332 46.433 49.3158C46.5157 49.357 46.5985 49.4809 46.6812 49.5634C46.7226 49.6047 46.7226 49.6459 46.7639 49.6872C46.9294 49.6459 47.0535 49.6047 47.2189 49.5634L47.9635 48.8205C47.7153 48.7792 47.343 48.2427 47.4258 47.9951C47.4671 47.8713 47.4671 47.7475 47.5085 47.6237C47.5498 47.4998 47.5498 47.376 47.6326 47.3348C47.7153 47.2935 47.8394 47.376 47.9221 47.4173C48.0462 47.4998 48.1289 47.5824 48.1703 47.6649C48.3771 47.9126 48.5012 48.1602 48.4599 48.3253L60.2486 36.563C60.2073 36.5217 60.1659 36.5217 60.1246 36.4804C59.9177 36.3566 59.4627 36.2741 59.4627 36.1915C59.4627 35.9026 59.38 35.655 59.2145 35.4074C59.0491 35.1598 58.8423 34.9121 58.6768 34.6232C58.5941 34.4994 58.47 34.3343 58.5114 34.2518C58.7595 33.8803 58.4286 33.674 58.2632 33.4264C58.1804 33.3025 58.1391 33.0962 58.2218 33.0137C58.3873 32.8073 58.5527 33.0136 58.6768 33.1375C58.8836 33.3438 59.0491 33.6327 59.4214 33.4676C59.4627 33.4264 59.5868 33.5502 59.6696 33.5914C60.0418 34.0454 60.4141 34.4994 60.7864 34.9534C60.8277 34.9947 60.8691 35.0772 60.8277 35.1185C60.7037 35.4074 60.7864 35.6137 60.9518 35.8201L62.3996 34.3756C62.3582 34.3343 62.3169 34.2931 62.2341 34.2105C61.9032 33.8803 61.6137 33.5089 61.3241 33.1375C60.9932 32.7248 60.6209 32.312 60.29 31.8993C60.1246 31.693 60.0832 31.5279 60.3314 31.3215C60.6209 31.0326 60.7864 30.9914 61.0346 31.3628C61.2414 31.6517 61.6964 31.8581 61.4482 32.3533C61.3655 32.5184 61.5309 32.6835 61.7378 32.6009C62.0273 32.4771 62.1928 32.6422 62.3169 32.8486C62.5237 33.0962 62.7305 33.3851 62.9787 33.6327C63.0201 33.674 63.0201 33.7153 63.0614 33.7153L65.7501 31.0326L60.3314 25.6261C60.6623 24.8832 60.9105 24.0991 61.0759 23.3149C60.9518 23.3975 60.8278 23.2324 60.7037 23.1498C60.4555 22.8609 60.2073 22.5308 59.9591 22.2419C59.9177 22.1593 59.9177 22.0355 59.8764 21.9117C60.0005 21.9117 60.1246 21.8704 60.2073 21.8704C60.3314 21.8704 60.4555 21.953 60.5382 21.953C60.9105 21.8704 60.9932 21.9942 60.9105 22.3657C60.8691 22.5308 61.0346 22.6959 61.0759 22.9022C61.0759 22.9435 61.1173 23.026 61.1173 23.1086C61.9032 19.1878 60.7864 14.9781 57.7668 11.9241C54.044 8.20966 48.5426 7.34297 43.9925 9.36526L38.4497 4L36.2988 6.1461ZM18.8845 25.8737C18.8017 25.9563 18.6777 25.915 18.4295 25.9563C18.5122 25.7499 18.5122 25.5848 18.5949 25.5023C18.6777 25.461 18.8431 25.5023 18.9672 25.5023C18.8845 25.6261 18.9258 25.7912 18.8845 25.8737ZM6.68205 39.4107C6.10295 39.5758 5.89613 39.4107 5.93749 38.8329C5.97885 38.5853 6.06158 38.3376 6.18568 38.09C6.30977 37.8837 6.64068 37.8836 6.72341 38.1313C6.80614 38.2551 6.80614 38.4202 6.8475 38.5853C6.88887 38.7091 6.88887 38.8742 6.93023 39.0392C7.01296 39.2456 6.93023 39.3281 6.68205 39.4107ZM33.9824 60.7479C34.0651 60.7892 34.1479 60.7892 34.2306 60.8304C34.3547 60.913 34.4788 60.9955 34.5615 61.0781C34.5615 61.4082 34.6856 61.6559 34.3133 61.7797C33.8997 61.9035 33.7756 61.8622 33.5688 61.4908C33.486 61.3257 33.486 61.1606 33.486 60.9955C33.5274 60.5003 33.5688 60.5003 33.9824 60.7479ZM62.1928 31.0739C62.2341 31.0326 62.3582 31.0739 62.441 31.0739C62.441 31.1564 62.4409 31.2803 62.3996 31.3628C62.3582 31.4041 62.2341 31.3628 62.11 31.3628C62.1514 31.239 62.1514 31.1152 62.1928 31.0739ZM38.2429 19.0227C38.2843 18.9814 38.3256 18.9814 38.4084 18.9814C38.367 18.8164 38.2429 18.5687 38.5325 18.4862C39.1116 18.3211 39.732 18.156 40.3111 17.9909C40.4352 17.9497 40.5593 18.0322 40.6834 18.0735C40.6007 18.156 40.5179 18.3211 40.3938 18.3624C40.2698 18.4449 40.1043 18.4862 39.9802 18.5275C39.4838 18.6513 38.9461 18.8164 38.4497 18.9402C38.4497 18.9814 38.4911 19.064 38.4497 19.1053C38.367 19.1878 38.2843 19.2703 38.2015 19.3116L38.0775 19.2291C38.1188 19.1878 38.1602 19.1053 38.2429 19.0227ZM41.6761 20.3847C41.6348 20.4672 41.6348 20.5085 41.5934 20.591C41.5107 20.5497 41.3866 20.5497 41.3866 20.4672C41.3452 20.4259 41.428 20.3021 41.428 20.3021C41.5107 20.3021 41.5934 20.3434 41.6761 20.3847ZM41.6348 18.4036C41.8002 18.2798 41.883 18.156 41.9657 18.1147C42.0484 18.1147 42.1311 18.1973 42.2552 18.2386C42.1725 18.3211 42.1311 18.4449 42.0484 18.5275C41.9657 18.5275 41.8416 18.4449 41.6348 18.4036ZM41.9243 29.258C41.9657 29.2992 41.9657 29.4231 41.9243 29.4643C41.6761 29.7532 41.3866 30.0421 41.1384 30.331C40.9729 30.2898 40.8489 30.2485 40.7661 30.2072C40.6007 30.1247 40.4352 30.0009 40.2698 29.877C40.1043 29.7532 40.1043 29.5881 40.3111 29.4643C40.6007 29.3405 40.9729 29.3405 41.0143 28.8865C41.0143 28.8453 41.1384 28.804 41.1384 28.804C41.3866 28.9278 41.6761 29.0929 41.9243 29.258ZM39.9388 21.5403C39.6493 21.7053 39.5666 21.6228 39.4425 21.0863C39.4425 21.045 39.4011 20.9625 39.4011 20.8799C39.4011 20.7974 39.4838 20.6736 39.5252 20.6736C39.6079 20.6323 39.732 20.6736 39.7734 20.7148C39.8561 20.7974 39.8975 20.9212 39.9802 20.9625C40.0629 21.045 40.187 21.1275 40.3111 21.2101C40.187 21.3339 40.0629 21.499 39.9388 21.5403ZM40.4352 24.0165C40.4766 24.0165 40.5593 24.0991 40.6007 24.1403C40.5593 24.1816 40.4766 24.2642 40.3938 24.3054C40.3525 24.3054 40.2698 24.2642 40.1457 24.1816C40.3111 24.0991 40.3525 24.0578 40.4352 24.0165ZM39.2356 24.5118C39.1943 24.5531 39.1529 24.6769 39.1116 24.6769C39.0288 24.6769 38.9461 24.6356 38.7806 24.6356C38.9047 24.5118 38.9461 24.4292 39.0288 24.4292C39.1116 24.3467 39.1529 24.4292 39.2356 24.5118ZM38.0361 29.5469C38.2015 29.5056 38.2843 29.5056 38.367 29.4643C38.8634 29.1342 39.1529 29.5881 39.4838 29.7532C39.5252 29.7532 39.5252 30.0421 39.4838 30.0834C39.3597 30.2072 39.1943 30.2898 39.0288 30.331C38.4497 30.4548 37.912 30.5374 37.3329 30.6612C37.2088 30.6612 37.0847 30.6199 36.9606 30.6199C37.002 30.5374 37.0847 30.4136 37.1261 30.331L37.1674 30.2898C37.1674 29.5881 37.7052 29.6294 38.0361 29.5469ZM38.7806 31.4041C38.5325 31.4041 38.2843 31.4453 38.2015 31.3628C37.9947 31.1564 38.2429 31.0326 38.4084 30.9088C38.5325 30.785 38.7393 30.5786 38.9047 30.8263C38.9461 30.9501 38.822 31.1564 38.7806 31.4041ZM38.9047 33.0549C38.8634 33.1375 38.8634 33.22 38.822 33.22C38.7393 33.2613 38.6566 33.22 38.5325 33.1787C38.6152 33.0549 38.6566 32.9724 38.6979 32.9724C38.7393 32.9724 38.822 33.0137 38.9047 33.0549ZM36.7538 24.7181C36.8365 24.5943 36.8779 24.3467 37.0847 24.4292C37.2088 24.4705 37.2915 24.6769 37.4156 24.8832C37.3329 25.007 37.2915 25.2547 37.1674 25.2547C36.9606 25.2959 36.7124 25.2134 36.4642 25.1721C36.4642 25.1721 36.4642 25.007 36.5056 24.9245C36.5883 24.842 36.7124 24.8007 36.7538 24.7181ZM36.7538 21.8704C36.9606 21.7466 37.2088 21.7053 37.457 21.7053C37.6638 21.7053 37.7879 22.3657 37.6224 22.6133C37.5397 22.7784 37.457 22.9435 37.3743 23.0673C37.3329 23.1498 37.2502 23.2324 37.1674 23.2324C37.0847 23.2324 37.002 23.1498 36.9606 23.0673C36.8779 22.9022 36.8779 22.7371 36.8365 22.572C36.8365 22.4895 36.7952 22.407 36.7952 22.3657C36.7124 22.2006 36.6711 21.9117 36.7538 21.8704ZM36.7124 17.4544C36.9606 16.8766 36.9606 16.8766 37.3743 16.7941C37.4156 16.7941 37.5397 16.7528 37.6638 16.7528C37.7465 16.7528 37.8293 16.8766 37.8293 16.9179C37.8293 17.2481 37.2915 17.7846 36.9193 17.7846C36.6711 17.7846 36.5883 17.6608 36.7124 17.4544ZM36.2574 19.5592C36.2988 19.518 36.3815 19.518 36.4642 19.4767C36.547 19.4767 36.6297 19.4354 36.7538 19.4354C36.7952 19.4354 36.8779 19.4354 36.9193 19.4767C36.9606 19.518 37.002 19.6831 37.002 19.6831C36.7952 19.8069 36.5883 19.8894 36.3402 19.972C36.2988 19.972 36.1333 19.8894 36.1333 19.8481C36.1333 19.7243 36.1747 19.6005 36.2574 19.5592ZM35.1406 11.4288C35.182 11.4701 35.2647 11.4701 35.2647 11.5114C35.3061 11.5526 35.2647 11.6352 35.2647 11.7177C35.182 11.6764 35.1406 11.6352 35.1406 11.5939C35.0992 11.5526 35.1406 11.4701 35.1406 11.4288ZM33.6929 11.5939C33.7342 11.5526 33.9824 11.6764 34.0238 11.759C34.1479 12.0066 33.941 12.0892 33.6929 12.1717C33.5274 12.1304 33.2378 12.0892 33.2378 12.0066C33.1551 11.7177 33.5274 11.7177 33.6929 11.5939ZM34.0238 13.7813C33.9824 13.8225 33.9824 13.9464 33.941 13.9464C33.8583 13.9876 33.7756 13.9464 33.6515 13.9464C33.7342 13.8225 33.7756 13.74 33.8169 13.74C33.8583 13.74 33.941 13.7813 34.0238 13.7813ZM33.2792 15.1432C33.3619 15.1432 33.4033 15.102 33.486 15.102C33.6929 15.102 33.8997 15.102 34.1065 15.1432C34.1892 15.1432 34.2719 15.267 34.3547 15.3496C34.2719 15.4321 34.1892 15.5559 34.1479 15.5559C33.8997 15.5559 33.6515 15.5147 33.4033 15.4734C33.3619 15.4734 33.2792 15.3496 33.2792 15.3083C33.1965 15.267 33.2792 15.2258 33.2792 15.1432ZM34.0238 18.4862C33.941 18.4449 33.8997 18.4449 33.6515 18.3211C33.7756 18.2386 33.8169 18.156 33.8997 18.156C33.9824 18.156 34.0651 18.2386 34.1065 18.2798C34.1065 18.3211 34.0651 18.4036 34.0238 18.4862ZM32.7415 18.6513C32.7415 18.7338 32.6587 18.8576 32.576 18.8576C32.4933 18.8576 32.4106 18.7751 32.2451 18.7338C32.3692 18.61 32.4106 18.4862 32.4933 18.4862C32.6174 18.4862 32.7415 18.5687 32.7415 18.6513ZM32.5347 14.5242C32.576 14.5242 32.7001 14.6067 32.7001 14.6067C32.7001 14.6892 32.6587 14.7718 32.6174 14.8543C32.5347 14.8131 32.4933 14.8131 32.2451 14.6892C32.3692 14.648 32.4519 14.5654 32.5347 14.5242ZM30.9214 18.4449C31.0042 18.4449 31.0869 18.4449 31.1696 18.4862C31.3351 18.5275 31.4592 18.61 31.5833 18.6925C31.666 18.7338 31.7487 18.8164 31.8315 18.8576C31.7487 18.9402 31.7074 19.064 31.6246 19.1053C31.5419 19.1878 31.4178 19.1878 31.211 19.2703C31.1283 19.2291 30.9214 19.2291 30.9214 19.1465C30.8801 18.9402 30.9214 18.6925 30.9214 18.4449ZM31.8315 19.2703C31.7487 19.3942 31.7487 19.518 31.666 19.5592C31.6246 19.6005 31.5419 19.5592 31.4592 19.518C31.5005 19.4354 31.5005 19.3529 31.5419 19.2703C31.5833 19.2703 31.666 19.2703 31.8315 19.2703ZM28.3982 18.5687C28.5223 18.61 28.6051 18.61 28.6878 18.61C28.6464 18.6925 28.6464 18.8164 28.6051 18.8576C28.5637 18.8989 28.3982 18.8989 28.3982 18.8576C28.3569 18.8164 28.3982 18.6925 28.3982 18.5687ZM28.3155 19.518C28.3982 19.518 28.5637 19.6005 28.5637 19.6831C28.6051 19.7656 28.5223 19.9307 28.4396 19.9307C28.1087 20.0132 27.7364 20.0958 27.3641 20.1783C27.3228 20.1783 27.1573 20.0958 27.1573 20.0132C27.1573 19.9307 27.1987 19.7656 27.2814 19.7243C27.4469 19.6418 27.6123 19.6418 27.7778 19.6005C27.9846 19.5592 28.1501 19.518 28.3155 19.518ZM27.24 15.3909C27.2814 15.3909 27.3641 15.4734 27.3641 15.5147C27.3641 15.5147 27.3228 15.6385 27.2814 15.6385C27.24 15.6385 27.1573 15.5972 27.0332 15.5559C27.1573 15.4734 27.1987 15.3909 27.24 15.3909ZM26.7023 16.6703C26.7437 16.629 27.0746 16.6703 27.0746 16.7528C27.1159 16.8766 27.0332 17.0417 26.9919 17.2481C26.7437 17.2481 26.5782 17.2481 26.3714 17.2481C26.4955 17.0417 26.5782 16.8353 26.7023 16.6703ZM25.8337 19.6831C26.1232 19.5592 26.1232 19.8894 26.2059 20.0545C26.2473 20.2609 26.33 20.5085 26.0405 20.591C25.8337 20.6323 25.6682 20.5497 25.6682 20.3434C25.6682 20.0958 25.5027 19.7656 25.8337 19.6831ZM23.2691 19.8069C23.2277 19.7656 23.2691 19.6831 23.3104 19.6418C23.4345 19.4767 24.3445 19.518 24.3445 19.7243C24.3445 19.8894 24.2618 20.0545 24.1791 20.2196C23.9723 20.2609 23.7654 20.3847 23.6827 20.3434C23.5173 20.2196 23.3932 20.0132 23.2691 19.8069ZM20.2909 22.407C20.2495 22.407 20.2909 22.3244 20.2909 22.2006C20.3736 22.2419 20.4563 22.2419 20.4977 22.2831C20.539 22.2831 20.4977 22.407 20.4977 22.407C20.415 22.407 20.3736 22.407 20.2909 22.407ZM20.4563 32.0644C20.5804 32.0644 20.7045 32.2295 20.87 32.3533C20.7872 32.5597 20.7872 32.8073 20.7045 32.8073C20.415 32.8898 20.415 32.6009 20.3322 32.4359C20.2909 32.312 20.2081 32.0644 20.4563 32.0644ZM20.7872 25.461C20.87 25.5436 20.9113 25.5848 20.9527 25.6261C20.9527 25.6674 20.9113 25.7086 20.87 25.7499C20.8286 25.7086 20.7459 25.6674 20.7045 25.6261C20.7045 25.6261 20.7459 25.5436 20.7872 25.461ZM20.7459 25.3785C20.7459 25.2547 20.7459 25.1721 20.7872 25.0483C20.7872 25.007 20.87 24.9658 20.9113 24.9245C20.994 24.8832 21.0768 24.8007 21.1595 24.7594C21.2009 24.7181 21.2836 24.7594 21.3663 24.7594C21.3663 24.842 21.3663 24.9245 21.325 24.9658C21.2422 25.0896 21.2009 25.2134 21.0768 25.2959C21.0354 25.3785 20.87 25.3785 20.7459 25.3785ZM21.5318 28.5976C21.6559 28.5976 21.78 28.5564 21.9041 28.5564C22.3177 28.4738 22.4418 28.5976 22.4004 29.0516C22.3591 29.2992 22.3591 29.4231 22.0282 29.2992C21.78 29.1754 21.4491 29.258 21.1181 29.258C20.994 29.258 20.87 29.2992 20.7872 29.2992C20.7045 29.2992 20.6218 29.2167 20.539 29.1754C20.5804 29.1342 20.5804 29.0103 20.6631 29.0103C20.9113 28.8453 21.2422 28.7214 21.5318 28.5976ZM23.7654 25.0483C23.5173 25.3785 23.6827 25.7086 23.7241 26.0388C23.7654 26.2452 23.7654 26.5753 23.6827 26.6166C23.4759 26.7404 23.145 26.823 22.8968 26.7404C22.4832 26.5753 22.1109 26.369 21.78 26.0801C21.6145 25.915 21.5731 25.5848 21.5318 25.3372C21.5318 25.2547 21.7386 25.1309 21.9041 25.0483C22.1522 24.9658 22.4004 24.9245 22.6486 24.842C22.6486 24.842 22.6486 24.842 22.6486 24.8832C22.8968 24.8007 23.1863 24.7181 23.4345 24.6769C23.7241 24.6356 23.9309 24.842 23.7654 25.0483ZM24.0136 26.6992C24.2618 26.4515 24.4273 26.6166 24.5927 26.823C24.9236 27.2357 24.9236 27.3182 24.5927 27.6071C24.4273 27.6897 24.2618 28.0198 23.9723 27.6897C23.6827 27.3595 23.7241 26.9881 24.0136 26.6992ZM22.0695 29.6294C21.9868 29.6707 21.9041 29.6707 21.78 29.6707C21.8213 29.5469 21.8213 29.4643 21.8213 29.3818C21.9041 29.4231 21.9868 29.4231 22.0695 29.4643C22.1109 29.4643 22.1109 29.6294 22.0695 29.6294ZM19.7531 29.1342C19.7945 29.0929 20.0013 29.2167 20.0013 29.2992C20.0013 29.3818 19.9599 29.5469 19.8772 29.6294C19.7945 29.6707 19.6704 29.5469 19.4636 29.5056C19.5877 29.2992 19.629 29.1754 19.7531 29.1342ZM18.6777 34.4581C18.7604 34.4994 18.8431 34.6645 18.9672 34.8296C18.9258 34.9947 18.8431 35.1598 18.7604 35.2836C18.719 35.4074 18.6363 35.4899 18.5949 35.6137C18.4295 36.0264 18.0158 36.1503 17.6022 35.9026C17.4781 35.8201 17.2713 35.7375 17.1472 35.7375C16.8163 35.7375 16.6508 35.5725 16.5681 35.2836C16.5267 35.1598 16.5681 34.9534 16.6094 34.9121C16.7335 34.8709 16.9404 34.8296 17.0231 34.9121C17.2713 35.201 17.4367 35.2423 17.5608 34.8296C17.5608 34.6232 18.4295 34.3343 18.6777 34.4581ZM16.0303 38.6678C15.7408 38.7091 15.6167 38.6265 15.7408 38.2964C15.7822 38.1726 15.7408 38.0487 15.7408 37.9249C15.7408 37.8424 15.7408 37.7598 15.7822 37.636C15.9063 37.636 15.9476 37.5948 16.0303 37.5948C16.1958 37.5948 16.3613 37.636 16.5267 37.6773C16.7749 37.6773 16.899 37.8011 16.7335 38.0075C16.5681 38.2551 16.7335 38.4202 16.8576 38.5853C16.9817 38.7503 17.1472 38.9154 17.2713 39.0805C17.3126 39.1631 17.3126 39.2869 17.2713 39.4107C17.2713 39.452 17.1058 39.452 17.0231 39.452C16.9404 39.452 16.8576 39.3694 16.7335 39.3694C16.2785 39.3281 16.2785 39.3281 16.3613 38.9567C16.444 38.6678 16.2785 38.6265 16.0303 38.6678ZM17.4367 29.6294C17.6849 29.712 17.8504 29.7532 18.0158 29.7945C17.809 29.9183 17.6436 30.0834 17.4367 30.2072C17.3954 30.2485 17.1472 30.0421 17.1885 30.0009C17.2299 29.877 17.354 29.7532 17.4367 29.6294ZM16.9817 33.0549C16.9817 32.8486 16.9817 32.6009 16.9817 32.3946C16.9817 32.147 17.0645 32.0231 17.3126 32.0644C17.6022 32.1057 18.0158 31.8993 18.1399 32.312C18.4708 32.6835 18.4708 32.7248 18.1813 33.0137C17.8504 33.3025 17.5608 33.5502 17.2299 33.7978C17.1472 33.8391 16.9817 33.8391 16.8576 33.8391C16.8576 33.7978 16.8576 33.7565 16.8576 33.7565C16.7749 33.7978 16.6508 33.8391 16.4854 33.8803C16.444 33.8803 16.3199 33.8391 16.1544 33.7565C16.0303 33.7153 15.9476 33.6327 15.8235 33.5914C15.534 33.5089 15.5753 33.3851 15.7822 33.2613C15.8235 33.22 15.8649 33.22 15.9063 33.1787C16.0303 33.0136 16.444 32.9311 16.6508 32.9311C16.8163 32.8486 16.899 32.9311 16.9817 33.0549ZM15.7822 31.1564C16.1544 30.8263 16.2785 30.8263 16.5681 31.1977C16.7749 31.4453 16.7335 31.6104 16.5267 31.7755C16.1958 32.0231 15.8649 31.9819 15.6167 31.6517C15.4099 31.3628 15.6581 31.2803 15.7822 31.1564ZM15.2444 35.2836C15.2858 35.2423 15.4099 35.2836 15.4926 35.3248C15.6581 35.4074 15.7822 35.4899 15.9063 35.5725C16.1131 35.6963 16.3613 36.3153 16.1544 36.4804C15.9063 36.6868 15.9476 36.9344 15.9476 37.182C15.9476 37.3059 15.8649 37.4297 15.8235 37.5122C15.7408 37.4297 15.5753 37.3471 15.534 37.2233C15.4099 36.9344 15.3685 36.6455 15.2858 36.3153C15.2031 36.0264 15.1203 35.7788 15.079 35.4899C15.1203 35.4487 15.1617 35.3248 15.2444 35.2836ZM12.8867 31.8168C12.9694 31.7755 12.9694 31.5692 12.9694 31.4453C12.9694 31.3215 12.928 31.239 12.928 31.1152C12.8867 30.9088 12.9694 30.7437 13.1762 30.7437C13.3003 30.7437 13.4244 30.9088 13.5899 31.0326C13.5071 31.3215 13.383 31.5692 13.3417 31.8168C13.3003 32.0231 13.3003 32.2708 13.2589 32.4771C13.2589 32.5597 13.2176 32.6009 13.1762 32.6835C13.0935 32.6422 12.9694 32.6422 12.9694 32.5597C12.8039 32.3533 12.5558 32.1057 12.8867 31.8168ZM9.90845 34.7883C9.94982 34.7058 10.0739 34.5407 10.1566 34.5407C10.4875 34.5407 10.4462 34.8709 10.5289 35.0359C10.5703 35.1185 10.5289 35.3661 10.4462 35.4074C10.2394 35.5725 10.0739 35.4486 9.94982 35.0359C9.90845 34.9947 9.86709 34.8709 9.90845 34.7883ZM8.25388 35.655C8.25388 35.6137 8.33661 35.655 8.46071 35.655C8.41934 35.7375 8.41934 35.8201 8.37798 35.8614C8.33661 35.9026 8.29525 35.8614 8.21252 35.8614C8.25388 35.7788 8.25388 35.6963 8.25388 35.655ZM10.9839 39.5758C10.9012 39.617 10.8185 39.5758 10.6944 39.5758C10.6944 39.452 10.7357 39.4107 10.7357 39.3281C10.8185 39.3281 10.9012 39.3281 10.9839 39.3694C10.9839 39.4107 10.9839 39.5758 10.9839 39.5758ZM13.383 39.6996C13.2589 39.6996 13.1349 39.5345 13.0108 39.452C13.0935 39.2043 12.8453 38.8742 13.1762 38.7916C13.4658 38.7503 13.4658 39.1218 13.5485 39.2869C13.6312 39.4932 13.6312 39.6996 13.383 39.6996ZM14.2517 37.5535C14.0449 37.5948 13.8794 37.636 13.6726 37.6773C13.4658 37.7186 13.2176 37.7598 13.1762 38.09C13.1349 38.2964 12.9694 38.3376 12.8039 38.2138C12.3903 37.9249 12.1008 38.0075 11.8939 38.4614C11.7285 38.8329 11.1494 38.8742 10.8598 38.5853C10.653 38.3789 10.3635 38.2964 10.0739 38.1726C10.0325 38.1726 9.86709 38.2551 9.86709 38.2964C9.82572 38.6678 9.53617 38.6678 9.28799 38.7091C8.99844 38.7503 8.75025 38.9567 8.50207 38.998C8.04706 39.1218 8.0057 39.0805 7.88161 38.6265C7.84024 38.4614 7.79888 38.3376 7.75751 38.1726C7.71615 38.0075 7.67479 37.8424 7.63342 37.6773C7.55069 37.182 7.63342 37.0995 8.08843 37.0582C8.29525 37.017 8.41934 37.0995 8.50207 37.3059C8.62616 37.5947 8.70889 37.8837 8.87435 38.1726C8.91571 38.2551 9.0398 38.3376 9.08117 38.3376C9.1639 38.2964 9.28799 38.1726 9.28799 38.09C9.20526 37.7186 9.28799 37.3884 9.49481 37.0582C9.57754 36.9757 9.53617 36.7693 9.6189 36.7281C9.78436 36.6455 9.99118 36.563 10.1566 36.6042C10.2807 36.6455 10.3635 36.8519 10.4462 36.9757C10.5289 37.0995 10.653 37.2646 10.7771 37.3059C10.9839 37.3471 11.0253 37.1408 11.0666 36.9757C11.108 36.8106 11.2321 36.6868 11.2735 36.5217C11.3148 36.3153 11.4389 36.2328 11.6044 36.1915C12.3489 36.0264 13.0521 35.8201 13.7967 35.655C13.5899 35.4486 13.4244 35.2423 13.2176 35.0359C13.0935 34.9121 12.9694 34.747 12.7626 34.6645C12.5971 34.7883 12.4317 34.9947 12.2248 35.0772C11.9767 35.201 11.8526 34.9947 11.8112 34.7883C11.8526 34.582 11.7698 34.2931 11.9767 34.2518C11.8526 34.0867 11.7285 33.9216 11.6044 33.7565C11.5217 33.674 11.6871 33.3851 11.8112 33.22C11.8939 33.1375 12.1008 33.0137 12.1421 33.0549C12.5144 33.2613 13.0935 33.1787 13.2589 33.6327C13.4658 33.9216 13.714 34.128 13.5485 34.4581C13.5071 34.5407 13.6312 34.747 13.714 34.8709C13.838 35.0772 14.0449 35.2836 14.169 35.4899C14.169 35.5312 14.2103 35.5725 14.2103 35.6137H14.2517C14.5412 35.5312 14.6653 35.655 14.7067 35.9026C14.7481 36.0264 14.7481 36.109 14.7894 36.2328C14.8722 36.2741 14.9549 36.3566 15.079 36.5217C15.2031 36.6868 15.4513 36.8519 15.1617 37.0995C15.079 37.182 14.9962 37.2233 14.8722 37.2646C14.7894 37.3059 14.5826 37.4297 14.2517 37.5535ZM9.45344 53.6493C9.1639 53.6493 9.08117 53.5667 8.95708 53.0715C8.95708 53.0302 8.91571 52.9889 8.91571 52.9476C8.91571 52.7413 8.87435 52.4524 8.99844 52.3286C9.20526 52.1222 9.32935 52.4524 9.49481 52.4937C9.82572 52.5349 9.99118 52.6587 9.99118 53.0302C9.99118 53.4842 9.90845 53.608 9.45344 53.6493ZM10.7357 46.0966C10.7771 45.9728 10.8185 45.8077 10.9012 45.8077C10.9839 45.7664 11.108 45.8903 11.1907 45.9728C11.2321 46.0141 11.2735 46.1379 11.2735 46.2204C11.3148 46.4268 11.3976 46.6744 11.108 46.757C10.8185 46.8395 10.7771 46.5919 10.7357 46.4268C10.7771 46.303 10.7357 46.1792 10.7357 46.0966ZM11.0666 48.2427C11.4389 48.1189 11.6457 48.1602 11.8112 48.4903C11.8939 48.6554 11.9353 48.8205 11.9353 48.9856C11.9353 49.1507 11.8939 49.357 11.7698 49.4396C11.6044 49.5634 11.3562 49.5634 11.1907 49.357C11.0666 49.192 10.9426 49.0269 10.8598 48.9443C10.9012 48.6554 10.7357 48.4078 11.0666 48.2427ZM10.9426 52.7826C10.8185 52.3698 10.9012 52.2873 11.2735 52.1635C11.6457 52.0809 11.6871 52.1222 11.8112 52.5762C11.8939 52.9889 11.8526 53.0714 11.4389 53.1953C11.108 53.2365 11.0666 53.1953 10.9426 52.7826ZM12.018 55.2588C12.018 55.3414 11.9353 55.5065 11.8526 55.5477C11.7698 55.589 11.6457 55.4652 11.4803 55.3826C11.6044 55.2176 11.6871 55.0937 11.7285 55.0937C11.8526 55.0525 12.018 55.1763 12.018 55.2588ZM13.6726 56.4557C13.6312 56.6208 13.4658 56.7446 13.4658 56.9922C13.4658 57.2398 13.1762 57.3224 13.0521 57.0748C12.8867 56.7446 12.6385 56.7859 12.3903 56.8684C12.3076 56.8684 12.2248 56.9097 12.1835 56.9097C11.6044 57.0335 11.563 56.9922 11.4389 56.5795C11.3562 56.2493 11.5217 56.043 12.018 55.9192C12.2662 56.0017 12.6799 55.7128 12.928 56.1255C12.928 56.1668 13.1762 56.0842 13.1762 56.043C13.2176 55.8779 13.3417 55.6303 13.4658 55.7541C13.6312 55.9192 13.714 56.2493 13.6726 56.4557ZM12.8453 53.9794C12.8039 53.9381 12.928 53.8556 12.9694 53.6905C13.0935 53.8143 13.1762 53.8556 13.2176 53.9381C13.2176 53.9794 13.0935 54.1445 13.0521 54.1445C13.0108 54.1445 12.8867 54.062 12.8453 53.9794ZM14.4171 52.4111C14.0449 52.5349 13.6726 52.6175 13.3003 52.7413C13.0108 52.8238 12.8453 52.7 12.8039 52.4111C12.7626 52.1635 12.6385 51.9159 13.0108 51.792C13.2176 51.7508 13.4244 51.6682 13.6312 51.627C13.8794 51.5444 14.0862 51.5031 14.0862 51.173C14.0862 50.8428 14.4585 50.8428 14.6653 50.8841C14.8308 50.8841 14.9549 51.1317 14.9962 51.173C15.1203 51.7508 14.8308 52.2873 14.4171 52.4111ZM14.169 47.4998C14.5412 47.376 14.5412 47.7062 14.624 47.9126C14.7481 48.3253 14.6653 48.4491 14.3344 48.5316C14.0862 48.5729 13.8794 48.6142 13.7967 48.284C13.714 47.83 13.838 47.5824 14.169 47.4998ZM13.7967 45.849C13.7967 45.8077 13.838 45.7252 13.8794 45.6839L14.0035 45.7252C14.0035 45.7664 14.0035 45.849 14.0035 45.9728C13.9208 45.9315 13.838 45.8903 13.7967 45.849ZM14.9549 43.2076C14.9549 43.2902 14.7894 43.3314 14.6653 43.3727C14.4171 43.4965 14.0862 43.4965 14.0449 43.868C14.0449 43.9092 13.9208 43.9505 13.8794 43.9505C13.5899 43.7854 13.2589 43.6203 12.9694 43.4553C12.7626 43.3314 12.3489 43.4553 12.1421 43.6616C11.9767 43.8267 11.8112 43.9918 11.6457 44.0743C11.563 44.1156 11.3562 44.1156 11.3148 44.0743C11.1494 43.7442 10.9012 43.8267 10.6116 43.7854C10.2807 43.7854 10.0325 43.4553 10.1153 43.1251C10.1153 43.0426 10.2394 42.96 10.2807 42.96C10.7771 42.7949 11.3148 42.6711 11.8526 42.5473C12.0594 42.506 12.3076 42.4235 12.473 42.6298C12.5144 42.7124 12.6799 42.7124 12.8039 42.7124C13.0935 42.6711 13.383 42.6711 13.6726 42.5886C13.9621 42.506 14.2931 42.4648 14.3344 42.052C14.3344 41.8457 14.5826 41.8044 14.7067 42.0108C14.8722 42.2997 15.1203 42.1759 15.3272 42.1759C15.6167 42.1759 15.7822 42.0933 15.7408 41.7631C15.7408 41.7219 15.8235 41.6393 15.8649 41.5981C15.989 41.5155 16.7749 41.9695 16.7749 42.1346C16.7335 42.2584 16.6508 42.3822 16.5681 42.4235C16.3613 42.506 16.1131 42.5886 15.8649 42.6298C15.4513 42.7537 14.9962 42.6711 14.9549 43.2076ZM17.6436 45.0236C17.5195 45.0648 17.3954 45.1061 17.2713 45.1474C17.1472 45.1887 17.0645 45.1887 16.9404 45.1887C16.8576 45.1887 16.7335 45.1474 16.6508 45.1061C16.6922 45.0236 16.7335 44.941 16.7749 44.8585C16.8576 44.6521 16.9404 44.487 17.0645 44.2807C17.2299 44.4045 17.3954 44.5283 17.6022 44.6521C17.6436 44.6521 17.6849 44.6521 17.7263 44.6934C17.809 44.7347 17.8504 44.8172 17.9331 44.8585C17.809 44.8998 17.7263 44.9823 17.6436 45.0236ZM18.0572 47.3348C18.0572 47.5411 17.9745 47.7062 17.9331 47.9126C17.809 47.7887 17.6436 47.6237 17.4367 47.4586C17.5608 47.2935 17.6436 47.1284 17.7263 47.0871C17.9745 46.9633 18.0572 47.1697 18.0572 47.3348ZM15.7822 51.5444C16.0303 51.2555 16.3613 51.0079 16.444 50.6365C16.444 50.5952 16.5681 50.5126 16.6094 50.5126C16.8576 50.5952 17.0645 50.6365 17.2713 50.7603C17.3954 50.8428 17.4367 51.0079 17.4367 51.0492C17.5608 51.5857 17.5195 51.627 17.1058 51.7508C16.9404 51.792 16.8163 51.8333 16.6508 51.8746C16.4026 51.9159 16.1544 52.0397 16.1544 52.3286C16.1544 52.3698 16.0303 52.4524 15.989 52.4524C15.7822 52.3698 15.6581 51.7095 15.7822 51.5444ZM18.1813 55.4239C17.9745 55.5065 17.7676 55.6715 17.6022 55.3826C17.4781 55.1763 17.3126 55.2176 17.1472 55.2588C16.899 55.3001 16.6508 55.3826 16.4026 55.4239C16.3199 55.4239 16.1544 55.4239 16.1131 55.3414C15.8649 54.9699 16.3199 54.8461 16.444 54.5572C16.5267 54.3509 16.7749 54.3096 16.899 54.5159C17.1472 54.8461 17.354 54.6398 17.6022 54.5572C17.8917 54.4334 17.8504 54.1858 17.7676 53.9794C17.6849 53.6905 17.6849 53.3191 17.2299 53.2365C17.1472 53.2365 17.0645 53.0302 17.0645 52.9064C17.0645 52.8238 17.1885 52.7413 17.2713 52.7C17.6849 52.5349 17.8504 52.6175 18.0158 53.0302C18.0572 53.1953 18.0986 53.3603 18.1399 53.5254C18.1813 53.6905 18.2227 53.8556 18.2227 54.0207C18.3054 54.3096 18.3881 54.6398 18.4708 54.9287C18.5122 55.2176 18.4295 55.3414 18.1813 55.4239ZM20.2495 43.2902C20.0427 43.0838 19.9599 42.6711 19.4636 42.8775C19.2981 42.96 19.174 42.7124 19.2981 42.506C19.5463 42.0933 19.8359 42.052 20.1668 42.4235C20.4149 42.7124 20.6631 42.96 21.1181 42.96C21.2422 42.96 21.325 43.0425 21.325 43.1664C21.4077 43.2076 21.5318 43.2489 21.6145 43.3315C21.6559 43.3315 21.6145 43.5791 21.5318 43.6616C21.4491 43.7442 21.2836 43.7854 21.1595 43.8267C21.0354 43.8267 20.87 43.868 20.7045 43.8267C20.3736 43.8267 20.084 43.9918 19.9186 44.2394C19.629 44.7347 19.1327 44.7347 18.6777 44.7759C18.3467 44.7759 18.3881 44.487 18.3054 44.2807C18.2226 44.0331 18.3467 43.9092 18.5536 43.868C18.8431 43.7854 19.0913 43.7442 19.1327 43.3315C19.174 43.0838 19.8359 43.0013 20.0427 43.1664C20.2495 43.3314 20.3322 43.414 20.3736 43.414C20.3322 43.414 20.2909 43.3727 20.2495 43.2902ZM19.9599 40.7726C19.9599 40.6901 20.1254 40.6075 20.1668 40.6075C20.4149 40.7314 20.6218 40.8964 20.87 41.0203C20.87 41.0203 20.9113 41.1028 20.87 41.1441C20.6631 41.2679 20.4977 41.3917 20.2909 41.4742C20.2081 41.5155 20.084 41.3092 20.0013 41.2679C19.9599 41.0203 19.9599 40.8964 19.9599 40.7726ZM22.3177 52.6175C22.3591 52.6175 22.3177 52.8238 22.2763 52.8651C22.1936 52.9064 22.0695 52.9064 21.9041 52.9064C21.9454 52.8238 21.9454 52.7413 21.9454 52.6587C21.6972 52.4937 21.3663 52.4111 21.2422 52.0809C21.1595 51.792 21.1595 51.6682 21.6145 51.5444C21.6972 51.5857 21.9454 51.627 22.0695 51.7508C22.3177 51.9984 22.4004 52.2873 22.3177 52.6175ZM21.5318 47.5411C21.2422 47.4998 20.9527 47.4998 20.7045 47.4586C20.6631 47.4586 20.6218 47.2522 20.6631 47.1697C20.7045 47.0871 20.7872 47.0046 20.9527 46.8395C21.0354 46.8395 21.2422 46.757 21.2836 46.8395C21.4491 47.0459 21.4904 47.2522 21.6145 47.4998C21.6145 47.4998 21.5731 47.5411 21.5318 47.5411ZM18.6777 41.887C18.5536 41.887 18.4295 41.8044 18.3054 41.7631C18.3881 41.6393 18.5122 41.5155 18.6363 41.3092C18.8017 41.433 19.0086 41.4742 19.0086 41.5981C19.0499 41.8457 18.8431 41.887 18.6777 41.887ZM18.3054 43.5378C18.3054 43.5791 18.3054 43.6616 18.3054 43.7442C18.264 43.7442 18.1813 43.7442 18.1399 43.7442C18.0986 43.7029 18.0986 43.6203 18.0986 43.5378C18.2226 43.4965 18.3054 43.4965 18.3054 43.5378ZM19.174 54.6398C19.0913 54.5985 19.0499 54.5572 18.9258 54.5159C19.0086 54.4334 19.0086 54.3509 19.0499 54.3096C19.1327 54.3509 19.2154 54.3921 19.2568 54.4747C19.2568 54.5159 19.2154 54.5985 19.174 54.6398ZM20.1254 50.9666C19.7531 51.0492 19.4222 51.173 19.0913 51.2555C18.5949 51.3793 18.5122 51.3381 18.4295 50.8428C18.3467 50.6365 18.3881 50.4301 18.6363 50.3063C18.7604 50.2237 19.2981 50.0587 19.4636 50.0999C19.5877 50.1412 19.7118 50.0999 19.7945 50.0999C20.2081 50.1412 20.3322 50.2237 20.3736 50.6365C20.3736 50.8428 20.2909 50.9254 20.1254 50.9666ZM21.1181 54.1858C21.0354 54.2683 20.9113 54.3921 20.87 54.4747C20.8286 54.6398 20.7872 54.8048 20.6218 54.7636C20.4977 54.7223 20.4563 54.5572 20.415 54.5159C20.2909 54.0207 20.6218 53.6905 21.0354 53.8143C21.2009 53.8556 21.2422 54.0207 21.1181 54.1858ZM21.5731 60.5415C21.4904 60.5828 21.3663 60.459 21.1595 60.4177C21.325 60.2526 21.4077 60.1288 21.5318 60.1288C21.6145 60.1288 21.7386 60.2526 21.8213 60.2939C21.7386 60.3764 21.6972 60.5003 21.5731 60.5415ZM22.7313 54.1858C22.3591 54.4334 22.4832 54.7223 22.4418 55.0525C22.4418 55.135 22.3591 55.2176 22.3177 55.3001C22.235 55.2588 22.1522 55.1763 22.1109 55.135C22.0282 54.9287 21.9454 54.7223 21.9041 54.5572C21.7386 54.1445 21.78 54.062 22.2763 53.9381C22.3177 53.9381 22.4418 53.8969 22.5659 53.8969C22.7313 53.8969 22.8554 54.1032 22.7313 54.1858ZM22.8554 45.9728C22.6486 46.1379 22.5245 45.9315 22.4004 45.8077C22.3591 45.7664 22.3177 45.6839 22.235 45.6014C21.9868 45.4363 21.8627 45.0648 21.4077 45.1474C21.1595 45.1887 20.9527 44.941 21.1181 44.7347C21.2836 44.487 20.7872 43.868 21.5318 43.9505C21.9041 43.9918 22.3177 43.9918 22.4832 44.487C22.5245 44.6109 22.6073 44.7347 22.5659 44.8172C22.3591 45.1474 22.6073 45.3125 22.7727 45.5188C22.8968 45.6839 23.0209 45.8077 22.8554 45.9728ZM22.4004 40.6901C22.4832 40.5663 22.5245 40.4837 22.5659 40.4837C22.6486 40.4837 22.7313 40.525 22.8141 40.5663C22.7727 40.6075 22.7727 40.7314 22.7313 40.7314C22.6073 40.7726 22.5245 40.7314 22.4004 40.6901ZM22.8968 41.0203C22.8554 40.9377 22.9382 40.7314 22.9382 40.525C23.1036 40.525 23.2277 40.525 23.3932 40.525C23.3932 40.4837 23.4345 40.4425 23.4759 40.4012C23.6827 40.2774 23.9309 40.1536 24.1377 40.071C24.1791 40.071 24.2205 40.0298 24.2205 40.0298C24.1377 40.0298 24.0964 40.0298 24.0136 39.9885C23.9723 39.9885 24.0136 39.8234 24.055 39.6996C24.1791 39.7409 24.3032 39.7409 24.3445 39.7821C24.3859 39.8234 24.3445 39.9059 24.3445 39.9472C24.4686 39.8647 24.5514 39.7821 24.5514 39.5758C24.5514 39.5345 24.5514 39.4932 24.5514 39.4932C23.9723 39.5345 23.4345 39.452 22.8968 39.2456C22.8968 39.2456 22.8968 39.2456 22.8554 39.2456C22.7727 39.2456 22.6073 39.2456 22.5245 39.2043C22.0282 38.9154 21.6972 38.998 21.4491 39.452C21.2836 39.6996 20.8286 39.8234 20.6218 39.617C20.4563 39.452 20.2909 39.452 20.1254 39.4932C19.8359 39.5758 19.5463 39.617 19.2568 39.6996C19.0499 39.7409 18.7604 39.7821 18.6777 39.9885C18.8431 40.0298 18.7604 40.8552 18.6363 40.9377C18.3054 41.1441 18.1813 40.7726 18.0158 40.6075C17.9331 40.5663 17.8917 40.4837 17.8917 40.4425C17.8504 40.4425 17.809 40.4837 17.7676 40.4837C17.1472 40.6488 16.4854 40.8139 15.8649 41.0203C15.5753 41.1028 15.4513 41.0203 15.3272 40.7726C15.0376 40.071 15.2031 39.7821 16.1131 39.5345C16.4026 39.4932 16.7749 39.3281 17.1472 39.5345C17.3954 39.6583 17.7263 39.5345 17.8917 39.2869C17.9745 39.2043 18.0572 39.0805 18.1813 39.0392C19.1327 38.7091 20.0427 38.2964 21.0768 38.2551C21.1181 38.2551 21.1595 38.2551 21.2422 38.2551C20.3322 37.3471 19.9186 36.1503 20.0013 34.9947H19.9599C19.8772 34.9534 19.8359 34.8296 19.7945 34.6645C19.7531 34.747 19.7118 34.8296 19.6704 34.8709C19.5463 34.9534 19.4222 34.9947 19.2568 35.0772C19.2568 34.9947 19.174 34.9121 19.2154 34.8709C19.2568 34.7883 19.3808 34.7058 19.4222 34.6232C19.5049 34.582 19.5877 34.4994 19.629 34.4994C19.6704 34.4994 19.7118 34.4994 19.7531 34.5407C19.7531 34.4994 19.7531 34.4581 19.7531 34.4169C19.7531 34.3343 19.9599 34.1692 20.084 34.128C20.1254 34.128 20.1254 34.128 20.1668 34.0867C20.3736 33.3851 20.7459 32.7248 21.2836 32.1882C22.9795 30.4961 25.7096 30.4961 27.4055 32.1882C29.0187 33.7978 29.1014 36.3979 27.6123 38.09C27.6123 38.09 27.6123 38.1313 27.571 38.1313C27.5296 38.1725 27.4882 38.2551 27.4055 38.2964C26.7437 38.9567 25.9164 39.3694 25.0891 39.4932C25.1718 39.5758 25.2546 39.6583 25.3373 39.6583C25.7096 39.6583 25.7096 39.9059 25.7509 40.1536H25.7923C25.9164 40.1948 26.0405 40.2361 26.1646 40.2361C26.1232 40.2774 26.1232 40.3599 26.0818 40.3599C25.8337 40.4837 25.7923 40.3186 25.7096 40.1536C25.3787 40.2361 25.0477 40.3186 24.7168 40.3599C24.3445 40.4012 24.055 40.525 23.8482 40.8552C23.7654 41.0203 23.6414 41.1028 23.4759 40.979C23.4345 40.9377 23.3932 40.8965 23.3932 40.8552C23.3518 40.8965 23.3518 40.9377 23.3104 40.979C23.2277 41.0615 23.0623 41.2266 22.8968 41.0203ZM19.7118 36.7693C19.629 36.8106 19.5049 36.7693 19.4222 36.7281C19.3808 36.7281 19.4222 36.5217 19.4636 36.4804C19.5463 36.4392 19.6704 36.4392 19.8359 36.4392C19.7945 36.6042 19.7945 36.7281 19.7118 36.7693ZM20.0427 37.4709C20.1668 37.4709 20.2495 37.3884 20.3322 37.4297C20.4563 37.4709 20.5804 37.5535 20.6218 37.636C20.6631 37.9249 20.4563 38.0075 20.2495 38.0487C20.0427 38.09 19.7945 38.2138 19.7118 37.9249C19.6704 37.8424 19.7531 37.6773 19.8359 37.5948C19.8359 37.5122 19.9599 37.5122 20.0427 37.4709ZM25.0891 28.3087C25.3373 28.3087 25.6268 28.1849 25.7096 28.3087C25.9578 28.5151 25.7096 28.6802 25.5441 28.8453C25.3787 29.0103 25.1305 29.2167 24.965 28.8865C24.8823 28.7627 25.0477 28.5151 25.0891 28.3087ZM29.391 33.3851C29.6805 33.1787 29.8046 33.1787 30.0528 33.5089C30.2183 33.674 30.2596 33.8803 30.0114 34.0867C29.7633 34.2931 29.6392 34.2931 29.391 34.0042C29.2255 33.7565 29.1428 33.5914 29.391 33.3851ZM29.2255 32.0644C29.2255 31.9406 29.2669 31.7755 29.3496 31.7342C29.5151 31.6517 29.6392 31.7755 29.6805 31.9406C29.6805 31.9819 29.7219 32.0644 29.7633 32.1882C29.7633 32.1882 29.8046 32.312 29.8046 32.3946C29.7633 32.4771 29.7219 32.6422 29.6392 32.6422C29.5564 32.6422 29.4323 32.5597 29.391 32.4771C29.2669 32.3533 29.2255 32.1882 29.2255 32.0644ZM30.1355 30.6612C30.0942 30.7437 29.846 30.7437 29.8046 30.7025C29.5564 30.4548 29.3082 30.1659 29.1428 29.877C29.1014 29.7945 29.1842 29.6707 29.1842 29.5469C29.3082 29.5881 29.4323 29.5469 29.4737 29.6294C29.6392 29.7532 29.7633 29.9183 29.8873 30.0421C29.9701 30.1247 30.0942 30.1659 30.1355 30.2898C30.1769 30.4136 30.2183 30.5786 30.1355 30.6612ZM29.3082 25.6261C29.2669 25.6261 29.1842 25.5848 29.1428 25.5436C29.0601 25.4198 28.9773 25.2959 28.9773 25.1721C28.9773 25.0896 29.0601 24.9658 29.1014 24.842C29.1842 24.9245 29.3082 24.9658 29.391 25.0483C29.4323 25.0483 29.4323 25.1309 29.4323 25.1721C29.4323 25.2547 29.4737 25.3372 29.4737 25.461C29.4323 25.5023 29.391 25.6261 29.3082 25.6261ZM29.4737 36.6455C29.7219 36.563 30.0114 36.5217 30.1355 36.3153C30.3424 36.0264 30.5078 35.8201 30.8387 36.1503C30.8801 36.1915 31.0869 36.109 31.1283 36.0264C31.2937 35.655 31.666 35.5725 31.9556 35.655C32.121 35.7375 32.2865 36.0677 32.3278 36.3153C32.3692 36.6868 32.1624 36.9344 31.7487 37.017C31.7074 37.017 31.666 37.017 31.7074 37.017C31.4178 37.0995 31.1696 37.2233 30.9628 36.9344C30.8801 36.9757 30.7974 36.9757 30.756 37.017C30.7974 36.9757 30.7974 36.8931 30.8387 36.8519C30.756 36.8519 30.6733 36.9344 30.5905 37.0582C30.3424 37.5535 30.0114 37.5947 29.5151 37.3059C29.391 37.2233 29.1842 37.2646 29.0187 37.2646C28.8532 37.2646 28.6051 37.3884 28.6051 37.0995C28.6051 37.017 28.8119 36.8519 28.936 36.8106C29.0601 36.7281 29.2669 36.7281 29.4737 36.6455ZM30.8801 34.9947C30.8801 34.8709 30.9214 34.747 30.9214 34.6232C31.0455 34.6645 31.1696 34.6645 31.2937 34.747C31.3765 34.7883 31.4178 34.8709 31.5419 34.9534C31.5419 35.0359 31.6246 35.1598 31.5833 35.2836C31.5833 35.3661 31.3765 35.4899 31.3351 35.4486C31.211 35.4074 31.0869 35.2836 31.0042 35.1598C30.9215 35.1598 30.8801 35.0772 30.8801 34.9947ZM33.486 51.8746C33.6515 51.7095 33.8583 51.627 34.0651 51.8333C34.2306 52.0397 34.5615 52.2048 34.3133 52.5762C34.1892 52.7826 34.1479 53.1127 34.0238 53.3191C33.7756 53.6905 33.6101 53.6905 33.3206 53.3603C33.1551 53.1953 33.031 53.0302 32.8656 52.8238C32.7415 52.6175 32.5347 52.3698 32.3692 52.0809C32.3278 51.9571 32.3278 51.8333 32.2865 51.7095C32.4106 51.7508 32.5347 51.7508 32.6587 51.792C32.7001 51.792 32.7415 51.8333 32.7415 51.8333C32.9897 52.1222 33.2378 52.1222 33.486 51.8746ZM33.031 51.2555C33.1551 51.0904 33.2378 50.9254 33.4033 50.7603C33.4447 50.719 33.6101 50.719 33.6929 50.7603C33.7342 50.7603 33.7756 50.9254 33.7342 51.0079C33.6929 51.0904 33.5688 51.173 33.486 51.2968C33.4033 51.3381 33.2792 51.3793 33.1965 51.4206C33.1138 51.3793 32.9897 51.2555 33.031 51.2555ZM34.4788 50.3888C34.5201 50.3888 34.6856 50.3888 34.7683 50.4714C34.8924 50.6364 34.7683 50.719 34.6442 50.8428C34.5615 50.9254 34.5615 51.0904 34.4788 51.173C34.396 51.2555 34.2719 51.3793 34.1892 51.3793C34.1065 51.3793 33.9824 51.2142 33.941 51.1317C33.8583 50.719 33.9824 50.5126 34.4788 50.3888ZM32.7828 51.2555C32.5347 51.3381 32.3278 51.4206 32.0796 51.5031C31.7074 51.5857 31.2937 51.5857 31.1696 52.0809C31.1283 52.2048 30.7146 52.2873 30.5078 52.2873C30.4251 52.2873 30.301 51.9984 30.2596 51.8333C30.1769 51.5857 30.3424 51.5031 30.5492 51.3793C30.6733 51.3381 30.756 51.2555 30.8801 51.2142C31.4178 51.0904 31.9556 51.0079 32.4519 50.9253C32.5347 50.9253 32.6587 50.8841 32.7415 50.8841C32.8242 50.8841 32.9069 50.9666 32.9069 51.0079C32.8656 51.0904 32.8242 51.2142 32.7828 51.2555ZM27.0332 51.0492C27.1159 51.3381 26.9919 51.7095 26.8264 51.6682C26.6609 51.627 26.5782 51.4619 26.4128 51.2968C26.4955 51.1317 26.5368 51.0079 26.6196 50.8841C26.5368 50.8015 26.4128 50.8428 26.2887 50.8015C26.1232 50.7603 25.9578 50.719 25.8337 50.6365C25.4614 50.3063 25.5027 50.1825 25.875 49.8523C26.0405 49.7285 26.1646 49.6872 26.4128 49.811C26.6609 49.9348 26.9919 49.7698 27.24 50.0999C27.4469 50.3888 27.3228 50.5539 27.1987 50.8015C27.1573 50.8841 27.0746 50.9254 27.0332 50.9666C27.0332 50.9666 27.0332 51.0079 27.0332 51.0492ZM25.0064 41.433C25.0477 41.3917 25.1305 41.3504 25.2546 41.3092C25.3787 41.2679 25.5027 41.2679 25.6268 41.2266C25.6268 41.3504 25.5855 41.433 25.5855 41.5568C25.5855 41.6806 25.5441 41.7631 25.5441 41.887C25.5441 42.0108 25.5441 42.1346 25.5027 42.2584C25.3787 42.2171 25.2546 42.1346 25.1718 42.0933C24.7996 41.8457 24.7582 41.6806 25.0064 41.433ZM24.8409 43.1251C24.8409 43.1664 24.7168 43.2076 24.6755 43.2489C24.3859 43.2902 23.8895 42.9187 23.8482 42.6298C23.8482 42.506 23.8068 42.3822 23.8068 42.2997C23.8068 42.0933 24.0136 41.9695 24.1377 42.1346C24.2618 42.3409 24.51 42.3409 24.6341 42.4235C24.7996 42.5886 24.7996 42.8775 24.8409 43.1251ZM25.5855 43.6616C25.6682 43.6203 25.8337 43.7029 25.875 43.7442C25.9164 43.868 25.9577 43.9092 25.9577 43.9092C25.9991 44.0743 26.0818 44.2807 26.1232 44.4458C26.0818 44.4458 25.9991 44.487 25.9577 44.487C25.7509 44.322 25.5855 44.1156 25.42 43.9092C25.42 43.868 25.5441 43.6616 25.5855 43.6616ZM26.4955 41.9282C26.5782 41.9695 26.6196 42.0933 26.6609 42.1759C26.4541 42.2997 26.2473 42.4235 26.0405 42.5473C25.9991 42.5473 25.7923 42.3409 25.7923 42.2997C25.875 42.1759 25.9991 42.052 26.0405 41.9695C26.33 41.9282 26.4128 41.887 26.4955 41.9282ZM26.1646 39.6583C26.1646 39.5345 26.3714 39.4107 26.4541 39.3281C26.7023 39.3281 26.8678 39.2869 26.9919 39.2869C27.4055 39.2869 27.4882 39.3694 27.571 39.7409C27.571 39.8647 27.5296 39.9885 27.4882 40.1123C27.4055 40.071 27.2814 40.071 27.1987 40.0298C26.9919 39.9885 26.8264 39.9059 26.6196 39.8647C26.4541 39.7821 26.1646 39.9472 26.1646 39.6583ZM27.4882 41.6806C27.571 41.6393 27.6123 41.5155 27.6123 41.433C27.6123 41.1028 27.8191 41.0615 28.1501 40.979C28.1914 41.0203 28.3982 41.0203 28.4396 41.1441C28.5637 41.3504 28.7291 41.5981 28.481 41.8044C28.4396 41.8457 28.3155 41.887 28.3155 41.9282C28.1501 42.4648 27.9432 42.3822 27.571 42.0933C27.3641 41.9695 27.24 41.9282 27.4882 41.6806ZM27.4882 45.3125C27.571 45.3125 27.6537 45.3125 27.695 45.3537C27.7364 45.4363 27.695 45.5188 27.695 45.6014C27.6123 45.6014 27.571 45.6014 27.4469 45.6014C27.4882 45.4776 27.4882 45.395 27.4882 45.3125ZM27.695 51.6682C27.7364 51.627 27.9019 51.6682 28.0673 51.6682C28.026 51.8333 28.026 51.9571 27.9432 51.9984C27.8605 52.0397 27.695 51.9984 27.6537 51.9571C27.6123 51.9159 27.6123 51.7095 27.695 51.6682ZM28.026 48.6142C28.1914 48.284 28.3982 47.9126 28.6051 47.5824C28.6878 47.4586 28.7705 47.376 28.8532 47.2935C28.936 47.376 29.0601 47.4998 29.1842 47.6237C29.1014 47.7887 29.0601 47.9538 28.9773 48.1189C28.936 48.2427 28.8532 48.3253 28.8119 48.4491C28.7291 48.6554 28.3155 48.8618 28.1087 48.738C28.026 48.7792 27.9846 48.6554 28.026 48.6142ZM29.1428 41.6806C29.1014 41.5155 29.0187 41.3092 29.2669 41.2679C29.391 41.2679 29.5151 41.433 29.7219 41.5568C29.5978 41.7631 29.5564 42.0108 29.4737 42.052C29.1842 42.1346 29.1842 41.8457 29.1428 41.6806ZM29.5151 39.0805C29.4737 39.0392 29.391 38.8742 29.4323 38.8329C29.5564 38.5853 29.7219 38.3376 29.9287 38.09C29.9287 38.0487 30.0942 38.0487 30.0942 38.09C30.2596 38.4202 30.5905 38.3789 30.8387 38.544C30.9628 38.6265 31.0042 38.9154 30.9628 39.0805C30.9214 39.2043 30.7146 39.2869 30.5492 39.4107C30.1355 39.2869 29.8046 39.2043 29.5151 39.0805ZM30.1355 48.3253C30.1769 48.2427 30.2183 48.1602 30.301 48.0776C30.3837 47.9951 30.5078 47.9126 30.6319 47.9126C30.6733 47.9126 30.7974 48.0364 30.7974 48.1189C30.7974 48.2427 30.7146 48.3665 30.6733 48.4078C30.5078 48.4903 30.4251 48.5316 30.3424 48.5729C30.2596 48.6142 30.1769 48.5729 30.0528 48.5729C30.1355 48.4903 30.1355 48.4078 30.1355 48.3253ZM31.7074 49.4809C31.8315 49.5221 31.9142 49.5634 31.9556 49.6047C31.9969 49.6459 31.9556 49.7285 31.9556 49.811C31.8728 49.811 31.7901 49.7698 31.7074 49.7285C31.666 49.7285 31.7074 49.6459 31.7074 49.4809ZM32.2037 47.7887C32.0796 47.7062 31.9969 47.5824 31.9142 47.4586C31.8315 47.376 31.7901 47.2935 31.7074 47.2109C31.7901 47.1284 31.8728 47.0871 32.0383 47.0046C32.1624 47.0459 32.3692 47.0459 32.4106 47.1284C32.5347 47.2935 32.6174 47.4998 32.6174 47.7062C32.6174 47.8713 32.3278 47.9538 32.2037 47.7887ZM32.1624 41.0203C32.0796 41.1028 32.0796 41.2679 31.9969 41.3092C31.8728 41.3917 31.7487 41.3917 31.6246 41.3917C31.5833 41.3917 31.5419 41.2679 31.4592 41.2266C31.3351 41.1441 31.211 41.0203 31.0869 40.9377C31.211 40.8552 31.3765 40.7314 31.5005 40.6488C31.5833 40.6076 31.7074 40.5663 31.9142 40.4837C31.9969 40.4837 32.2037 40.4837 32.2865 40.5663C32.4519 40.7726 32.3278 40.8964 32.1624 41.0203ZM31.4178 38.2964C31.5005 38.2138 31.6246 38.2138 31.7487 38.1313C31.8315 38.1313 31.9969 38.09 32.0796 38.1313C32.1624 38.1725 32.1624 38.3376 32.2037 38.4614C31.9556 38.4614 31.7074 38.5027 31.4592 38.5027C31.4178 38.4202 31.3765 38.2964 31.4178 38.2964ZM28.7705 27.2357C28.6878 27.277 28.6051 27.3182 28.5223 27.3595C28.4396 27.3595 28.3155 27.4008 28.2328 27.4008C28.1914 27.4008 28.1501 27.3182 28.0673 27.277C28.0673 27.3182 28.1087 27.3595 28.1087 27.4008C28.1914 27.6897 28.1914 28.0198 28.1914 28.3087C28.1914 28.35 28.0673 28.4325 28.026 28.3913C27.6537 28.35 27.4469 27.9373 27.571 27.5659C27.6123 27.4833 27.6537 27.4008 27.6123 27.3595C27.571 27.1531 26.785 26.5341 26.5368 26.5341C26.4128 26.5341 26.2887 26.4928 26.2059 26.4515C26.1646 26.4515 26.2059 26.2452 26.2473 26.2039C26.3714 26.1626 26.4955 26.1626 26.6196 26.1626C26.7023 26.1626 26.8264 26.2452 26.9091 26.2039C27.2814 25.9975 27.4055 26.3277 27.6123 26.5341C27.7778 26.7817 27.9432 27.0293 28.0673 27.277C28.1914 27.1944 28.3155 27.0706 28.4396 27.0293C28.5637 26.9881 28.6878 27.0706 28.8532 27.0706C28.8532 27.1119 28.8119 27.2357 28.7705 27.2357ZM26.3714 29.2992C26.4541 29.258 26.6196 29.2992 26.7437 29.3818C26.8678 29.4643 26.9091 29.5881 27.0332 29.6707C27.1159 29.7532 27.1573 29.8358 27.24 29.877C27.4055 30.0834 27.5296 30.2898 27.24 30.5374C26.9919 30.7437 26.785 30.8263 26.5368 30.5786C26.4541 30.4961 26.33 30.4136 26.2473 30.2898C25.7923 29.9183 25.875 29.5056 26.3714 29.2992ZM23.1864 49.7285C23.0623 49.4809 23.0209 49.2745 23.3518 49.1094C23.4345 49.0681 23.4759 48.9443 23.5173 48.8205C23.6827 48.4491 24.1377 48.4078 24.4273 48.6967C24.51 48.7792 24.5514 48.8205 24.6341 48.8618C24.7168 48.9443 24.8409 48.9856 24.9236 49.0269C24.8409 49.1094 24.7582 49.1507 24.6755 49.2332C24.51 49.3983 24.3445 49.5634 24.1377 49.7285C24.055 49.811 23.9309 49.8523 23.8068 49.9348C23.5173 50.0587 23.3104 49.9761 23.1864 49.7285ZM24.5514 59.7574C24.4273 59.8399 24.3032 59.8812 24.0964 59.9637C24.0136 59.9637 23.7654 59.9637 23.6827 59.8812C23.5586 59.6748 23.5586 59.4685 23.5586 59.2209C23.5586 59.1796 23.7241 59.0558 23.7654 59.0558C24.055 59.1796 24.3445 59.3447 24.6341 59.5098C24.6341 59.551 24.5927 59.7161 24.5514 59.7574ZM24.6755 53.6905C24.5514 53.6492 24.4686 53.4842 24.3859 53.4429C24.2205 53.4016 24.0136 53.4016 24.055 53.154C24.0964 53.0302 24.2618 52.9889 24.3859 52.8651C24.5514 52.9064 24.7996 52.9064 24.8409 52.9889C24.965 53.154 24.965 53.3603 24.965 53.5667C25.0064 53.608 24.7996 53.6905 24.6755 53.6905ZM25.0891 52.1222C25.0064 52.1222 24.9236 52.0809 24.7582 52.0397C24.8409 51.9159 24.8823 51.792 24.9236 51.792C25.0064 51.792 25.1305 51.8746 25.1718 51.9159C25.1718 51.9159 25.1305 52.1222 25.0891 52.1222ZM24.965 48.9031C24.7168 48.6142 24.4686 48.284 24.1791 47.9951C23.9309 47.7062 23.6827 47.4173 23.4345 47.1284C23.3104 46.9633 23.2277 46.8395 23.4345 46.6744C23.6 46.5506 23.7241 46.6744 23.8068 46.7982C24.3032 47.376 24.7996 47.9538 25.2959 48.4903C25.4614 48.6554 25.5441 48.8205 25.3373 48.9856C25.2546 49.1507 25.0891 49.0269 24.965 48.9031ZM25.4614 54.4747C25.4614 54.3921 25.5027 54.3096 25.5027 54.227C25.5441 54.2683 25.6682 54.2683 25.6682 54.3096C25.7096 54.3921 25.6682 54.4747 25.6682 54.6398C25.5855 54.5572 25.4614 54.5572 25.4614 54.4747ZM25.8337 59.551C25.7096 59.4272 25.5855 59.3859 25.5855 59.3034C25.5855 59.2209 25.6682 59.1383 25.7509 59.097C25.7923 59.097 25.9164 59.1796 25.9577 59.2209C25.9991 59.3034 25.9164 59.3859 25.8337 59.551ZM26.2059 53.6905C26.0818 53.4842 26.0405 53.2778 26.1232 53.154C26.1232 53.0714 26.1232 52.9889 26.0818 52.9064C26.2059 52.9064 26.33 52.9064 26.3714 52.9476C26.3714 52.9476 26.4128 52.9476 26.4128 52.9064C26.5782 52.8238 26.7437 52.7826 26.8264 52.5349C26.8264 52.4524 26.9919 52.3286 27.1159 52.2873C27.3228 52.2048 27.5296 52.1635 27.7364 52.1222C27.9019 52.0809 28.0673 52.0397 28.2328 51.9984C28.6464 51.9159 28.6878 51.9984 28.7705 52.3698C28.7705 52.4111 28.7705 52.4111 28.7705 52.4524C28.8532 52.4524 28.936 52.4111 28.9773 52.3698C29.1842 52.246 29.391 52.1222 29.5978 51.9984C29.8873 51.8746 30.2183 52.0397 30.2596 52.3698C30.2596 52.4111 30.1355 52.5349 30.0528 52.5349C29.5564 52.5349 29.6392 52.5349 29.5151 52.9889C29.4323 53.4016 29.5151 53.6492 29.8046 53.8969C30.0114 54.1032 30.2183 54.3509 30.0942 54.7223C30.0528 54.8048 30.1355 54.9287 30.1355 55.0525C30.2596 55.0525 30.3424 55.0525 30.4664 55.0112C31.0455 54.8048 31.1283 54.8048 31.4178 55.135C31.7901 55.5477 31.5833 56.2493 31.0455 56.4557C30.7974 56.5382 30.6733 56.4557 30.5492 56.2906C30.2596 55.9604 29.9701 55.6303 29.7219 55.3001C29.5151 55.0525 29.3082 54.8048 29.1014 54.5572C28.8946 54.3096 28.5637 54.1032 28.8119 53.6905C28.8532 53.6492 28.7291 53.4842 28.6878 53.4016C28.5637 53.2365 28.4396 53.1127 28.3569 52.9064V52.8651C27.9432 52.9476 27.5296 53.0714 27.1573 53.1953C26.9091 53.2778 26.5782 53.2778 26.6196 53.6905C26.6196 53.7318 26.4955 53.8143 26.4128 53.8556C26.33 53.8143 26.2473 53.7318 26.2059 53.6905ZM31.1696 61.9035C31.1283 61.986 31.0869 62.0686 31.0042 62.0686C30.9628 62.0686 30.8801 62.0273 30.756 61.986C30.8801 61.9035 30.9215 61.8209 31.0042 61.7797C31.0455 61.8209 31.1283 61.9035 31.1696 61.9035ZM30.1355 57.7351C30.1355 57.7764 30.0528 57.9415 30.0114 57.9415C29.9287 57.9415 29.846 57.8589 29.7219 57.8176C29.8046 57.6938 29.8873 57.57 29.9287 57.6113C29.9701 57.57 30.0942 57.6526 30.1355 57.7351ZM29.5978 59.7574C29.5978 59.7987 29.5564 59.9225 29.5151 59.9225C29.4737 59.9637 29.391 59.8812 29.3082 59.8399C29.391 59.7574 29.4323 59.6748 29.4737 59.6336C29.4737 59.6748 29.5978 59.7161 29.5978 59.7574ZM28.2328 59.551C28.2328 59.5923 28.2328 59.5923 28.2328 59.551C28.2741 59.5098 28.3569 59.4685 28.3569 59.4685C28.4396 59.4685 28.5637 59.5098 28.6464 59.5923C28.6464 59.5923 28.6464 59.6748 28.6464 59.7574C28.5637 59.7161 28.4396 59.7161 28.3569 59.6748C28.3155 59.6748 28.2741 59.6336 28.2328 59.551C28.2328 59.5923 28.2328 59.5923 28.2328 59.551C28.2328 59.5923 28.2328 59.5923 28.2328 59.551C28.026 59.6748 27.8605 59.7161 27.7778 59.6748C27.7778 59.6748 27.7778 59.7161 27.7364 59.7161C27.8191 59.7574 27.9019 59.8399 27.9846 59.8812C28.2328 60.005 28.4396 60.3352 28.3569 60.6241C28.3155 60.7892 28.1087 60.913 27.9432 61.0368C27.6123 61.0781 27.4469 60.9955 27.3228 60.7479C27.1987 60.5415 27.0332 60.5828 26.9505 60.7892C26.8678 60.913 26.9505 61.1606 26.7023 61.0781C26.5368 61.0368 26.33 60.5003 26.4541 60.3765C26.785 60.0876 26.6609 59.7987 26.5782 59.4685C26.5368 59.1796 26.3714 58.8907 26.785 58.6843C26.9505 58.6018 26.9505 58.3129 27.1159 58.2303C27.1987 58.1891 27.3228 58.3542 27.4469 58.4367C27.4469 58.3954 27.5296 58.3542 27.571 58.3542C27.695 58.3542 27.8191 58.3954 27.9019 58.478C28.2741 58.478 28.6878 58.4367 28.8532 57.9002C28.8532 57.8589 29.0601 57.8176 29.0601 57.8589C29.3082 58.1891 29.4323 58.5605 29.3496 58.932C29.3082 59.1383 29.1428 59.1796 28.9773 59.0145C28.6464 58.7256 28.6878 58.7669 28.4396 59.0558C28.3569 59.1796 28.2328 59.2209 28.0673 59.3034C28.1501 59.4272 28.1914 59.5098 28.2328 59.551C28.2328 59.5923 28.2328 59.551 28.2328 59.551ZM30.301 62.6051C30.301 62.894 29.9701 62.9765 29.7633 62.9353C29.4737 62.894 29.1842 62.7702 28.936 62.6051C28.8532 62.5638 28.8532 62.3987 28.7705 62.1924C28.8119 62.1098 28.7705 61.8209 28.8946 61.7797C29.1428 61.6559 29.4323 61.4908 29.6805 61.7797C29.7633 61.8622 29.846 61.9448 29.9701 61.9448C30.3424 62.0273 30.301 62.3575 30.301 62.6051ZM30.0528 61.6559C30.0528 61.5733 30.0114 61.4908 30.0114 61.4082C30.0528 61.3257 30.1355 61.2844 30.1769 61.2019C30.2596 61.1606 30.3424 61.0781 30.4251 61.0368C30.5078 61.0368 30.5905 61.0781 30.6733 61.0781C30.6319 61.2019 30.5905 61.367 30.5078 61.4495C30.4251 61.5733 30.2183 61.6146 30.0528 61.6559ZM31.1696 62.9353C31.0042 63.0178 30.8387 63.0178 30.6319 63.0591C30.7146 62.894 30.756 62.6876 30.8387 62.5638C30.8801 62.4813 31.0869 62.5226 31.3765 62.4813C31.2937 62.7289 31.2524 62.894 31.1696 62.9353ZM33.031 61.4495C32.9069 61.5733 32.7415 61.6559 32.6174 61.6146C32.576 61.6559 32.576 61.6971 32.5347 61.7384C32.4933 61.7797 32.4106 61.6971 32.3692 61.6559C32.3692 61.6146 32.4106 61.5733 32.4519 61.4908C32.3692 61.4082 32.2865 61.3257 32.1624 61.2431C32.0383 60.9955 31.7487 60.7479 31.9556 60.3765C31.9556 60.3352 31.9969 60.2939 31.9969 60.2526C31.9969 60.0876 31.9969 59.9637 31.9969 59.7987C32.1624 59.8812 32.3278 59.9637 32.4519 60.0876C32.7001 60.3352 32.9069 60.6241 33.1551 60.8717C33.3206 61.1193 33.2378 61.2844 33.031 61.4495ZM35.4715 57.0748C35.3061 57.116 35.2233 57.1986 35.1406 57.4049C35.0165 57.6938 34.8097 57.9415 34.6029 58.1478C34.5615 58.1891 34.396 58.1478 34.3547 58.1065C34.2719 58.024 34.2306 57.9002 34.1892 57.8176C34.1065 57.6938 33.9824 57.4875 33.8583 57.4875C33.6101 57.4875 33.3619 57.4875 33.2378 57.8176C33.1965 57.9414 33.0724 58.024 33.031 58.1065C32.9897 58.0653 32.9897 58.0653 32.9483 58.024C32.9069 58.1065 32.8242 58.1891 32.7415 58.2303C32.6587 58.3129 32.4519 58.2716 32.3278 58.2303C32.2037 58.1891 32.1624 58.0653 31.9969 57.9002C31.9556 57.9827 31.8728 58.0653 31.8728 58.1478C31.8315 58.3542 31.7487 58.5192 31.5419 58.478C31.4178 58.4367 31.2937 58.2716 31.2937 58.2303C31.1696 57.8589 31.1283 57.6526 31.4592 57.5287C31.5005 57.5287 31.5419 57.4462 31.5833 57.4049C31.666 57.3224 31.5833 57.0335 31.7901 57.0335C31.8315 56.9097 31.8315 56.7446 31.7487 56.6208C31.8728 56.5795 31.9969 56.497 32.0796 56.5382C32.2865 56.662 32.4519 56.7859 32.576 56.9509C32.6174 56.8684 32.6174 56.8271 32.7001 56.7446C32.7415 56.7033 32.9069 56.7859 32.9483 56.8271C33.1138 57.0748 33.3206 56.9922 33.5274 56.9509C33.9824 56.8271 34.4788 56.7033 34.9338 56.6208C35.182 56.5795 35.3888 56.497 35.3888 56.2081C35.3888 56.1255 35.5129 56.043 35.5542 56.043C35.637 56.043 35.7197 56.1255 35.7611 56.1668C36.092 56.7033 35.9679 56.9097 35.4715 57.0748ZM36.2574 54.8048C36.1747 54.8461 36.0506 54.8874 36.0092 54.8461C35.5542 54.6398 35.1406 54.5572 34.6442 54.7636C34.4788 54.8461 34.1065 54.227 34.2306 54.062C34.2719 54.0207 34.396 53.9794 34.4374 54.0207C34.851 54.2683 35.0165 53.8969 35.2233 53.6905C35.2647 53.6492 35.182 53.4842 35.0992 53.4016C35.0579 53.3603 34.9338 53.4429 34.8924 53.4016C34.8097 53.3191 34.727 53.1953 34.6856 53.1127C34.7683 53.0714 34.8924 52.9889 34.9751 52.9889C35.6783 53.0714 35.6783 53.0715 36.2574 53.6905C36.2988 53.7318 36.4229 53.8556 36.5056 53.9794C36.6711 54.2683 36.6297 54.5572 36.2574 54.8048ZM35.9265 49.8936C36.1747 49.8523 36.2988 49.9761 36.3815 50.3476C36.4643 50.7603 36.4229 50.8841 36.092 50.9666C35.6783 51.0492 35.4715 50.9253 35.3474 50.4714C35.3061 50.2237 35.5956 49.9761 35.9265 49.8936ZM37.6638 58.1065C37.5397 58.1478 37.3329 58.1065 37.2915 58.024C37.2088 57.8589 37.1674 57.6526 37.1261 57.4462C37.3329 57.5287 37.4984 57.57 37.7879 57.6938C37.7465 57.8589 37.7465 58.0653 37.6638 58.1065ZM37.4984 56.043C37.5397 56.0842 37.4984 56.2493 37.457 56.2906C37.3743 56.3319 37.2088 56.3319 37.1674 56.2493C37.1261 56.2081 37.1674 56.043 37.1674 55.8779C37.3329 55.9604 37.457 55.9604 37.4984 56.043ZM37.3743 49.6872C37.4156 49.6459 37.5811 49.6872 37.6224 49.7698C37.7052 49.8523 37.7052 49.9761 37.7465 50.0999C37.7465 50.1825 37.7465 50.3063 37.7052 50.4301C37.7052 50.4714 37.5397 50.5126 37.5397 50.5126C37.457 50.3475 37.3329 50.1825 37.2915 49.9761C37.2502 49.8936 37.2915 49.7698 37.3743 49.6872ZM38.822 57.116C38.7393 57.116 38.6152 57.116 38.5325 57.0335C38.4911 56.9922 38.5325 56.8684 38.5738 56.7446C38.6979 56.8271 38.822 56.8271 38.9047 56.9097C38.9047 56.9509 38.822 57.116 38.822 57.116ZM39.3184 52.4937C38.9047 52.7 38.4497 52.7826 38.0361 52.8651C37.9947 52.8651 37.8706 52.5349 37.8706 52.3698C37.8706 52.246 37.9947 52.0809 38.0775 52.0397C38.2429 51.9571 38.4497 51.9159 38.6152 51.8746V51.8333C38.8634 51.792 39.1116 51.7508 39.3597 51.7095C39.4011 51.7095 39.5252 51.8333 39.5252 51.8746C39.4838 52.0809 39.4838 52.4111 39.3184 52.4937ZM38.9047 37.6773C39.1943 37.4297 39.277 37.4297 39.5252 37.6773C39.8147 38.0075 39.8147 38.09 39.5252 38.3376C39.1943 38.6265 39.1116 38.6265 38.8634 38.3376C38.6152 38.0075 38.6152 37.9249 38.9047 37.6773ZM39.4425 36.109C39.6907 36.0677 39.7734 36.1915 39.8147 36.3979C39.8975 36.8106 39.8561 36.9344 39.4838 37.0582C39.1529 37.1408 39.0288 37.0995 38.9461 36.7281C38.8634 36.4392 39.0702 36.1503 39.4425 36.109ZM40.0216 42.1759C40.0629 42.2584 40.0216 42.3822 40.0216 42.4648C39.8975 42.4648 39.7734 42.506 39.732 42.4235C39.6907 42.3822 39.6907 42.2171 39.6493 42.052C39.8561 42.0933 39.9802 42.0933 40.0216 42.1759ZM38.9047 40.6075C38.9875 40.7314 39.1116 40.8552 39.1529 40.9377C39.1943 41.0615 39.1943 41.2266 39.1116 41.3092C39.0702 41.3917 38.8634 41.3917 38.7393 41.3504C38.5325 41.3092 38.2015 40.8139 38.2015 40.5663C38.2015 40.4425 38.2015 40.3186 38.2015 40.1948C38.3256 40.2361 38.4497 40.2774 38.5738 40.3599C38.7393 40.4425 38.8634 40.5663 38.9047 40.6075ZM39.1529 44.0743C39.2356 44.0743 39.277 44.1569 39.3597 44.1569C39.5252 44.1981 39.8147 43.9918 39.8561 44.2807C39.8975 44.487 39.6907 44.7347 39.6079 44.9823C39.3597 45.0648 39.1529 45.1474 38.9461 45.1887C38.7393 45.1887 38.4911 44.8172 38.5325 44.6521C38.5738 44.2807 38.9047 43.9918 39.1529 44.0743ZM39.0288 49.6459C38.9461 49.6459 38.9047 49.6459 38.822 49.6459C38.7806 49.6459 38.822 49.5634 38.822 49.4396C38.9047 49.4809 38.9875 49.4809 39.0288 49.5221C39.0288 49.5221 39.0288 49.6047 39.0288 49.6459ZM39.8561 49.4809C39.7734 49.5221 39.6907 49.4396 39.5252 49.3983C39.6079 49.2745 39.6907 49.1507 39.732 49.1094C39.8147 49.1094 39.8975 49.192 39.9802 49.2332C39.9802 49.3158 39.9388 49.4396 39.8561 49.4809ZM39.9802 48.0776C40.0216 47.9951 40.0216 47.9126 40.0629 47.83C40.1043 47.7887 40.187 47.83 40.3111 47.83C40.2698 47.9538 40.2284 48.0364 40.187 48.0776C40.1457 48.0776 40.0629 48.0776 39.9802 48.0776ZM42.0898 43.9505C42.007 44.2394 42.1725 44.4458 42.2966 44.6521C42.338 44.7759 42.2966 44.941 42.2966 45.0648C42.1725 45.0648 41.9657 45.0648 41.883 44.9823C41.6348 44.7759 41.428 44.487 41.1384 44.1981C41.0143 44.0331 40.8489 43.868 40.6834 43.6616C40.5593 43.4965 40.4766 43.3727 40.642 43.2076C40.8075 43.0425 40.9729 43.1251 41.097 43.2489C41.3039 43.4553 41.4693 43.6616 41.8002 43.6203C41.9243 43.6203 42.0898 43.868 42.0898 43.9505ZM41.8416 41.8044C41.8416 41.7219 41.883 41.6393 41.9243 41.5568C42.0898 41.6393 42.2552 41.6806 42.3793 41.8044C42.5034 41.9282 42.6689 42.0933 42.4621 42.2584C42.4207 42.2997 42.2552 42.3409 42.2139 42.2997C42.1311 42.2584 42.0484 42.1346 41.9657 42.0933C41.9243 41.9695 41.8416 41.887 41.8416 41.8044ZM41.5107 50.0587C41.4693 50.1412 41.4693 50.2237 41.428 50.3063C41.428 50.3475 41.2625 50.3063 41.2211 50.265C41.1798 50.2237 41.1384 50.1412 41.097 50.0174C41.3452 50.0174 41.4279 50.0174 41.5107 50.0587ZM40.9316 45.7664C40.5593 45.8903 40.6007 45.5601 40.5179 45.3537C40.5179 45.2299 40.4766 45.1061 40.5179 44.9823C40.5179 44.8998 40.642 44.8172 40.6834 44.7759C40.7661 44.7759 40.8902 44.8172 40.9316 44.8585C41.0143 44.941 41.0557 45.0648 41.0557 45.1887C41.097 45.4363 41.2211 45.6839 40.9316 45.7664ZM40.8489 40.3187C40.7661 40.3599 40.6834 40.3599 40.6007 40.3187C40.5593 40.2774 40.5179 40.1948 40.4766 40.0298C40.7248 40.1123 40.8075 40.1123 40.8902 40.1536C40.9316 40.1536 40.8902 40.3187 40.8489 40.3187ZM40.6834 38.8742C40.5593 38.8329 40.4766 38.7916 40.2698 38.7503C40.3938 38.5853 40.4352 38.4614 40.5179 38.3789C40.5593 38.3376 40.7661 38.4614 40.7661 38.5027C40.8075 38.6265 40.7248 38.7503 40.6834 38.8742ZM40.4352 52.3286C40.3938 52.3698 40.3111 52.246 40.1457 52.2048C40.2698 52.0809 40.3525 51.9571 40.4766 51.9159C40.5179 51.9159 40.642 52.0397 40.6834 52.0809C40.642 52.1635 40.5593 52.246 40.4352 52.3286ZM41.3866 53.0715C41.2625 53.0715 41.0143 53.1953 40.9729 53.1127C40.8489 52.9476 40.7661 52.7 40.642 52.4937C40.7248 52.4524 40.8489 52.4111 40.8902 52.4111C41.097 52.6587 41.552 52.1635 41.6348 52.6175C41.6761 52.7413 41.5107 52.9064 41.3866 53.0715ZM42.6275 51.6682C42.5861 51.8333 41.9657 52.0809 41.8002 51.9571C41.6761 51.8746 41.6348 51.6682 41.552 51.5857C41.552 51.3793 41.5107 51.2555 41.5107 51.1317C41.5107 50.9666 41.552 50.8015 41.552 50.6365C41.6761 50.719 41.8002 50.8428 41.9243 50.8841C42.007 50.9253 42.0898 50.9254 42.2139 50.9666C42.5034 51.0079 42.7102 51.4206 42.6275 51.6682ZM42.9998 49.6459C42.9171 49.6872 42.793 49.6872 42.7102 49.6872C42.7102 49.6047 42.6689 49.4396 42.7102 49.3983C42.7516 49.357 42.9171 49.357 43.0412 49.357C42.9998 49.4809 43.0412 49.6047 42.9998 49.6459ZM44.1993 47.0871C44.2821 47.376 44.158 47.376 43.9098 47.3348C43.7857 47.2935 43.6203 47.3348 43.4548 47.376C43.2066 47.4173 42.9998 47.2935 43.1239 47.0871C43.2893 46.7982 43.1239 46.6331 43.0412 46.4268C42.9998 46.3442 42.9171 46.2204 42.9584 46.1379C43.0412 45.9315 43.1239 45.7252 43.248 45.5601C43.2893 45.5188 43.5375 45.6426 43.703 45.7252C43.7857 45.7664 43.8684 45.849 43.9512 45.9315C44.0753 46.2204 44.4062 46.4268 44.158 46.8395C44.158 46.8808 44.158 47.0046 44.1993 47.0871ZM44.5303 48.3665C44.4475 48.284 44.3648 48.2427 44.3648 48.1602C44.3648 48.1189 44.4062 48.0364 44.4475 47.9538C44.5303 47.9951 44.613 48.0364 44.6544 48.1189C44.6544 48.1602 44.5716 48.2427 44.5303 48.3665ZM44.9439 44.1156C44.9025 44.1156 44.8612 44.0743 44.7784 44.0331C44.8198 44.2807 44.6957 44.5696 44.4475 44.6109C44.3648 44.6521 44.1993 44.5696 44.1166 44.487C43.9512 44.3632 43.8271 44.1569 43.703 43.9918C43.5375 43.7854 43.3721 43.6203 43.2066 43.414C43.1652 43.3727 43.1652 43.2076 43.2066 43.1664C43.248 43.1251 43.3721 43.0838 43.4548 43.0838C43.6203 43.0838 43.7857 43.1251 43.9512 43.1251C44.0753 43.1664 44.1994 43.1664 44.2407 43.2489C44.4062 43.414 44.5303 43.5791 44.6544 43.7442C44.6957 43.7854 44.7371 43.868 44.7371 43.9505C44.8198 43.9092 44.8612 43.8267 44.9439 43.8267C44.9853 43.8267 45.068 43.9092 45.1094 43.9505C45.068 44.0331 44.9853 44.1156 44.9439 44.1156ZM45.1094 45.6839C45.068 45.6426 45.1094 45.4776 45.1094 45.3125C45.2748 45.395 45.3989 45.395 45.4403 45.4776C45.4816 45.5188 45.4403 45.7252 45.3989 45.7252C45.3162 45.7252 45.1507 45.7252 45.1094 45.6839ZM45.3162 48.1189C45.2748 48.0364 45.2748 47.9126 45.2335 47.83C45.3162 47.83 45.3989 47.8713 45.523 47.8713C45.523 47.9951 45.5644 48.0776 45.5644 48.1602C45.4816 48.1602 45.3575 48.2015 45.3162 48.1189ZM46.1021 39.9885C45.9366 40.1123 45.7712 40.2774 45.6057 40.071C45.5644 39.9885 45.6471 39.8234 45.6885 39.617C45.8953 39.5758 46.1435 39.4932 46.2676 39.5758C46.433 39.7409 46.2262 39.9059 46.1021 39.9885ZM46.6812 47.1284C46.5985 47.1697 46.5157 47.1697 46.433 47.1697C46.433 47.0871 46.3917 47.0046 46.433 46.9633C46.4744 46.922 46.5985 46.8808 46.7226 46.8395C46.6812 47.0046 46.6812 47.1284 46.6812 47.1284ZM47.1776 41.6806C47.0121 41.6393 46.8053 41.5981 46.7639 41.5155C46.6398 41.3504 46.3917 41.1028 46.6398 40.8965C46.7226 40.8139 46.9707 40.979 47.0948 40.979C47.2189 41.1853 47.3017 41.2679 47.3017 41.3917C47.3017 41.5155 47.2189 41.6806 47.1776 41.6806ZM41.7175 37.8837C40.8489 37.017 40.4352 35.9026 40.4352 34.7883C40.3938 34.7883 40.3525 34.747 40.3111 34.7058C39.8975 34.4581 39.1529 34.6232 38.9461 35.0359C38.7806 35.3248 38.2015 35.5312 37.9534 35.2836C37.6638 34.9947 37.4156 35.1598 37.1674 35.201C36.9606 35.2423 36.7538 35.2423 36.6297 35.4486L36.7538 36.4804L36.7952 36.5217C36.9606 36.6455 37.1674 36.7281 37.3329 36.8519C37.1674 36.9757 37.002 37.0995 36.7952 37.2233L36.9193 38.3376C37.002 37.8836 37.0434 37.8837 37.457 38.2138C37.5397 38.2551 37.5811 38.3376 37.6638 38.4202C37.6638 38.4202 37.6638 38.4202 37.6224 38.4614C37.8706 38.7916 38.1188 39.1218 38.367 39.452C38.4084 39.5345 38.4084 39.6583 38.4497 39.7821C38.367 39.7821 38.2429 39.7821 38.1602 39.7409C37.912 39.5758 37.7052 39.452 37.3743 39.4932C37.3329 39.5758 37.2502 39.617 37.1674 39.6996C37.1261 39.6996 37.0847 39.6583 37.0434 39.6583L37.3743 42.7124C37.457 42.6711 37.4984 42.6711 37.5811 42.6711C37.7879 42.6711 38.0361 42.9187 38.2429 43.0838C38.2843 43.1251 38.1602 43.3314 38.0775 43.414C37.912 43.5791 37.7052 43.7442 37.5397 43.9092L37.9947 48.2427C38.1188 48.284 38.1602 48.4078 38.2015 48.5316C38.2015 48.5729 38.1188 48.6554 38.0361 48.738L38.0775 49.1094L34.0651 49.5221L33.9824 48.738C33.941 48.6967 33.941 48.6967 33.941 48.6554C33.941 48.6142 33.941 48.5729 33.9824 48.5316L33.7756 46.757C33.7342 46.7982 33.6928 46.8395 33.6515 46.8808C33.5688 46.922 33.486 46.8808 33.4033 46.8808C33.4033 46.8395 33.4447 46.757 33.4447 46.7157C33.5274 46.6744 33.5688 46.5919 33.6515 46.5919C33.6928 46.5919 33.6929 46.6331 33.7342 46.6331L32.6587 36.7281C32.576 36.7281 32.4933 36.7281 32.4106 36.7281C32.3692 36.6868 32.3692 36.563 32.3692 36.4392C32.4519 36.4392 32.5347 36.4804 32.6174 36.4804L32.3278 32.9311C32.2451 33.0136 32.1624 33.0137 32.0383 33.0549C31.9556 33.0549 31.9142 33.0549 31.8315 33.0962C31.0042 33.22 30.7146 32.9311 30.8387 32.1057C30.8387 32.0231 30.8801 31.9406 30.9628 31.8993C31.1696 31.693 31.4592 31.5692 31.5419 31.239C31.5833 31.0326 31.9142 31.0739 31.9969 31.2803C32.0796 31.5279 32.1624 31.8168 32.2451 32.0644L31.3351 23.6864C31.0042 23.7689 30.6733 23.8514 30.301 23.934C29.8046 24.0578 29.3082 24.2229 28.7705 24.3054C28.2741 24.388 28.2328 24.4292 28.3155 24.8832C28.3155 24.9245 28.3569 25.007 28.3569 25.0483C28.3982 25.2134 28.4396 25.3785 28.2328 25.4198C28.1501 25.4198 28.026 25.2959 27.9846 25.1721C27.9019 25.007 27.8605 24.9245 27.7778 24.842V24.8832C27.7364 24.9245 27.6123 24.8832 27.5296 24.842C27.4882 24.8007 27.4469 24.7594 27.3641 24.6769C27.24 24.6769 27.1159 24.7181 26.9919 24.7594C26.5782 24.8832 26.1232 25.007 25.7096 25.0896C25.7096 25.2134 25.7096 25.2959 25.6682 25.3785C25.5441 25.5436 25.3373 25.461 25.2132 25.2959C25.1718 25.2547 25.1305 25.1721 25.0477 25.1309C24.8409 25.0896 24.5927 24.8832 24.3032 24.7594C24.3859 24.6356 24.4686 24.5531 24.51 24.4705C24.3032 24.2229 24.0964 23.9753 23.8482 23.6864C23.7241 23.5625 23.6414 23.4387 23.6 23.3149C23.5586 23.2736 23.5173 23.2736 23.5173 23.2324C23.3932 23.0673 23.3104 22.9022 23.145 22.8197C22.7727 22.6959 22.4832 22.9435 22.5245 23.3562C22.5245 23.48 22.5659 23.6038 22.5245 23.6864C22.4832 23.7689 22.3177 23.8102 22.235 23.8514C22.0695 23.5213 21.6145 23.7276 21.4491 23.3562C21.4491 23.3149 21.2422 23.2736 21.1595 23.2736C21.0354 23.2736 20.9113 23.3149 20.8286 23.3149C20.6218 23.3562 20.4563 23.3149 20.415 23.1086C20.3736 22.9022 20.539 22.8197 20.7045 22.7784C20.7459 22.7784 20.7872 22.7784 20.8286 22.7371C20.8286 22.7371 20.8286 22.7371 20.8286 22.7784C21.4491 22.6133 22.1109 22.4482 22.7313 22.3244H22.7727C22.7313 22.2419 22.7313 22.1181 22.69 21.953C22.8554 21.9942 23.0209 21.953 23.0623 22.0355C23.1036 22.0768 23.1036 22.2006 23.0623 22.2831C23.3518 22.2419 23.6414 22.2419 23.9309 22.3657C24.0964 22.4482 24.5927 22.2831 24.6341 22.1593C24.7168 21.7466 25.0477 21.7053 25.3373 21.6228C25.6682 21.5403 26.0405 21.499 26.3714 21.499C26.4541 21.499 26.5368 21.5815 26.6196 21.6641C26.5782 21.7466 26.5368 21.8704 26.4541 21.9117C26.2887 21.9942 26.0818 22.0355 25.9164 22.1181C25.7096 22.2006 25.4614 22.2419 25.42 22.5308C25.42 22.6133 25.3373 22.6959 25.2546 22.7371C24.9236 22.8609 24.5927 22.9022 24.4686 23.3562C24.51 23.4387 24.5514 23.48 24.6341 23.5625C24.7996 23.8102 24.965 24.0165 25.1718 24.2229C25.2132 24.2229 25.2132 24.2229 25.2546 24.1816C25.5441 24.0991 25.8337 24.0991 25.875 23.6864C25.9164 23.5213 26.1232 23.48 26.2473 23.6038C26.4541 23.8514 26.6609 23.7689 26.8678 23.6864C27.571 23.5213 28.3155 23.3562 29.0187 23.2324C29.3082 23.1911 29.5151 23.1086 29.7219 23.3975C29.846 23.6038 30.0528 23.5213 30.0942 23.3149C30.1769 23.026 30.3424 22.9847 30.5905 22.9022C30.8387 22.8197 31.0869 22.7784 31.3351 22.6959L31.0455 21.3339C30.7974 21.3752 30.5492 21.4577 30.5078 21.8292C30.5078 21.8704 30.1769 21.9117 30.1355 21.8704C29.9701 21.5815 29.7219 21.6641 29.5151 21.7466C28.9773 21.9117 28.3982 21.8704 27.9019 22.1593C27.9019 22.1593 27.8191 22.1593 27.7778 22.1593C27.571 22.1593 27.2814 22.3657 27.1987 22.0355C27.0746 21.6641 27.4055 21.7053 27.6123 21.6228C27.7778 21.5403 27.9432 21.499 27.9846 21.2514C28.026 20.9625 28.2328 20.9212 28.481 21.1275C28.6878 21.2926 28.7291 21.3339 28.8946 21.0863C29.0187 20.9212 29.2669 20.8386 29.4737 20.7148C29.7219 20.5497 29.846 20.7974 30.0114 20.9212C30.2596 21.0863 31.0455 20.8386 31.211 20.5497C31.3765 20.2609 31.5419 20.1783 31.8728 20.3847C31.9556 20.4259 32.2037 20.3847 32.2451 20.3021C32.4106 20.0132 32.5347 19.9307 32.7415 20.2196C32.9483 20.4259 33.1551 20.3847 33.1965 20.0958C33.2378 19.8481 33.4033 19.8069 33.6101 19.7243C33.9824 19.6005 34.3547 19.518 34.727 19.4354C35.0992 19.3529 35.1406 19.6418 35.2233 19.8481C35.3061 20.1783 35.2233 20.3021 34.8924 20.3434C34.6856 20.3434 34.4788 20.3021 34.3133 20.2196C34.1065 20.0958 33.941 20.0958 33.8169 20.2609C33.7756 20.3434 33.7342 20.4672 33.6929 20.5497L35.1406 20.3847L35.3061 21.9942C35.3888 21.9117 35.4301 21.8704 35.4715 21.8704C35.5129 21.8704 35.5542 21.9117 35.5956 21.953C35.5542 21.9942 35.5129 22.0768 35.4715 22.0768C35.4301 22.0768 35.3888 22.0768 35.3061 22.0355L36.6297 34.4169C36.6711 34.4169 36.7124 34.4169 36.7538 34.3756C37.457 34.1692 38.2015 33.9216 38.9047 33.7565C39.1116 33.7153 39.4011 33.674 39.5666 33.7565C39.9388 33.9629 40.2698 33.9216 40.642 33.8803C40.8075 33.0962 41.1798 32.3533 41.8002 31.7342C43.4962 30.0421 46.2262 30.0421 47.9221 31.7342C49.6181 33.4264 49.6181 36.1503 47.9221 37.8424C46.1848 39.5758 43.4134 39.5758 41.7175 37.8837ZM37.9534 36.4804C37.5811 36.7693 37.4984 36.7281 37.2088 36.3566C37.002 36.109 37.0847 35.7788 37.457 35.5312C37.7052 35.3661 37.8706 35.4487 38.1188 35.7788C38.3256 36.109 38.3256 36.1915 37.9534 36.4804ZM44.5303 17.6195C44.5716 17.8259 44.4475 17.9497 44.2821 17.9909C44.0339 18.0735 43.7443 18.1147 43.4962 18.1973V18.2386C43.3307 18.2798 43.1652 18.3211 42.9998 18.2798C42.8757 18.2798 42.7102 18.1973 42.7102 18.0735C42.6689 17.9909 42.793 17.7846 42.8757 17.7846C43.2066 17.6608 43.4962 17.5782 43.703 17.2481C43.7857 17.1242 44.1166 17.083 44.3234 17.1242C44.3648 17.1242 44.3648 17.1655 44.4062 17.1655C44.4475 17.2893 44.4889 17.4957 44.5303 17.6195ZM44.4889 29.5881C44.4475 29.6707 44.4062 29.7945 44.3648 29.7945C44.3234 29.8358 44.1993 29.7532 43.9512 29.6294C44.1166 29.5469 44.1994 29.4231 44.2407 29.4231C44.3234 29.4231 44.4062 29.5056 44.4889 29.5881ZM42.9584 19.7656C43.4134 19.6418 43.6616 19.7656 43.7857 20.2196C43.9098 20.6323 43.4962 20.5085 43.3307 20.6323C42.8343 20.7561 42.7516 20.6736 42.6275 20.2609C42.5861 19.972 42.7102 19.8069 42.9584 19.7656ZM44.6957 28.0611C44.7371 27.9786 44.8198 27.8547 44.9025 27.8547C45.068 27.8135 45.6885 28.3913 45.7298 28.5976C45.7298 28.7214 45.7298 28.8453 45.6885 28.9691C45.6057 28.9278 45.4816 28.8865 45.3989 28.8865C45.1094 28.7627 44.7371 28.8865 44.7371 28.4738C44.6957 28.2675 44.6544 28.1436 44.6957 28.0611ZM47.0535 20.3434C47.0948 20.2609 47.1776 20.2609 47.3017 20.0958C47.3017 20.0958 47.3844 20.0132 47.5085 19.972C47.6326 19.9307 47.7567 19.9307 47.8808 19.8894C47.8808 20.0132 47.8808 20.137 47.8808 20.2609C47.8808 20.3847 47.3844 20.7974 47.2603 20.7974C47.1362 20.7974 46.9707 20.7561 46.8467 20.7561C46.9294 20.6323 46.9707 20.5085 47.0535 20.3434ZM46.9707 19.1878C46.9294 19.0227 46.8467 18.8164 47.0948 18.7751C47.2189 18.7751 47.343 18.8989 47.5085 19.0227C47.4258 19.2291 47.3844 19.518 47.3017 19.5592C47.0535 19.6418 47.0121 19.3529 46.9707 19.1878ZM48.2944 27.4008C48.4185 27.4008 48.5012 27.5659 48.6253 27.6484C48.6667 27.6897 48.6667 27.7722 48.6667 27.8547C48.6667 27.9373 48.708 28.0611 48.6667 28.1849C48.584 28.35 48.4185 28.4325 48.2944 28.2675C48.2117 28.1436 48.1289 27.9786 48.0876 27.8135C48.0462 27.6484 48.0876 27.442 48.2944 27.4008ZM48.4599 21.7053C48.7494 21.4577 48.8735 21.7053 48.9976 21.8704C49.3285 22.2831 49.3285 22.3657 49.0803 22.572C48.7494 22.8609 48.584 22.8197 48.2944 22.4895C48.0462 22.2419 48.1289 21.9942 48.4599 21.7053ZM47.8394 43.4553C47.7567 43.3727 47.6739 43.3314 47.5912 43.2902C47.5912 43.2902 47.6739 43.1251 47.7153 43.1251C47.798 43.1251 47.8808 43.1664 47.9635 43.2076C47.9221 43.2902 47.8808 43.3727 47.8394 43.4553ZM49.163 43.2076C49.039 43.1664 48.8321 43.2076 48.7494 43.1251C48.584 42.8775 48.4599 42.6298 48.0462 42.7537C47.9221 42.7949 47.5912 42.4235 47.5499 42.2171C47.5085 42.0933 47.7567 41.7631 47.9221 41.6806C48.0876 41.6393 48.2944 41.8457 48.5012 41.9282C48.4599 41.9695 48.4599 42.0108 48.4185 42.0108C48.6667 42.2584 48.9149 42.506 49.1217 42.7949C49.2458 42.9187 49.163 43.0838 49.163 43.2076ZM49.2871 23.6451C49.039 23.3149 49.039 23.1498 49.4112 22.8609C49.5767 22.7371 49.7421 22.6959 49.8662 22.9022C50.1558 23.2736 50.4867 23.6038 50.7763 23.9753C50.9831 24.2642 50.7349 24.388 50.5694 24.5531C50.404 24.7181 50.1972 24.8007 50.0317 24.5531C49.8662 24.388 49.7421 24.1816 49.5767 24.0165C49.5767 24.0165 49.5767 24.0165 49.6181 23.9753C49.494 23.8927 49.3699 23.7689 49.2871 23.6451ZM50.2385 18.5687C50.2385 18.61 50.2385 18.8164 50.1558 18.8576C49.9903 18.9814 49.949 19.1465 49.949 19.3529C49.949 19.4354 49.8662 19.518 49.7835 19.5592C49.7008 19.5592 49.6181 19.518 49.5767 19.4354C49.3285 19.064 49.4526 18.3624 49.7835 18.1147C49.949 17.9909 50.1558 18.156 50.2385 18.5687ZM50.5281 15.3909C50.6522 15.3083 50.859 15.3496 50.9831 15.3909C51.0244 15.3909 51.1072 15.5972 51.0658 15.6385C50.9831 15.7623 50.8176 15.8448 50.6935 15.9686C50.4867 15.9274 50.1972 15.9274 50.1558 15.8036C49.9903 15.5147 50.3626 15.5147 50.5281 15.3909ZM50.3626 27.2357C50.3626 27.277 50.1558 27.3595 50.1558 27.3182C50.0317 27.2357 49.9903 27.0706 49.9076 26.9468C49.9076 26.7817 49.9076 26.6579 49.9903 26.5341C49.9903 26.4928 50.2385 26.4928 50.2385 26.4928C50.2385 26.7817 50.3212 27.0293 50.3626 27.2357ZM51.2726 34.8296C51.2313 34.8709 51.1072 34.9121 51.0244 34.9121C50.9831 34.9121 50.9003 34.8709 50.859 34.8709C50.9003 34.7883 50.9417 34.7058 50.9831 34.7058C51.0658 34.6645 51.1899 34.6645 51.2726 34.6645C51.2726 34.7058 51.314 34.8296 51.2726 34.8296ZM51.6863 33.8803C51.6449 33.9216 51.5208 33.9216 51.4381 33.9216C51.4381 33.8391 51.4381 33.7153 51.4794 33.674C51.5208 33.6327 51.6449 33.6327 51.769 33.5914C51.7276 33.7565 51.7276 33.8391 51.6863 33.8803ZM52.3067 31.4041C52.224 31.4453 52.1413 31.4866 52.0172 31.4866C51.3554 31.6517 50.6935 31.8168 50.0731 31.9819C49.8662 32.0231 49.7008 32.0644 49.6181 31.8168C49.5353 31.5692 49.6181 31.1564 49.7835 31.1152C49.9076 31.0326 50.0731 31.0326 50.2385 30.9914C50.2385 30.9501 50.2385 30.9501 50.2799 30.9088C50.5281 30.9501 50.8176 31.0326 51.0658 31.0739C51.314 31.1152 51.5622 31.0739 51.8104 31.0739C51.9344 31.0739 52.0585 30.9914 52.224 30.9914C52.3481 30.9914 52.4308 31.1152 52.5135 31.1564C52.4308 31.239 52.3895 31.3628 52.3067 31.4041ZM53.134 37.2233C53.0099 37.2646 52.8445 37.182 52.7617 37.182C52.6376 36.8931 52.3067 36.6868 52.6376 36.4804C52.9272 36.2741 53.0513 36.6455 53.1754 36.7693C53.2995 36.9344 53.3408 37.0995 53.134 37.2233ZM53.4649 41.9695C53.3822 41.9695 53.2995 41.9282 53.2167 41.887C53.2581 41.8457 53.2581 41.7219 53.2995 41.7219C53.3822 41.6806 53.4649 41.7219 53.589 41.7631C53.5477 41.887 53.5063 41.9695 53.4649 41.9695ZM54.0854 30.9501C53.9199 31.0326 53.7131 31.0326 53.5063 31.1152C53.3408 31.1564 53.1754 31.1977 53.0099 31.1977C52.9272 31.1977 52.8445 31.1152 52.7617 31.0326C52.8031 30.9501 52.8445 30.8263 52.8858 30.8263C53.2581 30.7025 53.6304 30.6199 54.0027 30.5374C54.0854 30.5374 54.1681 30.6612 54.2508 30.7025C54.2095 30.785 54.1681 30.9088 54.0854 30.9501ZM55.0781 41.1853C55.0368 41.1441 55.0368 41.0615 54.9954 40.9377C55.1195 40.9377 55.2436 40.9377 55.2436 40.979C55.285 41.0615 55.2849 41.1441 55.2849 41.2266C55.2022 41.2266 55.1195 41.2266 55.0781 41.1853ZM56.1536 37.3059C56.0709 37.3884 55.9054 37.3471 55.74 37.3471C55.7813 37.182 55.7813 37.0582 55.8227 36.8106C56.0295 36.8106 56.195 36.8519 56.3604 36.8519C56.2777 37.017 56.2363 37.2233 56.1536 37.3059ZM61.0759 28.804C61.1173 28.804 61.2414 28.8453 61.2414 28.8865C61.2414 28.9691 61.2 29.0516 61.1587 29.0929C61.1173 29.0516 61.0346 29.0516 60.7864 28.9278C60.9518 28.8865 60.9932 28.804 61.0759 28.804ZM60.1246 26.9055C60.3727 26.6992 60.4968 26.9881 60.6209 27.1119C60.6623 27.1531 60.7037 27.1944 60.7037 27.2357C60.745 27.3595 60.8277 27.5659 60.7864 27.6484C60.6209 27.8547 60.4968 27.6484 60.3727 27.5659C60.3314 27.5246 60.3314 27.5246 60.29 27.4833C60.1246 27.277 59.8764 27.1119 60.1246 26.9055ZM59.7523 29.0516C59.9177 29.0103 60.0005 28.9691 60.0832 29.0103C60.1659 29.0516 60.29 29.0929 60.3727 29.1342C60.3314 29.2167 60.29 29.3405 60.2073 29.3818C60.1659 29.4231 60.0832 29.4643 60.0005 29.4643C59.835 29.5056 59.5868 29.6294 59.5455 29.3405C59.5041 29.258 59.7109 29.0929 59.7523 29.0516ZM59.2559 30.2072C59.5868 29.9183 59.6696 29.9596 59.9591 30.331C60.0832 30.4961 60.3314 30.6612 60.0418 30.9088C59.7109 31.1977 59.4627 31.1564 59.1732 30.8675C58.9664 30.5374 58.9664 30.4548 59.2559 30.2072ZM57.6427 21.4577C57.7254 21.5403 57.6841 21.6641 57.7254 21.7466C57.6013 21.7466 57.4772 21.8292 57.4359 21.7466C57.3532 21.6641 57.3532 21.5403 57.2704 21.3339C57.4772 21.4164 57.6013 21.3752 57.6427 21.4577ZM56.8568 27.1119C56.9395 27.0293 57.1877 27.0706 57.2704 27.1119C57.56 27.3595 57.8082 27.6897 58.0977 27.9786C58.3459 28.2675 58.5527 28.5151 58.8009 28.804C59.0077 29.0516 58.9664 29.2167 58.7595 29.3818C58.5527 29.5469 58.3459 29.712 58.0977 29.4231C57.8495 29.1342 57.6013 28.8453 57.3532 28.5564C57.1877 28.3913 57.0222 28.2262 57.2291 27.9373C57.3532 27.7309 57.2291 27.6071 56.9809 27.6071C56.8568 27.6071 56.6913 27.5659 56.5672 27.5246C56.65 27.4008 56.7327 27.2357 56.8568 27.1119ZM56.195 30.0009C56.2363 30.1659 56.2363 30.2485 56.195 30.331C56.319 30.4961 56.4845 30.5786 56.7327 30.4961C56.9395 30.4548 58.015 31.6517 57.9323 31.8168C57.8082 32.0644 57.8082 32.2295 57.9323 32.4771C57.9736 32.5184 57.9323 32.6422 57.8495 32.6835C57.7668 32.7248 57.6427 32.766 57.6013 32.6835C57.3532 32.4359 57.105 32.2708 56.7741 32.3533C56.2363 31.7342 55.6986 31.1564 55.1609 30.5374C55.1609 30.5374 55.1195 30.4961 55.1609 30.4961C55.4918 29.6707 54.6645 29.4643 54.3749 28.9691C54.3336 28.8865 54.2095 28.804 54.1268 28.804C53.4649 28.9278 53.3408 28.35 53.0099 28.0198C52.9272 27.9373 52.9686 27.7722 52.9686 27.6484C53.0513 27.3595 52.9686 27.2357 52.679 27.277C52.3895 27.3182 52.3067 27.1944 52.3481 26.9055C52.3895 26.7817 52.3481 26.5753 52.224 26.4515C52.0172 26.1626 51.769 25.8737 51.5208 25.5848C51.3554 25.7086 51.2313 25.915 51.0244 25.6674C50.9831 25.6261 50.9831 25.461 51.0244 25.4198C51.2726 25.2134 51.3554 25.461 51.4794 25.5848C51.6449 25.461 51.769 25.2959 51.9758 25.461C52.0585 25.5023 52.1826 25.5023 52.3067 25.5023C52.7204 25.5023 53.0926 25.8737 53.0513 26.2864C53.0513 26.4103 53.0099 26.6166 53.0926 26.6992C53.4236 27.1119 53.7545 27.5246 54.0854 27.9373C54.2508 28.1024 54.3749 28.3087 54.7058 28.1849C54.9127 28.1024 55.0781 28.3087 54.954 28.5151C54.8299 28.804 54.954 28.9691 55.1195 29.1342C55.2436 29.2992 55.3677 29.4643 55.4918 29.5881C55.9468 29.5469 56.0709 29.6294 56.195 30.0009ZM54.4163 26.6579C54.4577 26.5753 54.499 26.4928 54.499 26.4928C54.5404 26.4928 54.6231 26.5341 54.6645 26.5753C54.6231 26.6166 54.6231 26.6992 54.5818 26.6992C54.5404 26.7404 54.4577 26.6992 54.4163 26.6579ZM54.8713 24.9245C54.5404 25.2134 54.4163 25.2134 54.1681 24.9245C53.8372 24.5118 53.8372 24.3467 54.1681 24.0991C54.4577 23.8514 54.5404 23.8927 54.8713 24.2642C55.1609 24.5531 55.1609 24.6356 54.8713 24.9245ZM54.044 17.1242C54.3336 16.8766 54.4577 16.8766 54.6645 17.1655C54.954 17.4957 54.9127 17.6195 54.6231 17.9084C54.3336 18.156 54.2508 18.1147 54.0027 17.8259C53.7545 17.4957 53.7545 17.3719 54.044 17.1242ZM53.0926 18.8164C53.1754 18.8164 53.2995 18.8989 53.3408 18.9814C53.3408 19.0227 53.2581 19.1878 53.2167 19.1878C53.134 19.1878 53.0513 19.1053 52.8858 19.064C52.9686 18.9402 53.0513 18.8164 53.0926 18.8164ZM52.0172 15.3909C52.0585 15.4321 52.0585 15.4321 52.0999 15.4734C52.1826 15.4734 52.2654 15.4321 52.3481 15.4321C52.5549 15.4734 52.9272 15.4734 52.9272 15.5147C52.9686 15.8036 52.6376 15.8036 52.4722 15.9274C52.4308 15.9686 52.3067 15.9686 52.2654 15.9686C52.0585 15.9686 51.769 16.0512 51.7276 15.8036C51.6449 15.6797 51.8931 15.5147 52.0172 15.3909ZM51.6035 20.3847C51.8931 20.7148 51.8931 20.7974 51.6035 21.045C51.314 21.2926 51.2313 21.2926 50.9831 21.045C50.6935 20.7148 50.6935 20.6323 50.9831 20.3847C51.2726 20.0958 51.3554 20.137 51.6035 20.3847ZM50.7763 13.2447C50.9831 13.2447 51.1485 13.2447 51.2726 13.2447C51.2313 13.3686 51.1899 13.5336 51.1072 13.6162C50.9831 13.74 50.8176 13.9051 50.6935 13.6987C50.6522 13.6162 50.7349 13.4511 50.7763 13.2447ZM50.4453 13.6575C50.5281 13.8225 50.5694 14.0702 50.5694 14.2353C50.5694 14.2353 50.3212 14.3178 50.2385 14.2765C50.1144 14.2353 50.0317 14.1114 49.949 14.0289C49.8662 13.9464 49.7421 13.8638 49.6181 13.7813C49.7421 13.6987 49.8249 13.5749 49.949 13.4924C50.1558 13.5749 50.3626 13.5749 50.4453 13.6575ZM48.5012 10.851C48.584 10.851 48.6667 10.8923 48.7908 10.8923C48.9149 10.8923 48.9976 10.9336 49.1217 10.8923C49.494 10.851 49.6181 11.0986 49.7008 11.3463C49.7421 11.4288 49.5767 11.6352 49.494 11.759C49.2871 11.9653 49.1217 11.8415 48.9149 11.7177C48.8321 11.6764 48.7494 11.5939 48.6667 11.5526C48.6253 11.4288 48.5426 11.305 48.5012 11.1812C48.4599 11.0574 48.5012 10.9336 48.5012 10.851ZM48.3358 16.3401C48.4185 16.4226 48.6667 16.3814 48.8321 16.3814C49.039 16.3401 49.2044 16.2575 49.4112 16.2575C49.494 16.2575 49.6181 16.3401 49.7421 16.4226C49.6594 16.5052 49.6181 16.629 49.5353 16.7115C49.494 16.7528 49.3699 16.7528 49.3285 16.7528C48.9562 16.8353 48.6253 16.9592 48.253 17.0004C47.9221 17.0417 47.5912 17.1655 47.343 16.8353C47.3017 16.7941 47.2603 16.7941 47.1776 16.7528C47.0535 16.6703 46.9294 16.629 46.8467 16.5464C46.9707 16.4639 47.0535 16.3401 47.2189 16.2988C47.5498 16.1337 47.9635 15.9274 48.3358 16.3401ZM46.6398 14.9369C46.6812 14.9369 46.8467 15.0194 46.8467 15.0607C46.8467 15.1432 46.7639 15.267 46.6812 15.3083C46.6398 15.3496 46.5157 15.2258 46.3917 15.1845C46.5157 15.0607 46.5571 14.9781 46.6398 14.9369ZM46.5571 19.0227C46.7226 19.2291 46.8467 19.4767 46.9707 19.7243C46.9707 19.7243 46.9294 19.8069 46.888 19.8069C46.6398 19.7656 46.3503 19.8069 46.1021 19.7243C46.1021 19.8894 46.0607 19.972 45.8953 20.0958C45.7298 20.2196 45.5644 20.3847 45.4403 20.5085C45.3162 20.3021 45.2335 20.137 45.1094 19.9307C45.068 19.8481 44.9439 19.8069 44.8612 19.7656C44.7785 19.7243 44.6957 19.6418 44.613 19.5592C44.6957 19.4767 44.7785 19.3529 44.8612 19.3116C44.9853 19.2291 45.1507 19.1878 45.1921 19.1878C45.6885 19.064 45.8953 19.1053 46.0194 19.2703C46.0607 19.1878 46.1435 19.1465 46.1848 19.064C46.2676 19.064 46.4744 18.9814 46.5571 19.0227ZM45.6471 17.9497C45.7712 18.0735 45.8953 18.1973 45.978 18.3624C46.0194 18.4449 45.978 18.61 45.978 18.7338C45.8539 18.7338 45.7298 18.6925 45.6057 18.6513C45.523 18.61 45.523 18.5275 45.3575 18.3624C45.3989 18.4036 45.2748 18.3211 45.2748 18.2386C45.2335 18.156 45.2335 17.9909 45.3162 17.9497C45.3989 17.9084 45.6057 17.9084 45.6471 17.9497ZM45.3575 16.9592C45.3162 17.0417 45.2335 17.1242 45.1921 17.1242C45.1094 17.1655 44.9853 17.083 44.8198 17.083C44.9853 16.9592 45.0266 16.8353 45.1094 16.8353C45.1921 16.8353 45.2748 16.9179 45.3575 16.9592ZM44.3648 12.3368C44.613 12.1717 44.7785 12.2955 44.9025 12.5019C45.1094 12.7495 45.0266 12.8733 44.6957 13.1209C44.4062 13.3273 44.2821 13.1622 44.1166 12.9558C43.9925 12.7495 44.0753 12.5431 44.3648 12.3368ZM43.7857 11.6764C43.8271 11.7177 43.9098 11.759 43.9098 11.759C43.9098 11.8003 43.8684 11.8828 43.8271 11.9241C43.7857 11.8828 43.703 11.8828 43.703 11.8415C43.7443 11.8003 43.7857 11.759 43.7857 11.6764ZM43.4548 15.3496C43.5375 15.4321 43.6203 15.5147 43.7443 15.6385C43.8271 15.7623 43.9512 15.8861 44.0339 16.0925C44.0753 16.175 44.0753 16.2988 44.0339 16.3401C43.9925 16.3814 43.8684 16.3814 43.7857 16.3814C43.6616 16.3814 43.5375 16.2575 43.4548 16.2988C43.248 16.4226 42.9998 16.5464 42.8757 16.2163C42.7516 15.9274 42.6275 15.6385 42.9171 15.3496C43.0825 15.1432 43.248 15.102 43.4548 15.3496ZM42.793 14.6067C42.9171 14.7718 42.8757 14.8956 42.7102 14.9781C42.5448 15.0607 42.338 15.1432 42.1311 15.1845C42.0898 15.1432 42.0484 15.102 42.0484 15.0607C42.1725 14.8956 42.2552 14.6892 42.4207 14.5242C42.5448 14.3591 42.6689 14.4416 42.793 14.6067ZM41.9243 12.0892C41.9657 12.0479 42.1725 12.1717 42.1725 12.2542C42.1725 12.3368 42.0898 12.4606 42.0484 12.5431C42.007 12.5844 41.883 12.4606 41.7175 12.3781C41.7589 12.2542 41.8416 12.1304 41.9243 12.0892ZM42.1311 13.7813C42.1725 13.8638 42.1725 14.0289 42.1725 14.1527C42.0484 14.1527 41.883 14.1527 41.8002 14.0702C41.6348 13.9464 41.4693 13.7813 41.3452 13.6162C41.1798 13.4098 41.0557 13.2035 40.7248 13.3273C40.5593 13.3686 40.1043 12.9558 40.1457 12.832C40.2284 12.6257 40.3938 12.4193 40.5593 12.213C40.6007 12.1717 40.8075 12.2542 40.8902 12.3368C41.097 12.5431 41.2625 12.7908 41.4693 12.9971C41.6761 13.286 41.9243 13.5336 42.1311 13.7813ZM40.4352 7.83822C40.7248 7.63187 40.8489 7.63187 41.097 7.96203C41.3039 8.20966 41.2625 8.33348 40.9729 8.5811C40.7661 8.74619 40.5593 8.82873 40.3938 8.5811C40.1457 8.25093 40.1457 8.12712 40.4352 7.83822Z" fill="#D76700"/>
</svg>
