<svg width="30" height="30" viewBox="0 0 30 30" fill="none" xmlns="http://www.w3.org/2000/svg">
<path d="M13.3999 3.1V7L10.1999 14H10.0999C10.0999 14 10.0999 14.1 9.9999 14.1V20.4C10.4999 20.3 11.0999 20.1 11.5999 20C11.6999 20 11.8999 20 11.9999 20C12.0999 20 12.1999 20.1 12.2999 20.2C12.2999 20.2 12.2999 20.4 12.1999 20.5C11.8999 21 11.5999 21.3 11.0999 21.3C10.7999 21.4 10.6999 21.4 10.4999 21.4C10.2999 21.5 10.0999 21.5 9.8999 21.3V23C9.9999 23 10.1999 22.9 10.2999 22.9C10.5999 22.8 10.8999 22.7 11.1999 22.7C11.4999 22.6 11.6999 22.6 11.8999 22.9C11.9999 23.1 12.2999 23.1 12.2999 22.8C12.2999 22.6 12.3999 22.4 12.5999 22.4C12.8999 22.3 13.2999 22.3 13.5999 22.2C13.5999 22.2 13.6999 22.5 13.6999 22.6C13.4999 22.8 13.4999 23 13.4999 23.3C13.4999 23.7 12.9999 24 12.6999 23.7C12.2999 23.3 11.9999 23.5 11.6999 23.6C11.2999 23.7 10.8999 23.9 10.4999 24C10.1999 24.1 10.1999 24.2 10.1999 24.5C10.4999 24.9 10.4999 24.9 9.9999 25V26.2C10.2999 26.3 10.5999 26.4 10.8999 26.5C10.9999 26.4 10.9999 26.4 11.0999 26.3C11.1999 26.3 11.2999 26.4 11.2999 26.4V26.5C11.8999 26.6 12.3999 26.7 12.7999 26.7H19.3999C18.8999 26.7 18.6999 26.4 18.7999 25.9C18.7999 25.8 18.7999 25.6 18.6999 25.5C18.4999 25.2 18.2999 25 18.4999 24.6C18.5999 24.4 18.4999 24 18.4999 23.7C18.4999 23.6 18.5999 23.5 18.5999 23.4C18.6999 23.4 18.8999 23.5 18.9999 23.5C19.1999 23.7 19.2999 23.9 19.4999 24.1C19.6999 24.3 19.8999 24.5 19.9999 24.8C20.0999 24.9 20.1999 25.1 20.0999 25.2C19.9999 25.5 20.0999 25.7 20.3999 25.9C20.5999 26 20.7999 26.3 20.9999 26.5C21.0999 26.6 21.0999 26.6 21.1999 26.7H23.1999C23.3999 26.7 23.5999 26.7 23.7999 26.6C23.7999 26.5 23.7999 26.5 23.7999 26.4C23.9999 26.4 24.0999 26.4 24.1999 26.5C24.1999 26.5 24.1999 26.5 24.1999 26.6C24.9999 26.3 25.5999 25.6 25.7999 24.8C25.8999 24.3 25.8999 23.8 25.6999 23.4C25.5999 23.4 25.5999 23.3 25.4999 23.3C24.9999 22.9 24.9999 22.9 24.4999 23.3C24.2999 23.4 24.1999 23.6 23.9999 23.7C23.8999 23.7 23.6999 23.7 23.6999 23.7C23.5999 23.6 23.6999 23.5 23.6999 23.4C23.6999 23.3 23.7999 23.3 23.7999 23.3C24.1999 22.9 24.1999 22.9 23.8999 22.4C23.7999 22.2 23.7999 22 23.8999 21.9C24.0999 21.7 24.3999 21.5 24.2999 21.1L24.4999 21C24.5999 21 24.6999 21.1 24.6999 21.2C25.0999 21.7 25.5999 22.2 25.9999 22.6L26.0999 22.7C26.3999 22.4 26.5999 22.1 26.6999 21.7C26.6999 21.7 26.6999 21.5 26.5999 21.2C26.6999 21.2 26.6999 21.2 26.6999 21.3C26.6999 21.2 26.6999 21.1 26.6999 21C26.6999 20.6 26.5999 20.2 26.3999 19.9C26.7999 19.7 27.0999 19.4 27.3999 19C27.2999 18.9 27.1999 18.9 26.9999 18.9C26.6999 18.9 26.2999 18.5 26.3999 18.2C26.3999 17.9 26.2999 17.8 26.0999 17.8C25.8999 17.8 25.7999 17.7 25.6999 17.5C25.4999 17.6 25.2999 17.6 24.9999 17.7C24.8999 17.7 24.7999 17.6 24.6999 17.5C24.7999 17.4 24.7999 17.3 24.8999 17.3C25.0999 17.2 25.2999 17.2 25.4999 17.1C25.4999 16.9 25.3999 16.8 25.3999 16.6C25.3999 16.6 25.3999 16.5 25.2999 16.5C24.6999 16.5 25.7999 15.4 24.7999 15.7C24.4999 15.4 24.1999 15 23.7999 14.7C23.2999 14.2 22.7999 13.7 22.3999 13.1C22.0999 12.8 21.7999 12.5 21.9999 12C21.9999 11.9 21.9999 11.8 21.8999 11.7C22.0999 11.3 21.9999 11.2 21.8999 11H18.1999C18.3999 10.3 18.6999 9.3 18.8999 8.2C18.7999 8.1 18.6999 8 18.6999 7.9C18.5999 7.8 18.7999 7.6 18.7999 7.4C18.7999 7.3 18.8999 7.3 18.8999 7.3L18.9999 7.2C18.9999 7 18.9999 6.7 18.9999 6.5C19.0999 4.1 16.9999 2 15.6999 2C14.4999 2 13.6999 2.7 13.6999 2.7C13.4999 2.8 13.3999 3 13.3999 3.1ZM11.2999 16C11.2999 16.1 11.1999 16.2 11.1999 16.4C11.0999 16.3 10.8999 16.3 10.7999 16.2C10.6999 16.1 10.5999 16 10.5999 16C10.1999 15.5 10.1999 15.4 10.4999 15.1C10.6999 15 10.8999 14.9 10.9999 15C11.1999 15.2 11.2999 15.4 11.3999 15.6C11.3999 15.7 11.3999 15.9 11.2999 16ZM13.5999 26.1C13.5999 26.1 13.4999 26.1 13.2999 26C13.3999 25.9 13.4999 25.8 13.5999 25.8C13.5999 25.8 13.6999 25.9 13.7999 25.9C13.6999 26 13.6999 26 13.5999 26.1ZM12.5999 13.6C12.6999 13.6 12.7999 13.8 12.9999 13.9C12.8999 14.1 12.7999 14.3 12.6999 14.5C12.5999 14.3 12.3999 14.2 12.2999 14C12.2999 13.9 12.4999 13.6 12.5999 13.6ZM12.7999 18.7C12.7999 18.6 12.6999 18.6 12.5999 18.4C12.5999 18.4 12.4999 18.3 12.4999 18.2C12.3999 18 12.2999 17.8 12.3999 17.7C12.4999 17.5 12.6999 17.7 12.8999 17.7C13.2999 17.6 13.4999 17.7 13.6999 18C13.7999 17.7 13.9999 17.4 14.1999 17.4C14.2999 17.5 14.4999 17.6 14.5999 17.8C14.5999 18 14.5999 18.2 14.4999 18.3C14.2999 18.4 14.0999 18.4 13.8999 18.5C13.8999 18.6 13.7999 18.7 13.6999 18.8C13.2999 18.9 12.9999 18.9 12.7999 18.7ZM13.9999 14.2C14.1999 14.2 14.2999 14.3 14.3999 14.3C14.3999 14.4 14.3999 14.5 14.3999 14.5C14.2999 14.5 14.1999 14.5 14.1999 14.5C13.9999 14.4 13.9999 14.3 13.9999 14.2ZM14.5999 25.9C14.4999 25.9 14.3999 25.8 14.3999 25.8C14.4999 25.7 14.4999 25.6 14.5999 25.5C14.6999 25.6 14.7999 25.6 14.8999 25.7C14.6999 25.7 14.6999 25.8 14.5999 25.9ZM14.4999 22.1C14.5999 22 14.5999 22 14.5999 21.9L14.6999 22C14.6999 22.1 14.6999 22.1 14.5999 22.2C14.6999 22.2 14.5999 22.2 14.4999 22.1ZM15.7999 21.4C15.8999 21.6 16.0999 21.7 15.8999 21.9H15.6999C15.4999 21.6 15.6999 21.5 15.7999 21.4C15.5999 21.1 15.2999 20.9 15.0999 20.6C14.9999 20.5 15.0999 20.3 14.9999 20.2C15.0999 20.2 15.2999 20.2 15.3999 20.2C15.5999 20.3 15.6999 20.4 15.8999 20.6C16.1999 20.9 16.1999 21 15.7999 21.4ZM15.3999 19.9C15.4999 19.8 15.4999 19.6 15.5999 19.6C15.6999 19.6 15.7999 19.7 15.8999 19.7L15.7999 19.9C15.5999 20 15.4999 20 15.3999 19.9ZM15.9999 12.6C16.0999 12.3 16.4999 12 16.4999 11.6C16.4999 11.6 16.6999 11.5 16.7999 11.6C17.2999 11.8 17.4999 12.2 17.4999 12.7C17.4999 12.9 17.4999 13.1 17.7999 13.1C17.9999 13.1 18.1999 13 18.2999 13.2C18.2999 13.4 18.1999 13.5 18.0999 13.6C17.5999 14 17.5999 14 17.2999 13.7C16.9999 13.4 16.7999 13 16.2999 13.1C16.1999 12.9 15.9999 12.7 15.9999 12.6ZM16.7999 10.7C16.7999 10.7 16.7999 10.6 16.8999 10.4C16.9999 10.5 17.0999 10.6 17.0999 10.7C17.0999 10.7 16.9999 10.8 16.9999 10.9C16.8999 10.9 16.8999 10.8 16.7999 10.7ZM17.0999 25.5C16.8999 25.3 16.7999 25.3 16.7999 25.2C16.7999 25.1 16.8999 25 16.8999 24.9C16.9999 25 17.1999 25 17.1999 25.1C17.1999 25.1 17.0999 25.3 17.0999 25.5ZM17.5999 23.1C17.4999 23 17.3999 23 17.2999 22.9C17.2999 23.1 17.2999 23.3 17.0999 23.3C16.9999 23.3 16.7999 23.1 16.6999 23C16.5999 22.9 16.4999 22.8 16.4999 22.7C16.1999 22.3 16.1999 22.2 16.6999 21.7C16.7999 21.7 16.9999 21.6 17.0999 21.7C17.2999 21.8 17.3999 22 17.4999 22.2C17.5999 22.3 17.6999 22.4 17.6999 22.6C17.6999 22.9 17.5999 23 17.5999 23.1ZM18.6999 21.7C18.5999 21.6 18.3999 21.5 18.2999 21.4C18.3999 21.2 18.3999 21 18.4999 20.9C18.6999 20.8 18.8999 20.8 19.1999 20.8C19.1999 20.8 19.3999 21 19.2999 21C19.0999 21.2 18.8999 21.5 18.6999 21.7ZM21.0999 21.2C20.6999 21.3 20.3999 21.1 20.1999 20.7C20.0999 20.4 20.2999 20.3 20.5999 20.2C21.0999 20.1 21.1999 20.1 21.2999 20.6C21.2999 20.8 21.4999 21.1 21.0999 21.2ZM22.9999 26C22.6999 26.2 22.4999 26 22.2999 25.8C22.1999 25.7 22.0999 25.6 21.9999 25.5C21.7999 25.6 21.6999 25.8 21.4999 25.6C21.4999 25.6 21.4999 25.4 21.4999 25.3C21.6999 25.1 21.7999 25.3 21.9999 25.5C22.2999 25.3 22.5999 25 22.8999 24.8C23.1999 24.6 23.2999 24.7 23.2999 25C23.2999 25.1 23.2999 25.2 23.2999 25.3C23.4999 25.7 23.2999 25.8 22.9999 26ZM21.5999 23.9C21.6999 23.8 21.6999 23.7 21.7999 23.7L21.9999 23.8C21.9999 23.9 21.9999 24 21.8999 24.1C21.7999 24 21.6999 24 21.5999 23.9ZM24.5999 18.7C24.6999 18.7 24.7999 18.7 24.8999 18.7C24.8999 18.8 24.8999 18.9 24.7999 19C24.6999 19.1 24.5999 19.2 24.4999 19.3C24.7999 19.2 24.9999 19.2 25.0999 19.6C25.1999 19.9 25.1999 20.1 24.7999 20.2C24.6999 20.2 24.4999 20.3 24.3999 20.4C24.1999 20.5 24.0999 20.5 23.9999 20.4C23.7999 20.6 23.5999 20.8 23.3999 21C23.2999 21.1 23.0999 21.1 22.9999 21C22.8999 20.9 22.7999 20.7 22.8999 20.7C22.9999 20.4 22.9999 20.2 22.7999 20.3C22.8999 20.5 22.8999 20.8 22.5999 20.9C22.4999 20.9 22.2999 20.7 22.1999 20.5C22.1999 20.4 22.2999 20.4 22.2999 20.3C22.1999 20.3 21.9999 20.2 21.7999 20.3C21.7999 20.3 21.5999 20.1 21.5999 20C21.6999 19.8 21.7999 19.7 21.9999 19.5C22.2999 19.5 22.6999 19.4 22.9999 19.5C23.4999 19.7 23.6999 19.5 23.9999 19.2C24.1999 19 24.2999 18.9 24.5999 18.7ZM20.8999 14.8C20.8999 14.9 20.8999 15 20.8999 15.1C20.7999 15.1 20.5999 15.1 20.5999 15C20.4999 15 20.5999 14.8 20.5999 14.6C20.7999 14.7 20.8999 14.7 20.8999 14.8ZM19.5999 13.4C19.7999 13.3 19.9999 13 20.1999 13.3C20.2999 13.4 20.0999 13.7 19.9999 13.9C19.7999 13.9 19.6999 13.9 19.5999 13.8C19.3999 13.7 19.3999 13.5 19.5999 13.4ZM18.5999 16.3C18.8999 16 19.0999 15.6 19.4999 15.5C19.7999 15.4 20.1999 15.6 20.4999 15.8C20.6999 15.9 20.7999 16.1 20.9999 16.2C21.2999 16.5 21.4999 16.5 21.7999 16.2C22.1999 15.9 22.9999 16.1 23.1999 16.5L23.2999 16.6C23.1999 16.9 23.2999 17.2 23.3999 17.5C23.3999 17.5 23.4999 17.5 23.4999 17.6C23.4999 17.6 23.4999 17.7 23.4999 17.8C23.4999 17.8 23.4999 18 23.3999 18C23.3999 18 23.2999 18 23.1999 18C22.9999 18.1 22.6999 18 22.4999 17.9C22.3999 17.8 22.3999 17.8 22.2999 17.8C22.1999 17.8 22.0999 17.8 21.9999 17.8C21.8999 18 21.6999 18.2 21.5999 18.4C21.5999 18.4 21.2999 18.4 21.1999 18.3L21.0999 18.4C20.9999 18.5 20.9999 18.6 20.8999 18.7C20.8999 18.7 20.6999 18.6 20.6999 18.5C20.6999 18.4 20.7999 18.3 20.7999 18.1C20.7999 18 20.8999 18 20.8999 17.9C20.7999 17.8 20.7999 17.7 20.8999 17.6C20.8999 17.5 20.8999 17.3 20.8999 17.2C20.7999 17.2 20.5999 17.2 20.4999 17.2C20.0999 17.4 19.6999 17.3 19.4999 17C19.4999 16.9 19.3999 16.9 19.3999 16.8C19.2999 16.6 19.0999 16.6 18.7999 16.6C18.5999 16.7 18.4999 16.5 18.5999 16.3ZM18.6999 18.7C18.8999 18.6 19.0999 18.6 19.2999 18.5C19.3999 18.5 19.5999 18.6 19.6999 18.7C19.7999 18.9 19.5999 19 19.3999 19.1C19.1999 19.1 19.0999 19.2 18.8999 19.2C18.3999 19.3 17.8999 19.5 17.3999 19.6C17.0999 19.7 16.7999 19.8 16.6999 19.4C16.6999 19.3 16.4999 19.3 16.4999 19.3C16.3999 19.2 16.2999 19.2 16.2999 19.1C16.3999 19.1 16.5999 18.9 16.6999 19C16.9999 19.3 17.3999 19.1 17.6999 19.1C17.9999 18.9 18.3999 18.8 18.6999 18.7ZM15.0999 2.6C15.1999 2.6 15.3999 2.7 15.4999 2.7C15.6999 2.8 15.7999 3.1 15.8999 3.2C15.9999 3.3 16.1999 3.3 16.2999 3.3C16.6999 3.3 17.1999 3.7 16.9999 4.1C16.9999 4.4 16.9999 4.6 17.1999 4.8C17.3999 5 17.5999 5.4 17.9999 5.4C18.4999 5.4 18.6999 5.7 18.5999 6.2C18.5999 6.3 18.5999 6.5 18.5999 6.5C18.7999 6.8 18.6999 6.9 18.4999 7.1C18.0999 7.4 18.0999 7.4 17.7999 7C17.6999 6.9 17.5999 6.8 17.4999 6.6C17.2999 6.4 17.0999 6.2 16.9999 6C16.8999 5.8 16.9999 5.5 16.8999 5.3C16.7999 5.2 16.3999 5.3 16.2999 5.2C16.0999 5 15.6999 4.8 15.9999 4.4C16.0999 4.3 15.9999 4.1 15.8999 4C15.6999 3.7 15.3999 3.4 15.1999 3.1C15.0999 2.9 15.0999 2.8 15.0999 2.6ZM14.9999 10.2C15.0999 10.2 15.2999 10.3 15.3999 10.2C15.5999 10.1 15.6999 10.1 15.7999 10.3C15.7999 10.4 15.6999 10.5 15.6999 10.7C15.6999 10.7 15.5999 10.8 15.4999 10.9C15.4999 10.9 15.1999 11 15.0999 11C14.8999 10.8 14.8999 10.6 14.7999 10.4C14.7999 10.4 14.8999 10.2 14.9999 10.2ZM14.9999 13C15.0999 13.1 15.1999 13.1 15.1999 13.2L15.0999 13.4C14.9999 13.4 14.8999 13.3 14.7999 13.3C14.8999 13.2 14.8999 13.1 14.9999 13ZM14.7999 19.5C14.6999 19.7 14.3999 19.9 14.1999 20C14.1999 20 14.1999 20 14.0999 20C13.9999 20.1 13.8999 20.2 13.7999 20.4C13.7999 20.4 13.5999 20.5 13.5999 20.4L13.4999 20.2C13.5999 20.1 13.6999 19.9 13.6999 19.8C13.4999 19.6 13.4999 19.3 13.6999 19.1C13.8999 18.9 14.0999 18.8 14.2999 18.7C14.3999 18.7 14.5999 18.7 14.5999 18.7C14.7999 18.9 14.8999 19.2 14.7999 19.5ZM13.8999 7.2C13.9999 7 14.0999 6.8 14.1999 6.6C14.2999 6.5 14.3999 6.5 14.4999 6.5C14.4999 6.6 14.5999 6.7 14.5999 6.8C14.4999 7 14.3999 7.2 14.1999 7.4C14.1999 7.4 14.0999 7.5 13.9999 7.4C13.8999 7.4 13.8999 7.3 13.7999 7.3C13.8999 7.3 13.8999 7.2 13.8999 7.2Z" fill="#FEFEFE"/>
<path d="M22.5998 17.4C22.4998 17.3 22.2998 17.1 22.1998 17C22.0998 17 21.9998 16.9 21.8998 17C21.7998 17 21.7998 17.2 21.7998 17.3C21.7998 17.4 21.7998 17.4 21.8998 17.5C22.0998 17.4 22.2998 17.4 22.5998 17.4Z" fill="#FEFEFE"/>
<path d="M23 11.5C23 11.6 23.2 11.9 23.4 12C23.5 12.1 23.7 12 23.8 11.9C24 11.8 24.2 11.6 24.4 11.4C24.5 11.3 24.7 11.4 24.8 11.3C24.8 11.4 24.8 11.7 24.7 11.7C24.1 11.9 24.4 12.4 24.2 12.8C24.1 13 24.3 13.1 24.5 13.1C24.8 13 25 13.2 25.1 13.4C25.6 14 26.1 14.7 26.7 15.3C27.1 15.8 27.6 16.3 28 16.8C27.9 16.4 27.7 16.1 27.4 15.8C27.5 15.7 27.7 15.5 27.8 15.3C27.7 15.4 27.6 15.3 27.5 15.4C27.5 15.3 27.5 15.3 27.5 15.2C27.6 15.1 27.6 15 27.7 14.9C28.2 14.4 28.2 14.4 27.7 13.8C27.5 13.5 27.3 13.3 27.1 13C27 12.9 27.1 12.8 27.1 12.6C27.2 12.6 27.3 12.6 27.4 12.7C27.6 12.8 27.7 13 27.8 13.2C27.9 13.3 28 13.4 28.1 13.5H28.2C28 12.2 26.7 11 25.2 11H23C23.1 11.2 23.1 11.3 23 11.5Z" fill="#FEFEFE"/>
<path d="M8.8001 19.2997L8.9001 19.3997V18.6997C8.9001 18.6997 8.9001 18.7997 8.8001 18.7997C8.7001 18.9997 8.7001 19.0997 8.8001 19.2997Z" fill="#FEFEFE"/>
<path d="M4.5 14.2998C4.5 14.3998 4.3 14.4998 4.2 14.4998C4 14.4998 3.9 14.2998 3.8 14.0998C3.6 14.0998 3.5 13.8998 3.4 13.5998C3.4 13.4998 3.4 13.3998 3.4 13.3998C3.3 13.3998 3.3 13.3998 3.2 13.3998C2.7 13.4998 2.3 13.6998 2 13.9998C2 14.0998 2.1 14.2998 2 14.2998C2 14.3998 2 14.4998 1.9 14.5998C1.8 14.4998 1.7 14.3998 1.7 14.2998C1.3 14.7998 1 15.3998 1 16.0998V25.0998C1 25.4998 1.1 25.7998 1.2 26.1998C1.3 26.1998 1.4 26.2998 1.5 26.2998C1.5 26.4998 1.6 26.6998 1.6 26.7998C2.1 27.5998 2.9 27.9998 3.8 27.9998H5.4C5.4 27.8998 5.4 27.6998 5.5 27.5998C5.8 27.1998 6 27.1998 6.4 27.4998C6.6 27.2998 6.9 27.0998 7.1 26.8998C7.2 26.8998 7.2 26.7998 7.2 26.7998V26.6998C7.2 26.4998 7 26.2998 7.3 26.1998C7.4 26.1998 7.6 26.3998 7.8 26.4998C7.7 26.5998 7.7 26.6998 7.7 26.7998L7.8 26.8998C8 26.6998 8.2 26.5998 8.4 26.8998C8.5 26.9998 8.5 27.1998 8.6 27.3998C8.4 27.2998 8.3 27.2998 8.1 27.1998C8.1 27.1998 8 27.0998 7.9 26.9998C7.6 27.1998 7.4 27.3998 7.1 27.5998C6.8 27.7998 6.7 27.7998 6.5 27.4998C6.3 27.6998 6.1 27.7998 5.9 27.9998H7.3C7.9 27.9998 8.5 27.7998 9 27.3998V20.1998C8.8 19.9998 8.7 19.6998 8.3 19.8998C8 19.9998 8 19.7998 8 19.5998C8 19.4998 8.1 19.4998 8.1 19.3998C8.3 19.0998 8.4 18.8998 8.1 18.5998C8 18.4998 8 18.2998 8 18.1998C8.2 17.9998 8.4 17.9998 8.6 18.0998C8.8 18.1998 8.9 18.1998 8.9 18.1998V13.2998H6.9C6.9 13.3998 6.8 13.3998 6.7 13.4998C6.5 13.5998 6.2 13.5998 6 13.6998C5.8 13.6998 5.7 13.7998 5.5 13.7998C5.1 13.8998 5 13.7998 4.9 13.3998H4.5C4.7 13.5998 4.5 13.9998 4.5 14.2998ZM1.9 19.9998C2.3 19.5998 2.5 19.6998 2.9 19.9998C2.9 20.1998 3 20.1998 3 20.2998C3 20.4998 3.1 20.5998 3.1 20.7998C3 20.7998 2.8 20.6998 2.7 20.6998C2.5 20.5998 2.4 20.4998 2.2 20.4998C2.1 20.4998 2 20.3998 1.8 20.3998C1.8 20.1998 1.8 20.0998 1.9 19.9998ZM2.2 23.6998C1.9 23.8998 1.8 23.5998 1.6 23.4998C1.4 23.3998 1.4 23.1998 1.6 23.0998C1.7 22.9998 1.9 23.0998 2.2 23.0998C2.2 23.2998 2.3 23.5998 2.2 23.6998ZM3.2 24.8998C3 25.0998 2.8 24.8998 2.6 24.5998C2.6 24.4998 2.6 24.3998 2.6 24.1998C2.8 24.2998 3 24.2998 3.2 24.3998C3.4 24.5998 3.4 24.7998 3.2 24.8998ZM8.3 24.5998C8.4 24.4998 8.5 24.5998 8.7 24.4998C8.7 24.6998 8.7 24.8998 8.6 24.8998C8.5 24.9998 8.3 24.8998 8.3 24.8998C8.2 24.8998 8.2 24.6998 8.3 24.5998ZM7 23.3998C7 23.3998 7 23.1998 7 23.0998C7.1 23.0998 7.3 23.0998 7.3 23.1998C7.3 23.2998 7.3 23.3998 7.3 23.4998C7.2 23.3998 7.1 23.3998 7 23.3998ZM6.6 16.0998C6.6 16.0998 6.8 16.2998 6.8 16.3998C6.7 16.7998 6.7 16.9998 7.2 16.8998C7.4 16.8998 7.7 17.1998 7.8 17.3998C8 17.6998 7.7 17.7998 7.5 17.9998C7.3 18.1998 7.1 18.1998 6.9 17.9998C6.8 17.7998 6.7 17.6998 6.5 17.4998C6.4 17.2998 6.2 17.1998 6.1 16.9998C6 16.8998 5.9 16.6998 6 16.5998C6.2 16.3998 6.4 16.2998 6.6 16.0998ZM5.2 14.6998C5.3 14.6998 5.5 14.6998 5.6 14.6998C5.6 14.8998 5.7 14.9998 5.7 15.1998C5.5 15.0998 5.3 15.0998 5.2 14.9998C5.2 14.9998 5.2 14.7998 5.2 14.6998ZM4.7 26.0998C4.9 26.1998 5.2 25.8998 5.3 26.1998C5.3 26.3998 5.1 26.6998 5 26.7998C4.8 26.8998 4.7 26.9998 4.5 26.9998C4.4 26.9998 4.2 26.9998 4.2 26.9998C4.1 26.6998 4 26.3998 4.1 26.0998C4.1 25.9998 4.4 25.8998 4.7 26.0998C4.7 26.0998 4.6 26.0998 4.7 26.0998Z" fill="#FEFEFE"/>
</svg>
