<svg width="31" height="30" viewBox="0 0 31 30" fill="none" xmlns="http://www.w3.org/2000/svg">
<g clip-path="url(#clip0_0_1451)">
<path d="M26.8999 26.6C26.9999 26.6 27.1999 26.5 27.2999 26.5C27.1999 26.5 27.0999 26.6 26.8999 26.6Z" fill="#FEFEFE"/>
<path d="M1.80005 19C1.80005 19.1 1.90005 19.2 2.00005 19.2C1.90005 19.2 1.80005 19.1 1.80005 19Z" fill="#FEFEFE"/>
<path d="M0.9 15.8C1.2 15.7 1.6 15.6 1.9 15.5C2.3 15.4 2.6 15.3 3 15.2C3.1 15.2 3.2 15.3 3.3 15.3C3.3 15.4 3.2 15.5 3.2 15.6C3.1 16.2 2.4 16.3 2.1 16.8C2.1 16.9 1.8 16.9 1.8 16.8C1.6 16.5 1.3 16.6 1 16.7C0.8 16.7 0.7 16.7 0.6 16.7C0.7 17 0.8 17.3 0.9 17.6C1 17.5 1.1 17.5 1.2 17.4C1.4 17.3 1.6 17.4 1.5 17.6C1.3 18.1 1.7 18.4 1.9 18.7C2.1 19 2.4 19.2 2.6 19.5C2.7 19.7 2.9 19.9 2.7 20.1C2.6 20.2 2.5 20.2 2.4 20.3C2.6 20.6 2.9 20.8 3.1 21.1C3.4 20.9 3.5 20.8 3.5 20.7C3.8 20.6 4 20.5 4.2 20.6C4.5 20.7 4.7 20.9 4.7 21.3C4.7 21.9 5.1 22.3 5.6 22.4C5.7 22.4 5.9 22.5 6 22.6C6.2 22.8 6.4 23.1 6.6 23.3C6.6 23.3 6.6 23.2 6.7 23.2C6.8 23.2 6.9 23.3 6.9 23.3V23.4L7 23.5C8.5 24.3 10.3 24.8 12.2 25.2C12.2 25.1 12.3 25 12.5 25C12.6 25 12.6 24.8 12.5 24.7C12.5 24.6 12.3 24.6 12.2 24.6C12.1 24.6 12 24.7 11.9 24.7C11.6 24.8 11.2 24.6 11.1 24.3C11.1 24.2 11.1 24.1 11.2 24C11.6 23.7 11.9 23.4 12.3 23.1C12.5 22.9 12.6 23 12.8 23.2C13 23.4 13.2 23.7 13.4 23.9C13.6 24.1 13.8 24.3 14 24.6C14.1 24.7 14.2 24.9 14.1 25.1C14 25.3 14.1 25.4 14.1 25.5C14.6 25.5 15.2 25.6 15.8 25.6C16.2 25.6 16.6 25.6 17 25.6C17 25.6 17 25.5 16.9 25.4C17 25.4 17.1 25.4 17.2 25.5V25.6C18.2 25.5 19.2 25.4 20.2 25.2C20.1 25.2 20 25.2 20 25.2C20 25.1 20.1 25 20.1 25C20.1 25 20.1 24.9 20 24.9C20 24.8 20.1 24.7 20.2 24.6C20.3 24.7 20.3 24.7 20.4 24.8C20.5 24.8 20.5 24.8 20.6 24.8C20.6 24.9 20.6 25 20.6 25.2C20.6 25.2 20.7 25.2 20.8 25.2C21 25.3 21.2 25.5 21.4 25.6C21.6 25.6 21.8 25.7 22.1 25.7C22.1 25.7 22.1 25.7 22.1 25.8C22.2 25.9 22.3 25.9 22.4 26C22.4 26 22.4 26.1 22.4 26.2C23.2 26.6 24 26.9 24.8 27C24.6 26.7 24.3 26.5 24.1 26.2C24 26.1 23.9 26 23.9 25.9C23.8 25.9 23.7 25.8 23.6 25.7C23.7 25.6 23.7 25.5 23.8 25.4L23.9 25.3C23.9 25.2 24 25.1 24.1 25C24.2 24.9 24.2 24.8 24.2 24.7C24.1 24.7 24 24.7 23.9 24.8C23.8 24.8 23.8 24.9 23.7 24.9C23.5 25 23.4 25.2 23.2 24.9C23.1 24.8 23.2 24.6 23.3 24.5C23.7 23.9 23.6 23.8 23.2 23.2C22.9 22.9 22.6 22.7 22.7 22.2C22.8 22 22.5 21.9 22.3 22C22 22.1 21.7 22.2 21.4 22C21.2 21.8 21.1 21.6 21.4 21.4C21.6 21.2 21.8 21 22 20.9C22.2 20.8 22.3 20.7 22.5 20.9C22.6 21 22.8 21 22.9 21C23.3 21 23.5 21.4 23.5 21.7C23.4 22.1 23.4 22.1 23.8 22.1C24.1 22.1 24.2 22.2 24.2 22.4C24.2 22.7 24.1 23.1 24.1 23.4L24.3 23.5C24.6 23.4 24.8 23.6 25 23.8C25.2 24 25.2 24.2 25.1 24.4C25 24.7 25.4 25.1 25.7 25.1C26.2 25 26.3 25.5 26.6 25.7C26.8 26 26.7 26.3 26.5 26.5C26.4 26.6 26.3 26.7 26.3 26.8C26.3 26.8 26.3 26.9 26.3 27C26.3 27 26.4 27.1 26.5 27C26.6 26.9 26.8 26.8 26.9 26.7C27.3 26.4 27.4 26.4 27.7 26.7C27.7 26.6 27.7 26.5 27.8 26.5C28.1 26.3 28.4 26.2 28.8 26.1C28.9 26.1 29.1 26.2 29.1 26.3C29.3 26.2 29.5 26.1 29.6 26C29.6 26 29.5 26 29.4 26C29 26.1 28.9 25.9 28.7 25.7C27 25.4 26 24.4 25.4 23.4C25.8 23.2 26.2 22.9 26.6 22.7C26.6 22.6 26.5 22.6 26.4 22.6C26.1 22.8 25.9 22.5 25.7 22.3C25.5 22 25.2 21.8 25 21.5C24.9 21.4 24.7 21.3 24.6 21.3C24.5 21.3 24.5 21.3 24.4 21.3C24.4 21.4 24.2 21.5 23.9 21.6C23.9 21.6 23.7 21.5 23.6 21.5C23.6 21.4 23.7 21.3 23.7 21.2C23.7 21 23.8 20.9 23.8 20.7V20.6C23.9 20.3 23.7 20.2 23.6 20C23.3 19.6 23 19.3 22.7 18.9C22.1 18.2 21.4 17.4 20.8 16.7C20.6 16.5 20.5 16.3 20.1 16.4C19.8 16.5 19.4 15.9 19.5 15.6C19.6 15 19.4 14.8 18.8 14.8C18.5 14.8 18.1 14.3 18.2 14.1C18.4 13.8 18.2 13.6 18 13.4C17.9 13.3 17.8 13.2 17.7 13C17.6 13 17.6 13 17.6 13C17.2 13 17.1 12.9 17 12.5C17 12.4 17 12.3 17 12.2C17 12.1 16.9 12.1 16.9 12C16.8 11.9 16.7 11.7 16.6 11.6C16.6 11.5 16.5 11.3 16.6 11.3C16.1 11 16.3 11 16.4 11C16.5 11 16.7 11.1 16.8 11C17.1 10.9 17.2 11 17.4 11.2C17.5 11.3 17.6 11.4 17.6 11.5C17.7 11.5 17.8 11.4 17.9 11.4C18.2 11.3 18.5 11.3 18.8 11.2C19.1 11.1 19.4 11 19.6 11.4C19.7 11.5 20 11.4 20.2 11.4C20.2 11.4 20.3 11.4 20.3 11.5C20.6 11.3 20.8 11.4 20.8 11.8C20.8 12 20.9 12.3 20.9 12.5C20.9 12.6 20.9 12.7 20.9 12.8C20.7 13.4 20.5 13.4 20.1 13C20 12.9 20 12.9 19.9 12.8C19.8 12.7 19.8 12.6 19.7 12.5C19.6 12.4 19.6 12.2 19.7 12.1C19.2 12.3 18.8 12.4 18.3 12.6L18.4 12.7C18.5 12.9 18.5 13.2 18.6 13.4C18.7 13.6 19 13.5 19.2 13.7C19.5 14 19.8 14.3 20.1 14.6C20.2 14.7 20.3 14.9 20.2 15C20.2 15.6 20.3 15.7 20.9 15.8C21.1 15.8 21.5 16.2 21.4 16.5C21.3 16.9 21.5 17 21.8 17C22 17 22.1 17.2 22.1 17.4C22 17.7 22.1 17.7 22.4 17.8C22.8 17.9 23.1 18.2 23 18.6C23 18.8 23 18.9 23.3 19C23.4 19 23.6 19 23.6 19.1C23.9 19.4 24.3 19.8 24.6 20.1C24.6 19.9 24.6 19.8 24.6 19.6C24.6 19.4 24.5 19.3 24.5 19.1C24.5 19 24.6 18.8 24.6 18.7C24.7 18.8 24.8 18.9 24.9 19C25 19.2 25 19.4 25.1 19.6C25.2 19.8 25.2 20 25.5 20.1C25.5 20.1 25.5 20.1 25.6 20.1C25.6 20 25.6 20 25.6 19.9C25.6 19.8 25.6 19.7 25.6 19.6C25.6 19.3 25.8 19 26.1 19C26.2 19 26.4 19.1 26.6 19.3C26.9 19.5 26.7 19.7 26.5 19.9C26.4 20 26.4 20 26.3 20.1C26.2 20.2 26.1 20.2 26 20.3C25.9 20.3 25.9 20.3 25.8 20.3C25.9 20.4 26 20.6 26.3 20.6C26.3 20.7 26.3 20.8 26.3 20.8C26.1 20.9 25.8 21.1 25.6 21.2H25.5C25.5 21.3 25.5 21.4 25.5 21.5C25.4 21.7 25.6 21.9 25.8 21.9C26.1 21.9 26.3 22.1 26.6 22.3C26.9 22.1 27.1 21.9 27.4 21.7C27.3 21.6 27.2 21.5 27.1 21.3C26.7 20.8 27 19.9 27.7 19.8C27.8 19.8 27.9 19.9 28 20C28.2 20.2 28.3 20.5 28.5 20.6C29.9 19 30.8 17 30.8 15V14.9C30.6 15.1 30.4 14.9 30.3 14.7C30.2 14.6 30.3 14.4 30.3 14.3C30.4 14.3 30.6 14.3 30.8 14.4C30.8 14.5 30.8 14.5 30.8 14.6C30.7 13.1 30.2 11.8 29.4 10.5V10.6C29.4 11 29.3 11 29 10.8C28.6 10.6 28.6 10.4 28.8 10.1C28.6 10.1 28.4 10.2 28.2 10.2C28.2 10.2 28 10 28.1 9.9C28.2 9.6 28.3 9.4 28.5 9.3C27.5 8.2 26.3 7.3 24.9 6.5C24.9 6.5 24.9 6.5 24.8 6.5C24.6 6.6 24.5 6.5 24.4 6.2C23.7 5.9 23 5.6 22.2 5.3C22.2 5.5 22.2 5.6 21.9 5.7C21.2 5.9 20.5 6 19.8 6.2C19.9 6.5 20 6.7 20.3 6.6C21 6.5 21.6 6.3 22.3 6.1C22.3 5.8 22.5 5.7 22.6 6C22.7 6.4 22.7 6.7 22.4 6.7C22 6.9 21.5 7 21.1 7.1L21.2 7.2C21.2 7.2 21.1 7.5 21 7.5C20.8 7.5 20.6 7.4 20.4 7.4V7.3C20.1 7.4 19.9 7.5 19.6 7.6C19.5 7.6 19.4 7.7 19.4 7.7C19.3 8.4 19.1 8.2 18.8 7.9C18.7 7.8 18.4 7.8 18.3 7.7C18.1 7.5 18.2 7 18.6 6.9C18.9 6.8 19.1 6.8 19.1 6.4C19.1 6.3 19.3 6.2 19.4 6.1C19.4 5.9 19.3 5.7 19.5 5.6C19.6 5.5 19.6 5.4 19.7 5.3C19.7 5.1 19.9 5 20 5C20.2 5 20.4 4.9 20.5 4.9C19.1 4.2 17.3 4 15.5 4C13.9 4 12.3 4.2 10.9 4.5C10.9 4.6 10.9 4.6 10.8 4.7C10.6 4.9 10.5 4.7 10.4 4.6C4.6 6.2 0.5 10.1 0.5 14.7C0.5 15.1 0.5 15.5 0.6 16C0.7 15.9 0.8 15.8 0.9 15.8ZM23.1 16.3C23 16.3 22.8 16.2 22.7 16.1C22.4 15.8 22.1 15.4 21.8 15.1C21.5 14.8 21.2 14.5 21 14.1C20.9 14 20.8 13.7 20.9 13.6C21.1 13.4 21.3 13.2 21.5 13.2C21.9 13.2 22.3 13.3 22.6 13.6C22.8 13.8 22.8 13.9 22.6 14.1C22.5 14.2 22.5 14.2 22.4 14.3C22.2 14.5 22.1 14.6 22.3 14.9C22.5 15.1 22.6 15.4 22.9 15.1C23 15 23.2 15 23.3 14.9C23.5 14.8 23.6 14.9 23.6 15.1C23.6 15.2 23.6 15.3 23.6 15.4C23.7 15.9 23.5 16.3 23.1 16.3ZM23.1 13.1C23.4 12.9 23.5 13.1 23.8 13.4C23.8 13.5 23.8 13.7 23.7 13.8C23.4 14.1 23.3 13.8 23.1 13.6C23 13.5 22.9 13.3 23.1 13.1ZM25 18.6C24.8 18.4 24.6 18.3 24.4 18.1L24.3 18C24.2 17.9 24.1 17.8 24 17.7C24 17.6 23.9 17.6 23.9 17.5C23.9 17.6 23.8 17.7 23.8 17.9C23.6 17.7 23.5 17.6 23.5 17.5C23.5 17.4 23.6 17.3 23.7 17.2L23.8 17.3C23.8 17.1 23.9 16.9 24.2 16.8C24.3 16.8 24.3 16.7 24.4 16.7C24.7 16.7 25.4 17.6 25.3 17.9C25.3 18.2 25.1 18.4 25 18.6ZM29.4 15.7C29.4 15.8 29.3 15.9 29.3 16C29.6 16.4 29.2 16.6 28.9 16.8C28.8 16.9 28.6 16.8 28.5 16.8C28.4 16.8 28.4 16.6 28.5 16.5C28.5 16.3 28.5 16.2 28.6 16C28.7 15.8 28.8 15.6 28.9 15.4C29.1 15.4 29.2 15.3 29.3 15.3C29.4 15.4 29.4 15.6 29.4 15.7ZM28.9 12.5C29 12.5 29.1 12.6 29.2 12.7C29.3 12.8 29.3 12.9 29.3 13C29.3 13.1 29.2 13.2 29.2 13.2C29.1 13.1 28.9 13.1 28.8 13C28.7 12.9 28.7 12.7 28.6 12.6C28.7 12.5 28.8 12.5 28.9 12.5ZM28.5 14.8C28.5 15 28.5 15.2 28.4 15.3C28.3 15.4 28.1 15.3 28 15.3V15C28.1 14.9 28.3 14.9 28.5 14.8ZM27.8 11.1C27.8 11 27.9 11 28 10.9C28.1 10.9 28.3 10.8 28.3 10.9C28.4 10.9 28.3 11.1 28.3 11.2C28.3 11.4 28.2 11.5 28.2 11.7C28.2 12 28 12 27.8 11.9C27.4 11.7 27.4 11.4 27.8 11.1ZM27.6 13.9C28 14.3 27.8 14.8 27.3 14.9C27 15 26.7 14.9 26.4 14.8C26.4 14.8 26.3 14.6 26.4 14.5C26.5 14.3 26.7 14.1 26.8 14.1C27.2 13.6 27.3 13.6 27.6 13.9ZM26.3 10C26.3 9.7 26.4 9.7 26.7 9.8C26.6 9.5 26.6 9.4 26.9 9.3C27 9.3 27.2 9.4 27.2 9.5C27.2 9.7 27.3 10 27.1 10.1C27.2 10.3 27.2 10.4 26.9 10.6C26.8 10.7 26.7 10.7 26.6 10.8C26.5 10.8 26.4 10.9 26.3 10.8C26.2 10.8 26.2 10.6 26.2 10.5C26.2 10.4 26.3 10.2 26.3 10ZM26.2 9.9C26.3 10.2 26.2 10.4 25.9 10.5C25.6 10.6 25.3 10.7 25 10.7H25.1C25.2 10.7 25.3 10.7 25.5 10.7C25.5 10.8 25.4 11 25.4 11.1C25.4 11.2 25.3 11.2 25.2 11.3C25.1 11.3 25 11.3 24.8 11.4C24.7 11.4 24.5 11.4 24.4 11.4C24.2 11.4 24 11.4 24 11.2C24 11.1 24.1 10.9 24.2 10.8C24.3 10.8 24.3 10.8 24.4 10.7C24.3 10.6 24.3 10.5 24.2 10.4C24.2 10.2 24 9.9 24.4 9.8C24.6 9.7 24.8 9.7 25 9.6C25.2 9.6 25.4 9.5 25.6 9.5C26 9.5 26.1 9.6 26.2 9.9ZM24 7C24.1 6.9 24.3 7.1 24.5 7.1C24.5 7.2 24.5 7.2 24.5 7.3H24.6C24.8 7.3 25 7.2 25.2 7.2C25.3 7.2 25.5 7.4 25.5 7.5C25.5 7.6 25.4 7.8 25.3 7.8C24.9 7.9 24.5 7.9 24.1 8C24 8 23.9 7.9 23.8 7.8C23.9 7.7 23.9 7.6 24 7.6C23.9 7.3 23.8 7.1 24 7ZM23.5 9.3C23.6 9.4 23.8 9.6 24 9.7C24.1 9.8 24.3 10 24.1 10.2C23.9 10.4 23.8 10.4 23.6 10.2C23.4 10 23.2 9.7 22.8 9.9C22.6 9.7 22.3 9.5 22.2 9.2C22.2 9.1 22.5 8.8 22.6 8.6C22.6 8.6 22.8 8.6 22.9 8.7C23.2 8.9 23.3 9.1 23.5 9.3ZM22.6 7.7C22.8 7.8 23.1 7.8 23.1 7.9C23.2 8.2 22.9 8.2 22.7 8.3C22.5 8.3 22.3 8.4 22.3 8.2C22.2 8 22.4 7.8 22.6 7.7ZM21 11.3C21.1 11.1 21.2 10.9 21.3 10.8C21.4 10.6 21.7 10.6 21.8 10.8C22 11.2 22 11.5 21.5 11.6C21.4 11.6 21.3 11.7 21.1 11.6C21 11.6 20.9 11.5 21 11.3ZM4.1 19C4 19.1 3.8 19.1 3.8 19C3.7 19 3.8 18.8 3.7 18.6C3.9 18.6 4.1 18.6 4.1 18.7C4.2 18.8 4.2 19 4.1 19ZM6.5 22.1C6.4 22.1 6.3 22 6.2 21.9C6.3 21.8 6.4 21.6 6.5 21.6C6.6 21.6 6.7 21.7 6.9 21.8C6.6 22 6.5 22.1 6.5 22.1ZM10.2 24.7C10.1 24.7 10 24.6 9.8 24.5C9.9 24.4 10 24.3 10 24.2C10.1 24.3 10.2 24.3 10.3 24.4C10.4 24.5 10.3 24.7 10.2 24.7ZM10.6 22.5C10.4 22.5 10.2 22.4 10 22.4C9.9 22.4 9.7 22.4 9.5 22.4C9.4 22.4 9.2 22.4 9.2 22.3C9.2 22.2 9.2 22.1 9.3 22C9.4 21.9 9.5 21.8 9.7 21.7C9.8 21.6 9.9 21.6 9.9 21.5C10 21.4 10.1 21.3 10.1 21.2C10 21.2 10 21.2 9.9 21.3C9.7 21.3 9.5 21.3 9.3 21.3C9.1 21.3 9 21.1 9.2 21C9.4 20.9 9.7 20.8 9.9 20.7C9.7 20.5 9.6 20.5 9.3 20.7C9.1 20.8 8.9 21 8.8 21.1C8.5 21.4 8.3 21.3 8.1 21C7.9 20.8 7.8 20.6 8.1 20.3C8.2 20.2 8.3 20.2 8.3 20.1C8.3 20 8.4 19.9 8.4 19.9C8.4 19.9 8.3 19.8 8.2 19.8C7.8 19.8 7.5 19.6 7.4 19.3C7.2 19 7.5 18.9 7.6 18.8C7.9 18.6 8.1 18.2 8.5 18.4C8.9 18.6 9.2 19.1 9.1 19.6C9.1 19.8 9.2 20 9.4 19.9C9.7 19.8 9.8 20 10 20.2C10.2 20.4 10.4 20.7 10.6 20.9C10.8 21.1 11 21.3 10.8 21.6C10.7 21.7 10.9 21.9 11 22.1C11.1 22.3 11.1 22.4 11.1 22.6C10.9 22.5 10.8 22.5 10.6 22.5ZM11.8 13.4C11.9 13.5 12.1 13.5 12.1 13.3C12.1 13 12.4 12.9 12.6 12.9C12.7 12.9 12.8 12.9 12.9 12.8C13 12.7 13.1 12.4 13.3 12.4C13.5 12.4 13.7 12.6 13.8 12.6C14.2 12.6 14.2 13 14.2 13.2C14.3 13.5 14.1 13.5 13.9 13.6C13.7 13.6 13.6 13.7 13.4 13.7C12.6 13.9 11.8 14.1 10.9 14.3C10.7 14.4 10.4 14.5 10.1 14.4C9.9 14.4 9.6 14.1 9.4 14.1C9.1 14.1 9.3 14.6 8.9 14.7C8.7 14.7 8.5 14.8 8.3 14.9C8.2 14.9 7.4 14.5 7.4 14.4C7.4 14.3 7.5 14.1 7.6 14.1C8 14 8.4 13.9 8.7 13.8C9 13.8 9.3 13.7 9.5 13.6C10 13.5 10.5 13.4 10.9 13.2C11.2 13.2 11.5 13.1 11.8 13.4ZM11.4 11C11.6 11 11.7 11 11.9 11C11.9 11.3 12 11.5 12 11.6C11.7 11.8 11.6 11.5 11.5 11.4C11.3 11.4 11.4 11.2 11.4 11ZM14.4 12.5C14.7 12.2 14.9 12.3 15.1 12.6C15.1 12.6 15.2 12.7 15.3 12.8C15.3 12.9 15.4 13 15.5 13.2C15.5 13.5 15.5 13.6 15 13.5C14.7 13.5 14.5 13.5 14.3 13.2C14.1 12.8 14.1 12.7 14.4 12.5ZM14.3 14.1C14.3 14.2 14.3 14.3 14.3 14.4C14.3 14.4 14.1 14.4 14 14.4C14 14.3 14 14.1 14.1 14.1C14.1 14.1 14.2 14.1 14.3 14.1ZM12.1 15C12 15.1 11.8 15 11.7 14.9C11.6 14.7 11.3 14.5 11.5 14.2C11.6 14.1 11.8 14.3 11.9 14.3C12.2 14.6 12.4 14.8 12.1 15ZM12.8 21C12.6 21.1 12.4 20.9 12.4 20.7C12.4 20.5 12.5 20.3 12.6 20.1C12.7 20.2 12.9 20.3 13.1 20.5C13 20.8 13 21 12.8 21ZM12.9 17.2C12.8 17.1 12.8 17.1 12.7 17C12.6 17.1 12.4 17.1 12.2 17.2C11.5 17.4 10.8 17.5 10.2 17.6C10.1 17.6 9.9 17.7 9.8 17.7C9.4 17.8 9.1 17.9 8.7 18C8.2 18.1 8.1 18 8 17.4C8 17.3 8 17.2 8 17.1C8 16.9 8 16.7 8.2 16.6C8.4 16.6 8.7 16.4 8.9 16.7C9 16.8 9.2 16.9 9.3 16.8C9.7 16.7 10.3 16.8 10.4 16.1C10.4 16 10.6 16 10.7 15.9C11.2 15.8 11.6 15.6 12.1 15.5C12.8 15.3 13.5 15.2 14.2 15.1C14.4 15.1 14.7 15 14.8 15.3C14.9 15.6 15.1 15.8 14.7 16L14.6 16.1C14.6 16.4 14.4 16.5 14.1 16.6C14 17.1 14.3 17.3 14.6 17.5C14.8 17.7 15 17.9 15 18.1C15.1 18.2 15 18.4 15 18.6C14.7 18.8 14.5 18.7 14.3 18.6C14.1 18.4 13.9 18.3 14.1 18C14.3 17.8 14.1 17.6 14 17.4C13.9 17.2 13.7 17.1 13.5 17.3C13.2 17.5 13 17.3 12.9 17.2ZM14.6 19.3C14.6 19.4 14.6 19.5 14.6 19.5C14.6 19.6 14.5 19.6 14.4 19.7C14.3 19.8 14.1 19.8 13.9 19.9C14 19.8 14 19.6 14.1 19.5C14.2 19.4 14.3 19.3 14.4 19.3C14.4 19.3 14.5 19.3 14.6 19.3ZM13.6 23.8C13.5 23.8 13.5 23.8 13.3 23.8C13.4 23.7 13.4 23.6 13.4 23.6C13.5 23.6 13.6 23.6 13.6 23.7V23.8ZM13.8 22.7C13.7 22.7 13.6 22.7 13.5 22.6C13.6 22.5 13.6 22.3 13.7 22.3C13.8 22.3 13.9 22.4 14 22.4C13.9 22.6 13.9 22.7 13.8 22.7ZM14.5 23.1C14.4 23.1 14.2 23.1 14.1 23.1C13.9 23 14.1 22.6 14.4 22.5C14.5 22.4 14.7 22.5 14.8 22.5C14.9 22.8 14.7 22.9 14.5 23.1ZM15.1 19.9C15 19.9 14.9 19.8 14.6 19.7C14.8 19.5 14.9 19.4 15 19.4C15.1 19.4 15.2 19.5 15.3 19.6C15.3 19.7 15.2 19.9 15.1 19.9ZM16.9 22.6C16.8 22.5 16.7 22.5 16.6 22.4C16.5 22.3 16.5 22.2 16.5 22.1C16.5 22.1 16.5 22 16.5 21.9C16.5 21.8 16.6 21.7 16.6 21.7C16.7 21.7 16.8 21.7 16.8 21.8C16.9 22 17 22.1 17 22.3C17.1 22.4 16.9 22.5 16.9 22.6ZM18.5 25.1C18.4 25.1 18.3 25 18.2 25C18.3 24.9 18.3 24.7 18.4 24.7C18.5 24.7 18.6 24.8 18.7 24.8C18.6 25 18.5 25.1 18.5 25.1ZM18.6 22.2C18.3 22.4 18.1 22.4 17.9 22.2C17.8 22.1 17.7 22 17.5 21.9C17.2 21.6 16.6 21.4 16.1 21.5C15.9 21.5 15.7 21.4 15.8 21.3C16 20.8 15.8 20.5 15.5 20.2C15.2 19.8 15.5 19.5 15.4 19.1L15.5 19C15.7 19.1 15.9 19.1 16 19.2C16.1 19.3 16.1 19.5 16.1 19.6C15.9 20 15.9 20 16.4 20.1C16.7 20.1 17 20.1 17.3 20.2C17.6 20.3 17.8 20.5 17.8 20.9C17.8 21.2 17.8 21.2 18.1 21.2C18.4 21.2 18.8 21.5 18.8 21.8C18.8 22 18.7 22.1 18.6 22.2ZM16.5 17.4C16.4 17.5 16.1 17.7 16 17.5C15.9 17.4 16.1 17.1 16.2 16.8C16.4 16.8 16.6 16.8 16.7 16.9C16.8 17.1 16.6 17.3 16.5 17.4ZM17.1 19.1C17 19.4 16.9 19.6 16.8 19.8C16.8 19.9 16.6 19.9 16.6 19.9C16.5 19.8 16.4 19.6 16.3 19.5C16.4 19.4 16.4 19.1 16.5 19.1C16.6 19.1 16.9 19.1 17.1 19.1ZM21.4 18.3C21.5 18.4 21.6 18.5 21.6 18.6C21.6 18.7 21.5 18.8 21.4 18.8C21.3 18.8 21.2 18.7 21 18.6C21.3 18.5 21.4 18.4 21.4 18.3ZM20.3 18.2C20.3 18.2 20.4 18.2 20.4 18.3C20.4 18.4 20.4 18.4 20.3 18.5C20.3 18.5 20.2 18.5 20.1 18.4C20.3 18.3 20.3 18.3 20.3 18.2ZM18.6 16.8C19 17.2 19.4 17.7 19.8 18.2C20.2 18.7 20.6 19.1 21 19.6C21.1 19.7 21.1 19.9 21.1 20C21 20.2 20.8 20.1 20.6 20.1C20.4 20.1 20.1 20.2 19.9 20.4C19.7 20.6 19.5 20.8 19.2 20.9C19.1 21 18.9 21 18.8 20.9C18.6 20.8 18.4 20.6 18.5 20.3C18.6 20.2 18.6 20.1 18.7 19.9C18.9 19.5 18.8 19.3 18.4 19.2C17.7 19.2 17.5 18.6 17.1 18.2C17 18.1 17 17.9 17.1 17.8C17.3 17.6 17.4 17.3 17.4 17C17.4 16.8 17.7 16.6 17.9 16.5C18.2 16.6 18.5 16.7 18.6 16.8ZM16.1 13.9C16.3 13.9 16.6 13.9 16.8 14.1C16.9 14.2 16.8 14.5 16.9 14.7C17 14.9 17.2 15.1 17.3 15.3C17.5 15.5 17.6 15.7 17.8 15.9C17.9 16 17.9 16.2 17.8 16.3C17.7 16.4 17.6 16.4 17.4 16.4C17.2 16.4 17.1 16.4 16.9 16.3C16.8 16.3 16.7 16.2 16.5 16.2L16.6 16.1C16.3 15.7 15.9 15.3 15.6 14.9C15.3 14.6 15.4 14.3 15.7 14.1C15.8 13.9 16 13.8 16.1 13.9ZM16.5 10.9C16.4 10.9 16.3 10.8 16.2 10.8C16.3 10.7 16.3 10.5 16.4 10.5C16.5 10.5 16.6 10.6 16.7 10.6C16.6 10.7 16.5 10.8 16.5 10.9ZM18.5 10.3C18.8 10 18.9 10.1 19.3 10.5C19.5 10.7 19.6 10.9 19.3 11.1C19 11.4 18.7 11.3 18.5 11.1C18.2 10.7 18.2 10.6 18.5 10.3ZM18 9.4C17.9 9.4 17.7 9.4 17.7 9.4C17.6 9.3 17.6 9.2 17.6 9C17.8 9 18 9 18 9.1C18 9.1 18 9.2 18 9.4ZM16.3 7.6C16.5 7.8 16.6 7.8 16.9 7.8C16.8 7.3 16.6 6.8 16.5 6.3C16.5 6.1 16.5 5.9 16.6 5.8C16.8 5.6 17 5.7 17.1 5.9C17.1 6 17.3 6 17.4 6C17.7 6.1 17.7 6.3 17.4 6.4C17.1 6.6 17.1 6.7 17.2 7C17.4 7.5 17.4 7.5 16.9 7.7C16.8 8.2 16.6 8.4 16 8.4C15.6 8.4 15.5 8.4 15.5 7.9C15.5 7.8 15.6 7.5 15.7 7.5C15.8 7.5 16.1 7.3 16.3 7.6ZM15.5 4.9C15.6 5 15.8 5.1 15.8 5.1C15.8 5.2 15.7 5.3 15.6 5.3L15.4 5.2C15.3 5.2 15.4 5.1 15.5 4.9ZM14.6 6.2C14.9 6.1 15.1 6.2 15.1 6.5C15.2 6.9 15.2 7 14.7 7.1C14.5 7.2 14.3 7.2 14.2 6.9C14 6.5 14.1 6.3 14.6 6.2ZM13.8 7.9C13.7 7.8 13.5 7.6 13.4 7.5C13.3 7.4 13.2 7.3 13.2 7.2C13.2 7.2 13.2 7.2 13.2 7.3C13.2 7.4 13.2 7.5 13.1 7.5C13 7.5 12.9 7.5 12.9 7.5C12.8 7.3 12.8 7 12.7 6.8L12.9 6.7C13 6.8 13.1 6.9 13.1 6.9V6.8C13.2 6.7 13.3 6.7 13.4 6.8C13.7 7 13.9 7.3 14.2 7.6C14.3 7.7 14.2 7.9 14.2 8H14.1C14.4 8.1 14.7 8.1 15 8.3C15.2 8.4 15.2 8.6 15.1 8.9C15.2 8.9 15.2 8.9 15.3 8.9C15.5 8.9 15.8 8.9 15.8 9C15.9 9.1 15.8 9.4 15.8 9.6C15.8 9.8 15.7 10 15.7 10.1C15.5 10.2 15.4 10.2 15.3 10.2C15.3 10.1 15.2 10 15.2 9.9C15.2 9.6 15.1 9.4 14.7 9.5C14.6 9.5 14.5 9.5 14.4 9.4C14.3 9.5 14.3 9.6 14.3 9.9C14.3 10 14.3 10.2 14.2 10.2C14 10.3 13.8 10.3 13.6 10.3C13.6 10.2 13.6 10.2 13.6 10.1V10.2C13.5 10.5 13.6 10.7 13.7 10.9C13.9 11.2 13.9 11.4 13.6 11.6C13.5 11.9 13.4 12 13.1 11.9C12.8 11.8 12.6 11.4 12.7 11.1C12.7 11 12.7 10.9 12.7 10.8C12.7 10.6 12.8 10.5 12.8 10.4C13 10.3 13.1 10.2 13.2 10.1C13.4 10 13.5 10.1 13.5 10.2V10.1C13.5 10 13.6 9.8 13.7 9.7C13.6 9.7 13.4 9.6 13.3 9.6C13.1 9.6 12.9 9.7 12.7 9.7C12.4 9.8 12.3 9.7 12.2 9.5C11.9 9 11.9 8.9 12.5 8.7C12.9 8.6 13.3 8.6 13.5 8.2C13.5 8.1 13.7 8.1 13.9 8L13.8 7.9ZM11.5 5.6C11.6 5.4 11.6 5.2 11.5 5C11.5 4.9 11.5 4.8 11.5 4.8H11.7C11.8 4.9 12 5.1 12.2 5.3C12.8 5.5 12.3 6.1 12.4 6.5L12.2 6.6C11.9 6.4 11.6 6.1 11.4 5.8C11.4 5.9 11.4 5.7 11.5 5.6ZM11.2 7.6C11.2 7.8 11.1 7.9 11.1 8C11.1 8 11 8 11 7.9C10.9 7.7 11 7.6 11.2 7.6ZM10.8 8.8C10.8 8.7 10.9 8.6 11 8.5C11 8.5 11 8.4 11.1 8.4C11.2 8.4 11.4 8.4 11.4 8.4C11.5 8.5 11.5 8.6 11.4 8.7C11.5 8.8 11.5 8.9 11.4 9H11.5C11.6 9.1 11.7 9.2 11.7 9.3C11.7 9.4 11.6 9.5 11.5 9.5C11.2 9.6 10.8 9.7 10.5 9.8C10.2 9.9 9.9 10 9.6 10C9.4 10.1 9.2 10 9.2 9.8C9.2 9.6 9 9.3 9.3 9.2C9.8 8.9 10.3 8.8 10.8 8.8ZM8.5 6.7C8.7 6.7 9 6.6 9.2 6.6C9.3 6.6 9.3 6.6 9.4 6.7L9.5 6.6V6.5C9.6 6.5 9.8 6.6 9.9 6.6C10 6.7 9.9 7.5 9.8 7.6C9.7 7.6 9.5 7.6 9.5 7.6C9.3 7.3 9.2 7.1 9.2 7C9.1 7 9 7.1 8.9 7.2C8.8 7.2 8.7 7.3 8.7 7.4C8.5 7.4 8.5 7.6 8.4 7.7C8.3 7.5 8.2 7.4 8.2 7.3C8 6.8 8.1 6.8 8.5 6.7ZM7.4 11.6C7.5 11.7 7.6 11.7 7.6 11.8C7.6 11.9 7.6 12 7.5 12.1C7.4 12 7.3 11.9 7.3 11.9C7.3 11.8 7.4 11.7 7.4 11.6ZM6.9 17.2C6.9 17.3 6.9 17.5 6.8 17.5C6.6 17.6 6.3 17.7 6.1 17.7C6 17.7 5.8 17.7 5.6 17.7C5.5 17.7 5.3 17.7 5.3 17.6C5.3 17.5 5.3 17.3 5.4 17.2C5.5 17.2 5.6 17.1 5.7 17C5.8 16.9 5.8 16.9 5.9 16.8C6.3 16.5 6.8 16.7 6.9 17.2ZM5.5 7.5C5.6 7.5 5.7 7.4 5.7 7.4C5.8 7.4 6 7.5 6.1 7.6C6.1 7.7 6 7.8 5.9 7.9C5.9 8 5.8 8 5.6 8C5.5 8 5.3 7.9 5.3 7.8C5.1 7.6 5.4 7.5 5.5 7.5ZM3.5 14.9C3.7 14.7 3.8 14.6 3.7 14.3C3.6 14.1 3.7 13.8 3.8 13.5C3.9 13.2 4.2 13.3 4.5 13.7C4.5 13.7 4.6 13.9 4.5 14C4.3 14.3 4.5 14.4 4.6 14.6C4.7 14.7 4.7 14.8 4.8 14.9C4.8 14.9 4.8 14.9 4.9 14.9C5 14.9 5.1 14.9 5.2 14.9C5.4 14.8 5.5 14.9 5.6 15.1C5.7 15.3 5.9 15.5 5.7 15.7C5.7 15.7 5.5 15.9 5.4 16C5.2 16.2 4.9 16.2 4.6 16C4.5 15.9 4.3 15.8 4.1 15.8C3.7 15.8 3.3 15.6 3.3 15.3C3.3 15.2 3.4 15 3.5 14.9ZM2.6 13.2C2.7 13.1 2.8 13.1 2.9 13.1C2.9 13.2 2.9 13.4 2.8 13.4C2.7 13.4 2.6 13.4 2.5 13.5C2.6 13.3 2.5 13.2 2.6 13.2Z" fill="#FEFEFE"/>
</g>
<defs>
<clipPath id="clip0_0_1451">
<rect width="30" height="30" fill="white" transform="translate(0.5)"/>
</clipPath>
</defs>
</svg>
