<svg width="30" height="30" viewBox="0 0 30 30" fill="none" xmlns="http://www.w3.org/2000/svg">
<path d="M5.7998 29.9998H7.8998C7.8998 29.8998 7.9998 29.5998 8.1998 29.2998C7.7998 29.3998 7.4998 29.4998 7.0998 29.5998C6.7998 29.6998 6.4998 29.6998 6.1998 29.7998C5.9998 29.8998 5.8998 29.8998 5.7998 29.9998Z" fill="#FEFEFE"/>
<path d="M7.4999 0.4C7.4999 0.5 7.4999 0.7 7.4999 0.7C7.6999 1 7.5999 1.2 7.3999 1.3C6.9999 1.6 6.8999 1.6 6.5999 1.2C6.4999 1.1 6.3999 1 6.2999 0.9C6.1999 0.7 5.9999 0.5 5.8999 0.3C5.8999 0.2 5.8999 0.1 5.8999 0H4.9999V6.6C5.1999 6.4 5.3999 6.2 5.3999 5.8C5.3999 5.8 5.5999 5.7 5.6999 5.8C6.0999 6 6.2999 6.4 6.2999 6.9C6.2999 7.1 6.2999 7.3 6.5999 7.3C6.7999 7.3 6.9999 7.2 7.0999 7.4C7.0999 7.6 6.9999 7.7 6.8999 7.8C6.3999 8.1 6.2999 8.1 5.9999 7.8C5.6999 7.5 5.4999 7 4.9999 7.2V25V25.1C4.9999 25.2 4.9999 25.3 4.9999 25.4C4.9999 25.6 5.0999 25.8 4.8999 25.9V29.4C4.9999 29.4 5.0999 29.3 5.1999 29.3C5.4999 29.2 5.6999 29.2 5.8999 28.9C6.0999 28.5 6.5999 28.5 6.8999 28.8C7.0999 29 7.1999 28.9 7.3999 28.7C7.4999 28.6 7.5999 28.4 7.6999 28.4C7.8999 28.3 8.0999 28.3 8.1999 28.4C8.2999 28.5 8.2999 28.5 8.2999 28.6C8.6999 27.5 9.3999 25.9 9.6999 25.1C9.7999 25 9.8999 24.8 9.9999 24.7C9.8999 24.7 9.8999 24.8 9.7999 24.8C9.4999 24.9 9.4999 24.6 9.3999 24.4C9.3999 24.2 9.2999 24.1 9.3999 24H9.2999C9.0999 23.9 9.0999 23.6 9.1999 23.1C9.2999 22.8 9.2999 22.4 9.3999 22.1C9.3999 22 9.3999 22 9.2999 21.9C9.0999 21.7 8.8999 21.4 8.6999 21.3C8.5999 21.2 8.4999 21.2 8.2999 21.1C7.7999 21.1 7.5999 20.8 7.5999 20.3C7.5999 20.2 7.5999 20 7.4999 19.9C7.2999 19.6 7.0999 19.4 7.2999 19C7.3999 18.8 7.2999 18.4 7.2999 18.1C7.2999 18 7.3999 17.9 7.3999 17.8C7.4999 17.8 7.6999 17.9 7.7999 17.9C7.9999 18.1 8.0999 18.3 8.2999 18.5C8.4999 18.7 8.6999 18.9 8.7999 19.2C8.8999 19.3 8.9999 19.5 8.8999 19.6C8.7999 19.9 8.8999 20.1 9.1999 20.3C9.2999 20.4 9.4999 20.5 9.5999 20.6C9.9999 19.8 10.2999 19 10.4999 18.2C10.4999 18.2 10.3999 18.2 10.3999 18.1C10.4999 18.1 10.4999 18 10.5999 18C10.8999 17.1 11.2999 16.1 11.4999 15.1C11.4999 15.1 11.3999 15.2 11.2999 15.2C11.1999 15.2 10.9999 15 10.8999 14.8C10.8999 14.7 10.9999 14.7 10.9999 14.6C10.8999 14.6 10.6999 14.5 10.4999 14.6C10.4999 14.6 10.2999 14.4 10.2999 14.3C10.3999 14.1 10.4999 14 10.6999 13.8C10.9999 13.8 11.3999 13.7 11.6999 13.8C11.7999 13.8 11.7999 13.8 11.8999 13.8C12.0999 13.1 12.3999 12.4 12.5999 11.8C12.7999 11.2 13.0999 10.7 13.0999 10.5C13.0999 10.3 13.0999 10.2 13.0999 10C13.0999 9.7 13.0999 9.4 13.1999 9.1C13.1999 9 13.0999 8.9 12.8999 8.8C12.3999 8.3 11.8999 7.8 11.4999 7.2C11.1999 6.9 10.8999 6.6 11.0999 6.1C11.0999 6 11.0999 5.9 10.9999 5.8C10.6999 5.3 10.2999 4.9 9.9999 4.4C9.7999 4.3 9.6999 4.1 9.3999 4.2C8.9999 4.3 8.3999 3.6 8.4999 3.1C8.5999 2.6 8.4999 2.6 8.0999 2.6C7.6999 2.6 7.5999 2.4 7.4999 2.2C7.3999 2.1 7.5999 1.9 7.5999 1.7C7.5999 1.6 7.6999 1.6 7.6999 1.6C8.1999 1.1 8.3999 1.1 8.7999 1.6C8.9999 1.8 9.1999 2 9.2999 2.1C9.4999 2.3 9.5999 2.5 9.7999 2.7C9.7999 2.8 9.8999 3 9.8999 3.1C9.5999 3.5 9.9999 3.8 10.1999 4.1C10.2999 4.2 10.2999 4.3 10.3999 4.3C10.6999 4.7 10.9999 4.8 11.3999 4.6C11.7999 4.4 11.7999 4.5 11.6999 4.8C11.6999 5.1 11.8999 5.4 11.5999 5.7C11.5999 5.8 11.7999 6.1 11.9999 6.2C12.0999 6.3 12.2999 6.2 12.3999 6.1C12.7999 6 12.9999 5.8 13.1999 5.7C13.2999 5.6 13.4999 5.7 13.5999 5.6C13.5999 5.7 13.5999 6 13.4999 6C12.9999 6.3 13.1999 6.8 13.0999 7.2C12.9999 7.4 13.1999 7.5 13.3999 7.4C13.6999 7.3 13.7999 7.4 13.8999 7.6C14.0999 7.3 14.4999 7 15.0999 6.7C15.8999 6.3 16.8999 6 17.5999 5.8C17.8999 5.7 18.1999 5.6 18.2999 5.5C18.6999 5.3 19.3999 5.2 19.6999 5.4C19.7999 5.4 19.7999 5.5 19.7999 5.5V5.6H19.6999C19.4999 5.7 19.3999 5.9 19.1999 6.1C19.0999 6.2 19.0999 6.3 18.9999 6.3C18.7999 6.5 18.6999 6.6 18.5999 6.8C17.9999 7.4 17.5999 7.8 17.8999 8.9C17.9999 9.3 18.2999 9.4 18.4999 9.5C18.5999 9.5 18.6999 9.6 18.6999 9.6C19.0999 9.8 19.3999 10.1 19.7999 10.6C20.2999 11.3 20.2999 12.3 20.2999 13.1C20.2999 13.2 20.2999 13.3 20.2999 13.4C20.2999 13.8 20.2999 14.3 20.1999 15C20.3999 15.4 20.7999 15.7 21.1999 15.8C21.4999 15.8 21.7999 16.1 21.6999 16.4C21.6999 16.7 21.6999 17.1 21.6999 17.4C21.6999 17.5 21.7999 17.6 21.8999 17.6C22.2999 17.5 22.4999 17.7 22.7999 17.9C23.0999 18.1 23.1999 17.9 23.3999 17.8C23.5999 17.6 23.7999 17.6 23.9999 17.8C24.0999 18 24.2999 18.2 24.0999 18.5C23.6999 18.9 23.7999 19.1 24.1999 19.6C24.5999 20 24.8999 20.4 25.2999 20.8C25.3999 20.8 25.3999 20.8 25.4999 20.8C25.6999 20.8 25.8999 20.9 25.9999 20.9C25.9999 21 25.9999 21 25.9999 21.1C25.8999 21.1 25.7999 21.2 25.6999 21.2C25.8999 21.3 26.0999 21.2 26.1999 21.4V16.2C26.0999 16.2 26.0999 16.2 25.9999 16.2C25.8999 16.1 25.8999 15.9 25.8999 15.8C26.0999 15.5 25.8999 15.4 25.7999 15.2C25.6999 14.9 25.4999 15 25.2999 15C24.9999 15 24.7999 14.7 24.5999 14.5C24.4999 14.4 24.7999 14.1 24.8999 13.9C25.0999 13.9 25.2999 13.9 25.4999 13.9C25.6999 13.9 25.9999 13.9 26.0999 14C26.1999 14.1 26.0999 14.5 26.1999 14.6C26.1999 14.6 26.1999 14.6 26.1999 14.7V10C26.1999 10 26.1999 9.9 26.0999 9.9C25.6999 9.7 25.8999 9.3 25.8999 8.9C25.7999 8.9 25.6999 8.8 25.5999 8.8C25.4999 8.7 25.4999 8.7 25.4999 8.6C25.0999 8.3 25.0999 8.3 25.5999 8C25.6999 8 25.7999 7.9 25.8999 7.9C25.9999 7.9 26.0999 7.9 26.2999 7.8V6.8C25.8999 6.9 25.7999 6.9 25.6999 6.5C25.5999 6.1 25.5999 6 25.9999 5.9C26.0999 5.9 26.1999 5.9 26.2999 5.8V3.8C26.1999 3.4 25.6999 3 25.3999 3C25.0999 3 24.9999 2.9 25.0999 2.7C25.2999 2.4 25.0999 2.2 24.8999 2C23.9999 1.4 23.3999 0.7 22.8999 0H7.3999C7.4999 0.1 7.4999 0.3 7.4999 0.4ZM5.7999 5.2C5.7999 5.1 5.6999 5.1 5.5999 5C5.5999 5 5.5999 4.9 5.6999 4.7C5.7999 4.9 5.8999 4.9 5.8999 5C5.8999 5.1 5.8999 5.1 5.7999 5.2ZM5.4999 16.2C5.5999 16.2 5.7999 16.1 5.8999 16.2C6.0999 16.3 6.1999 16.5 6.2999 16.7C6.3999 16.8 6.4999 16.9 6.4999 17.1C6.4999 17.2 6.3999 17.3 6.3999 17.4C6.2999 17.3 6.1999 17.3 6.0999 17.2C6.0999 17.4 6.0999 17.6 5.8999 17.6C5.7999 17.6 5.5999 17.4 5.4999 17.3C5.3999 17.2 5.2999 17.1 5.2999 17C4.9999 16.7 4.9999 16.6 5.4999 16.2ZM5.9999 19.3C5.9999 19.4 5.9999 19.5 5.8999 19.8C5.6999 19.6 5.5999 19.6 5.5999 19.5C5.5999 19.4 5.6999 19.3 5.6999 19.2C5.7999 19.2 5.9999 19.2 5.9999 19.3ZM5.2999 23.4C5.1999 23.3 5.2999 23.2 5.1999 23C5.3999 23 5.4999 23 5.4999 23.1C5.4999 23.2 5.4999 23.3 5.4999 23.4C5.4999 23.4 5.3999 23.5 5.2999 23.4ZM8.1999 24.2C8.2999 24.3 8.2999 24.5 8.2999 24.6C7.9999 24.8 7.9999 25.1 7.9999 25.4C7.9999 25.5 7.8999 25.6 7.8999 25.6C7.7999 25.6 7.7999 25.5 7.6999 25.5C7.6999 25.5 7.6999 25.4 7.5999 25.4C7.1999 24.9 6.9999 24.8 6.3999 25.1C6.0999 25.2 5.8999 25.2 5.6999 24.9C5.6999 24.8 5.5999 24.8 5.5999 24.7C5.2999 24.4 5.2999 24.4 5.6999 24.2C5.9999 24.1 6.2999 24.1 6.5999 24C6.6999 24 6.8999 24 6.9999 23.9C7.4999 23.6 7.7999 24 8.1999 24.2ZM7.4999 16C7.3999 15.9 7.1999 15.8 7.0999 15.7C7.1999 15.5 7.1999 15.3 7.2999 15.2C7.3999 15.1 7.6999 15 7.8999 15C7.8999 15 8.0999 15.2 7.9999 15.2C7.8999 15.5 7.6999 15.7 7.4999 16ZM8.2999 13.4C8.0999 13.4 7.9999 13.5 7.7999 13.5C7.2999 13.6 6.7999 13.8 6.2999 13.9C5.9999 14 5.6999 14.1 5.4999 13.7C5.4999 13.6 5.2999 13.6 5.2999 13.6C5.1999 13.5 5.0999 13.5 5.0999 13.4C5.1999 13.4 5.3999 13.2 5.4999 13.3C5.7999 13.6 6.1999 13.4 6.4999 13.4C6.8999 13.3 7.1999 13.2 7.5999 13.2C7.7999 13.1 7.9999 13.1 8.1999 13C8.2999 13 8.4999 13.1 8.5999 13.2C8.5999 13.2 8.4999 13.3 8.2999 13.4ZM9.8999 15.5C9.4999 15.6 9.1999 15.4 8.9999 15C8.8999 14.7 9.0999 14.6 9.3999 14.5C9.8999 14.4 9.9999 14.4 10.0999 14.9C10.0999 15.1 10.2999 15.4 9.8999 15.5ZM9.7999 9.1C9.7999 9.2 9.7999 9.3 9.7999 9.4C9.6999 9.4 9.4999 9.4 9.4999 9.3C9.3999 9.3 9.4999 9.1 9.4999 8.9C9.5999 8.9 9.6999 9 9.7999 9.1ZM8.3999 7.7C8.5999 7.6 8.7999 7.3 8.9999 7.6C9.0999 7.7 8.8999 8 8.7999 8.2C8.5999 8.2 8.4999 8.2 8.3999 8.1C8.1999 7.9 8.2999 7.7 8.3999 7.7ZM8.2999 9.9C8.5999 9.8 8.9999 10 9.2999 10.2C9.4999 10.3 9.5999 10.5 9.7999 10.6C10.0999 10.9 10.2999 10.9 10.5999 10.6C10.9999 10.3 11.7999 10.5 11.9999 10.9L12.0999 11C11.9999 11.3 12.0999 11.6 12.1999 11.9C12.1999 11.9 12.2999 11.9 12.2999 12C12.2999 12 12.2999 12.1 12.2999 12.2C12.2999 12.2 12.2999 12.4 12.1999 12.4C12.1999 12.4 12.0999 12.4 11.9999 12.4C11.7999 12.5 11.4999 12.4 11.2999 12.3C11.1999 12.2 11.1999 12.2 11.0999 12.2C10.9999 12.2 10.8999 12.2 10.7999 12.2C10.6999 12.4 10.4999 12.6 10.3999 12.8C10.3999 12.8 10.0999 12.8 9.9999 12.7L9.8999 12.8C9.7999 12.9 9.7999 13 9.6999 13.1C9.6999 13.1 9.4999 13 9.4999 12.9C9.4999 12.8 9.5999 12.7 9.5999 12.5C9.5999 12.4 9.6999 12.4 9.6999 12.3C9.5999 12.2 9.5999 12.1 9.6999 12C9.6999 11.9 9.6999 11.7 9.6999 11.6C9.5999 11.6 9.3999 11.6 9.2999 11.6C8.8999 11.8 8.4999 11.7 8.2999 11.4C8.2999 11.3 8.1999 11.3 8.1999 11.2C8.0999 11 7.8999 10.9 7.5999 11C7.3999 11 7.2999 10.8 7.4999 10.7C7.6999 10.3 7.9999 10 8.2999 9.9ZM21.1999 13.6C21.0999 13.5 20.9999 13.4 20.8999 13.3C20.8999 13.1 20.8999 13.1 20.8999 13C20.8999 12.9 20.9999 12.8 20.9999 12.8C20.9999 12.8 21.0999 12.8 21.1999 12.9C21.1999 13 21.2999 13 21.2999 13.1C21.2999 13.3 21.2999 13.4 21.1999 13.6ZM21.8999 11.9C21.8999 11.9 21.6999 11.9 21.5999 11.8C21.6999 11.7 21.6999 11.6 21.7999 11.5L21.9999 11.6C21.9999 11.7 21.8999 11.8 21.8999 11.9ZM22.4999 9.5L22.5999 9.3C23.0999 9.1 23.5999 9 24.0999 8.8C24.1999 8.8 24.3999 8.9 24.3999 9C24.3999 9.1 24.3999 9.2 24.2999 9.2C24.3999 9.2 24.3999 9.2 24.3999 9.3C24.3999 9.3 24.3999 9.4 24.3999 9.5C24.2999 9.5 24.2999 9.5 24.1999 9.5C24.1999 9.5 24.1999 9.5 24.1999 9.4C23.9999 9.5 23.6999 9.5 23.3999 9.6C23.2999 9.6 22.9999 9.7 22.7999 9.7C22.6999 9.7 22.5999 9.6 22.4999 9.5ZM22.5999 8.2C22.6999 8 22.7999 7.8 22.8999 7.6C22.9999 7.5 23.1999 7.6 23.2999 7.6C23.2999 7.8 23.2999 7.9 23.2999 8.2C22.9999 8.2 22.7999 8.2 22.5999 8.2ZM25.7999 10.7C25.7999 10.8 25.7999 10.9 25.7999 10.9H25.5999C25.5999 10.8 25.5999 10.7 25.5999 10.6C25.5999 10.7 25.6999 10.7 25.7999 10.7ZM24.9999 10.6C25.2999 10.5 25.3999 10.8 25.3999 11C25.4999 11.2 25.4999 11.4 25.1999 11.5C24.8999 11.6 24.6999 11.6 24.3999 11.7C24.2999 11.7 24.2999 11.7 24.1999 11.7C24.1999 11.9 24.2999 12.1 24.1999 12.2C24.0999 12.4 23.8999 12.7 23.4999 12.5C23.3999 12.5 23.3999 12.4 23.2999 12.4C23.0999 12.4 22.7999 12.4 22.7999 12.3C22.6999 12.1 22.6999 11.8 22.6999 11.5C22.6999 11.4 22.7999 11.4 22.7999 11.3C22.8999 11.3 22.9999 11.2 23.1999 11.3C23.7999 10.9 24.3999 10.8 24.9999 10.6ZM24.8999 10.3C24.8999 10.4 24.8999 10.5 24.7999 10.6C24.6999 10.6 24.5999 10.6 24.5999 10.5V10.3C24.5999 10.3 24.6999 10.3 24.8999 10.3ZM24.6999 7.3C24.5999 7.3 24.3999 7.2 24.2999 7.1C24.0999 7 23.9999 6.9 23.8999 6.7C23.8999 6.7 23.8999 6.7 23.8999 6.8C23.9999 7.2 23.8999 7.3 23.3999 7.4C23.0999 7.5 22.7999 7.2 22.7999 6.8C22.7999 6.5 22.8999 6.4 23.2999 6.3C23.3999 6.3 23.4999 6.3 23.4999 6.3C23.3999 6.2 23.2999 6 23.0999 5.9C22.9999 6 22.7999 6.1 22.6999 6C22.4999 5.9 22.3999 5.6 22.2999 5.4C22.1999 5.2 22.2999 5 22.2999 4.8C22.2999 4.7 22.4999 4.6 22.4999 4.6C22.7999 4.6 23.0999 5.1 22.9999 5.4C22.8999 5.6 22.9999 5.8 23.0999 5.9C23.2999 5.6 23.5999 5.6 23.7999 5.9C23.9999 6.2 24.2999 6.5 24.4999 6.8C24.6999 7 24.8999 7.1 24.6999 7.3ZM23.5999 2.2C24.1999 2.1 24.3999 2.2 24.3999 2.5C24.3999 3 24.2999 3 23.9999 2.9C23.8999 2.9 23.7999 2.9 23.7999 2.9C23.5999 2.9 23.3999 2.8 23.3999 2.6C23.3999 2.4 23.5999 2.3 23.5999 2.2ZM22.0999 0.7C22.1999 0.7 22.2999 0.8 22.3999 0.8C22.3999 0.9 22.2999 1 22.1999 1C22.0999 1 21.9999 1 21.8999 0.9C21.9999 0.8 21.9999 0.7 22.0999 0.7ZM21.5999 3.4C21.9999 3.6 22.1999 3.3 22.3999 3.2C22.5999 3.1 22.7999 3 22.9999 2.9C23.0999 2.9 23.1999 2.9 23.1999 2.9V3.1C22.8999 3.6 22.3999 3.8 21.8999 4.1C21.7999 4.1 21.5999 4 21.5999 4C21.4999 3.8 21.3999 3.8 21.3999 3.7C21.2999 3.5 21.4999 3.3 21.5999 3.4ZM20.3999 8.2C20.5999 8.6 20.7999 8.9 21.2999 8.9C21.3999 8.9 21.5999 9 21.6999 9C21.9999 9.2 22.1999 9.5 22.3999 9.8C22.4999 9.9 22.6999 10.2 22.5999 10.3C22.4999 10.5 22.1999 10.8 22.0999 10.7C21.6999 10.6 21.1999 10.8 20.8999 10.3C20.8999 10.2 20.7999 10 20.7999 9.9C20.6999 9.9 20.6999 9.9 20.5999 9.9C20.6999 9.9 20.6999 9.8 20.6999 9.8C20.6999 9.5 20.4999 9.3 20.1999 9.3C19.6999 9.2 19.4999 8.9 19.3999 8.4C19.2999 8.4 19.2999 8.4 19.1999 8.4C19.0999 8.4 18.9999 8.2 18.8999 8.1C18.8999 7.9 18.8999 7.8 18.8999 7.7C18.8999 7.6 18.9999 7.5 19.0999 7.6C19.0999 7.5 18.9999 7.4 19.1999 7.3C19.3999 7.1 19.4999 6.9 19.8999 7C19.9999 7 20.1999 7 20.3999 7C20.4999 7 20.5999 7.1 20.6999 7.2C20.6999 7.3 20.6999 7.4 20.5999 7.5L20.4999 7.6C20.3999 7.7 20.1999 7.8 20.3999 8.2ZM20.0999 1.9C20.1999 1.8 20.2999 1.9 20.4999 1.8C20.4999 2 20.4999 2.2 20.3999 2.2C20.2999 2.3 20.0999 2.2 20.0999 2.2C20.0999 2.2 19.9999 1.9 20.0999 1.9ZM19.0999 0.4C19.0999 0.5 19.0999 0.6 19.0999 0.7C18.9999 0.7 18.8999 0.7 18.7999 0.7C18.7999 0.7 18.7999 0.5 18.7999 0.4C18.8999 0.3 18.9999 0.3 19.0999 0.4ZM17.3999 4.9C17.6999 4.5 17.8999 4.5 18.2999 4.8C18.4999 4.6 18.7999 4.4 18.9999 4.2C19.0999 4.2 19.0999 4.1 19.0999 4.1V4C19.0999 3.8 18.8999 3.6 19.1999 3.5C19.2999 3.5 19.4999 3.7 19.6999 3.8C19.5999 3.9 19.5999 4 19.5999 4.1L19.6999 4.2C19.8999 4 20.0999 3.9 20.2999 4.2C20.3999 4.3 20.3999 4.5 20.4999 4.7C20.2999 4.6 20.1999 4.6 19.9999 4.5C19.8999 4.4 19.7999 4.3 19.5999 4.2C19.2999 4.4 19.0999 4.6 18.7999 4.8C18.4999 5 18.3999 5 18.1999 4.7C17.9999 5 17.8999 5.1 17.5999 5.3C17.4999 5.4 17.3999 5.3 17.1999 5.3C17.2999 5.2 17.2999 5 17.3999 4.9ZM16.3999 3.3C16.4999 3.4 16.4999 3.4 16.3999 3.3C16.6999 3.5 16.9999 3.2 16.9999 3.5C16.9999 3.7 16.7999 4 16.6999 4.1C16.4999 4.2 16.3999 4.3 16.1999 4.3C16.0999 4.3 15.8999 4.3 15.8999 4.3C15.7999 4 15.6999 3.7 15.7999 3.4C15.8999 3.2 16.1999 3.2 16.3999 3.3ZM14.3999 1.5C14.5999 1.6 14.8999 1.6 14.9999 1.8C15.1999 1.9 15.1999 2.1 14.9999 2.2C14.7999 2.4 14.5999 2.2 14.3999 1.9C14.3999 1.8 14.3999 1.7 14.3999 1.5ZM13.3999 0.3C13.4999 0.2 13.6999 0.3 13.9999 0.3C13.9999 0.6 14.0999 0.9 13.9999 0.9C13.6999 1.1 13.5999 0.8 13.3999 0.7C13.1999 0.6 13.1999 0.4 13.3999 0.3ZM12.7999 3.9C12.7999 3.8 12.8999 3.6 12.8999 3.5C12.9999 3.5 13.1999 3.6 13.2999 3.7C13.2999 3.9 13.3999 4.1 13.3999 4.2C13.1999 4.3 12.9999 4.5 12.7999 4.6C12.6999 4.5 12.5999 4.4 12.5999 4.3C12.5999 4.1 12.6999 4 12.7999 3.9ZM12.0999 2.6C12.1999 2.6 12.3999 2.6 12.3999 2.6C12.3999 2.7 12.3999 2.8 12.3999 2.9C12.2999 3 12.1999 3 12.0999 2.9C11.9999 2.9 12.0999 2.8 12.0999 2.6ZM11.0999 1.4C11.2999 1.5 11.3999 1.5 11.3999 1.5V1.7C11.2999 1.7 11.1999 1.8 11.0999 1.7C11.0999 1.8 11.0999 1.6 11.0999 1.4ZM10.9999 3H11.1999C11.1999 3.1 11.1999 3.2 11.2999 3.2C11.1999 3.2 11.1999 3.2 11.0999 3.2C10.9999 3.2 10.9999 3.1 10.9999 3Z" fill="#FEFEFE"/>
<path d="M11.3999 11.6002C11.2999 11.5002 11.0999 11.3002 10.9999 11.2002C10.8999 11.2002 10.7999 11.1002 10.6999 11.2002C10.5999 11.2002 10.5999 11.4002 10.5999 11.5002C10.5999 11.6002 10.5999 11.6002 10.6999 11.7002C10.8999 11.6002 11.1999 11.6002 11.3999 11.6002Z" fill="#FEFEFE"/>
<path d="M21.6 18.7002C21.3 18.8002 21.2 18.6002 21.1 18.5002C20.9 18.2002 20.6 18.0002 20.4 17.7002C20.2 17.5002 20.1 17.3002 19.8 17.2002C19.6 18.3002 19.3 19.3002 19 19.7002C18.9 19.8002 18.9 19.9002 18.8 19.9002C18.7 19.9002 18.7 19.9002 18.7 19.9002C18.6 19.9002 18.6 19.8002 18.6 19.6002C18.5 19.8002 18.3 20.2002 18.1 20.5002C18.2 20.8002 18.3 21.1002 18.3 21.4002L18.4 21.5002C18.4 21.6002 18.3 21.7002 18.3 21.8002V21.9002C18.3 22.1002 18 22.3002 17.8 22.5002C17.7 22.6002 17.6 22.7002 17.5 22.8002C17.3 22.9002 17.1 23.0002 17 23.0002C16.7 23.3002 16.4 23.4002 16.3 23.4002C16.2 23.6002 16.1 23.7002 16 23.9002C16 24.0002 16 24.0002 16 24.1002H15.9C15.5 24.6002 15.1 25.1002 14.8 25.2002C14.6 25.3002 14.5 25.2002 14.5 25.2002C14.4 25.0002 14.2 25.0002 14.1 25.1002C13.9 25.2002 13.7 25.4002 13.5 25.7002C13.8 25.9002 14.1 26.2002 14.3 26.4002C14.3 26.4002 14.3 26.4002 14.2 26.5002C14.6 27.0002 15.1 27.4002 15.5 27.9002C15.7 28.1002 15.9 28.3002 15.7 28.6002C15.5 28.8002 15.1 29.0002 14.8 28.8002C14.7 28.8002 14.7 28.7002 14.6 28.7002C14.1 28.9002 14 28.7002 14.2 28.2002C14.2 28.2002 14.2 28.2002 14.2 28.1002C14.1 28.2002 14 28.4002 13.8 28.4002C13.4 28.5002 13.3 28.4002 13.2 28.0002C13.1 27.6002 13.2 27.6002 13.6 27.4002C13.7 27.4002 13.8 27.4002 13.8 27.4002C13.8 27.3002 13.8 27.2002 13.8 27.1002C13.8 26.9002 13.6 26.6002 13.4 26.4002C13.3 26.3002 13.1 26.5002 12.9 26.5002C12.8 26.5002 12.7 26.6002 12.6 26.6002C12.6 26.6002 12.6 26.6002 12.5 26.6002C12.4 26.8002 12.3 27.1002 12.1 27.3002C12 27.5002 11.9 27.7002 11.8 27.8002C11.9 27.8002 12 27.7002 12.1 27.7002C12.2 27.7002 12.3 27.8002 12.4 27.8002C12.3 27.9002 12.3 28.0002 12.2 28.1002C11.9 28.2002 11.7 28.3002 11.4 28.3002C11.3 28.4002 11.3 28.5002 11.3 28.5002C11.3 28.5002 11.2 28.6002 11.2 28.7002C11.2 28.8002 11.2 28.9002 11.2 28.9002C11.2 28.9002 11.1 29.0002 11 29.0002C10.9 29.1002 10.8 29.3002 10.7 29.5002C11.1 29.7002 11 29.8002 10.9 30.0002H15.9C15.9 29.9002 15.9 29.7002 15.8 29.6002C15.8 29.6002 15.9 29.4002 16 29.3002C16.1 29.3002 16.2 29.3002 16.3 29.3002C16.4 29.4002 16.4 29.5002 16.5 29.6002C16.6 29.7002 16.8 29.8002 16.8 29.8002C17 29.7002 17.2 29.8002 17.3 29.9002H23L23.6 29.3002H23.5C23.4 29.2002 23.3 29.2002 23.2 29.3002C22.8 29.4002 22.8 29.1002 22.6 28.9002C22.4 28.7002 22.6 28.5002 22.7 28.4002C22.8 28.3002 23 28.1002 23.1 28.0002C23.2 27.9002 23.4 27.9002 23.5 27.9002C23.5 28.0002 23.5 28.2002 23.5 28.3002C23.5 28.4002 23.6 28.6002 23.6 28.7002C23.7 28.8002 23.8 28.9002 23.9 29.1002L25.9 27.0002C25.8 26.9002 25.8 26.8002 25.7 26.7002C25.7 26.6002 25.8 26.4002 25.8 26.4002C25.8 26.4002 25.8 26.4002 25.9 26.4002V23.8002H25.8C25.6 23.9002 25.5 23.8002 25.3 23.6002C24.7 22.9002 24.2 22.2002 23.5 21.5002C23.3 21.3002 23 21.1002 22.7 21.0002C22.3 20.9002 22.1 20.6002 22.1 20.1002C22.1 19.8002 22 19.5002 22.1 19.2002C22.3 19.0002 21.9 18.6002 21.6 18.7002ZM13.7 29.9002C13.5 29.9002 13.2 29.9002 13 29.9002C13 29.8002 13 29.7002 13 29.7002C13.1 29.6002 13.2 29.6002 13.3 29.6002C13.4 29.6002 13.5 29.6002 13.6 29.6002C13.7 29.6002 13.7 29.7002 13.7 29.8002C13.8 29.8002 13.7 29.9002 13.7 29.9002ZM15.9 25.9002C16 26.0002 16 26.1002 16 26.2002C15.9 26.2002 15.7 26.2002 15.7 26.2002C15.6 26.1002 15.6 26.0002 15.5 25.8002C15.7 25.8002 15.9 25.8002 15.9 25.9002ZM17.6 26.6002H17.5C17.5 26.6002 17.5 26.6002 17.6 26.6002C17.6 26.7002 17.5 26.8002 17.5 26.9002C17.5 27.0002 17.4 27.0002 17.3 27.1002C17.1 27.5002 17.1 27.5002 16.7 27.3002C16.5 27.1002 16.3 27.2002 16.3 27.5002C16.2 27.8002 16.1 27.8002 15.8 27.6002C15.7 27.5002 15.6 27.5002 15.4 27.4002C15.3 27.4002 15.2 27.3002 15.2 27.2002C15.2 27.1002 15.3 27.0002 15.3 27.0002C15.4 26.9002 15.5 26.7002 15.6 26.6002C15.7 26.4002 15.9 26.3002 16 26.5002C16.2 26.7002 16.4 26.7002 16.6 26.6002C16.8 26.5002 17 26.5002 17.2 26.5002C17.2 26.5002 17.2 26.5002 17.3 26.5002C17.3 26.4002 17.3 26.4002 17.3 26.2002C17.5 26.2002 17.6 26.2002 17.7 26.3002C17.7 26.4002 17.6 26.6002 17.6 26.6002ZM23.5 24.9002C23.7 24.6002 23.9 24.2002 24.4 24.3002C24.5 24.3002 24.7 24.3002 24.7 24.4002C24.9 24.7002 25.2 24.6002 25.4 24.5002C25.6 24.5002 25.8 24.4002 25.8 24.6002C25.9 24.8002 25.6 24.9002 25.5 24.9002C25.4 24.9002 25.3 24.9002 25.2 25.0002C25 25.1002 24.5 25.1002 24.4 25.6002C24.4 25.8002 24 25.9002 23.9 25.7002C23.9 25.3002 23.1 25.5002 23.5 24.9002ZM21.7 22.7002C21.8 22.8002 22 22.8002 22.1 22.9002L22.2 23.0002C22.2 23.1002 22.2 23.2002 22.2 23.4002C22.1 23.4002 21.9 23.3002 21.8 23.3002C21.7 23.3002 21.7 23.2002 21.6 23.1002C21.6 23.0002 21.6 22.8002 21.7 22.7002ZM21.2 21.5002C21.3 21.6002 21.4 21.8002 21.5 21.9002C21.6 22.1002 21.6 22.3002 21.4 22.3002C21.3 22.3002 21.2 22.2002 21 22.0002C21.1 21.8002 21.2 21.6002 21.2 21.5002ZM21 20.5002C21.1 20.5002 21.1 20.6002 21.2 20.6002C21.1 20.7002 21.1 20.8002 21 20.8002C21 20.8002 20.9 20.7002 20.7 20.6002C20.8 20.6002 20.9 20.5002 21 20.5002ZM19 26.6002C18.8 26.7002 18.6 26.6002 18.5 26.3002C18.6 26.1002 18.6 25.9002 18.7 25.7002C18.8 25.6002 19.5 26.0002 19.5 26.2002C19.6 26.5002 19.2 26.5002 19 26.6002ZM19.3 23.6002C19.1 23.5002 18.7 23.8002 18.6 23.5002C18.5 23.3002 18.7 23.0002 18.6 22.8002C18.5 22.4002 18.8 22.3002 19 22.1002C19.1 22.0002 19.3 22.1002 19.5 22.1002C19.6 22.2002 19.7 22.3002 19.8 22.5002L19.9 22.6002C20 22.8002 20.2 22.9002 20.1 23.2002C20 23.5002 19.6 23.7002 19.3 23.6002ZM21.8 27.8002C21.7 27.8002 21.7 27.8002 21.6 27.7002C21.7 27.6002 21.7 27.5002 21.7 27.5002C21.8 27.5002 21.8 27.6002 21.9 27.6002C21.8 27.7002 21.8 27.8002 21.8 27.8002ZM22.4 24.8002C22.5 24.6002 22.7 24.6002 22.8 24.8002C22.9 24.9002 22.9 25.0002 22.9 25.1002C23.1 25.5002 23 25.6002 22.6 25.7002H22.5C22.9 26.1002 22.9 27.0002 22.4 27.3002C22.1 27.5002 22 27.5002 21.7 27.2002C21.6 27.1002 21.6 27.0002 21.5 27.0002C21.4 26.9002 21.3 26.8002 21.2 26.7002C21.2 26.6002 21.1 26.5002 21.2 26.4002C21.2 26.4002 21.1 26.4002 21.1 26.3002C21 26.0002 21 25.8002 21.1 25.7002C21 25.6002 20.8 25.5002 20.6 25.4002C20.5 25.4002 20.4 25.5002 20.3 25.4002C20.1 25.2002 19.9 25.0002 19.9 24.8002C19.8 24.6002 20.4 24.3002 20.6 24.3002C20.7 24.3002 20.9 24.4002 21 24.4002C21.5 24.4002 21.8 24.8002 21.7 25.3002C21.7 25.3002 21.7 25.3002 21.7 25.4002C22 25.3002 22.2 25.1002 22.4 24.8002Z" fill="#FEFEFE"/>
<path d="M25.9999 22.6999V22.3999C25.9999 22.3999 25.9999 22.4999 25.8999 22.4999C25.8999 22.4999 25.8999 22.5999 25.9999 22.6999Z" fill="#FEFEFE"/>
<path d="M26 22V21.5C26 21.5 26 21.6 26 21.7C25.9 21.7 26 21.8 26 22Z" fill="#FEFEFE"/>
<path d="M10.3 23.7998H10.2C10.2 23.8998 10.3 23.8998 10.3 23.9998C10.3 23.9998 10.3 23.9998 10.3 24.0998C10.3 23.9998 10.3 23.8998 10.3 23.7998Z" fill="#FEFEFE"/>
</svg>
