<svg width="20" height="20" viewBox="0 0 20 20" fill="none" xmlns="http://www.w3.org/2000/svg">
<path d="M9.11576 8.98389C9.11576 9.11302 8.98663 9.24216 8.66378 9.50044C8.47008 9.62957 8.34094 9.82328 8.14723 9.95242C8.08266 10.017 7.95353 10.0816 7.88896 10.017C7.75982 9.95242 7.82439 9.82328 7.82439 9.69414C7.82439 9.43587 7.88896 9.17759 8.14723 9.04846C8.14723 9.04846 8.14723 9.04846 8.14723 8.98389H8.08267C8.0181 8.98389 7.95353 9.04846 7.88896 9.04846C7.82439 9.04846 7.75982 9.04846 7.75982 8.98389H7.30784C7.30784 9.04846 7.30784 9.04846 7.30784 9.11302C7.30784 9.24216 6.85586 9.3713 6.79129 9.30673C6.72672 9.24216 6.66215 9.11302 6.66215 9.04846C6.66215 9.04846 6.66215 9.04846 6.66215 8.98389H0V9.95242C0.258275 10.017 0.322844 10.0816 0.645687 10.4044C0.645687 10.4044 0.774825 10.5335 0.774825 10.5981C0.839394 10.7272 0.903962 10.8564 0.903962 10.9209H7.37241C7.37241 10.8564 7.43698 10.8564 7.43698 10.7918C7.56612 10.7918 7.63068 10.7272 7.69525 10.7272C7.75982 10.7272 7.88896 10.6627 7.95353 10.7272C8.08267 10.7918 8.0181 10.8564 7.95353 10.9855H8.53465C8.53465 10.9855 8.66378 10.9855 8.72835 10.9855C8.72835 10.9855 8.72835 10.9855 8.72835 11.0501H9.18033C9.2449 10.9855 9.2449 10.9209 9.30947 10.8564C9.37404 10.7918 9.43861 10.7918 9.56775 10.7918C9.56775 10.8564 9.56775 10.9209 9.56775 10.9209C9.56775 10.9855 9.50318 10.9855 9.43861 11.0501H9.95516C10.0197 10.9855 10.1489 10.9209 10.2134 10.8564C10.4071 10.7918 10.6654 10.8564 10.7946 11.0501H14.1223L14.0577 10.9855C13.9931 10.9209 13.9286 10.8564 13.9931 10.7918C14.1223 10.5335 13.9286 10.5335 13.7349 10.4044C13.2829 10.1461 12.96 9.82328 12.7663 9.3713C12.7018 9.30673 12.7018 9.17759 12.7663 9.11302H9.11576V8.98389ZM5.17707 9.69414C4.9188 9.82328 4.59595 9.88785 4.33768 9.95242C4.33768 9.95242 4.20854 9.75871 4.20854 9.62957C4.20854 9.56501 4.27311 9.43587 4.33768 9.43587C4.46682 9.3713 4.59595 9.3713 4.72509 9.30673C4.9188 9.30673 5.04793 9.24216 5.24164 9.24216C5.30621 9.24216 5.37078 9.30673 5.37078 9.3713C5.24164 9.3713 5.24164 9.62957 5.17707 9.69414ZM5.88733 9.56501C5.88733 9.56501 5.82276 9.50044 5.69362 9.50044C5.75819 9.43587 5.82276 9.3713 5.88733 9.30673C5.9519 9.30673 6.01647 9.3713 6.01647 9.43587C6.01647 9.43587 5.9519 9.50044 5.88733 9.56501ZM6.53302 10.017C6.40388 10.0816 6.27474 10.0816 6.27474 10.0816C6.21017 9.95242 6.1456 9.82328 6.08103 9.69414C6.1456 9.69414 6.21017 9.62957 6.27474 9.62957C6.40388 9.82328 6.72672 9.43587 6.79129 9.75871C6.72672 9.82328 6.59758 9.95242 6.53302 10.017ZM9.89059 10.2107C9.63232 10.4044 9.50318 10.4044 9.37404 10.2753C9.18033 10.017 9.18033 9.88785 9.43861 9.69414C9.63231 9.565 9.69688 9.56501 9.89059 9.82328C10.0197 9.95242 10.0843 10.0816 9.89059 10.2107Z" fill="#867197"/>
<path d="M12.4433 2.46251C12.3788 2.46251 12.3788 2.46251 12.4433 2.46251C12.3142 2.46251 12.185 2.46251 12.1205 2.39794C12.1205 2.39794 12.1205 2.39794 12.1205 2.33337L10.8291 3.56018L16.2529 8.98396H14.5741C14.6387 8.98396 14.7032 9.04852 14.8324 9.11309C14.8324 9.17766 14.8969 9.37137 14.8969 9.37137C14.7678 9.50051 14.6387 9.56507 14.5095 9.62964C14.445 9.56507 14.3804 9.50051 14.3804 9.43594C14.3804 9.37137 14.445 9.3068 14.445 9.24223C14.445 9.11309 14.3804 9.04852 14.445 8.98396H13.3473C13.4764 9.11309 13.541 9.3068 13.6701 9.43594C13.993 9.82335 14.3804 10.2108 14.7032 10.5982C14.7678 10.7273 14.8324 10.7919 14.9615 10.921H15.8655C15.8009 10.7919 15.9946 10.4045 16.1883 10.4045C16.4466 10.4045 16.6403 10.5336 16.9631 10.5982C16.9631 10.7919 16.9631 10.921 16.9631 11.0502C17.0277 11.3084 16.9631 11.5021 16.9631 11.7604C16.8986 11.9541 16.834 12.0187 16.7049 11.8895C16.4466 11.6313 16.2529 11.373 16.0592 11.1147L15.5426 11.6313C15.5426 11.6958 15.6072 11.7604 15.6072 11.825C15.6072 12.0833 15.7363 12.2124 15.8655 12.3415C15.8655 12.277 15.93 12.2124 15.9946 12.2124C16.1237 12.2124 16.2529 12.277 16.382 12.277C16.3174 12.3415 16.2529 12.4061 16.1883 12.4707C16.3174 12.5352 16.4466 12.6644 16.5757 12.7289C16.7049 12.8581 16.7694 12.9872 16.834 13.1164L17.3505 12.5998C17.3505 12.5998 17.3505 12.5352 17.4151 12.5352L17.4797 12.4707C17.4151 12.277 17.4797 12.1478 17.5443 12.0187C17.4797 11.9541 17.4151 11.825 17.3505 11.7604C17.3505 11.6958 17.4151 11.6313 17.4151 11.5667C17.4797 11.6313 17.5443 11.6958 17.6734 11.7604C17.6734 11.825 17.6088 11.8895 17.6088 11.9541C17.6734 11.8895 17.738 11.825 17.8025 11.7604C17.9317 11.6313 18.0608 11.5667 18.1899 11.6958C18.1899 11.6958 18.1899 11.6958 18.2545 11.6958C18.3191 11.5021 18.1899 11.3084 18.3836 11.2439C18.5128 11.2439 18.5774 11.2439 18.5774 11.3084L19.9333 9.95249L17.1568 7.17603C17.0923 7.17603 17.0277 7.17603 16.9631 7.17603C16.8986 7.30517 16.7694 7.36974 16.6403 7.43431C16.5757 7.49887 16.5112 7.43431 16.382 7.43431C16.382 7.36974 16.382 7.36974 16.382 7.30517C16.3174 7.43431 16.1883 7.49887 16.1237 7.49887C16.0592 7.49887 15.93 7.36974 15.8655 7.30517C15.8655 7.17603 15.8655 7.04689 15.93 6.98232C16.0592 6.85319 16.1237 6.98232 16.1883 7.11146L16.2529 7.17603C16.3174 7.17603 16.382 7.17603 16.4466 7.2406C16.4466 7.17603 16.4466 7.04689 16.5112 6.98232C16.5112 6.85319 16.6403 6.85319 16.7694 6.91776C16.7694 6.91776 16.7694 6.91776 16.834 6.91776V6.85319L13.2181 3.23734C13.1536 3.23734 13.1536 3.23734 13.089 3.23734C13.0244 3.23734 12.8307 3.04363 12.7662 2.84992C12.7662 2.84992 12.7662 2.78536 12.7662 2.72079L12.4433 2.46251ZM15.2198 10.0171C15.0906 10.0816 14.9615 10.0816 14.9615 9.95249C14.9615 9.88792 15.0906 9.82335 15.1552 9.69421C15.2843 9.75878 15.3489 9.82335 15.4135 9.82335C15.4135 9.88792 15.3489 9.95249 15.2198 10.0171ZM18.7065 9.62964C18.7711 9.56507 18.7711 9.56507 18.7711 9.56507C18.8356 9.50051 18.8356 9.50051 18.9002 9.43594C19.0293 9.37137 19.1585 9.17766 19.2876 9.37137C19.4167 9.50051 19.5459 9.62964 19.4167 9.88792C19.3522 10.0171 19.2876 10.0816 19.1585 10.1462C18.9002 10.3399 18.8356 10.3399 18.6419 10.1462C18.4482 9.95249 18.4482 9.88792 18.7065 9.62964ZM17.5443 8.46741C17.8025 8.53197 18.0608 8.46741 18.2545 8.66111C18.4482 8.85482 18.3836 9.04852 18.4482 9.24223C18.4482 9.37137 18.2545 9.50051 18.1254 9.37137C17.9317 9.24223 17.8025 9.11309 17.6734 8.98396C17.6088 8.85482 17.4797 8.79025 17.4151 8.66111C17.4151 8.66111 17.4151 8.46741 17.5443 8.46741ZM14.7032 5.56181C15.0261 5.49724 15.2198 5.62638 15.1552 5.94922C15.1552 6.07836 15.0261 6.07836 14.9615 6.01379C14.8969 5.94922 14.8324 5.88466 14.7678 5.88466C14.7032 5.82009 14.6387 5.75552 14.5741 5.69095C14.6387 5.62638 14.7032 5.56181 14.7032 5.56181ZM12.7662 3.43104C12.8307 3.43104 12.8953 3.49561 12.8953 3.49561C12.8953 3.56018 12.8307 3.62475 12.8307 3.68932C12.7662 3.62475 12.7016 3.62475 12.7016 3.56018C12.637 3.56018 12.7016 3.43104 12.7662 3.43104Z" fill="#867197"/>
<path d="M15.0909 12.0833L14.3161 12.8581C14.2515 12.9226 14.1869 12.9872 14.1224 13.0518L13.0247 14.1495C13.0893 14.1495 13.1538 14.214 13.283 14.3432C13.4121 14.4723 13.4121 14.6014 13.1538 14.7951C13.0247 14.9243 12.8956 14.9243 12.7664 14.7951C12.7664 14.7951 12.7664 14.7951 12.7664 14.8597C12.7019 14.8597 12.7019 14.7951 12.6373 14.7951C12.6373 14.7306 12.7019 14.7306 12.7019 14.7306L12.6373 14.666L10.9585 16.3448L11.0231 16.4094C11.0876 16.4094 11.2168 16.4094 11.3459 16.5385C11.475 16.6031 11.5396 16.6031 11.6042 16.4739C11.7333 16.1511 12.0562 16.0865 12.3144 16.2802C12.4436 16.4094 12.5081 16.4094 12.5727 16.2157C12.7019 15.9574 12.7019 15.9574 12.8956 16.1511C13.0893 16.2802 13.1538 16.2802 13.283 16.0865C13.283 16.0219 13.3475 16.0219 13.3475 15.9574C13.2184 15.8928 13.1538 15.8282 13.283 15.6345C13.4121 15.4408 13.6058 15.3763 13.7995 15.5054C13.9287 15.6345 14.0578 15.6991 14.1224 15.8282H14.1869L14.6389 15.3763C14.6389 15.3117 14.5743 15.3117 14.4452 15.2471C14.3806 15.2471 14.3161 15.118 14.3161 15.118C14.1869 14.9888 14.1224 14.8597 13.9932 14.7951C13.9287 14.7306 13.8641 14.6014 13.735 14.5369C13.4767 14.214 13.4767 14.214 13.7995 13.8912C14.1224 13.5683 14.4452 13.6975 14.7681 13.8266C14.9618 13.8912 15.0909 14.0203 15.2846 13.9557C15.4137 13.9557 15.6074 14.214 15.6074 14.4077L16.1886 13.8266C16.0594 13.6975 15.9303 13.5683 15.8012 13.3746C15.8012 13.3101 15.7366 13.2455 15.7366 13.2455C15.8012 12.6644 15.2846 12.4707 15.0909 12.0833Z" fill="#867197"/>
<path d="M12.3141 16.8614C12.185 16.7322 12.0558 16.7322 11.9913 16.9259C11.9267 17.1196 11.8621 17.1196 11.6684 16.9905C11.5393 16.8614 11.4747 16.8614 11.4102 16.9905L11.9267 17.507C11.9267 17.4425 11.9913 17.3779 12.1204 17.2488C12.185 17.2488 12.2496 17.1196 12.3141 17.1196C12.3787 17.1196 12.5078 17.1196 12.5078 17.1842V17.2488L12.9598 16.7968C12.8307 17.0551 12.5078 17.0551 12.3141 16.8614Z" fill="#867197"/>
<path d="M13.2183 16.7326L13.4122 16.5386C13.3476 16.5386 13.2829 16.6032 13.2183 16.7326C13.2183 16.6679 13.2183 16.6679 13.2183 16.7326Z" fill="#867197"/>
<path d="M15.0908 14.666C15.0262 14.666 14.8971 14.666 14.8325 14.666C14.8325 14.7306 14.8325 14.8597 14.8971 14.9243C14.8971 14.9243 14.8971 14.9243 14.9617 14.9889L15.2845 14.666C15.2199 14.666 15.1554 14.666 15.0908 14.666Z" fill="#867197"/>
</svg>
