<svg width="50" height="50" viewBox="0 0 50 50" fill="none" xmlns="http://www.w3.org/2000/svg">
<g clip-path="url(#clip0_1_2359)">
<path d="M25 50C38.8071 50 50 38.8071 50 25C50 11.1929 38.8071 0 25 0C11.1929 0 0 11.1929 0 25C0 38.8071 11.1929 50 25 50Z" fill="#867197"/>
<path d="M15.2273 26.7532C15.2922 26.7532 15.3247 26.7532 15.3247 26.7207C15.3247 26.7207 15.3247 26.6882 15.3247 26.6558C15.2922 26.7207 15.2598 26.7207 15.2273 26.7532Z" fill="#FEFEFE"/>
<path d="M5.25972 40.3569C5.29219 40.1621 5.19479 40.0322 5.09739 39.9023C5.03245 39.8374 4.99998 39.7725 4.93505 39.7075C4.90258 39.74 4.87011 39.7725 4.83765 39.8049C4.99998 39.9673 5.12985 40.1621 5.25972 40.3569Z" fill="#FEFEFE"/>
<path d="M7.33775 42.1105C7.04554 42.2404 6.94814 42.0456 6.7858 41.8832C6.59099 41.656 6.39619 41.4611 6.20138 41.2663C6.10398 41.2014 6.00658 41.1365 5.87671 41.104C6.36372 41.6884 6.8832 42.2728 7.43515 42.7923C7.46762 42.5975 7.46762 42.4027 7.46762 42.2079C7.50009 42.2079 7.37022 42.1105 7.33775 42.1105Z" fill="#FEFEFE"/>
<path d="M35.7468 35.5845C35.7143 35.5845 35.6494 35.5845 35.6169 35.5845C33.7014 36.8507 30.3897 37.7273 26.4936 37.9546C26.7533 38.3117 27.2403 39.4156 27.4676 39.6754C27.565 39.7728 27.6299 39.9027 27.6949 40.0001C27.7273 40.065 27.6299 40.1949 27.565 40.2273C27.1429 40.3572 26.4286 39.9351 26.2988 39.4806C26.2663 39.4156 26.2988 39.3182 26.3312 39.2533C26.3637 39.1234 26.0715 38.1494 26.0065 37.9546C25.8117 37.9546 25.6494 37.9546 25.4546 37.9546C25.1949 37.9546 24.9027 37.9871 24.6429 37.9871C23.9286 37.9871 23.2468 37.9546 22.5975 37.8897C19.6104 37.6624 17.013 37.0455 15.1949 36.1689C15.1949 36.2014 15.1949 36.2338 15.1949 36.2663C15.1949 36.2988 15.1299 36.3637 15.0975 36.3637C15.0001 36.3637 14.8377 36.3637 14.8052 36.2988C14.6754 36.0715 14.2533 36.2338 14.3182 35.8767C14.3182 35.8117 14.3507 35.7793 14.4156 35.7468C14.3182 35.6819 14.2208 35.6494 14.1559 35.5845C14.1559 35.5845 14.1559 35.5845 14.1234 35.5845C12.8572 35.7468 11.6234 36.0715 10.4546 36.4936C10.4546 36.526 10.4871 36.591 10.4871 36.6234C10.4871 36.6884 10.4221 36.8182 10.4221 36.8507C10.6169 37.2078 10.3247 37.3702 10.1299 37.5325C10.065 37.5975 9.90265 37.565 9.83772 37.5325C9.80525 37.5001 9.80525 37.3702 9.80525 37.2728C9.80525 37.1429 9.83772 36.9806 9.87018 36.8507C9.90265 36.7858 9.90265 36.7533 9.93512 36.6884C8.92863 37.1104 7.92213 37.5975 7.01304 38.1819C7.07798 38.2793 7.11044 38.3767 7.07798 38.4416C7.01304 38.6364 6.91564 38.7988 6.8507 38.9936C6.68837 38.8637 6.52603 38.7338 6.36369 38.604C6.10395 38.7988 5.81174 38.9936 5.552 39.2208C5.61694 39.2208 5.6494 39.2533 5.68187 39.2858C5.94161 39.578 6.23382 39.8377 6.49356 40.1299C6.49356 40.0001 6.46109 39.8702 6.46109 39.7728C6.46109 39.6429 6.36369 39.4806 6.36369 39.3507C6.36369 39.2533 6.42863 39.1559 6.49356 39.026C6.5585 39.091 6.6559 39.1559 6.72083 39.2208C6.78577 39.3832 6.81824 39.5455 6.8507 39.6754C6.91564 39.8702 6.94811 40.0325 7.20785 40.065C7.24031 40.065 7.24031 40.065 7.27278 40.0975C7.27278 40.0325 7.27278 40.0001 7.27278 39.9351C7.27278 39.8702 7.27278 39.7728 7.27278 39.7079C7.24031 39.4481 7.40265 39.1884 7.62992 39.1884C7.75979 39.1884 7.92213 39.3182 8.01953 39.4156C8.24681 39.6104 8.11694 39.7728 7.9546 39.9351C7.92213 39.9676 7.8572 40.0325 7.82473 40.0975C7.72733 40.1624 7.66239 40.2273 7.56499 40.2598C7.53252 40.2923 7.46759 40.2923 7.40265 40.2923C7.50005 40.4221 7.59746 40.552 7.79226 40.5195C7.79226 40.5845 7.79226 40.7143 7.75979 40.7143C7.56499 40.8442 7.37018 40.9416 7.17538 41.0066C7.14291 41.0066 7.14291 41.0066 7.11044 41.0066C7.11044 41.0715 7.11044 41.1364 7.07798 41.2338C7.01304 41.4286 7.14291 41.526 7.37018 41.5585C7.92213 41.6234 8.44161 42.2079 8.47408 42.7273C8.50655 43.2793 9.1559 44.1884 9.64291 44.3507C9.70785 44.3832 9.80525 44.3182 9.87018 44.3507C9.96759 44.3832 10.1299 44.3832 10.1624 44.4481C10.2598 44.5455 10.3247 44.6429 10.4221 44.7403C10.4546 44.7079 10.4871 44.7078 10.4871 44.7078C10.8442 44.6429 11.0065 44.7403 11.0715 45.0001C11.1039 45.1624 11.0715 45.2923 10.9416 45.3897C11.104 45.5845 11.2663 45.7793 11.4286 45.9416C12.1429 46.3962 12.8572 46.8182 13.6364 47.2078C13.5715 47.1104 13.5065 47.0455 13.4416 46.9481C13.4091 46.9156 13.4416 46.8507 13.4741 46.8182C13.5715 46.6884 14.3507 46.7208 14.3507 46.8832C14.3832 47.013 14.2533 47.1754 14.2208 47.3053C14.1234 47.3377 14.026 47.3702 13.9611 47.4027C14.8702 47.8572 15.8117 48.2468 16.7858 48.604C16.8507 48.539 16.9806 48.539 17.078 48.5065C17.2403 48.4416 17.3377 48.4091 17.4027 48.1819C17.4676 47.9221 17.6299 47.8897 17.8247 48.0845C17.9871 48.2143 18.052 48.2468 18.1819 48.052C18.2793 47.9221 18.5065 47.8247 18.6689 47.7273C18.8962 47.5975 18.9611 47.8247 19.1234 47.8897C19.3182 48.0195 20.0001 47.8247 20.1299 47.565C20.2923 47.3053 20.4221 47.2728 20.6819 47.4351C20.7468 47.4676 20.9416 47.4351 21.0065 47.3702C21.1364 47.1429 21.2338 47.0455 21.4286 47.3053C21.591 47.5001 21.7533 47.4351 21.8182 47.2078C21.8507 46.9806 22.013 46.9481 22.1429 46.9156C22.4676 46.8182 22.7598 46.7533 23.0845 46.6559C23.4091 46.5585 23.4091 46.8182 23.4741 47.013C23.539 47.2728 23.4741 47.4027 23.2143 47.4351C23.052 47.4351 22.8572 47.4027 22.7273 47.3053C22.565 47.2078 22.4351 47.1754 22.3052 47.3377C22.2403 47.4351 22.1754 47.6299 22.078 47.6624C21.9156 47.6949 21.6884 47.6949 21.4936 47.6299C21.2663 47.5325 21.1364 47.5325 21.104 47.8247C21.104 47.8897 20.9416 47.9871 20.8442 48.0195C20.6169 48.0845 20.3897 48.1169 20.1949 48.1819C19.9351 48.2793 19.6104 48.2468 19.578 48.6364C19.578 48.6689 19.2858 48.7014 19.2858 48.6689C19.1559 48.4416 18.9611 48.5066 18.7663 48.539C18.3767 48.6364 17.9546 48.6364 17.565 48.7988C18.4091 49.0585 19.2858 49.2858 20.1624 49.4481C20.6494 49.3182 21.1364 49.1559 21.591 49.026C21.6559 48.9936 21.7858 49.026 21.8507 49.0585C21.9806 49.1234 22.1104 49.1884 22.2078 49.2858C22.2728 49.3507 22.3377 49.4481 22.3377 49.513C22.3377 49.578 22.2403 49.6754 22.2078 49.7403H22.1754C23.052 49.9351 24.026 50.0001 25.0001 50.0001C30.3897 50.0001 35.3572 48.3117 39.4156 45.4221C39.3832 45.3897 39.3507 45.3572 39.2858 45.2923C39.0585 45.0325 39.0585 44.9351 39.3182 44.7078C39.578 44.513 39.6429 44.513 39.8377 44.7403C39.9351 44.8377 39.9676 44.9027 40.0001 45.0001C41.9156 43.5715 43.6039 41.8507 45.0325 39.9351C42.4676 37.5975 39.2533 36.0715 35.7468 35.5845ZM10.552 43.1819C10.4221 43.3117 10.2598 43.3442 10.1299 43.1819C9.90265 42.9221 9.67538 42.6624 9.44811 42.4027C9.2533 42.1754 9.28577 41.9806 9.54551 41.8507C9.44811 41.7858 9.28577 41.6559 9.22083 41.6884C8.89616 41.8507 8.79876 41.6234 8.66889 41.4286C8.57148 41.2988 8.47408 41.2014 8.37668 41.0715C8.01953 40.6169 8.27927 39.9351 8.83122 39.8377C8.89616 39.8377 9.02603 39.9351 9.09096 40.0001C9.22083 40.1624 9.31824 40.3897 9.48057 40.5195C9.93512 40.8117 9.70785 41.2663 9.74031 41.6234C9.74031 41.6884 9.61044 41.7533 9.54551 41.8182C9.67538 41.9481 9.77278 42.078 10.0001 41.9481C10.0975 41.9156 10.2923 41.9806 10.3897 42.0455C10.552 42.2403 10.6819 42.4676 10.8117 42.6624C10.9091 42.9546 10.6819 43.052 10.552 43.1819ZM12.8572 36.1364C12.9221 36.1364 13.052 36.2338 13.052 36.2663C13.052 36.3637 12.9546 36.4286 12.9221 36.526C12.8572 36.4611 12.7923 36.4286 12.6949 36.3312C12.7273 36.2663 12.7923 36.1364 12.8572 36.1364ZM11.3637 39.1234C11.3312 39.1559 11.2014 39.1559 11.039 39.1559C11.0715 39.026 11.0715 38.8962 11.1364 38.8637C11.2014 38.7988 11.2988 38.8312 11.3962 38.7988C11.3962 38.9286 11.4286 39.0585 11.3637 39.1234ZM12.078 45.1299C12.013 45.065 11.8507 45.0001 11.8507 44.9351C11.8507 44.7728 11.9156 44.6104 11.9481 44.4481C12.0455 44.5455 12.1429 44.6429 12.3052 44.7728C12.2078 44.9351 12.1429 45.0325 12.078 45.1299ZM13.4091 40.6494C13.2468 40.7793 12.6299 40.8767 12.5001 40.7793C12.4351 40.7143 12.3702 40.6169 12.4027 40.5195C12.4351 40.3572 12.5001 40.1624 12.565 40.0001C12.5975 39.9676 12.6949 39.9027 12.7598 39.9351C13.0195 40.065 13.2143 40.2273 13.5065 40.2923C13.7338 40.3572 13.4741 40.552 13.4091 40.6494ZM14.1234 44.5455C13.8637 44.6429 13.8312 44.4156 13.7338 44.1559C13.7663 44.091 13.7988 43.8962 13.8962 43.8637C14.091 43.7663 14.1884 43.9286 14.2208 44.091C14.2858 44.2533 14.3832 44.4481 14.1234 44.5455ZM16.7208 43.2468C16.7533 43.2468 16.8182 43.3117 16.8507 43.3442C16.8507 43.3767 16.8182 43.4416 16.7858 43.4416C16.7208 43.4416 16.6884 43.4092 16.591 43.3767C16.6559 43.3117 16.6884 43.2468 16.7208 43.2468ZM14.6104 39.7403C14.7078 39.7728 14.8377 39.7728 14.8377 39.8053C14.8702 39.8702 14.8052 39.9676 14.8052 40.065C14.7078 40.0325 14.6104 40.0325 14.578 40.0001C14.5455 39.9351 14.6104 39.8377 14.6104 39.7403ZM14.8702 44.4156C14.7403 44.3832 14.6429 44.2208 14.578 44.091C14.513 43.9286 14.4806 43.7663 14.6754 43.6689C14.7728 43.604 14.9027 43.5715 15.065 43.5066C15.1949 43.5066 15.3572 43.5066 15.4871 43.5066C15.7143 43.539 15.7468 43.5715 15.5845 43.7988C15.552 43.8637 15.4871 43.9286 15.4546 43.9936C15.3897 44.3182 15.1624 44.4806 14.8702 44.4156ZM15.7143 47.6299C15.552 47.6949 15.3897 47.5975 15.4221 47.4351C15.4221 47.2403 15.2923 46.9806 15.552 46.8832C15.8117 46.7858 15.8117 47.0455 15.8767 47.2078C15.8767 47.3702 15.9741 47.5325 15.7143 47.6299ZM15.5195 38.7988C15.4546 38.7988 15.3247 38.6364 15.2598 38.5715C15.2273 38.4091 15.2273 38.3117 15.2273 38.2143C15.2273 38.1494 15.2923 38.052 15.3572 38.0195C15.4221 37.9871 15.552 38.0195 15.6169 38.0845C15.6819 38.1494 15.7468 38.2468 15.7793 38.3117C15.8442 38.4091 15.9416 38.4741 16.0065 38.5715C15.8442 38.6364 15.6819 38.7663 15.5195 38.7988ZM16.526 44.8053C16.3312 44.8053 16.1689 44.8053 16.0065 44.8053C16.1039 44.6429 16.1364 44.4481 16.2663 44.3182C16.2988 44.2858 16.5585 44.3182 16.591 44.3832C16.6559 44.4806 16.5585 44.6104 16.526 44.8053ZM17.7273 47.078C17.4351 47.1754 17.1429 47.2403 16.8507 47.2728C16.8182 47.2728 16.6884 47.2078 16.6884 47.1429C16.6884 47.078 16.7208 46.9481 16.7858 46.9156C16.9156 46.8507 17.078 46.8507 17.2078 46.7858C17.3377 46.7533 17.5001 46.7208 17.6299 46.7208C17.6949 46.7208 17.8247 46.7858 17.8572 46.8507C17.8572 46.9156 17.7923 47.078 17.7273 47.078ZM17.8897 46.1689C17.8572 46.2014 17.7273 46.2014 17.7273 46.1689C17.6949 46.104 17.7273 46.039 17.7273 45.9091C17.8572 45.9416 17.9221 45.9416 17.9871 45.9741C17.9221 46.039 17.9221 46.1364 17.8897 46.1689ZM20.4546 46.7533C20.4221 46.7858 20.3572 46.7533 20.2923 46.7208C20.3247 46.6559 20.3247 46.5585 20.3572 46.526C20.3897 46.4936 20.4546 46.526 20.5845 46.526C20.552 46.6234 20.5195 46.7208 20.4546 46.7533ZM20.4546 46.3962C20.3897 46.4611 20.2598 46.4611 20.0975 46.526C20.0325 46.4936 19.8377 46.4936 19.8377 46.4286C19.8052 46.2338 19.8377 46.0066 19.8377 45.8117C19.9027 45.8117 20.0001 45.8117 20.065 45.8442C20.1949 45.9091 20.2923 45.9741 20.4221 46.039C20.4871 46.0715 20.552 46.1364 20.6494 46.2014C20.552 46.2338 20.5195 46.3312 20.4546 46.3962ZM21.2014 42.5325C21.2338 42.5325 21.3312 42.5975 21.3312 42.6299C21.3312 42.6949 21.2988 42.7598 21.2663 42.8247C21.2014 42.7923 21.1689 42.7923 20.9416 42.6949C21.0715 42.5975 21.1364 42.5325 21.2014 42.5325ZM21.2338 46.1689C21.1689 46.2014 21.1039 46.104 20.9741 46.039C21.0715 45.9416 21.1364 45.8442 21.1689 45.8442C21.2338 45.8442 21.3637 45.9092 21.3637 45.9741C21.3962 46.039 21.2988 46.1689 21.2338 46.1689ZM22.1754 40.0325C22.2078 40.0001 22.4027 40.0975 22.4351 40.1949C22.5325 40.4221 22.3377 40.4546 22.1754 40.552C22.0455 40.5195 21.7858 40.4871 21.7858 40.4221C21.7208 40.1299 22.0455 40.1299 22.1754 40.0325ZM22.4351 41.8832C22.4027 41.9481 22.4027 42.013 22.3702 42.0455C22.3052 42.078 22.2403 42.0455 22.1104 42.0455C22.1754 41.9481 22.2078 41.8832 22.2403 41.8507C22.3052 41.8182 22.3702 41.8507 22.4351 41.8832ZM22.4676 45.8442C22.4027 45.8117 22.3377 45.7793 22.1754 45.7143C22.2728 45.6494 22.3377 45.5845 22.3702 45.5845C22.4351 45.5845 22.5001 45.6494 22.5325 45.6819C22.5325 45.7143 22.4676 45.7793 22.4676 45.8442ZM22.5325 43.4091C22.3377 43.4091 22.1104 43.3767 21.9156 43.3442C21.8832 43.3442 21.8182 43.2468 21.8182 43.2143C21.8182 43.1494 21.8507 43.0845 21.8832 43.052C21.9481 43.052 22.013 43.0195 22.0455 43.0195C22.2078 43.0195 22.4027 43.0195 22.565 43.052C22.6299 43.0845 22.6949 43.1494 22.7598 43.2143C22.6299 43.2793 22.565 43.4091 22.5325 43.4091ZM22.9221 49.513C22.8897 49.5455 22.7598 49.4481 22.7273 49.3832C22.6949 49.3182 22.7598 49.1884 22.7598 49.0585C22.9546 49.2208 23.0195 49.2533 23.1169 49.3182C23.052 49.3832 23.0195 49.4806 22.9221 49.513ZM35.9091 41.6559C36.039 41.6884 36.2338 41.6884 36.2988 41.7858C36.3962 41.9156 36.3962 42.1104 36.3962 42.3053C36.3962 42.3053 36.2014 42.3702 36.1364 42.3702C36.039 42.3377 35.9741 42.2403 35.9091 42.1429C35.8117 42.078 35.7143 42.013 35.6494 41.9481C35.7143 41.8507 35.8117 41.7533 35.9091 41.6559ZM34.6429 39.3832C34.7078 39.3832 34.8052 39.4156 34.8702 39.4156C34.9676 39.4156 35.065 39.4481 35.1624 39.4156C35.4546 39.3832 35.5845 39.6104 35.6494 39.8053C35.6819 39.8702 35.552 40.065 35.4871 40.1624C35.3247 40.3572 35.1624 40.2273 35.0001 40.0975C34.9351 40.0325 34.8702 40.0001 34.8052 39.9351C34.7728 39.8377 34.7078 39.7403 34.6754 39.6104C34.6429 39.578 34.6429 39.4806 34.6429 39.3832ZM33.0845 42.8572C33.1169 42.8572 33.2468 42.9546 33.2468 42.9546C33.2468 43.0195 33.1819 43.1169 33.1169 43.1494C33.0845 43.1819 32.9871 43.0845 32.8897 43.052C32.9871 42.9546 33.0195 42.8897 33.0845 42.8572ZM32.2728 45.3897C32.3702 45.4871 32.5001 45.6169 32.565 45.7143C32.5975 45.8117 32.565 45.9091 32.565 46.0065C32.4676 46.0065 32.3702 45.9741 32.2728 45.9416C32.2078 45.9091 32.1754 45.8442 32.078 45.7143C32.1104 45.7468 32.013 45.6819 32.013 45.6169C31.9806 45.552 31.9806 45.4221 32.0455 45.3572C32.078 45.3572 32.2078 45.3572 32.2728 45.3897ZM32.013 44.578C31.9806 44.6429 31.9156 44.7079 31.8507 44.7403C31.7858 44.7728 31.6884 44.7079 31.526 44.6754C31.6559 44.578 31.7208 44.4806 31.7858 44.4806C31.8832 44.4481 31.9481 44.513 32.013 44.578ZM31.1689 40.6494C31.3962 40.4871 31.4936 40.6169 31.6234 40.7793C31.7858 41.0066 31.7208 41.104 31.4611 41.2988C31.2338 41.4936 31.104 41.3312 30.9741 41.1689C30.8442 40.9741 30.9091 40.8442 31.1689 40.6494ZM30.7143 40.0975C30.7793 40.1299 30.8442 40.1624 30.8442 40.1949C30.8442 40.2598 30.7793 40.2923 30.7793 40.3247C30.7468 40.2923 30.6819 40.2598 30.6819 40.2273C30.6494 40.1949 30.6819 40.1624 30.7143 40.0975ZM30.4221 43.1819C30.4871 43.2468 30.552 43.3117 30.6819 43.4416C30.7468 43.539 30.8442 43.6689 30.9091 43.7988C30.9416 43.8637 30.9416 43.9611 30.9091 44.026C30.8767 44.0585 30.7793 44.091 30.6819 44.0585C30.5845 44.0585 30.4871 43.9611 30.4221 43.9936C30.2273 44.091 30.065 44.1884 29.9351 43.9286C29.8377 43.7014 29.7403 43.4416 29.9676 43.2143C30.0975 43.0195 30.2273 42.9871 30.4221 43.1819ZM29.8377 42.565C29.9351 42.6949 29.9027 42.8247 29.7403 42.8897C29.578 42.9546 29.4156 43.0195 29.2533 43.0845C29.2208 43.052 29.1884 43.0195 29.1559 42.9871C29.2533 42.8247 29.3507 42.6624 29.4806 42.5325C29.6429 42.3702 29.7403 42.4351 29.8377 42.565ZM29.091 40.4221C29.1234 40.3897 29.2858 40.4871 29.2858 40.552C29.2858 40.6494 29.2208 40.7468 29.1559 40.8117C29.1234 40.8442 29.026 40.7468 28.8962 40.6819C28.9936 40.5845 29.026 40.4546 29.091 40.4221ZM23.3767 40.0325C23.3767 40.0001 23.3767 39.9351 23.3767 39.9027C23.4091 39.9351 23.4741 39.9351 23.4741 39.9676C23.5065 40.0001 23.4741 40.065 23.4741 40.1299C23.4416 40.065 23.4091 40.065 23.3767 40.0325ZM23.6039 48.8962C23.5715 48.8962 23.5065 48.8637 23.4091 48.8637C23.5065 48.7663 23.539 48.7338 23.6039 48.7014C23.6364 48.7014 23.6689 48.7338 23.7014 48.7663C23.6689 48.8312 23.6364 48.8637 23.6039 48.8962ZM24.2208 46.9806C24.2208 46.9156 24.2533 46.8182 24.3182 46.7533C24.3507 46.7208 24.4481 46.7208 24.513 46.6884C24.578 46.6884 24.6754 46.6559 24.7403 46.6559C24.7728 46.6559 24.8377 46.6559 24.8702 46.6884C24.9027 46.7208 24.9351 46.8507 24.9351 46.8507C24.7728 46.9481 24.578 47.0455 24.3832 47.1104C24.3507 47.1104 24.2208 47.013 24.2208 46.9806ZM25.4871 49.3507C25.4221 49.4806 25.3572 49.6104 25.2598 49.7403C25.2273 49.8053 25.1299 49.8702 25.0975 49.8702C25.0325 49.8702 24.9351 49.8053 24.9351 49.7403C24.8702 49.6104 24.8702 49.4481 24.8377 49.3182C24.8377 49.2533 24.8052 49.1884 24.8052 49.1234C24.8052 48.9936 24.7728 48.7663 24.8052 48.7338C24.9676 48.6364 25.1949 48.5715 25.3897 48.5715C25.5195 48.5715 25.6169 49.1234 25.4871 49.3507ZM24.9027 45.2598C24.7078 45.2598 24.6429 45.1624 24.7078 44.9676C24.9027 44.4806 24.9027 44.4806 25.2598 44.3832C25.2923 44.3832 25.4221 44.3507 25.4871 44.3507C25.552 44.3507 25.6169 44.4481 25.6169 44.513C25.6494 44.8053 25.1949 45.2598 24.9027 45.2598ZM27.4351 48.4416C27.2078 48.5715 27.1104 48.5066 27.013 48.0845C27.013 48.052 26.9806 47.9871 26.9806 47.8897C26.9806 47.8247 27.0455 47.7273 27.1104 47.6949C27.1754 47.6624 27.2728 47.6949 27.3377 47.7273C27.4027 47.7923 27.4351 47.8897 27.5325 47.9546C27.6299 48.0195 27.7273 48.0845 27.8247 48.1494C27.6624 48.2793 27.565 48.3767 27.4351 48.4416ZM27.8247 45.7793C27.7273 45.8442 27.5975 45.8767 27.4676 45.9091C27.0455 46.039 26.591 46.1364 26.1689 46.2663C26.1689 46.2988 26.2014 46.3637 26.1689 46.3962C26.1039 46.4611 26.039 46.526 25.9416 46.591L25.8442 46.4936C25.9091 46.4286 25.9416 46.3637 26.0065 46.2988C26.039 46.2663 26.104 46.2663 26.1364 46.2663C26.104 46.104 26.0065 45.9416 26.2338 45.8442C26.7208 45.6819 27.2403 45.552 27.7273 45.4221C27.8247 45.3897 27.9221 45.4871 28.0195 45.4871C27.9546 45.6169 27.8897 45.7143 27.8247 45.7793ZM28.0845 41.4936C27.9546 41.526 27.565 41.2014 27.5975 41.0715C27.6624 40.8767 27.8247 40.7143 27.9546 40.552C27.9871 40.5195 28.1819 40.5845 28.2468 40.6494C28.4091 40.8117 28.5715 41.039 28.7338 41.2338C28.7338 41.2338 28.7338 41.2338 28.7014 41.2338C28.8962 41.4611 29.091 41.6559 29.2533 41.8832C29.3182 41.9481 29.2858 42.078 29.2858 42.2078C29.1884 42.1754 29.0585 42.2079 28.9936 42.1429C28.8637 42.0455 28.7338 41.8832 28.6039 41.7533C28.5065 41.5585 28.3767 41.3962 28.0845 41.4936ZM28.8312 47.6299C28.7338 47.5975 28.6689 47.5975 28.6364 47.5325C28.6039 47.5001 28.6689 47.3702 28.6689 47.3702C28.7338 47.3702 28.7988 47.4027 28.8637 47.4027C28.8962 47.5001 28.8637 47.565 28.8312 47.6299ZM29.1884 45.8767C29.1234 45.9091 29.026 45.8442 28.8637 45.7793C28.9936 45.6494 29.0585 45.552 29.1559 45.552C29.2208 45.552 29.3182 45.6169 29.3832 45.6494C29.3182 45.7143 29.2858 45.8442 29.1884 45.8767ZM30.3247 47.6299C29.9027 47.7273 29.8377 47.6949 29.7403 47.3377C29.6754 47.078 29.7728 46.9806 30.0001 46.9156C30.3897 46.8182 30.6169 46.9156 30.7143 47.3053C30.7793 47.6624 30.4546 47.5325 30.3247 47.6299ZM31.0715 45.4221C30.8442 45.4871 30.6169 45.5195 30.4221 45.5845V45.6169C30.2923 45.6494 30.1299 45.6819 30.0001 45.6494C29.9027 45.6494 29.7728 45.552 29.7403 45.4871C29.7078 45.4221 29.8052 45.2598 29.8702 45.2273C30.1299 45.1299 30.3897 45.065 30.552 44.7728C30.6169 44.6754 30.9091 44.6429 31.0715 44.6754C31.1039 44.6754 31.104 44.7078 31.1364 44.7078C31.2014 44.8053 31.2338 44.9351 31.2663 45.065C31.3637 45.2923 31.2338 45.3897 31.0715 45.4221ZM32.4676 47.2078C32.3052 47.3053 32.2078 47.4351 32.078 47.565C31.9806 47.4027 31.8832 47.2403 31.7858 47.078C31.7208 47.013 31.6234 46.9806 31.5585 46.9156C31.4936 46.8507 31.4286 46.8182 31.3637 46.7533C31.4286 46.6884 31.4936 46.591 31.591 46.526C31.6884 46.4611 31.8182 46.4286 31.8832 46.4286C32.2728 46.3312 32.4676 46.3312 32.565 46.4936C32.5975 46.4286 32.6624 46.3962 32.6949 46.3312C32.7923 46.3312 32.9871 46.2663 33.0195 46.2988C33.1819 46.4611 33.2468 46.6884 33.3767 46.8832C33.3767 46.8832 33.3442 46.9481 33.3117 46.9481C33.0845 46.9156 32.8572 46.9481 32.6299 46.8832C32.6624 47.013 32.5975 47.1104 32.4676 47.2078ZM33.4741 46.104C33.5715 46.104 33.6689 46.2338 33.8312 46.3312C33.7663 46.526 33.7338 46.7533 33.6689 46.7533C33.4416 46.8507 33.4416 46.591 33.3767 46.4611C33.3117 46.3312 33.2793 46.1364 33.4741 46.104ZM34.1559 47.3702C34.1559 47.5001 33.7338 47.8247 33.6364 47.8247C33.5065 47.8247 33.4091 47.7923 33.2793 47.7923C33.3442 47.6624 33.3767 47.5325 33.4416 47.4351C33.4741 47.3702 33.539 47.3377 33.6689 47.2403C33.6689 47.2403 33.7338 47.1754 33.8312 47.1429C33.9286 47.1104 34.026 47.1104 34.1559 47.078C34.1559 47.1754 34.1559 47.2728 34.1559 47.3702ZM35.3247 44.3507C35.0325 44.4156 34.7403 44.513 34.4156 44.578C34.1559 44.6104 33.8637 44.7403 33.6689 44.4156C33.6364 44.3832 33.5715 44.3832 33.539 44.3507C33.4416 44.2858 33.3442 44.2208 33.2468 44.1884C33.3442 44.1234 33.4416 43.9936 33.539 43.9611C33.8637 43.8637 34.2208 43.6689 34.513 44.026C34.578 44.091 34.7728 44.0585 34.9351 44.0585C35.0975 44.026 35.2598 43.9611 35.4221 43.9611C35.5195 43.9611 35.5845 44.0585 35.6819 44.091C35.6169 44.1884 35.5845 44.2533 35.4871 44.3182C35.4546 44.3507 35.3897 44.3507 35.3247 44.3507C35.3247 44.3507 35.3247 44.3832 35.3247 44.3507ZM36.0715 46.1689C35.9091 46.2663 35.8767 46.3962 35.8767 46.591C35.8767 46.6559 35.8117 46.7533 35.7468 46.7533C35.6819 46.7533 35.5845 46.7208 35.552 46.6559C35.3247 46.3637 35.4546 45.7468 35.7468 45.552C35.9091 45.4546 36.0715 45.552 36.1689 45.9091C36.1364 45.9416 36.1364 46.104 36.0715 46.1689ZM36.8182 43.4416C36.7533 43.539 36.6234 43.604 36.4936 43.7338C36.3312 43.7014 36.0715 43.7014 36.039 43.604C35.9091 43.3442 36.2338 43.3117 36.3637 43.2468C36.4611 43.1819 36.6234 43.2143 36.7533 43.2468C36.7858 43.2468 36.8507 43.4091 36.8182 43.4416ZM36.8832 41.7533C36.7858 41.8507 36.6559 41.9806 36.526 41.8182C36.4936 41.7533 36.5585 41.591 36.591 41.4286C36.7533 41.4286 36.8832 41.4286 37.013 41.4286C36.9806 41.526 36.9481 41.6559 36.8832 41.7533ZM37.9871 43.6689C37.9221 43.7014 37.8572 43.7014 37.7923 43.7014C37.6299 43.7014 37.3702 43.7988 37.3377 43.539C37.3052 43.4416 37.5325 43.3117 37.6299 43.1819C37.6624 43.2143 37.6624 43.2143 37.6949 43.2468C37.7598 43.2468 37.8247 43.2143 37.8897 43.2143C38.052 43.2468 38.3767 43.2468 38.3767 43.3117C38.4091 43.604 38.1169 43.5715 37.9871 43.6689ZM41.4286 38.5066C41.2014 38.539 40.9416 38.3442 40.7143 38.2468C40.7143 38.0195 40.7468 37.7598 40.7468 37.5325C40.8117 37.5325 40.9091 37.5325 40.9741 37.565C41.2014 37.6624 41.3637 37.9221 41.6884 37.7923C41.7208 37.7923 41.8832 37.9546 41.8832 37.9546C41.7208 38.1819 41.591 38.5066 41.4286 38.5066Z" fill="#FEFEFE"/>
<path d="M26.3052 13.3906L27.0438 4H22.7178L23.4915 13.3906H26.3052Z" fill="#FEFEFE"/>
<path d="M28.6969 10.7528C28.7672 10.7176 28.8727 10.8583 28.9431 10.9287C29.2596 11.2452 29.541 11.5266 29.8223 11.8783C30.2444 12.3707 30.6312 12.8982 31.0181 13.4258C31.1236 13.6016 31.2995 13.7775 31.0885 13.9885C30.9126 14.1644 30.7719 14.4457 30.4554 14.1995C30.4202 14.1644 30.3499 14.1644 30.3147 14.1644C30.0333 14.3402 29.8927 14.1995 29.752 13.9885C29.6113 13.7775 29.4706 13.6368 29.6465 13.3554C29.7871 13.1444 29.6113 13.0037 29.4003 13.0389C28.9782 13.1444 28.8024 12.863 28.5913 12.6168C28.4858 12.4762 28.3803 12.3355 28.2396 12.1948L27.9934 15.2195H21.8034L21.6979 14.094C21.6275 14.094 21.4869 14.094 21.4869 14.0589C21.4517 13.9885 21.4869 13.8478 21.4869 13.7071C21.5572 13.7071 21.6275 13.7423 21.6979 13.7423L21.2055 7.58743C16.6333 9.09977 13.2921 13.3554 13.1162 18.3849V18.42C13.1162 18.5607 13.1162 18.7014 13.1162 18.8421V20.3192C13.4327 20.7061 13.7141 21.093 14.0307 21.5151C14.101 21.5854 14.101 21.7261 14.1362 21.7964C14.1713 22.1833 14.2768 22.3591 14.523 22.4647C14.523 22.3591 14.5582 22.2536 14.6989 22.2536C14.8747 22.2536 15.0506 22.324 15.1913 22.3943C15.1209 22.4647 15.0154 22.5702 14.9451 22.6405C15.1209 22.746 15.2968 22.8867 15.4375 23.0274C15.6485 23.2384 15.754 23.5198 15.9299 23.7308C16.0706 23.9067 16.2112 24.0473 16.1409 24.2935C16.1057 24.3639 16.2464 24.5397 16.2816 24.5397C16.8091 24.5046 17.0202 24.9618 17.3367 25.2432C17.7588 25.63 18.0401 26.1576 18.427 26.6148C18.5677 26.7907 18.7435 26.8962 18.8842 27.072C19.4469 27.7754 19.9745 28.4789 20.5372 29.1471C21.0296 29.745 21.522 30.3077 21.9441 30.8001C22.2606 31.1167 22.5068 31.3629 22.753 31.6091C22.9992 31.8553 23.1399 32.3828 22.964 32.6994C22.9289 32.7697 22.753 32.8049 22.7178 32.7697C22.542 32.6642 22.4013 32.5587 22.2254 32.418C22.0496 32.2773 21.9089 32.0311 21.5924 32.1366C21.3813 32.207 20.9593 31.6794 21.0648 31.4684C21.1703 31.187 21.0648 31.0463 20.9241 30.8705C20.8186 30.7298 20.7483 30.5891 20.8538 30.3781C20.9945 29.9912 20.6779 29.6747 20.291 29.6395C20.1504 29.6395 19.9393 29.6043 19.8338 29.4988C19.6228 29.2878 19.4118 29.2526 19.1656 29.323C19.1304 29.1119 19.1656 28.8657 19.0601 28.6899C18.849 28.3382 18.5325 28.0568 18.2511 27.7403C18.1808 27.6699 18.1105 27.5996 18.0401 27.6348C17.3719 27.7403 17.3015 27.1072 16.985 26.7907C16.9498 26.7907 16.9498 26.7203 16.9498 26.6852C16.9147 26.6852 16.8795 26.6852 16.8091 26.7203C16.7388 26.7203 16.5981 26.65 16.5629 26.5796C16.5278 26.5093 16.5981 26.3686 16.6685 26.3334C16.774 26.2983 16.8795 26.2631 16.985 26.2631C16.9147 26.0521 16.7036 25.9114 16.5629 25.7004C16.4223 25.4893 16.2464 25.3135 16.0706 25.1376C15.8947 24.9266 15.754 24.6804 15.4023 24.8211C15.332 24.8563 15.1913 24.7508 15.1209 24.6804C14.8747 24.3991 14.6637 24.1177 14.4175 23.8363C14.3824 23.766 14.312 23.6956 14.312 23.6605C14.4879 22.8867 13.7493 22.6405 13.4679 22.1481C13.4327 22.0778 13.2921 22.0778 13.1866 22.0778C13.1866 22.0778 13.1866 22.0778 13.1514 22.0778V24.5046C13.2921 24.5749 13.4327 24.6804 13.6438 24.6101C13.8548 24.5749 14.1713 25.0673 14.101 25.3135C14.0307 25.5597 13.6789 25.7355 13.4327 25.7004C13.3272 25.7004 13.2217 25.7004 13.1162 25.7004V25.9114C13.1162 25.9466 13.1514 26.0169 13.1514 26.0521C13.2921 26.2631 13.4679 26.4038 13.5734 26.6148V26.65H13.6086C13.8196 26.6148 13.9955 26.5796 14.2065 26.5093C14.1713 26.4741 14.1362 26.4038 14.101 26.3686C13.9251 26.1224 13.9955 25.9817 14.2065 25.8059C14.3824 25.63 14.5582 25.5597 14.7692 25.7707C14.8747 25.8762 14.9803 26.0169 15.0506 26.0521C15.1561 26.1928 15.2265 26.2983 15.2968 26.3686C15.332 26.439 15.4023 26.5093 15.4375 26.5796C15.4375 26.5796 15.4375 26.5796 15.4727 26.5796C15.7892 26.5445 16.0706 26.7555 16.0706 27.072C16.0706 27.1424 16.0002 27.2831 15.9299 27.3182C15.7188 27.3534 15.5078 27.4941 15.2616 27.3534C15.2265 27.3886 15.1913 27.4237 15.1561 27.4237C14.7341 27.7403 14.7341 27.7403 15.0506 28.2327C15.1209 28.3733 15.2265 28.514 15.0506 28.5844C14.9803 28.6195 14.8044 28.5492 14.7341 28.514C14.5934 28.4085 14.523 28.2678 14.4175 28.1623C14.2768 28.0216 14.1362 27.8106 13.8548 27.9161C13.8196 27.9161 13.7845 27.9161 13.7493 27.881C13.6086 27.9161 13.5031 27.8458 13.3976 27.6699C13.2921 27.5293 13.2217 27.5996 13.1162 27.7403V28.6547C13.1514 28.6899 13.1866 28.7251 13.2217 28.7602C13.6438 29.2174 13.6438 29.323 13.2921 29.6043C13.2569 29.6395 13.1866 29.7098 13.1514 29.745V30.3781C13.2217 30.3781 13.2921 30.3781 13.3976 30.4484C13.4679 30.4836 13.6438 30.4133 13.7493 30.3781C13.8548 30.3429 13.9251 30.2374 13.9955 30.2022C14.1362 30.0967 14.312 30.0615 14.4175 30.2374C14.4527 30.3429 14.3824 30.5188 14.3472 30.6946C14.0658 30.7298 13.8196 30.7298 13.6086 30.8001C13.4679 30.8353 13.3272 30.9056 13.1866 30.9408V32.8752L13.5734 33.0159C15.6485 33.7896 17.7939 34.3524 19.9745 34.6689C19.8338 34.5282 19.7283 34.3875 19.869 34.1414C19.9042 34.0358 19.8338 33.86 19.7283 33.7193C19.5173 33.4028 19.1656 33.1917 19.4118 32.7345C19.4821 32.5587 19.2359 32.418 19.0249 32.5235C18.9546 32.5587 18.849 32.5938 18.8139 32.6642C18.5325 32.9104 18.3918 32.7697 18.1808 32.5587C17.9698 32.3125 18.0753 32.1366 18.2863 31.9608C18.3567 31.9256 18.427 31.8904 18.427 31.8201C18.4622 31.7146 18.4973 31.6091 18.5325 31.5035C18.427 31.5035 18.2863 31.4684 18.216 31.5035C18.0049 31.6091 17.8643 31.5387 17.7588 31.398C17.6884 31.2925 17.6181 31.187 17.5477 31.0815C17.5126 31.0815 17.4774 31.0815 17.4422 31.0815C17.196 31.0463 17.1257 30.9408 17.2664 30.6946C17.2312 30.6243 17.196 30.5891 17.1608 30.5188C16.985 30.2726 17.0553 30.0967 17.2664 29.8857C17.7236 29.4285 18.0401 29.4285 18.4622 29.956C18.5325 30.0264 18.5677 30.0967 18.638 30.1671C18.6732 30.2022 18.7084 30.2374 18.7435 30.2726C18.849 30.1319 18.8842 30.0264 18.9546 29.9209C19.0249 30.0264 19.1656 30.0967 19.2008 30.2022C19.2359 30.3077 19.1656 30.4484 19.1304 30.5539C19.0249 30.4836 18.9546 30.4133 18.849 30.3429C18.8842 30.3781 18.9194 30.4133 18.9194 30.4484C19.0601 30.5891 19.0601 30.7298 18.9546 30.9408C18.8139 31.187 18.8842 31.3629 19.1304 31.2925C19.5173 31.187 19.7635 31.398 19.9745 31.6442C20.2207 31.9256 20.3966 32.2421 20.6076 32.5235C20.8186 32.8049 20.9945 33.1566 21.4517 33.0159C21.4869 33.0159 21.6627 33.2269 21.6627 33.2269C21.522 33.4028 21.5924 33.5786 21.6627 33.7896C21.7682 34.071 21.3462 34.4227 21.0648 34.3172C20.5724 34.1414 20.5724 34.1414 20.5724 34.6337C20.5724 34.6689 20.5724 34.7041 20.5724 34.7393C21.311 34.8448 22.0848 34.9151 22.8585 34.9855L23.4916 35.0206V30.2022C23.4916 30.2374 23.4564 30.2726 23.4564 30.3077C23.2454 30.3077 23.0695 30.3429 22.9289 30.2726C22.7882 30.1671 22.8233 30.0264 22.964 29.9209C23.1399 29.7802 23.3509 29.7098 23.4564 29.7098V28.8306V25.1376L23.3509 25.0673C23.3157 25.1025 23.2454 25.1025 23.175 25.1376C23.0695 25.1728 22.964 25.1728 22.8585 25.208C22.5771 25.2783 22.2606 25.2783 22.1903 25.7004C22.1903 25.7707 21.9792 25.8411 21.8386 25.8762C21.4517 25.9817 21.2407 25.5597 20.8538 25.5949C20.8538 25.5245 20.8186 25.419 20.8538 25.3487C20.8889 25.2783 21.0296 25.2783 21.0648 25.208C21.2055 24.8914 21.3813 24.6452 21.733 25.0321C21.8034 25.1025 22.0144 24.997 22.1199 24.997C22.331 24.9618 22.542 24.8914 22.753 24.8211L18.9546 22.9219V19.5807C18.7435 19.6862 18.638 19.651 18.4622 19.44C18.216 19.1586 18.2511 19.0883 18.5677 18.7717C18.6028 18.7366 18.6732 18.6662 18.6732 18.6662C18.7435 18.5959 18.8139 18.5607 18.849 18.5255C18.9897 18.42 19.1656 18.209 19.3414 18.42C19.5173 18.5959 19.6931 18.8069 19.4821 19.0883C19.3766 19.1938 19.3063 19.3345 19.2008 19.44H20.9241C20.8889 19.2641 21.1 19.0531 21.1351 18.9476C21.311 18.8421 21.3813 18.7717 21.4517 18.7366C21.5924 18.7014 21.6979 18.6662 21.8386 18.6662C21.8386 18.8069 21.8386 18.9124 21.8034 19.0531C21.8034 19.0883 21.7682 19.1234 21.7682 19.1586C21.8034 19.2993 21.8034 19.4048 21.8034 19.4751H22.0144C23.3509 19.4751 24.4412 20.5654 24.4412 21.9019H25.5667C25.6018 21.9019 25.6018 21.9019 25.637 21.9019H25.6722C25.6722 21.2689 25.9184 20.6358 26.3756 20.1786C26.8328 19.7213 27.4307 19.4751 28.099 19.4751H31.194V20.671C31.2995 20.7061 31.405 20.7413 31.4753 20.7765C31.4402 20.882 31.4402 21.0227 31.3347 21.093C31.2995 21.1282 31.2643 21.1282 31.194 21.093V22.9571L31.1236 22.9922C31.0885 23.0626 31.0533 23.1681 30.983 23.2032C30.8774 23.2384 30.8071 23.2736 30.7368 23.3088C30.6312 23.4143 30.4906 23.555 30.3851 23.6605C30.1389 23.8715 29.9982 23.8715 29.7871 23.6956L26.868 25.1728L26.9031 25.208C26.9735 25.419 27.29 25.6652 27.0438 25.8762C26.9031 25.9817 26.7976 25.9114 26.6921 25.8059V28.514C26.7273 28.5492 26.7273 28.5492 26.7625 28.5844C26.868 28.5492 27.0438 28.4789 27.079 28.514C27.3252 28.6899 27.5714 28.9361 27.8176 29.1471C27.8879 29.2174 27.8528 29.4636 27.7824 29.4988C27.6417 29.6043 27.4307 29.6395 27.2549 29.6747C27.2549 29.6747 27.1845 29.5692 27.1845 29.534C27.3955 29.0416 27.0087 28.8306 26.7625 28.514C26.7273 28.514 26.7273 28.5492 26.6921 28.5492V29.2526V33.4731C26.868 33.6841 27.0438 33.9303 27.2197 34.1414C27.4307 34.3875 27.3604 34.5634 27.1493 34.7393C26.9735 34.8799 26.8328 34.9503 26.6921 34.8448V35.091L27.3252 35.0558C28.6265 34.9503 29.9278 34.8096 31.194 34.5634C31.194 34.5634 31.194 34.5282 31.1588 34.5282C31.1236 34.3875 31.2643 34.2117 31.3347 34.071C31.4402 33.9303 31.616 33.8248 31.7919 33.9655C31.8974 34.0358 32.0029 34.1414 32.1436 34.282C32.1436 34.3172 32.1788 34.3524 32.1788 34.3524C33.6208 34.0358 35.0276 33.6138 36.3993 33.0862L36.7861 32.9455V26.65V18.7717C36.7861 18.4552 36.7861 18.1738 36.751 17.8573C36.751 17.8221 36.7158 17.8221 36.7158 17.787C36.6806 17.6814 36.6806 17.6111 36.7158 17.5759C36.5751 16.2043 36.1882 14.8678 35.6255 13.6368C35.5552 13.6368 35.52 13.6368 35.4848 13.6016C35.4496 13.5665 35.4496 13.4258 35.4496 13.2851H35.4848C34.9221 12.23 34.2187 11.2452 33.3746 10.4011C32.2139 9.24046 30.8423 8.36119 29.3651 7.76329C29.5761 7.97431 29.7871 8.22051 29.963 8.43153C30.1389 8.60738 30.2795 8.81841 30.4554 9.02943C30.7368 9.38114 31.0533 9.73285 31.3347 10.0846C31.5105 10.2956 31.7215 10.4714 31.5457 10.788C31.4753 10.9287 31.616 11.1045 31.7919 11.0342C32.0733 10.9287 32.1788 11.1045 32.3546 11.2452C32.425 11.3155 32.4601 11.421 32.5656 11.421C32.7415 11.4562 32.9877 11.421 33.0932 11.5266C33.1635 11.6321 33.0229 11.9134 33.0932 12.0541C33.2691 12.4058 32.9525 12.4762 32.7767 12.652C32.6008 12.8279 32.4601 12.6872 32.3194 12.5465C32.2139 12.441 32.1436 12.3355 32.0381 12.23C31.5457 11.6321 31.0181 11.0693 30.5257 10.4714C30.3851 10.2956 30.2092 10.1197 30.1037 9.9087C30.0333 9.69768 30.1389 9.41631 30.0333 9.24046C29.9278 9.02943 29.541 9.34597 29.3651 9.02943C29.2596 8.85358 29.1189 8.7129 28.9782 8.57221C28.9079 8.50187 28.9079 7.6226 28.9782 7.6226H29.0134C28.9079 7.58743 28.8375 7.55226 28.732 7.51709L28.4858 10.7176C28.4155 10.788 28.5562 10.788 28.6969 10.7528ZM13.6086 19.2641C13.4679 19.3345 13.2569 19.3696 13.2569 19.1586C13.2569 19.0883 13.3976 18.9828 13.5031 18.8421C13.6438 18.9124 13.7845 18.9828 13.89 19.0531C13.7845 19.0883 13.7141 19.1938 13.6086 19.2641ZM14.4175 32.2421C14.4175 32.2421 14.3472 32.2773 14.312 32.3125C14.2768 32.2421 14.2065 32.207 14.1713 32.1366C13.9955 31.8904 13.9955 31.5387 13.6438 31.4332C13.6086 31.4332 13.6086 31.3277 13.6086 31.2925C13.6438 31.2574 13.7141 31.187 13.7845 31.2222C14.101 31.2925 14.4175 31.3277 14.6989 31.4332C14.7341 31.4332 14.7692 31.5387 14.8044 31.6091C14.523 31.7497 14.4527 31.9608 14.4175 32.2421ZM16.2816 32.9455C16.2112 32.9455 16.1409 32.9455 16.0706 32.9104C15.8595 32.7697 15.6837 32.5587 15.5078 32.418C15.4023 32.3125 15.2616 32.2421 15.1209 32.207C15.0154 32.1718 14.8747 32.1366 14.7692 32.1015C14.8396 31.9608 14.8747 31.8201 14.9803 31.6091C15.1561 31.6091 15.2968 31.6091 15.4727 31.6442C15.6133 31.6442 15.754 31.6794 15.8947 31.6794C16.1761 31.7146 16.3871 31.9608 16.3519 32.2773C16.3519 32.418 16.3519 32.5587 16.3519 32.6994C16.3168 32.8049 16.2816 32.8752 16.2816 32.9455ZM17.0905 33.3676C17.1257 33.6138 17.1608 33.7896 17.1608 33.9303C16.9498 33.8248 16.774 33.7545 16.5981 33.6138C16.5629 33.5786 16.6333 33.3324 16.6685 33.2973C16.774 33.2973 16.9147 33.3324 17.0905 33.3676ZM16.8091 29.0064C16.7036 29.1119 16.5981 29.1823 16.4926 29.2878C16.3871 29.3933 16.2816 29.4636 16.1761 29.5692C15.8244 29.8505 15.6837 29.8154 15.4375 29.4636C15.2968 29.2526 15.3671 29.1471 15.5078 29.0064C15.6837 28.8306 15.8595 28.6899 15.965 28.4789C16.1409 28.2327 16.0354 28.1272 15.754 28.1272C15.6133 28.1272 15.5078 28.0568 15.3671 28.0216C15.4375 27.9161 15.4375 27.7403 15.543 27.6699C15.8947 27.2831 16.0002 27.2831 16.3519 27.7403C16.5278 27.9513 16.7036 28.1623 16.8795 28.3734C17.1608 28.6547 17.1608 28.6899 16.8091 29.0064ZM20.2559 30.3781C20.1504 30.3781 20.0097 30.2726 19.9745 30.2022C19.9745 30.0967 20.0448 29.9912 20.1152 29.7802C20.2559 29.9209 20.3614 29.9912 20.4317 30.0967C20.5021 30.2726 20.4317 30.3781 20.2559 30.3781ZM21.8737 34.6689C21.8386 34.7041 21.7682 34.6689 21.733 34.6689C21.733 34.5986 21.733 34.5282 21.7682 34.4931C21.7682 34.4579 21.8737 34.4931 21.9441 34.4931C21.9089 34.5634 21.9089 34.6337 21.8737 34.6689ZM16.6685 13.3906C16.6685 13.4609 16.6685 13.5665 16.6333 13.5665C16.5629 13.6016 16.4926 13.5665 16.3871 13.5665C16.3871 13.4961 16.3871 13.4258 16.3871 13.3203C16.4926 13.3554 16.5629 13.3906 16.6685 13.3906ZM15.5078 12.3355C15.5782 12.2651 15.7892 12.3355 16.0002 12.3707C16.0354 12.6168 16.1057 12.8279 16.0354 12.8982C15.8595 13.1092 15.7188 12.8982 15.6133 12.7575C15.543 12.652 15.332 12.5113 15.5078 12.3355ZM15.965 21.6909C15.9299 21.9371 15.7892 22.0426 15.6133 21.8668C15.2265 21.4447 14.8396 20.9875 14.4879 20.5303C14.3472 20.3544 14.6989 19.8269 14.9099 19.862C15.2265 19.8972 15.5782 20.0379 15.965 20.1434C15.965 20.3896 15.965 20.5654 16.0002 20.7413C16.0706 21.0578 16.0354 21.3744 15.965 21.6909ZM22.4365 28.6195C22.4716 28.6547 22.5068 28.7602 22.5068 28.7602C22.2958 29.0064 22.0848 29.2526 21.8034 29.4636C21.5924 29.6043 21.522 29.5692 21.2758 29.2878C20.9945 29.0768 21.2055 28.8657 21.3462 28.6547C21.6979 28.2327 22.1903 28.2327 22.4365 28.6195ZM18.4973 23.4143C18.7084 23.3439 19.0952 23.8715 18.9897 24.0825C18.7435 24.4694 19.0952 24.6452 19.2359 24.8914C19.2711 24.9618 19.3414 24.997 19.3766 25.0673C19.6931 25.419 19.6931 25.419 20.08 25.1728C20.1504 25.1376 20.2207 25.0673 20.291 25.0321C20.3262 25.0321 20.3966 25.0321 20.4317 25.0673C20.4669 25.1025 20.4669 25.1728 20.4317 25.208C20.3966 25.2783 20.3262 25.3487 20.2559 25.419C20.1855 25.4893 20.08 25.5597 20.0449 25.6652C20.08 25.6652 20.1152 25.7004 20.1504 25.7004C20.1152 25.7355 20.08 25.7707 20.0449 25.8059C20.0449 25.8411 20.08 25.8762 20.08 25.9114C20.2559 26.1928 20.5021 26.3686 20.7483 26.2631C20.9593 26.1928 21.0648 26.2279 21.1703 26.3686C21.2758 26.5093 21.4165 26.6852 21.522 26.861C21.6627 27.1424 21.522 27.5644 21.2407 27.6699C21.1351 27.7051 20.9945 27.6348 20.9241 27.5644C20.7483 27.4237 20.6428 27.2479 20.5021 27.072C20.3614 26.8962 20.2559 26.8258 20.0097 26.8258C19.8338 26.8258 19.6228 26.6148 19.4469 26.4741C19.3063 26.3686 19.2008 26.1928 19.0601 26.1224C19.0249 26.1576 18.9546 26.1576 18.8842 26.1576C18.7435 26.1576 18.4973 26.1224 18.4973 26.0521C18.4973 26.0169 18.4973 25.9466 18.4622 25.9114C18.0753 25.4542 17.6884 24.9618 17.3015 24.5046C17.2312 24.3991 17.2312 24.2584 17.2312 24.1177C17.196 24.0122 17.2312 23.8715 17.196 23.766C17.1257 23.6253 16.985 23.4846 17.1608 23.3439C17.3719 23.2032 17.5829 23.0274 17.8291 23.2032C18.0401 23.3439 18.1808 23.5198 18.4973 23.4143ZM18.2511 21.4095C18.2863 21.5502 18.3215 21.6909 18.2511 21.7612C18.2511 21.7964 18.216 21.8316 18.216 21.8316C18.0049 22.0426 17.7939 22.2185 17.5477 22.3943C17.3719 22.5702 17.1608 22.746 16.9498 22.8867C16.8443 22.9571 16.6685 23.0274 16.5981 22.9922C16.4223 22.9219 16.4574 22.7812 16.5629 22.6405C16.5981 22.6053 16.6333 22.5702 16.5981 22.535C16.4926 22.2536 16.5629 22.0778 16.7036 21.9371C16.5981 21.7964 16.5278 21.6909 16.4574 21.5502C16.4223 21.5151 16.5278 21.4095 16.5629 21.304C16.6685 21.3744 16.774 21.4799 16.9147 21.5854C16.8795 21.6909 16.8443 21.7612 16.8091 21.8668C16.9147 21.7964 17.0202 21.7261 17.0905 21.6557C17.2312 21.5151 17.407 21.4447 17.6181 21.5502C17.6532 21.5502 17.6532 21.5502 17.6884 21.5502C17.7588 21.304 17.5477 21.0227 17.8643 20.9523C18.2511 20.882 18.1808 21.2337 18.2511 21.4095ZM16.6685 17.5056C16.5629 17.3297 16.6333 17.1187 16.8091 17.1539C17.1608 17.2242 17.5126 17.1539 17.8291 17.4352C18.1105 17.6814 18.0049 17.998 18.0401 18.2793C18.0753 18.4904 17.8291 18.631 17.6181 18.4904C17.407 18.3497 17.196 18.1738 16.985 17.998C16.985 17.998 16.985 17.9628 17.0202 17.9628C16.8795 17.787 16.774 17.6814 16.6685 17.5056ZM18.1808 14.3754C18.0401 14.6919 17.9698 15.114 17.5126 15.1491C17.3367 15.1491 17.1257 15.2547 16.9498 15.2898V15.2547C16.7036 15.325 16.4574 15.3953 16.2112 15.4305C16.1057 15.4657 16.0354 15.4305 15.965 15.4305C15.8244 15.5712 15.6837 15.7119 15.5078 15.8174C15.4375 15.8526 15.2968 15.8174 15.1561 15.8174C15.1561 15.747 15.1561 15.7119 15.1561 15.6415C15.0506 15.7119 14.8747 15.747 14.7692 15.747C14.6637 15.747 14.523 15.5712 14.3824 15.5009C14.4175 15.2898 14.3824 15.114 14.4879 15.0436C14.6637 14.9029 14.7692 15.0436 14.8396 15.1843C14.8747 15.2195 14.8747 15.2195 14.9099 15.2547C14.9803 15.2898 15.0858 15.2898 15.1561 15.325C15.1561 15.2195 15.1913 15.0788 15.2265 14.9733C15.2616 14.7974 15.4375 14.7974 15.5782 14.8678H15.6133C15.5782 14.6216 15.7188 14.5161 15.9299 14.4809C16.5981 14.3402 17.2312 14.1995 17.8994 14.094C18.1105 14.094 18.2511 14.2347 18.1808 14.3754ZM18.3567 9.94387C18.427 9.9087 18.6028 9.94387 18.6732 9.97904C18.8842 10.2604 19.0601 10.5418 19.2359 10.8231C19.2711 10.8583 19.2359 10.9638 19.2711 11.0342C19.2008 11.0342 19.0952 11.0342 19.0249 10.999C18.7787 10.7528 18.5325 10.5066 18.216 10.1901C18.2511 10.1549 18.2511 10.0142 18.3567 9.94387ZM19.2359 16.767C19.0952 16.8022 18.9194 16.6263 18.7787 16.5208C18.638 16.3801 18.5325 16.2394 18.3918 16.0636C18.2511 15.8526 18.3215 15.7119 18.5325 15.6415C18.7787 15.5712 19.0601 15.4657 19.3063 15.8877C19.3063 15.8877 19.3414 15.9932 19.3414 16.0988C19.3414 16.1691 19.2711 16.2394 19.2711 16.3098C19.3063 16.4856 19.4821 16.6967 19.2359 16.767ZM20.4669 14.3402C20.1504 14.4106 20.08 14.3402 19.9745 13.9182C19.9042 13.7071 19.9042 13.5313 20.1504 13.4609C20.5021 13.3554 20.7483 13.4961 20.8186 13.8478C20.8889 14.1644 20.8538 14.2699 20.4669 14.3402ZM21.3462 10.7176C21.2758 10.7528 21.1703 10.7528 21.1351 10.7176C21.1 10.6825 21.1 10.6121 21.0648 10.4714C21.2758 10.5066 21.3462 10.5066 21.4165 10.5418C21.3813 10.6121 21.3813 10.7176 21.3462 10.7176ZM23.6323 16.4153C23.5971 16.4153 23.5971 16.3098 23.5619 16.2043C23.6674 16.2043 23.7729 16.2043 23.8081 16.2394C23.8433 16.3098 23.8433 16.3801 23.8433 16.4505C23.7378 16.4505 23.6674 16.4505 23.6323 16.4153ZM24.7226 21.0227C24.6874 21.0578 24.5115 21.0578 24.4764 21.0227C24.4412 20.9875 24.4412 20.8468 24.4412 20.7061C24.5819 20.7413 24.7226 20.7061 24.7577 20.7765C24.7929 20.8116 24.7929 20.9523 24.7226 21.0227ZM24.8281 16.2394C24.7226 16.2394 24.617 16.2746 24.5467 16.2043C24.5115 16.1691 24.5115 16.0284 24.5115 15.8877C24.6522 15.9229 24.7929 15.9229 24.8281 15.9581C24.8632 16.0284 24.8281 16.1339 24.8281 16.2394ZM26.6218 18.2793C26.5163 18.42 26.4108 18.5959 26.2701 18.7014C26.1997 18.7717 26.059 18.7014 25.9535 18.7014C25.9535 18.5959 25.9535 18.4904 25.9887 18.3849C26.0239 18.3145 26.1294 18.2442 26.1997 18.1738C26.2349 18.1387 26.3052 18.0683 26.3756 18.0683C26.4459 18.0331 26.5514 18.0683 26.5514 18.1035C26.6218 18.1035 26.6218 18.209 26.6218 18.2793ZM27.7121 16.2043C27.6417 16.2394 27.4307 16.2394 27.3955 16.1691C27.3252 16.0636 27.3604 15.9229 27.3604 15.6767C27.6066 15.7822 27.7472 15.8174 27.7824 15.9229C27.8528 15.9581 27.7824 16.1339 27.7121 16.2043ZM28.8727 17.5056C28.6617 17.5056 28.4155 17.5408 28.2045 17.5056C28.1341 17.5056 27.9934 17.4001 28.0286 17.3649C28.0638 17.2242 28.1693 17.0835 28.2396 16.9077C28.3803 16.9077 28.5913 16.8373 28.6265 16.9077C28.7672 17.0835 28.8375 17.2946 28.9079 17.4704C28.8727 17.4704 28.8727 17.5056 28.8727 17.5056ZM29.963 19.0531C29.8223 19.1586 29.6816 19.3696 29.5058 19.1586C29.4354 19.0883 29.541 18.8772 29.5761 18.631C29.7871 18.631 29.9982 18.5959 30.1037 18.6662C30.2795 18.8421 30.1037 18.9828 29.963 19.0531ZM28.099 27.1775C28.2396 27.2127 28.3451 27.2127 28.3803 27.2479C28.4155 27.2831 28.3803 27.3886 28.3803 27.4941C28.2748 27.4941 28.1693 27.4941 28.099 27.4589C28.0638 27.4589 28.099 27.3182 28.099 27.1775ZM27.9231 28.092C27.9934 28.092 28.099 28.1623 28.1341 28.2327C28.1693 28.2678 28.0638 28.4085 28.0286 28.4085C27.9583 28.4085 27.8528 28.3733 27.7472 28.303C27.8176 28.1975 27.8879 28.092 27.9231 28.092ZM27.7472 30.6946C27.6417 30.5188 27.4307 30.3077 27.6417 30.0615C27.7472 29.9209 28.4507 30.0264 28.5913 30.1671C28.8375 30.4836 28.8375 30.6946 28.5913 30.9056C28.31 31.1167 27.9934 31.0463 27.7472 30.6946ZM29.4354 33.4379C29.2596 33.5434 29.0837 33.649 28.9079 33.7193C28.8024 33.7545 28.6617 33.649 28.4155 33.6138C28.5562 33.4379 28.6265 33.2621 28.732 33.2269C28.9431 33.1917 29.1892 33.2269 29.4003 33.2621C29.4354 33.2621 29.4706 33.4379 29.4354 33.4379ZM29.4003 32.1015C29.2244 32.1015 29.0837 32.0663 28.9431 32.0663C28.9782 31.9608 28.9782 31.7849 29.0134 31.7497C29.1892 31.6794 29.3651 31.6442 29.541 31.5739C29.5058 31.7146 29.4706 31.8904 29.4003 32.1015ZM34.2187 14.1995C34.5 13.9885 34.6407 14.1292 34.8166 14.3402C35.0276 14.5864 35.2386 14.8326 35.4496 15.0788C35.6255 15.2898 35.8013 15.5009 35.9772 15.7119C36.1531 15.9229 36.3641 16.0988 36.1531 16.4153C36.1179 16.5208 36.3289 16.7318 36.3993 16.9077C36.4344 16.978 36.3993 17.0835 36.3993 17.189C36.2937 17.189 36.1531 17.2242 36.1179 17.1539C35.4496 16.345 34.5704 15.7822 34.078 14.8326C33.867 14.5161 33.9021 14.4106 34.2187 14.1995ZM32.7767 22.1481C32.847 22.113 32.9877 22.1833 33.0932 22.1833C33.058 22.2888 33.058 22.3943 33.0229 22.4647C32.9525 22.535 32.8118 22.4998 32.6008 22.535C32.6712 22.324 32.7063 22.1833 32.7767 22.1481ZM31.0533 33.7193C30.9126 33.8248 30.7368 34.0358 30.5257 33.8248C30.3147 33.6138 30.5257 33.4731 30.7368 33.2621C30.8071 33.2621 31.0181 33.2269 31.1236 33.2973C31.2995 33.4028 31.194 33.5786 31.0533 33.7193ZM30.3851 33.1214C30.4906 33.0159 30.5257 32.9104 30.5961 32.9104C30.6312 32.9104 30.7368 32.9807 30.7719 33.0159C30.7368 33.0862 30.7016 33.1917 30.6312 33.2269C30.5961 33.2621 30.4906 33.1917 30.3851 33.1214ZM31.8974 23.4494C32.0029 23.3791 32.1436 23.4143 32.2491 23.4143C32.2139 23.5198 32.2139 23.6605 32.1436 23.7308C32.0381 23.8715 31.8622 23.977 31.7215 24.0825C31.5457 24.2232 31.405 24.3639 31.5105 24.6452C31.5809 24.8914 31.2643 25.1376 31.4402 25.4542C31.3698 25.4893 31.2643 25.5597 31.2291 25.5245C31.0181 25.3838 30.8071 25.2432 30.6312 25.1025C30.5257 24.9266 30.4554 24.7508 30.3851 24.6101C30.2444 24.3287 30.2795 24.2584 30.6312 24.2584C30.9478 24.2584 31.2292 23.977 31.5457 23.8363C31.6864 23.6605 31.7567 23.5198 31.8974 23.4494Z" fill="#FEFEFE"/>
</g>
<defs>
<clipPath id="clip0_1_2359">
<rect width="50" height="50" fill="white"/>
</clipPath>
</defs>
</svg>
