<svg width="30" height="30" viewBox="0 0 30 30" fill="none" xmlns="http://www.w3.org/2000/svg">
<path d="M4.67395 22.7593H4.68749C4.67395 22.7474 4.64687 22.7234 4.63332 22.7115H4.44373C4.4979 22.7474 4.56561 22.7833 4.67395 22.7593Z" fill="#171026"/>
<path d="M17.5526 25.8949C17.7151 25.8231 17.7828 25.9548 17.8235 26.0625H21.6017C21.6153 26.0027 21.6288 25.9309 21.6424 25.871C21.6424 25.859 21.6965 25.8351 21.7236 25.8351C21.8319 25.8471 21.9403 25.9428 21.9538 26.0505H24.0393C24.0393 26.0505 24.0393 26.0386 24.0258 26.0386C23.782 25.883 24.107 25.6795 24.0529 25.4761C24.1206 25.4761 24.2018 25.4402 24.2289 25.4641C24.4456 25.6077 24.5133 25.8351 24.581 26.0505H25.8404C26.2332 26.0505 26.5988 25.9428 26.8967 25.7633C26.8967 25.7274 26.9238 25.6795 26.9374 25.6316C26.9644 25.6556 27.0051 25.6676 27.0322 25.6795C27.4655 25.3684 27.7364 24.9016 27.7364 24.375C27.7364 23.4535 26.8832 22.6995 25.8404 22.6995H19.6381C19.6381 22.7234 19.611 22.7832 19.5839 22.7952C19.5433 22.8072 19.4756 22.7952 19.3808 22.7832C19.3944 22.7473 19.4214 22.7234 19.4214 22.6995H16.6182C16.6453 22.7593 16.6724 22.8191 16.6994 22.879C16.713 22.891 16.6724 22.9388 16.6453 22.9508C16.4692 23.0346 16.1848 22.879 16.1848 22.6995H13.6524C13.6524 22.7114 13.6524 22.7234 13.6524 22.7354C13.6795 22.8072 13.7066 22.891 13.7337 22.9628C13.6254 22.9388 13.5035 22.9269 13.3951 22.879C13.2597 22.8191 13.1378 22.7593 13.016 22.6875H12.1628C12.2576 22.8191 12.3659 22.9628 12.4607 23.0944C12.5691 23.1184 12.6639 23.2021 12.7587 23.25C12.9212 23.3218 13.1243 23.3697 13.043 23.609C13.0295 23.6449 13.1378 23.7168 13.1378 23.7766C13.1378 23.8364 13.0837 23.9561 13.0566 23.9561C12.7587 23.9561 12.4336 24.0997 12.1493 23.8963C12.0138 23.8005 11.8649 23.7407 11.919 23.5372C11.9597 23.3697 11.8649 23.3218 11.6888 23.4056C11.5534 23.4774 11.4586 23.4415 11.3503 23.3816C11.0388 23.2141 10.7273 23.0585 10.4159 22.891C10.3075 22.8311 10.1992 22.7713 10.1315 22.6875H9.16997C9.11581 22.7234 9.06164 22.7473 9.03455 22.7354C9.00747 22.7234 8.98038 22.6995 8.98038 22.6875H6.69175C6.67821 22.7234 6.65112 22.7593 6.62404 22.7952C6.56987 22.867 6.5157 22.9508 6.47507 23.0226C6.4209 23.1064 6.36673 23.1902 6.29902 23.2739C6.12297 23.5013 6.04172 23.5013 5.79796 23.3338C5.68962 23.262 5.67608 23.1902 5.73025 23.0824C5.79796 22.9508 5.86567 22.8191 5.91984 22.6875H5.50003C5.40524 22.7354 5.2969 22.7713 5.17502 22.7952C5.09377 22.8072 5.01251 22.891 4.95834 22.867C4.90418 22.8551 4.86355 22.8311 4.80938 22.8072C4.93126 22.9987 5.02606 23.1782 5.14794 23.3697C5.24273 23.5372 5.08022 23.5731 4.97189 23.6449C4.85001 23.7287 4.75521 23.6928 4.6875 23.5731C4.61979 23.4535 4.53854 23.3338 4.47082 23.2021C4.47082 23.2021 4.48437 23.2021 4.48437 23.1902C4.4302 23.0944 4.37603 23.0106 4.32186 22.9149C4.25415 22.8072 4.21352 22.6995 4.02393 22.7234C3.96976 22.7354 3.92914 22.7114 3.90205 22.6875C3.06243 22.7952 2.39887 23.3816 2.29053 24.1237C2.33115 24.1237 2.35824 24.1356 2.38532 24.1476C2.46658 24.2314 2.48012 24.363 2.5072 24.4827C2.5072 24.5066 2.42595 24.5545 2.39887 24.5545C2.35824 24.5545 2.33115 24.5426 2.29053 24.5426C2.39887 25.3803 3.19786 26.0386 4.1729 26.0386H5.10731C5.12085 26.0146 5.13439 25.9787 5.16148 25.9548C5.18856 25.9309 5.2021 25.9069 5.22919 25.871C5.2969 25.7872 5.37815 25.6915 5.48649 25.7753C5.52712 25.8112 5.48649 25.9309 5.47295 26.0027C5.47295 26.0146 5.47295 26.0146 5.45941 26.0266H13.6254C13.4764 25.7753 13.3139 25.5359 13.1649 25.2846C13.1243 25.2128 13.0701 25.141 13.0295 25.0691C12.9889 24.9734 12.9076 24.8896 13.0566 24.8059C13.2191 24.7221 13.3545 24.746 13.4629 24.8537C13.7743 25.1769 13.991 25.5359 14.0993 25.9548C14.0993 25.9787 14.1129 26.0027 14.1264 26.0266H16.4828C16.4421 25.871 16.3338 25.7872 16.1442 25.7154C15.9817 25.6556 15.8057 25.5359 15.8192 25.3205C15.8192 25.2726 15.765 25.2128 15.738 25.1649C15.6702 25.1888 15.6025 25.2128 15.5619 25.2487C15.264 25.4521 15.1963 25.4761 14.9796 25.3564C14.6817 25.2008 14.6681 24.7939 14.939 24.6024C15.0608 24.5186 15.1556 24.5306 15.2775 24.5904C15.5077 24.7101 15.738 24.8418 15.9817 24.9614C15.9817 24.9614 15.9817 24.9614 15.9817 24.9495C16.1578 25.0452 16.3203 25.129 16.4963 25.2247C16.6588 25.3205 16.9026 25.3684 16.8484 25.6316C16.8349 25.6676 16.9297 25.7274 16.9974 25.7633C17.0922 25.8351 17.2141 25.883 17.2953 25.9548C17.3224 25.9787 17.3359 26.0027 17.363 26.0266H17.512C17.4443 25.9907 17.4443 25.9428 17.5526 25.8949ZM26.0707 24.0638C26.4228 24.1596 26.4228 24.1715 26.6665 24.5066C26.6801 24.5306 26.7207 24.5904 26.7613 24.6622C26.8561 24.8537 26.8019 24.9734 26.5853 25.0452C26.5446 25.0572 26.4769 25.0691 26.4363 25.0452C26.2332 24.9016 26.003 24.8298 25.7456 24.8777C25.6509 24.8896 25.529 24.5785 25.6102 24.5066C25.6238 24.4827 25.6915 24.4827 25.7186 24.4947C25.9082 24.6383 26.03 24.4947 26.1519 24.4109C26.179 24.3989 26.1519 24.3032 26.1248 24.2553C26.1113 24.2314 26.03 24.2434 26.0165 24.2314C25.9759 24.1835 25.9623 24.1356 25.9352 24.0758C25.9623 24.0758 26.03 24.0519 26.0707 24.0638ZM25.529 22.9269C25.5696 22.9029 25.6509 22.9269 25.6915 22.9508C25.705 22.9628 25.705 23.0346 25.6915 23.0705C25.6509 23.1064 25.5967 23.1303 25.529 23.1662C25.4748 23.1782 25.4206 23.1902 25.3665 23.1902C25.3394 23.1902 25.2988 23.1184 25.2988 23.1184C25.3665 23.0465 25.4342 22.9747 25.529 22.9269ZM24.8654 23.262C24.9196 23.2859 24.9873 23.3098 25.0415 23.3338C25.055 23.3457 25.0821 23.3577 25.0821 23.3697C25.1904 23.4894 25.2988 23.5253 25.4613 23.4415C25.5696 23.3816 25.6779 23.3577 25.7592 23.4894C25.8269 23.5971 25.9759 23.7048 25.8134 23.8484C25.7186 23.9322 25.6779 24.0758 25.5831 24.1596C25.4206 24.3032 25.3394 24.2912 25.2175 24.1237C25.1633 24.0399 25.1092 23.9441 25.0415 23.8245C24.9873 23.7168 24.9196 23.5851 24.8654 23.4415C24.8383 23.3936 24.8654 23.3218 24.8654 23.262ZM22.9153 23.2261C22.983 23.2261 23.0507 23.2261 23.1185 23.2141C23.2403 23.1902 23.3487 23.1423 23.4706 23.1184C23.6331 23.0824 23.782 23.2021 23.7685 23.3457C23.7685 23.3697 23.6737 23.4056 23.6466 23.4056C23.4028 23.3577 23.4299 23.3577 23.3351 23.5612C23.2403 23.7407 23.2674 23.8604 23.3893 24.004C23.4841 24.1117 23.5518 24.2553 23.4435 24.4109C23.4164 24.4468 23.4299 24.5066 23.4299 24.5545C23.4841 24.5545 23.5518 24.5665 23.606 24.5665C23.9175 24.5306 23.9716 24.5426 24.08 24.7101C24.2154 24.9375 24.0393 25.2367 23.7414 25.2726C23.606 25.2846 23.5518 25.2367 23.4976 25.1529C23.3893 24.9734 23.281 24.7939 23.1726 24.6144C23.1726 24.6144 23.1726 24.6144 23.1591 24.6144C23.0778 24.4827 22.9966 24.3511 22.9289 24.2194C22.8612 24.0878 22.7122 23.9561 22.8747 23.7886C22.9018 23.7646 22.8612 23.6809 22.8341 23.633C22.7934 23.5492 22.7393 23.4654 22.7122 23.3816C22.6851 23.3218 22.6987 23.25 22.6987 23.1782C22.7664 23.2141 22.8476 23.2261 22.9153 23.2261ZM22.4955 22.7832C22.5361 22.7713 22.5903 22.7952 22.6851 22.8072C22.6445 22.879 22.6309 22.9388 22.5903 22.9508C22.5497 22.9628 22.4684 22.9388 22.4549 22.9029C22.4278 22.879 22.4549 22.8072 22.4955 22.7832ZM21.5476 23.1782C21.6288 23.2021 21.7101 23.2141 21.7236 23.25C21.7372 23.2859 21.7236 23.3577 21.683 23.3816C21.6559 23.4056 21.5611 23.3816 21.534 23.3577C21.5205 23.3218 21.5476 23.25 21.5476 23.1782ZM20.8975 24.9255C20.9246 24.8896 21.0059 24.8777 21.1142 24.8298C21.1142 24.9255 21.1413 25.0093 21.1142 25.0332C21.0736 25.0691 20.9923 25.0691 20.9246 25.0572C20.8975 25.0572 20.8705 24.9495 20.8975 24.9255ZM18.3245 25.4761C18.3516 25.4402 18.4464 25.4043 18.5006 25.4282C18.5412 25.4402 18.5683 25.5239 18.6089 25.6077C18.5006 25.6197 18.4193 25.6556 18.3787 25.6316C18.3245 25.6077 18.2974 25.512 18.3245 25.4761ZM3.64475 24.9495C3.5635 25.1529 3.42807 25.2487 3.25202 25.2008C3.18431 25.1769 3.10306 25.1529 3.04889 25.129C3.02181 25.1529 2.99472 25.1649 2.94055 25.1888C2.81867 25.2487 2.71034 25.2846 2.62908 25.141C2.57491 25.0452 2.56137 24.9614 2.57491 24.8896C2.53429 24.8657 2.5072 24.8418 2.48012 24.8178C2.45303 24.7939 2.43949 24.7221 2.46658 24.6742C2.48012 24.6503 2.54783 24.6144 2.58846 24.6144C2.87284 24.6383 3.15723 24.6742 3.44162 24.7101C3.57704 24.734 3.71246 24.7699 3.64475 24.9495ZM3.71246 23.5133C3.57704 23.3816 3.73954 23.2739 3.79371 23.1662C3.8208 23.1064 3.94268 23.0346 4.01039 23.0465C4.1729 23.0585 4.19998 23.1902 4.05102 23.3936C4.02393 23.4295 3.99685 23.5013 3.94268 23.5253C3.86142 23.5492 3.75309 23.5492 3.71246 23.5133ZM4.52499 25.859C4.37603 26.0625 4.22706 26.0864 3.96976 25.9309C3.80726 25.8351 3.79371 25.7394 3.94268 25.5479C4.06456 25.3803 4.15935 25.3684 4.40311 25.5C4.63333 25.6197 4.66042 25.6676 4.52499 25.859ZM5.24273 24.2673C5.22919 24.2793 5.14794 24.2553 5.14794 24.2553C5.14794 24.2194 5.16148 24.1835 5.17502 24.1237C5.22919 24.1476 5.26982 24.1596 5.2969 24.1715C5.26982 24.1955 5.26982 24.2434 5.24273 24.2673ZM7.54491 23.5133C7.40949 23.5971 7.24698 23.6569 7.09802 23.7048C6.94905 23.7527 6.81363 23.609 6.8678 23.4774C6.89488 23.3936 6.96259 23.3218 7.00322 23.238C7.05739 23.1662 7.1251 23.1064 7.17927 23.0346C7.26052 22.9149 7.36886 22.9149 7.49074 22.9867C7.82929 23.1423 7.85638 23.2979 7.54491 23.5133ZM8.83142 25.2247C8.80433 25.2487 8.70954 25.2247 8.68245 25.2008C8.65537 25.1769 8.68245 25.117 8.696 25.0332C8.77725 25.0572 8.8585 25.0691 8.87205 25.0931C8.88559 25.129 8.8585 25.2128 8.83142 25.2247ZM9.31894 25.8112C9.23769 25.8471 9.12935 25.9428 9.06164 25.8112C9.03455 25.7753 9.11581 25.6795 9.16997 25.5957C9.29185 25.6077 9.42728 25.5718 9.4679 25.6197C9.54916 25.7394 9.40019 25.7753 9.31894 25.8112ZM9.90125 24.9255C9.75229 25.1051 9.34602 25.2487 9.11581 25.141C9.00747 25.0931 8.89913 25.0332 8.79079 24.9734C8.696 24.9255 8.6012 24.8657 8.50641 24.8178V24.8059C8.38453 24.746 8.27619 24.6503 8.15431 24.6263C7.80221 24.5306 7.80221 24.2434 7.68033 24.016C7.65325 23.9801 7.69387 23.9082 7.72096 23.8604C7.78867 23.7168 7.86992 23.5851 7.95117 23.4535C8.00534 23.3457 8.11368 23.2979 8.22202 23.3697C8.27619 23.4056 8.28973 23.5133 8.27619 23.5851C8.2491 23.7048 8.18139 23.8245 8.12722 23.9322C8.26265 23.9322 8.41161 23.9322 8.54703 23.9202C8.61474 23.9202 8.70954 23.9322 8.75017 23.8963C8.84496 23.8245 8.93976 23.7407 9.07518 23.8245C9.2106 23.8963 9.38665 23.9441 9.37311 24.1237C9.35957 24.2553 9.41373 24.3032 9.57624 24.2553C9.79292 24.2074 9.87417 24.2912 9.84709 24.4827C9.83354 24.6383 10.0367 24.758 9.90125 24.9255ZM10.0367 23.3457C9.98251 23.3338 9.9148 23.3218 9.88771 23.2859C9.87417 23.25 9.90125 23.2021 9.9148 23.1184C9.99605 23.1543 10.0638 23.1782 10.0773 23.2141C10.0908 23.25 10.0502 23.2979 10.0367 23.3457ZM10.1992 25.7154C10.1721 25.7035 10.1721 25.5957 10.1856 25.5838C10.2398 25.5598 10.3211 25.5479 10.3752 25.5718C10.4023 25.5838 10.4023 25.6556 10.4159 25.7394C10.3211 25.7274 10.2534 25.7394 10.1992 25.7154ZM11.0388 25.1888C10.9711 25.1649 10.9034 25.141 10.8357 25.117C10.795 25.117 10.7544 25.117 10.7002 25.117C10.7002 25.0931 10.7002 25.0811 10.6867 25.0572L10.6732 25.0452C10.6732 25.0332 10.6732 25.0332 10.6732 25.0213C10.6596 24.9495 10.6461 24.8896 10.6732 24.8777C10.7002 24.8537 10.7815 24.8298 10.8357 24.8298C10.8628 24.8178 10.8763 24.7939 10.9034 24.7819C10.9846 24.7699 11.0659 24.746 11.1471 24.734C11.2826 24.7101 11.3232 24.746 11.2555 24.8657C11.2149 24.9255 11.2284 25.0213 11.2284 25.0931C11.2148 25.2008 11.1471 25.2247 11.0388 25.1888ZM11.1878 25.9428C11.1607 25.9309 11.1471 25.8231 11.1742 25.8112C11.2149 25.7753 11.3096 25.7513 11.3503 25.7753C11.3909 25.7992 11.3909 25.871 11.418 25.9668C11.3096 25.9548 11.2284 25.9668 11.1878 25.9428ZM11.4044 25.5838C11.3503 25.5838 11.3096 25.5598 11.2555 25.5359C11.269 25.5 11.2826 25.4402 11.3096 25.4282C11.3367 25.4162 11.3909 25.4402 11.4722 25.4521C11.4451 25.512 11.418 25.5718 11.4044 25.5838ZM12.9889 24.6024C12.8128 24.6862 12.7857 24.6622 12.6774 24.4947C12.5962 24.363 12.5962 24.2673 12.7587 24.2194C12.9618 24.1237 13.016 24.1356 13.1108 24.3032C13.2056 24.4588 13.192 24.5066 12.9889 24.6024ZM14.2889 24.6742C13.9504 24.6383 13.7202 24.4229 13.5035 24.2314C13.4629 24.1835 13.5306 24.016 13.5847 23.9202C13.6118 23.8723 13.7472 23.8484 13.8285 23.8484C13.9098 23.8484 13.9775 23.9082 14.1264 23.9801C14.4785 24.016 14.2889 24.387 14.4785 24.5665C14.4108 24.6024 14.3431 24.6862 14.2889 24.6742Z" fill="#171026"/>
<path d="M11.7972 22.6989H11.6618C11.6888 22.7467 11.7024 22.8066 11.6888 22.8784C11.6888 22.9382 11.7295 22.9981 11.7972 23.0579C11.743 22.9741 11.7295 22.8664 11.7565 22.7946C11.7836 22.7707 11.7836 22.7348 11.7972 22.6989Z" fill="#171026"/>
<path d="M20.1799 16.6754C20.1934 16.6754 20.2205 16.6875 20.2341 16.6875H21.5206C21.6154 16.5782 21.8862 16.5175 21.9946 16.5661C22.0487 16.5904 22.0894 16.6389 22.1029 16.6875H24.229C24.2019 16.6632 24.1613 16.6511 24.1478 16.6632C23.8769 16.6996 23.728 16.5175 23.5248 16.4083C23.2134 16.2262 22.8883 16.0562 22.5633 15.8862C22.5498 15.9105 22.5362 15.9469 22.5227 15.9712C22.4956 16.0198 22.4821 16.0683 22.4685 16.129C22.455 16.1897 22.4279 16.2383 22.4144 16.299C22.3602 16.2626 22.306 16.2262 22.2519 16.1776C22.0894 16.0076 22.0894 15.9348 22.2519 15.8498C22.2789 15.8377 22.3331 15.8255 22.3873 15.8255C22.4008 15.8255 22.4144 15.8255 22.4279 15.8255C22.3331 15.777 22.2383 15.7284 22.1435 15.6799C22.0758 15.6434 21.9946 15.607 21.9404 15.6313C21.6966 15.7163 21.507 15.6313 21.3445 15.5099C21.2904 15.522 21.2362 15.522 21.2091 15.4492C21.1956 15.4371 21.2091 15.4128 21.2091 15.3885C21.0737 15.2549 20.9924 15.0607 20.9383 14.8907C20.8841 14.7329 21.2227 14.5265 21.3987 14.5994C21.5206 14.6479 21.6289 14.7208 21.805 14.8179C21.9268 14.915 22.2248 14.9514 22.1841 15.2549C22.1841 15.2792 22.3873 15.3763 22.4415 15.3521C22.604 15.2549 22.7258 15.3278 22.8477 15.3885C23.4029 15.692 23.9582 15.9955 24.5134 16.2869C24.7707 16.4204 25.028 16.554 25.2853 16.6875H25.827C26.4229 16.6875 26.9645 16.4326 27.3031 16.0441C27.2625 16.0319 27.2354 16.0076 27.2083 15.9591C27.1406 15.8377 27.0729 15.7284 27.0052 15.6192H27.0187C26.9375 15.4856 26.8562 15.3521 26.7885 15.2185C26.775 15.1942 26.775 15.1335 26.802 15.1214C26.8156 15.1093 26.8698 15.1093 26.9104 15.1093C27.276 15.1578 27.4521 15.3885 27.601 15.6434C27.6958 15.4492 27.75 15.2307 27.75 15C27.75 14.1502 27.0593 13.4582 26.152 13.3246C26.1791 13.3368 26.2062 13.3489 26.2333 13.3732C26.2604 13.3975 26.2874 13.4339 26.3416 13.5067C26.3416 13.5432 26.3552 13.616 26.3281 13.6767C26.3145 13.7131 26.2062 13.7496 26.1791 13.7374C26.1114 13.701 26.0708 13.6281 26.0301 13.5796C26.0031 13.5553 26.0031 13.5067 26.0031 13.4703C26.0166 13.4218 26.0301 13.3732 26.0572 13.3368C25.9895 13.3246 25.9218 13.3246 25.8541 13.3246H24.9738C24.9874 13.3368 25.0009 13.3368 25.0145 13.3489C25.0686 13.3853 25.0957 13.4703 25.1364 13.531C25.0551 13.531 24.9738 13.5432 24.9061 13.5067C24.7843 13.4582 24.6624 13.3853 24.5405 13.3246H24.2019C24.1749 13.3611 24.1478 13.3975 24.1207 13.4582C24.0936 13.5067 24.0801 13.5674 24.0394 13.6039C23.9988 13.6403 23.9176 13.6646 23.8769 13.6403C23.8363 13.6281 23.7957 13.5432 23.8092 13.5067C23.8363 13.446 23.8634 13.3853 23.8905 13.3246H19.0559C19.0965 13.3489 19.1371 13.3611 19.1913 13.3853C19.259 13.4096 19.3538 13.4096 19.4351 13.3975C19.6924 13.3368 19.8684 13.4096 19.8955 13.6403C19.9091 13.786 20.0039 13.8345 20.1122 13.8831C20.3289 14.0045 20.532 14.1138 20.7487 14.2352C20.8706 14.308 20.9924 14.393 20.8706 14.5265C20.7758 14.6479 20.6674 14.8058 20.4507 14.7086C20.3018 14.6479 20.1799 14.5629 20.0309 14.478V14.4658C19.8413 14.393 19.6382 14.3201 19.4622 14.223C19.3132 14.1502 19.1642 14.0531 19.0153 13.9802C18.785 13.8588 18.5548 13.7496 18.3111 13.6403C18.3246 13.6767 18.3382 13.7131 18.3652 13.7496C18.4194 13.8345 18.4736 13.9317 18.5142 14.0288C18.5277 14.0652 18.5142 14.138 18.4871 14.1745C18.4736 14.1987 18.3923 14.1866 18.3517 14.1745C18.2975 14.1623 18.2704 14.1259 18.2163 14.1138C17.9996 14.0531 17.9861 14.0652 18.0673 13.871C18.1215 13.7374 18.0538 13.701 17.9183 13.701C17.8236 13.701 17.7694 13.6767 17.7694 13.6403C17.661 13.5917 17.5798 13.4825 17.5527 13.3246H11.242C11.2556 13.3368 11.2691 13.3489 11.2691 13.3489C11.3097 13.4218 11.3504 13.4582 11.3504 13.4946C11.4316 13.4339 11.4993 13.4582 11.6618 13.5432C11.865 13.6524 11.865 13.6888 11.716 13.9195C11.567 14.138 11.4993 14.1502 11.2827 14.0166C11.0795 13.8952 11.0795 13.8467 11.2285 13.6403C11.2285 13.6403 11.2285 13.6281 11.242 13.6281C11.2149 13.616 11.1879 13.6039 11.1743 13.5796C11.1472 13.5553 11.1472 13.5067 11.1337 13.4703C11.1337 13.4218 11.1337 13.3611 11.1337 13.3125H10.7274C10.6462 13.4218 10.5649 13.5432 10.3753 13.446C10.2941 13.3975 10.1993 13.3611 10.118 13.3125H7.92419C7.92419 13.3611 7.91065 13.3975 7.89711 13.446C7.87002 13.5067 7.88356 13.5917 7.91065 13.6524C7.93773 13.7253 7.9919 13.786 8.03253 13.8467C8.11378 13.9438 8.23566 14.0288 8.04607 14.1502C8.01899 14.1623 8.00544 14.1745 7.9919 14.1866C8.05961 14.1623 8.12732 14.1866 8.22212 14.2473C8.31691 14.2959 8.38463 14.3566 8.39817 14.4294C8.43879 14.4415 8.46588 14.4658 8.49296 14.4537C8.70964 14.3687 8.72318 14.5144 8.77735 14.6358C8.8586 14.8179 8.73672 14.8907 8.6013 14.9636C8.27629 15.1457 8.20858 15.1335 8.03253 14.8422C8.01898 14.8179 8.00544 14.7936 7.9919 14.7693C7.93773 14.7693 7.88356 14.7451 7.82939 14.7208C7.59918 14.5994 7.74814 14.478 7.80231 14.3687C7.85648 14.2837 7.89711 14.2352 7.93773 14.2109C7.77523 14.2837 7.68043 14.2594 7.57209 14.1016C7.43667 13.8952 7.31479 13.6767 7.17937 13.4582C7.15228 13.4096 7.1252 13.3732 7.09811 13.3246H6.31267C6.31267 13.3489 6.31267 13.3732 6.31267 13.3975C6.17724 13.4096 6.06891 13.4582 6.00119 13.4339C5.93348 13.4096 5.9064 13.3611 5.9064 13.3246H4.15945C3.83444 13.3246 3.52297 13.3975 3.25212 13.531C3.40109 13.6767 3.60422 13.7131 3.78027 13.6767C4.14591 13.6039 4.36259 13.786 4.57926 13.9802C4.72823 14.1138 4.57926 14.223 4.51155 14.3323C4.44384 14.4537 4.32196 14.4658 4.20008 14.393C4.10528 14.3323 4.01049 14.2837 3.91569 14.2959C3.88861 14.4051 3.87507 14.4901 3.84798 14.5629C3.83444 14.6237 3.8209 14.6844 3.80736 14.7451C3.78027 14.8058 3.76673 14.8786 3.71256 14.8907C3.65839 14.9029 3.5636 14.8665 3.53651 14.83C3.42817 14.7086 3.34692 14.5994 3.15733 14.5265C2.92711 14.4294 2.96774 14.1502 3.19796 14.0409C3.19796 14.0409 3.19796 14.0409 3.2115 14.0409C3.2115 13.9195 3.2115 13.8588 3.18441 13.8345C3.17087 13.8467 3.14379 13.871 3.10316 13.8831C3.04899 13.8952 3.00836 13.8952 2.98128 13.871C2.96774 13.8831 2.94065 13.8831 2.92711 13.8952C2.88648 13.9195 2.77815 13.9195 2.7646 13.9074C2.7646 13.8952 2.75106 13.8831 2.75106 13.8831C2.52084 14.1016 2.35834 14.3687 2.29063 14.6722C2.33125 14.6965 2.31771 14.8179 2.33125 14.8665C2.30417 14.8907 2.27708 14.9272 2.25 14.9514C2.25 14.9757 2.25 15.0121 2.25 15.0364C2.25 15.3278 2.33125 15.5949 2.48022 15.8377C2.53439 15.7891 2.66981 15.8377 2.66981 15.8741C2.68335 15.9712 2.66981 16.0683 2.83232 15.9712C2.87294 15.9469 2.9542 15.9955 3.00836 16.0198C3.374 16.214 3.73964 16.4083 4.10528 16.5904C4.15945 16.6268 4.21362 16.6511 4.22716 16.6875H5.10741C5.16158 16.5054 4.99907 16.4568 4.90428 16.3719C4.7824 16.2626 4.66052 16.2262 4.52509 16.3597C4.49801 16.384 4.4303 16.3961 4.38967 16.384C4.28133 16.3597 4.14591 15.8498 4.22716 15.8013C4.22716 15.8013 4.24071 15.8013 4.24071 15.7891C4.25425 15.7527 4.25425 15.7284 4.28133 15.7041C4.29488 15.6799 4.38967 15.7163 4.44384 15.7284C4.51155 15.7406 4.57926 15.7527 4.64697 15.7648C4.6876 15.777 4.72823 15.777 4.75531 15.7891C4.79594 15.8134 4.80948 15.8741 4.80948 15.9348C4.83656 15.9469 4.86365 15.9591 4.89073 15.9712C5.09387 16.0805 5.26992 16.299 5.54076 16.1048C5.58139 16.0805 5.67618 16.129 5.74389 16.1533C5.9064 16.214 6.05536 16.3476 6.2585 16.2019C6.27204 16.1897 6.36683 16.214 6.38038 16.2383C6.43455 16.384 6.47517 16.5297 6.52934 16.6875H8.54713C8.50651 16.6511 8.50651 16.5661 8.50651 16.5054C8.50651 16.4568 8.56067 16.4083 8.58776 16.3597C8.65547 16.2505 8.75027 16.1412 8.91277 16.214C9.08882 16.3112 8.96694 16.4204 8.92631 16.5054C8.87215 16.5661 8.84506 16.6268 8.80443 16.6511C8.77735 16.6632 8.75027 16.6754 8.72318 16.6754H9.22424C9.19716 16.6147 9.18362 16.554 9.19716 16.5418C9.29195 16.4568 9.41383 16.4083 9.54926 16.3719C9.57634 16.3597 9.65759 16.4326 9.69822 16.4933C9.73885 16.554 9.77947 16.6147 9.8201 16.6875H19.9903C19.9768 16.6511 20.0309 16.6268 20.1799 16.6754ZM26.626 14.308C26.6937 14.3323 26.7614 14.3444 26.7885 14.3808C26.802 14.4051 26.775 14.4901 26.7614 14.4901C26.7072 14.4901 26.6531 14.478 26.6125 14.4537C26.5989 14.4294 26.626 14.3687 26.626 14.308ZM26.1926 14.9514C26.2197 14.9636 26.2333 15.0364 26.2604 15.1093C26.1656 15.1093 26.0979 15.1335 26.0437 15.1093C26.0166 15.0971 25.9895 14.9879 26.0166 14.9757C26.0708 14.9514 26.1385 14.9393 26.1926 14.9514ZM25.7728 14.2109C25.8541 14.1866 25.8947 14.1623 25.9353 14.1623C25.976 14.1623 26.0301 14.1745 26.0437 14.1987C26.0572 14.223 26.0301 14.2716 26.0166 14.2959C25.9895 14.3201 25.9489 14.3444 25.9218 14.3566C25.8405 14.3687 25.7593 14.3808 25.678 14.3808C25.7051 14.308 25.7458 14.2473 25.7728 14.2109ZM21.1008 13.7738C21.182 13.7374 21.2904 13.6403 21.3581 13.7738C21.3716 13.8103 21.2904 13.8952 21.2362 13.9802C21.1279 13.9681 21.006 13.9924 20.9789 13.9559C20.8976 13.8588 21.0195 13.8103 21.1008 13.7738ZM2.99482 15.3642C2.96774 15.2428 2.91357 15.1457 2.9542 15.0971C3.03545 14.9757 3.15733 15.0486 3.23858 15.1093C3.30629 15.1578 3.31984 15.2428 3.36046 15.3156C3.25212 15.3278 3.15733 15.3399 2.99482 15.3642ZM4.76885 14.0531C4.72823 14.0531 4.6876 14.0288 4.64697 14.0045C4.63343 13.9924 4.66052 13.9317 4.6876 13.9195C4.71468 13.9074 4.75531 13.9317 4.86365 13.9559C4.82302 14.0045 4.79594 14.0409 4.76885 14.0531ZM5.47305 14.6844C5.33763 14.7208 5.21575 14.7693 5.08032 14.8058C5.05324 14.6844 5.0397 14.5629 5.01261 14.4415C5.01261 14.4173 4.97199 14.4051 4.97199 14.3808C4.95844 14.3323 4.95844 14.2837 4.95844 14.2352C5.01261 14.2352 5.08032 14.2352 5.13449 14.2473C5.21575 14.2716 5.28346 14.3201 5.36471 14.3566C5.41888 14.393 5.50013 14.4294 5.54076 14.478C5.58139 14.5265 5.60847 14.5872 5.63556 14.6358C5.58139 14.6479 5.52722 14.6722 5.47305 14.6844ZM5.8116 13.8467C5.8116 13.9195 5.8116 13.9924 5.79806 14.0531C5.78452 14.1016 5.75744 14.1623 5.71681 14.1745C5.67618 14.1866 5.58139 14.1623 5.56784 14.1259C5.44596 13.9195 5.32408 13.7131 5.21575 13.5067C5.17512 13.4218 5.24283 13.3246 5.32408 13.3611C5.44596 13.4096 5.5543 13.446 5.70327 13.4339C5.74389 13.4339 5.78452 13.5067 5.85223 13.5674C5.82515 13.6646 5.82515 13.7495 5.8116 13.8467ZM7.09811 15.4613C7.11166 15.4371 7.15228 15.4128 7.21999 15.3642C7.23354 15.437 7.26062 15.4856 7.24708 15.5099C7.23354 15.5342 7.16583 15.5463 7.1252 15.5463C7.11166 15.5463 7.08457 15.4856 7.09811 15.4613ZM6.46163 14.9757C6.50226 14.9636 6.54288 14.9879 6.59705 14.9879C6.58351 15.0243 6.56997 15.0607 6.54288 15.0728C6.5158 15.085 6.47517 15.085 6.40746 15.085C6.43455 15.0243 6.44809 14.9757 6.46163 14.9757ZM6.21787 15.7041C6.20433 15.7041 6.20433 15.607 6.23141 15.5827C6.31267 15.5099 6.40746 15.4249 6.50226 15.4128C6.56997 15.4006 6.65122 15.5099 6.70539 15.5463C6.73247 15.6434 6.75956 15.7041 6.75956 15.7648C6.75956 15.7891 6.70539 15.8377 6.67831 15.8377C6.52934 15.8013 6.38038 15.7527 6.21787 15.7041ZM7.42313 16.5782C7.24708 16.7361 7.11166 16.7118 6.98978 16.5175C6.94915 16.4447 6.89498 16.3719 6.85435 16.299C6.75956 16.3233 6.66476 16.4204 6.59705 16.2869C6.58351 16.2626 6.61059 16.1897 6.63768 16.1776C6.7731 16.1169 6.80019 16.2262 6.85435 16.299C6.96269 16.2505 7.05749 16.214 7.15228 16.3233C7.19291 16.3719 7.30125 16.3597 7.36896 16.384C7.40959 16.3961 7.46375 16.4326 7.4773 16.4568C7.49084 16.4933 7.46375 16.554 7.42313 16.5782ZM9.00757 15.7284C8.9534 15.777 8.75027 15.7527 8.62839 15.7163C8.56067 15.692 8.50651 15.5949 8.49296 15.5827C8.35754 15.3278 8.38463 15.2792 8.62839 15.17C8.72318 15.1335 9.17007 15.2428 9.15653 15.3156C9.15653 15.4613 9.11591 15.6313 9.00757 15.7284ZM10.0368 15.1457C10.0232 15.2671 9.99615 15.3763 9.99615 15.4492C9.84719 15.5827 9.8201 15.7527 9.60343 15.6677C9.37321 15.5706 9.3055 15.4613 9.38675 15.2549C9.42738 15.1578 9.468 15.0607 9.54926 15C9.61697 14.9393 9.73885 14.8665 9.8201 14.8786C9.95552 14.8907 10.0503 15 10.0368 15.1457ZM12.7588 14.5751C12.7452 14.5994 12.7317 14.6115 12.7181 14.6358C12.6098 14.7208 12.5015 14.8665 12.3931 14.8665C12.2035 14.8786 12.2983 14.6722 12.2442 14.5872C12.1223 14.4294 12.0952 14.308 12.2712 14.1623C12.4879 13.9924 12.5963 13.9802 12.7994 14.1502C12.9348 14.2473 12.9348 14.3323 12.7588 14.5751ZM14.8172 15.5099C14.614 15.4006 14.4245 15.3399 14.2213 15.5099C14.1942 15.5342 14.0724 15.5099 14.0182 15.4735C13.8963 15.4006 13.7744 15.3156 13.6796 15.2185C13.6119 15.1578 13.5307 15.0121 13.5578 14.9879C13.6525 14.9029 13.788 14.8058 13.9099 14.8058C14.0588 14.8058 14.2078 14.8907 14.3161 14.9272C14.5599 15.0971 14.7495 15.2307 14.9391 15.3642C14.9661 15.3885 14.9661 15.4371 14.9797 15.4735C14.912 15.4856 14.8443 15.522 14.8172 15.5099ZM15.2099 13.6039C15.1693 13.6039 15.1287 13.5917 15.0609 13.5796C15.088 13.531 15.088 13.4946 15.1016 13.4703C15.1422 13.4825 15.1964 13.4946 15.2234 13.5189C15.237 13.5189 15.2234 13.5917 15.2099 13.6039ZM18.2569 14.9393C18.2298 14.9757 18.1756 15 18.135 15.0243C18.1079 14.9879 18.0673 14.9393 18.0809 14.9029C18.0944 14.8665 18.1621 14.8422 18.2027 14.8179C18.2434 14.8179 18.2704 14.8179 18.3111 14.8179C18.284 14.8543 18.284 14.9029 18.2569 14.9393ZM18.5413 16.2383C18.5142 16.2262 18.4736 16.2262 18.46 16.214C18.4465 16.1897 18.46 16.1533 18.46 16.1048C18.5142 16.129 18.5548 16.129 18.5548 16.1412C18.5684 16.1776 18.5548 16.2019 18.5413 16.2383ZM19.0153 15.0121C18.8121 15.0607 18.8121 14.8907 18.7309 14.8058C18.6496 14.7086 18.6632 14.6115 18.8121 14.5265C18.9205 14.5387 19.0559 14.5265 19.1507 14.5751C19.2184 14.6115 19.0965 14.9879 19.0153 15.0121ZM19.1101 15.4249C19.2184 15.1578 19.3538 15.1093 19.6653 15.2792C19.6788 15.3035 19.7195 15.3642 19.7601 15.4371C19.6788 15.4735 19.6111 15.4978 19.5299 15.5342C19.4486 15.5585 19.3809 15.5949 19.2997 15.607C19.2455 15.6192 19.1642 15.6192 19.1371 15.5827C19.1101 15.5463 19.0965 15.4735 19.1101 15.4249ZM19.6518 16.3719C19.6247 16.3354 19.6111 16.2869 19.584 16.2383C19.5028 16.129 19.4892 15.9348 19.2319 15.9591C19.1236 15.9712 19.0965 15.8498 19.1778 15.777C19.3538 15.607 19.5163 15.6192 19.6382 15.8134C19.733 15.9712 19.8278 16.1169 20.058 16.1533C20.1528 16.1655 20.1799 16.2504 20.0986 16.3354C20.0716 16.3719 20.0309 16.4083 19.9903 16.4326C19.8278 16.554 19.7601 16.5418 19.6518 16.3719Z" fill="#171026"/>
<path d="M3.06241 6.45976C3.04886 6.43574 2.87281 6.45976 2.81865 6.5078C2.76448 6.55584 2.71031 6.59188 2.6426 6.62791C2.77802 6.79606 2.95407 6.94018 3.1572 7.04828C3.18429 6.98823 3.23846 6.92817 3.22491 6.86812C3.19783 6.736 3.13012 6.59188 3.06241 6.45976Z" fill="#171026"/>
<path d="M3.80749 4.56206C3.68561 4.48999 3.55018 4.42994 3.4283 4.35788C3.37413 4.33385 3.29288 4.2738 3.29288 4.24978C3.30642 4.20174 3.30642 4.15369 3.29288 4.11766C2.99495 4.24978 2.75119 4.45396 2.5616 4.69417C2.62931 4.68216 2.68348 4.69417 2.69702 4.70619C2.77828 4.77825 2.76473 4.91037 2.77828 5.00645C2.76473 5.01846 2.75119 5.03047 2.72411 5.04248C2.75119 5.05449 2.76473 5.05449 2.79182 5.06651C2.8189 5.07852 2.83245 5.10254 2.87307 5.13857C2.85953 5.1746 2.87307 5.23465 2.84599 5.25868C2.80536 5.29471 2.73765 5.31873 2.68348 5.30672C2.5616 5.2827 2.43972 5.24667 2.33138 5.18661C2.29076 5.33074 2.26367 5.47487 2.26367 5.619C2.26367 5.66704 2.26367 5.72709 2.27721 5.77514C2.33138 5.76312 2.37201 5.76312 2.41264 5.77514C2.46681 5.79916 2.48035 5.88323 2.53452 6.00334C2.43972 5.99133 2.35847 5.99133 2.31784 5.99133C2.35847 6.12344 2.39909 6.25556 2.48035 6.37567C2.57514 6.37567 2.61577 6.30361 2.64285 6.21953C2.69702 6.01535 2.8189 5.97932 3.02204 6.0754C3.27934 6.19551 3.37413 6.17149 3.50956 5.96731C3.55018 5.90725 3.56373 5.78715 3.5231 5.7391C3.36059 5.57095 3.44185 5.46286 3.57727 5.34275C3.64498 5.29471 3.68561 5.22264 3.73977 5.16259C3.82103 5.05449 3.8752 4.97042 3.7804 4.82629C3.73977 4.77825 3.79394 4.67015 3.80749 4.56206C3.80749 4.57407 3.80749 4.57407 3.80749 4.56206Z" fill="#171026"/>
<path d="M21.7371 4.00956C21.7778 4.02157 21.8048 4.08163 21.8319 4.12967C21.7913 4.15369 21.7371 4.21375 21.6965 4.21375C21.5746 4.18972 21.4392 4.15369 21.3173 4.10565C21.2902 4.09364 21.2632 4.0456 21.2632 4.00956C21.2632 3.98554 21.2902 3.96152 21.3038 3.9375H16.5775C16.5505 3.97353 16.5234 4.00956 16.5234 4.0456C16.4963 4.14168 16.415 4.23777 16.5505 4.30983C16.6859 4.3819 16.7942 4.53803 17.0109 4.46597C17.1869 4.40592 17.363 4.35787 17.5526 4.30983C17.7151 4.2738 18.2162 4.58608 18.2432 4.7302C18.2568 4.80227 18.2839 4.86232 18.3109 4.93439L18.4057 5.0665C18.4057 5.05449 18.4057 5.04248 18.4193 5.03047C18.487 5.05449 18.5276 5.0665 18.5683 5.09052C18.5412 5.12656 18.5276 5.1746 18.5005 5.19862L18.7308 5.52291C18.7308 5.59497 18.7443 5.67905 18.7172 5.7391C18.5953 5.97931 18.487 6.01535 18.1484 5.82318C18.1349 5.79915 18.0536 5.71508 18.013 5.61899C17.9724 5.47487 17.8911 5.43883 17.7422 5.48688C17.688 5.49889 17.5526 5.48688 17.5526 5.46286C17.539 5.4028 17.539 5.31873 17.5661 5.24666C17.6338 5.11455 17.7286 4.99444 17.7963 4.86232C17.8099 4.81428 17.7693 4.75423 17.7557 4.69417C17.7015 4.70618 17.6068 4.70618 17.5932 4.74222C17.4713 5.00645 17.1869 4.95841 16.9432 5.01846C16.6588 5.09052 16.4421 4.97042 16.2254 4.85031C16.0494 4.75423 15.8734 4.68216 15.7244 4.57407C15.5754 4.47798 15.616 4.2738 15.7786 4.28581C16.0494 4.29782 16.1171 4.14168 16.2119 3.99755C16.2119 3.98554 16.2254 3.98554 16.2254 3.97353H15.3994C15.3587 3.99755 15.3181 4.02157 15.2775 4.0456C15.2233 4.06962 15.1692 4.08163 15.1014 4.10565C14.8848 4.17771 14.8035 4.15369 14.79 3.98554H14.3295C14.4108 4.12967 14.492 4.26179 14.5733 4.40592C14.6004 4.46597 14.6275 4.52602 14.6275 4.59809C14.6275 4.64613 14.6139 4.70618 14.5868 4.74222C14.5598 4.76624 14.492 4.75423 14.4514 4.74222C14.167 4.68216 13.9504 4.55004 13.8962 4.33385C13.8285 4.21375 13.7878 4.15369 13.7472 4.08163C13.7337 4.0456 13.7066 4.02157 13.7066 3.99755H12.8534C12.8941 4.06962 12.9211 4.12967 12.9618 4.20173C13.043 4.33385 13.1243 4.46597 13.192 4.59809C13.2597 4.71819 13.3139 4.82629 13.1784 4.9464C13.0837 5.03047 13.1514 5.12656 13.2868 5.11455C13.4087 5.10254 13.4899 5.09052 13.5441 5.19862C13.6253 5.34275 13.6931 5.49889 13.7608 5.65503C13.7608 5.66704 13.6118 5.75111 13.5847 5.7391C13.4493 5.65503 13.3274 5.69106 13.192 5.71508C12.9753 5.75111 12.7586 5.54693 12.8805 5.39079C13.043 5.18661 12.9076 5.0665 12.8128 4.92238C12.7045 4.74222 12.569 4.57407 12.4743 4.39391C12.4065 4.26179 12.3117 4.2738 12.2034 4.33385C11.9055 4.45396 11.9055 4.45396 11.743 4.18972C11.7023 4.12967 11.6753 4.08163 11.6346 4.02157H8.68243C8.68243 4.02157 8.68243 4.02157 8.68243 4.03359C8.68243 4.08163 8.68243 4.14168 8.6418 4.1657C8.61472 4.18972 8.54701 4.15369 8.45221 4.14168C8.49284 4.09364 8.50638 4.0456 8.53347 4.02157H7.39592C7.31467 4.05761 7.23341 4.08163 7.17924 4.02157H5.06666C5.0802 4.03359 5.0802 4.0456 5.09374 4.05761C5.24271 4.30983 5.40521 4.56206 5.55418 4.81428C5.58126 4.86232 5.62189 4.91036 5.63543 4.97042C5.6896 4.97042 5.75731 4.97042 5.82502 4.93439C5.9469 4.88634 6.15004 4.93439 6.27192 5.00645C6.36671 5.0665 6.35317 5.12656 6.31254 5.19862C6.31254 5.22264 6.299 5.23465 6.28546 5.25867C6.28546 5.25867 6.28546 5.25867 6.27192 5.25867C6.25837 5.2827 6.24483 5.30672 6.23129 5.33074C6.21775 5.36677 6.17712 5.41481 6.17712 5.45085C6.17712 5.49889 6.19066 5.54693 6.19066 5.60698C6.25837 5.59497 6.32608 5.60698 6.38025 5.57095C6.6511 5.41481 7.1657 5.41481 7.39592 5.58296C7.54488 5.69106 7.65322 5.81117 7.57197 6.01535C7.53134 6.11143 7.59905 6.24355 7.58551 6.35165C7.57197 6.43572 7.5178 6.55583 7.46363 6.57985C7.35529 6.60387 7.24696 6.53181 7.2605 6.4117C7.28758 6.24355 7.2605 6.17149 7.05736 6.27958C6.98965 6.31561 6.86777 6.29159 6.78652 6.25556C6.50213 6.11143 6.23129 5.9673 5.96044 5.81117C5.79794 5.72709 5.66252 5.59497 5.45938 5.75111C5.45938 5.75111 5.41876 5.7391 5.37813 5.71508C5.3375 5.72709 5.28333 5.71508 5.24271 5.66704C5.16145 5.57095 5.03957 5.48688 5.14791 5.31873C5.175 5.2827 5.175 5.24666 5.18854 5.21063C5.175 5.1746 5.16145 5.13857 5.14791 5.10254C5.12083 5.05449 5.03957 5.01846 4.97186 4.98243C4.94478 4.97042 4.93124 4.95841 4.90415 4.9464C4.78227 4.93439 4.7281 4.87433 4.68748 4.80227L4.67393 4.79026C4.63331 4.75423 4.60622 4.69417 4.59268 4.64613C4.53851 4.47798 4.48434 4.3819 4.43017 4.29782C4.36246 4.17771 4.25412 4.06962 4.40309 3.9375H4.15933C4.07808 3.9375 3.99682 3.94951 3.91557 3.94951C3.94265 3.97353 3.96974 3.99755 3.99682 4.02157C4.05099 4.05761 4.05099 4.1657 4.02391 4.22576C3.96974 4.34586 3.88874 4.45396 3.80749 4.56206C3.88874 4.6101 3.96974 4.65814 4.05099 4.70618C4.15933 4.76624 4.18641 4.85031 4.14579 4.95841C4.09162 5.11455 4.01036 5.24666 4.14579 5.42682C4.22704 5.53492 4.1187 5.65503 3.92911 5.64302C3.7666 5.63101 3.72598 5.66704 3.79369 5.81117C3.87494 5.99133 3.87494 6.1835 3.92911 6.37567C4.02391 6.67593 4.18641 6.80805 4.52497 6.69996C4.57914 6.68794 4.64685 6.68794 4.70102 6.67593C4.89061 6.62789 4.93124 6.48376 4.78227 6.36366C4.74164 6.36366 4.70102 6.35165 4.64685 6.35165C4.66039 6.32762 4.67393 6.31561 4.68748 6.29159C4.67393 6.29159 4.67393 6.27958 4.66039 6.27958C4.45726 6.1835 4.52497 6.05138 4.60622 5.91926C4.70102 5.76312 4.80936 5.76312 4.97186 5.83519C5.29688 5.97931 5.25625 6.25556 5.32396 6.49577C5.37813 6.66392 5.31042 6.86811 5.39167 7.01223C5.47292 7.13234 5.64897 7.2044 5.81148 7.30049H6.2042C6.2042 7.30049 6.2042 7.30049 6.2042 7.28848C6.15004 7.2044 6.12295 7.13234 6.21775 7.03625C6.32608 6.94017 6.25837 6.85609 6.12295 6.85609C5.93336 6.85609 5.89273 6.80805 5.98753 6.65191C6.06878 6.50778 6.02816 6.44773 5.82502 6.42371C5.67606 6.39969 5.62189 6.3036 5.60835 6.21953C5.5948 6.0754 5.62189 5.91926 5.64897 5.77513C5.64897 5.75111 5.75731 5.70307 5.77085 5.71508C5.9469 5.83519 6.25837 5.78714 6.31254 6.05138C6.32608 6.09942 6.33963 6.15947 6.33963 6.20752C6.32608 6.62789 6.47505 6.88012 6.86777 7.06028C6.96257 7.10832 7.05736 7.21641 7.07091 7.3125H8.87202C8.81785 7.28848 8.75014 7.25245 8.69597 7.21641C8.61472 7.22843 8.51992 7.2044 8.41159 7.10832C8.37096 7.06028 8.26262 7.06028 8.18137 7.03625C8.19491 7.01223 8.22199 7.00022 8.23554 6.9762C8.10011 6.89213 8.04595 6.80805 8.15428 6.6399C8.26262 6.45974 8.39804 6.44773 8.57409 6.5198C8.76368 6.57985 8.92619 6.66392 8.9939 6.82006C9.0887 6.82006 9.22412 6.78403 9.22412 6.91615C9.22412 6.96419 9.12932 7.01223 9.06161 7.06028C9.0887 7.09631 9.11578 7.13234 9.12932 7.18038C9.14287 7.2044 9.14287 7.25245 9.14287 7.27647C9.22412 7.21641 9.31891 7.21641 9.41371 7.24044C9.31891 7.10832 9.346 7.04827 9.56267 7.07229C9.6033 7.07229 9.67101 7.06028 9.6981 7.02424C9.77935 6.92816 9.87415 6.85609 10.0096 6.94017C10.145 7.02424 10.3346 7.06028 10.3346 7.26446C10.3346 7.27647 10.3346 7.28848 10.3346 7.3125H12.5013C12.5149 7.27647 12.5284 7.26446 12.5555 7.25245C12.6097 7.22843 12.6774 7.26446 12.7451 7.27647C12.7451 7.28848 12.7451 7.30049 12.7316 7.3125H13.7337C13.7472 7.28848 13.7472 7.27647 13.7608 7.25245C13.7743 7.22843 13.8149 7.22843 13.842 7.2044C13.8962 7.19239 13.9368 7.15636 13.991 7.15636C14.0316 7.15636 14.0587 7.16837 14.0993 7.18038C14.0858 7.21641 14.0858 7.25245 14.0587 7.27647C14.0451 7.28848 14.0452 7.30049 14.0316 7.3125H15.7108C15.6431 7.19239 15.5619 7.07229 15.4942 6.95218C15.4129 6.82006 15.3317 6.71197 15.5213 6.59186C15.5483 6.56784 15.5483 6.50778 15.5619 6.47175C15.589 6.42371 15.616 6.38768 15.6431 6.35165C15.6838 6.39969 15.765 6.47175 15.7515 6.49577C15.6567 6.67593 15.7786 6.82006 15.8463 6.96419C15.9004 7.0843 15.9681 7.2044 16.0494 7.3125H21.6694C21.7642 7.24044 21.8996 7.24044 22.0351 7.3125H25.8269C26.4092 7.3125 26.9373 7.07229 27.2894 6.69996C27.2759 6.67593 27.2624 6.6399 27.2353 6.59186C27.2488 6.60387 27.2082 6.56784 27.2082 6.53181C27.2082 6.50778 27.2082 6.47175 27.2217 6.43572C27.1811 6.43572 27.1405 6.43572 27.1134 6.44773C26.829 6.27958 26.8019 6.20752 26.9373 6.00334C27.0186 5.87122 27.1134 5.83519 27.2624 5.91926C27.4655 6.02736 27.5061 6.21953 27.3436 6.38768C27.3436 6.38768 27.3301 6.38768 27.3301 6.39969C27.3572 6.4117 27.3842 6.4117 27.3978 6.42371C27.4113 6.44773 27.4384 6.47175 27.4519 6.48376C27.628 6.23154 27.7228 5.93127 27.7228 5.61899C27.7228 5.24666 27.5874 4.91036 27.3572 4.63412C27.3165 4.62211 27.2894 4.59809 27.2624 4.58608C27.1676 4.53803 27.0457 4.51401 26.9644 4.46597C26.7748 4.34586 26.7207 4.2738 26.7613 4.15369C26.504 4.03359 26.2196 3.94951 25.9217 3.9375C25.9623 4.00956 26.0165 4.08163 26.0436 4.1657C26.0706 4.21375 26.03 4.2738 26.0165 4.33385C25.9623 4.30983 25.8811 4.30983 25.8404 4.2738C25.7727 4.20173 25.7185 4.10565 25.6644 4.00956C25.6508 3.98554 25.6373 3.96152 25.6237 3.9375H23.606C23.7955 4.0456 23.7414 4.15369 23.6466 4.28581C23.5247 4.46597 23.4435 4.47798 23.2268 4.34586C23.0372 4.23777 23.0101 4.17771 23.1455 3.99755C23.1591 3.97353 23.1861 3.94951 23.1997 3.9375H21.4934C21.5746 3.96152 21.6559 3.97353 21.7371 4.00956ZM17.8641 4.26179C17.7422 4.23777 17.6474 4.22576 17.5526 4.21375C17.6203 4.12967 17.688 4.03359 17.7828 3.97353C17.8099 3.94951 17.9589 4.02157 17.9724 4.0456C17.9724 4.11766 17.9047 4.17771 17.8641 4.26179ZM4.41663 5.5109C4.376 5.49889 4.32184 5.49889 4.30829 5.47487C4.28121 5.43883 4.29475 5.4028 4.28121 5.31873C4.36246 5.35476 4.41663 5.36677 4.43017 5.39079C4.44372 5.42682 4.41663 5.47487 4.41663 5.5109ZM7.15216 6.62789C7.09799 6.6399 6.97611 6.60387 6.96257 6.56784C6.93548 6.45974 6.80006 6.33964 6.96257 6.25556C7.01674 6.23154 7.13862 6.32762 7.21987 6.37567C7.2605 6.49577 7.28758 6.59186 7.15216 6.62789ZM8.42513 5.29471C8.39804 5.33074 8.39804 5.37878 8.3845 5.42682C8.35742 5.5109 8.30325 5.54693 8.19491 5.5109C7.97823 5.42682 7.7751 5.34275 7.53134 5.36677C7.50426 5.36677 7.43655 5.31873 7.423 5.2827C7.28758 5.05449 7.13862 4.82629 7.0032 4.6101C6.89486 4.41793 6.9084 4.35787 7.12508 4.26179C7.23341 4.21375 7.31467 4.18972 7.43655 4.26179C7.58551 4.34586 7.7751 4.39391 7.96469 4.42994C8.1272 4.45396 8.16783 4.51401 8.08657 4.62211C7.99178 4.74222 8.01886 4.80227 8.18137 4.82629C8.41159 4.87433 8.51992 5.10254 8.42513 5.29471ZM9.48142 5.2827C9.26475 5.37878 9.22412 5.36677 9.11578 5.18661C9.02099 5.03047 9.03453 4.98243 9.21058 4.89835C9.40017 4.80227 9.52205 4.85031 9.63039 5.04248C9.6981 5.16259 9.68455 5.19862 9.48142 5.2827ZM10.5513 5.54693C10.5242 5.53492 10.5377 5.47487 10.5377 5.43883C10.5919 5.43883 10.6461 5.42682 10.7002 5.45085C10.7273 5.46286 10.7273 5.52291 10.7544 5.59497C10.6461 5.57095 10.5919 5.57095 10.5513 5.54693ZM11.2013 4.95841C11.1607 4.97042 11.0794 4.95841 11.0523 4.92238C11.0252 4.89835 11.0659 4.8383 11.0794 4.75423C11.1607 4.79026 11.2148 4.81428 11.2419 4.85031C11.2555 4.87433 11.2148 4.95841 11.2013 4.95841ZM11.8242 5.97931C11.7836 5.95529 11.7294 5.94328 11.7159 5.91926C11.7023 5.90725 11.7294 5.85921 11.7294 5.78714C11.7971 5.83519 11.8378 5.85921 11.8513 5.88323C11.8649 5.90725 11.8378 5.95529 11.8242 5.97931ZM12.0815 6.42371C12.0409 6.39969 11.9732 6.37567 11.9461 6.33964C11.9326 6.31561 11.9596 6.25556 11.9732 6.21953C12.0274 6.23154 12.0815 6.25556 12.1492 6.27958C12.1222 6.33964 12.1086 6.38768 12.0815 6.42371ZM13.9233 6.00334C13.8962 6.00334 13.8556 5.99133 13.8285 5.97931C13.8149 5.9673 13.8285 5.93127 13.842 5.88323C13.8826 5.90725 13.9233 5.90725 13.9504 5.93127C13.9504 5.94328 13.9368 6.00334 13.9233 6.00334ZM13.842 5.12656C13.8149 5.11455 13.7743 5.09052 13.7472 5.07851C13.7608 5.03047 13.7472 4.98243 13.7743 4.95841C13.8014 4.93439 13.8826 4.91036 13.8962 4.92238C13.9233 4.95841 13.9639 5.00645 13.9504 5.05449C13.9368 5.07851 13.8826 5.10254 13.842 5.12656ZM14.6952 5.36677C14.6816 5.36677 14.6545 5.30672 14.6545 5.2827C14.6681 5.25867 14.7223 5.22264 14.7493 5.22264C14.9119 5.2827 15.1421 5.23465 15.1962 5.42682C15.2233 5.48688 15.2504 5.52291 15.2639 5.55894C15.2639 5.60698 15.2504 5.65503 15.2369 5.70307C15.1962 5.67905 15.1421 5.66704 15.115 5.64302C14.9796 5.53492 14.8983 5.37878 14.6952 5.36677ZM15.2233 6.21953C15.2098 6.23154 15.115 6.21953 15.1014 6.19551C15.0744 6.15947 15.0879 6.09942 15.0879 6.02736C15.1692 6.05138 15.2504 6.06339 15.2639 6.09942C15.291 6.12344 15.2504 6.1835 15.2233 6.21953ZM15.5348 4.99444C15.4535 5.07851 15.4129 5.25867 15.2369 5.18661C15.0337 5.09052 15.2504 4.95841 15.2639 4.85031C15.3046 4.80227 15.3452 4.75423 15.3858 4.7302C15.4265 4.70618 15.4942 4.70618 15.5213 4.71819C15.5619 4.74222 15.6025 4.80227 15.6025 4.85031C15.6025 4.89835 15.5754 4.95841 15.5348 4.99444ZM16.0765 5.35476C15.9681 5.36677 15.8463 5.4028 15.8192 5.36677C15.7379 5.2827 15.6973 5.1746 15.6431 5.07851C15.6296 5.0665 15.6567 5.03047 15.6838 5.00645C15.765 4.93439 16.2254 5.05449 16.2119 5.13857C16.2119 5.22264 16.1307 5.29471 16.0765 5.35476ZM17.9182 6.1835C17.8911 6.21953 17.837 6.24355 17.7693 6.3036C17.7557 6.21953 17.7286 6.17149 17.7422 6.14746C17.7693 6.11143 17.837 6.09942 17.8776 6.0754C17.8911 6.11143 17.9318 6.15948 17.9182 6.1835ZM20.0037 5.78714C19.9766 5.79915 19.936 5.76312 19.8954 5.75111C19.9225 5.71508 19.936 5.66704 19.9631 5.65503C19.9766 5.64302 20.0308 5.66704 20.0985 5.67905C20.0714 5.72709 20.0444 5.77513 20.0037 5.78714ZM20.3965 6.65191C20.41 6.56784 20.41 6.45974 20.4642 6.38768C20.4912 6.32762 20.586 6.3036 20.6538 6.25556C20.6538 6.33964 20.6673 6.42371 20.6673 6.53181C20.559 6.57985 20.4777 6.61588 20.3965 6.65191ZM26.8155 5.94328C26.7884 5.99133 26.7884 6.05138 26.7478 6.0754C26.7071 6.08741 26.6394 6.06339 26.5582 6.03937C26.5988 5.9673 26.6259 5.90725 26.6665 5.89524C26.7071 5.88323 26.7748 5.93127 26.8155 5.94328ZM26.5582 5.00645C26.5852 5.05449 26.6259 5.10254 26.68 5.1746C26.7071 5.23465 26.7478 5.31873 26.7748 5.4028C26.7884 5.43883 26.7613 5.49889 26.7342 5.52291C26.7071 5.54693 26.6394 5.53492 26.5988 5.52291C26.5446 5.5109 26.4904 5.45085 26.4363 5.46286C26.4092 5.46286 26.3957 5.47487 26.3686 5.47487C26.3957 5.5109 26.4092 5.57095 26.4363 5.64302C26.3279 5.64302 26.2331 5.65503 26.2061 5.63101C26.179 5.59497 26.179 5.52291 26.1925 5.47487C26.1654 5.46286 26.1519 5.42682 26.1384 5.37878C26.0977 5.23465 26.0842 5.10254 26.2467 4.98243C26.3957 4.87433 26.4769 4.88634 26.5582 5.00645ZM26.0977 4.52602C26.179 4.46597 26.2467 4.52602 26.2873 4.59809C26.3279 4.68216 26.2873 4.74222 26.1925 4.76624C26.0842 4.79026 25.9894 4.80227 25.881 4.81428C25.8675 4.79026 25.854 4.76624 25.8404 4.74222C25.9352 4.67015 26.0029 4.58608 26.0977 4.52602ZM25.0143 5.15058C25.0143 5.12656 25.1227 5.10254 25.1227 5.11455C25.1498 5.15058 25.1633 5.19862 25.231 5.33074C25.1362 5.31873 25.0685 5.31873 25.0414 5.29471C25.0143 5.24666 25.0008 5.18661 25.0143 5.15058Z" fill="#171026"/>
</svg>
