<svg width="30" height="30" viewBox="0 0 30 30" fill="none" xmlns="http://www.w3.org/2000/svg">
<g clip-path="url(#clip0_0_1626)">
<path d="M28.2143 4.375C28.3482 4.28571 28.4375 4.19643 28.5268 4.10714C28.6607 3.97321 28.8393 3.97321 28.9286 4.0625L30 2.99107L29.1071 2.09821C29.0625 2.09821 28.9732 2.09821 28.9286 2.05357C28.7054 2.00893 28.4375 1.96429 28.3929 1.69643C28.3929 1.65179 28.4375 1.5625 28.5268 1.51786L27.0089 0L25.0446 1.96429C25.1339 2.09821 25.0893 2.1875 24.9554 2.32143C24.9107 2.36607 24.8661 2.45536 24.9107 2.5C25.0893 2.85714 24.7768 2.94643 24.5089 3.08036C24.4196 3.125 24.2411 3.125 24.1964 3.08036C24.1071 3.08036 24.1071 2.99107 24.1071 2.90179L23.2589 3.75C23.3929 3.70536 23.5268 3.70536 23.6607 3.75C23.7054 3.75 23.7946 3.79464 23.7946 3.79464C23.7946 4.0625 23.8393 4.375 23.7946 4.64286C23.75 4.86607 23.6607 4.86607 23.3036 4.82143C22.9464 4.86607 22.9464 4.59821 22.9018 4.375C22.9018 4.28571 22.9018 4.15179 22.9018 4.0625L21.875 5.08929C22.0982 5.13393 22.3214 5.17857 22.5446 5.17857C23.3036 5.3125 24.0625 5.40179 24.7321 5.49107C25.1786 5.53571 25.5357 5.53571 25.8929 5.58036C26.25 5.625 26.6964 5.89286 26.8304 6.16071L27.9911 5C27.9018 4.86607 27.9911 4.46429 28.2143 4.375ZM25.9821 3.39286C26.1161 3.4375 26.25 3.48214 26.3393 3.52679C26.3839 3.57143 26.2946 3.75 26.25 3.75C26.1607 3.75 26.0268 3.70536 25.9375 3.66071C25.8929 3.66071 25.9375 3.52679 25.9821 3.39286ZM25 4.64286C24.8214 4.6875 24.7768 4.55357 24.7768 4.375C24.8214 4.10714 25 3.88393 25.1339 3.92857C25.2679 4.01786 25.3125 4.15179 25.4018 4.375C25.2679 4.50893 25.1339 4.64286 25 4.64286ZM26.7411 4.91071C26.6964 4.91071 26.6518 4.91071 26.6518 4.91071C26.4286 4.86607 26.1607 4.86607 26.1607 4.55357C26.1607 4.50893 25.9821 4.46429 25.9375 4.375C25.8929 4.28571 25.8482 4.15179 25.8929 4.0625C25.8929 4.01786 26.0714 3.92857 26.1607 3.97321C26.3839 4.0625 26.6964 4.01786 26.7857 4.33036C26.7857 4.41964 26.9196 4.46429 27.0089 4.50893C27.0982 4.59821 27.1429 4.6875 27.2321 4.77679C27.0089 4.86607 26.875 4.91071 26.7411 4.91071ZM27.5893 1.74107C27.4107 1.29464 26.9643 1.38393 26.5625 1.29464C26.5625 1.38393 26.5625 1.47321 26.5179 1.51786C26.4732 1.60714 26.3839 1.65179 26.2946 1.69643C26.25 1.69643 26.1161 1.60714 26.1161 1.5625C26.1161 1.47321 26.1607 1.33929 26.25 1.29464C26.2946 1.25 26.4286 1.29464 26.5625 1.29464C26.6071 1.20536 26.6964 1.07143 26.7411 1.07143C27.0536 1.07143 27.4107 1.07143 27.7232 1.07143C27.8125 1.07143 27.9911 1.25 27.9464 1.33929C27.9018 1.47321 27.7679 1.65179 27.6786 1.78571L27.5893 1.74107Z" fill="#FEFEFE"/>
<path d="M2.05357 2.14286C2.1875 2.1875 2.36607 2.36607 2.36607 2.41071C2.27679 2.8125 2.54464 3.08036 2.76786 3.39286C2.99107 3.66071 2.94643 3.83929 2.72321 4.0625C2.45536 4.28571 2.32143 4.33036 2.05357 4.0625C1.875 3.83929 1.69643 3.66071 1.51786 3.4375C1.42857 3.48214 1.33929 3.4375 1.29464 3.30357C1.25 3.08036 1.02679 3.03571 0.848214 2.94643C0.758929 2.94643 0.625 2.90179 0.580357 2.85714C0.535714 2.76786 0.491071 2.63393 0.446429 2.54464L0 2.99107L10.0446 13.0357C10.1339 12.8571 10.3125 12.7232 10.4464 12.6339C10.625 12.5 10.8929 12.6339 10.9375 12.8125C10.9375 12.9464 10.9375 13.0804 10.9375 13.1696C10.8929 13.3036 10.8929 13.3929 10.8482 13.5268C10.8482 13.6161 10.8036 13.6607 10.7143 13.7054L12.0089 15L11.25 15.7589C11.3393 15.7589 11.3839 15.7589 11.4732 15.8036C11.875 15.9375 12.3214 15.8929 12.5446 16.3393C12.6339 16.5179 12.9911 16.5179 13.1696 16.3839C13.125 16.3393 13.0804 16.2946 13.0804 16.25C12.8571 16.0268 12.9018 15.8482 13.1696 15.6696C13.125 15.5804 13.0357 15.5357 12.9911 15.4464C12.9464 15.3571 12.9911 15.2232 12.9911 15.1339C13.125 15.1339 13.2589 15.1339 13.3036 15.1786C13.3929 15.2679 13.3929 15.4018 13.3482 15.4911C13.3482 15.5804 13.2143 15.625 13.125 15.6696C13.2589 15.8036 13.3929 15.9375 13.5268 16.1161C13.6161 16.1161 13.6607 16.1161 13.75 16.1161C14.5982 16.2946 15.4018 16.4732 16.25 16.4732C16.7857 16.4732 17.0089 16.7411 16.9196 17.1429C16.9196 17.2321 16.7857 17.3214 16.6964 17.3661C16.6071 17.4107 16.4732 17.4554 16.4286 17.5C16.3393 17.6786 16.1607 17.6339 15.9821 17.6339C15.5804 17.5893 15.2232 17.5446 14.8214 17.5C14.4643 17.4554 14.1071 17.4107 13.7946 17.3661C13.5268 17.3214 13.2589 17.3661 13.1696 17.0089C13.0804 16.7857 12.5446 16.7857 12.3661 16.9643C12.2321 17.1429 12.0982 17.1429 11.9196 17.0982C11.6071 17.0536 11.2946 17.0089 10.9821 16.9643C10.7143 16.9196 10.4911 16.9196 10.3571 16.6518L7.76786 19.2411C7.85714 19.2411 7.99107 19.2857 8.08036 19.2857C8.30357 19.375 8.34821 19.5536 8.16964 19.6875C8.03571 19.7768 7.90179 19.9107 7.76786 20C7.72321 20.0446 7.58929 20.0446 7.5 20.0446C7.36607 20 7.1875 20 7.05357 19.9554L2.09821 24.9107C2.14286 25 2.23214 25.1339 2.23214 25.2232C2.23214 25.3125 2.14286 25.4911 2.05357 25.4911C1.875 25.5357 1.74107 25.4464 1.65179 25.3571L0 27.0089L1.5625 28.5714C1.60714 28.5714 1.65179 28.5268 1.69643 28.4821C2.09821 28.2143 2.45536 28.2589 2.72321 28.6161C2.85714 28.7946 2.99107 28.9286 3.16964 29.1071C3.30357 29.2411 3.39286 29.1964 3.52679 29.1071C3.61607 29.0625 3.75 29.0625 3.83929 29.0625V29.1071L8.08036 24.8661C8.08036 24.8214 8.08036 24.7321 8.08036 24.6429C8.08036 24.5982 8.08036 24.5982 8.08036 24.5536C8.16964 24.375 8.21429 24.1518 8.34822 24.1071C8.52679 24.0179 8.57143 24.1518 8.66071 24.2857L14.2857 18.6607C14.1518 18.6607 13.9732 18.6607 13.8839 18.7054C13.7054 18.7946 13.4821 18.8393 13.3036 18.8393C13.2143 18.8393 13.0357 18.7946 13.0357 18.75C12.9911 18.4821 12.7232 18.3929 12.5 18.3036C12.1875 18.1696 12.0982 17.8571 12.2768 17.6339C12.3214 17.5893 12.4107 17.5446 12.5 17.5446C12.9911 17.5893 13.5268 17.6786 14.0179 17.7232C14.2411 17.7679 14.4643 17.7679 14.5536 17.9911C14.5982 18.0357 14.6875 18.125 14.7768 18.1696L14.9554 17.9911L15.3125 18.3482C15.4018 18.3482 15.4911 18.3929 15.625 18.3929C15.8929 18.4375 16.2054 18.4821 16.3839 18.1696C16.4732 18.0357 16.6964 18.0804 16.7411 18.2589C16.8304 18.5268 17.0536 18.4821 17.2321 18.5714C17.5 18.6607 17.6786 18.6607 17.7679 18.3929C17.7679 18.3482 17.8571 18.3036 17.9464 18.3036C18.0804 18.3036 18.6607 18.8839 18.5714 18.9732C18.5268 19.0625 18.3929 19.1071 18.3036 19.1071C18.0804 19.1071 17.8125 19.0625 17.5893 19.0625C17.2321 19.0179 16.875 18.8393 16.6071 19.1964C16.5625 19.2411 16.3839 19.2411 16.2946 19.2411H16.25L17.9018 20.8929C17.9911 20.8482 18.0804 20.7589 18.125 20.7143C18.2589 20.8482 18.3482 21.0268 18.4821 21.1607C18.4821 21.2054 18.5714 21.2054 18.5714 21.2054C18.6161 21.25 18.6607 21.3393 18.7054 21.3839C18.6161 21.4286 18.5714 21.4286 18.4821 21.4286H18.4375L21.3393 24.3304C21.3839 24.3304 21.4286 24.3304 21.4732 24.3304C21.5625 24.3304 21.7411 24.4196 21.7411 24.5089C21.7857 24.5536 21.7411 24.6429 21.6964 24.6875L22.5446 25.5357C22.5446 25.5357 22.5446 25.5357 22.5893 25.5357C22.7232 25.5804 22.7679 25.6696 22.7679 25.7143L23.0804 26.0268C23.1696 26.0714 23.2589 26.1607 23.3482 26.2946L23.3929 26.3393C23.6161 26.4286 23.7946 26.6518 23.9286 26.8304C23.9732 26.875 23.9732 26.9196 23.9732 26.9643L27.0089 30L30 27.0089L25.3571 22.3661H25.3125C25.0893 22.3214 24.8661 22.0089 24.7768 21.7857L22.5893 19.5982C22.3661 19.6429 22.1875 19.6429 21.9643 19.6429C21.875 19.6429 21.8304 19.4643 21.7857 19.4196C21.8304 19.2411 21.875 19.1518 21.9196 19.0625C21.9196 19.0625 21.9643 19.0179 22.0089 19.0179L21.0714 18.0804C21.0268 18.125 20.9821 18.1696 20.9375 18.2589C20.9375 18.3036 20.6696 18.3036 20.625 18.2589C20.5357 18.125 20.4911 17.9911 20.3125 18.2143C20.2679 18.2589 20.1339 18.2589 20.0446 18.2143C19.4196 18.125 18.7946 18.0804 18.1696 17.9911C17.9018 17.9464 17.8125 17.8571 17.7679 17.6339C17.7232 17.0089 17.9464 16.8304 18.8839 16.9643C19.1518 17.0089 19.5089 17.0089 19.8214 17.3214C19.9554 17.4554 20.1786 17.5 20.3571 17.4554L18.0357 15.1339L18.3036 14.8661C18.1696 14.9107 18.0357 14.9107 17.8125 14.8661C17.6339 14.8214 17.4554 14.8214 17.2768 14.7768C17.0536 14.7321 16.8304 14.6875 16.6964 14.9107C16.6071 15.0893 16.4286 15 16.2946 14.8661C15.9821 14.5089 15.7143 14.5089 15.4018 14.7321C15.1339 14.9554 14.5982 14.8214 14.4196 14.5089C14.2857 14.2857 14.0625 14.1071 13.8393 13.9732C13.7946 13.9286 13.6161 13.9732 13.6161 14.0179C13.4375 14.2857 13.2143 14.1964 12.9464 14.1518C12.6786 14.1071 12.4107 14.1518 12.1429 14.1071C11.6964 14.0625 11.6964 14.0179 11.6964 13.6607C11.6964 13.5268 11.7411 13.3929 11.7411 13.3036C11.7411 13.1696 11.7411 13.0357 11.7857 12.9018C11.875 12.5 11.9643 12.4554 12.4107 12.5893C12.5893 12.6339 12.6786 12.7232 12.6786 12.9018C12.6786 13.1696 12.6786 13.3929 12.7232 13.6607C12.7232 13.7054 12.8125 13.8393 12.8571 13.8393C12.9464 13.8393 13.0804 13.7946 13.125 13.7054C13.1696 13.3929 13.3482 13.1696 13.6607 13.0357C13.75 12.9911 13.7946 12.8571 13.8839 12.8125C14.0625 12.8125 14.2857 12.8125 14.4196 12.9018C14.5089 12.9464 14.5089 13.125 14.5536 13.2589C14.5982 13.3929 14.6429 13.5268 14.7321 13.6161C14.9107 13.7054 15 13.5714 15.0893 13.4821C15.1786 13.3929 15.3571 13.3036 15.4018 13.2143C15.4911 13.0804 15.625 13.0357 15.8036 13.0804C16.6518 13.2143 17.5 13.3036 18.3929 13.4375C18.6607 13.4821 18.75 13.6161 18.7054 13.7946C18.6607 14.0625 18.6607 14.2857 18.5714 14.5089C18.5714 14.5536 18.5268 14.5982 18.5268 14.6429L19.1518 14.0179C19.1518 13.9286 19.1518 13.8393 19.1964 13.75C19.1964 13.7054 19.2857 13.6161 19.375 13.6161C19.4196 13.6161 19.4643 13.6607 19.5536 13.6607L20.5804 12.6339C20.5357 12.5893 20.4911 12.5 20.4018 12.4554C20.3571 12.4107 20.3571 12.4107 20.3125 12.3661C20.1786 12.4554 20.0446 12.5446 19.8661 12.6339C19.5982 12.8125 19.4196 12.7679 19.1964 12.5446C18.8839 12.2321 18.8839 12.1429 19.2411 11.875C19.4196 11.7857 19.5982 11.6964 19.7321 11.5625C19.9107 11.6964 20.0446 11.875 20.3125 11.7857C20.3571 11.7857 20.5357 11.8304 20.5804 11.875C20.5804 11.9196 20.5804 12.0089 20.5804 12.0982C20.6696 12.0536 20.8482 12.0536 21.0268 12.0982L22.8125 10.3125C22.7679 10.2679 22.7679 10.2232 22.7679 10.2232C22.8571 10.1339 22.9464 10.0893 23.0804 10.0446L24.5089 8.61607C24.4196 8.57143 24.375 8.48214 24.3304 8.34822C24.2857 8.21429 23.9732 8.25893 23.9286 8.39286C23.8839 8.48214 23.8839 8.52679 23.8839 8.61607C23.8839 8.92857 23.6161 8.92857 23.3482 8.88393C22.9911 8.83929 22.9911 8.66072 22.9911 8.4375C22.9911 8.39286 23.0357 8.30357 22.9911 8.25893C22.9464 8.16964 22.9018 8.08036 22.8125 7.99107C22.7232 8.03572 22.5893 8.08036 22.5893 8.16964C22.5 8.34821 22.3661 8.39286 22.1875 8.34822C21.8304 8.25893 21.4732 8.21429 21.1161 8.125C20.8036 8.08036 20.7589 7.90179 20.7589 7.67857C20.7589 7.09822 20.9821 6.96429 21.6518 7.05357C21.7411 7.05357 21.8304 7.09821 21.9196 7.09821C22.0536 7.09821 22.1875 7.14286 22.3214 7.14286C22.5446 7.1875 22.6339 7.23214 22.6786 7.45536C22.7679 7.72322 22.9464 7.76786 23.0804 7.58929C23.3036 7.32143 23.6161 7.32143 23.9286 7.36607C24.2857 7.41071 24.6429 7.5 25 7.58929C25.1786 7.63393 25.3125 7.67857 25.4911 7.67857L26.6518 6.51786C26.4732 6.5625 26.3393 6.5625 26.1607 6.5625C25.9375 6.5625 25.6696 6.47321 25.4911 6.74107C25.3571 6.91964 24.6875 6.78572 24.5982 6.60714C24.5089 6.38393 24.2857 6.33929 24.0625 6.29464C23.8839 6.25 23.75 6.20536 23.6607 6.02679C23.4821 5.71429 23.0357 5.66964 22.7232 5.84822C22.5893 5.9375 22.4554 6.02679 22.3214 6.02679C22.0536 6.02679 21.8304 6.11607 21.6964 6.29464C21.5179 6.16071 21.3839 6.02679 21.2054 5.98214L19.8661 7.32143C19.8661 7.32143 19.8661 7.32143 19.8661 7.36607C19.8661 7.5 19.8214 7.63393 19.8214 7.72321C19.8214 7.85714 19.7768 7.99107 19.7768 8.08036C19.7321 8.48214 19.5982 8.52679 19.1518 8.39286C19.0179 8.34821 18.9286 8.30357 18.9286 8.21429L17.7232 9.41964C17.7679 9.50893 17.7679 9.59822 17.7232 9.73214C17.6786 9.86607 17.7232 10.1339 17.4554 10.0893C17.3214 10.0893 17.1875 10.0893 17.0536 10.0446L15.1786 11.8304C15.1339 11.9196 15.0893 11.9643 15 12.0089C14.8214 12.0536 14.6875 11.9643 14.6875 11.6964L12.5 9.50893C12.4107 9.55357 12.2768 9.55357 12.1875 9.50893C12.1429 9.46429 12.1429 9.33036 12.0982 9.15179H12.1429L9.6875 6.69643C9.6875 6.83036 9.64286 6.91964 9.46429 6.91964C9.19643 6.91964 8.92857 6.96429 8.70536 6.69643C8.34822 6.33929 8.30357 5.98214 8.48214 5.625C8.48214 5.58036 8.52679 5.58036 8.52679 5.58036L5 2.05357C4.86607 2.00893 4.73214 1.91964 4.6875 1.83036C4.64286 1.74107 4.55357 1.65179 4.50893 1.5625C4.41964 1.47321 4.375 1.38393 4.33036 1.33929L2.99107 0L1.78571 1.20536C1.83036 1.25 1.91964 1.33929 1.875 1.33929C1.83036 1.42857 1.74107 1.51786 1.69643 1.47321C1.65179 1.47321 1.65179 1.42857 1.60714 1.38393L1.29464 1.69643C1.47321 1.91964 1.74107 2.05357 2.05357 2.14286ZM2.67857 5.13393C2.63393 5.08929 2.5 5 2.5 4.95536C2.5 4.91071 2.58929 4.82143 2.67857 4.73214C2.76786 4.82143 2.85714 4.91071 2.85714 4.95536C2.8125 5.04464 2.72321 5.08929 2.67857 5.13393ZM0.803571 26.9643C0.758929 26.9643 0.714286 27.0089 0.669643 27.0089C0.669643 26.9643 0.625 26.875 0.625 26.8304C0.625 26.7857 0.669643 26.6964 0.714286 26.6518C0.758929 26.6964 0.892857 26.7411 0.892857 26.7857C0.892857 26.8304 0.848214 26.9196 0.803571 26.9643ZM6.47322 24.9107C6.29464 25 6.02679 24.9554 5.84822 24.9554C5.40179 24.8661 5.04464 24.7768 4.6875 24.6875C4.64286 24.6875 4.59821 24.5982 4.55357 24.5536C4.59821 24.5089 4.6875 24.4196 4.73214 24.4643C5.08929 24.5089 5.35714 24.5089 5.53571 24.1518C5.53571 24.1071 5.71429 24.1071 5.84822 24.1071C6.07143 24.1518 6.29464 24.1964 6.47322 24.2857C6.60714 24.3304 6.83036 24.5089 6.78571 24.5089C6.74107 24.6429 6.65179 24.8661 6.47322 24.9107ZM11.0714 17.4554C11.1161 17.5893 11.2054 17.7232 11.25 17.8571C11.25 17.9911 11.25 18.1696 11.0268 18.125C10.9375 18.125 10.8482 17.9464 10.7143 17.8125C10.8482 17.6786 10.9821 17.5893 11.0714 17.4554ZM11.0714 19.2857C10.9375 19.375 10.8482 19.4196 10.7143 19.5089C10.6696 19.5536 10.625 19.5536 10.5804 19.5536V19.5982C10.5804 19.7768 10.6696 19.9107 10.8482 20.0446C10.8929 20.0893 10.8482 20.2232 10.8929 20.3125C10.8036 20.3125 10.625 20.3125 10.625 20.2679C10.4018 19.9107 10.0446 19.9554 9.73214 19.9107C9.375 19.8661 9.15179 19.6875 8.97322 19.4643C8.79464 19.2411 8.92857 19.0179 9.24107 19.0179C9.33036 19.0179 9.46429 19.0625 9.55357 19.0625C9.64286 19.0625 9.73214 19.1071 9.82143 19.1071C9.64286 18.9286 9.41964 18.75 9.24107 18.5714C9.01786 18.3482 8.97321 18.1696 9.28571 17.9911C9.6875 17.7232 9.82143 17.6786 10.0893 17.9911C10.4464 18.3929 10.9375 18.2143 11.3839 18.3929C11.5179 18.4375 11.6518 18.4821 11.7857 18.4821C11.7411 18.6161 11.7411 18.75 11.6518 18.8393C11.4732 19.0179 11.25 19.1518 11.0714 19.2857C11.0714 19.3304 11.0714 19.3304 11.0714 19.2857ZM12.3214 19.9107C12.4107 20 12.4107 20.0446 12.4107 20.0893C12.4554 20.1339 12.4107 20.2232 12.4107 20.3125C12.4107 20.4911 12.3661 20.6696 12.0982 20.6696C12.0536 20.6696 12.0089 20.6696 11.9643 20.625C11.9643 20.6696 11.9196 20.7589 11.9196 20.8036C11.875 20.8929 11.8304 21.0268 11.7857 21.0268C11.6964 21.0268 11.5179 20.9821 11.4732 20.9375C11.0714 20.625 11.1161 20.3125 11.5625 20.0446C11.6071 20.0446 11.6518 20 11.6518 20C11.875 19.9554 12.2321 19.8214 12.3214 19.9107ZM26.5625 27.4107C26.8304 27.2321 27.1429 27.0089 27.4107 26.8304C27.5 26.7857 27.5893 26.7411 27.7232 26.6964C27.7679 26.7857 27.8125 26.9196 27.9018 27.0536C27.7679 27.1875 27.6786 27.2768 27.5446 27.3661C27.4554 27.4554 27.3661 27.5 27.2768 27.5893C27.0982 27.7232 26.6964 27.7232 26.5625 27.5893C26.5625 27.5446 26.5625 27.4554 26.5625 27.4107ZM20.4911 18.9732C20.625 19.1071 20.7589 19.1964 20.7589 19.2857C20.7589 19.4643 20.5357 19.4643 20.3571 19.4196C20.2232 19.375 20.1339 19.2857 20.0446 19.1964C20.1786 19.1518 20.3125 19.0625 20.4911 18.9732ZM19.2411 21.0714C19.2411 20.8929 19.375 20.8036 19.5982 20.8482C19.8661 20.8929 20.0893 20.9375 20.2679 20.625C20.3571 20.4464 21.0268 20.625 21.1161 20.8036C21.3393 21.2054 21.3393 21.2054 21.6071 20.8929C21.6518 20.8482 21.7857 20.8036 21.8304 20.8036C22.0536 20.9821 22.2768 21.2054 22.4554 21.3839C22.5 21.4286 22.3661 21.5625 22.2768 21.6071C22.1875 21.6518 22.0089 21.6071 21.875 21.6071C21.7411 21.5625 21.6071 21.5179 21.4732 21.4732C21.1607 21.3393 20.8929 21.3839 20.6696 21.5179C20.2232 21.7857 19.8214 21.6518 19.375 21.5179C19.1071 21.4732 19.2411 21.25 19.2411 21.0714ZM16.4286 15.4018C16.7411 15.4464 16.5625 15.7143 16.6071 15.8929C16.6071 16.0268 16.5625 16.2054 16.3393 16.1607C16.25 16.1161 16.1607 15.9821 16.0714 15.8482C16.25 15.6696 16.1161 15.3125 16.4286 15.4018ZM12.2321 14.3304C12.4107 14.375 12.6339 14.375 12.6786 14.4643C12.7232 14.5536 12.6786 14.7768 12.6339 14.8214C12.4107 14.9107 12.1875 14.9107 11.9643 14.9107C12.0089 14.7321 12.0982 14.5536 12.2321 14.3304ZM20.7589 9.6875C20.8482 9.59822 20.9821 9.55357 21.0714 9.46429C21.2946 9.33036 21.6071 9.375 21.8304 9.59822C21.9196 9.6875 22.0536 9.77679 22.1429 9.86607C22.1875 9.91072 22.2321 10 22.2768 10.0446C22.2321 10.0893 22.1429 10.1339 22.0982 10.1339C21.8304 10.1339 21.6071 10.1339 21.3393 10.1339C21.2054 10.1339 21.0268 10.1786 20.8929 10.2232C20.7589 10.2679 20.6696 10.3125 20.5804 10.3571C20.5357 10.2232 20.4911 10.0893 20.4018 9.91072C20.5357 9.82143 20.6696 9.73214 20.7589 9.6875ZM18.3929 10.0893C18.4821 10.0893 18.5268 9.95536 18.5714 9.86607C18.6161 9.77679 18.6161 9.6875 18.6161 9.59822C18.6607 9.46429 18.75 9.33036 18.9286 9.41964C19.0179 9.46429 19.1071 9.59822 19.1964 9.77679C19.0179 9.95536 18.8393 10.0893 18.7054 10.2679C18.5714 10.4018 18.5268 10.5804 18.4375 10.7589C18.3929 10.8036 18.3482 10.8482 18.3036 10.8929C18.2589 10.8482 18.1696 10.8036 18.125 10.7143C18.1696 10.4464 17.9911 10.1786 18.3929 10.0893ZM16.5179 11.875C16.6071 11.7411 16.6071 11.4286 16.9196 11.5625C17.1429 11.6518 17.2768 11.9196 17.4554 12.0982C17.2321 12.1429 17.0536 12.2321 16.8304 12.2321C16.5179 12.2321 16.4732 12.0536 16.5179 11.875ZM10.8929 8.52679C10.9375 8.48214 11.0268 8.34822 11.1161 8.34822C11.3839 8.34822 11.3839 8.52679 11.3393 8.70536C11.3393 8.75 11.3393 8.79464 11.2946 8.83929C11.25 8.97322 11.25 9.15179 11.0268 9.10714C10.9375 9.10714 10.9375 8.88393 10.8929 8.79464C10.8929 8.70536 10.8929 8.66072 10.8929 8.52679ZM7.63393 8.97322C7.54464 9.15179 7.32143 9.28572 7.14286 9.375C7.05357 9.41964 6.83036 9.24107 6.78571 9.24107C6.47321 8.88393 6.42857 8.39286 6.60714 8.16964C6.65179 8.125 6.83036 8.08036 6.91964 8.08036C7.23214 8.125 7.72322 8.70536 7.63393 8.97322ZM9.33036 8.125C9.41964 8.125 9.50893 7.99107 9.59822 7.94643C9.82143 7.76786 10.0446 7.85714 10.2232 7.94643C10.3125 7.99107 10.3571 8.21429 10.3571 8.34822C10.3571 8.39286 10.2679 8.52679 10.1786 8.52679C9.86607 8.61607 9.55357 8.57143 9.375 8.83929C9.375 8.88393 9.19643 8.83929 9.19643 8.83929C9.10714 8.75 9.0625 8.61607 9.0625 8.61607C9.0625 8.30357 9.10714 8.16964 9.33036 8.125ZM8.75 9.95536C8.97322 10.2232 9.15179 10.4911 9.33036 10.7589C9.375 10.8036 9.375 10.8929 9.33036 10.9821C9.33036 11.1161 9.24107 11.2946 9.28571 11.3839C9.46429 11.5625 9.6875 11.6518 9.91072 11.7857C10.0446 11.875 10.1786 11.9196 10.2679 12.0089C10.1339 12.1429 10 12.3214 9.82143 12.4107C9.73214 12.4554 9.55357 12.3661 9.41964 12.3214C9.375 12.3214 9.375 12.2768 9.33036 12.2321C9.19643 12.0982 9.0625 11.9196 8.92857 11.7857C8.79464 11.6518 8.70536 11.5179 8.57143 11.3839C8.52679 11.2946 8.39286 11.2054 8.39286 11.1607C8.52679 10.8036 8.39286 10.4911 8.16964 10.1339C8.125 10.0893 8.25893 9.91072 8.34822 9.91072C8.48214 9.82143 8.66072 9.86607 8.75 9.95536ZM8.21429 7.99107C8.34822 8.03572 8.4375 8.125 8.57143 8.16964C8.4375 8.21429 8.34822 8.25893 8.30357 8.30357C8.16964 8.30357 8.125 8.30357 8.08036 8.25893C7.99107 8.21429 7.90179 8.16964 7.8125 8.125C7.90179 8.08036 7.99107 8.03572 8.08036 7.99107C8.125 7.94643 8.16964 7.94643 8.21429 7.99107ZM7.8125 6.11607C7.8125 6.20536 7.8125 6.25 7.8125 6.33929C7.8125 6.38393 7.8125 6.47321 7.76786 6.51786C7.72321 6.5625 7.67857 6.5625 7.58929 6.5625C7.54464 6.42857 7.5 6.33929 7.5 6.20536C7.5 6.11607 7.58929 6.02679 7.67857 5.9375C7.72322 6.02679 7.8125 6.07143 7.8125 6.11607ZM6.60714 5.26786C6.65179 5 6.74107 4.95536 7.1875 5.04464C7.41072 5.08929 7.63393 5.13393 7.58929 5.40179C7.54464 5.75893 7.41071 5.89286 7.14286 5.84822C6.69643 5.75893 6.5625 5.58036 6.60714 5.26786ZM6.16072 7.27679C6.33929 7.23214 6.38393 7.41072 6.38393 7.54464C6.38393 7.58929 6.38393 7.58929 6.42857 7.63393C6.51786 7.76786 6.74107 7.94643 6.74107 7.99107C6.60714 8.16964 6.42857 8.30357 6.20536 8.39286C6.16071 8.4375 5.9375 8.34822 5.89286 8.30357C5.80357 8.125 5.80357 7.99107 5.75893 7.8125C5.80357 7.72321 5.84821 7.63393 5.89286 7.54464C5.98214 7.41072 6.02679 7.27679 6.16072 7.27679ZM4.50893 3.25893C4.55357 3.16964 4.73214 3.125 4.82143 3.125C4.91072 3.125 5.04464 3.125 5.17857 3.125C5.26786 3.125 5.35714 3.125 5.44643 3.16964C5.58036 3.25893 5.80357 3.30357 5.84822 3.4375C5.9375 3.61607 5.71429 3.66071 5.58036 3.70536C5.49107 3.75 5.49107 3.79464 5.40179 3.88393C5.22321 4.01786 5.04464 3.97321 4.91071 3.79464C4.82143 3.70536 4.73214 3.61607 4.6875 3.52679C4.59821 3.4375 4.46429 3.30357 4.50893 3.25893ZM3.92857 4.73214C3.92857 4.6875 4.10714 4.64286 4.19643 4.64286C4.41964 4.64286 4.64286 4.6875 4.86607 4.73214C5.84821 4.82143 5.84821 4.86607 5.66964 5.66964C5.625 5.89286 5.625 6.16072 5.625 6.38393C5.66964 6.42857 5.71429 6.47321 5.84822 6.5625C5.89286 6.74107 6.02679 7.00893 5.9375 7.23214C5.89286 7.41072 5.625 7.63393 5.3125 7.5C5 7.41071 4.77679 6.96429 4.86607 6.74107C4.91071 6.65179 4.91071 6.5625 4.95536 6.47322C4.95536 6.42857 4.95536 6.42857 5 6.38393C4.82143 6.16072 4.6875 5.9375 4.77679 5.66964C4.77679 5.625 4.6875 5.49107 4.64286 5.44643C4.46429 5.3125 4.28571 5.17857 4.10714 5.04464C3.92857 4.95536 3.92857 4.82143 3.92857 4.73214ZM3.48214 1.38393C3.57143 1.47321 3.66071 1.51786 3.66071 1.5625C3.66071 1.60714 3.57143 1.65179 3.52679 1.74107C3.48214 1.69643 3.39286 1.65179 3.39286 1.60714C3.39286 1.5625 3.4375 1.47321 3.48214 1.38393ZM3.39286 2.58929C3.48214 2.67857 3.52679 2.72321 3.57143 2.76786C3.52679 2.8125 3.48214 2.85714 3.39286 2.85714C3.30357 2.85714 3.21429 2.76786 3.16964 2.72321C3.21429 2.67857 3.30357 2.63393 3.39286 2.58929Z" fill="#FEFEFE"/>
<path d="M2.9911 30L3.3036 29.6875C3.08039 29.6429 2.81253 29.5982 2.58931 29.5982L2.9911 30Z" fill="#FEFEFE"/>
</g>
<defs>
<clipPath id="clip0_0_1626">
<rect width="30" height="30" fill="white"/>
</clipPath>
</defs>
</svg>
