<svg width="35" height="35" viewBox="0 0 35 35" fill="none" xmlns="http://www.w3.org/2000/svg">
<g clip-path="url(#clip0_1_2387)">
<path d="M23.5698 16.7705C23.5437 16.7705 23.5177 16.8226 23.4656 16.8747C23.5437 16.9008 23.5698 16.9008 23.5958 16.9008C23.6219 16.9008 23.6479 16.8487 23.6479 16.8226C23.6479 16.7966 23.5958 16.7705 23.5698 16.7705Z" fill="#171026"/>
<path d="M27.9204 22.293C27.9464 22.2409 27.9725 22.2149 27.9985 22.1888C27.9464 22.1628 27.9204 22.1367 27.8683 22.1367C27.8422 22.1367 27.8162 22.1888 27.8162 22.2409C27.8162 22.2409 27.8683 22.267 27.9204 22.293Z" fill="#171026"/>
<path d="M20.2093 29.3265C20.2093 29.3004 20.2354 29.2744 20.2354 29.2483C20.3396 29.2223 20.4438 29.1702 20.3917 29.0399C20.3917 29.0139 20.3656 28.9878 20.3396 28.9618C20.3396 28.8576 20.2875 28.7794 20.2354 28.7013C20.1833 28.6231 20.027 28.6492 19.9488 28.6492C19.8446 28.6752 19.7925 28.7013 19.7665 28.7013C19.5059 28.7794 19.5059 28.8315 19.5841 29.092C19.6362 29.3004 19.8186 29.2744 19.9228 29.3786C19.9749 29.4307 20.027 29.4567 20.053 29.4567H20.0791C20.1312 29.4567 20.1572 29.4046 20.2093 29.3265Z" fill="#171026"/>
<path d="M27.6077 20.6C27.6338 20.6521 27.7119 20.7042 27.738 20.6782C27.7901 20.6521 27.8161 20.574 27.8682 20.5479C27.8161 20.5219 27.764 20.4958 27.6338 20.3916C27.6077 20.4698 27.5817 20.5479 27.6077 20.6Z" fill="#171026"/>
<path d="M26.9563 24.1425C26.9824 24.1946 27.0345 24.1946 27.1126 24.2467C27.1387 24.1685 27.1647 24.1164 27.1387 24.0904C27.1126 24.0643 27.0345 24.0383 27.0084 24.0122C27.0084 24.0643 26.9563 24.1164 26.9563 24.1425Z" fill="#171026"/>
<path d="M23.1269 21.3294C23.0487 21.2512 22.9445 21.2773 22.9185 21.3815C22.8924 21.5899 22.7361 21.6159 22.5798 21.668C22.4756 21.6941 22.3714 21.7201 22.2933 21.7722C22.2412 21.7983 22.2151 21.8764 22.137 21.9806C22.3454 22.0588 22.5017 22.1891 22.658 22.163C22.9706 22.137 23.2832 22.0328 23.5958 21.9285C23.9084 21.8243 24.0126 21.8504 24.1689 22.137C24.1949 22.1891 24.2731 22.2672 24.3252 22.2672C24.4554 22.2412 24.4033 22.137 24.4033 22.0588C24.4033 22.0328 24.3773 22.0067 24.3773 21.9546C24.3252 21.6941 24.3512 21.6941 24.6118 21.642C24.8983 21.5899 25.1588 21.4857 25.4193 21.4075C25.6277 21.3554 25.8101 21.2773 26.0185 21.2252C26.3832 21.121 26.7739 21.0428 27.1386 20.9386C27.1647 20.9386 27.2168 20.9126 27.2168 20.9126C27.2428 20.8605 27.2949 20.8084 27.2949 20.7563C27.2949 20.7042 27.2428 20.6521 27.1907 20.626C27.1126 20.5739 27.0344 20.5218 26.9563 20.4958C26.9042 20.4697 26.826 20.4697 26.7739 20.4697C26.3311 20.6 25.8882 20.7563 25.4454 20.8865C25.3151 20.9386 25.2109 20.9647 25.1849 21.121C25.1588 21.2252 25.0546 21.2773 24.9765 21.1731C24.8723 20.9907 24.742 21.0428 24.5857 21.0949C24.1949 21.1991 23.8042 21.3033 23.4134 21.3815C23.3353 21.4075 23.2311 21.4596 23.1269 21.3294Z" fill="#171026"/>
<path d="M26.6438 18.4375C26.6438 18.4115 26.5657 18.3594 26.5136 18.3594C26.4615 18.3594 26.4354 18.4375 26.3833 18.4896C26.4615 18.5157 26.5136 18.5678 26.5657 18.5678C26.5917 18.5417 26.6438 18.4636 26.6438 18.4375Z" fill="#171026"/>
<path d="M28.1285 20.157C28.1025 20.157 28.0764 20.2091 27.9983 20.2612C28.0764 20.2873 28.1025 20.2873 28.1285 20.2873C28.1546 20.2612 28.1806 20.2352 28.1806 20.2091C28.1806 20.1831 28.1546 20.131 28.1285 20.157Z" fill="#171026"/>
<path d="M28.9623 21.668C28.9362 21.7201 28.8841 21.7462 28.8581 21.7722C28.832 21.8243 28.832 21.9025 28.832 21.9025C28.8581 21.9025 28.8841 21.9025 28.9102 21.9285C28.9623 21.7983 29.0144 21.642 29.0665 21.5117C29.0144 21.5378 28.9883 21.6159 28.9623 21.668Z" fill="#171026"/>
<path d="M29.2749 20.0269C29.1446 20.0269 29.0144 20.079 28.8841 20.1311C28.8581 20.1571 28.8841 20.2874 28.8841 20.3916C28.8841 20.4437 28.9102 20.4697 28.9102 20.5218C28.9362 20.6 28.9623 20.7042 28.9883 20.7823C29.0144 20.8084 29.0665 20.8605 29.0925 20.8605C29.1186 20.8605 29.1707 20.8084 29.1967 20.7823C29.2488 20.7042 29.2749 20.6 29.327 20.5218C29.327 20.4697 29.353 20.4176 29.353 20.3655C29.4051 20.2092 29.353 20.0269 29.2749 20.0269Z" fill="#171026"/>
<path d="M27.2689 18.1509C27.2429 18.1509 27.2168 18.203 27.1387 18.229C27.2689 18.2811 27.295 18.2811 27.3471 18.3072C27.3471 18.2811 27.3992 18.229 27.3731 18.203C27.3471 18.1769 27.295 18.1509 27.2689 18.1509Z" fill="#171026"/>
<path d="M26.0446 18.7241C26.0967 18.698 26.1227 18.6459 26.1488 18.5938C26.0967 18.5678 26.0706 18.5157 26.0185 18.4896C25.9404 18.4375 25.8622 18.4115 25.7841 18.3854C25.732 18.3594 25.6799 18.3854 25.6538 18.3594C25.6538 18.4896 25.6538 18.6199 25.6799 18.7501C25.6799 18.7762 25.8101 18.8022 25.8622 18.8022C25.9404 18.7762 26.0185 18.7501 26.0446 18.7241Z" fill="#171026"/>
<path d="M20.2876 24.4814C20.3397 24.4814 20.4178 24.4553 20.4699 24.4553C20.6262 24.4553 20.8086 24.4032 20.9649 24.4553C21.1472 24.5335 21.1733 24.4553 21.1733 24.3251C21.1993 24.0645 21.1212 24.0124 20.8867 24.0645C20.8346 24.0906 20.7565 24.0906 20.7044 24.1166C20.7044 24.1166 20.7044 24.1166 20.7044 24.0906C20.5481 24.1687 20.3918 24.2469 20.2354 24.3251C20.2094 24.3511 20.1833 24.4032 20.1833 24.4293C20.2094 24.4293 20.2615 24.4814 20.2876 24.4814Z" fill="#171026"/>
<path d="M25.0546 26.0702C25.0807 26.1223 25.1588 26.1484 25.1849 26.1484C25.237 26.1484 25.263 26.0702 25.263 26.0181C25.263 25.966 25.237 25.9139 25.237 25.9139C25.2109 25.8358 25.2109 25.8097 25.1849 25.7837C25.1588 25.7055 25.1067 25.6274 25.0025 25.6795C24.9504 25.7055 24.9244 25.8097 24.9504 25.8618C24.9765 25.9139 25.0025 25.9921 25.0546 26.0702Z" fill="#171026"/>
<path d="M25.4714 26.5391C25.3411 26.1484 25.289 26.1223 25.0285 26.2005C24.8722 26.2526 24.9243 26.3568 24.8983 26.461C24.8722 26.5652 24.9243 26.6954 24.9764 26.7996C25.0806 26.982 25.263 26.9559 25.3932 26.8778L25.4193 26.8517C25.4714 26.7736 25.4453 26.6433 25.4714 26.5391Z" fill="#171026"/>
<path d="M24.9245 22.0065C24.8724 21.9544 24.8203 21.9284 24.7682 21.9023C24.7421 21.9544 24.69 22.0326 24.7161 22.0847C24.7161 22.1628 24.7682 22.2149 24.8203 22.2671C24.8463 22.2931 24.8984 22.3192 24.9245 22.3192C24.9505 22.3192 24.9766 22.267 24.9766 22.2149C24.9766 22.1628 24.9505 22.1107 24.9505 22.0586C24.9245 22.0326 24.9245 22.0065 24.9245 22.0065Z" fill="#171026"/>
<path d="M24.9505 22.5015C24.9244 22.5275 24.8984 22.5536 24.8723 22.6057C24.9244 22.6317 24.9505 22.6838 24.9765 22.6838C25.0026 22.6838 25.0547 22.6317 25.0547 22.6057C25.0286 22.5536 24.9765 22.5275 24.9505 22.5015Z" fill="#171026"/>
<path d="M20.3395 22.4756C20.3395 22.4496 20.2874 22.4235 20.2613 22.3975C20.2353 22.4496 20.2092 22.4756 20.2092 22.5017C20.2353 22.5277 20.2613 22.5538 20.2874 22.5538C20.3134 22.5277 20.3395 22.5017 20.3395 22.4756Z" fill="#171026"/>
<path d="M23.127 27.0081C23.2051 27.2426 23.2833 27.2686 23.4917 27.1644C23.6219 27.1123 23.648 27.0342 23.6219 26.93C23.5959 26.7997 23.5698 26.6955 23.5177 26.5653C23.4917 26.435 23.4135 26.3569 23.2572 26.3829C23.0488 26.435 22.9967 26.4871 23.0488 26.6955C23.0488 26.7476 23.0749 26.8258 23.0749 26.8518C23.1009 26.93 23.1009 26.9821 23.127 27.0081Z" fill="#171026"/>
<path d="M24.5076 23.2831C24.5597 23.257 24.6118 23.257 24.6379 23.2049C24.6639 23.1789 24.6639 23.1268 24.69 23.1007C24.6118 23.1007 24.5337 23.0486 24.4816 23.0747C24.4034 23.1007 24.3513 23.1789 24.2732 23.231C24.2992 23.257 24.3253 23.2831 24.3774 23.2831C24.4034 23.3091 24.4555 23.2831 24.5076 23.2831Z" fill="#171026"/>
<path d="M23.9084 26.2527C23.7261 26.2788 23.7521 26.409 23.8042 26.5132C23.8563 26.7216 23.9084 26.7737 24.1168 26.6956C24.3253 26.6435 24.3513 26.5914 24.2992 26.409C24.221 26.2267 24.1168 26.2006 23.9084 26.2527Z" fill="#171026"/>
<path d="M21.4598 28.1805C21.4598 28.1545 21.4077 28.1545 21.3817 28.1284C21.3556 28.2066 21.3296 28.2587 21.3296 28.3368V28.3629C21.4338 28.3368 21.5119 28.3108 21.4598 28.1805Z" fill="#171026"/>
<path d="M17.9951 18.7761C17.9951 18.8022 18.0993 18.8282 18.1254 18.8282C18.1775 18.7761 18.2035 18.724 18.2035 18.6719C18.2035 18.6198 18.1775 18.5677 18.1775 18.5156C18.1254 18.5417 18.0472 18.5417 18.0212 18.5938C17.9691 18.6198 17.9691 18.698 17.9951 18.7761Z" fill="#171026"/>
<path d="M18.8026 18.5159H18.8808C18.9068 18.4117 18.9329 18.2814 18.9068 18.1772C18.9068 18.1251 18.7766 18.047 18.7245 18.073C18.5421 18.1251 18.3598 18.2033 18.2035 18.3075C18.1774 18.3335 18.1774 18.4377 18.1514 18.4898C18.3858 18.4377 18.5942 18.3075 18.8026 18.5159Z" fill="#171026"/>
<path d="M18.542 18.6458C18.5159 18.6198 18.4638 18.5938 18.4378 18.5938C18.4117 18.6198 18.3596 18.6719 18.3596 18.6979C18.3596 18.724 18.3857 18.7761 18.4378 18.8282C18.4899 18.724 18.5159 18.6719 18.542 18.6458Z" fill="#171026"/>
<path d="M18.7506 20.652C18.8287 20.8343 18.959 20.7822 19.1153 20.7562C19.1413 20.7562 19.1674 20.7562 19.1674 20.7301C19.2195 20.678 19.2716 20.6259 19.3497 20.5738C19.2976 20.5217 19.2195 20.4957 19.1674 20.4436C19.1153 20.4175 19.0371 20.4175 19.0111 20.3915C18.9069 20.2091 18.7506 20.3133 18.6203 20.3133C18.5943 20.3133 18.5161 20.3915 18.5161 20.4436C18.5161 20.4957 18.5682 20.5738 18.6203 20.5999C18.6203 20.6259 18.7245 20.6259 18.7506 20.652Z" fill="#171026"/>
<path d="M17.969 20.261C17.995 20.1828 18.0471 20.1307 18.0471 20.0786C18.0471 20.0526 17.969 20.0265 17.9429 20.0005C17.9169 20.0526 17.8648 20.0786 17.8648 20.1307C17.8387 20.1828 17.9169 20.2089 17.969 20.261Z" fill="#171026"/>
<path d="M17.6304 28.9357C17.6564 28.9878 17.7346 29.0399 17.7867 29.092C17.8127 29.0399 17.8388 28.9618 17.8388 28.9097C17.8388 28.7534 17.8127 28.6492 17.943 28.5189C18.0472 28.4408 17.8909 28.0761 17.7867 28.024C17.7085 27.9979 17.6304 27.9458 17.5522 27.8937C17.5001 27.8677 17.448 27.8677 17.422 27.8677C17.3959 27.8937 17.3699 27.9458 17.3699 27.9979C17.3959 28.1542 17.448 28.3105 17.5001 28.4408C17.5262 28.6231 17.5522 28.7794 17.6304 28.9357Z" fill="#171026"/>
<path d="M17.5522 24.8201C17.4741 24.8201 17.3699 24.8723 17.3178 24.9504C17.2657 25.0286 17.2396 25.0807 17.1875 25.1588C17.1354 25.237 17.1094 25.3151 17.0573 25.4193C17.1354 25.5235 17.2136 25.5756 17.2657 25.6538C17.3178 25.6017 17.3438 25.5235 17.3959 25.4714C17.448 25.4193 17.5262 25.3672 17.6043 25.3151C17.6825 25.2891 17.7606 25.237 17.8388 25.2109C17.9691 25.3151 17.9951 25.5235 17.8909 25.6538C17.7867 25.784 17.7867 25.8361 17.917 25.9143C18.0733 26.0185 18.0993 26.2008 18.0472 26.3832C18.0212 26.4092 18.0212 26.4613 18.0212 26.5134C17.917 26.5395 17.7606 26.5916 17.7085 26.6437C17.6825 26.6697 17.6564 26.6697 17.6304 26.6958C17.5262 26.7739 17.5262 26.8521 17.6564 26.8781C17.7346 26.9042 17.7867 26.9563 17.8388 26.9823C17.917 27.0084 17.9691 27.0344 17.9951 27.0344C18.0472 27.1907 18.0993 27.321 18.1514 27.4773C18.1514 27.5294 18.1775 27.5815 18.2035 27.6075C18.1514 27.6075 18.1254 27.6075 18.0993 27.6336C18.0733 27.6596 18.0733 27.7638 18.0733 27.8159C18.1254 27.9462 18.2296 28.0504 18.4119 28.0504C18.438 28.0504 18.4901 28.0504 18.5161 28.0504C18.5161 28.0504 18.5161 28.0765 18.5422 28.0765C18.3077 28.2849 18.4901 28.363 18.6464 28.4672C18.6724 28.4933 18.6724 28.5193 18.6985 28.5454C18.8027 28.6756 18.959 28.5975 19.0632 28.5714C19.1934 28.5454 19.1674 28.4412 19.1413 28.337C19.1153 28.2588 19.1153 28.1807 19.0892 28.1025C19.1413 28.0504 19.1934 27.9983 19.2195 27.9202C19.2455 27.868 19.2976 27.7899 19.3237 27.7378C19.3497 27.6596 19.3758 27.5554 19.4279 27.4773C19.3497 27.3991 19.3237 27.321 19.2716 27.2949C19.2195 27.2689 19.0632 27.2949 18.9329 27.347C18.8808 27.1386 18.8287 26.9042 18.7766 26.6958C18.7506 26.6176 18.6985 26.5134 18.6464 26.5134C18.438 26.4613 18.438 26.279 18.438 26.1487C18.438 26.0706 18.6203 25.9924 18.7245 25.9664C18.8808 25.9143 19.0371 25.9143 19.1934 25.8622C19.2455 25.8361 19.2976 25.784 19.3237 25.7319C19.2455 25.7059 19.1934 25.6538 19.1153 25.6538C19.0371 25.6538 18.985 25.6798 18.9069 25.7059C18.7766 25.7319 18.6724 25.758 18.5422 25.784C18.4119 25.8101 18.3338 25.758 18.2817 25.6277C18.2296 25.4454 18.2035 25.237 18.1514 25.0546C18.0993 24.8983 18.0733 24.742 18.0212 24.5596C17.9951 24.4554 17.9951 24.3512 18.0993 24.247C18.1775 24.1949 18.2296 24.0907 18.2556 24.0126C18.2817 24.0126 18.2817 24.0126 18.3077 24.0126C18.464 23.9605 18.5943 23.9084 18.5161 23.7C18.5161 23.6739 18.4901 23.6479 18.4901 23.6218C18.5161 23.6218 18.5161 23.6218 18.5422 23.6218C18.6464 23.5958 18.7766 23.5697 18.8808 23.5437C19.0111 23.5697 19.1674 23.5176 19.3237 23.4916C19.4018 23.4916 19.5321 23.4655 19.5842 23.5176C19.7405 23.7 19.8707 23.5697 20.001 23.5437C20.027 23.5437 20.0791 23.4655 20.0791 23.4134C20.0791 23.3874 20.027 23.3353 19.9749 23.3092C19.7144 23.205 19.7144 23.179 19.9228 22.9706C20.0531 22.8403 19.9749 22.5277 19.7926 22.5277C19.6623 22.5277 19.5581 22.5017 19.506 22.3975C19.506 22.3975 19.3497 22.4235 19.3497 22.4496C19.3237 22.7361 19.0892 22.7361 18.8808 22.7882C18.6724 22.8403 18.464 22.8664 18.2556 22.9185C18.0733 22.9706 17.917 23.0487 17.8649 23.2832C17.8388 23.4395 17.7346 23.4395 17.6304 23.3092C17.5522 23.205 17.4741 23.179 17.3699 23.205C17.2917 23.2311 17.2396 23.2571 17.1615 23.2571C17.1094 23.2571 17.0573 23.2832 17.0052 23.2832C16.6144 23.3874 16.5623 23.5437 16.6926 23.9084C16.7447 24.0647 16.8228 24.1428 17.0052 24.1168C17.2136 24.0647 17.422 24.0386 17.6304 23.9865H17.6564C17.6564 24.0126 17.6825 24.0647 17.6825 24.0907C17.7085 24.1949 17.7085 24.2991 17.7346 24.4033C17.7607 24.5075 17.7607 24.5857 17.6825 24.6638C17.6043 24.6899 17.5783 24.768 17.5522 24.8201Z" fill="#171026"/>
<path d="M17.969 17.4475C17.9951 17.4214 18.0211 17.3693 18.0472 17.3172C17.9951 17.2912 17.943 17.2651 17.9169 17.2651C17.8909 17.2651 17.8648 17.3433 17.8127 17.3954C17.8909 17.4214 17.969 17.4735 17.969 17.4475Z" fill="#171026"/>
<path d="M19.6102 18.4114C19.8446 18.3593 19.9749 18.203 19.9228 18.0467C19.8707 17.8644 19.7665 17.8123 19.532 17.8644C19.4278 17.8904 19.1934 18.2291 19.2455 18.3333C19.3236 18.4635 19.4799 18.4114 19.6102 18.4114Z" fill="#171026"/>
<path d="M23.6479 19.2975C23.6479 19.3235 23.7261 19.3756 23.7521 19.3756C23.9345 19.3235 24.1429 19.2975 24.3252 19.2193C24.3513 19.2193 24.4034 19.1151 24.3773 19.063C24.3773 19.037 24.2731 18.9849 24.2471 18.9849C24.1429 18.9849 24.0647 19.0109 23.9605 19.037C23.8824 19.063 23.7782 19.0891 23.7 19.1151C23.6479 19.1672 23.6219 19.2454 23.6479 19.2975Z" fill="#171026"/>
<path d="M21.9285 17.6559C22.0848 17.6038 22.0327 17.4736 22.0067 17.3694C21.9806 17.2652 21.9025 17.161 21.7983 17.2131C21.7201 17.2391 21.7201 17.3694 21.6941 17.4215C21.7462 17.5778 21.7722 17.7341 21.9285 17.6559Z" fill="#171026"/>
<path d="M22.7362 13.4358C22.6841 13.4097 22.632 13.3837 22.5799 13.4097C22.5538 13.4097 22.5278 13.4879 22.5017 13.54C22.5017 13.5921 22.5017 13.6702 22.5278 13.7744C22.5538 13.8005 22.632 13.9307 22.6841 13.9047C22.7883 13.8786 22.8925 13.8005 22.9967 13.7223C22.9446 13.6702 22.8925 13.6181 22.8404 13.566C22.8143 13.54 22.7883 13.4618 22.7362 13.4358Z" fill="#171026"/>
<path d="M20.6001 20.4695C20.6262 20.5737 20.6522 20.704 20.7043 20.8082C20.548 20.8603 20.3917 20.9124 20.2354 20.9384C20.2354 20.9384 20.2354 20.9384 20.2354 20.9124C20.2094 20.9124 20.1833 20.9124 20.1833 20.9384C20.0791 20.9645 20.001 21.0166 20.027 21.1468C20.0531 21.2771 20.1573 21.2771 20.2615 21.251C20.3136 21.251 20.3917 21.225 20.4438 21.225C20.4959 21.225 20.6001 21.225 20.6001 21.251C20.6783 21.4594 20.9388 21.3292 21.043 21.5115C21.0951 21.4855 21.1732 21.4594 21.1993 21.4073C21.2253 21.3552 21.1993 21.2771 21.1993 21.225C21.1993 21.1989 21.1993 21.1989 21.1993 21.1729C21.3295 21.1468 21.3816 21.0426 21.3295 20.9384C21.3816 20.9124 21.4598 20.8863 21.5379 20.9124C21.6161 20.9384 21.6943 21.0426 21.7464 21.1208C21.8506 21.251 22.1632 21.3031 22.2153 21.1729C22.2934 20.9384 22.4758 20.8863 22.6321 20.8342C22.6842 20.8082 22.7102 20.7561 22.7102 20.704C22.7363 20.5477 22.8665 20.5216 22.9707 20.4695C23.0749 20.4435 23.1791 20.4174 23.2573 20.3653C23.3094 20.3393 23.3094 20.2611 23.3354 20.209C23.2833 20.183 23.2312 20.1309 23.1791 20.1309C22.9968 20.1569 22.7884 20.1569 22.606 20.209C22.4497 20.2611 22.2674 20.2611 22.2413 20.4956C22.2413 20.5477 21.9548 20.6519 21.8766 20.6258C21.6422 20.5216 21.4337 20.5737 21.2253 20.6258C21.1993 20.6258 21.1732 20.6519 21.1472 20.6519C21.0951 20.4956 21.043 20.3653 20.8346 20.3132C20.8085 20.3132 20.7825 20.209 20.7564 20.1569C20.6001 20.183 20.548 20.2872 20.6001 20.4695Z" fill="#171026"/>
<path d="M22.2414 17.0832C22.1372 17.1614 22.1372 17.2656 22.1893 17.3698C22.2414 17.4479 22.3195 17.5521 22.3716 17.5782C22.58 17.6303 22.7103 17.5 22.7624 17.2916C22.7624 17.2395 22.8145 17.2135 22.8405 17.1614C22.9447 17.0311 22.9187 16.979 22.7624 16.979C22.6582 16.979 22.554 16.979 22.4758 16.979C22.3977 17.0051 22.3195 17.0311 22.2414 17.0832Z" fill="#171026"/>
<path d="M25.1849 19.7142C25.0807 19.6621 25.0286 19.5319 24.8983 19.61C24.7941 19.6882 24.6639 19.7142 24.5857 19.8184C24.5076 19.9487 24.4555 19.9226 24.3513 19.8445C24.221 19.7403 24.0908 19.7663 24.0647 19.9226C24.0387 20.0529 23.9605 20.0789 23.8824 20.131C23.7782 20.1831 23.5958 20.1831 23.674 20.3655C23.7521 20.5478 23.8824 20.4436 24.0126 20.4176C24.0387 20.4176 24.0908 20.4176 24.0908 20.3915C24.3513 20.2092 24.6639 20.2092 24.9504 20.131C25.0807 20.105 25.1849 20.0529 25.2891 20.2092C25.3151 20.2352 25.4714 20.1831 25.4975 20.1831C25.5235 19.9226 25.7319 19.9487 25.8882 19.8705C26.0185 19.8184 26.1748 19.7924 26.3051 19.7403C26.3572 19.7142 26.4614 19.6621 26.4614 19.61C26.4874 19.4277 26.5656 19.4277 26.7219 19.4798C26.8261 19.5058 26.9824 19.5058 27.0866 19.4798C27.1387 19.4537 27.1647 19.3235 27.2168 19.2714C27.295 19.1672 27.3731 19.1672 27.4773 19.2193C27.5815 19.2714 27.6857 19.2974 27.7899 19.2974C27.9723 19.2974 27.9983 19.1932 27.9462 19.0369C27.8941 18.9327 27.8681 18.7504 27.6857 18.8285C27.4773 18.8806 27.2689 18.9588 27.0866 19.0109C26.9824 19.0369 26.9042 19.089 26.8782 19.2193C26.8521 19.3756 26.7479 19.4016 26.6437 19.2974C26.5135 19.1411 26.4353 19.1932 26.3572 19.3495C26.3311 19.4016 26.2009 19.4277 26.1488 19.4016C25.9925 19.2974 25.8883 19.3235 25.8101 19.5058C25.7319 19.6621 25.3151 19.7924 25.1849 19.7142Z" fill="#171026"/>
<path d="M22.8926 19.141C22.7363 19.2192 22.8145 19.3755 22.8145 19.5057C22.8145 19.6099 22.8926 19.662 23.0229 19.636C23.1792 19.5839 23.1271 19.4536 23.101 19.3494C23.0489 19.2452 23.0489 19.0629 22.8926 19.141Z" fill="#171026"/>
<path d="M20.1573 19.6878C20.1052 19.5576 19.9489 19.6097 19.9228 19.766C19.8968 19.8441 19.8447 19.9223 19.8186 20.0004C19.7144 20.1567 19.7665 20.4693 19.8968 20.4954C20.0531 20.5214 20.2875 20.3912 20.3657 20.2349C20.4178 20.1046 20.7043 19.9744 20.7825 20.0525L20.8085 20.0786C20.8085 20.1046 20.8085 20.1307 20.8346 20.1567C20.8606 20.1567 20.8606 20.1307 20.8867 20.1307C21.0169 20.2088 21.1472 20.1567 21.2774 20.1307C21.3295 20.1046 21.4077 20.0786 21.4858 20.0525C21.6682 20.0004 21.6942 19.8962 21.6421 19.7399C21.59 19.5836 21.5379 19.5055 21.3556 19.5576C21.2253 19.6097 21.0951 19.6357 20.9388 19.6618C20.9127 19.6618 20.9127 19.6357 20.8867 19.6618C20.8606 19.6618 20.8606 19.6878 20.8346 19.6878C20.7564 19.7139 20.6783 19.7399 20.5741 19.766C20.3917 19.8181 20.2615 19.8962 20.1573 19.6878Z" fill="#171026"/>
<path d="M21.043 12.3418C21.043 12.3158 20.9649 12.2637 20.9128 12.2637C20.8867 12.2637 20.8346 12.3418 20.8086 12.3939C20.8867 12.446 20.9128 12.4721 20.9649 12.4981C20.9909 12.446 21.043 12.3939 21.043 12.3418Z" fill="#171026"/>
<path d="M20.7563 17.8647C20.6521 17.7865 20.6 17.7084 20.5218 17.6562C20.4958 17.7605 20.4697 17.8647 20.4697 17.9689C20.4697 18.021 20.5739 18.047 20.626 18.0991C20.6521 18.021 20.7042 17.9689 20.7563 17.8647Z" fill="#171026"/>
<path d="M18.1774 20.9907C18.2556 20.9386 18.2556 20.8344 18.3338 20.7302C18.2295 20.652 18.1774 20.5478 18.0732 20.5217C17.9951 20.4957 17.943 20.7041 17.9951 20.8865C18.0472 20.9646 18.0993 21.0428 18.1774 20.9907Z" fill="#171026"/>
<path d="M14.348 17.5779C14.348 17.63 14.4262 17.6821 14.5043 17.7602C14.5564 17.63 14.5825 17.5779 14.5825 17.5258C14.5564 17.4737 14.4783 17.4476 14.4262 17.3955C14.4001 17.4737 14.322 17.5258 14.348 17.5779Z" fill="#171026"/>
<path d="M13.332 21.0687C13.3841 21.0426 13.4362 20.9645 13.5143 20.8342C13.358 20.8082 13.2538 20.7821 13.1757 20.8082C13.0975 20.8342 12.9412 20.8342 12.9672 20.9905C12.9933 21.0426 13.2278 21.1208 13.332 21.0687Z" fill="#171026"/>
<path d="M13.4103 22.3974C13.4884 22.3974 13.5405 22.4234 13.6187 22.4495C13.6968 22.4755 13.775 22.5276 13.8531 22.5016C14.1918 22.4234 14.5565 22.3192 14.8951 22.215C14.9733 22.189 15.0775 22.1368 15.0775 22.1108C15.1035 21.8763 15.2859 21.8763 15.4422 21.7982C15.5464 21.7461 15.7287 21.694 15.7548 21.5898C15.8069 21.4595 15.8851 21.4074 15.9893 21.3814C16.1195 21.3553 16.2498 21.3293 16.354 21.2772C16.4061 21.2511 16.4842 21.173 16.4842 21.1209C16.5103 20.9385 16.3019 20.7822 16.1195 20.7822C16.0153 20.7822 15.8851 20.8083 15.7808 20.8343C15.6766 20.8604 15.6245 20.9125 15.6245 21.0427C15.6245 21.173 15.5464 21.2511 15.4161 21.2772L15.4422 21.2511C15.364 21.2251 15.3119 21.173 15.2338 21.1209C15.1817 21.1469 15.1556 21.199 15.1035 21.2251C15.0775 21.199 15.0775 21.1469 15.0514 21.0948C15.0254 21.0427 15.0254 20.9906 14.9993 20.9385C14.9733 20.9125 14.9472 20.9125 14.9212 20.9125C14.8951 20.9125 14.8691 20.9646 14.8691 20.9906C14.8691 21.0427 14.8951 21.0948 14.8951 21.1469C14.9472 21.4074 14.9472 21.4074 14.6607 21.4856C14.6086 21.4856 14.5825 21.5116 14.5304 21.5116C14.3741 21.5377 14.1918 21.6679 14.0615 21.4595C13.9834 21.3553 13.6187 21.4595 13.5926 21.5637C13.5666 21.7461 13.4363 21.7982 13.3061 21.8763C13.1498 21.9805 13.2019 22.1369 13.2279 22.2671C13.2019 22.4234 13.3321 22.3974 13.4103 22.3974Z" fill="#171026"/>
<path d="M15.5203 18.0471C15.4943 17.995 15.4161 17.9689 15.364 17.9429C15.338 17.995 15.2859 18.0731 15.2859 18.1252C15.2859 18.1773 15.364 18.2034 15.4682 18.2815C15.4943 18.1513 15.5464 18.0992 15.5203 18.0471Z" fill="#171026"/>
<path d="M14.5564 14.1392C14.5304 14.1652 14.5043 14.1913 14.4783 14.2434C14.5304 14.2694 14.5825 14.2694 14.5825 14.2694C14.6085 14.2434 14.6085 14.2173 14.6085 14.1652C14.6346 14.1652 14.5825 14.1392 14.5564 14.1392Z" fill="#171026"/>
<path d="M12.29 10.1016C12.2639 10.1016 12.2379 10.1797 12.1858 10.2579C12.2639 10.2839 12.3421 10.336 12.3681 10.31C12.3942 10.2839 12.4202 10.2318 12.4463 10.1797C12.3942 10.1276 12.3421 10.1016 12.29 10.1016Z" fill="#171026"/>
<path d="M15.2336 10.1798C15.1815 10.0756 15.0252 10.0495 14.9471 10.1537C14.895 10.2579 14.8429 10.3361 14.7908 10.4403C14.7387 10.5445 14.7647 10.6226 14.895 10.6226C14.9471 10.6226 15.0252 10.5966 15.0773 10.5966C15.3378 10.5445 15.3118 10.4142 15.2336 10.1798Z" fill="#171026"/>
<path d="M14.5564 18.8803C14.5825 18.9845 14.6085 19.1408 14.7648 19.0887C14.9211 19.0366 14.869 18.9063 14.843 18.8021C14.8169 18.6979 14.7909 18.5937 14.6606 18.6198C14.5043 18.6458 14.5564 18.7761 14.5564 18.8803Z" fill="#171026"/>
<path d="M15.1556 14.1655C15.1035 14.2176 15.0774 14.2437 14.9993 14.3479C15.1035 14.4 15.1556 14.4521 15.2077 14.4521C15.2337 14.4521 15.3119 14.3479 15.2858 14.3218C15.2598 14.2437 15.1816 14.2176 15.1556 14.1655Z" fill="#171026"/>
<path d="M14.5565 25.1325C14.5565 25.1846 14.6346 25.2888 14.6607 25.2888C14.7388 25.2888 14.843 25.2106 14.843 25.1585C14.8691 24.9762 14.9733 24.9762 15.1035 24.9241C15.1817 24.898 15.2859 24.872 15.364 24.8459C15.4161 24.8199 15.4943 24.7417 15.4943 24.6896C15.4943 24.5854 15.3901 24.5854 15.3119 24.5854C14.9993 24.6375 14.9993 24.6375 14.9212 24.351C14.843 23.9863 14.7649 23.9342 14.4002 24.0123C14.3481 24.0123 14.2699 24.0384 14.1657 24.0644C14.1136 24.0905 14.0355 24.1165 13.9313 24.1426C13.775 24.1947 13.775 24.2989 13.801 24.4552C13.8531 24.5854 13.9052 24.6896 14.0615 24.6375C14.1918 24.6115 14.3481 24.5854 14.5044 24.5594C14.5565 24.5594 14.6346 24.5854 14.6867 24.6375C14.7128 24.6375 14.6607 24.7678 14.6346 24.7938C14.4783 24.872 14.5304 25.0022 14.5565 25.1325Z" fill="#171026"/>
<path d="M15.1295 26.1227C15.2598 26.3311 15.4161 26.2008 15.5463 26.1487C15.7026 26.0966 15.6245 25.9664 15.5984 25.8622C15.5463 25.6017 15.4942 25.5756 15.1295 25.7059C15.1034 25.7059 15.0513 25.7319 14.9732 25.784C14.9211 25.8361 14.869 25.8882 14.8169 25.9403C14.869 25.9664 14.9211 26.0185 14.9732 26.0445C15.0513 26.0706 15.1034 26.0966 15.1295 26.1227Z" fill="#171026"/>
<path d="M12.6807 11.2998C13.3059 11.2737 13.8269 10.9351 14.4 10.7788C14.426 10.7788 14.4521 10.6746 14.4781 10.6485C14.426 10.6225 14.3739 10.5704 14.3218 10.5704C14.2176 10.5704 14.0353 10.6225 14.0092 10.5704C13.879 10.388 13.7487 10.4661 13.5924 10.4922C13.4361 10.5443 13.2798 10.5704 13.1235 10.6225C12.9412 10.6746 12.7588 10.7267 12.5764 10.7788C12.4201 10.8048 12.3159 10.8569 12.368 11.0653C12.4201 11.2737 12.4722 11.3258 12.6807 11.2998Z" fill="#171026"/>
<path d="M17.3177 15.5199C17.4479 15.4418 17.5782 15.3897 17.6824 15.3115C17.7084 15.2855 17.7084 15.2334 17.7084 15.1813C17.5 15.2073 17.4479 14.9729 17.2916 14.9468C17.1093 14.9208 17.0832 14.8166 17.0572 14.7124C17.0311 14.6082 17.0051 14.504 16.953 14.3998C16.9269 14.3477 16.8488 14.3216 16.7967 14.2695C16.7706 14.3477 16.7185 14.3998 16.7185 14.4779C16.7185 14.5821 16.7967 14.6603 16.7967 14.7384C16.8227 14.9208 16.8748 15.1552 16.8227 15.3115C16.7446 15.5199 16.7706 15.546 16.953 15.5199C17.0832 15.546 17.1874 15.546 17.3177 15.5199Z" fill="#171026"/>
<path d="M16.2235 26.4873C16.2496 26.4613 16.2756 26.4092 16.2756 26.3831C16.3017 26.2529 16.2756 26.1226 16.3017 26.0184C16.3277 25.8882 16.3798 25.7579 16.4319 25.6016C16.3277 25.5235 16.2756 25.4453 16.1975 25.4453C16.0672 25.4453 16.0672 25.5495 16.0672 25.6537C16.0672 25.7058 16.0933 25.784 16.0933 25.8361C16.0933 25.9142 16.0933 25.9924 16.0412 26.0445C15.8328 26.2008 16.0151 26.331 16.0672 26.4613C16.1193 26.4613 16.1714 26.4613 16.2235 26.4873Z" fill="#171026"/>
<path d="M16.7707 17.7084C16.7186 17.526 16.5102 17.6302 16.3799 17.6302C16.3799 17.6302 16.3539 17.6302 16.3278 17.6302C16.2757 17.6563 16.1976 17.6823 16.1455 17.7344C16.0934 17.7865 16.0934 17.8386 16.0413 17.9168C16.0934 17.9428 16.1455 17.9949 16.2236 17.9949C16.2236 18.021 16.2236 18.047 16.2236 18.0991C16.2497 18.1512 16.2757 18.2033 16.3018 18.2554C16.3539 18.3075 16.406 18.3596 16.4581 18.4117C16.4841 18.3596 16.5362 18.3075 16.5623 18.2554C16.6144 18.1773 16.7186 18.047 16.7186 17.9949C16.7186 17.9428 16.6665 17.9168 16.6144 17.8907C16.7446 17.8647 16.8228 17.8126 16.7707 17.7084Z" fill="#171026"/>
<path d="M16.0414 24.6635C16.3019 24.6374 16.354 24.5593 16.2758 24.2988C16.2498 24.2206 16.2237 24.1425 16.1977 24.0643C16.1716 23.9862 16.1456 23.908 16.1195 23.8299C16.0414 23.5694 16.0153 23.5694 15.7548 23.6215C15.5985 23.6736 15.4422 23.6996 15.2859 23.7517C14.9733 23.8299 14.9472 23.882 15.0775 24.1685C15.1035 24.2467 15.1817 24.2988 15.2338 24.3509C15.2859 24.2988 15.338 24.2467 15.364 24.1685C15.4422 24.0122 15.5203 24.0122 15.5985 24.1425C15.6766 24.2467 15.7287 24.3769 15.7548 24.5072C15.833 24.6114 15.8851 24.6895 16.0414 24.6635Z" fill="#171026"/>
<path d="M16.3018 17.3698C16.3279 17.3177 16.38 17.2655 16.38 17.2134C16.3539 17.0571 16.3279 16.9008 16.3018 16.7445C16.3018 16.7185 16.2497 16.6664 16.2237 16.6403C15.9371 16.5882 16.1195 16.9529 15.885 16.979C15.9111 17.0311 15.9111 17.1092 15.9371 17.1613C16.0153 17.2395 16.0934 17.2655 16.1716 17.3176C16.1976 17.3437 16.2497 17.3698 16.3018 17.3698Z" fill="#171026"/>
<path d="M16.2498 13.6963C16.2498 13.7484 16.3279 13.8005 16.4061 13.8787C16.4321 13.7484 16.4842 13.6963 16.4842 13.6442C16.4842 13.5921 16.4061 13.5661 16.354 13.54C16.3279 13.6182 16.2498 13.6703 16.2498 13.6963Z" fill="#171026"/>
<path d="M16.1455 15.129C16.1455 15.129 16.1194 15.1029 16.1455 15.129C15.9892 15.0248 15.8589 14.9727 15.7026 14.8945C15.6766 14.9466 15.6505 14.9987 15.6505 15.0248C15.6505 15.155 15.7026 15.2592 15.7026 15.3895C15.7026 15.4937 15.7287 15.6239 15.6766 15.676C15.5463 15.8063 15.5984 15.9365 15.5984 16.0668C15.5984 16.1189 15.6245 16.145 15.6245 16.171C15.6505 16.3273 15.7547 16.4315 15.9371 16.4315C16.1194 16.4315 16.1976 16.3794 16.1715 16.1971C16.1715 16.171 16.1976 16.1189 16.2236 16.0929C16.3278 15.9626 16.3539 15.8584 16.3018 15.7542C16.4581 15.7021 16.4581 15.6239 16.432 15.4416C16.406 15.3374 16.3539 15.2332 16.3278 15.1029C16.3018 15.0769 16.2757 15.0508 16.2497 15.0248C16.1976 15.0508 16.1455 15.0769 16.1455 15.129ZM16.0673 15.5197C15.9892 15.4676 15.9631 15.3895 16.0934 15.3113L16.1194 15.2853C16.0934 15.3634 16.0673 15.4416 16.0673 15.5197Z" fill="#171026"/>
<path d="M15.5985 14.3999C15.5724 14.3999 15.5724 14.452 15.5464 14.5041C15.5985 14.5041 15.6245 14.5302 15.6766 14.5302C15.7027 14.5302 15.7287 14.4781 15.7548 14.3999C15.6766 14.426 15.6245 14.3999 15.5985 14.3999Z" fill="#171026"/>
<path d="M16.4841 9.94516C16.5102 10.0754 16.5623 10.1796 16.7186 10.1275C16.953 10.0754 17.1615 9.99726 17.3699 9.91911C17.5522 9.86701 17.5522 9.76281 17.5262 9.6065C17.4741 9.4502 17.3959 9.3981 17.2396 9.4502C17.1354 9.47625 17.0052 9.5023 16.9009 9.52835C16.7967 9.5544 16.6665 9.58045 16.5623 9.63256C16.3799 9.68466 16.4581 9.84096 16.4841 9.94516Z" fill="#171026"/>
<path d="M20.1312 26.2265C20.1572 26.3307 20.1572 26.487 20.3396 26.4349C20.3917 26.4088 20.3917 26.2786 20.4178 26.1744C20.3396 26.1223 20.2615 26.0181 20.1833 26.0181C20.053 26.0181 20.1051 26.1223 20.1312 26.2265Z" fill="#171026"/>
<path d="M19.8706 27.2686C19.8706 27.3988 19.9227 27.5812 20.0009 27.6072C20.2353 27.6854 20.4958 27.8417 20.7824 27.7375C20.9126 27.6854 21.0429 27.6333 21.1471 27.7896C21.1992 27.8677 21.3294 27.8417 21.3555 27.7635C21.3815 27.503 21.5899 27.3728 21.6941 27.2165C21.7723 27.0862 21.7202 26.7476 21.5899 26.6694C21.4597 26.6173 21.1471 26.7736 21.121 26.9299C21.095 27.0862 20.9908 27.1123 20.9126 27.0081C20.8084 26.9039 20.7042 26.9039 20.6 26.9299C20.4958 26.956 20.4177 26.982 20.3135 27.0081C20.2093 27.0341 20.1311 27.0602 20.053 27.0862C19.9748 27.1383 19.8706 27.2165 19.8706 27.2686Z" fill="#171026"/>
<path d="M26.2271 25.3408C26.175 25.5232 26.0447 25.6014 25.9145 25.7056C25.8884 25.7316 25.8623 25.7837 25.8623 25.8098C25.8363 26.0703 25.8623 26.2266 25.9926 26.3047C26.201 26.0963 26.3834 25.914 26.5918 25.7056C26.5657 25.5753 26.5136 25.4711 26.4615 25.3408C26.4094 25.2366 26.2271 25.2366 26.2271 25.3408Z" fill="#171026"/>
<path d="M19.7405 27.9723C19.7926 27.8681 19.8186 27.816 19.8186 27.7378C19.8186 27.7118 19.7144 27.6597 19.6884 27.6597C19.6363 27.6857 19.5842 27.7378 19.5581 27.7899C19.5581 27.842 19.6363 27.8941 19.7405 27.9723Z" fill="#171026"/>
<path d="M21.6942 21.9283C21.5379 21.9544 21.4076 22.0065 21.2774 22.0586C21.1471 22.0846 21.0169 22.1107 20.8866 22.1888C20.8085 22.2149 20.6782 22.293 20.6782 22.3451C20.7043 22.4754 20.7303 22.6577 20.8345 22.7359C20.9387 22.814 21.069 22.8922 21.1732 22.9703C21.1732 22.9964 21.1732 23.0485 21.1992 23.1266C21.2253 23.309 21.3295 23.3611 21.4597 23.309C21.59 23.2829 21.7202 23.2569 21.6942 23.1006C21.7463 23.0745 21.8244 23.0485 21.8765 23.0224C21.9286 22.9964 21.9026 22.814 21.9026 22.7098C21.8765 22.5275 21.7723 22.3712 21.9026 22.1628C21.9547 22.0065 21.8505 21.9023 21.6942 21.9283Z" fill="#171026"/>
<path d="M19.7405 24.4293C19.6884 24.4553 19.6624 24.5074 19.5842 24.6116C19.6884 24.6377 19.7666 24.6898 19.8187 24.6898C19.8708 24.6637 19.8968 24.5856 19.8708 24.5074C19.8708 24.4553 19.7666 24.4032 19.7405 24.4293Z" fill="#171026"/>
<path d="M21.8765 23.9604C21.7463 23.9865 21.59 24.0125 21.4597 24.0647C21.4337 24.0647 21.4337 24.221 21.4597 24.247C21.5379 24.2991 21.616 24.2731 21.7463 24.2991C21.8244 24.247 21.9026 24.1689 21.9547 24.0907C21.9807 24.0907 21.9026 23.9604 21.8765 23.9604Z" fill="#171026"/>
<path d="M22.5016 25.4971C22.5016 25.6013 22.4756 25.6534 22.4756 25.7055C22.5016 25.7315 22.5537 25.7576 22.6058 25.7836C22.6058 25.7315 22.6319 25.6794 22.6319 25.6273C22.6319 25.5492 22.5798 25.5492 22.5016 25.4971Z" fill="#171026"/>
<path d="M22.4236 28.6491C22.4236 28.6752 22.4236 28.6752 22.4236 28.7012C22.4757 28.6752 22.5278 28.6491 22.5799 28.6231C22.5538 28.597 22.5017 28.6231 22.4236 28.6491Z" fill="#171026"/>
<path d="M22.0327 26.5393C21.9806 26.5393 21.9285 26.6174 21.9025 26.6435C21.9025 26.6956 21.9285 26.7737 21.9285 26.8258C21.9806 27.0082 22.1109 27.2166 21.8504 27.3729C21.7462 27.425 21.8504 27.6334 21.9806 27.6073C22.0848 27.6073 22.2151 27.5813 22.3193 27.5031C22.3714 27.4771 22.3454 27.3729 22.3714 27.2947C22.3975 27.2426 22.4235 27.2166 22.4235 27.1645C22.4496 27.0863 22.4756 26.9821 22.5017 26.904C22.4756 26.7998 22.1109 26.5132 22.0327 26.5393Z" fill="#171026"/>
<path d="M27.0607 24.9761C26.9825 24.9761 26.8523 25.0282 26.8262 25.1063C26.7741 25.2105 26.8002 25.3408 26.8262 25.445C26.9304 25.3147 27.0607 25.1845 27.1649 25.0282C27.1388 25.0021 27.1128 24.9761 27.0607 24.9761Z" fill="#171026"/>
<path d="M16.9529 19.1411C16.9269 19.0369 16.9008 18.9067 16.8487 18.8025C16.7966 18.6983 16.7185 18.6983 16.6403 18.7764C16.5882 18.8285 16.5361 18.9327 16.5101 18.9327C16.3538 18.8806 16.1975 18.8285 16.0672 18.7243C15.9109 18.5941 15.5983 18.5941 15.5462 18.7764C15.4941 19.0109 15.3378 19.0109 15.1815 19.063C15.1033 19.089 15.0512 19.1151 14.9991 19.1672C14.947 19.2193 14.921 19.2714 14.8689 19.3235C14.921 19.3495 14.9731 19.3756 15.0252 19.3756C15.1555 19.4016 15.3118 19.3495 15.442 19.4537C15.4681 19.4798 15.5983 19.4016 15.6244 19.3495C15.7025 19.1672 15.8588 19.1411 15.9891 19.1672C16.0933 19.1932 16.1975 19.2193 16.2756 19.2714C16.3017 19.3495 16.3798 19.4277 16.458 19.4798C16.5101 19.5058 16.5361 19.5579 16.5882 19.584C16.6664 19.61 16.7445 19.6361 16.7966 19.6361C16.8227 19.6361 16.8487 19.5319 16.8748 19.4537C16.8748 19.4277 16.8748 19.4016 16.8748 19.3495C16.979 19.3756 17.005 19.2974 16.9529 19.1411Z" fill="#171026"/>
<path d="M18.3857 24.9242C18.3857 24.9503 18.516 25.0284 18.542 25.0284C18.6462 24.9763 18.7504 24.8721 18.8546 24.794C18.7504 24.7679 18.6723 24.7419 18.542 24.7158C18.4639 24.794 18.3857 24.8461 18.3857 24.9242Z" fill="#171026"/>
<path d="M12.5767 20.1571C12.6809 20.2092 12.759 20.2873 12.8372 20.3134C12.9414 20.3394 13.0456 20.2873 13.1498 20.2613C13.3582 20.2092 13.5926 20.0529 13.775 20.2873C13.775 20.2873 13.8792 20.2352 13.9052 20.1831C13.9313 20.1571 13.8792 20.0789 13.9052 20.0268C13.9052 19.9487 13.9313 19.8705 13.9313 19.7924C14.0094 19.8184 14.0876 19.8445 14.1397 19.8705C14.2699 19.9226 14.5044 19.8445 14.5825 19.7142C14.6607 19.5579 14.5825 19.4277 14.4262 19.3495C14.3741 19.3235 14.322 19.3235 14.296 19.2714C14.1136 19.089 14.0876 19.1151 13.8792 19.2453C13.7229 19.3495 13.775 19.4537 13.775 19.584C13.775 19.7663 13.7229 19.8184 13.5666 19.7403C13.4103 19.6621 13.28 19.61 13.1237 19.5579C13.0977 19.5579 13.0456 19.5579 13.0456 19.584C12.9153 19.6882 12.7851 19.7924 12.6809 19.9226C12.6288 19.9487 12.6288 20.0268 12.5767 20.1571Z" fill="#171026"/>
<path d="M12.811 18.75C12.811 18.8282 12.7849 18.8803 12.7849 18.9063C12.7849 18.9324 12.837 18.9324 12.8631 18.9584C12.8891 18.9063 12.9152 18.8803 12.9152 18.8282C12.9152 18.8021 12.8631 18.7761 12.811 18.75Z" fill="#171026"/>
<path d="M13.6707 18.724C13.7228 18.724 13.7228 18.6459 13.7749 18.5938C13.7228 18.5677 13.6707 18.5156 13.6447 18.5156C13.5926 18.5156 13.5665 18.5938 13.5144 18.6459C13.5665 18.6719 13.6186 18.724 13.6707 18.724Z" fill="#171026"/>
<path d="M19.2453 28.9619C19.2453 28.9359 19.1672 28.8838 19.1411 28.8838C18.9848 28.9098 19.063 29.0401 19.063 29.1182C19.1672 29.1182 19.2714 29.1182 19.2453 28.9619Z" fill="#171026"/>
<path d="M19.063 29.1445C18.9588 29.1706 18.8546 29.1966 18.7504 29.2227C18.6983 29.2487 18.6462 29.3008 18.6462 29.3529C18.6462 29.4571 18.6462 29.5874 18.6983 29.6916C18.8546 29.6655 19.037 29.6655 19.1933 29.6395C19.1412 29.4571 19.0891 29.3008 19.063 29.1445Z" fill="#171026"/>
<path d="M13.6968 17.8383C13.7228 17.8122 13.7749 17.7341 13.7489 17.708C13.7228 17.682 13.6447 17.6299 13.6186 17.6299C13.5926 17.6299 13.5665 17.708 13.5144 17.7862C13.5926 17.8383 13.6447 17.8643 13.6968 17.8383Z" fill="#171026"/>
<path d="M18.6984 31.1507C18.6984 31.1247 18.7245 31.1247 18.7245 31.0986C18.6984 31.0986 18.6724 31.0986 18.6724 31.0986C18.6724 31.1247 18.6724 31.1507 18.6984 31.1507Z" fill="#171026"/>
<path d="M21.2773 4.37063C21.4336 4.42273 21.5899 4.47483 21.7463 4.52693C21.7723 4.44878 21.7984 4.39668 21.8244 4.34458C21.7463 4.31853 21.642 4.29248 21.5639 4.29248C21.4597 4.31853 21.3815 4.34458 21.2773 4.37063Z" fill="#171026"/>
<path d="M24.0909 29.5875C24.0909 29.5093 24.117 29.4572 24.1691 29.4312C23.9607 29.5614 23.7262 29.6656 23.5178 29.7698C23.5699 29.7959 23.596 29.8219 23.6481 29.848C23.7523 29.9522 24.0649 29.7438 24.0909 29.5875Z" fill="#171026"/>
<path d="M22.9187 30.0826C22.9968 30.0565 23.101 30.0305 23.1531 29.9523C23.1531 29.9523 23.1531 29.9523 23.1531 29.9263C23.0489 29.9784 22.9187 30.0305 22.8145 30.0826C22.8405 30.1086 22.8926 30.1086 22.9187 30.0826Z" fill="#171026"/>
<path d="M29.5354 23.9866C29.6136 24.0126 29.6657 24.0647 29.6657 24.1168C29.6657 23.9866 29.6657 23.8563 29.6657 23.7261C29.6136 23.8042 29.5875 23.9084 29.5354 23.9866Z" fill="#171026"/>
<path d="M6.58495 6.61107C6.63705 6.76737 6.50679 6.79342 6.40259 6.81947C6.35049 6.84552 6.27234 6.84552 6.22024 6.87157C4.68327 8.51275 3.511 10.4665 2.78159 12.6548C2.80764 12.6548 2.83369 12.6808 2.85974 12.6808C2.83369 12.7069 2.80764 12.7329 2.80764 12.7329C3.17234 12.9153 2.96394 13.2539 3.01604 13.5405C3.01604 13.5665 2.88579 13.6707 2.83369 13.6707C2.72948 13.6707 2.62528 13.5665 2.57318 13.4363C2.23453 14.6346 2.05217 15.885 2.02612 17.1875C2.05217 17.2136 2.05217 17.2396 2.07822 17.2657C2.10427 17.3699 2.10427 17.4741 2.13032 17.5783C2.10427 17.5783 2.05217 17.5522 2.02612 17.5522C2.02612 18.3338 2.07822 19.0892 2.20848 19.8186C2.20848 19.8186 2.20848 19.8186 2.23453 19.8186C2.33873 19.8707 2.33873 19.9749 2.26058 20.0531C2.44293 21.2254 2.78159 22.3455 3.22444 23.4136C3.27654 23.4396 3.30259 23.4917 3.35469 23.5438C3.4589 23.6741 3.69335 23.3615 3.69335 23.648C3.69335 23.7783 3.64125 23.9085 3.7194 24.0388C3.74545 24.0649 3.7194 24.143 3.69335 24.1691C3.6673 24.1951 3.64125 24.2212 3.6152 24.2472C3.7194 24.4556 3.8236 24.638 3.90175 24.8203C4.08411 24.638 4.21436 24.5859 4.34461 24.7682C4.44881 24.8985 4.42276 24.9766 4.24041 25.0287C4.18831 25.0548 4.13621 25.0548 4.08411 25.0548C4.05806 25.0548 4.03201 25.0548 4.00595 25.0548C4.18831 25.3934 4.39671 25.706 4.60511 26.0186C4.73537 26.0707 4.78747 26.1749 4.81352 26.2791C4.86562 26.227 4.89167 26.1749 4.94377 26.1489C4.96982 26.1228 5.02192 26.1228 5.12612 26.0707C5.15217 26.0707 5.25637 26.0968 5.33453 26.1489C5.36058 26.1749 5.38663 26.3052 5.36058 26.3312C5.30848 26.3833 5.20427 26.4094 5.12612 26.4354C5.07402 26.4615 5.02192 26.4354 4.96982 26.4354C4.91772 26.4094 4.86562 26.3833 4.81352 26.3312C4.81352 26.3312 4.81352 26.3312 4.81352 26.3573C6.11604 28.2329 7.83537 29.822 9.84125 30.9682C9.89335 30.9682 9.94545 30.9943 9.99755 31.0203V31.0464C10.6228 31.4111 11.274 31.7237 11.9774 31.9842C12.0034 31.906 12.0555 31.8539 12.1076 31.8018C12.1337 31.7758 12.1858 31.7497 12.2118 31.7497C12.4723 31.8018 12.7068 31.88 13.0194 31.9581C13.0194 32.1144 13.0194 32.2186 13.0194 32.3228C13.0194 32.3228 13.0194 32.3228 13.0194 32.3489C14.0354 32.6615 15.0774 32.8699 16.1715 32.9741C16.2236 32.8959 16.2757 32.8438 16.3539 32.8178C16.432 32.7917 16.5623 32.8959 16.6404 32.948C16.6404 32.9741 16.6665 33.0001 16.6665 33.0262C16.9791 33.0522 17.2917 33.0522 17.6043 33.0522C20.4959 33.0522 23.2051 32.2447 25.5497 30.864C25.4715 30.7859 25.4454 30.6817 25.4715 30.5775C25.4715 30.5254 25.5497 30.4733 25.5757 30.4733C25.8883 30.3691 26.227 30.2909 26.5656 30.2128H26.5917C26.8261 30.0564 27.0345 29.9001 27.2429 29.7178C27.1387 29.7438 27.0606 29.7699 26.9564 29.7959C26.7219 29.848 26.5135 29.9001 26.2791 29.9783C26.0967 30.0304 25.9404 30.1085 25.8102 29.9001C25.706 29.7699 25.3673 29.9001 25.3152 30.0825C25.2891 30.2388 25.211 30.2909 25.0807 30.317C24.8723 30.3691 24.69 30.4212 24.4816 30.4733C24.2992 30.5254 24.1429 30.6035 23.9866 30.3951C23.9606 30.343 23.8043 30.343 23.7261 30.3691C23.3093 30.4733 22.8925 30.5514 22.4757 30.6817C22.3976 30.7077 22.3194 30.7859 22.2673 30.864C22.111 31.1506 21.6681 31.2548 21.3816 31.0724C21.2513 30.9943 21.1471 31.0203 21.1211 31.1506C21.095 31.3329 20.9648 31.3329 20.8345 31.385C20.6782 31.4371 20.6001 31.385 20.4959 31.2808C20.3656 31.1506 19.9749 31.2548 19.9228 31.4371C19.8707 31.6976 19.6362 31.6716 19.4799 31.7237C19.3236 31.7758 19.1412 31.88 19.011 31.6455C18.9849 31.6195 18.9068 31.6195 18.8547 31.5934C18.8286 31.6716 18.7765 31.7237 18.6984 31.8018C18.516 31.9842 18.4118 32.0623 18.3076 32.0363C18.2555 32.0884 18.1513 32.0884 17.995 32.1405C17.7345 32.3489 17.5522 31.9321 17.2917 31.9321C17.2917 31.8539 17.2917 31.7497 17.3177 31.7237C17.474 31.5934 17.6564 31.5413 17.8387 31.5413C17.8127 31.4632 17.7866 31.4111 17.8127 31.385C17.8387 31.359 17.8387 31.359 17.8648 31.3329C17.7866 31.3329 17.6824 31.3329 17.6043 31.3329C16.7446 31.3329 15.911 31.2548 15.1034 31.0985C15.1295 31.1766 15.1295 31.2548 15.1295 31.3329C15.1295 31.385 15.1034 31.4892 15.0774 31.5153C15.0253 31.5413 14.9211 31.5413 14.895 31.4892C14.7387 31.3069 14.5824 31.1245 14.4522 30.9422C13.7488 30.7859 13.0715 30.5514 12.4202 30.2909C12.4202 30.3691 12.4202 30.4212 12.4202 30.4733C12.4202 30.5254 12.3681 30.5775 12.3681 30.6296C12.316 30.6035 12.2639 30.5775 12.2379 30.5254C12.1858 30.4733 12.1597 30.4212 12.1597 30.3691C12.1337 30.2909 12.1337 30.2128 12.1597 30.1607C11.1959 29.7438 10.2841 29.1968 9.45049 28.5716C9.37234 28.6497 9.29419 28.7018 9.18999 28.78C9.13789 28.806 9.00764 28.806 8.95553 28.78C8.90343 28.7539 8.87738 28.5976 8.90343 28.5716C9.00764 28.4153 8.87738 28.3111 8.85133 28.1808C8.79923 28.0245 8.66898 28.0506 8.51268 28.0506C8.35637 28.0245 8.20007 27.8943 8.09587 27.764C8.06982 27.738 8.12192 27.6338 8.17402 27.5296C7.86142 27.243 7.57486 26.9304 7.28831 26.5917C7.21016 26.5917 7.15806 26.5917 7.15806 26.5657C7.132 26.5136 7.13201 26.4615 7.13201 26.3833C6.8715 26.0707 6.63705 25.7581 6.40259 25.4195C6.24629 25.4195 6.08999 25.3934 5.98579 25.2371C5.95974 25.159 5.93369 25.0808 5.90764 24.9766C5.88158 24.9766 5.82948 24.9766 5.80343 24.9506C5.82948 24.9245 5.85553 24.8985 5.88158 24.8724C5.85553 24.6901 5.77738 24.5859 5.59503 24.5338C5.30848 24.4817 5.17822 24.2733 5.12612 23.9867C5.10007 23.9867 5.04797 23.9867 5.02192 23.9867C4.96982 23.9867 4.89167 23.8564 4.86562 23.8304C4.86562 23.7001 4.83957 23.648 4.83957 23.5699C4.83957 23.5438 4.91772 23.4657 4.94377 23.4917C4.91772 23.4136 4.91772 23.3615 4.99587 23.2833C5.04797 23.2573 5.07402 23.2052 5.12612 23.1531C4.94377 22.7363 4.78747 22.3195 4.63116 21.8766C4.50091 21.9548 4.39671 21.9027 4.29251 21.7985C4.16226 21.9027 4.05806 22.0069 3.9278 22.085C3.8757 22.1111 3.7715 22.085 3.69335 22.085C3.69335 22.0069 3.69335 21.9027 3.74545 21.8506C3.9278 21.6422 4.05806 21.6161 4.29251 21.7724C4.37066 21.6943 4.44881 21.6422 4.52696 21.564C4.03201 20.2094 3.8236 18.8808 3.8236 17.5001C3.8236 16.6926 3.90175 15.9371 4.03201 15.1556C4.03201 15.1556 4.03201 15.1556 4.00595 15.1296C3.95385 15.0775 3.90175 14.9472 3.9278 14.8951C3.9799 14.843 4.03201 14.7909 4.08411 14.7388C4.37066 13.3321 4.86562 12.0035 5.54293 10.8052C5.28243 10.8573 5.17822 10.8052 5.12612 10.5707C5.07402 10.3363 5.10007 10.3102 5.41268 10.206C5.54293 10.18 5.62108 10.1539 5.67318 10.18C5.67318 10.1279 5.69923 10.1018 5.77738 10.1018C5.82948 10.1018 5.88159 10.1018 5.93369 10.1539C6.611 9.05981 7.47066 8.06989 8.40848 7.23628C8.22612 7.26233 8.04377 7.26233 7.88747 7.28838C7.83537 7.28838 7.78327 7.18418 7.70511 7.10603C7.75721 7.00183 7.78327 6.89762 7.83537 6.84552C7.86142 6.81947 7.99167 6.89762 8.06982 6.92367C8.12192 6.94972 8.17402 7.00183 8.22612 7.02788C8.25217 6.94972 8.27822 6.89762 8.27822 6.81947C8.33032 6.66317 8.53873 6.55897 8.74713 6.58502C8.87738 6.61107 8.90343 6.68922 8.92948 6.79342C9.03369 6.71527 9.11184 6.63712 9.21604 6.58502C9.21604 6.53292 9.26814 6.48082 9.32024 6.45477C9.39839 6.40267 9.50259 6.37662 9.58074 6.32451C9.8152 6.14216 10.0757 5.98586 10.3362 5.82956H10.3102C10.0236 5.88166 9.94545 5.82956 9.9194 5.56905C9.89335 5.41275 9.94545 5.3346 10.0757 5.30855C10.2581 5.25645 10.4404 5.2304 10.5967 5.1783C10.7009 5.15225 10.8312 5.15225 10.9093 5.10014C11.1438 4.96989 11.3261 5.07409 11.5085 5.20435C13.332 4.31863 15.3639 3.82367 17.5001 3.82367C18.0992 3.82367 18.6984 3.87578 19.2715 3.95393C19.506 3.84972 19.7404 3.79762 20.0009 3.82367C20.0009 3.79762 20.0009 3.79762 20.0009 3.77157C20.0009 3.74552 20.053 3.71947 20.1572 3.64132C20.1312 3.66737 20.1833 3.58922 20.2354 3.58922C20.2875 3.56317 20.3917 3.56317 20.4438 3.58922C20.4698 3.61527 20.4698 3.71947 20.4438 3.77157C20.4177 3.82367 20.3917 3.84972 20.3656 3.90183C20.3917 3.90183 20.4177 3.92788 20.4438 3.92788C20.4959 3.95393 20.548 4.05813 20.574 4.11023V4.13628C20.6782 4.16233 20.8085 4.18838 20.9127 4.21443C20.9127 4.21443 20.9127 4.21443 20.9127 4.18838C20.7303 3.87578 20.7564 3.79762 21.1211 3.66737C21.3295 3.58922 21.616 3.61527 21.7202 3.35477C21.6942 3.35477 21.7984 3.35477 21.9026 3.30267C21.8765 3.30267 21.8505 3.27662 21.8244 3.27662C21.7463 3.22451 21.6681 3.12031 21.59 3.04216C21.5379 2.99006 21.5118 2.93796 21.4597 2.88586V2.91191C21.4597 2.96401 21.4337 3.01611 21.4076 3.04216C21.3555 3.04216 21.2774 3.04216 21.2774 3.04216C21.2253 2.91191 21.1992 2.75561 21.1732 2.5993C21.1732 2.57325 21.2774 2.52115 21.2774 2.52115C21.3295 2.57325 21.3816 2.62535 21.4076 2.67746C21.4076 2.65141 21.4076 2.62535 21.4337 2.62535C21.4597 2.5993 21.59 2.57325 21.616 2.5993C21.7723 2.75561 21.9286 2.91191 22.0849 3.06821C22.111 3.12031 22.111 3.25056 22.0589 3.27662C22.0589 3.27662 22.0328 3.30267 22.0068 3.30267C22.1891 3.35477 22.3715 3.38082 22.5539 3.48502C22.6581 3.53712 22.6581 3.69342 22.606 3.84972C22.632 3.84972 22.6581 3.84972 22.7102 3.87578C22.8144 3.90183 22.9967 3.87578 23.0488 3.92788C23.1009 4.00603 23.0488 4.16233 23.0228 4.26653C22.9967 4.37073 22.9967 4.47493 22.9707 4.57914C22.8665 4.60519 22.7883 4.63124 22.7102 4.65729C22.6841 4.60519 22.6841 4.52704 22.6581 4.44888C22.632 4.29258 22.5799 4.16233 22.3715 4.24048C22.3194 4.26653 22.2673 4.24048 22.1891 4.21443C22.137 4.26653 22.137 4.37073 22.1631 4.55309C22.1631 4.57914 22.1631 4.63124 22.137 4.65729C22.5539 4.81359 22.9446 4.96989 23.3614 5.1783C23.3875 5.1783 23.4135 5.1783 23.4135 5.1783C23.4917 5.1783 23.5698 5.2304 23.6219 5.20435C23.7782 5.1262 23.8824 5.2304 23.9606 5.3346C24.0127 5.41275 24.0648 5.46485 24.1169 5.543C24.169 5.51695 24.2471 5.51695 24.2992 5.4909C24.4816 5.4388 24.6639 5.41275 24.8202 5.36065C25.0026 5.30855 25.1589 5.2304 25.3152 5.46485C25.3673 5.51695 25.5497 5.46485 25.6799 5.46485C25.706 5.46485 25.732 5.4909 25.7581 5.4909C25.9665 5.3867 26.0446 5.4388 26.0707 5.67325C26.0967 5.82956 26.1228 5.95981 26.1488 6.11611C26.1488 6.19426 26.1749 6.27241 26.1228 6.32451C25.9925 6.63712 25.8623 6.66317 25.6018 6.40267C25.5757 6.37662 25.5236 6.32451 25.4975 6.29846C25.4454 6.24636 25.3933 6.16821 25.3412 6.09006C25.2631 6.01191 25.2631 5.93376 25.3152 5.85561C25.1328 5.90771 24.9765 5.98586 24.8202 6.03796C25.2891 6.35057 25.732 6.66317 26.1749 7.02788C26.1228 6.94972 26.0967 6.81947 26.1228 6.79342C26.227 6.68922 26.3833 6.53292 26.5135 6.53292C26.748 6.53292 27.0085 6.58502 27.1908 6.79342C27.295 6.89762 27.3211 7.00183 27.2169 7.10603C27.1648 7.15813 27.1387 7.18418 27.0866 7.23628C26.9824 7.34048 26.9043 7.44468 27.0345 7.57493C27.1387 7.67914 27.2169 7.86149 27.4253 7.73124C27.5034 7.67914 27.5816 7.65309 27.6597 7.62704C27.79 7.60099 27.8681 7.62704 27.8421 7.75729C27.8421 7.80939 27.816 7.88754 27.8421 7.93964C27.8681 8.14804 27.79 8.3304 27.6337 8.3825C27.7639 8.5388 27.9202 8.6951 28.0505 8.85141C28.0765 8.82536 28.1286 8.77325 28.2068 8.7472C28.2328 8.72115 28.2849 8.72115 28.311 8.72115C28.4933 8.72115 28.9102 9.26821 28.8581 9.45057C28.832 9.55477 28.7799 9.68502 28.7278 9.78922C28.832 9.91947 28.9102 10.0758 28.9883 10.206C29.0404 10.0758 29.1186 9.99762 29.2488 9.97157C29.353 9.97157 29.4572 10.0497 29.5354 10.1279C29.6917 10.2581 29.5875 10.3884 29.4833 10.5186C29.4572 10.5447 29.4051 10.5968 29.3791 10.6228C29.353 10.6489 29.327 10.6749 29.2749 10.6749C29.8219 11.6388 30.2648 12.6548 30.5774 13.7228C30.6295 13.7489 30.6816 13.7749 30.7337 13.801C30.7858 13.827 30.8639 13.7749 30.916 13.801C30.9942 13.827 31.0984 13.827 31.1505 13.8791C31.2026 13.9573 31.2807 14.0354 31.3328 14.1136C31.3589 14.0875 31.3849 14.0875 31.3849 14.0875C31.6455 14.0354 31.7757 14.1136 31.8278 14.322C31.8539 14.4262 31.8278 14.5304 31.7497 14.6085C31.8799 14.7649 32.0362 14.9212 32.1665 15.1035C32.2186 15.1817 32.2707 15.2598 32.2967 15.338C32.3228 15.3901 32.3228 15.4943 32.2967 15.5464C32.2707 15.5724 32.1925 15.5724 32.1404 15.5724C31.7757 15.5724 31.4891 15.4422 31.3849 15.1817C31.2807 15.0514 31.2026 14.9733 31.1505 14.8951C31.0463 14.7909 30.9942 14.6867 31.0723 14.5304C31.1505 14.4001 31.0723 14.2699 30.9421 14.322C30.89 14.348 30.8379 14.348 30.7858 14.348C30.9421 14.9993 31.0463 15.6506 31.0984 16.3279C31.1244 16.3279 31.1765 16.3539 31.2026 16.406C31.3328 16.5884 31.4631 16.7447 31.5673 16.9531C31.5673 16.8489 31.5673 16.7186 31.6194 16.6405C31.6715 16.5623 31.7236 16.4581 31.7497 16.38C31.8018 16.2237 31.9581 16.1716 32.0362 16.3018C32.1404 16.5363 32.2967 16.4581 32.453 16.4321C32.4791 16.4321 32.5051 16.4321 32.5051 16.406C32.4791 16.38 32.4791 16.3539 32.4791 16.3539C32.4791 16.3279 32.5572 16.2497 32.5833 16.2497C32.6875 16.2758 32.7917 16.2497 32.8959 16.2497C32.8438 15.6506 32.7656 15.0514 32.6354 14.4522C32.5833 14.4001 32.4791 14.348 32.4791 14.2959C32.4791 14.1917 32.5051 14.0615 32.5312 13.9573C31.6715 10.3884 29.5875 7.28838 26.748 5.15225C26.8261 5.3867 26.8522 5.543 26.5396 5.56905C26.4614 5.56905 26.3833 5.5951 26.3312 5.5951C26.2009 5.56905 26.1749 5.4909 26.227 5.3867C26.2791 5.2825 26.3572 5.15225 26.4354 5.04804C26.4614 4.99594 26.5135 4.96989 26.5656 4.96989C25.6799 4.29258 24.716 3.74552 23.7001 3.30267C23.6219 3.48502 23.4656 3.56317 23.153 3.58922C22.8925 3.61527 22.8144 3.56317 22.8404 3.30267C22.8404 3.19846 22.8925 3.06821 22.9707 3.04216C22.9967 3.04216 22.9967 3.01611 23.0228 3.01611C22.8144 2.93796 22.632 2.85981 22.4236 2.80771C22.3976 2.80771 22.3976 2.80771 22.3715 2.83376C22.2412 2.88586 22.111 2.88586 22.0589 2.70351C21.7202 2.5993 21.3555 2.4951 21.0169 2.41695C21.0169 2.443 21.0169 2.443 21.0169 2.46905C21.0169 2.46905 20.9127 2.5472 20.8866 2.5472C20.8085 2.4951 20.7564 2.41695 20.6782 2.36485C19.6362 2.15645 18.5942 2.0262 17.5001 2.0262C15.8328 2.00014 14.2438 2.26065 12.7589 2.75561C12.811 2.78166 12.8631 2.83376 12.9152 2.91191C13.0715 3.09426 13.0455 3.14636 12.837 3.32872C12.6286 3.51107 12.5505 3.51107 12.3421 3.27662C12.1858 3.09426 12.1597 3.01611 12.316 2.88586C10.1018 3.66737 8.12192 4.94384 6.50679 6.55897C6.5589 6.58502 6.58495 6.61107 6.58495 6.61107ZM24.5597 30.6817C24.6379 30.7598 24.716 30.838 24.7681 30.9161C24.8202 31.0203 24.8463 31.1506 24.69 31.1766C24.6118 31.2027 24.5337 31.0985 24.4034 31.0464C24.4816 30.9161 24.5076 30.7859 24.5597 30.6817ZM21.8765 31.6195C22.0328 31.5674 22.1891 31.5934 22.3715 31.5674C22.3715 31.6195 22.3976 31.6716 22.3715 31.7237C22.3194 31.8018 22.2412 31.88 22.1631 31.9581C22.111 32.0102 22.0589 32.0623 22.0068 32.1144C21.9547 32.0623 21.8765 31.9842 21.7984 31.906C21.8244 31.8018 21.8244 31.6195 21.8765 31.6195ZM18.6723 31.9321C18.7765 31.8539 19.3236 31.88 19.3497 31.9842C19.3497 32.0884 19.3757 32.1926 19.3497 32.2707C19.532 32.2186 19.6883 32.1665 19.8707 32.1405C20.027 32.0884 20.1051 32.1926 20.1572 32.3489C20.1833 32.5052 20.2093 32.6354 20.027 32.7136C19.9488 32.7396 19.8967 32.7657 19.7925 32.7917C19.6102 32.7917 19.4018 32.8699 19.2454 32.6615C19.2454 32.6354 19.2194 32.6354 19.1933 32.6354C19.0891 32.6615 18.9328 32.6615 18.8286 32.6615C18.7244 32.6615 18.6463 32.5312 18.6202 32.5052C18.3858 32.1926 18.4118 32.1144 18.6723 31.9321ZM13.9833 31.6455C13.9833 31.4632 14.1656 31.3069 14.348 31.385C14.374 31.385 14.4001 31.5153 14.374 31.5413C14.2438 31.8018 14.2438 31.7758 14.4782 31.9581C14.6866 32.1144 14.8429 32.1405 15.0774 32.0363C15.2337 31.9581 15.4421 31.9321 15.6244 32.1144C15.6505 32.1665 15.7547 32.1665 15.8068 32.1665C15.8328 32.1144 15.8589 32.0363 15.8589 31.9842C15.8849 31.6195 15.937 31.5674 16.1715 31.4892C16.5102 31.4111 16.8488 31.6976 16.7967 32.0363C16.7707 32.1926 16.6925 32.2447 16.5883 32.2707C16.3278 32.3489 16.0673 32.401 15.8068 32.4791C15.6244 32.5312 15.4421 32.5833 15.2337 32.6094C15.0513 32.6615 14.8429 32.7657 14.6866 32.5312C14.6606 32.5052 14.5564 32.5052 14.4782 32.5312C14.348 32.5573 14.2438 32.5833 14.1135 32.5833C14.0354 32.5833 13.9312 32.5573 13.853 32.5312C13.8791 32.4531 13.9312 32.3749 13.9572 32.2968C13.9833 32.2186 13.9833 32.1405 13.9833 32.0623C14.0093 31.9321 13.9833 31.8018 13.9833 31.6455ZM13.6967 31.2808C13.7228 31.2548 13.7749 31.2808 13.9051 31.2808C13.8791 31.3329 13.853 31.4111 13.827 31.4111C13.7749 31.4371 13.7228 31.4111 13.6707 31.385C13.6707 31.385 13.6967 31.3069 13.6967 31.2808ZM11.4043 30.6817C11.4303 30.6556 11.4824 30.6296 11.5345 30.6035C11.6648 30.5514 11.769 30.6556 11.7169 30.7338C11.6127 30.9682 11.7169 31.0724 11.8471 31.2287C11.9253 31.3329 12.0034 31.4371 11.8471 31.5413C11.6908 31.6195 11.6387 31.5153 11.5606 31.4111C11.5085 31.3069 11.4303 31.2287 11.3522 31.1506C11.1438 30.9422 11.1438 30.8901 11.4043 30.6817ZM10.0757 29.327C10.1799 29.3791 10.2841 29.3791 10.2841 29.4052C10.3102 29.4573 10.2581 29.5354 10.232 29.5875C10.206 29.6136 10.1018 29.5875 10.0757 29.5615C10.0497 29.5094 10.0757 29.4312 10.0757 29.327ZM6.32444 25.7842C6.35049 25.7842 6.45469 25.8363 6.45469 25.8623C6.45469 25.9144 6.40259 25.9926 6.37654 26.0186C6.35049 26.0447 6.27234 25.9926 6.19419 25.9665C6.24629 25.8623 6.27234 25.8102 6.32444 25.7842ZM5.80343 26.6959C5.80343 26.6438 5.82948 26.5917 5.88158 26.5917C5.90764 26.5917 5.95974 26.6178 5.98579 26.6438C6.01184 26.6699 6.03789 26.722 6.03789 26.7741C6.03789 26.8783 6.01184 26.9564 6.01184 27.0606C5.93369 26.9825 5.88158 26.9304 5.85553 26.8783C5.82948 26.7741 5.80343 26.722 5.80343 26.6959ZM3.95385 22.6581C4.00595 22.6321 4.11016 22.6581 4.18831 22.6581C4.18831 22.7363 4.21436 22.8405 4.16226 22.8926C4.13621 22.9447 4.03201 22.9186 3.8757 22.9447C3.9278 22.7884 3.9278 22.6842 3.95385 22.6581ZM3.25049 21.2775C3.12024 21.3296 3.04209 21.3817 2.93789 21.4338C2.88579 21.4598 2.78159 21.4338 2.78159 21.4338C2.75553 21.2514 2.67738 21.043 2.72948 20.8867C2.75553 20.7304 2.91184 20.7043 3.06814 20.8085L3.09419 20.8346C3.19839 20.8867 3.4068 20.7043 3.43285 20.9128C3.43285 20.9909 3.30259 21.1472 3.25049 21.2775ZM3.43285 13.9833C3.4068 13.9573 3.43285 13.8531 3.43285 13.7749C3.511 13.7749 3.58915 13.801 3.69335 13.801C3.7194 13.9312 3.74545 14.0094 3.74545 14.1136C3.64125 14.0615 3.511 14.0354 3.43285 13.9833ZM4.31856 13.0455C4.18831 13.0716 4.03201 13.1237 3.90175 13.1497V13.1237C3.79755 13.1497 3.7194 13.1758 3.6152 13.2018C3.35469 13.2539 3.27654 13.2018 3.22444 12.9153C3.19839 12.785 3.22444 12.7069 3.35469 12.6548C3.64125 12.5766 3.9278 12.5245 4.21436 12.4464C4.42276 12.3943 4.44881 12.5766 4.47486 12.7069C4.50091 12.8632 4.50091 12.9934 4.31856 13.0455ZM30.2127 10.4144C30.2648 10.4144 30.369 10.4665 30.395 10.5447C30.4992 10.6749 30.5513 10.8312 30.6816 10.9354C31.0202 11.1699 30.8379 11.4825 30.8639 11.7691C30.8639 11.8212 30.7858 11.8733 30.7337 11.9254C30.8379 12.0035 30.916 12.1077 31.0723 12.0296C31.1505 12.0035 31.3068 12.0556 31.3589 12.1077C31.4891 12.238 31.5673 12.4203 31.6715 12.5766C31.7757 12.759 31.6194 12.8371 31.5152 12.9413C31.411 13.0455 31.3068 13.0455 31.2026 12.9413C31.0202 12.7329 30.8639 12.5506 30.6816 12.3422C30.5253 12.1598 30.5513 12.0296 30.7337 11.9254C30.6555 11.8733 30.5513 11.7691 30.4992 11.7951C30.2648 11.8993 30.1866 11.743 30.0824 11.6128C30.0043 11.5346 29.9522 11.4304 29.874 11.3522C29.6135 11.0136 29.7959 10.4926 30.2127 10.4144ZM27.5555 6.45477C27.7379 6.29846 27.816 6.48082 27.9723 6.61107C27.9723 6.68922 27.9984 6.81947 27.9463 6.87157C27.79 7.02788 27.6858 6.87157 27.5816 6.76737C27.5034 6.68922 27.4253 6.55897 27.5555 6.45477ZM24.716 4.73544C24.8984 4.57914 24.9765 4.60519 25.211 4.83964C25.3152 4.94384 25.3673 5.07409 25.211 5.1783C25.0026 5.3346 24.8463 5.3346 24.69 5.15225C24.5076 4.96989 24.5076 4.89174 24.716 4.73544ZM24.3774 3.92788C24.4295 4.00603 24.4034 4.08418 24.4034 4.16233C24.3253 4.16233 24.2471 4.18838 24.2211 4.13628C24.169 4.08418 24.169 4.00603 24.1429 3.87578C24.2732 3.90183 24.3513 3.90183 24.3774 3.92788ZM23.3875 4.83964C23.4396 4.83964 23.4917 4.89174 23.5438 4.91779C23.5177 4.96989 23.4917 5.04804 23.4656 5.07409C23.4135 5.10015 23.3614 5.04804 23.2572 5.02199C23.3093 4.94384 23.3614 4.83964 23.3875 4.83964ZM20.2354 3.04216V3.06821C20.2093 3.14636 20.2093 3.22451 20.1833 3.30267C20.1572 3.30267 20.1051 3.30267 20.1051 3.27662C20.027 3.12031 20.1312 3.09426 20.2354 3.04216ZM18.5681 2.5472C18.7244 2.52115 18.8547 2.4951 19.011 2.46905C19.037 2.46905 19.0631 2.46905 19.1152 2.4951C19.1412 2.46905 19.1673 2.46905 19.1933 2.443C19.1933 2.443 19.1933 2.41695 19.2194 2.41695C19.2976 2.443 19.4018 2.443 19.4278 2.4951C19.506 2.57325 19.4539 3.06821 19.3757 3.06821C19.2976 3.09426 19.1933 3.04216 19.1673 3.04216C19.037 2.88586 18.9849 2.78166 18.9849 2.67746C18.9328 2.70351 18.8547 2.75561 18.7765 2.78166C18.7244 2.80771 18.6723 2.83376 18.6463 2.88586C18.5942 2.96401 18.5421 3.01611 18.516 3.09426C18.4639 3.04216 18.4118 2.93796 18.3858 2.91191C18.3076 2.5993 18.3076 2.57325 18.5681 2.5472ZM16.7707 2.99006C16.8228 2.96401 16.8749 2.93796 16.9009 2.93796C16.9791 2.96401 17.0572 3.01611 17.1354 3.04216C17.1093 3.12031 17.0572 3.17241 17.0312 3.25056C17.0051 3.27662 16.953 3.27662 16.8228 3.32872C16.7707 3.30267 16.6404 3.27662 16.5883 3.22451C16.5102 3.09426 16.6665 3.04216 16.7707 2.99006ZM12.9673 4.00603C13.0715 3.92788 13.1236 3.87578 13.1757 3.87578C13.2278 3.87578 13.306 3.87578 13.332 3.90183C13.3581 3.92788 13.3581 4.00603 13.332 4.05813C13.306 4.11023 13.2539 4.16233 13.2018 4.18838C13.1236 4.24048 13.0194 4.37073 12.9412 4.24048C12.8891 4.18838 12.9412 4.05813 12.9673 4.00603ZM9.8152 4.26653C9.94545 4.21443 10.2581 4.47493 10.232 4.60519C10.206 4.65729 10.1278 4.76149 10.1018 4.76149C10.0236 4.76149 9.94545 4.70939 9.89335 4.68334C9.8152 4.57914 9.7631 4.52704 9.7631 4.44888C9.711 4.37073 9.7631 4.29258 9.8152 4.26653ZM8.92948 5.62115C9.18999 5.56905 9.24209 5.5951 9.29419 5.80351C9.34629 6.03796 9.32024 6.09006 9.08579 6.14216C8.85133 6.19426 8.79923 6.16821 8.74713 5.95981C8.66898 5.72536 8.69503 5.67325 8.92948 5.62115Z" fill="#171026"/>
<path d="M29.1967 27.66C29.1706 27.66 29.1446 27.66 29.0925 27.66C28.9101 27.686 28.832 27.6339 28.9101 27.4255C28.9362 27.3474 28.9101 27.2692 28.9101 27.1911C28.9101 27.139 28.9101 27.0869 28.9362 27.0087C29.0143 27.0087 29.0404 26.9827 29.0925 26.9827C29.1967 26.9827 29.3009 27.0087 29.4051 27.0348C29.5354 27.0348 29.6135 27.1129 29.5614 27.2171C29.874 26.8263 30.1866 26.4095 30.4732 25.9667C30.3429 26.0188 30.2127 25.9927 30.0564 25.9146C29.9782 25.8625 29.848 25.8104 29.7698 25.8104C29.5614 25.8104 29.4572 25.7062 29.4051 25.5238C29.379 25.4457 29.4051 25.3154 29.4312 25.2894C29.5093 25.2633 29.6396 25.2373 29.6917 25.2894C29.848 25.4717 29.9522 25.4978 30.0303 25.2373C30.0824 25.081 30.6295 24.8986 30.7858 24.9768C30.8379 25.0028 30.89 25.107 30.9681 25.2112C30.9681 25.2112 30.9681 25.2112 30.9681 25.2373C31.2807 24.6902 31.5673 24.1171 31.8278 23.544C32.0883 22.9448 32.2967 22.3196 32.4791 21.6944C32.4269 21.6944 32.3748 21.6944 32.3227 21.6944C32.2446 21.6944 32.1664 21.7205 32.1143 21.7205C32.0622 21.7205 32.0101 21.6684 31.958 21.6423C31.9841 21.6163 31.9841 21.5381 32.0362 21.5381C32.2185 21.46 32.4009 21.3818 32.5833 21.3037C32.7135 20.8087 32.8177 20.2877 32.8959 19.7927C32.8698 19.7667 32.8177 19.7406 32.7917 19.7146C32.6875 19.6104 32.6614 19.402 32.6354 19.2457C32.6354 19.1936 32.7656 19.1154 32.8698 19.0633C32.8959 19.0373 32.948 19.0373 32.974 19.0373C33.0001 18.8028 33.0261 18.5684 33.0261 18.36C32.9219 18.1776 32.6354 18.2818 32.5572 18.0474C32.5572 18.0213 32.4269 17.9953 32.3748 17.9953C32.2967 17.9953 32.2185 18.0213 32.1664 18.0213C32.0362 18.0474 31.932 18.0213 31.9059 17.8911C31.8799 17.7608 31.9841 17.7087 32.0883 17.6827C32.1143 17.6827 32.1404 17.6827 32.1664 17.6566C32.1664 17.6566 32.1664 17.6566 32.1664 17.6827C32.4791 17.6045 32.7656 17.5263 33.0782 17.4482C33.0782 17.2398 33.0782 17.0314 33.0522 16.823C32.974 16.823 32.8959 16.7709 32.8177 16.6667C32.7396 16.5364 32.4009 16.6927 32.3488 16.849C32.2706 17.0314 31.9841 17.1877 31.8017 17.1356C31.7236 17.1095 31.6715 17.0053 31.6715 16.9011C31.6454 16.9272 31.5152 17.0574 31.4891 17.0314C31.411 16.9793 31.3068 16.9793 31.2286 17.0053C31.2286 17.1616 31.2286 17.3179 31.2286 17.5003C31.2286 17.7087 31.2286 17.9432 31.2026 18.1516C31.2547 18.1776 31.2807 18.2297 31.3068 18.2558C31.3328 18.2818 31.3068 18.4121 31.2807 18.4381C31.2547 18.4642 31.2026 18.4902 31.1505 18.5163C31.1244 18.7768 31.0984 19.0373 31.0723 19.2978C31.1244 19.2717 31.2286 19.2457 31.2286 19.2717C31.3068 19.402 31.411 19.428 31.5673 19.4541C31.7757 19.4801 31.8538 19.8188 31.6975 19.9751C31.4631 20.2095 31.4631 20.2356 31.7496 20.3658C31.8017 20.3919 31.8538 20.444 31.8538 20.4961C31.8538 20.5482 31.8017 20.6263 31.7757 20.6263C31.6194 20.6784 31.437 20.8087 31.2807 20.6003C31.2286 20.5482 31.0984 20.5482 30.9942 20.5482C30.9421 20.5482 30.89 20.5742 30.8639 20.5742C30.6295 21.6163 30.2648 22.6062 29.8219 23.5179C29.848 23.5179 29.874 23.5179 29.9261 23.5179C30.1085 23.544 30.369 23.4137 30.4471 23.6742C30.6555 23.9087 30.6555 23.9348 30.4732 24.1171C30.2648 24.2995 30.0824 24.4558 29.874 24.6121C29.8219 24.6381 29.7177 24.6381 29.6396 24.6381C29.6396 24.6121 29.6396 24.586 29.6396 24.586C29.5875 24.6121 29.5093 24.6381 29.4051 24.6642C29.379 24.6642 29.3269 24.6381 29.2748 24.6121C28.9883 25.081 28.6757 25.5499 28.337 25.9667C28.337 25.9927 28.3631 26.0188 28.3631 26.0709C28.4152 26.0969 28.4673 26.149 28.5454 26.2532C28.6236 26.3574 28.7799 26.4616 28.5975 26.6179C28.5454 26.67 28.4933 26.6961 28.4152 26.7221C28.3631 26.8524 28.2589 26.9305 28.0244 27.0087C27.8942 27.0348 27.79 27.0608 27.6597 27.0869C27.5295 27.1129 27.3732 27.139 27.3471 27.3474C27.3211 27.4776 27.2169 27.5037 27.1127 27.4255C27.0866 27.4255 27.0866 27.3995 27.0606 27.3995C26.253 28.181 25.3412 28.8843 24.3513 29.4574C24.3774 29.4574 24.4034 29.4574 24.4295 29.4314C24.69 29.4053 24.9765 29.2751 25.211 29.5356C25.3152 29.6398 25.6017 29.5095 25.6278 29.3272C25.6538 29.1448 25.758 29.0667 25.9143 29.0406C26.4614 28.9625 27.0085 28.8843 27.5555 28.6499C27.8681 28.5196 28.0505 28.6499 28.1286 28.9364C28.4412 28.4936 28.832 28.0768 29.1967 27.66ZM32.0883 19.0633C32.0883 19.0373 32.1404 19.0112 32.1664 18.9852C32.2185 18.9591 32.2706 18.907 32.3227 18.881C32.3488 18.8549 32.4009 18.881 32.453 18.881C32.453 18.9331 32.453 18.9852 32.4269 19.0112C32.3748 19.0894 32.3488 19.1675 32.2706 19.2196C32.2185 19.2457 32.1143 19.2457 32.0622 19.2457C32.0622 19.1936 32.0622 19.1415 32.0883 19.0633ZM32.0883 19.3238C32.1404 19.3759 32.1664 19.402 32.1925 19.428C32.1925 19.4541 32.1664 19.4801 32.1404 19.5062C32.1143 19.4801 32.0622 19.4541 32.0362 19.428C32.0101 19.428 32.0622 19.3759 32.0883 19.3238ZM31.7757 17.3961C31.7496 17.3961 31.7757 17.344 31.7757 17.2658C31.8278 17.2919 31.8799 17.2919 31.9059 17.3179C31.932 17.3179 31.9059 17.3961 31.9059 17.3961C31.8538 17.3961 31.8017 17.3961 31.7757 17.3961ZM31.411 21.6423C31.437 21.6163 31.5673 21.6944 31.5673 21.7465C31.5673 21.7986 31.5412 21.9028 31.4891 21.9549C31.437 21.981 31.3589 21.9028 31.2286 21.8768C31.3328 21.7465 31.3589 21.6684 31.411 21.6423ZM28.5194 25.6801C28.5194 25.628 28.5454 25.5499 28.5975 25.5238C28.6236 25.4978 28.7017 25.5238 28.7538 25.5499C28.858 25.602 28.9362 25.6541 29.0143 25.7062C29.1446 25.7843 29.3009 26.1751 29.1706 26.2793C29.0143 26.4095 29.0404 26.5658 29.0404 26.7221C29.0404 26.8003 28.9883 26.8784 28.9622 26.9305C28.9101 26.8784 28.8059 26.8263 28.7799 26.7482C28.7017 26.5658 28.6757 26.3835 28.6236 26.1751C28.5975 26.0448 28.5454 25.8625 28.5194 25.6801ZM27.4253 28.3112C27.3471 28.3112 27.269 28.207 27.1908 28.1549C27.2429 27.9986 27.0866 27.7902 27.295 27.7381C27.4774 27.7121 27.4774 27.9465 27.5295 28.0507C27.5816 28.181 27.5816 28.3112 27.4253 28.3112Z" fill="#171026"/>
<path d="M5.43865 19.4278C5.54286 19.5059 5.56891 19.6101 5.49075 19.7664C5.49075 19.7664 5.49076 19.7925 5.4647 19.8185C5.72521 21.1471 6.19412 22.3975 6.84538 23.5437C6.92353 23.6219 6.97563 23.7 7.05378 23.7782C7.10588 23.8303 7.15798 23.9084 7.13193 23.9345C7.10588 23.9605 7.10588 23.9866 7.10588 24.0126C7.44454 24.5597 7.83529 25.0807 8.2521 25.5496C8.3563 25.4975 8.43445 25.4454 8.5647 25.5757C8.69496 25.732 8.79916 25.8622 8.92941 26.0185C9.00756 26.1227 9.08571 26.2009 9.16386 26.3051C9.24202 26.4093 9.34622 26.5135 9.32017 26.6437C9.42437 26.7479 9.55462 26.8521 9.65882 26.9303C9.71092 26.9303 9.73697 26.9563 9.73697 27.0084C11.7429 28.6236 14.2437 29.6395 16.979 29.7437C16.9529 29.6916 16.9269 29.6395 16.9269 29.5874C16.9008 29.5353 16.9269 29.4572 16.9269 29.379C16.979 29.379 17.0311 29.4051 17.1092 29.4051H17.1353C17.0571 29.3009 16.979 29.1967 16.9008 29.0925C17.1613 29.0143 17.2395 28.8841 17.1874 28.6236C17.1613 28.4673 17.1092 28.2849 17.0832 28.1286C17.0571 27.9984 16.979 27.9463 16.8227 27.9723C16.6143 28.0244 16.4059 28.1026 16.1975 28.1547C16.0672 27.9984 15.963 27.8421 15.8328 27.6858C15.8849 27.6337 15.963 27.5816 16.0151 27.5034C15.8849 27.4253 15.7546 27.295 15.5983 27.295C15.5723 27.295 15.5723 27.295 15.5462 27.295C14.9992 26.5395 14.5042 25.8101 14.1134 25.1589C14.1395 25.1328 14.1395 25.0547 14.1655 25.0286C14.1134 25.0026 14.0613 24.9505 14.0092 24.9765C14.0092 24.9765 14.0092 24.9765 13.9832 24.9765C13.7227 24.5337 13.5143 24.1429 13.358 23.8042C13.358 23.7782 13.3319 23.7521 13.3319 23.7261C13.384 23.7 13.4622 23.6479 13.4622 23.6219C13.4622 23.5437 13.4882 23.5177 13.5143 23.4656C13.5143 23.4916 13.5143 23.4916 13.5143 23.5177C13.5143 23.5698 13.6706 23.5698 13.7748 23.6219C13.8269 23.5177 13.879 23.4656 13.879 23.3874C13.879 23.3874 13.8529 23.3614 13.8269 23.3353C13.9571 23.2832 14.0874 23.2572 14.2176 23.2311C14.426 23.179 14.6345 23.0227 14.8168 23.2832C14.8168 23.2832 14.8689 23.3093 14.8689 23.2832C15.1034 23.179 15.4681 23.2832 15.5723 22.9185C15.5723 22.8925 15.6504 22.8404 15.6765 22.8143C15.9109 22.7362 16.1454 22.658 16.3798 22.6059C16.484 22.5799 16.6143 22.658 16.7445 22.7101C16.7706 22.5538 16.8487 22.4496 17.005 22.3975C17.0311 22.3715 17.0571 22.3454 17.1092 22.3194C17.2655 22.4236 17.4218 22.5278 17.5781 22.632C17.6302 22.658 17.7084 22.6841 17.7345 22.658C17.7605 22.632 17.7866 22.5538 17.7866 22.5017C17.7605 22.3454 17.7345 22.2152 17.6824 22.0849C17.6824 22.0589 17.6824 22.0328 17.6563 22.0068C17.6824 22.0328 17.7084 22.0328 17.7345 22.0589C17.8387 22.1631 17.9168 22.1631 18.021 22.137C18.1513 22.111 18.2555 22.0849 18.3597 22.1891C18.4639 22.2933 18.8286 22.1891 18.8546 22.0589C18.8807 21.8505 19.037 21.8505 19.1672 21.7984C19.2714 21.7463 19.3756 21.6942 19.4538 21.616C19.4798 21.59 19.5059 21.4858 19.4798 21.4597C19.3496 21.3034 19.037 21.2253 18.8546 21.3034C18.6723 21.3816 18.516 21.4337 18.2815 21.5118C18.2815 21.5118 18.2815 21.5118 18.2555 21.5118C18.2555 21.5118 18.2555 21.5379 18.2294 21.5379C18.2294 21.5379 18.2294 21.5379 18.2034 21.5379C18.021 21.59 17.8126 21.6421 17.5781 21.7202C17.526 21.5379 17.5 21.4337 17.3958 21.4337C17.5 21.3816 17.5 21.3555 17.4739 21.2513C17.4479 21.1992 17.4479 21.1211 17.4218 21.069C17.4218 21.0169 17.3958 20.9387 17.3958 20.8866C17.3958 20.8084 17.3697 20.7303 17.3437 20.6521H17.3697C17.3437 20.5479 17.3176 20.4437 17.2916 20.3395C17.2655 20.1832 17.1874 20.1311 17.0311 20.1572C16.7445 20.2093 16.5622 20.5479 16.5882 20.8345C16.6143 21.0429 16.7966 21.0429 16.9008 21.1471C16.9008 21.1992 16.9269 21.2774 16.9529 21.3295C16.979 21.4076 17.0311 21.4858 17.0832 21.5118C16.979 21.5379 16.9008 21.5639 16.8227 21.6421C16.7706 21.6942 16.7706 21.8505 16.7966 21.9807C16.3538 22.0849 15.9109 22.2152 15.4681 22.3194C15.3378 22.3454 15.2336 22.4236 15.1294 22.4496C14.8168 22.5278 14.4521 22.5799 14.1655 22.7101C13.9571 22.7883 13.6445 22.8143 13.5403 23.1009C13.5403 23.1269 13.4101 23.153 13.384 23.1269C13.2538 23.0227 13.1496 23.0748 13.0454 23.1009C12.9672 22.9185 12.8891 22.7622 12.8109 22.5538L12.837 22.5278C12.8891 22.4757 12.8891 22.3715 12.863 22.2933C12.837 22.137 12.7849 22.0068 12.7328 21.8765C12.6807 21.7202 12.6546 21.5379 12.5765 21.4076C12.5504 21.3555 12.4723 21.3295 12.4202 21.3034C12.3941 21.3034 12.3681 21.3555 12.342 21.4076C12.2378 21.0169 12.1336 20.6261 12.1076 20.2353C12.1336 20.2093 12.1597 20.1832 12.1597 20.1311C12.1336 20.1311 12.1076 20.1051 12.0815 20.1051C12.0555 19.7664 12.0815 19.4278 12.1336 19.1152C12.1336 19.0891 12.1336 19.0891 12.1336 19.0631C12.342 18.0732 12.6286 17.4219 13.1496 16.7446C13.2277 16.6404 13.3319 16.5362 13.4622 16.432C13.8269 16.0933 14.1916 15.7286 14.0874 15.0253C13.7748 13.0454 12.8109 12.7328 11.4042 12.2639C11.1176 12.1597 10.8311 12.0816 10.5185 11.9513C10.5966 11.9253 10.6487 11.8992 10.7269 11.8992C10.805 11.8732 10.8832 11.8471 10.9613 11.8211C11.0655 11.795 11.1697 11.7429 11.1176 11.6127C11.0655 11.4824 11.1176 11.3 10.8832 11.3C10.779 11.3 10.6748 11.1698 10.5966 11.1698C10.5185 11.1958 10.4924 11.3261 10.4143 11.4042C10.3882 11.4303 10.3101 11.4563 10.258 11.4563C10.1538 11.5084 10.0235 11.5345 9.99748 11.6908C9.99748 11.6908 9.99748 11.6908 9.99748 11.7169C9.94538 11.6908 9.89328 11.6648 9.84117 11.6387C9.45042 11.4303 9.03361 11.2219 8.64286 11.2219C8.59075 11.2219 8.5126 11.2219 8.4605 11.2479H8.43445C8.38235 11.2479 8.33025 11.2219 8.3042 11.1698C8.27815 11.1177 8.27815 11.0395 8.3563 10.9353C8.77311 10.3622 9.91933 9.97147 10.7529 9.94542C10.7529 9.94542 10.7529 9.94542 10.7529 9.97147C10.7529 10.0236 10.7529 10.1017 10.7529 10.1538C10.8571 10.1278 10.9874 10.1278 11.0916 10.1017C11.1176 10.0757 11.1437 9.99752 11.1437 9.91937C11.4042 9.89332 11.7689 9.84122 12.1857 9.76307C13.4361 9.58072 15.3118 9.29416 16.9529 9.29416C17.2395 9.29416 17.4739 9.29416 17.7084 9.32021C17.6042 9.37231 17.6302 9.47652 17.6824 9.63282C17.7084 9.65887 17.7866 9.76307 17.8387 9.73702C18.021 9.68492 17.9168 9.50257 17.9168 9.39836C17.9168 9.37231 17.8647 9.34626 17.8387 9.32021C17.995 9.32021 18.1513 9.34626 18.3076 9.37231C18.3076 9.39836 18.2815 9.42441 18.2815 9.45047C18.2815 9.50257 18.3336 9.60677 18.3597 9.60677C18.542 9.58072 18.6983 9.55467 18.8807 9.47652C19.1412 9.52862 19.3496 9.60677 19.5319 9.71097C20.6521 10.1017 21.3555 10.9353 21.9286 11.8732C21.8504 11.9513 21.7202 12.0034 21.7202 12.0816C21.6941 12.316 21.9807 12.2118 22.0588 12.3421C22.0849 12.3681 22.1891 12.3681 22.2412 12.3681C22.3454 12.5244 22.4235 12.7068 22.5277 12.8631C22.658 13.1236 22.8143 13.3841 22.9706 13.6185C23.1008 13.8269 23.8563 14.5042 24.6899 15.2597C25.8622 16.3017 27.4252 17.7084 28.4672 18.8807C28.4412 18.9068 28.4151 18.9589 28.4151 19.011C28.4151 19.037 28.4933 19.0891 28.5193 19.0891C28.5454 19.0891 28.5714 19.0631 28.5975 19.0631C28.6235 19.1152 28.6756 19.1412 28.7017 19.1933C28.9361 19.4538 29.1706 19.7143 29.379 19.9748C29.5353 19.1673 29.6395 18.3597 29.6395 17.5C29.6395 10.7269 24.1689 5.25635 17.3958 5.25635C10.6227 5.25635 5.1521 10.7269 5.1521 17.5C5.1521 18.1253 5.2042 18.7505 5.28235 19.3757C5.4126 19.4017 5.43865 19.4017 5.43865 19.4278ZM14.4521 26.5395C14.5563 26.4353 14.6866 26.3832 14.8168 26.279C14.8429 26.3311 14.9471 26.4614 14.921 26.4614C14.7908 26.5916 15.1034 26.9042 14.7647 26.9563C14.6866 26.9563 14.6084 26.8521 14.4782 26.774C14.4782 26.7219 14.426 26.5916 14.4521 26.5395ZM8.27815 21.7723C8.22605 21.8244 8.12185 21.8244 8.0437 21.8244C8.06975 21.7202 8.12185 21.6421 8.1479 21.5379C8.2521 21.5379 8.3042 21.5379 8.38235 21.5379C8.3563 21.616 8.33025 21.7202 8.27815 21.7723ZM8.79916 24.3253C8.72101 24.2471 8.64286 24.1429 8.5647 24.0387C8.4605 23.9084 8.3563 23.8042 8.53865 23.674C8.74706 23.5177 8.85126 23.4916 9.00756 23.6479C9.05966 23.7 9.13781 23.7782 9.18991 23.8303C9.21596 23.8563 9.24202 23.8824 9.26807 23.9084C9.45042 24.1429 9.45042 24.1429 9.24202 24.3253C9.03361 24.5337 8.98151 24.5337 8.79916 24.3253ZM9.08571 21.7984C9.11176 21.6942 9.13781 21.616 9.16386 21.59C9.18991 21.5639 9.29412 21.59 9.32017 21.616C9.34622 21.6421 9.34622 21.7463 9.32017 21.7723C9.26807 21.7984 9.18991 21.7723 9.08571 21.7984ZM9.76302 25.1328C9.63277 25.2631 9.52857 25.237 9.34622 25.0026C9.18991 24.8202 9.21596 24.7681 9.39832 24.6118C9.60672 24.4295 9.65882 24.4555 9.84117 24.6379C9.99748 24.8202 9.97143 24.9244 9.76302 25.1328ZM9.58067 22.0589C9.63277 22.0328 9.76302 22.111 9.89328 22.137C9.91933 22.2673 9.97143 22.3975 9.91933 22.4496C9.78907 22.5799 9.71092 22.4236 9.63277 22.3454C9.52857 22.2673 9.45042 22.137 9.58067 22.0589ZM10.3101 22.9967C10.284 23.0227 10.1798 22.9967 10.1538 22.9706C10.1277 22.9185 10.1277 22.8404 10.1277 22.7362C10.2319 22.7622 10.3361 22.7622 10.3361 22.8143C10.3882 22.8664 10.3361 22.9446 10.3101 22.9967ZM12.2378 27.9723C12.1076 28.0765 11.9773 28.1286 11.8731 27.9723C11.7168 27.7639 11.7168 27.6597 11.8992 27.5034C12.0815 27.3732 12.1597 27.3732 12.316 27.5816C12.4723 27.7379 12.4462 27.816 12.2378 27.9723ZM12.837 26.9563C12.8109 26.9824 12.7849 26.9563 12.7328 26.9563C12.7328 26.9042 12.7328 26.8782 12.7588 26.8261C12.7588 26.8 12.8109 26.8261 12.8891 26.8261C12.863 26.8782 12.863 26.9303 12.837 26.9563ZM12.1857 22.0328C12.2118 22.0849 12.2118 22.1891 12.1857 22.2152C12.1597 22.2412 12.0555 22.2412 12.0034 22.2152C11.9773 22.1891 11.9773 22.0849 11.9773 22.0068C12.0555 22.0068 12.1597 22.0068 12.1857 22.0328ZM11.7689 21.4337C11.7689 21.5639 11.795 21.6942 11.7689 21.7463C11.6647 21.8765 11.5605 21.7723 11.5084 21.6681C11.4563 21.5639 11.2739 21.4597 11.4303 21.3295C11.4824 21.3034 11.6387 21.4076 11.7689 21.4337ZM10.8832 20.5219C11.0916 20.3395 11.1437 20.3656 11.3781 20.6C11.5345 20.7824 11.5345 20.8345 11.3781 20.9908C11.1697 21.1732 11.0916 21.1732 10.9092 20.9908C10.7008 20.7303 10.7008 20.6782 10.8832 20.5219ZM8.74706 21.0429C8.95546 20.9387 9.00756 20.8605 9.00756 20.6C9.00756 20.3916 9.00756 20.2353 8.87731 20.079C8.72101 19.9227 8.77311 19.7925 8.92941 19.6883C9.11176 19.558 9.29412 19.4017 9.47647 19.2454C9.63277 19.1152 9.71092 19.1412 9.84117 19.2715C10.1017 19.558 10.1017 19.5841 9.78907 19.7664C9.63277 19.8706 9.60672 19.9748 9.71092 20.1311C9.78907 20.2093 9.84117 20.3135 9.94538 20.4177C10.0496 20.5219 10.2319 20.6521 10.3361 20.8084C10.4143 20.9126 10.5185 21.069 10.4924 21.1732C10.4403 21.3295 10.4143 21.4858 10.5445 21.59C10.7008 21.7202 10.8832 21.8505 11.0655 21.9026C11.3781 21.9807 11.3781 21.9547 11.2739 22.2673C11.2479 22.3454 11.3 22.4496 11.3521 22.5017C11.4303 22.632 11.5605 22.7362 11.6387 22.8664C11.7689 23.0227 11.8471 23.2311 12.1336 23.179C12.1857 23.153 12.2899 23.2311 12.342 23.2832C12.6546 23.6479 12.9672 24.0126 13.2538 24.3774C13.3059 24.4295 13.2538 24.8984 13.2017 24.9244C13.1756 24.9505 13.0975 24.9765 13.0714 24.9505C12.9672 24.8984 12.837 24.8463 12.7588 24.7421C12.2378 24.1429 11.7429 23.5437 11.2479 22.9185C10.9353 22.5538 10.6748 22.137 10.3622 21.7723C10.1017 21.4597 9.81512 21.1732 9.52857 20.8866C9.39832 20.7563 9.29412 20.7824 9.18991 20.9387C9.11176 21.0429 9.03361 21.1732 8.95546 21.2774C8.87731 21.3816 8.74706 21.4337 8.64286 21.3034C8.59075 21.1992 8.64286 21.095 8.74706 21.0429ZM8.27815 18.8807C8.33025 18.8807 8.38235 18.8547 8.4605 18.8286C8.66891 18.7765 8.77311 18.8547 8.74706 19.0631C8.74706 19.1412 8.74706 19.2194 8.72101 19.2975C8.69496 19.3757 8.69496 19.5059 8.64286 19.5059C8.5647 19.532 8.4605 19.4799 8.38235 19.4538C8.33025 19.4278 8.27815 19.3496 8.2 19.2975C8.17395 19.2454 8.12185 19.1933 8.0958 19.1152C8.01765 18.9068 8.01765 18.8807 8.27815 18.8807ZM8.12185 22.632C8.2521 22.7622 8.0958 22.8404 8.01765 22.9185C7.93949 22.9967 7.80924 23.1269 7.73109 22.9446C7.70504 22.8664 7.78319 22.7362 7.83529 22.6059C7.93949 22.6059 8.06975 22.5799 8.12185 22.632ZM7.15798 19.5841C7.34033 19.2975 7.41849 19.2715 7.62689 19.558C7.65294 19.5841 7.67899 19.6362 7.70504 19.6883C7.75714 19.7664 7.83529 19.8185 7.86134 19.8967C7.88739 19.9748 7.86134 20.053 7.86134 20.1572C7.78319 20.1311 7.70504 20.1311 7.62689 20.1051C7.57479 20.079 7.54874 19.9748 7.47059 19.9488C7.39244 19.8967 7.31428 19.8706 7.21008 19.8446C7.15798 19.8185 7.07983 19.8185 7.02773 19.8185C7.10588 19.7143 7.13193 19.6362 7.15798 19.5841ZM6.35042 20.4698C6.37647 20.4958 6.40252 20.5479 6.45462 20.574C6.55882 20.7042 6.66302 20.8084 6.50672 20.9908C6.29832 21.1732 6.22017 21.1992 6.01176 21.0169C5.90756 20.9387 5.82941 20.8345 5.75126 20.7042C5.59496 20.4698 5.67311 20.2874 5.93361 20.2093C5.98571 20.1832 6.08991 20.2093 6.14202 20.2353C6.19412 20.2874 6.27227 20.3656 6.35042 20.4698ZM5.85546 18.3858C5.90756 18.4118 5.93361 18.4379 5.98571 18.4639C6.24622 18.5421 6.27227 18.6202 6.08991 18.8026C5.90756 19.011 5.67311 19.0631 5.51681 18.8547C5.38655 18.7505 5.43865 18.6202 5.54286 18.49C5.59496 18.3597 5.69916 18.2816 5.85546 18.3858Z" fill="#171026"/>
</g>
<defs>
<clipPath id="clip0_1_2387">
<rect width="31" height="31" fill="white" transform="translate(2 2)"/>
</clipPath>
</defs>
</svg>
