<svg width="40" height="40" viewBox="0 0 40 40" fill="none" xmlns="http://www.w3.org/2000/svg">
<g clip-path="url(#clip0_181_2730)">
<circle cx="20" cy="20" r="20" fill="#FEFEFE"/>
<path d="M22.7027 15.2896C23.6757 15.5072 24.5405 15.8336 25.4054 16.3776C25.4054 16.3776 24.5405 15.5072 22.5946 14.8544C22.8108 14.8544 22.9189 14.9632 22.7027 15.2896C22.7027 15.1808 22.7027 15.1808 22.7027 15.2896Z" fill="url(#paint0_linear_181_2730)"/>
<path d="M14.4865 14.7456C14.1622 14.4192 13.6216 14.528 13.4054 14.9632C13.2973 15.1808 13.1892 15.3984 12.973 15.3984C12.6486 15.5072 12.5405 15.7248 12.4324 16.0512C12.2162 15.9424 11.8919 15.8336 11.6757 15.8336C11.2432 15.9424 10.7027 16.0512 10.2703 16.16C10.1622 16.16 10.0541 16.2688 10.0541 16.3776C9.94595 16.704 9.72973 16.8128 9.51351 16.9216C9.51351 16.9216 9.40541 16.9216 9.40541 17.0304C9.08108 17.248 8.86486 17.4656 8.32432 17.1392C8.32432 17.1392 8.21622 17.1392 8.10811 17.1392V18.5536C8.32432 18.6624 8.32432 18.88 8.43243 19.3152C8.54054 19.968 8.54054 19.968 9.18919 19.8592C9.40541 19.8592 9.62162 19.8592 9.62162 20.0768C9.62162 20.1856 9.51351 20.2944 9.40541 20.4032C9.18919 20.512 9.08108 20.512 8.86486 20.512C8.64865 20.6208 8.32432 20.6208 8.32432 20.9472C8.32432 20.9472 8.32432 21.056 8.21622 21.056C8.32432 21.2736 8.32432 21.4912 8.32432 21.7088C8.21622 22.0352 8.32432 22.144 8.64865 22.144H8.75676C8.86486 22.144 8.97297 22.0352 8.97297 22.0352C9.72973 21.8176 9.83784 21.9264 9.94595 22.3616C9.94595 22.5792 10.1622 22.9056 9.83784 22.9056C9.40541 23.0144 9.18919 23.232 8.97297 23.1232C8.86486 23.1232 8.86486 23.232 8.75676 23.232C8.64865 23.232 8.43243 23.1232 8.32432 23.1232C8.21622 23.0144 8.10811 22.9056 8 22.7968V28.672C8.10811 28.7808 8.10811 28.7808 8.21622 28.7808C8.43243 28.7808 8.54054 28.5632 8.54054 28.4544C8.54054 28.2368 8.75676 28.128 8.75676 27.9104C8.86486 27.6928 8.97297 27.584 9.18919 27.584C10.0541 27.3664 10.8108 27.1488 11.6757 26.9312C11.4595 26.7136 11.2432 26.496 11.027 26.1696C10.9189 26.0608 10.7027 25.8432 10.4865 25.7344C10.2703 25.8432 10.1622 26.0608 9.94595 26.1696C9.62162 26.2784 9.51351 26.0608 9.51351 25.8432C9.51351 25.6256 9.51351 25.2992 9.72973 25.2992C9.62162 25.0816 9.40541 24.864 9.2973 24.7552C9.18919 24.6464 9.2973 24.32 9.51351 24.1024C9.62162 23.9936 9.83784 23.8848 9.94595 23.8848C10.3784 24.1024 11.027 23.9936 11.1351 24.5376C11.3514 24.9728 11.5676 25.1904 11.3514 25.5168C11.3514 25.6256 11.4595 25.8432 11.5676 25.952C11.6757 26.1696 11.8919 26.3872 12.1081 26.6048V26.7136C12.1081 26.7136 12.1081 26.7136 12.2162 26.7136C12.5405 26.6048 12.6486 26.7136 12.7568 27.04C12.7568 27.1488 12.8649 27.2576 12.8649 27.3664C12.973 27.3664 13.0811 27.4752 13.1892 27.6928C13.2973 27.9104 13.6216 28.0192 13.2973 28.3456C13.1892 28.4544 13.0811 28.4544 12.973 28.5632C12.8649 28.7808 12.7568 28.9984 12.3243 29.1072C12.1081 29.216 11.8919 29.216 11.6757 29.216C11.4595 29.3248 11.1351 29.3248 11.1351 29.6512C11.1351 29.8688 10.9189 29.8688 10.7027 29.76C10.2703 29.4336 9.94595 29.5424 9.62162 29.9776C9.40541 30.4128 8.75676 30.4128 8.43243 30.0864C8.43243 30.0864 8.32432 30.0864 8.32432 29.9776C8.75676 31.0656 9.72973 31.8272 10.9189 31.8272H11.3514C11.5676 31.936 11.7838 31.936 12 31.936H13.2973C13.4054 31.6096 13.7297 31.5008 14.2703 31.2832C14.5946 31.2832 15.027 31.0656 15.4595 31.2832C15.6757 31.392 16.1081 31.2832 16.3243 30.9568C16.4324 30.848 16.5405 30.7392 16.6486 30.6304C17.7297 30.304 18.7027 29.8688 19.8919 29.76C20.4324 29.76 20.973 29.5424 21.5135 29.4336C21.7297 29.4336 21.9459 29.4336 22.0541 29.4336C22.4865 29.6512 22.8108 29.6512 23.1351 29.216C23.3514 28.7808 23.3514 28.7808 23.7838 28.9984C23.8919 29.1072 24.1081 29.1072 24.2162 29.1072C24.4324 29.1072 24.7568 28.9984 24.973 28.9984C25.0811 28.9984 25.2973 28.9984 25.2973 29.1072C25.2973 29.216 25.2973 29.5424 25.2973 29.5424C24.973 29.5424 25.1892 30.5216 24.6486 30.0864C24.3243 29.8688 24.3243 29.8688 24.1081 30.1952C24 30.304 23.8919 30.4128 23.7838 30.5216C23.1351 30.6304 22.5946 30.848 21.9459 30.9568C21.8378 30.9568 21.7297 30.9568 21.6216 30.848C21.0811 30.5216 20.7568 30.6304 20.4324 31.1744C20.2162 31.5008 19.7838 31.6096 19.4595 31.392C19.2432 31.1744 19.1351 31.1744 18.9189 31.2832C18.5946 31.392 18.2703 31.392 17.9459 31.5008C17.7297 31.6096 17.4054 31.6096 17.2973 31.8272C17.2973 31.8272 17.2973 31.8272 17.4054 31.936H23.2432L23.3514 31.8272H23.4595C23.3514 31.8272 23.3514 31.8272 23.2432 31.8272C23.2432 31.8272 23.2432 31.6096 23.2432 31.5008C23.3514 31.5008 23.4595 31.5008 23.5676 31.6096C23.5676 31.6096 23.5676 31.7184 23.5676 31.8272C23.6757 31.7184 23.7838 31.6096 23.7838 31.392C23.7838 31.0656 24 30.9568 24.3243 31.1744C24.4324 31.2832 24.5405 31.392 24.6486 31.392C25.0811 31.392 25.0811 31.7184 25.0811 31.936H26.4865L26.3784 31.7184C26.2703 31.7184 26.1622 31.6096 26.0541 31.6096C25.8378 31.6096 25.5135 31.7184 25.5135 31.392C25.5135 31.2832 25.7297 31.1744 25.8378 31.0656C25.9459 31.0656 26.0541 31.0656 26.1622 31.0656L25.7297 29.4336C29.7297 33.1328 28.6486 32.1536 32 35.2V33.3504C31.8919 33.4592 31.6757 33.4592 31.5676 33.4592C31.4595 33.4592 31.4595 33.3504 31.3514 33.2416C31.2432 33.1328 31.027 33.024 30.9189 32.9152C31.027 32.8064 31.2432 32.6976 31.3514 32.5888C31.4595 32.48 31.5676 32.48 31.7838 32.3712H31.8919V30.0864C31.6757 30.0864 31.4595 30.0864 31.2432 30.0864C31.2432 29.9776 31.2432 29.8688 31.2432 29.8688C31.3514 29.76 31.4595 29.76 31.5676 29.6512C31.6757 29.6512 31.7838 29.6512 31.8919 29.6512V28.3456C31.7838 28.4544 31.6757 28.4544 31.5676 28.4544H31.4595C31.1351 28.5632 30.8108 28.672 30.5946 28.3456C30.4865 28.3456 30.4865 28.4544 30.3784 28.4544C30.3784 28.3456 30.3784 28.3456 30.4865 28.2368C30.3784 28.2368 30.2703 28.3456 30.2703 28.4544C29.9459 28.9984 29.6216 28.9984 29.0811 28.7808C28.973 28.672 28.7568 28.672 28.5405 28.672C28.3243 28.672 28.1081 28.7808 28.1081 28.4544C28.1081 28.3456 28.3243 28.2368 28.4324 28.128C28.6486 28.0192 28.8649 28.0192 29.0811 27.9104C29.2973 27.8016 29.7297 27.8016 29.8378 27.584C30.0541 27.2576 30.2703 27.04 30.5946 27.3664C30.5946 27.3664 30.8108 27.2576 30.9189 27.2576C31.1351 26.8224 31.4595 26.7136 31.7838 26.8224C31.7838 26.8224 31.7838 26.8224 31.8919 26.9312V23.9936C31.7838 23.9936 31.7838 23.9936 31.6757 23.9936C30.8108 24.1024 30.3784 23.776 30.5946 22.9056C30.5946 22.7968 30.7027 22.688 30.7027 22.688C30.9189 22.4704 31.2432 22.3616 31.3514 21.9264C31.3514 21.7088 31.7838 21.7088 31.8919 21.9264V22.0352V13.44C31.6757 13.44 31.4595 13.5488 31.2432 13.5488C30.8108 13.6576 30.3784 13.7664 29.9459 13.8752C29.4054 13.984 28.8649 14.2016 28.2162 14.3104C27.6757 14.4192 27.6757 14.4192 27.7838 14.9632C27.7838 15.072 27.7838 15.072 27.7838 15.1808C27.7838 15.3984 27.8919 15.616 27.6757 15.616C27.5676 15.616 27.4595 15.5072 27.3513 15.3984C27.2432 15.1808 27.2432 15.072 27.1351 15.072C27.1351 15.072 26.9189 15.072 26.8108 15.072C26.7027 15.072 26.7027 14.9632 26.5946 14.9632C26.4865 14.9632 26.3784 14.9632 26.1622 15.072C25.7297 15.1808 25.2973 15.2896 24.8649 15.3984C25.1892 15.616 25.5135 15.7248 25.8378 16.0512C25.8378 16.0512 25.9459 16.2688 26.1622 16.704C26.4865 16.5952 26.5946 16.9216 26.8108 17.1392C27.2432 17.0304 27.4595 17.3568 27.5676 17.792C27.6757 18.1184 27.6757 18.4448 27.6757 18.7712C27.6757 18.7712 27.5676 18.88 27.4595 18.88C27.3513 18.88 27.2432 18.88 27.2432 18.7712C27.6757 20.0768 28 21.8176 28 23.6672C28 23.6672 27.7838 23.9936 27.3513 24.4288L27.2432 24.5376C26.9189 24.7552 26.4865 25.0816 26.0541 25.2992C26.0541 25.408 25.9459 25.5168 25.7297 25.6256C25.4054 25.7344 25.2973 25.7344 25.1892 25.6256C24.7568 25.7344 24.4324 25.7344 23.8919 25.8432C23.8919 25.8432 23.7838 25.7344 23.6757 25.5168C23.6757 25.5168 23.6757 25.5168 23.6757 25.6256C23.6757 25.7344 23.5676 25.8432 23.5676 25.952C23.5676 26.0608 23.5676 26.3872 23.4595 26.3872C23.2432 26.496 23.027 26.6048 22.8108 26.6048C22.5946 26.6048 22.3784 26.1696 22.5946 26.0608C23.1351 25.7344 22.9189 25.2992 22.8108 24.9728C22.8108 24.864 22.7027 24.7552 22.7027 24.6464C22.7027 24.5376 22.8108 24.5376 22.8108 24.5376C22.3784 24.32 22.1622 24.32 21.8378 24.4288C22.0541 24.5376 22.1622 25.2992 21.9459 25.5168C21.7297 25.8432 21.1892 26.0608 21.1892 26.6048C21.1892 26.8224 20.8649 26.8224 20.7568 26.7136C20.5405 26.3872 20.3243 26.496 20 26.6048C19.4595 26.8224 18.9189 26.496 18.4865 26.2784C18.3784 26.2784 18.3784 26.0608 18.2703 25.952C18.2703 26.0608 18.1622 26.1696 18.1622 26.1696C18.0541 26.2784 17.8378 26.2784 17.7297 26.3872C17.7297 26.2784 17.6216 26.1696 17.7297 26.1696C17.8378 26.0608 17.9459 25.952 17.9459 25.8432C18.0541 25.7344 18.1622 25.7344 18.1622 25.7344H18.2703V25.6256C18.2703 25.5168 18.4865 25.408 18.5946 25.2992C18.8108 25.1904 18.9189 25.1904 19.1351 25.1904C19.3514 25.1904 19.4595 25.0816 19.6757 25.0816C19.8919 25.0816 20.1081 24.9728 20.3243 25.2992C20.5405 25.5168 20.6486 25.408 20.7568 25.1904C20.7568 25.0816 20.973 24.864 21.0811 24.7552C19.4595 24.9728 17.8378 24.7552 16.4324 24.2112L16.3243 24.32C16.2162 24.4288 16.1081 24.4288 16.1081 24.5376C16.4324 24.6464 16.6486 24.864 17.0811 24.9728C16.6486 25.5168 16.2162 26.0608 16.2162 26.0608C16.5405 25.952 16.8649 25.8432 16.973 25.952C17.0811 26.0608 17.1892 26.1696 17.2973 26.3872C17.1892 26.6048 17.1892 26.7136 17.0811 26.9312C16.973 27.04 16.973 27.1488 16.8649 27.2576C16.6486 27.6928 16.2162 27.9104 15.7838 27.584C15.6757 27.4752 15.4595 27.3664 15.2432 27.3664C14.9189 27.3664 14.7027 27.1488 14.5946 26.8224C14.5946 26.7136 14.5946 26.496 14.5946 26.3872C14.7027 26.2784 14.9189 26.2784 15.027 26.3872C15.3514 26.7136 15.4595 26.7136 15.6757 26.2784C15.6757 26.1696 15.8919 26.0608 16.2162 25.952C13.1892 25.8432 12.1081 23.8848 12.1081 23.8848C12.1081 22.9056 12.2162 22.0352 12.3243 21.1648C12.2162 21.1648 12.2162 21.2736 12.1081 21.2736C12 21.2736 11.8919 21.2736 11.8919 21.2736C11.8919 21.2736 11.8919 21.1648 11.8919 21.056C11.8919 21.056 11.8919 20.9472 12 20.9472C12.3243 20.2944 12.3243 20.0768 11.6757 19.6416C11.4595 19.0976 11.3514 18.88 11.6757 18.5536C11.7838 18.4448 11.7838 18.4448 11.7838 18.336C11.8919 18.1184 11.8919 18.0096 12 18.0096C11.8919 17.4656 12.1081 17.248 12.7568 17.1392C12.8649 17.1392 12.973 17.1392 13.0811 17.0304C13.1892 17.0304 13.4054 16.9216 13.5135 16.9216C13.8378 16.16 14.0541 15.7248 14.0541 15.7248C14.5946 15.3984 15.027 15.1808 15.4595 14.9632C15.3514 14.9632 15.1351 14.9632 15.027 14.9632C14.8108 14.9632 14.5946 14.9632 14.4865 14.7456ZM11.2432 31.5008C11.1351 31.5008 10.9189 31.2832 10.8108 31.2832C10.9189 30.9568 10.5946 30.6304 11.027 30.5216C11.3514 30.4128 11.3514 30.848 11.4595 31.0656C11.4595 31.2832 11.4595 31.5008 11.2432 31.5008ZM28.973 30.5216C29.0811 30.1952 29.2973 29.9776 29.5135 29.6512C29.5135 29.6512 29.6216 29.6512 29.7297 29.6512C29.9459 29.9776 30.2703 29.9776 30.5946 30.1952C30.7027 30.304 30.8108 30.6304 30.7027 30.7392C30.7027 30.848 30.4865 30.9568 30.2703 31.1744C29.9459 31.0656 29.5135 30.9568 29.1892 30.848C29.0811 30.7392 28.973 30.6304 28.973 30.5216ZM30.7027 25.8432C30.8108 25.8432 31.027 25.952 31.1351 25.952C31.2432 25.952 31.2432 26.0608 31.4595 26.1696C31.4595 26.2784 31.5676 26.3872 31.5676 26.6048C31.5676 26.7136 31.3514 26.8224 31.2432 26.8224C31.1351 26.7136 31.027 26.6048 30.9189 26.496C30.8108 26.3872 30.8108 26.3872 30.8108 26.2784C30.5946 26.1696 30.7027 25.952 30.7027 25.8432ZM29.7297 25.1904C29.4054 25.408 29.2973 25.408 28.973 25.0816C28.7568 24.864 28.6486 24.6464 28.973 24.4288C29.2973 24.2112 29.4054 24.2112 29.7297 24.5376C29.9459 24.7552 29.9459 24.9728 29.7297 25.1904ZM28.8649 22.9056C28.8649 22.7968 28.973 22.5792 28.973 22.5792C29.1892 22.4704 29.2973 22.688 29.2973 22.7968C29.2973 22.9056 29.2973 22.9056 29.4054 23.1232C29.4054 23.1232 29.4054 23.232 29.4054 23.3408C29.4054 23.4496 29.2973 23.5584 29.1892 23.6672C29.0811 23.6672 28.973 23.5584 28.8649 23.4496C28.8649 23.3408 28.8649 23.1232 28.8649 22.9056ZM29.5135 20.7296C29.6216 20.8384 29.7297 20.8384 29.8378 20.9472C29.8378 21.056 29.9459 21.2736 29.8378 21.3824C29.7297 21.4912 29.5135 21.4912 29.4054 21.3824C29.0811 21.056 28.8649 20.8384 28.6486 20.512C28.6486 20.4032 28.6486 20.2944 28.6486 20.1856C28.7568 20.1856 28.8649 20.1856 28.973 20.2944C29.2973 20.4032 29.4054 20.6208 29.5135 20.7296ZM28.6486 14.8544C28.7568 14.9632 28.8649 14.9632 28.973 15.072V15.1808C28.973 15.2896 28.973 15.3984 28.973 15.5072C28.973 15.616 28.8649 15.7248 28.8649 15.7248C28.7568 15.7248 28.7568 15.7248 28.6486 15.616C28.5405 15.5072 28.4324 15.3984 28.4324 15.1808C28.5405 15.1808 28.6486 14.9632 28.6486 14.8544ZM27.6757 17.792C27.5676 17.792 27.5676 17.6832 27.4595 17.6832C27.5676 17.5744 27.6757 17.4656 27.8919 17.3568C28 17.3568 28.2162 17.3568 28.3243 17.4656C28.3243 17.5744 28.3243 17.6832 28.2162 17.6832C28.1081 17.792 28 17.792 27.8919 17.792C27.8919 17.6832 27.7838 17.792 27.6757 17.792ZM26.0541 29.1072C26.1622 28.8896 26.3784 28.7808 26.5946 28.672C26.8108 28.672 26.9189 28.672 27.027 28.672C27.2432 28.672 27.3514 28.7808 27.5676 28.7808C27.4595 28.8896 27.4595 28.9984 27.3513 29.216C27.3513 29.3248 27.2432 29.4336 27.2432 29.5424C27.1351 29.8688 26.9189 29.8688 26.7027 29.6512C26.5946 29.6512 26.5946 29.5424 26.4865 29.4336C26.1622 29.3248 25.9459 29.3248 26.0541 29.1072ZM20.7568 29.216C20.8649 29.1072 21.0811 28.7808 21.2973 29.1072C21.4054 29.216 21.1892 29.4336 21.1892 29.6512C20.973 29.6512 20.7568 29.76 20.6486 29.76C20.3243 29.4336 20.6486 29.3248 20.7568 29.216ZM18.5946 28.9984C18.7027 28.9984 18.8108 28.8896 18.9189 28.9984C19.027 28.9984 19.2432 29.1072 19.2432 29.216C19.3514 29.5424 19.027 29.6512 18.8108 29.6512C18.5946 29.6512 18.2703 29.8688 18.1622 29.5424C18.1622 29.4336 18.1622 29.216 18.2703 29.216C18.3784 29.1072 18.5946 29.1072 18.5946 28.9984ZM17.9459 27.9104C18.0541 27.8016 18.1622 27.9104 18.3784 27.8016C18.3784 28.0192 18.3784 28.128 18.2703 28.2368C18.1622 28.2368 18.0541 28.2368 17.9459 28.128V27.9104ZM14.7027 29.216C14.9189 29.216 15.1351 29.3248 14.9189 29.6512C14.7027 29.9776 14.9189 30.0864 15.027 30.304C15.1351 30.5216 15.3514 30.6304 15.4595 30.848C15.5676 30.9568 15.4595 31.0656 15.4595 31.1744C15.4595 31.1744 15.2432 31.2832 15.1351 31.2832C15.027 31.2832 14.9189 31.1744 14.8108 31.1744C14.2703 31.1744 14.2703 31.1744 14.3784 30.7392C14.3784 30.4128 14.2703 30.304 13.9459 30.4128C13.6216 30.5216 13.5135 30.304 13.6216 29.9776C13.6216 29.8688 13.6216 29.6512 13.6216 29.5424C13.6216 29.4336 13.6216 29.3248 13.6216 29.216C13.7297 29.216 13.8378 29.216 13.9459 29.216C14.3784 29.216 14.4865 29.216 14.7027 29.216ZM13.2973 26.6048C13.4054 26.6048 13.5135 26.6048 13.6216 26.6048C13.8378 26.7136 13.9459 26.8224 14.0541 26.8224C14.2703 26.9312 14.5946 27.6928 14.3784 27.8016C14.0541 28.0192 14.1622 28.3456 14.1622 28.5632C14.1622 28.672 14.0541 28.7808 14.0541 28.9984C13.9459 28.8896 13.7297 28.7808 13.7297 28.672C13.5135 28.4544 13.5135 28.128 13.4054 27.8016C13.2973 27.4752 13.1892 27.1488 13.1892 26.8224C13.1892 26.8224 13.1892 26.6048 13.2973 26.6048ZM10.2703 19.6416C10.1622 19.424 10.0541 19.0976 9.94595 18.88C9.72973 18.5536 9.62162 18.6624 9.40541 18.88C9.2973 18.9888 9.18919 19.0976 9.08108 19.2064C8.97297 19.0976 8.86486 18.9888 8.75676 18.88C8.64865 18.2272 8.64865 18.1184 9.2973 18.0096C9.51351 18.0096 9.62162 17.9008 9.83784 17.9008C9.72973 17.792 9.72973 17.5744 9.83784 17.3568C9.94595 17.0304 10.2703 16.9216 10.7027 17.0304C10.8108 17.0304 10.9189 17.0304 11.027 17.0304C11.1351 17.1392 11.3514 17.1392 11.3514 17.248C11.3514 17.3568 11.3514 17.5744 11.2432 17.6832C11.2432 17.792 11.1351 17.792 11.027 17.9008L10.9189 18.0096C10.9189 18.1184 10.9189 18.1184 11.027 18.2272C11.027 18.4448 11.1351 18.5536 11.1351 18.7712C11.1351 18.9888 11.2432 19.0976 11.2432 19.3152C11.3514 19.8592 11.2432 19.968 10.7027 20.0768C10.4865 19.968 10.3784 19.8592 10.2703 19.6416ZM11.1351 22.688C11.027 22.9056 11.027 23.232 11.027 23.4496C11.027 23.5584 10.9189 23.5584 10.9189 23.6672C10.8108 23.6672 10.7027 23.5584 10.7027 23.5584C10.5946 23.3408 10.2703 23.0144 10.7027 22.688C10.8108 22.5792 10.8108 22.4704 10.8108 22.2528C10.8108 22.144 10.8108 22.0352 10.7027 21.9264C10.7027 21.7088 10.7027 21.4912 10.9189 21.4912C11.027 21.4912 11.1351 21.7088 11.3514 21.8176C11.3514 22.144 11.2432 22.4704 11.1351 22.688Z" fill="url(#paint1_linear_181_2730)"/>
<path d="M25.4054 23.0144C24.8648 23.3408 24.3243 23.6672 23.8919 23.776C23.5675 23.8848 23.2432 23.9936 22.9189 24.1024C23.027 24.1024 23.2432 24.2112 23.4594 24.4288C24.8648 23.9936 25.4054 23.0144 25.4054 23.0144Z" fill="url(#paint2_linear_181_2730)"/>
<path d="M23.8919 20.9472C23.8919 20.0768 23.2432 19.424 22.4865 19.424C21.7297 19.424 21.0811 20.0768 21.0811 20.9472C21.0811 21.8176 21.7297 22.4704 22.4865 22.4704C23.2432 22.4704 23.8919 21.7088 23.8919 20.9472Z" fill="url(#paint3_linear_181_2730)"/>
<path d="M12.3243 8H11.4595C11.6757 8.1088 11.8919 8.2176 12.1081 8.3264C12.1081 8.3264 12.2162 8.1088 12.3243 8Z" fill="url(#paint4_linear_181_2730)"/>
<path d="M19.6757 8C19.7838 8.1088 19.8919 8.2176 19.8919 8.4352C19.8919 8.544 19.8919 8.6528 19.8919 8.7616C19.8919 8.8704 19.6757 8.8704 19.5676 8.8704C18.9189 8.8704 18.4865 8.6528 18.2703 8.1088C18.1622 8.1088 18.1622 8 18.054 8H16C16.1081 8.1088 16.1081 8.1088 16.2162 8.2176C16.4324 8.544 16.6486 8.7616 16.8649 9.088C17.0811 9.3056 17.1892 9.5232 16.973 9.9584C16.8649 10.0672 17.0811 10.2848 17.2973 10.176C17.5135 10.0672 17.7297 10.0672 17.8378 10.2848C18.1622 10.6112 18.3784 10.9376 18.5946 11.264C18.5946 11.0464 18.5946 10.8288 18.7027 10.72C18.8108 10.5024 18.9189 10.3936 18.9189 10.176C19.027 9.8496 19.3513 9.8496 19.4595 10.0672C19.6757 10.5024 19.8919 10.3936 20.2162 10.2848H20.3243V10.176C20.3243 10.0672 20.4324 9.9584 20.5405 9.9584C20.7568 9.9584 21.0811 9.9584 21.2973 10.0672C21.5135 10.0672 21.6216 9.9584 21.8378 9.9584C22.1622 9.8496 22.3784 10.0672 22.3784 10.3936C22.4865 10.72 22.4865 10.9376 22.054 11.0464C21.9459 11.0464 21.7297 11.1552 21.6216 11.1552C21.2973 11.264 20.8649 11.3728 20.6486 10.9376C20.5405 10.72 19.8919 10.9376 19.7838 11.264C19.6757 11.5904 19.1351 11.9168 18.8108 11.808C18.7027 11.6992 18.5946 11.4816 18.5946 11.264C18.5946 11.264 18.3784 11.5904 18.2703 11.4816C17.9459 11.3728 17.7297 11.4816 17.5135 11.5904C17.6216 11.6992 17.7297 11.6992 17.7297 11.808C17.6216 11.9168 17.5135 12.0256 17.4054 12.1344H17.2973C16.973 12.2432 16.6486 12.2432 16.5405 11.9168C16.5405 11.808 16.3243 11.9168 16.2162 11.808C16.1081 11.6992 16 11.5904 16 11.4816C16 11.3728 16.1081 11.264 16.2162 11.264C16.3243 11.264 16.4324 11.264 16.6486 11.264C16.6486 11.264 16.6486 11.1552 16.6486 11.0464C16.8649 10.5024 16.5405 10.2848 16.3243 9.9584C16 9.632 15.6757 9.3056 15.3513 8.8704C15.1351 8.544 14.9189 8.6528 14.7027 8.8704C14.1622 9.3056 14.1622 9.1968 13.7297 8.6528C13.5135 8.4352 13.2973 8.2176 13.0811 8H12.7568C12.8649 8.2176 12.973 8.4352 12.973 8.6528C13.0811 9.1968 12.973 9.1968 12.4324 9.3056C12.3243 9.3056 12.2162 9.1968 12.1081 9.1968C11.6757 9.088 11.3513 8.8704 11.027 8.7616C10.8108 8.7616 10.4865 8.7616 10.2703 9.088C10.2703 9.1968 9.94594 9.3056 9.94594 9.3056C9.62162 9.088 9.29729 9.1968 9.08108 9.088C8.97297 9.088 8.86486 9.088 8.75675 8.9792C8.32432 9.5232 8.10811 10.0672 8.10811 10.8288V13.44C8.64865 13.3312 8.64865 13.2224 8.54054 12.7872C8.54054 12.6784 8.54054 12.5696 8.54054 12.4608L8.64865 12.352H8.75675C8.54054 12.0256 8.54054 11.9168 8.86486 11.6992C9.18919 11.3728 9.51351 11.3728 9.83783 11.808C10.0541 12.0256 10.0541 12.1344 9.62162 12.4608C9.18919 12.7872 9.08108 12.7872 8.86486 12.352C8.86486 12.4608 8.97297 12.5696 8.97297 12.5696C9.08108 12.7872 9.08108 13.0048 9.4054 13.0048C9.83783 13.0048 10.0541 12.7872 10.1622 12.4608C10.1622 12.2432 10.2703 12.1344 10.4865 12.0256C10.7027 12.0256 10.9189 11.9168 11.1351 11.9168C11.4595 11.9168 11.8919 12.2432 11.8919 12.6784C11.8919 12.7872 11.7838 12.896 11.6757 13.0048C11.3513 13.1136 11.027 13.2224 10.8108 13.2224C10.5946 13.3312 10.3784 13.3312 10.2703 13.6576C10.2703 13.8752 9.83783 13.984 9.62162 14.0928C9.29729 14.2016 8.97297 14.2016 8.86486 14.6368C8.86486 14.7456 8.64865 14.8544 8.54054 14.8544C8.43243 14.8544 8.21621 14.9632 8.10811 14.9632V15.5072C8.43243 15.3984 8.86486 15.3984 9.18919 15.2896C9.4054 15.1808 9.62162 15.072 9.94594 15.072C10.9189 14.8544 12 14.6368 12.973 14.4192C13.7297 14.2016 14.5946 13.984 15.2432 13.8752C15.2432 13.8752 15.2432 13.6576 15.2432 13.5488C15.3513 13.5488 15.4595 13.5488 15.6757 13.6576V13.7664C16 13.5488 16.4324 13.44 16.7568 13.3312C17.1892 13.2224 17.8378 13.3312 18.054 13.6576C18.054 13.7664 18.054 13.984 18.054 13.984C17.8378 14.2016 17.6216 14.3104 17.4054 14.3104H17.2973C17.7297 14.2016 17.9459 14.2016 17.9459 14.2016L18.054 14.528C17.5135 14.6368 17.0811 14.8544 16.6486 14.9632C16.5405 15.072 16.4324 15.1808 16.2162 15.1808C15.027 15.7248 14.4865 16.2688 14.4865 16.2688C14.4865 16.2688 14.8108 16.0512 15.2432 15.8336C16.6486 15.1808 18.1622 14.9632 19.6757 14.8544C19.7838 14.8544 19.7838 14.7456 19.8919 14.7456C20 14.7456 20 14.7456 20.1081 14.7456V14.8544C20.4324 14.8544 20.8649 14.8544 21.1892 14.9632C21.2973 14.9632 21.4054 14.9632 21.5135 14.8544C21.8378 14.7456 22.054 14.6368 22.3784 14.6368C22.4865 14.6368 22.4865 14.6368 22.4865 14.6368C22.2703 14.528 22.1622 14.528 21.9459 14.4192L22.1622 14.2016C22.1622 14.2016 22.7027 14.2016 23.4595 14.4192C23.2432 14.0928 23.027 13.8752 22.7027 13.5488C22.5946 13.44 22.4865 13.3312 22.3784 13.1136C22.3784 13.1136 22.2703 13.1136 22.2703 13.0048C22.1622 12.7872 22.054 12.5696 21.8378 12.5696C21.4054 12.4608 21.0811 12.6784 21.0811 13.1136C21.0811 13.2224 21.1892 13.44 21.0811 13.5488C21.0811 13.6576 20.8649 13.6576 20.7568 13.7664C20.5405 13.44 20 13.6576 19.8919 13.2224C19.8919 13.1136 19.6757 13.1136 19.5676 13.1136C19.4595 13.1136 19.3513 13.1136 19.1351 13.2224C18.9189 13.2224 18.7027 13.2224 18.7027 13.0048C18.7027 12.7872 18.8108 12.6784 19.027 12.5696H19.1351C19.7838 12.352 20.5405 12.2432 21.1892 12.0256C21.1892 12.0256 21.1892 12.0256 21.2973 12.0256C21.1892 11.9168 21.1892 11.808 21.1892 11.5904C21.4054 11.5904 21.5135 11.5904 21.6216 11.6992C21.6216 11.808 21.6216 11.9168 21.6216 12.0256C21.9459 11.9168 22.2703 11.9168 22.5946 12.1344C22.8108 12.2432 23.3513 12.0256 23.3513 11.9168C23.4595 11.4816 23.7838 11.3728 24.1081 11.3728C24.7567 11.264 25.1892 11.264 25.5135 11.264C25.6216 11.264 25.7297 11.3728 25.8378 11.4816C25.7297 11.5904 25.7297 11.6992 25.6216 11.808C25.4054 11.9168 25.1892 11.9168 24.973 12.0256C24.7568 12.1344 24.4324 12.1344 24.4324 12.4608C24.4324 12.5696 24.3243 12.6784 24.2162 12.6784C23.8919 12.7872 23.4595 12.896 23.3513 13.3312C23.4595 13.44 23.4595 13.44 23.5676 13.5488C23.7838 13.7664 24 14.0928 24.1081 14.3104H24.2162C24.5405 14.2016 24.8649 14.2016 24.8649 13.7664C24.973 13.44 25.1892 13.44 25.4054 13.6576C25.6216 13.984 25.8378 13.8752 26.1622 13.7664C26.9189 13.5488 27.7838 13.44 28.5405 13.2224C28.8649 13.1136 29.0811 13.1136 29.2973 13.44C29.4054 13.6576 29.6216 13.5488 29.7297 13.3312C29.8378 13.0048 30.054 12.896 30.2703 12.896C30.8108 12.6784 31.3513 12.5696 31.8919 12.352V10.72C31.6757 10.8288 31.3513 10.8288 31.027 10.9376C30.7027 11.0464 30.2703 11.0464 30.1622 11.4816C30.1622 11.4816 29.8378 11.5904 29.7297 11.4816C29.6216 11.264 29.4054 11.264 29.1892 11.3728C28.6486 11.5904 27.8919 11.4816 27.3513 11.808C27.3513 11.808 27.2432 11.808 27.1351 11.808C26.9189 11.808 26.5946 12.0256 26.4865 11.6992C26.3784 11.264 26.7027 11.264 26.9189 11.264C27.1351 11.1552 27.2432 11.1552 27.3513 10.8288C27.4595 10.5024 27.6757 10.3936 27.8919 10.72C28.1081 10.9376 28.2162 10.9376 28.3243 10.72C28.4324 10.5024 28.7567 10.3936 28.973 10.2848C29.2973 10.0672 29.4054 10.3936 29.5135 10.5024C29.7297 10.72 30.7027 10.3936 30.8108 10.0672C31.027 9.7408 31.2432 9.632 31.5676 9.8496C31.3513 9.3056 31.027 8.8704 30.5946 8.544C30.5946 8.544 30.4865 8.544 30.4865 8.4352C30.2703 8.2176 29.7297 8 29.0811 8H28.2162C28.2162 8.1088 28.2162 8.1088 28.1081 8.2176H27.8919C27.8919 8.2176 27.8919 8.1088 27.8919 8H19.6757ZM12.6486 10.9376C12.5405 10.8288 12.6486 10.72 12.6486 10.5024C12.8649 10.6112 12.973 10.6112 12.973 10.6112V10.8288C12.8649 10.9376 12.7568 10.9376 12.6486 10.9376ZM13.6216 13.5488C13.1892 13.7664 13.0811 13.44 12.973 13.1136C12.6486 12.5696 12.973 12.0256 13.5135 11.9168C13.6216 11.9168 13.7297 11.9168 13.7297 11.9168C13.8378 12.2432 14.054 12.6784 14.1622 13.0048C14.054 13.44 14.054 13.44 13.6216 13.5488ZM14.8108 13.0048C14.7027 13.0048 14.5946 13.0048 14.5946 12.896C14.5946 12.896 14.5946 12.7872 14.5946 12.5696C14.5946 12.6784 14.7027 12.7872 14.8108 12.7872C14.8108 12.896 14.8108 13.0048 14.8108 13.0048ZM15.3513 12.5696C15.1351 12.6784 15.027 12.5696 15.027 12.352C14.9189 12.0256 15.027 11.5904 15.2432 11.5904C15.4595 11.5904 15.5676 11.808 15.7838 12.0256C15.5676 12.2432 15.4595 12.4608 15.3513 12.5696ZM19.1351 12.1344C19.027 12.1344 19.027 12.1344 18.9189 12.1344C18.9189 12.1344 18.9189 12.0256 18.9189 11.9168C19.027 11.9168 19.1351 11.9168 19.1351 12.0256V12.1344ZM26.7027 9.1968C26.8108 9.088 27.027 9.088 27.2432 9.088C27.4595 9.088 27.5676 8.9792 27.7838 8.9792C27.8919 8.9792 28 9.088 28.1081 9.1968C28.1081 9.3056 28 9.5232 28 9.5232C27.5676 9.632 27.2432 9.7408 26.8108 9.7408C26.7027 9.7408 26.5946 9.632 26.5946 9.5232C26.5946 9.4144 26.5946 9.1968 26.7027 9.1968ZM25.0811 9.088C25.4054 8.9792 25.4054 9.3056 25.4054 9.5232C25.4054 9.7408 25.5135 10.0672 25.1892 10.0672C24.973 10.176 24.7568 10.0672 24.7568 9.7408C24.8649 9.632 24.6486 9.1968 25.0811 9.088ZM22.2703 9.088C22.3784 8.8704 23.4595 8.9792 23.4595 9.1968C23.4595 9.4144 23.3513 9.5232 23.2432 9.7408C23.027 9.8496 22.8108 9.9584 22.7027 9.8496C22.4865 9.7408 22.3784 9.4144 22.1622 9.3056C22.1622 9.1968 22.1622 9.088 22.2703 9.088Z" fill="url(#paint5_linear_181_2730)"/>
<path d="M18.9189 20.9472C18.9189 20.512 18.8108 20.1856 18.4864 19.8592C18.4864 19.968 18.4864 20.1856 18.3783 20.1856C18.2702 20.1856 18.1621 20.0768 17.9459 20.0768C18.054 19.8592 18.1621 19.7504 18.2702 19.7504H18.3783C18.1621 19.5328 17.8378 19.424 17.5135 19.424C16.8648 19.424 16.4324 19.8592 16.2162 20.4032H16.3243C16.2162 20.4032 16.2162 20.512 16.1081 20.512C16.1081 20.6208 16.1081 20.7296 16.1081 20.8384C16.1081 21.7088 16.7567 22.3616 17.5135 22.3616C18.2702 22.4704 18.9189 21.7088 18.9189 20.9472Z" fill="url(#paint6_linear_181_2730)"/>
<path d="M26.8109 17.3568C26.919 17.5744 26.919 17.6832 27.0271 17.9008C27.0271 17.792 27.1352 17.792 27.1352 17.6832C27.0271 17.6832 26.919 17.4656 26.8109 17.3568Z" fill="url(#paint7_linear_181_2730)"/>
<path d="M15.2432 23.232C15.1351 23.1232 15.027 23.1232 14.8108 23.0144C14.8108 23.0144 14.9189 23.232 15.1351 23.4496C15.2432 23.4496 15.2432 23.3408 15.2432 23.232C15.2432 23.3408 15.2432 23.3408 15.2432 23.232Z" fill="url(#paint8_linear_181_2730)"/>
<path d="M10.054 8.10881C9.7297 8.21761 9.51348 8.32641 9.29727 8.54401L9.40537 8.43521C9.62159 8.43521 9.83781 8.43521 10.054 8.10881Z" fill="url(#paint9_linear_181_2730)"/>
<path d="M12.7567 18.7712L12.8648 18.88V18.7712C12.8648 18.7712 12.8648 18.7712 12.7567 18.7712Z" fill="url(#paint10_linear_181_2730)"/>
</g>
<defs>
<linearGradient id="paint0_linear_181_2730" x1="9.38462" y1="8.92898" x2="25.701" y2="39.9645" gradientUnits="userSpaceOnUse">
<stop stop-color="#C1C8FF"/>
<stop offset="1" stop-color="#313EB6"/>
</linearGradient>
<linearGradient id="paint1_linear_181_2730" x1="9.38462" y1="8.92898" x2="25.701" y2="39.9645" gradientUnits="userSpaceOnUse">
<stop stop-color="#C1C8FF"/>
<stop offset="1" stop-color="#313EB6"/>
</linearGradient>
<linearGradient id="paint2_linear_181_2730" x1="9.38462" y1="8.92898" x2="25.701" y2="39.9645" gradientUnits="userSpaceOnUse">
<stop stop-color="#C1C8FF"/>
<stop offset="1" stop-color="#313EB6"/>
</linearGradient>
<linearGradient id="paint3_linear_181_2730" x1="9.38462" y1="8.92898" x2="25.701" y2="39.9645" gradientUnits="userSpaceOnUse">
<stop stop-color="#C1C8FF"/>
<stop offset="1" stop-color="#313EB6"/>
</linearGradient>
<linearGradient id="paint4_linear_181_2730" x1="9.38462" y1="8.92898" x2="25.701" y2="39.9645" gradientUnits="userSpaceOnUse">
<stop stop-color="#C1C8FF"/>
<stop offset="1" stop-color="#313EB6"/>
</linearGradient>
<linearGradient id="paint5_linear_181_2730" x1="9.38462" y1="8.92898" x2="25.701" y2="39.9645" gradientUnits="userSpaceOnUse">
<stop stop-color="#C1C8FF"/>
<stop offset="1" stop-color="#313EB6"/>
</linearGradient>
<linearGradient id="paint6_linear_181_2730" x1="9.38462" y1="8.92898" x2="25.701" y2="39.9645" gradientUnits="userSpaceOnUse">
<stop stop-color="#C1C8FF"/>
<stop offset="1" stop-color="#313EB6"/>
</linearGradient>
<linearGradient id="paint7_linear_181_2730" x1="9.38462" y1="8.92898" x2="25.701" y2="39.9645" gradientUnits="userSpaceOnUse">
<stop stop-color="#C1C8FF"/>
<stop offset="1" stop-color="#313EB6"/>
</linearGradient>
<linearGradient id="paint8_linear_181_2730" x1="9.38462" y1="8.92898" x2="25.701" y2="39.9645" gradientUnits="userSpaceOnUse">
<stop stop-color="#C1C8FF"/>
<stop offset="1" stop-color="#313EB6"/>
</linearGradient>
<linearGradient id="paint9_linear_181_2730" x1="9.38462" y1="8.92898" x2="25.701" y2="39.9645" gradientUnits="userSpaceOnUse">
<stop stop-color="#C1C8FF"/>
<stop offset="1" stop-color="#313EB6"/>
</linearGradient>
<linearGradient id="paint10_linear_181_2730" x1="9.38462" y1="8.92898" x2="25.701" y2="39.9645" gradientUnits="userSpaceOnUse">
<stop stop-color="#C1C8FF"/>
<stop offset="1" stop-color="#313EB6"/>
</linearGradient>
<clipPath id="clip0_181_2730">
<rect width="40" height="40" fill="white"/>
</clipPath>
</defs>
</svg>
