<svg width="30" height="30" viewBox="0 0 30 30" fill="none" xmlns="http://www.w3.org/2000/svg">
<path d="M18.9545 15.1333C18.9545 15.1333 18.9545 15 19.0909 15C19.0909 14.6 18.9545 14.0667 18.8182 13.6667C18.6818 13.8 18.6818 13.8 18.6818 13.9333C18.5455 14.2 18.4091 14.3333 18.1364 14.4667C17.7273 14.6 17.1818 14.7333 16.7727 14.7333C16.3636 14.8667 15.9545 15 15.6818 14.6C15.5455 14.4667 15.2727 14.4667 15.1364 14.6C14.1818 14.8667 13.2273 15 12.4091 15.2667C12.2727 15.2667 12 15.5333 12 15.6667C11.7273 15.8 11.4545 16.0667 11.0455 16.0667C11.1818 16.6 11.4545 17 11.7273 17.4C11.8636 17.4 12.1364 17.4 12.2727 17.4C12.2727 17.5333 12.2727 17.6667 12.2727 17.6667L12.1364 17.8C12.9545 18.4667 13.9091 18.8667 15 18.8667C16.0909 18.8667 17.1818 18.4667 17.8636 17.6667C18.5455 17 18.8182 16.2 18.9545 15.4C18.9545 15.4 18.9545 15.2667 18.9545 15.1333ZM17.4545 16.6C17.3182 16.6 17.0455 16.4667 16.7727 16.3333C16.9091 16.0667 17.0455 15.8 17.0455 15.5333C17.3182 15.6667 17.5909 15.8 17.7273 16.0667C17.7273 16.2 17.8636 16.6 17.4545 16.6Z" fill="#D76700"/>
<path d="M11.4545 9.26667C11.5909 9.26667 11.5909 9.26667 11.4545 9.26667V9.26667Z" fill="#D76700"/>
<path d="M10.9091 14.4667C10.9091 14.4667 11.0455 14.4667 11.0455 14.6C11.1818 14.7333 11.4545 14.6 11.7273 14.6C12.1364 14.6 12.2727 14.4667 12.2727 14.0667C12.2727 13.8 12.1364 13.5333 12.1364 13.2667C12.1364 13.1333 12.1364 12.7333 12.2727 12.7333C12.5455 12.6 12.6818 13 12.6818 13.1333C12.8182 13.4 12.8182 13.6667 12.9545 13.9333C13.0909 14.2 13.2273 14.3333 13.6364 14.2C13.7727 14.0667 14.0455 14.0667 14.1818 13.9333C14.4545 13.5333 14.7273 13.2667 15.2727 13.6667C15.5455 13.8 16.2273 13.4 16.2273 13.1333C16.2273 12.7333 16.5 12.6 16.7727 12.6C17.3182 12.6 17.8636 12.3333 18.4091 12.7333C18.2727 12.6 18.1364 12.3333 18 12.2C17.1818 11.4 16.2273 11 15.1364 11C14.0455 11 12.8182 11.4 12.1364 12.2C11.4545 12.7333 11.0455 13.5333 10.9091 14.4667Z" fill="#D76700"/>
<path d="M5.31818 21.8L5.45455 21.6667C5.59091 21.8 5.72727 21.9333 5.86364 22.0667V22.2C6.40909 22.6 6.95455 22.8667 7.63636 23.2667C7.63636 23.1333 7.63636 23 7.63636 22.8667C7.5 22.7333 7.09091 22.8667 6.95455 22.7333C6.81818 22.7333 6.68182 22.6 6.68182 22.4667C6.54545 22.3333 6.27273 21.9333 6.40909 21.9333C6.54545 21.6667 6.95455 21.4 7.22727 21.2667C7.36364 21.2667 7.5 21.4 7.63636 21.5333C8.04545 21.9333 8.45455 22.4667 8.86364 22.8667C9.13636 23.1333 9.40909 23.5333 9.27273 24.0667C10.9091 24.6 12.9545 25 15 25C17.1818 25 19.2273 24.6 21.1364 23.8C21 23.8 20.7273 23.8 20.5909 23.5333C20.4545 23.2667 20.1818 23.1333 20.1818 23C20.1818 22.6 19.9091 22.2 20.4545 22.0667C21 21.9333 21.2727 21.9333 21.5455 22.4667C21.6818 22.7333 21.6818 22.8667 21.6818 23.1333C21.6818 23.4 21.6818 23.6667 21.4091 23.8C22.3636 23.4 23.3182 22.8667 24.2727 22.2V22.0667C24.1364 21.5333 24.2727 21.1333 24.8182 21C25.2273 20.8667 25.3636 21.1333 25.3636 21.4C26.5909 20.3333 27.6818 19.2667 28.6364 17.9333C28.5 17.9333 28.3636 17.9333 28.2273 17.8C28.2273 17.6667 28.3636 17.5333 28.3636 17.5333C28.5 17.2667 28.6364 17 28.7727 16.7333C28.9091 16.8667 29.0455 16.8667 29.1818 17C29.4545 16.3333 29.7273 15.6667 30 15C29.5909 13.9333 29.0455 12.8667 28.3636 11.9333C27.9545 12.0667 27.5455 12.2 27.1364 12.2C26.7273 12.3333 26.5909 12.2 26.4545 11.8C26.0455 11 26.1818 10.6 27.1364 10.2C26.1818 9.13333 25.0909 8.33333 24 7.53333C23.7273 7.53333 23.4545 7.66667 23.4545 8.06667C23.4545 8.33333 23.1818 8.33333 22.9091 8.2C22.3636 7.8 21.9545 7.93333 21.5455 8.46667C21.2727 9 20.4545 9 20.0455 8.6C19.7727 8.33333 19.3636 8.2 18.9545 8.06667L18.6818 8.2C18.6818 8.73333 18.2727 8.73333 17.8636 8.73333C18.5455 9 19.2273 9.53333 19.9091 10.0667C20.3182 10.4667 20.7273 11 21 11.4C21.9545 11.2667 22.9091 11 23.7273 10.6C24.4091 10.3333 24.9545 10.6 24.9545 11.2667C24.9545 11.4 24.8182 11.5333 24.8182 11.8C24.8182 11.9333 24.5455 12.0667 24.5455 12.2C24.5455 12.6 24.2727 12.6 24 12.7333C23.4545 12.8667 22.9091 13 22.3636 13.1333C22.0909 13.1333 21.9545 13.2667 21.6818 13.2667C21.6818 13.5333 21.8182 13.6667 21.8182 13.9333C21.9545 13.9333 22.2273 13.9333 22.3636 14.2C22.5 14.3333 22.6364 14.3333 22.7727 14.3333C23.1818 14.3333 23.5909 14.3333 24 14.2C24.4091 14.0667 24.8182 14.0667 24.9545 13.4C24.9545 13.1333 25.3636 13 25.5 13.2667C25.7727 13.6667 26.0455 13.5333 26.3182 13.5333C26.7273 13.5333 27 13.4 26.8636 13C26.8636 12.8667 27 12.8667 27 12.7333C27.1364 12.6 28.3636 13.2667 28.2273 13.4C28.2273 13.5333 28.0909 13.6667 27.9545 13.8C27.6818 14.2 27.2727 14.3333 27 14.3333C26.4545 14.4667 25.9091 14.3333 25.7727 15.1333C25.7727 15.2667 25.5 15.2667 25.3636 15.4C24.9545 15.5333 24.5455 15.5333 24.5455 16.0667C24.5455 16.0667 24.4091 16.2 24.2727 16.2C23.8636 15.9333 23.4545 15.8 23.0455 15.5333C22.7727 15.4 22.2273 15.5333 21.9545 15.8C21.9545 15.8 21.9545 15.8 21.8182 15.9333C21.5455 17 21.1364 18.0667 20.4545 18.8667C20.5909 19 20.5909 19.1333 20.5909 19.2667C20.7273 19.5333 20.7273 19.9333 20.3182 19.9333C19.9091 20.0667 19.9091 19.6667 19.7727 19.5333C19.7727 19.5333 19.7727 19.6667 19.6364 19.6667C18.4091 20.8667 16.6364 21.6667 14.8636 21.6667C14.5909 21.6667 14.1818 21.6667 13.9091 21.5333C13.9091 21.5333 13.7727 21.6667 13.6364 21.6667C13.2273 21.6667 12.8182 21.8 12.4091 21.8C12 21.8 11.8636 21.4 11.7273 21.1333C11.7273 21.1333 11.7273 21 11.8636 21C11.1818 20.7333 10.5 20.2 9.95455 19.6667C9.13636 18.8667 8.59091 17.8 8.18182 16.7333C8.31818 16.7333 8.18182 16.6 7.90909 16.4667C7.63636 16.2 6.81818 16.4667 6.68182 16.8667C6.54545 17.4 6 17.2667 5.72727 17.4C5.31818 17.5333 4.90909 17.8 4.63636 17.2667C4.63636 17.1333 4.36364 17.1333 4.22727 17.1333C4.22727 17.2667 4.09091 17.4 3.81818 17.5333C3.54545 17.9333 3.27273 18.0667 3 18.0667C2.86364 18.2 2.72727 18.2 2.31818 18.3333C2.18182 18.4667 2.04545 18.4667 1.90909 18.4667C2.86364 19.8 4.09091 20.8667 5.31818 21.8ZM20.1818 10.2C20.0455 10.2 19.9091 10.2 19.7727 10.2C19.7727 10.0667 19.7727 9.93333 19.7727 9.8C19.9091 9.8 20.0455 9.8 20.0455 9.93333C20.1818 9.93333 20.1818 10.2 20.1818 10.2ZM23.5909 10.3333C23.4545 10.3333 23.1818 10.0667 23.0455 10.0667C23.1818 9.66667 22.7727 9.26667 23.3182 9.13333C23.7273 9 23.7273 9.53333 23.8636 9.8C23.8636 10.0667 23.8636 10.3333 23.5909 10.3333ZM24.2727 18.6C24.2727 18.6 24.4091 18.6 24.4091 18.7333C24.4091 18.8667 24.4091 18.8667 24.4091 19.1333C24.2727 19 24.1364 19 24.1364 19C24.1364 18.7333 24.2727 18.6 24.2727 18.6ZM4.09091 18.2C4.36364 18.0667 5.59091 18.0667 5.59091 18.3333C5.59091 18.6 5.59091 18.7333 5.59091 19C6 18.8667 6.40909 18.7333 6.68182 18.7333C7.09091 18.6 7.22727 18.8667 7.36364 19.1333C7.5 19.5333 7.5 19.8 7.09091 19.9333C6.95455 19.9333 6.81818 20.0667 6.54545 20.0667C6.13636 20.0667 5.72727 20.2 5.31818 19.8C5.31818 19.8 5.31818 19.8 5.18182 19.6667C4.90909 19.8 4.63636 19.8 4.36364 19.6667C4.09091 19.6667 3.95455 19.4 3.95455 19.4C3.40909 18.7333 3.54545 18.6 4.09091 18.2Z" fill="#D76700"/>
<path d="M0.954545 13C1.09091 13.1333 1.09091 13.4 1.09091 13.6667C1.09091 13.8 1.09091 14.0667 1.22727 14.2C1.36364 14.4667 1.5 14.6 1.77273 14.7333C2.04545 15 2.45455 15.1333 2.04545 15.5333C1.5 16.0667 1.22727 16.0667 0.681818 15.6667C0.545455 15.4 0.272727 15.1333 0 14.8667C0 14.8667 0 14.8667 0 15C0.272727 15.8 0.681818 16.4667 1.09091 17.2667C1.36364 17.1333 1.77273 17 2.04545 17C2.04545 16.8667 1.90909 16.7333 2.04545 16.7333C2.31818 16.4667 2.59091 16.3333 2.86364 16.2C3 16.2 3.27273 16.3333 3.27273 16.2C3.81818 15.8 3.95455 16.2 4.09091 16.6C4.5 16.2 4.77273 15.5333 5.45455 15.4C5.86364 15.4 6.13636 15.2667 6.40909 15.6667C6.68182 16.0667 6.81818 15.9333 6.95455 15.5333C7.09091 15.2667 7.22727 15.1333 7.5 15C7.63636 15 7.90909 14.8667 8.04545 14.8667C8.04545 13.5333 8.45455 12.3333 9.13636 11.2667C9.40909 11.1333 9.54545 11.1333 9.54545 11C9.40909 11 9.40909 11 9.27273 10.8667C9 10.6 8.86364 10.6 8.72727 10.8667C8.45455 11.2667 8.18182 11.2667 7.90909 11C7.63636 10.7333 7.22727 10.8667 7.09091 10.3333C6.95455 9.8 7.36364 9 7.90909 8.73333C8.18182 8.6 8.45455 8.6 8.72727 8.46667C9 8.46667 9.13636 8.33333 9.40909 8.33333C9.68182 8.2 9.95455 8.2 10.2273 8.06667C10.9091 7.8 11.4545 8.33333 12 8.46667C12.1364 8.46667 12.2727 8.6 12.2727 8.73333V8.86667C12.5455 8.73333 12.9545 8.6 13.2273 8.6C13.2273 8.46667 13.3636 8.33333 13.3636 8.2C13.5 7.93333 13.9091 7.93333 14.1818 8.2C14.1818 8.33333 14.1818 8.33333 14.3182 8.46667C14.5909 8.46667 14.7273 8.46667 15 8.46667C15.2727 8.46667 15.4091 8.46667 15.6818 8.46667V8.33333C15.6818 8.06667 15.5455 7.93333 15.5455 7.66667C15.4091 7 15.5455 6.86667 16.2273 6.86667C16.5 6.86667 16.6364 6.86667 16.7727 7.13333C16.9091 7.53333 17.0455 7.93333 17.3182 8.33333C17.3182 8.46667 17.5909 8.6 17.5909 8.6C17.5909 8.33333 17.7273 8.2 17.7273 8.06667C17.5909 7.53333 17.7273 7.13333 18 6.6C18.1364 6.46667 18.1364 6.2 18.1364 6.2C18.4091 6.06667 18.6818 5.93333 18.9545 6.06667C19.0909 6.06667 19.2273 6.46667 19.3636 6.6C19.5 6.73333 19.6364 7 19.7727 7C20.0455 7 20.1818 6.73333 20.1818 6.6C20.1818 6.33333 20.4545 6.2 20.4545 5.93333C19.2273 5.53333 17.8636 5.13333 16.3636 5H16.2273C15.8182 5 15.2727 5 14.8636 5C9 5 3.81818 8.2 0.954545 13ZM3.40909 11.1333C3.27273 11.1333 3.13636 11 3 10.8667C3.13636 10.7333 3.27273 10.6 3.40909 10.6C3.54545 10.6 3.68182 10.7333 3.68182 10.7333C3.68182 10.8667 3.54545 11 3.40909 11.1333ZM6 11.5333C6 11.6667 5.86364 11.9333 5.72727 11.9333C5.45455 12.0667 5.18182 11.9333 4.90909 11.8C5.04545 11.6667 5.31818 11.4 5.59091 11.1333C5.72727 11.4 6 11.4 6 11.5333ZM5.31818 9.4C5.31818 9.4 5.59091 9.53333 5.59091 9.66667C5.59091 9.8 5.45455 9.93333 5.31818 9.93333C5.31818 9.93333 5.18182 9.8 4.90909 9.66667C5.04545 9.53333 5.18182 9.53333 5.31818 9.4Z" fill="#D76700"/>
</svg>
