<svg width="30" height="30" viewBox="0 0 30 30" fill="none" xmlns="http://www.w3.org/2000/svg">
<g clip-path="url(#clip0_0_1646)">
<circle cx="15" cy="15" r="15" fill="#FEFEFE"/>
<path d="M14.4358 24.445C14.5164 24.445 14.597 24.445 14.6776 24.445C15.1612 24.445 15.6448 24.445 16.1283 24.445C16.6119 24.445 16.6925 24.29 16.6925 23.9025C16.6925 23.4375 16.6925 23.05 16.6925 22.585C16.2089 22.6625 15.8059 22.8175 15.3224 22.895C14.9194 22.9725 14.5164 23.1275 14.0328 23.205C13.8716 23.2825 13.791 23.36 13.6298 23.2825H13.5492C13.388 23.2825 13.3074 23.36 13.1462 23.36C12.9851 23.36 12.8239 23.4375 12.7433 23.205C12.6627 22.9725 12.7433 22.74 12.9851 22.6625C13.2268 22.585 13.4686 22.43 13.7104 22.3525C14.1134 22.1975 14.597 22.12 15.0806 22.12C15.1612 22.12 15.3224 22.12 15.3224 22.0425C15.5642 21.7325 15.8865 21.81 16.1283 21.7325C16.3701 21.655 16.5313 21.655 16.7731 21.5775C16.7731 20.9575 16.7731 20.415 16.7731 19.795C16.6925 19.8725 16.6925 19.8725 16.6119 19.95C16.4507 20.105 16.2895 20.105 16.1283 19.95C15.9671 19.795 15.8059 19.5625 15.6448 19.4075C15.5642 19.2525 15.403 19.175 15.3224 19.02C15.1612 18.865 15.0806 18.71 14.8388 18.7875C14.6776 18.865 14.5164 18.71 14.597 18.555C14.7582 18.3225 14.597 18.1675 14.5164 18.0125C14.4358 18.09 14.2746 17.935 14.4358 17.8575C14.5164 17.8575 14.6776 17.935 14.7582 18.0125C14.9194 18.1675 15 18.3225 15.1612 18.4775C15.3224 18.6325 15.4836 18.865 15.8059 18.71C15.8865 18.71 15.9671 18.71 16.0477 18.7875C16.2895 19.02 16.5313 19.33 16.6925 19.5625C16.6925 18.865 16.6925 18.1675 16.6925 17.47C16.4507 17.47 16.2089 17.625 16.1283 17.315C16.0477 17.005 16.3701 17.005 16.5313 17.005C16.6119 17.005 16.6119 17.005 16.6925 17.005C16.6925 16.85 16.6925 16.695 16.6925 16.54C16.6925 16.4625 16.6925 16.385 16.6925 16.385C16.7731 16.385 16.8537 16.385 16.8537 16.385C17.4179 16.385 18.0627 16.385 18.6268 16.385C18.7074 16.3075 18.788 16.23 18.8686 16.23C18.9492 16.23 19.0298 16.3075 19.0298 16.385C19.0298 16.385 19.0298 16.385 19.0298 16.4625C19.191 16.4625 19.3522 16.4625 19.594 16.4625C19.997 16.4625 20.1582 16.3075 20.1582 15.92C20.1582 14.99 20.1582 14.06 20.1582 13.0525C20.1582 12.665 19.997 12.51 19.594 12.51C18.7074 12.51 17.8209 12.51 16.9343 12.51C16.8537 12.51 16.7731 12.51 16.7731 12.51C16.7731 11.8125 16.7731 11.115 16.7731 10.4175C16.7731 10.2625 16.8537 10.1075 16.9343 9.875C16.8537 9.9525 16.9343 9.875 16.9343 9.875C16.7731 9.875 16.5313 9.875 16.2895 9.7975C16.2895 9.7975 16.2089 9.6425 16.2895 9.565C16.3701 9.41 16.5313 9.255 16.6119 9.1775C16.6925 9.1775 16.8537 9.255 17.0149 9.3325C17.0955 9.41 17.0955 9.565 17.1761 9.6425C17.3373 9.565 17.4985 9.4875 17.7403 9.4875C18.3851 9.4875 19.0298 9.4875 19.7552 9.4875C20.0776 9.4875 20.2388 9.3325 20.2388 9.0225H20.1582C19.997 9.0225 19.9164 8.8675 19.9164 8.8675C19.594 8.48 19.6746 8.4025 19.997 8.17C20.0776 8.17 20.1582 8.0925 20.3194 8.0925C20.3194 7.9375 20.3194 7.7825 20.3194 7.6275C20.3194 7.55 20.1582 7.55 20.0776 7.55C20.0776 7.6275 19.997 7.705 19.8358 7.7825C19.594 8.015 19.4328 8.0925 19.3522 8.0925C19.2716 8.17 19.1104 8.17 18.9492 8.2475C18.6268 8.5575 18.3851 8.015 18.0627 8.015C18.0627 7.9375 18.0627 7.7825 18.1433 7.7825C18.3851 7.6275 18.6268 7.55 18.8686 7.55C18.8686 7.4725 18.788 7.395 18.8686 7.395C19.0298 7.24 19.191 7.1625 19.3522 7.085C19.4328 7.085 19.594 7.1625 19.594 7.085C19.9164 6.8525 19.997 7.085 20.0776 7.3175C20.1582 7.1625 20.2388 7.085 20.4 6.93C20.4 6.775 20.4 6.62 20.4 6.5425C20.4 6.2325 20.2388 6.0775 19.8358 6.0775C19.3522 6.0775 18.9492 6.0775 18.4656 6.0775C18.5462 6.155 18.5462 6.155 18.6268 6.2325C18.788 6.3875 19.0298 6.465 18.788 6.6975C18.4656 7.0075 18.3045 7.0075 18.0627 6.775C17.5791 6.465 17.4179 6.2325 17.1761 6C16.6119 6 15.9671 6.0775 15.403 6.31C15.2418 6.3875 15.0806 6.465 15 6.5425C15 6.6975 15 6.775 15.0806 6.93C15.0806 7.085 15.1612 7.1625 15.1612 7.3175C15.1612 7.395 15.1612 7.55 15.0806 7.55C15 7.55 14.8388 7.55 14.8388 7.55C14.597 7.24 14.4358 7.085 14.2746 6.93C13.8716 7.1625 13.5492 7.55 13.2268 7.9375C12.7433 8.7125 12.5821 9.565 12.5821 10.495C12.5821 11.115 12.5821 11.735 12.5821 12.355C12.5821 12.4325 12.5821 12.51 12.5821 12.51C12.5015 12.51 12.4209 12.51 12.4209 12.51C11.6149 12.51 10.9701 12.51 10.2448 12.51C10.2448 12.82 10.4865 12.975 10.6477 12.975C10.9701 12.975 11.3731 13.3625 11.4537 13.6725C11.4537 13.75 11.3731 13.8275 11.5343 13.8275C11.8567 13.8275 12.0985 14.215 12.0179 14.525C11.9373 14.7575 11.9373 14.99 11.9373 15.2225C11.9373 15.3 12.0179 15.3775 12.0179 15.3775C12.3403 15.3 12.5015 15.455 12.8239 15.455C13.1462 15.455 13.1462 15.455 12.9851 15.765C12.8239 16.075 12.5015 16.3075 12.0985 16.4625C12.0179 16.4625 11.9373 16.385 11.9373 16.385C12.0985 15.9975 11.7761 15.765 11.6149 15.5325C11.4537 15.3775 11.3731 15.2225 11.4537 14.99C11.5343 14.835 11.3731 14.68 11.2119 14.7575C11.0507 14.835 10.8895 14.7575 10.8089 14.68C10.4865 14.37 10.003 14.06 10.1642 13.44C10.1642 13.2075 9.84177 12.8975 9.59998 12.8975C9.59998 12.975 9.59998 13.0525 9.59998 13.13C9.59998 14.06 9.59998 14.99 9.59998 15.9975C9.59998 16.385 9.76117 16.54 10.1642 16.54C10.9701 16.54 11.6955 16.54 12.4209 16.54C12.5015 16.54 12.5821 16.54 12.5821 16.54V16.6175V16.695C12.5821 18.4 12.5821 20.1825 12.5821 21.8875C12.6627 21.8875 12.8239 21.81 12.8239 21.8875C12.9851 22.0425 13.0656 22.1975 13.1462 22.43C13.1462 22.43 13.0656 22.585 12.9851 22.585C12.8239 22.585 12.7433 22.585 12.5821 22.585C12.5821 23.05 12.5821 23.5925 12.5821 24.0575C12.5821 24.445 12.7433 24.6 13.1462 24.6C13.5492 24.445 13.9522 24.445 14.4358 24.445ZM19.5134 12.5875C19.594 12.51 19.7552 12.51 19.7552 12.5875C19.8358 12.665 19.8358 12.82 19.7552 12.82C19.7552 12.975 19.594 12.975 19.4328 12.975C19.5134 12.82 19.4328 12.665 19.5134 12.5875ZM19.0298 13.3625C19.1104 13.44 19.2716 13.5175 19.3522 13.595C19.2716 13.75 19.2716 13.905 19.191 14.06C19.1104 13.9825 18.9492 13.8275 18.9492 13.75C18.8686 13.595 18.9492 13.5175 19.0298 13.3625ZM11.6149 13.595C11.5343 13.44 11.3731 13.44 11.3731 13.3625C11.3731 13.285 11.4537 13.2075 11.5343 13.2075C11.5343 13.2075 11.6955 13.285 11.6955 13.3625C11.6955 13.3625 11.6955 13.44 11.6149 13.595ZM16.5313 12.8975C16.5313 13.285 16.3701 13.6725 16.7731 13.9825C16.9343 14.215 17.0955 14.4475 17.4179 14.2925C17.5791 14.4475 17.8209 14.6025 17.9015 14.835C17.9015 14.9125 17.6597 15.145 17.4985 15.2225C17.4179 15.2225 17.2567 15.145 17.2567 15.0675C16.9343 14.68 16.4507 14.37 16.2089 13.905C16.1283 13.75 15.9671 13.6725 15.8865 13.5175C15.6448 13.3625 15.403 13.13 15.2418 12.8975C15.1612 12.82 15 12.665 15.2418 12.51C15.403 12.355 15.5642 12.1225 15.8059 12.355C15.8865 12.355 15.9671 12.355 16.0477 12.355C16.4507 12.355 16.5313 12.51 16.5313 12.8975ZM13.6298 8.7125C13.6298 8.635 13.7104 8.48 13.7104 8.4025C13.7104 8.2475 13.7104 8.015 13.7104 7.86C13.7104 7.6275 13.9522 7.4725 14.194 7.55C14.194 7.55 14.2746 7.705 14.2746 7.7825C14.0328 8.015 14.0328 8.015 14.3552 8.2475C14.597 8.48 14.8388 8.48 15.1612 8.325C15.403 8.2475 15.6448 8.17 15.8865 8.4025C15.8865 8.48 15.9671 8.48 16.0477 8.48C16.0477 8.4025 16.1283 8.325 16.1283 8.2475C16.2089 7.7825 16.2089 7.705 16.5313 7.6275C16.9343 7.55 17.4179 7.9375 17.3373 8.325C17.3373 8.5575 17.1761 8.5575 17.0149 8.635C16.7731 8.7125 16.4507 8.79 16.1283 8.8675C15.8865 8.945 15.6448 9.0225 15.3224 9.1C15.0806 9.1 14.8388 9.255 14.597 8.945C14.597 8.8675 14.4358 8.945 14.3552 8.945C14.194 8.945 14.0328 9.0225 13.8716 9.0225C13.791 9.0225 13.6298 9.0225 13.5492 8.945C13.5492 8.8675 13.6298 8.79 13.6298 8.7125ZM12.9851 9.255C12.9045 9.255 12.8239 9.1775 12.7433 9.1C12.6627 9.0225 12.8239 8.945 12.9045 8.8675C12.9851 8.945 13.0656 9.0225 13.0656 9.1L12.9851 9.255ZM13.0656 10.5725C13.1462 10.495 13.1462 10.34 13.2268 10.34C13.2268 10.34 13.3074 10.34 13.388 10.34C13.4686 10.34 13.5492 10.34 13.6298 10.34C13.7104 10.34 13.8716 10.34 13.9522 10.34C14.0328 10.34 14.1134 10.34 14.1134 10.34C14.2746 10.4175 14.2746 10.805 14.1134 11.115C14.0328 11.425 13.8716 11.27 13.7104 11.1925C13.6298 11.115 13.5492 11.0375 13.4686 11.0375C13.388 10.8825 13.388 10.805 13.3074 10.7275C13.3074 10.7275 13.3074 10.7275 13.3074 10.65C13.2268 10.65 13.1462 10.65 13.0656 10.5725ZM12.9851 17.0825C12.9851 16.85 12.9851 16.6175 13.0656 16.385L13.1462 16.3075C13.4686 16.4625 13.9522 16.23 14.194 16.695C14.2746 16.7725 14.4358 17.005 14.4358 17.0825C14.4358 17.2375 14.2746 17.3925 14.1134 17.47C14.0328 17.47 13.8716 17.3925 13.791 17.315C13.6298 17.16 13.4686 17.005 13.2268 17.0825C13.1462 17.16 12.9851 17.0825 12.9851 17.0825Z" fill="#4267B2"/>
</g>
<defs>
<clipPath id="clip0_0_1646">
<rect width="30" height="30" fill="white"/>
</clipPath>
</defs>
</svg>
