<svg width="40" height="40" viewBox="0 0 40 40" fill="none" xmlns="http://www.w3.org/2000/svg">
<g clip-path="url(#clip0_181_2733)">
<circle cx="20" cy="20" r="20" fill="#FEFEFE"/>
<path d="M19.2478 32.5933C19.3553 32.5933 19.4627 32.5933 19.5702 32.5933C20.215 32.5933 20.8598 32.5933 21.5045 32.5933C22.1493 32.5933 22.2568 32.3867 22.2568 31.87C22.2568 31.25 22.2568 30.7333 22.2568 30.1133C21.612 30.2167 21.0747 30.4233 20.4299 30.5267C19.8926 30.63 19.3553 30.8367 18.7105 30.94C18.4956 31.0433 18.3881 31.1467 18.1732 31.0433H18.0657C17.8508 31.0433 17.7433 31.1467 17.5284 31.1467C17.3135 31.1467 17.0986 31.25 16.9911 30.94C16.8836 30.63 16.9911 30.32 17.3135 30.2167C17.6359 30.1133 17.9583 29.9067 18.2806 29.8033C18.818 29.5967 19.4627 29.4933 20.1075 29.4933C20.215 29.4933 20.4299 29.4933 20.4299 29.39C20.7523 28.9767 21.1821 29.08 21.5045 28.9767C21.8269 28.8733 22.0418 28.8733 22.3642 28.77C22.3642 27.9433 22.3642 27.22 22.3642 26.3933C22.2568 26.4967 22.2568 26.4967 22.1493 26.6C21.9344 26.8067 21.7195 26.8067 21.5045 26.6C21.2896 26.3933 21.0747 26.0833 20.8598 25.8767C20.7523 25.67 20.5374 25.5667 20.4299 25.36C20.215 25.1533 20.1075 24.9467 19.7851 25.05C19.5702 25.1533 19.3553 24.9467 19.4627 24.74C19.6777 24.43 19.4627 24.2233 19.3553 24.0167C19.2478 24.12 19.0329 23.9133 19.2478 23.81C19.3553 23.81 19.5702 23.9133 19.6777 24.0167C19.8926 24.2233 20.0001 24.43 20.215 24.6367C20.4299 24.8433 20.6448 25.1533 21.0747 24.9467C21.1821 24.9467 21.2896 24.9467 21.3971 25.05C21.7195 25.36 22.0418 25.7733 22.2568 26.0833C22.2568 25.1533 22.2568 24.2233 22.2568 23.2933C21.9344 23.2933 21.612 23.5 21.5045 23.0867C21.3971 22.6733 21.8269 22.6733 22.0418 22.6733C22.1493 22.6733 22.1493 22.6733 22.2568 22.6733C22.2568 22.4667 22.2568 22.26 22.2568 22.0533C22.2568 21.95 22.2568 21.8467 22.2568 21.8467C22.3642 21.8467 22.4717 21.8467 22.4717 21.8467C23.2239 21.8467 24.0836 21.8467 24.8359 21.8467C24.9433 21.7433 25.0508 21.64 25.1583 21.64C25.2657 21.64 25.3732 21.7433 25.3732 21.8467C25.3732 21.8467 25.3732 21.8467 25.3732 21.95C25.5881 21.95 25.803 21.95 26.1254 21.95C26.6627 21.95 26.8777 21.7433 26.8777 21.2267C26.8777 19.9867 26.8777 18.7467 26.8777 17.4033C26.8777 16.8867 26.6627 16.68 26.1254 16.68C24.9433 16.68 23.7612 16.68 22.5792 16.68C22.4717 16.68 22.3642 16.68 22.3642 16.68C22.3642 15.75 22.3642 14.82 22.3642 13.89C22.3642 13.6833 22.4717 13.4767 22.5792 13.1667C22.4717 13.27 22.5792 13.1667 22.5792 13.1667C22.3642 13.1667 22.0418 13.1667 21.7195 13.0633C21.7195 13.0633 21.612 12.8567 21.7195 12.7533C21.8269 12.5467 22.0418 12.34 22.1493 12.2367C22.2568 12.2367 22.4717 12.34 22.6866 12.4433C22.7941 12.5467 22.7941 12.7533 22.9015 12.8567C23.1165 12.7533 23.3314 12.65 23.6538 12.65C24.5135 12.65 25.3732 12.65 26.3404 12.65C26.7702 12.65 26.9851 12.4433 26.9851 12.03H26.8777C26.6627 12.03 26.5553 11.8233 26.5553 11.8233C26.1254 11.3067 26.2329 11.2033 26.6627 10.8933C26.7702 10.8933 26.8777 10.79 27.0926 10.79C27.0926 10.5833 27.0926 10.3767 27.0926 10.17C27.0926 10.0667 26.8777 10.0667 26.7702 10.0667C26.7702 10.17 26.6627 10.2733 26.4478 10.3767C26.1254 10.6867 25.9105 10.79 25.803 10.79C25.6956 10.8933 25.4806 10.8933 25.2657 10.9967C24.8359 11.41 24.5135 10.6867 24.0836 10.6867C24.0836 10.5833 24.0836 10.3767 24.1911 10.3767C24.5135 10.17 24.8359 10.0667 25.1583 10.0667C25.1583 9.96333 25.0508 9.86 25.1583 9.86C25.3732 9.65333 25.5881 9.55 25.803 9.44667C25.9105 9.44667 26.1254 9.55 26.1254 9.44667C26.5553 9.13667 26.6627 9.44667 26.7702 9.75667C26.8777 9.55 26.9851 9.44667 27.2001 9.24C27.2001 9.03333 27.2001 8.82667 27.2001 8.72333C27.2001 8.31 26.9851 8.10333 26.4478 8.10333C25.803 8.10333 25.2657 8.10333 24.6209 8.10333C24.7284 8.20667 24.7284 8.20667 24.8359 8.31C25.0508 8.51667 25.3732 8.62 25.0508 8.93C24.6209 9.34333 24.406 9.34333 24.0836 9.03333C23.4389 8.62 23.2239 8.31 22.9015 8C22.1493 8 21.2896 8.10333 20.5374 8.41333C20.3224 8.51667 20.1075 8.62 20 8.72333C20 8.93 20.0001 9.03333 20.1075 9.24C20.1075 9.44667 20.215 9.55 20.215 9.75667C20.215 9.86 20.215 10.0667 20.1075 10.0667C20.0001 10.0667 19.7851 10.0667 19.7851 10.0667C19.4627 9.65333 19.2478 9.44667 19.0329 9.24C18.4956 9.55 18.0657 10.0667 17.6359 10.5833C16.9911 11.6167 16.7762 12.7533 16.7762 13.9933C16.7762 14.82 16.7762 15.6467 16.7762 16.4733C16.7762 16.5767 16.7762 16.68 16.7762 16.68C16.6687 16.68 16.5612 16.68 16.5612 16.68C15.4866 16.68 14.6269 16.68 13.6598 16.68C13.6598 17.0933 13.9821 17.3 14.1971 17.3C14.6269 17.3 15.1642 17.8167 15.2717 18.23C15.2717 18.3333 15.1642 18.4367 15.3792 18.4367C15.809 18.4367 16.1314 18.9533 16.0239 19.3667C15.9165 19.6767 15.9165 19.9867 15.9165 20.2967C15.9165 20.4 16.0239 20.5033 16.0239 20.5033C16.4538 20.4 16.6687 20.6067 17.0986 20.6067C17.5284 20.6067 17.5284 20.6067 17.3135 21.02C17.0986 21.4333 16.6687 21.7433 16.1314 21.95C16.0239 21.95 15.9165 21.8467 15.9165 21.8467C16.1314 21.33 15.7015 21.02 15.4866 20.71C15.2717 20.5033 15.1642 20.2967 15.2717 19.9867C15.3792 19.78 15.1642 19.5733 14.9493 19.6767C14.7344 19.78 14.5195 19.6767 14.412 19.5733C13.9821 19.16 13.3374 18.7467 13.5523 17.92C13.5523 17.61 13.1224 17.1967 12.8 17.1967C12.8 17.3 12.8 17.4033 12.8 17.5067C12.8 18.7467 12.8 19.9867 12.8 21.33C12.8 21.8467 13.015 22.0533 13.5523 22.0533C14.6269 22.0533 15.5941 22.0533 16.5612 22.0533C16.6687 22.0533 16.7762 22.0533 16.7762 22.0533V22.1567V22.26C16.7762 24.5333 16.7762 26.91 16.7762 29.1833C16.8836 29.1833 17.0986 29.08 17.0986 29.1833C17.3135 29.39 17.4209 29.5967 17.5284 29.9067C17.5284 29.9067 17.4209 30.1133 17.3135 30.1133C17.0986 30.1133 16.9911 30.1133 16.7762 30.1133C16.7762 30.7333 16.7762 31.4567 16.7762 32.0767C16.7762 32.5933 16.9911 32.8 17.5284 32.8C18.0657 32.5933 18.603 32.5933 19.2478 32.5933ZM26.018 16.7833C26.1254 16.68 26.3404 16.68 26.3404 16.7833C26.4478 16.8867 26.4478 17.0933 26.3404 17.0933C26.3404 17.3 26.1254 17.3 25.9105 17.3C26.018 17.0933 25.9105 16.8867 26.018 16.7833ZM25.3732 17.8167C25.4806 17.92 25.6956 18.0233 25.803 18.1267C25.6956 18.3333 25.6956 18.54 25.5881 18.7467C25.4806 18.6433 25.2657 18.4367 25.2657 18.3333C25.1583 18.1267 25.2657 18.0233 25.3732 17.8167ZM15.4866 18.1267C15.3792 17.92 15.1642 17.92 15.1642 17.8167C15.1642 17.7133 15.2717 17.61 15.3792 17.61C15.3792 17.61 15.5941 17.7133 15.5941 17.8167C15.5941 17.8167 15.5941 17.92 15.4866 18.1267ZM22.0418 17.1967C22.0418 17.7133 21.8269 18.23 22.3642 18.6433C22.5792 18.9533 22.7941 19.2633 23.2239 19.0567C23.4389 19.2633 23.7612 19.47 23.8687 19.78C23.8687 19.8833 23.5463 20.1933 23.3314 20.2967C23.2239 20.2967 23.009 20.1933 23.009 20.09C22.5792 19.5733 21.9344 19.16 21.612 18.54C21.5045 18.3333 21.2896 18.23 21.1821 18.0233C20.8598 17.8167 20.5374 17.5067 20.3224 17.1967C20.215 17.0933 20.0001 16.8867 20.3224 16.68C20.5374 16.4733 20.7523 16.1633 21.0747 16.4733C21.1821 16.4733 21.2896 16.4733 21.3971 16.4733C21.9344 16.4733 22.0418 16.68 22.0418 17.1967ZM18.1732 11.6167C18.1732 11.5133 18.2806 11.3067 18.2806 11.2033C18.2806 10.9967 18.2806 10.6867 18.2806 10.48C18.2806 10.17 18.603 9.96333 18.9254 10.0667C18.9254 10.0667 19.0329 10.2733 19.0329 10.3767C18.7105 10.6867 18.7105 10.6867 19.1403 10.9967C19.4627 11.3067 19.7851 11.3067 20.215 11.1C20.5374 10.9967 20.8598 10.8933 21.1821 11.2033C21.1821 11.3067 21.2896 11.3067 21.3971 11.3067C21.3971 11.2033 21.5045 11.1 21.5045 10.9967C21.612 10.3767 21.612 10.2733 22.0418 10.17C22.5792 10.0667 23.2239 10.5833 23.1165 11.1C23.1165 11.41 22.9015 11.41 22.6866 11.5133C22.3642 11.6167 21.9344 11.72 21.5045 11.8233C21.1821 11.9267 20.8598 12.03 20.4299 12.1333C20.1075 12.1333 19.7851 12.34 19.4627 11.9267C19.4627 11.8233 19.2478 11.9267 19.1403 11.9267C18.9254 11.9267 18.7105 12.03 18.4956 12.03C18.3881 12.03 18.1732 12.03 18.0657 11.9267C18.0657 11.8233 18.1732 11.72 18.1732 11.6167ZM17.3135 12.34C17.206 12.34 17.0986 12.2367 16.9911 12.1333C16.8836 12.03 17.0986 11.9267 17.206 11.8233C17.3135 11.9267 17.4209 12.03 17.4209 12.1333L17.3135 12.34ZM17.4209 14.0967C17.5284 13.9933 17.5284 13.7867 17.6359 13.7867C17.6359 13.7867 17.7433 13.7867 17.8508 13.7867C17.9583 13.7867 18.0657 13.7867 18.1732 13.7867C18.2806 13.7867 18.4956 13.7867 18.603 13.7867C18.7105 13.7867 18.818 13.7867 18.818 13.7867C19.0329 13.89 19.0329 14.4067 18.818 14.82C18.7105 15.2333 18.4956 15.0267 18.2806 14.9233C18.1732 14.82 18.0657 14.7167 17.9583 14.7167C17.8508 14.51 17.8508 14.4067 17.7433 14.3033C17.7433 14.3033 17.7433 14.3033 17.7433 14.2C17.6359 14.2 17.5284 14.2 17.4209 14.0967ZM17.3135 22.7767C17.3135 22.4667 17.3135 22.1567 17.4209 21.8467L17.5284 21.7433C17.9583 21.95 18.603 21.64 18.9254 22.26C19.0329 22.3633 19.2478 22.6733 19.2478 22.7767C19.2478 22.9833 19.0329 23.19 18.818 23.2933C18.7105 23.2933 18.4956 23.19 18.3881 23.0867C18.1732 22.88 17.9583 22.6733 17.6359 22.7767C17.5284 22.88 17.3135 22.7767 17.3135 22.7767Z" fill="#4267B2"/>
</g>
<defs>
<clipPath id="clip0_181_2733">
<rect width="40" height="40" fill="white"/>
</clipPath>
</defs>
</svg>
