<svg width="35" height="35" viewBox="0 0 35 35" fill="none" xmlns="http://www.w3.org/2000/svg">
<path d="M13.719 18.4618C13.6705 18.6092 13.6705 18.7075 13.7675 18.8058C13.9129 18.9532 14.0098 19.1498 14.2522 19.1744C14.5188 19.1744 14.6642 19.3463 14.6158 19.6166C14.6158 19.6903 14.5915 19.764 14.64 19.8132C14.737 19.9606 14.6642 20.0589 14.5673 20.1326C14.3734 20.28 14.3249 20.28 14.131 20.0834C14.0826 20.0097 14.0098 19.936 13.9614 19.8623C13.9614 19.8623 13.9614 19.8623 13.9856 19.8623C13.8887 19.764 13.7675 19.6658 13.719 19.5429C13.6705 19.4201 13.7432 19.2235 13.6705 19.1252C13.622 19.0515 13.4039 19.1252 13.307 19.0515C13.1615 18.9532 12.9919 18.8304 13.1131 18.5847C13.1373 18.5355 13.0888 18.4127 13.0404 18.339C12.9677 18.2407 12.8949 18.1424 12.8222 18.0687H5.89045V21.2874L5.91468 21.3119C5.93892 21.3365 5.93892 21.4102 5.96316 21.4839C5.9874 21.5822 6.01163 21.6805 6.01163 21.7788C6.01163 21.8279 5.96316 21.9016 5.93892 21.9016C5.91468 21.9016 5.89045 21.9016 5.89045 21.9016V23.0564L5.91468 23.081C6.15705 23.3267 6.15705 23.3513 6.4479 23.1547C6.59332 23.0564 6.66603 23.0564 6.81145 23.1793C7.12653 23.4495 7.1023 23.7935 7.05382 24.1621C7.05382 24.1867 7.00535 24.2358 7.02959 24.2604C7.12653 24.8009 6.64179 24.8992 6.35095 25.1449C6.20553 25.2677 6.08434 25.0712 5.96316 24.9729C5.86621 24.8746 5.93892 24.7763 6.01163 24.7026C6.27824 24.3586 6.27824 24.3586 5.9874 24.0392C5.96316 23.9901 5.91468 23.9655 5.89045 23.9164V28.0687C5.89045 28.0687 5.89045 28.0687 5.89045 28.0933C5.89045 28.167 5.91468 28.2161 5.91468 28.2899C5.91468 28.3144 5.89045 28.3636 5.89045 28.3881V28.8058C5.91468 28.8058 5.93892 28.8058 5.93892 28.7813C6.08434 28.7567 6.254 28.7076 6.37519 28.855C6.47214 28.9533 6.56908 28.9041 6.64179 28.7813C6.83569 28.4618 7.34467 28.3144 7.68399 28.4618C8.0233 28.6093 8.77465 28.4864 9.01702 28.2407C9.04126 28.2161 9.06549 28.1424 9.08973 28.0933C9.13821 28.0442 9.18668 27.9459 9.23515 27.9459C9.69566 27.823 10.1562 27.7002 10.6167 27.6019C10.6894 27.5773 10.7863 27.5773 10.859 27.6019C10.9075 27.6019 10.9802 27.651 11.0287 27.7002C11.0529 27.7247 11.0045 27.7985 10.9802 27.8476C10.8348 28.1424 10.6167 28.3144 10.3501 28.3144C10.1804 28.3636 10.1077 28.3881 10.0107 28.4127C9.88955 28.4373 9.76837 28.4618 9.69566 28.3144C9.62295 28.1916 9.47752 28.2161 9.47752 28.339C9.45329 28.5601 9.30786 28.6093 9.13821 28.6093C8.77465 28.6093 8.43533 28.7567 8.09601 28.9041C7.97483 28.9532 7.85364 28.9778 7.85364 29.1498C7.85364 29.2972 7.73246 29.2972 7.63551 29.2235C7.46585 29.1252 7.32043 29.027 7.15077 28.9287C7.12653 28.9041 7.02959 28.9778 7.02959 29.0024C7.02959 29.199 6.85993 29.2235 6.71451 29.2727C6.52061 29.3218 6.35095 29.3709 6.15705 29.4447C6.08434 29.4692 6.01163 29.5429 5.96316 29.5921C5.93892 29.6412 5.91468 29.6658 5.86621 29.7149V30.2555C5.9874 30.3292 6.01163 30.3046 6.06011 30.1326C6.10858 29.9606 6.18129 29.9361 6.32671 30.0343C6.47214 30.1326 6.64179 30.2309 6.81145 30.3046C6.83569 30.3046 6.93264 30.2555 6.93264 30.2309C6.93264 30.0343 7.12653 30.0098 7.24772 29.9606C7.39314 29.9115 7.49009 29.9361 7.61127 30.0589C7.73246 30.1818 8.0233 30.108 8.07178 29.9115C8.14449 29.6166 8.4111 29.6904 8.60499 29.6412C8.79889 29.5921 8.92007 29.7149 8.99278 29.8869C9.01702 29.9606 9.04126 30.0098 9.06549 30.0835C9.08973 30.108 9.11397 30.1326 9.13821 30.1326C9.16244 30.1326 9.21092 30.0835 9.18668 30.0589C9.18668 29.9606 9.16244 29.8869 9.16244 29.7886C9.11397 29.5184 9.13821 29.4938 9.40481 29.3955C9.50176 29.3709 9.57447 29.3464 9.67142 29.3218C9.76837 29.2972 9.84108 29.2972 9.93803 29.2727C10.1077 29.2235 10.2773 29.1744 10.4712 29.1498C10.6167 29.1252 10.7621 29.0761 10.8833 29.2727C10.956 29.3955 11.1014 29.3709 11.1014 29.199C11.1014 29.0761 11.1256 28.9778 11.2711 28.9532C11.465 28.9041 11.6589 28.8795 11.877 28.855C11.877 28.855 11.9497 29.0515 11.9255 29.0761C11.78 29.199 11.8043 29.3464 11.78 29.4938C11.7558 29.7395 11.465 29.9115 11.3195 29.7395C11.1256 29.4938 10.9317 29.6166 10.7378 29.6658C10.4955 29.7395 10.2773 29.8132 10.035 29.8623C9.86532 29.9115 9.86532 29.9852 9.88955 30.1326C9.96226 30.5012 9.96226 30.4766 9.59871 30.5749C9.13821 30.6977 8.70194 30.8206 8.24144 30.9434C7.87788 31.0417 7.85364 31.0417 7.63551 30.7223C7.61127 30.6732 7.53856 30.6486 7.49009 30.5994C7.46585 30.6732 7.46585 30.7223 7.44162 30.796C7.44162 30.8206 7.44162 30.8697 7.46585 30.8943C7.49009 30.9926 7.51433 31.1154 7.3689 31.14C7.32043 31.14 7.22348 31.0663 7.17501 30.9926C6.95688 30.6732 6.88416 30.624 6.52061 30.7469C6.30248 30.796 6.10858 30.9434 5.89045 30.7469C5.89045 30.7469 5.89045 30.7469 5.86621 30.7469V31.5823H10.3258C10.3016 31.5577 10.2531 31.5331 10.1804 31.5085C10.2531 31.4348 10.2773 31.3857 10.3258 31.3611C10.3501 31.3611 10.447 31.4103 10.447 31.4348C10.447 31.484 10.4228 31.5577 10.3743 31.5823H14.9308C14.8097 31.5085 14.7612 31.3857 14.7854 31.1891C14.7854 31.1154 14.7854 31.0171 14.737 30.968C14.64 30.8206 14.5188 30.6977 14.6158 30.4766C14.6885 30.3292 14.6158 30.1326 14.6158 29.9361C14.6158 29.8623 14.64 29.8132 14.6642 29.7395C14.737 29.7641 14.8097 29.7641 14.8824 29.8132C14.9793 29.9115 15.0763 30.0343 15.1732 30.1572C15.2702 30.28 15.3914 30.4029 15.4883 30.5257C15.5368 30.5994 15.5852 30.6977 15.561 30.7714C15.4883 30.968 15.561 31.0417 15.7064 31.14C15.8276 31.2137 15.9246 31.3611 16.0215 31.4594C16.0457 31.484 16.07 31.5085 16.07 31.5331H16.2639V30.8451C16.2396 30.8451 16.2396 30.8206 16.2154 30.8206C16.1912 30.796 16.2154 30.6977 16.2396 30.6732C16.2396 30.6732 16.2639 30.6732 16.2639 30.6486V26.6928C16.2154 26.6928 16.1427 26.6437 16.1185 26.6191C16.0942 26.6437 16.07 26.6682 16.07 26.6682C16.0457 26.7419 15.9973 26.7911 15.9246 26.8157C15.9003 26.8157 15.8034 26.7665 15.8034 26.7174C15.8034 26.6437 15.8276 26.57 15.8761 26.5208C15.9003 26.4962 15.9246 26.4471 15.9488 26.4225C15.9246 26.3734 15.9003 26.3242 15.9246 26.226C15.9488 26.1523 15.9488 26.0785 15.9488 26.0048C15.8761 26.0048 15.7791 25.9803 15.7307 26.0294C15.4883 26.1768 15.2944 26.1031 15.149 25.882C15.1247 25.8574 15.1005 25.8083 15.0763 25.7837C15.0763 25.7837 15.052 25.7837 15.052 25.7591C15.052 25.7591 15.052 25.7591 15.052 25.7346C14.9793 25.6609 14.8581 25.5871 14.7127 25.6363C14.6158 25.6609 14.5431 25.538 14.64 25.4397C14.7854 25.2677 14.9308 25.0712 15.1247 24.9975C15.2944 24.9483 15.5125 25.0712 15.6822 25.1449C15.8034 25.194 15.8761 25.3169 15.973 25.4152C16.0942 25.538 16.1912 25.5871 16.3366 25.5134V22.221C16.2639 22.1228 16.1669 22.0245 16.0942 21.9262C16.0215 21.8279 15.9488 21.7542 15.7791 21.7788C15.5368 21.8279 15.2217 21.4102 15.2459 21.1645C15.2944 20.8943 15.2702 20.8451 15.0036 20.8943C14.7854 20.9188 14.737 20.7468 14.6885 20.624C14.6642 20.5748 14.737 20.452 14.7612 20.3537C14.7612 20.3291 14.8097 20.3046 14.8339 20.28C15.1005 20.0097 15.2459 20.0097 15.4883 20.3046C15.561 20.4029 15.6337 20.4766 15.7064 20.5748C15.7064 20.5748 15.7064 20.5748 15.6822 20.5994C15.7791 20.7223 15.8761 20.8205 15.973 20.9434C16.0215 20.9925 16.07 21.0908 16.0457 21.1154C15.9003 21.3857 16.1185 21.5331 16.2396 21.7051C16.2639 21.7296 16.2881 21.7788 16.3124 21.8034V18.0441H13.5251C13.6705 18.1178 13.7917 18.2898 13.719 18.4618ZM6.32671 19.8377C6.30248 19.8623 6.18129 19.764 6.18129 19.7149C6.18129 19.6412 6.254 19.5675 6.30248 19.4692C6.4479 19.5183 6.56908 19.5675 6.66603 19.592C6.54485 19.6903 6.4479 19.764 6.32671 19.8377ZM11.7316 31.1154C11.7073 31.1154 11.6589 31.0908 11.5861 31.0663C11.6589 31.0171 11.6831 30.968 11.7316 30.968C11.7558 30.968 11.8043 31.0171 11.8285 31.0171C11.8043 31.0663 11.78 31.1154 11.7316 31.1154ZM15.7064 27.7739C15.9973 27.7002 16.0457 27.7247 16.0942 27.9704C16.0942 28.0933 16.2154 28.2653 15.9973 28.3144C15.7549 28.3636 15.5852 28.2653 15.5125 28.0442C15.4398 27.8476 15.561 27.7985 15.7064 27.7739ZM13.622 22.0982C13.6705 22.1719 13.719 22.1965 13.719 22.2456C13.719 22.2702 13.6705 22.3193 13.6463 22.3439C13.6221 22.3193 13.5736 22.2702 13.5493 22.2456C13.5493 22.221 13.5978 22.1719 13.622 22.0982ZM12.5314 21.9508C12.6041 21.9508 12.701 21.9753 12.798 21.9508C12.8949 21.9262 12.9919 21.8771 13.0404 21.9999C13.0646 22.0491 12.9919 22.1473 12.9677 22.1965C12.9434 22.221 12.9192 22.2456 12.8222 22.3193C12.798 22.3193 12.6526 22.4176 12.6283 22.3685C12.5314 22.2702 12.4829 22.1473 12.4344 21.9999C12.4102 22.0245 12.5071 21.9753 12.5314 21.9508ZM12.9434 27.6019C12.8949 27.6265 12.8222 27.5773 12.7253 27.5528C12.7738 27.479 12.8222 27.3808 12.8465 27.3808C12.8949 27.3808 12.9677 27.4299 12.9919 27.4545C13.0161 27.5036 12.9677 27.6019 12.9434 27.6019ZM11.9012 20.1817C11.9497 20.0834 11.9982 19.9606 12.0709 19.8869C12.0951 19.8377 12.1678 19.8377 12.2405 19.8132C12.2648 19.8623 12.3133 19.936 12.289 19.9852C12.2405 20.108 12.1436 20.2309 12.0709 20.3537C12.0466 20.3783 11.9982 20.3783 11.9497 20.3783C11.9255 20.3783 11.9012 20.3291 11.8527 20.3046C11.877 20.2309 11.877 20.2063 11.9012 20.1817ZM12.1678 24.2604C12.1678 24.3095 12.1678 24.3586 12.1436 24.3832C12.0951 24.4078 12.0466 24.4078 11.9982 24.3832C11.9739 24.3586 11.9739 24.3095 11.9497 24.2358C12.0709 24.2604 12.1194 24.2604 12.1678 24.2604ZM11.1499 23.9164C11.2226 23.9164 11.2953 24.0147 11.368 24.0884C11.3195 24.2112 11.2711 24.3095 11.2226 24.4078C11.1499 24.3095 11.0529 24.2112 11.0045 24.0884C10.9802 24.0638 11.1014 23.9164 11.1499 23.9164ZM7.53856 21.8771C7.73246 21.7051 7.80517 21.7296 7.97483 21.9262C8.09601 22.0736 8.07178 22.2456 7.87788 22.393C7.73246 22.5159 7.65975 22.4176 7.5628 22.3193C7.3689 22.0736 7.3689 22.0245 7.53856 21.8771ZM7.97483 23.7198C7.92636 23.769 7.90212 23.8181 7.85364 23.8427C7.82941 23.8427 7.78093 23.7935 7.70822 23.7444C7.7567 23.6952 7.80517 23.6215 7.82941 23.6215C7.90212 23.6461 7.92636 23.6953 7.97483 23.7198ZM7.00535 21.4348C7.00535 21.4594 6.9084 21.4594 6.88416 21.4348C6.85993 21.4102 6.85993 21.3611 6.85993 21.2874C6.93264 21.2874 6.95688 21.2874 7.00535 21.2874C7.00535 21.3365 7.02959 21.4102 7.00535 21.4348ZM6.93264 19.5429C7.00535 19.4692 7.02959 19.4201 7.05382 19.4201C7.1023 19.4201 7.12653 19.4692 7.17501 19.4692C7.15077 19.4938 7.15077 19.5675 7.1023 19.5675C7.07806 19.5675 7.02959 19.5429 6.93264 19.5429ZM6.22977 25.4643C6.30248 25.4889 6.37519 25.5134 6.39942 25.5626C6.42366 25.5871 6.37519 25.6854 6.32671 25.7591C6.254 25.6854 6.18129 25.6609 6.18129 25.6117C6.18129 25.5871 6.20553 25.5134 6.22977 25.4643ZM8.48381 27.5773C8.26567 27.6265 8.0233 27.7002 7.80517 27.7739C7.61127 27.823 7.51433 27.7493 7.49009 27.5528C7.41738 27.6019 7.29619 27.651 7.29619 27.7002C7.29619 27.9459 7.12653 27.9459 6.98111 27.9704C6.88416 27.995 6.78722 28.0196 6.69027 28.0442C6.32671 28.1179 5.9874 27.7739 6.08434 27.4053C6.10858 27.3562 6.18129 27.3071 6.254 27.2825C6.39942 27.2333 6.56908 27.2579 6.69027 27.1842C7.00535 26.9876 7.19925 27.2825 7.44162 27.3562C7.49009 27.3808 7.49009 27.479 7.51433 27.5282C7.63551 27.479 7.73246 27.4545 7.73246 27.2825C7.73246 27.2088 7.82941 27.1105 7.90212 27.0859C8.07178 27.0368 8.24144 27.0368 8.4111 27.0122C8.60499 26.9876 8.60499 27.1596 8.62923 27.2825C8.65347 27.4299 8.62923 27.5282 8.48381 27.5773ZM8.62923 25.9311C8.48381 26.054 8.45957 26.1768 8.60499 26.2997C8.45957 26.398 8.33838 26.5208 8.19296 26.6191C8.09601 26.6682 7.95059 26.7419 7.90212 26.7174C7.80517 26.6437 7.70822 26.4962 7.68399 26.3488C7.63551 26.1031 7.65975 26.1031 7.41738 26.1768C7.34467 26.2014 7.29619 26.226 7.22348 26.2505C7.19925 26.2505 7.12653 26.226 7.12653 26.226C7.12653 26.0785 7.12653 25.9066 7.15077 25.7591C7.15077 25.71 7.27196 25.6609 7.34467 25.6609C7.58704 25.6363 7.61127 25.5871 7.49009 25.3906C7.44162 25.3414 7.41738 25.2923 7.41738 25.2432C7.3689 25.194 7.32043 25.1449 7.29619 25.1203C7.27196 25.0957 7.27196 24.9975 7.29619 24.9729C7.39314 24.8992 7.51433 24.8255 7.61127 24.7272C7.61127 24.6781 7.61127 24.6535 7.58704 24.6043C7.5628 24.5798 7.61127 24.4815 7.65975 24.4569C7.70822 24.4569 7.80517 24.4569 7.82941 24.5061C7.99907 24.6781 8.12025 24.8746 8.28991 25.0466C8.4111 25.194 8.53228 25.3414 8.65347 25.4643C8.79889 25.6609 8.79889 25.8083 8.62923 25.9311ZM9.64718 27.3316C9.62295 27.3562 9.55023 27.3316 9.50176 27.3316C9.50176 27.2825 9.47752 27.2088 9.526 27.1596C9.55023 27.1351 9.62295 27.1351 9.71989 27.1351C9.67142 27.2333 9.67142 27.3071 9.64718 27.3316ZM9.50176 24.4078C9.38058 24.5061 9.30786 24.3586 9.21092 24.2849C9.08973 24.1867 9.01702 24.0638 8.82312 24.1375C8.72618 24.1621 8.6777 24.0638 8.75041 23.9901C8.84736 23.8672 8.94431 23.769 9.04126 23.6461C8.94431 23.5233 8.84736 23.425 8.77465 23.3021C8.75041 23.2776 8.77465 23.1793 8.79889 23.1547C8.82312 23.1301 8.89584 23.1056 8.92007 23.1301C9.01702 23.2284 9.11397 23.3021 9.16244 23.425C9.18668 23.4741 9.08973 23.597 9.04126 23.6707C9.13821 23.769 9.21092 23.8918 9.38058 23.8427C9.42905 23.8181 9.47752 23.8181 9.50176 23.8427C9.59871 23.941 9.7926 24.0392 9.76837 24.1129C9.74413 24.2112 9.59871 24.3341 9.50176 24.4078ZM9.67142 18.7567C9.57447 18.7567 9.45329 18.5847 9.35634 18.4864C9.3321 18.4372 9.40481 18.339 9.42905 18.2407C9.55023 18.2161 9.64718 18.1915 9.74413 18.167C9.76837 18.2407 9.76837 18.339 9.7926 18.4127V18.4372C9.81684 18.5847 9.86532 18.7567 9.67142 18.7567ZM10.447 25.3169C10.4228 25.3906 10.3985 25.4643 10.3743 25.538C10.3016 25.5134 10.2289 25.4889 10.1562 25.4397C10.1077 25.3906 10.0592 25.3414 10.035 25.3169C9.7926 25.022 9.7926 24.9483 9.9865 24.8009C10.0592 24.7518 10.2046 24.6781 10.2531 24.7272C10.3501 24.8255 10.4228 24.9483 10.4712 25.0957C10.4955 25.1449 10.447 25.2432 10.447 25.3169ZM10.859 20.108C10.8106 20.1326 10.7136 20.108 10.6651 20.0834C10.6167 20.0589 10.6167 19.9606 10.5924 19.8869C10.6409 19.8869 10.6651 19.8623 10.7136 19.8623C10.7863 19.8869 10.859 19.8869 10.9075 19.9115C10.9075 19.9852 10.9075 20.0834 10.859 20.108ZM11.2953 26.8402C11.2711 26.7911 11.2468 26.7665 11.1741 26.6928C11.1741 26.6682 11.1256 26.6191 11.0772 26.57C11.0287 26.4717 10.956 26.3488 11.0045 26.2997C11.0529 26.1523 11.1983 26.2997 11.2711 26.2997C11.4892 26.226 11.6104 26.2997 11.7316 26.4717C11.8043 26.2997 11.9255 26.1277 11.9982 26.1523C12.0951 26.1768 12.1436 26.2997 12.2163 26.3488C12.1921 26.4717 12.2163 26.6191 12.1678 26.6437C12.0709 26.6928 11.9497 26.7174 11.8285 26.7419C11.8043 26.7911 11.7558 26.8402 11.7073 26.8894C11.5377 26.9631 11.4165 26.9876 11.2953 26.8402ZM11.8527 27.7985C11.8527 27.823 11.7558 27.823 11.7316 27.7985C11.7073 27.7739 11.6831 27.7002 11.6831 27.6756C11.7316 27.6019 11.78 27.5036 11.8043 27.4299C11.6831 27.2825 11.7073 27.1596 11.8285 27.0368C11.9255 26.9385 12.0709 26.8648 12.1921 26.7911C12.2163 26.7665 12.3375 26.7911 12.3375 26.8157C12.3617 26.9876 12.4102 27.1596 12.3617 27.3071C12.3617 27.3071 12.3617 27.3071 12.3617 27.3316C12.3133 27.4299 12.1436 27.5282 12.0224 27.5773H11.9982C11.9497 27.6265 11.877 27.6756 11.8527 27.7985ZM12.4102 28.7813C12.4102 28.8058 12.386 28.855 12.3617 28.8795C12.3617 28.8795 12.3133 28.855 12.2648 28.8304C12.289 28.7813 12.3133 28.7567 12.3617 28.7321C12.3375 28.7567 12.4102 28.7813 12.4102 28.7813ZM12.289 30.9926C12.2648 30.9926 12.1921 30.9434 12.1436 30.9189C12.1678 30.8697 12.2163 30.8206 12.2648 30.7469C12.3375 30.796 12.386 30.8451 12.4102 30.8697C12.386 30.9189 12.3375 30.9926 12.289 30.9926ZM12.4102 23.7198C12.4587 23.6461 12.4829 23.6215 12.5071 23.5724C12.5556 23.597 12.6041 23.6461 12.6041 23.6707C12.6041 23.6952 12.5799 23.769 12.5556 23.769C12.5314 23.769 12.4829 23.7444 12.4102 23.7198ZM13.0161 28.4127C13.0646 28.511 13.1858 28.5847 13.0646 28.7075C13.0404 28.7321 12.9677 28.7321 12.9434 28.7075C12.798 28.5601 12.9434 28.4864 13.0161 28.4127C12.9919 28.4127 12.9919 28.4127 13.0161 28.4127C12.9919 28.3881 12.9919 28.3881 13.0161 28.4127C12.8707 28.2407 12.7253 28.0933 12.6041 27.9459C12.5556 27.8967 12.5799 27.7739 12.5799 27.7002C12.6526 27.7002 12.7495 27.7002 12.798 27.7247C12.8949 27.7739 12.9919 27.8476 13.0646 27.9459C13.2343 28.1424 13.21 28.167 13.0161 28.4127C13.0161 28.3881 13.0161 28.3881 13.0161 28.4127ZM13.1373 23.3267C13.21 23.1301 13.4282 22.9827 13.4282 22.737C13.4282 22.737 13.5251 22.6879 13.5736 22.7124C13.8402 22.8353 13.9614 23.0564 13.9614 23.3267C13.9614 23.4495 13.9614 23.5478 14.1068 23.5478C14.2037 23.5478 14.3492 23.4741 14.3734 23.6215C14.3976 23.7198 14.3007 23.8181 14.2764 23.8427C14.0098 24.0638 13.9614 24.0638 13.7917 23.8672C13.622 23.6952 13.5251 23.425 13.21 23.5233C13.1858 23.4987 13.1131 23.3758 13.1373 23.3267ZM13.719 30.7714C13.6221 30.6732 13.5493 30.6486 13.5251 30.5749C13.5251 30.5257 13.5736 30.452 13.5978 30.3783C13.6463 30.4275 13.7432 30.452 13.7675 30.5012C13.7917 30.5749 13.7432 30.6486 13.719 30.7714ZM13.9856 29.4201C13.9371 29.3955 13.8887 29.3709 13.8402 29.3218V29.3464C13.8402 29.4447 13.8644 29.5921 13.719 29.5921C13.6463 29.5921 13.5493 29.4938 13.4766 29.4447C13.4282 29.3955 13.3797 29.3464 13.3554 29.2727C13.21 29.027 13.21 28.9778 13.5009 28.7321C13.5493 28.7321 13.6705 28.683 13.719 28.7321C13.8159 28.8058 13.9129 28.8795 13.9371 29.0024C13.9856 29.0761 14.0341 29.1498 14.0583 29.2235C14.0826 29.2727 14.0098 29.3464 13.9856 29.4201ZM14.64 28.6093C14.5673 28.5601 14.4946 28.4864 14.3976 28.4127C14.4461 28.2899 14.4461 28.1424 14.4946 28.1179C14.6158 28.0687 14.737 28.0442 14.8824 28.0442C14.9066 28.0442 14.9793 28.1424 14.9551 28.167C14.8581 28.3144 14.737 28.4618 14.64 28.6093ZM14.6642 26.8648C14.7854 26.8402 14.9066 26.7665 15.0278 26.7665C15.1005 26.7665 15.2217 26.8157 15.2459 26.8648C15.2944 26.9876 15.1975 27.0614 15.1005 27.0859C15.0036 27.1105 14.9308 27.1351 14.8339 27.1596C14.5431 27.2333 14.2522 27.3071 13.9614 27.3808C13.7917 27.4299 13.622 27.479 13.5493 27.2579C13.5251 27.2088 13.4524 27.2088 13.4039 27.1842C13.3554 27.1596 13.307 27.1105 13.2827 27.0614C13.3554 27.0368 13.4524 26.9631 13.4766 26.9876C13.6705 27.1351 13.8644 27.0614 14.0583 27.0122C14.2522 26.9876 14.4461 26.9139 14.6642 26.8648ZM15.9246 24.5798C15.9488 24.6289 15.9246 24.7026 15.9246 24.7518C15.8519 24.7272 15.7791 24.7272 15.7307 24.6781C15.7064 24.6535 15.7064 24.5552 15.7064 24.4324C15.8034 24.5061 15.9003 24.5306 15.9246 24.5798ZM15.1732 23.7935C15.2944 23.7444 15.4156 23.5724 15.5368 23.7198C15.561 23.769 15.4641 23.941 15.3914 24.0884C15.2944 24.0638 15.1975 24.0638 15.149 24.0147C15.052 23.941 15.052 23.8181 15.1732 23.7935Z" fill="#171026"/>
<path d="M18.8573 18.2407C18.833 18.2407 18.8088 18.2161 18.7603 18.2161V20.28C18.8088 20.3046 18.8815 20.3291 18.93 20.3537C19.0269 20.4274 19.0269 20.5257 18.93 20.624C18.8815 20.6731 18.8088 20.6731 18.7603 20.6485V24.334C18.9057 24.5306 19.0754 24.7026 19.2208 24.8992C19.5844 25.3169 19.9479 25.7345 20.3115 26.1768C20.4084 26.2997 20.5781 26.4225 20.5054 26.6436C20.6508 26.5945 20.7477 26.6191 20.7962 26.8156C20.8447 26.963 20.8205 27.0368 20.675 27.0859C20.8447 27.307 21.0871 27.5282 21.1598 27.5282C21.3537 27.5527 21.5233 27.5527 21.7172 27.5773C21.7657 27.5773 21.8142 27.6756 21.8142 27.7247C21.7899 28.1178 22.105 28.4864 22.4686 28.511C22.6625 28.5355 22.7837 28.683 22.7837 28.8549C22.7594 29.0515 22.7594 29.2481 22.7594 29.4446C22.7594 29.4938 22.8321 29.5675 22.8564 29.5675C23.0745 29.4938 23.2199 29.6412 23.3653 29.7395C23.5108 29.8378 23.6077 29.764 23.7047 29.6658C23.8258 29.5675 23.947 29.5429 24.044 29.6658C24.1167 29.7886 24.2379 29.9115 24.0925 30.0835C23.8986 30.3292 23.8986 30.452 24.1409 30.6977C24.3591 30.9434 24.5772 31.1645 24.7711 31.3857C24.8196 31.3857 24.8438 31.3857 24.868 31.3857C24.965 31.4102 25.0862 31.4102 25.1831 31.4348C25.1831 31.4594 25.1831 31.5085 25.1589 31.5331H29.1822V29.3955C29.158 29.3463 29.158 29.2972 29.1822 29.2481V28.9778C29.158 28.9532 29.1337 28.9287 29.1337 28.9041C29.0368 28.9532 28.9641 29.0761 28.8429 28.9532C28.8187 28.9287 28.8187 28.8304 28.8429 28.8058C28.9641 28.7075 29.0368 28.8304 29.1095 28.9041C29.1337 28.8795 29.158 28.8795 29.158 28.8549V26.2505C29.1337 26.2259 29.1337 26.2014 29.1095 26.1768C28.9883 26.0048 28.8429 25.8328 28.6732 25.6608C28.6248 25.6117 28.5278 25.5626 28.4551 25.5626C28.14 25.538 28.0673 25.4151 28.0673 25.1203C28.0673 24.9974 27.9946 24.85 27.9219 24.7517C27.6311 24.3832 27.3402 24.0638 27.0494 23.6952C26.9767 23.5969 26.8797 23.4987 26.807 23.4004C26.71 23.2284 26.7828 23.1301 26.9524 23.1055C27.0978 23.081 27.2433 23.0564 27.3887 23.0318C27.4614 23.0318 27.5341 23.0318 27.5826 23.0564C27.6068 23.081 27.6068 23.1547 27.5826 23.2038C27.5099 23.4987 27.6795 23.6952 27.9704 23.6707C28.14 23.6461 28.1885 23.7198 28.1643 23.8672C28.14 24.0638 28.2127 24.1621 28.4309 24.1129C28.5763 24.0883 28.746 24.0883 28.8914 24.0392C29.061 23.9901 29.1095 23.8672 28.9883 23.7198C28.9399 23.6707 28.9156 23.6215 28.8671 23.5478C28.8429 23.5478 28.8429 23.5478 28.8187 23.5724C28.7217 23.5969 28.5763 23.6461 28.4309 23.6707C28.3339 23.6952 28.237 23.6952 28.1885 23.5724C28.14 23.4495 28.2127 23.3758 28.3339 23.3512C28.4793 23.3021 28.6248 23.253 28.6975 23.081C28.6975 23.0564 28.746 23.0318 28.7944 23.0318C28.8914 22.909 28.9883 22.8598 29.1337 22.9581C29.158 22.9581 29.1822 22.9581 29.2065 22.9581V22.2456C29.1337 22.2702 29.0368 22.2947 28.9399 22.2947C28.8914 22.2947 28.8187 22.2702 28.8187 22.221C28.7944 22.1719 28.8187 22.1227 28.8429 22.0736C28.8914 21.9999 28.9399 21.9016 28.9883 21.8279C29.0368 21.7788 29.0853 21.7296 29.1337 21.705C29.158 21.705 29.1822 21.6805 29.2065 21.6805V19.9851C29.1822 19.9851 29.1822 19.9851 29.158 19.9851C29.0853 19.9851 28.9883 19.9851 28.9399 19.936C28.9399 19.936 28.9398 19.936 28.9156 19.936C28.8914 19.9606 28.8671 19.9606 28.8671 19.9606C28.746 19.9851 28.5763 20.0588 28.5278 19.8623C28.5036 19.8131 28.6248 19.7149 28.6732 19.6657C28.4793 19.42 28.3582 19.076 28.4066 18.7812C28.4309 18.6584 28.6248 18.5109 28.746 18.4372C28.8187 18.3881 28.9399 18.5355 28.8671 18.6338C28.746 18.7812 28.7702 18.9041 28.8914 19.0515C28.9641 19.1498 28.9398 19.2726 29.1095 19.3463C29.158 19.3709 29.1822 19.3709 29.2307 19.3955V18.0441H28.1158C28.1643 18.1178 28.2127 18.1915 28.237 18.2898C28.3097 18.4864 28.1158 18.5601 27.9946 18.6338C27.9219 18.6584 27.7765 18.5846 27.6553 18.5355C27.6311 18.4127 27.5826 18.2652 27.6068 18.2161C27.6553 18.167 27.6553 18.0932 27.6795 18.0441H24.9892C25.1104 18.1915 25.2558 18.3389 25.377 18.5109C25.5467 18.7321 25.5467 18.7812 25.377 18.9286C25.1831 19.076 25.1346 19.076 24.9407 18.8795C24.868 18.8058 24.7953 18.7075 24.7226 18.6092C24.5772 18.4127 24.4318 18.2407 24.2621 18.0441H23.1714C23.2442 18.167 23.3411 18.2407 23.5108 18.2898C23.5592 18.3144 23.6319 18.3881 23.6319 18.4372C23.6562 18.6338 23.7774 18.8303 23.5835 19.0023C23.5835 19.0023 23.6562 19.1498 23.7047 19.1498C23.8986 19.1743 24.0682 19.1498 24.2621 19.1498C24.4075 19.1498 24.6014 19.3709 24.5772 19.5183C24.5772 19.6166 24.5287 19.764 24.553 19.8131C24.6499 19.9114 24.7711 20.0097 24.9165 20.0589C25.2316 20.1571 25.2316 20.2063 25.3285 20.5503C25.4012 20.796 25.6194 21.0171 25.789 21.2382C26.0072 21.5085 26.2253 21.7542 26.4434 22.0245C26.5889 22.1964 26.4192 22.2702 26.2738 22.393C26.1768 22.5159 26.0314 22.4913 25.9102 22.3439C25.8133 22.221 25.6921 22.1227 25.4982 22.1473C25.3528 22.1719 25.2074 21.9016 25.2074 21.705C25.2316 21.4102 24.9165 21.0662 24.6257 21.0662C24.4802 21.0662 24.4075 20.9925 24.456 20.8942C24.553 20.6977 24.456 20.5994 24.3591 20.5011C23.7289 19.764 23.0987 19.0023 22.4928 18.2652C22.4201 18.1915 22.3716 18.1178 22.2989 18.0195H18.8088C18.833 18.1178 18.833 18.167 18.8573 18.2407ZM28.1158 22.3684C28.14 22.3193 28.1885 22.2947 28.237 22.2456C28.3582 22.1473 28.4066 22.1719 28.5763 22.3684C28.746 22.565 28.746 22.6141 28.5521 22.7616C28.3582 22.909 28.3097 22.909 28.1643 22.7124C28.1158 22.6387 28.0916 22.565 28.0673 22.5159C28.0188 22.565 27.9461 22.565 27.8977 22.5896C27.8249 22.5896 27.7765 22.6141 27.728 22.6141C27.6795 22.5896 27.6553 22.5404 27.6311 22.4913C27.7038 22.4176 27.8007 22.3439 27.8734 22.3193C27.9461 22.2702 28.0673 22.221 28.1158 22.3684ZM27.4129 19.4937C27.4372 19.4937 27.5826 19.3955 27.6311 19.4446C27.728 19.5183 27.8977 19.6903 27.8734 19.764C27.8492 19.7886 27.8492 19.8377 27.8492 19.8623C27.8492 19.8869 27.8734 19.9114 27.8734 19.936C27.8977 19.9851 27.8977 20.0588 27.8977 20.108C27.9219 20.1817 27.9704 20.2554 27.9946 20.3291C28.0188 20.4028 27.9946 20.5011 27.9461 20.5748C27.8977 20.6485 27.8007 20.6731 27.7038 20.6977C27.6795 20.624 27.6553 20.5257 27.6311 20.452C27.6068 20.3783 27.5583 20.28 27.5099 20.2063C27.4614 20.108 27.3644 20.0343 27.316 19.9606C27.1705 19.764 27.1706 19.7149 27.4129 19.4937ZM27.2917 21.1645C27.3887 21.0662 27.4856 20.9925 27.6068 21.1399C27.7765 21.3365 27.7765 21.4839 27.6311 21.6313C27.4372 21.8033 27.3644 21.8033 27.219 21.6313C27.0736 21.4102 27.0736 21.3365 27.2917 21.1645ZM20.7962 25.2677C20.7477 25.2923 20.6993 25.2923 20.6508 25.2923C20.5781 25.2923 20.4811 25.2677 20.4084 25.2677C20.4327 25.1694 20.4569 25.0957 20.4811 25.0712C20.6508 24.8992 20.772 24.85 20.8932 25.022C20.9659 25.1449 20.9416 25.2186 20.7962 25.2677ZM20.772 23.2775C20.7477 23.3267 20.6508 23.3021 20.5054 23.3267C20.5296 23.2038 20.5296 23.1055 20.5781 23.081C20.6266 23.0564 20.7235 23.081 20.7962 23.081C20.7962 23.1301 20.8205 23.2284 20.772 23.2775ZM21.8384 26.4716C21.7899 26.5208 21.693 26.5454 21.6203 26.5699C21.5718 26.5945 21.5233 26.5699 21.4749 26.5699C21.4264 26.5454 21.3779 26.5208 21.3294 26.4716C21.3294 26.5699 21.281 26.6682 21.184 26.7419C21.1355 26.7665 21.1113 26.8156 21.0628 26.8402C20.9416 26.8893 20.8447 26.8402 20.8689 26.6928C20.8689 26.5699 20.8689 26.4471 20.8932 26.3242C20.9174 26.2014 21.0386 26.1277 21.1355 26.1768C21.2567 26.2259 21.3052 26.3242 21.3294 26.4225C21.3779 26.3734 21.4021 26.3242 21.4506 26.2997C21.4749 26.2751 21.5233 26.2751 21.6203 26.2259C21.6445 26.2259 21.7415 26.2505 21.8142 26.2751C21.8626 26.3242 21.8626 26.4471 21.8384 26.4716ZM22.4928 27.2088C22.4201 27.135 22.3716 27.0859 22.3474 27.0368C22.3474 26.9385 22.3232 26.8893 22.3232 26.8648C22.3232 26.8156 22.3474 26.7665 22.3959 26.7665C22.4201 26.7665 22.4686 26.7911 22.4928 26.8156C22.517 26.8402 22.5413 26.8893 22.5413 26.9385C22.517 27.0122 22.4928 27.1105 22.4928 27.2088ZM22.8321 26.2014C22.8079 26.2259 22.7352 26.1768 22.6625 26.1522C22.7109 26.0785 22.7352 26.0294 22.7837 26.0048C22.8079 25.9802 22.9048 26.054 22.9048 26.0785C22.9048 26.1031 22.8806 26.1768 22.8321 26.2014ZM23.2199 24.8255C23.2199 24.8009 23.2684 24.7272 23.2926 24.7026C23.5592 24.6043 23.8501 24.506 24.1167 24.4323C24.1652 24.4078 24.2863 24.506 24.2863 24.5306C24.2863 24.5797 24.2621 24.6289 24.2379 24.6535C24.2621 24.6535 24.2863 24.678 24.3106 24.678C24.3348 24.7026 24.3106 24.7272 24.3106 24.7763C24.2621 24.7763 24.2379 24.7763 24.1894 24.7517C24.1894 24.7517 24.1894 24.7272 24.1894 24.7026C24.1894 24.7026 24.1894 24.7026 24.1652 24.7026C24.044 24.7517 23.8986 24.7763 23.7047 24.8255C23.6319 24.85 23.4865 24.8746 23.3411 24.8992C23.3169 24.9237 23.2442 24.8746 23.2199 24.8255ZM23.2199 24.0638C23.2684 23.9409 23.3169 23.8181 23.3896 23.7198C23.4138 23.6707 23.535 23.7198 23.6319 23.7198C23.6319 23.8181 23.6077 23.9164 23.6077 24.0638C23.4623 24.0638 23.3411 24.0638 23.2199 24.0638ZM24.2136 26.4716C24.1409 26.5945 24.0197 26.7419 23.8258 26.6682C23.8016 26.6436 23.7531 26.6436 23.7289 26.6191C23.6319 26.5945 23.4381 26.6191 23.4381 26.5945C23.3896 26.4716 23.3896 26.2997 23.3896 26.1522C23.3896 26.1031 23.4381 26.0785 23.4623 26.054C23.4865 26.0294 23.6077 26.0294 23.7047 26.0294C23.8986 25.6608 24.2621 25.5871 24.6257 25.4888C24.8196 25.4397 24.8438 25.5871 24.868 25.7345C24.8923 25.882 24.8923 25.9802 24.7226 26.0294C24.5772 26.0785 24.4075 26.1031 24.2621 26.1522C24.2621 26.1522 24.2621 26.1522 24.2621 26.1277C24.2379 26.1277 24.1894 26.1522 24.1652 26.1522C24.2136 26.2751 24.2621 26.3979 24.2136 26.4716ZM25.0862 28.683C25.0377 28.6584 25.0135 28.511 25.0377 28.4864C25.1346 28.339 25.0135 28.2407 24.9892 28.1178C24.9407 27.9704 24.8196 27.995 24.6741 27.995C24.5287 27.9704 24.3833 27.8476 24.2863 27.7247C24.2621 27.6756 24.3833 27.5036 24.456 27.3562C24.5772 27.3562 24.6741 27.3562 24.7711 27.3807C24.8923 27.4053 25.0619 27.3807 25.1346 27.4545C25.2074 27.5282 25.1104 27.7247 25.1589 27.823C25.2316 27.9704 25.3285 28.1424 25.5467 28.0687C25.5951 28.0441 25.6921 28.1178 25.7406 28.167C25.7648 28.1916 25.7406 28.3144 25.7163 28.339C25.5951 28.4618 25.4497 28.5847 25.2801 28.7075C25.2558 28.7321 25.1346 28.7321 25.0862 28.683ZM24.9407 25.538C24.9892 25.538 25.0135 25.538 25.0862 25.538C25.0862 25.6117 25.1104 25.6608 25.0862 25.6854C25.0619 25.71 24.9892 25.71 24.965 25.6854C24.965 25.6363 24.965 25.5871 24.9407 25.538ZM25.9345 31.2874C25.8375 31.2628 25.7648 31.2628 25.7406 31.2137C25.7163 31.1645 25.7406 31.0663 25.7648 31.0417C25.789 31.0171 25.9102 31.0417 25.9345 31.0663C25.9587 31.1154 25.9345 31.1891 25.9345 31.2874ZM26.0799 31.0417C26.0314 30.9925 25.9829 30.968 25.9345 30.9434C25.9587 30.9188 25.9829 30.8451 26.0072 30.8451C26.0556 30.8451 26.1041 30.8697 26.1526 30.8943C26.1284 30.9434 26.1284 30.9925 26.0799 31.0417ZM26.0556 27.4299C25.8618 27.2333 25.6679 27.0368 25.4982 26.8156C25.377 26.6682 25.4982 26.5454 25.5709 26.4471C25.6679 26.3242 25.7648 26.3488 25.886 26.4225C25.9102 26.4471 25.9587 26.4716 25.9829 26.4716C26.3223 26.3979 26.3707 26.4962 26.2011 26.7911C26.1768 26.8402 26.2738 26.9876 26.3223 27.0613C26.4192 27.1842 26.4192 27.307 26.2253 27.4299C26.2253 27.4299 26.1041 27.479 26.0556 27.4299ZM26.4192 29.5921C26.395 29.6166 26.298 29.5921 26.2738 29.5675C26.2495 29.5183 26.2738 29.4446 26.2738 29.3464C26.3707 29.3955 26.4677 29.3955 26.4677 29.4201C26.4919 29.4692 26.4434 29.5429 26.4192 29.5921ZM27.9461 31.4348C27.8007 31.5331 27.7522 31.4102 27.6795 31.312C27.6311 31.2137 27.5583 31.14 27.4856 31.0663C27.2917 30.8451 27.2917 30.8206 27.5341 30.624C27.5583 30.5994 27.6068 30.5749 27.6553 30.5503C27.7765 30.5011 27.8734 30.5994 27.8249 30.6731C27.728 30.8943 27.8249 30.9925 27.9461 31.14C28.0188 31.2382 28.0916 31.3611 27.9461 31.4348ZM28.3582 30.28C28.3582 30.3292 28.3097 30.3783 28.3097 30.4274C28.2612 30.4029 28.2127 30.3783 28.1885 30.3537C28.14 30.3046 28.1158 30.2554 28.1158 30.2063C28.0916 30.1326 28.0916 30.0589 28.1158 29.9852C28.1158 29.9606 28.237 29.936 28.2612 29.936C28.3097 29.9606 28.3582 30.0343 28.3824 30.0589C28.3582 30.1572 28.3582 30.2309 28.3582 30.28ZM27.1463 25.022C27.219 24.8992 27.3887 24.85 27.5341 24.8009C27.5583 24.8009 27.6553 24.8992 27.6553 24.9729C27.728 25.1694 27.7522 25.3906 27.8249 25.6117C27.9219 25.6117 28.0431 25.538 28.0916 25.71C28.0916 25.7345 28.0673 25.8083 28.0188 25.8083C27.8492 25.8574 27.8492 25.71 27.8007 25.6117C27.6795 25.6363 27.5583 25.6854 27.4856 25.5134C27.4614 25.4643 27.3644 25.4151 27.2917 25.3906C27.0978 25.3169 27.0978 25.1203 27.1463 25.022ZM27.0736 26.8402C27.1221 26.7911 27.2675 26.7665 27.316 26.8156C27.4614 26.8893 27.5583 27.0368 27.7522 27.0368C27.7038 27.0122 27.6553 26.9876 27.6311 26.9385C27.6311 26.9385 27.6795 26.8402 27.7038 26.8402C27.7522 26.8402 27.8007 26.8648 27.8249 26.8893C27.8007 26.9139 27.8007 26.9631 27.7765 27.0122C27.8007 27.0122 27.8249 27.0122 27.8492 27.0122C27.8977 27.0122 27.9704 27.1105 28.0431 27.1842C28.0673 27.2333 28.1158 27.3562 28.0916 27.3807C27.9704 27.5527 28.0916 27.6756 28.1643 27.7984C28.1885 27.8476 28.237 27.8967 28.237 27.9213C28.1643 28.167 28.2612 28.339 28.3824 28.5355C28.4066 28.5601 28.3582 28.6338 28.3339 28.683C28.3097 28.7075 28.237 28.7075 28.2127 28.683C28.14 28.6092 28.0673 28.5355 27.9704 28.4618C27.9219 28.4373 27.8492 28.4373 27.7765 28.4618C27.7522 28.4864 27.7522 28.5601 27.7765 28.6092C27.8007 28.6584 27.8492 28.7075 27.8734 28.7567C27.9946 28.9041 27.9704 29.0269 27.8249 29.1498C27.728 29.1989 27.6068 29.2972 27.5341 29.2726C27.3887 29.1989 27.2917 29.0761 27.316 28.8795C27.3402 28.6338 27.3644 28.3635 27.4129 28.1178C27.4372 28.0196 27.5341 27.9213 27.6068 27.823C27.6311 27.7739 27.6553 27.7002 27.6311 27.651C27.6311 27.6264 27.5341 27.6019 27.4856 27.6019C27.2917 27.5773 26.9039 27.2825 26.9039 27.0859C26.9039 27.0122 27.0009 26.9139 27.0736 26.8402ZM26.9039 26.3488C26.9282 26.3734 26.9039 26.4716 26.8797 26.4962C26.8312 26.5208 26.7343 26.5208 26.71 26.4962C26.6858 26.4716 26.71 26.3734 26.6858 26.2751C26.807 26.2997 26.8797 26.2997 26.9039 26.3488ZM25.789 20.452C25.7648 20.4765 25.6921 20.4274 25.6194 20.3783C25.6679 20.3046 25.7163 20.2554 25.7648 20.2308C25.789 20.2063 25.8375 20.28 25.886 20.3046C25.8618 20.3537 25.8375 20.4028 25.789 20.452ZM26.0314 20.1817C25.9829 20.1326 25.9829 20.0097 26.0072 19.936C26.0556 19.7149 26.0314 19.6903 25.789 19.6657C25.7406 19.6657 25.6921 19.6412 25.6436 19.6412C25.6679 19.592 25.6679 19.5183 25.6921 19.4937C25.8618 19.2726 25.9587 19.2726 26.1526 19.4937C26.2495 19.6166 26.3707 19.7394 26.4677 19.8623C26.6131 20.0343 26.7828 20.2063 26.9039 20.4028C27.0009 20.5257 26.8555 20.8451 26.71 20.8942C26.6616 20.8942 26.5646 20.8697 26.5404 20.8205C26.3707 20.5994 26.2011 20.4028 26.0314 20.1817ZM26.6373 22.6633C26.6616 22.6633 26.7343 22.7124 26.7343 22.737C26.7343 22.7861 26.71 22.8353 26.6616 22.8598C26.6373 22.8844 26.5646 22.8598 26.4919 22.8598C26.5646 22.737 26.5889 22.6879 26.6373 22.6633ZM26.1768 23.9164C26.2495 23.8672 26.3465 23.8426 26.395 23.8181C26.4919 23.7935 26.5646 23.7689 26.6373 23.7935C26.71 23.8181 26.807 23.8426 26.807 23.8918C26.8312 23.9409 26.7828 24.0392 26.7343 24.0883C26.6616 24.1866 26.3223 24.2358 26.2011 24.1866C26.1284 24.1621 26.0799 24.1129 26.0072 24.0883C26.0556 24.0146 26.1041 23.9655 26.1768 23.9164ZM25.0377 22.737C25.2801 22.6633 25.3285 22.6879 25.377 22.909C25.4497 23.1547 25.4255 23.2038 25.2074 23.253C24.9892 23.3021 24.9407 23.2775 24.868 23.0564C24.7953 22.8598 24.8196 22.8107 25.0377 22.737ZM24.8196 23.9655C24.868 23.9409 24.9165 23.9164 24.965 23.8918V23.9164C25.2074 23.8672 25.4255 23.8181 25.6679 23.7935C25.7163 23.7935 25.789 23.8181 25.8618 23.8426C25.8375 23.8918 25.8133 23.9655 25.7648 23.9901C25.6436 24.0638 25.5467 24.1375 25.474 24.2603C25.6679 24.2358 25.7406 24.3095 25.6679 24.5306C25.5951 24.7763 25.5951 24.7763 25.8375 24.7763C25.9829 24.7763 26.2495 24.9974 26.2738 25.1203C26.2738 25.1449 26.2738 25.194 26.2495 25.2186C26.2738 25.2431 26.2738 25.2923 26.298 25.3414C26.3465 25.5871 26.3465 25.6363 26.1041 25.71C25.9102 25.7591 25.7406 25.8083 25.5467 25.8328C25.4013 25.8574 25.3043 25.8083 25.2801 25.6608C25.2316 25.5134 25.3043 25.4397 25.4497 25.3906C25.474 25.3906 25.4982 25.366 25.5224 25.366C25.4012 25.3414 25.3043 25.194 25.2074 25.0712C24.965 24.9483 25.0862 24.7272 25.1104 24.506C25.0377 24.4815 24.965 24.4569 24.9407 24.4078C24.9165 24.3832 24.8923 24.334 24.868 24.3095C24.5287 24.1129 24.5287 24.1129 24.8196 23.9655ZM24.5045 25.4643C24.456 25.4397 24.4075 25.4397 24.3591 25.4151C24.3348 25.3906 24.3348 25.3169 24.3591 25.2923C24.4075 25.2677 24.456 25.2923 24.5287 25.2923C24.5287 25.366 24.5045 25.4151 24.5045 25.4643ZM23.8258 20.624C24.1652 20.5503 24.2621 20.5994 24.2863 20.8205C24.2863 21.0417 24.2621 21.0662 24.044 20.9925C23.9955 20.9679 23.947 20.9679 23.9228 20.9679C23.8016 20.9679 23.7047 20.9188 23.7289 20.796C23.7047 20.7222 23.8016 20.6485 23.8258 20.624ZM23.9713 22.7616C24.0925 22.9336 24.2379 23.081 24.3591 23.253C24.4075 23.3267 24.553 23.425 24.4075 23.5478C24.3591 23.5724 24.2136 23.4987 24.1652 23.425C24.1167 23.3512 24.044 23.3021 23.9955 23.2284V23.253C24.044 23.4987 24.0197 23.5478 23.7289 23.6215C23.535 23.6707 23.3896 23.5232 23.3653 23.2775C23.3411 23.1055 23.4138 23.0318 23.6562 22.9827C23.7047 22.9827 23.7531 22.9581 23.7774 22.9581C23.7047 22.8844 23.6319 22.7861 23.5592 22.7124C23.4623 22.737 23.3411 22.8107 23.2926 22.7861C23.1957 22.7124 23.123 22.565 23.0745 22.4422C23.0503 22.3193 23.0503 22.1964 23.0745 22.0736C23.0745 22.0245 23.1714 21.9507 23.2199 21.9507C23.3653 21.9507 23.5592 22.2456 23.4865 22.393C23.4138 22.5404 23.4865 22.6141 23.535 22.7124C23.7289 22.5896 23.8501 22.5896 23.9713 22.7616ZM22.9533 19.7394C23.0018 19.7394 23.0503 19.7886 23.0987 19.8131C23.0745 19.8623 23.0503 19.9114 23.0018 19.936C22.9533 19.9606 22.9048 19.9114 22.8321 19.8869C22.9048 19.8132 22.9291 19.7394 22.9533 19.7394ZM22.6867 21.3119C22.9048 21.4348 23.026 21.2874 23.1714 21.1645C23.2684 21.0908 23.3653 21.0417 23.4865 20.9925C23.5108 20.9679 23.5835 20.9925 23.6077 21.0171C23.6319 21.0417 23.6319 21.1154 23.6077 21.1399C23.4381 21.4348 23.1472 21.5576 22.8806 21.7296C22.8321 21.7542 22.7352 21.6805 22.6867 21.6559C22.614 21.5576 22.5898 21.5085 22.5655 21.4593C22.517 21.3611 22.5898 21.2628 22.6867 21.3119ZM22.1777 23.5969C22.1777 23.6215 22.1535 23.6215 22.1293 23.6461C22.0081 23.7689 21.8626 23.8672 22.0081 24.0883C22.1535 24.2849 22.2504 24.5306 22.5413 24.4815C22.614 24.4815 22.7109 24.506 22.7837 24.5798C22.9291 24.7272 23.0745 24.8746 23.1957 25.022C23.2684 25.0957 23.3411 25.2677 23.3169 25.3169C23.2442 25.4397 23.0745 25.5871 23.0018 25.5626C22.7837 25.4888 22.4928 25.6117 22.3232 25.366C22.2989 25.2923 22.2747 25.2186 22.2504 25.1203C22.2262 25.1203 22.1777 25.1203 22.1535 25.0957C22.1777 25.0712 22.202 25.0466 22.2262 25.022C22.202 24.85 22.1293 24.7517 21.9596 24.7272C21.693 24.678 21.5718 24.4815 21.5233 24.2112C21.4991 24.2112 21.4506 24.2112 21.4264 24.2112C21.3779 24.2112 21.3052 24.0883 21.281 24.0638C21.281 23.9409 21.2567 23.8918 21.2567 23.8181C21.2567 23.7935 21.3294 23.7198 21.3537 23.7444C21.3294 23.6707 21.3294 23.6215 21.4021 23.5478C21.5233 23.4495 21.5718 23.3021 21.7899 23.3512C21.8626 23.3758 21.9596 23.3512 22.0565 23.3512C22.105 23.3512 22.1777 23.4004 22.2262 23.4495C22.2262 23.4741 22.202 23.5478 22.1777 23.5969ZM21.8142 20.4274C21.8384 20.3783 21.9354 20.4028 22.0565 20.4028C22.0323 20.5257 22.0565 20.624 22.0081 20.6485C21.9596 20.6731 21.8384 20.6731 21.8142 20.624C21.7899 20.5748 21.7899 20.4765 21.8142 20.4274ZM21.2325 19.5429C21.2567 19.5674 21.2567 19.6412 21.2567 19.6903C21.2082 19.6903 21.1355 19.7149 21.0871 19.6903C21.0628 19.6903 21.0628 19.592 21.0628 19.5183C21.1355 19.5429 21.2082 19.5183 21.2325 19.5429ZM20.263 22.1964C20.4327 21.9999 20.5539 21.9753 20.772 22.1227C20.9174 21.9999 21.0628 21.9016 21.184 21.7542C21.2083 21.7296 21.2325 21.705 21.2567 21.6805C21.2567 21.6559 21.2567 21.6313 21.2325 21.6068C21.2082 21.5085 21.1355 21.3611 21.3052 21.3365C21.3779 21.3365 21.4506 21.4593 21.5718 21.5331C21.5476 21.5822 21.5233 21.6559 21.4991 21.705C21.5233 21.7296 21.5233 21.7542 21.5476 21.7788C21.6688 21.6559 21.8142 21.6068 21.9111 21.7788C21.9596 21.8525 21.9838 21.9507 22.0081 22.049C21.9111 22.0245 21.8142 21.9999 21.7415 21.9507C21.6688 21.9016 21.596 21.8279 21.5476 21.7788C21.4021 21.9016 21.2325 22.0245 21.1113 22.1473C20.9659 22.2702 20.8447 22.2456 20.7477 22.1227C20.6266 22.221 20.5296 22.3193 20.4084 22.393C20.36 22.4176 20.263 22.393 20.1903 22.393C20.2145 22.3193 20.2145 22.2456 20.263 22.1964ZM19.4147 21.3365C19.4389 21.1891 19.5844 21.1645 19.7298 21.2628L19.754 21.2874C19.851 21.3365 20.0449 21.1645 20.0691 21.3611C20.0933 21.4839 19.9479 21.6313 19.8995 21.7296C19.7783 21.7788 19.7056 21.8279 19.6086 21.877C19.5601 21.9016 19.4632 21.877 19.4632 21.877C19.4389 21.705 19.3905 21.5085 19.4147 21.3365ZM19.342 23.3512C19.4147 23.3758 19.4874 23.3758 19.5117 23.4004C19.6086 23.4987 19.6813 23.5969 19.754 23.6952C19.8025 23.7444 19.8752 23.7935 19.9237 23.8672C20.0206 23.9901 20.2388 23.6952 20.2388 23.9655C20.2388 24.0883 20.1903 24.2112 20.263 24.334C20.2872 24.3586 20.263 24.4323 20.2388 24.4569C20.0933 24.6043 19.9237 24.7517 19.7783 24.8746C19.7298 24.8992 19.6571 24.8992 19.5844 24.9237C19.5844 24.8992 19.5601 24.8746 19.5601 24.8255C19.5844 24.7517 19.6086 24.678 19.6571 24.6289C19.9237 24.3095 19.9237 24.3095 19.6813 23.9901C19.5601 23.8426 19.4389 23.6952 19.342 23.5478C19.3178 23.5232 19.342 23.425 19.342 23.3512Z" fill="#171026"/>
<path d="M29.0368 25.4889C29.061 25.4889 29.1095 25.4889 29.158 25.4889V24.1866C29.0368 24.2604 28.9156 24.4815 28.8914 24.6043C28.8671 24.8255 28.9641 25.0712 28.8429 25.2923C28.7702 25.4152 28.8671 25.5134 29.0368 25.4889Z" fill="#171026"/>
<path d="M19.0269 26.2751C18.93 26.2505 18.833 26.2014 18.7846 26.1031H18.7603V28.855C18.8088 28.9287 18.8815 28.9778 18.93 29.0515C19.1481 29.2727 19.0754 29.5429 18.7846 29.6166H18.7603V31.5085H19.851C19.851 31.3366 19.9237 31.1891 19.8752 30.9926C19.8267 30.8697 20.2145 30.7223 20.36 30.8206C20.4811 30.9189 20.6508 31.0171 20.6993 31.1646C20.7477 31.2628 20.772 31.3857 20.7962 31.484H23.5592C23.5108 31.4594 23.4623 31.4348 23.4138 31.4348C23.1714 31.3611 23.0503 31.2137 23.0745 30.9434C23.0987 30.7714 23.0018 30.5994 23.0745 30.4029C23.123 30.3046 22.8321 30.0589 22.7109 30.0835C22.5655 30.108 22.4928 30.0343 22.4201 29.9606C22.2747 29.8132 22.1535 29.6412 22.0081 29.4692C21.8626 29.2972 21.7172 29.1498 21.4991 29.1498C21.3779 29.1498 21.3294 29.1007 21.3052 28.9533C21.281 28.8058 21.281 28.6338 21.184 28.5356C20.9659 28.339 20.8205 28.0442 20.4569 27.9704C20.2388 27.9213 19.9964 27.6756 19.9964 27.3316C19.9964 27.0368 19.851 26.8894 19.5601 26.8648C19.3662 26.8402 19.1966 26.6682 19.2208 26.4717C19.2451 26.3242 19.1966 26.2997 19.0269 26.2751ZM22.3232 31.1891C22.3716 31.1891 22.3959 31.2383 22.4443 31.2628C22.4201 31.312 22.3959 31.3611 22.3474 31.4103C22.3232 31.4103 22.2747 31.3611 22.202 31.312C22.2504 31.2383 22.2747 31.1891 22.3232 31.1891ZM19.9479 28.9778C20.0933 29.1498 20.0691 29.2481 19.8752 29.4201C19.7056 29.5675 19.6328 29.4447 19.5359 29.3218C19.4632 29.2235 19.3178 29.1252 19.4874 28.9778C19.6813 28.8304 19.8267 28.8304 19.9479 28.9778ZM19.4632 28.3881C19.4874 28.4373 19.4874 28.511 19.4874 28.5601C19.4389 28.5601 19.3662 28.5601 19.3178 28.5356C19.2935 28.511 19.2935 28.4373 19.2935 28.2653C19.3662 28.339 19.439 28.3636 19.4632 28.3881ZM19.3178 29.9115C19.3905 29.8869 19.5359 29.8132 19.5601 29.8623C19.6571 29.9606 19.7298 30.108 19.7783 30.2555C19.8025 30.3537 19.8025 30.4766 19.8025 30.5749C19.8025 30.6486 19.7783 30.7223 19.754 30.7714C19.5844 30.8943 19.4389 31.0171 19.2451 31.0663C19.1481 31.0909 19.0027 30.968 18.93 30.8697C18.9057 30.8451 18.93 30.6977 18.9784 30.6486C19.0996 30.5012 19.2693 30.4029 19.1723 30.1818C19.1239 30.108 19.2451 30.0098 19.3178 29.9115Z" fill="#171026"/>
<path d="M28.5278 8.53564C28.5521 8.63392 28.6248 8.68306 28.7702 8.68306C28.9883 8.65849 29.1822 8.85505 29.158 9.05161C29.1338 9.37103 29.2549 9.49388 29.57 9.56759C29.5943 9.56759 29.6185 9.56759 29.6427 9.59216C29.6185 9.44474 29.6912 9.37103 29.8609 9.34646C30.0548 9.29731 30.2487 9.24817 30.4426 9.19903C30.4426 9.19903 30.4426 9.19903 30.4426 9.2236C30.6364 9.17446 30.8303 9.12532 31 9.07618V8.33908H28.4551C28.4794 8.38822 28.5036 8.46193 28.5278 8.53564Z" fill="#171026"/>
<path d="M4.02424 8.28995V12.3686H4.04847C4.26661 12.3194 4.31508 12.344 4.36355 12.5406C4.43627 12.7863 4.38779 12.86 4.16966 12.9091C4.09695 12.9337 4.04847 12.9337 4 12.9337V13.3022C4.07271 13.3022 4.14542 13.3022 4.16966 13.3514C4.29084 13.4497 4.38779 13.5479 4.53321 13.4742C4.70287 13.376 4.89677 13.3022 4.99372 13.1548C5.16338 12.9337 5.16338 12.9091 5.38151 13.1303C5.42998 13.1794 5.52693 13.1794 5.59964 13.1794C5.74506 13.1548 5.89049 13.1057 6.01167 13.0811C6.20557 13.032 6.39946 13.0565 6.47217 12.7863C6.49641 12.7371 6.56912 12.6634 6.64183 12.6389C7.05386 12.516 7.46589 12.4177 7.87792 12.3194C7.92639 12.2949 8.28995 12.516 8.31419 12.5897C8.31419 12.6143 8.31419 12.688 8.28995 12.7126C8.193 12.7863 8.09605 12.86 7.9991 12.8846C7.32047 13.0565 6.6176 13.2531 5.91472 13.4005C5.50269 13.4988 5.06643 13.5725 4.63016 13.6708C4.4605 13.7199 4.24237 13.7936 4.02424 13.8428V14.5308C4.04847 14.5062 4.07271 14.4816 4.07271 14.4816C4.12118 14.4816 4.1939 14.5062 4.1939 14.5553C4.1939 14.6045 4.16966 14.6536 4.12118 14.7519C4.07271 14.7027 4.02424 14.6782 4 14.6536V15.7101H5.42998C5.45422 15.6364 5.50269 15.5873 5.59964 15.5627C5.67235 15.5381 5.74506 15.5136 5.81777 15.489C5.84201 15.489 5.89049 15.4644 5.91472 15.4644C6.15709 15.4153 6.18133 15.4153 6.25404 15.661C6.25404 15.6855 6.25404 15.7101 6.27828 15.7347H6.54488C6.54488 15.7101 6.52065 15.6855 6.52065 15.661C6.47217 15.4153 6.49641 15.3661 6.71454 15.317C6.95691 15.2679 7.02962 15.317 7.10234 15.5627C7.12657 15.6364 7.12657 15.7101 7.0781 15.7347H12.1679C12.1921 15.6855 12.2406 15.661 12.2891 15.6364C12.4587 15.5873 12.6284 15.5381 12.7738 15.5136C12.7738 15.5136 12.7738 15.5136 12.7738 15.5381C12.9677 15.489 13.1373 15.4398 13.3312 15.3907C13.3797 15.3907 13.4524 15.4398 13.5251 15.4644C13.4767 15.5136 13.4524 15.6118 13.404 15.6364C13.307 15.6855 13.1858 15.7101 13.0646 15.7593H13.9614C13.8887 15.661 13.816 15.5627 13.7917 15.4398C13.7433 15.3416 13.816 15.2679 13.9372 15.2679C14.0584 15.2433 14.1068 15.317 14.1068 15.4153C14.1068 15.5381 14.0826 15.6364 14.0826 15.7593C14.0826 15.7593 14.0826 15.7593 14.0584 15.7593H16.2639V12.0246H17.6697C17.7909 11.9018 17.8878 11.9018 18.009 12.0246H18.7361V13.2531C18.7846 13.2777 18.8573 13.2777 18.9058 13.3022C19.1239 13.376 19.3178 13.5234 19.5117 13.6462C19.4874 13.6708 19.4632 13.6954 19.4632 13.6954C19.8025 13.8674 19.6086 14.1868 19.6571 14.457C19.6571 14.4816 19.5359 14.5799 19.4874 14.5799C19.3905 14.5799 19.2935 14.457 19.2451 14.3588C19.1481 14.3342 19.0512 14.2359 19.0269 14.0639C19.0027 13.9902 19.0269 13.9411 19.0269 13.9165C18.9785 13.9165 18.93 13.9165 18.9058 13.9165C18.8573 13.8674 18.8088 13.7936 18.7603 13.7445V15.7101H20.6266C20.6993 15.6364 20.772 15.5873 20.8447 15.5381C20.8447 15.5381 20.9901 15.661 20.9659 15.6855V15.7101H25.5467C25.5709 15.661 25.6194 15.6364 25.6679 15.5873C25.6921 15.5627 25.7406 15.5136 25.8133 15.489C25.8618 15.489 25.9102 15.489 25.9587 15.5381C25.9345 15.489 25.983 15.4398 25.983 15.3661C26.0557 15.4398 26.1041 15.4644 26.1041 15.489C26.1041 15.5381 26.0799 15.5873 26.0557 15.6364C26.0314 15.6118 25.983 15.6118 25.9587 15.5873C25.983 15.6364 25.983 15.6855 25.9587 15.7101H27.6795C27.6795 15.6855 27.6553 15.6855 27.6553 15.6364C27.6311 15.4398 27.825 15.4644 27.9462 15.4398C28.0673 15.3907 28.1643 15.4398 28.1643 15.5627C28.1643 15.6118 28.1158 15.661 28.0673 15.7101H31V11.7543L30.9758 11.7789C30.8788 11.8526 30.7092 11.9509 30.6365 11.9263C30.5395 11.8772 30.3941 11.6561 30.4183 11.5823C30.4668 11.4103 30.4183 11.2875 30.3214 11.1892C30.2971 11.2384 30.2729 11.2629 30.2487 11.2875C30.176 11.3366 30.1032 11.3366 30.0305 11.3612C29.9821 11.3858 29.8851 11.4349 29.8609 11.4595C29.8366 11.6806 29.6427 11.7052 29.5216 11.7789C29.4004 11.8526 29.2549 12.0737 29.2065 12.0492C29.0611 11.9755 28.9156 11.9509 28.746 11.9755C28.5763 12 28.3824 12.0492 28.2128 12.0737C28.14 12.0737 28.0189 12.0983 27.9946 12.0737C27.8492 11.8526 27.6795 11.9755 27.5099 11.9755C27.4372 11.9755 27.316 11.9509 27.2918 11.9018C27.2433 11.7543 27.3645 11.7298 27.4614 11.7052C27.6311 11.6561 27.8007 11.6315 27.8007 11.4103C27.8007 11.3858 27.8734 11.3366 27.9219 11.3121C28.1885 11.2384 28.4551 11.1892 28.7217 11.1155C28.6733 11.1155 28.6248 11.1401 28.5763 11.1401C28.5036 11.1401 28.4309 11.1155 28.3582 11.0909C28.3824 11.0172 28.4067 10.9435 28.4309 10.8698C28.4551 10.8207 28.5036 10.7715 28.5278 10.747C28.6975 10.5995 28.7944 10.6487 28.8914 10.9189C28.9156 10.9927 28.9399 11.0418 28.9399 11.0664C28.9641 11.0664 28.9883 11.0664 28.9883 11.0909C29.2065 11.3612 29.4731 11.1646 29.6912 11.1401C29.8609 11.0909 30.0063 11.0418 30.1517 11.0418C30.0548 10.9189 29.9578 10.7715 29.7397 10.8452C29.6427 10.8698 29.5943 10.7961 29.6427 10.6978C29.7155 10.575 29.7882 10.4767 29.8366 10.403C29.9336 10.3293 29.9821 10.3047 30.0305 10.2801C30.1517 10.231 30.2729 10.2801 30.2244 10.403C30.1032 10.6978 30.3214 10.8452 30.4668 11.0172C30.588 11.1892 30.7576 11.3121 30.9031 11.4841C30.9273 11.5086 30.9515 11.5332 30.9758 11.5578V9.56759C30.8304 9.69044 30.6365 9.78872 30.5395 9.96071C30.5153 9.98528 30.3941 10.0099 30.3699 9.98528C30.2487 9.81329 30.079 9.887 29.9336 9.91157C29.8124 9.93614 29.7397 9.93614 29.6912 9.887C29.6912 10.0099 29.6912 10.1573 29.6185 10.231C29.57 10.3047 29.3519 10.231 29.2065 10.231C29.1095 10.231 29.0368 10.1818 29.0368 10.1081C29.0126 10.1327 28.9399 10.1573 28.8672 10.1818C28.6006 10.2556 28.3339 10.3293 28.0916 10.3784C27.8007 10.4521 27.5099 10.5258 27.1948 10.5995C27.0494 10.6241 26.9524 10.5995 26.904 10.4521C26.8313 10.2064 26.8555 10.1327 27.0979 10.0836C27.2918 10.0344 27.5099 9.86243 27.7038 10.1327C27.7765 10.2064 27.8977 10.1573 27.8977 10.059C27.8977 9.86243 28.0431 9.83786 28.1643 9.81329C28.3582 9.76415 28.5278 9.71501 28.7217 9.66587C28.7944 9.6413 28.8672 9.6413 28.9156 9.66587C28.649 9.32189 28.3582 8.97791 28.0673 8.6585C27.9946 8.56022 27.9219 8.48651 27.8492 8.38823H26.1526C26.2253 8.24081 26.2738 8.11796 26.3465 7.97053C26.1769 8.19167 25.9587 8.36366 25.6679 8.4128C25.5709 8.4128 25.4497 8.43737 25.4255 8.31452C25.4013 8.1671 25.3043 8.01968 25.474 7.92139C25.5709 7.87225 25.6679 7.82311 25.7648 7.77397V7.79854C25.9345 7.77397 26.1041 7.72483 26.2738 7.70026C26.3465 7.70026 26.4192 7.72483 26.4435 7.77397C26.4919 7.60198 26.5404 7.45456 26.5889 7.28257C26.5162 7.30714 26.4677 7.30714 26.395 7.33171C26.1284 7.38085 26.0557 7.33171 26.0314 7.08601C26.0072 6.93859 26.0557 6.86488 26.1769 6.84031C26.3465 6.79117 26.5162 6.7666 26.6616 6.71746H26.6858C26.8555 5.41524 26.5162 4.16217 25.6436 3.27765C25.0135 2.39312 24.044 2 22.9533 2C21.5718 2 20.1661 2.63882 19.0754 3.74448C18.0575 4.77642 17.6697 6.44719 17.5242 7.87225C17.3788 6.44719 16.991 4.77642 15.9731 3.74448C14.8582 2.63882 13.4524 2 12.0709 2C10.9803 2 10.0108 2.39312 9.3079 3.10565C8.45961 3.96561 8.07182 5.19411 8.24147 6.5209C8.31419 7.11058 8.48384 7.70026 8.77469 8.24081C8.82316 8.19167 8.8474 8.14253 8.89587 8.09339C8.99282 8.14253 9.08977 8.19167 9.11401 8.24081C9.16248 8.36366 9.08977 8.46194 8.96858 8.46194C8.8474 8.46194 8.75045 8.4128 8.62927 8.38823C8.6535 8.36366 8.67774 8.33909 8.70198 8.28995H4.02424ZM5.01795 12.7126C4.89677 12.7126 4.75135 12.8354 4.70287 12.6389C4.70287 12.5897 4.82406 12.4914 4.92101 12.3932C5.01795 12.4423 5.13914 12.4669 5.18761 12.5406C5.23609 12.6634 5.1149 12.688 5.01795 12.7126ZM5.64812 12.516C5.59964 12.5406 5.55117 12.4914 5.45422 12.4669C5.50269 12.3932 5.52693 12.3194 5.5754 12.2949C5.62388 12.2949 5.69659 12.344 5.72083 12.3686C5.72083 12.4177 5.67235 12.516 5.64812 12.516ZM7.02962 9.17447C6.90844 9.22361 6.81149 9.27275 6.69031 9.32189C6.6176 9.34646 6.49641 9.32189 6.47217 9.27275C6.39946 9.1499 6.52065 9.10076 6.6176 9.07619C6.64183 9.07619 6.66607 9.07619 6.69031 9.05162C6.85997 9.05162 6.98115 8.97791 6.95691 8.75678C6.95691 8.73221 7.02962 8.63393 7.05386 8.63393C7.10234 8.63393 7.17505 8.68307 7.19928 8.73221C7.29623 8.92877 7.19928 9.12533 7.02962 9.17447ZM7.85368 11.9263C7.78097 11.8772 7.7325 11.8035 7.68402 11.7789C7.68402 11.6806 7.65979 11.6069 7.65979 11.5578C7.65979 11.5332 7.70826 11.4841 7.7325 11.4841C7.75673 11.4841 7.80521 11.5086 7.80521 11.5086C7.82945 11.5578 7.85368 11.6069 7.85368 11.6561C7.87792 11.7543 7.85368 11.8526 7.85368 11.9263ZM4.79982 14.5308C4.70287 14.5553 4.58169 14.5799 4.55745 14.4325C4.55745 14.3833 4.6544 14.3096 4.75135 14.2113C4.84829 14.2851 4.96948 14.2851 4.99372 14.3342C5.04219 14.5062 4.89677 14.5062 4.79982 14.5308ZM5.52693 14.3342C5.47846 14.3342 5.42998 14.3096 5.33303 14.2605C5.40575 14.1868 5.42998 14.1131 5.47846 14.1131C5.52693 14.1131 5.5754 14.1622 5.59964 14.2113C5.62388 14.2359 5.55117 14.3342 5.52693 14.3342ZM30.6607 15.4153C30.7092 15.4153 30.7576 15.4398 30.8061 15.4644C30.7819 15.489 30.7576 15.5381 30.7334 15.5627C30.7092 15.5873 30.6607 15.5627 30.588 15.5381C30.6122 15.4644 30.6365 15.4153 30.6607 15.4153ZM30.1517 12.172C30.2244 12.1475 30.3214 12.2212 30.4426 12.2703C30.491 12.4914 30.588 12.7126 30.588 12.9091C30.588 13.0074 30.3941 13.1057 30.2487 13.1794C30.1275 13.2531 30.079 13.1303 30.0063 13.0565C29.8366 12.86 29.9336 12.6389 29.8851 12.4177C29.8851 12.3194 30.0548 12.1966 30.1517 12.172ZM29.9578 14.5799C29.9821 14.5799 30.0063 14.5308 30.0305 14.5308C30.1275 14.4816 30.2487 14.4079 30.3456 14.4325C30.491 14.4816 30.3214 14.629 30.3456 14.7027C30.4183 14.9239 30.3456 15.0959 30.2002 15.2433C30.079 15.3661 29.9821 15.3416 29.8851 15.2187C29.6427 14.973 29.667 14.8256 29.9578 14.5799ZM28.9883 14.0148C29.0126 14.0885 28.9399 14.1622 28.9156 14.2359C28.8429 14.1868 28.7702 14.1376 28.6733 14.0639C28.746 13.9656 28.7702 13.8674 28.8187 13.7936C28.8672 13.8674 28.9641 13.9411 28.9883 14.0148ZM28.4309 13.2777C28.4551 13.2285 28.5036 13.1794 28.5521 13.1303C28.6005 13.1057 28.649 13.0565 28.6975 13.0565C28.746 13.0565 28.8429 13.1057 28.8429 13.1057C28.8187 13.1794 28.8187 13.2777 28.7702 13.3022C28.6975 13.376 28.5763 13.4005 28.4794 13.4251C28.4551 13.376 28.4067 13.3022 28.4309 13.2777ZM27.3402 9.12533C27.3887 9.1499 27.4614 9.17447 27.4856 9.22361C27.5099 9.24818 27.4614 9.32189 27.4129 9.3956C27.3402 9.34646 27.2918 9.32189 27.2918 9.27275C27.2675 9.22361 27.316 9.17447 27.3402 9.12533ZM26.0072 5.68552C26.1284 5.63638 26.4192 5.88208 26.395 6.00493C26.3707 6.05407 26.298 6.15235 26.2738 6.15235C26.2011 6.15235 26.1284 6.10321 26.0799 6.07864C26.0072 5.98036 25.9587 5.93122 25.9587 5.85751C25.9102 5.80837 25.9587 5.71009 26.0072 5.68552ZM20.0691 14.8747C20.0449 14.8502 20.0691 14.7519 20.0691 14.6782C20.1418 14.6782 20.2146 14.7027 20.3115 14.7027C20.3357 14.8256 20.36 14.8993 20.36 14.9976C20.263 14.9484 20.1418 14.9239 20.0691 14.8747ZM20.8932 13.9902C20.772 14.0148 20.6266 14.0639 20.5054 14.0885V14.0639C20.4084 14.0885 20.3357 14.1131 20.2388 14.1376C19.9964 14.1868 19.9237 14.1376 19.8752 13.8674C19.851 13.7445 19.8752 13.6708 19.9964 13.6217C20.263 13.5479 20.5296 13.4988 20.7962 13.4251C20.9901 13.376 21.0144 13.5479 21.0386 13.6708C21.0628 13.8182 21.0628 13.9411 20.8932 13.9902ZM21.3052 9.3956C21.2567 9.42017 21.184 9.3956 21.0386 9.37103C21.1113 9.27275 21.1356 9.19904 21.184 9.19904C21.2325 9.17447 21.3052 9.22361 21.3537 9.24818C21.3537 9.29732 21.3537 9.3956 21.3052 9.3956ZM22.614 15.5136C22.5171 15.5627 22.3959 15.5873 22.2747 15.6118C22.3232 15.489 22.3474 15.3661 22.3959 15.1941C22.5171 15.2187 22.5898 15.2433 22.6383 15.2679C22.7352 15.3416 22.711 15.4644 22.614 15.5136ZM24.9892 14.8502C24.965 14.8256 24.9892 14.7027 24.9892 14.629C25.0862 14.6536 25.1589 14.6782 25.2801 14.7273C25.2801 14.8502 25.3043 14.9239 25.3043 15.0222C25.2074 14.973 25.0862 14.9239 24.9892 14.8502ZM26.9524 10.7961C26.9767 10.8207 26.9767 10.9435 26.9282 10.9681C26.8313 11.0418 26.7101 11.0909 26.6131 11.1646C26.6131 11.1646 26.5646 11.1401 26.5646 11.1155C26.6131 10.9927 26.6616 10.8944 26.7343 10.747C26.8312 10.7715 26.904 10.747 26.9524 10.7961ZM26.3465 10.231C26.4677 10.2064 26.6131 10.1081 26.6616 10.3293C26.7101 10.575 26.6616 10.6978 26.4192 10.747C26.2011 10.7961 26.1769 10.7715 26.1284 10.5504C26.0314 10.3293 26.0557 10.3047 26.3465 10.231ZM26.6131 11.7052C26.7101 11.828 26.807 11.9018 26.9524 11.8772C26.9767 11.8772 27.0251 11.9263 27.0494 11.9509C27.0494 12 27.0251 12.0737 27.0009 12.0983C26.8313 12.172 26.6858 12.2457 26.6374 12.4423C26.2011 12.5651 25.7406 12.688 25.3043 12.8108H25.2801C24.9408 12.4423 24.6257 12.7863 24.2864 12.8354C24.2379 12.8354 24.1652 12.8846 24.1409 12.9337C24.044 13.3022 23.7047 13.2285 23.4623 13.3022C23.4138 13.3268 23.3169 13.2777 23.2684 13.2285C23.1472 13.1057 23.0503 13.1303 23.0018 13.3022C22.9533 13.4742 22.8806 13.4742 22.7352 13.376C22.6382 13.3268 22.5413 13.3022 22.4444 13.3022C22.2262 13.3268 22.0323 13.4005 21.8142 13.4497C21.8384 13.5479 21.9111 13.6708 21.7415 13.7199C21.7172 13.7199 21.6203 13.6708 21.6203 13.6462C21.5718 13.4742 21.7172 13.4742 21.8142 13.4497C21.79 13.3514 21.7415 13.2285 21.8627 13.1548C21.9111 13.1303 21.9354 13.0565 21.9839 13.0074C22.0808 12.7863 22.3716 12.7126 22.5655 12.8354C22.6383 12.8846 22.7352 12.9337 22.7837 12.9091C23.0745 12.86 23.3896 12.7863 23.6804 12.688C23.8016 12.6634 23.947 12.6143 23.9713 12.4423C23.9955 12.3194 24.1167 12.2703 24.1894 12.3932C24.3106 12.5406 24.4318 12.4914 24.553 12.4669C24.7953 12.4177 25.062 12.344 25.3043 12.2949C25.4497 12.2457 25.5709 12.2212 25.6194 12.0246C25.6679 11.8772 26.5404 11.6069 26.6131 11.7052ZM22.2747 11.2629C22.4444 11.2384 22.614 11.5086 22.5898 11.6561C22.5898 11.6806 22.5655 11.7298 22.5413 11.7543C22.5413 11.8526 22.6383 12.0246 22.4686 12.0492C22.3716 12.0737 22.2505 11.9509 22.105 11.9018C21.8142 11.9755 21.7172 11.9263 21.6688 11.7052C21.6203 11.4841 21.6445 11.4595 21.9354 11.3612C22.0566 11.3366 22.1293 11.3121 22.1777 11.3366C22.1777 11.3121 22.202 11.2629 22.2747 11.2629ZM25.5467 10.6732C25.5709 10.8207 25.6194 10.9681 25.4013 11.0172C25.1831 11.0664 24.9892 11.1401 24.7711 11.1892C24.6499 11.2138 24.5287 11.2629 24.4076 11.0909C24.3348 10.9681 24.2379 11.0172 24.1894 11.1401C24.1652 11.2138 24.0925 11.2629 24.044 11.3366C23.9955 11.2384 23.9228 11.1646 23.8986 11.0664C23.8986 10.9927 23.947 10.8944 23.9955 10.8698C24.2137 10.7961 24.4318 10.7224 24.6499 10.6732C24.8438 10.6241 25.0377 10.575 25.2316 10.5258C25.4255 10.4521 25.5225 10.5013 25.5467 10.6732ZM24.8438 9.10076C24.8681 9.10076 24.8923 9.07619 24.9165 9.07619C24.9892 9.10076 25.1104 9.10076 25.1347 9.1499C25.2074 9.27275 25.062 9.32189 24.965 9.34646C24.9408 9.34646 24.9165 9.37103 24.8923 9.37103C24.7711 9.3956 24.6257 9.49388 24.5772 9.29732C24.5772 9.12533 24.7469 9.1499 24.8438 9.10076ZM25.4013 5.02212C25.474 5.04669 25.5225 5.04669 25.5467 5.04669C25.5467 5.09583 25.5467 5.14497 25.5225 5.19411C25.4982 5.21868 25.4013 5.19411 25.4013 5.19411C25.377 5.16954 25.377 5.09583 25.4013 5.02212ZM25.1831 6.96316C25.4255 6.91402 25.474 6.93859 25.5225 7.13515C25.5709 7.35628 25.5467 7.40542 25.3286 7.45456C25.1104 7.5037 25.0619 7.47913 25.0135 7.28257C24.9408 7.08601 24.965 7.03687 25.1831 6.96316ZM24.5287 8.36366C24.553 8.28995 24.5772 8.24081 24.5772 8.1671C24.6257 8.01968 24.8196 7.92139 25.0135 7.94597C25.1589 7.97054 25.1831 8.09339 25.1831 8.19167C25.1831 8.24081 25.1589 8.31452 25.1104 8.36366C24.8438 8.60936 24.5045 8.51108 24.2137 8.58479C24.1652 8.58479 24.1167 8.48651 24.044 8.4128C24.0925 8.31452 24.1167 8.21624 24.1652 8.1671C24.1894 8.14253 24.3106 8.21624 24.3833 8.24081C24.4318 8.28995 24.4803 8.33909 24.5287 8.36366ZM22.2989 4.67814C22.2989 4.65357 22.2747 4.57986 22.2747 4.50615C22.2747 4.48158 22.3474 4.40787 22.3474 4.40787C22.4928 4.48158 22.6625 4.53072 22.7837 4.629C22.8321 4.629 22.8806 4.629 22.9291 4.629C23.1957 4.629 23.5835 4.67814 23.8501 4.97298C24.4803 5.61181 24.1894 7.0123 23.2442 7.97053C22.7837 8.43737 21.5476 8.75678 20.0207 8.83049C20.0691 7.55284 20.3357 6.12778 20.8689 5.56266C21.281 5.14497 21.79 4.85013 22.2747 4.70271C22.3232 4.72728 22.3232 4.70271 22.2989 4.67814ZM19.9722 5.34153C20.0207 5.34153 20.0934 5.39067 20.1418 5.43981C20.0934 5.48895 20.0691 5.58723 20.0207 5.61181C19.9722 5.63638 19.8995 5.56266 19.7783 5.53809C19.8752 5.43981 19.9237 5.34153 19.9722 5.34153ZM19.4632 12.2703C19.5359 12.4914 19.5117 12.5406 19.2935 12.5897C19.0512 12.6634 19.0027 12.6389 18.9542 12.4177C18.9058 12.1966 18.93 12.1475 19.1239 12.0983C19.3663 12.0246 19.4147 12.0492 19.4632 12.2703ZM19.3178 7.79854C19.2693 7.79854 19.2208 7.79854 19.1724 7.77397C19.1481 7.77397 19.1481 7.67569 19.1724 7.65112C19.2208 7.62655 19.2693 7.62655 19.342 7.62655C19.342 7.72483 19.342 7.79854 19.3178 7.79854ZM19.1481 4.3833C19.1724 4.3833 19.2693 4.43244 19.2693 4.45701C19.2693 4.50615 19.2208 4.57986 19.1966 4.60443C19.1481 4.629 19.0996 4.55529 19.0027 4.50615C19.0754 4.45701 19.0996 4.40787 19.1481 4.3833ZM18.9058 10.9681C18.9785 10.9927 19.0269 10.9927 19.0754 11.0172C19.0996 11.0172 19.0754 11.1155 19.0512 11.1155C19.0027 11.1401 18.9542 11.1401 18.9058 11.1401C18.8815 11.0909 18.8815 11.0418 18.9058 10.9681ZM18.2514 9.66587C18.4937 9.61673 18.5422 9.6413 18.6149 9.887C18.6634 10.0836 18.6391 10.1327 18.421 10.1818C18.1786 10.231 18.1302 10.2064 18.0817 9.98528C18.009 9.76415 18.0332 9.71501 18.2514 9.66587ZM9.79264 13.8182C9.7684 13.7936 9.71993 13.7691 9.69569 13.7445C9.69569 13.7445 9.71993 13.6954 9.74417 13.6462C9.79264 13.6954 9.81688 13.7199 9.84112 13.7445C9.84112 13.7445 9.79264 13.7691 9.79264 13.8182ZM13.4524 14.0885C13.307 14.1131 13.2343 14.0148 13.1858 13.8182C13.1616 13.6462 13.2828 13.5971 13.404 13.5725C13.5736 13.5479 13.6221 13.5971 13.6706 13.8182C13.719 14.0148 13.5736 14.0394 13.4524 14.0885ZM14.0099 11.2875C13.9614 11.3121 13.9129 11.3366 13.8645 11.3612C13.7917 11.3612 13.719 11.3612 13.6463 11.3612C13.5979 11.3612 13.5251 11.3121 13.4767 11.2875C13.5009 11.2384 13.5494 11.2138 13.5736 11.1646C13.5979 11.1155 13.6463 11.0418 13.6706 10.9927C13.7433 10.7961 13.9129 10.7961 14.0584 10.7961C14.1068 10.7961 14.1795 10.9189 14.228 11.0172C14.228 11.1646 14.1068 11.2384 14.0099 11.2875ZM16.991 11.4349C17.0153 11.3858 17.088 11.3366 17.1122 11.3121C17.1607 11.2629 17.1849 11.2138 17.2334 11.2138C17.3061 11.2138 17.3788 11.2138 17.4515 11.2138C17.4515 11.2875 17.4758 11.3858 17.4273 11.4349C17.3546 11.5332 17.2576 11.5823 17.1607 11.6315C17.1122 11.6561 17.0153 11.6315 17.0153 11.6069C16.9668 11.5578 16.9668 11.4841 16.991 11.4349ZM15.9004 10.059C16.07 9.887 16.1427 9.86243 16.3851 10.0099C16.4578 10.059 16.5063 10.1081 16.5548 10.1573C16.6032 10.231 16.6759 10.3047 16.6759 10.3784C16.6759 10.4521 16.6517 10.5258 16.6032 10.5995C16.5548 10.6732 16.0215 10.575 15.9731 10.4767C15.9246 10.3538 15.7307 10.231 15.9004 10.059ZM15.6822 15.0467C15.7307 15.0713 15.8034 15.1204 15.8277 15.145C15.8277 15.1941 15.7792 15.2433 15.7307 15.3416C15.658 15.2679 15.5853 15.2433 15.5853 15.1941C15.5853 15.145 15.658 15.0959 15.6822 15.0467ZM15.3914 10.4275C15.4399 10.4767 15.5126 10.5258 15.561 10.5995C15.6095 10.6978 15.6338 10.8207 15.4883 10.8452C15.4399 10.8452 15.3672 10.7715 15.2702 10.6978C15.2944 10.5995 15.3429 10.5013 15.3914 10.4275ZM15.149 14.9976C15.1733 15.0467 15.149 15.0959 15.1248 15.145C15.1005 15.1941 15.0036 15.2433 15.0036 15.2924C15.0036 15.4398 15.0278 15.5873 14.8097 15.5873C14.64 15.5873 14.4704 15.5627 14.3734 15.3661C14.3007 15.1941 14.325 15.1204 14.4946 15.0713C14.5673 15.0467 14.6158 15.0222 14.7128 14.9976C14.7855 14.9976 14.9066 14.973 15.0036 14.973C15.0763 14.9239 15.149 14.973 15.149 14.9976ZM10.5682 7.89682C10.5925 7.77397 10.8106 7.70026 10.9318 7.62655C10.956 7.60198 11.0287 7.60198 11.053 7.60198C11.1499 7.57741 11.2469 7.55284 11.3438 7.55284C11.053 7.13515 10.8591 6.66832 10.8106 6.22606C10.7621 5.93122 10.7621 5.39067 11.1257 5.02212C11.3923 4.75185 11.7801 4.67814 12.0467 4.67814C12.2891 4.67814 12.5557 4.72728 12.798 4.82556C13.2585 4.97298 13.6948 5.26782 14.0584 5.63638C14.2522 5.83294 14.3977 6.12778 14.5189 6.49633C14.5673 6.47176 14.6643 6.44719 14.6643 6.44719C14.737 6.59461 14.8824 6.7666 14.8582 6.88945C14.8339 6.96316 14.7612 7.03687 14.6885 7.08601C14.8097 7.65112 14.8824 8.28995 14.9066 8.9042C13.3797 8.83049 12.1679 8.51108 11.6831 8.04425C11.6104 7.97054 11.5377 7.87225 11.465 7.79854C11.4408 7.82311 11.4165 7.84768 11.3923 7.87225C11.2469 7.94596 11.053 7.94596 11.0045 8.14253C11.0045 8.1671 10.8348 8.19167 10.8348 8.1671C10.8348 7.99511 10.5198 8.11796 10.5682 7.89682ZM10.2774 11.828C10.3259 12 10.7136 11.8526 10.6167 12.1475C10.5925 12.2212 10.4713 12.2457 10.3743 12.2949C10.3016 12.2703 10.1804 12.2703 10.1562 12.2212C10.0835 12.0983 10.1077 11.9509 10.0835 11.828C10.1562 11.828 10.2774 11.8035 10.2774 11.828ZM10.132 14.3833C10.3259 14.3342 10.3743 14.3833 10.4228 14.6045C10.4713 14.7519 10.447 14.8747 10.2531 14.9239C10.0108 14.973 9.93806 14.9484 9.88959 14.7027C9.86535 14.5062 9.91383 14.457 10.132 14.3833ZM9.76841 6.81574C9.81688 6.81574 9.88959 6.86488 9.91383 6.91402C9.93806 6.93859 9.88959 7.0123 9.84112 7.08601C9.76841 7.03687 9.71993 6.98773 9.69569 6.93859C9.67146 6.88945 9.74417 6.79117 9.76841 6.81574ZM9.69569 11.2629C9.74417 11.2875 9.79264 11.3121 9.81688 11.3612C9.81688 11.3858 9.79264 11.4349 9.76841 11.4595C9.71993 11.4349 9.69569 11.4103 9.62298 11.3858C9.64722 11.3121 9.67146 11.2875 9.69569 11.2629Z" fill="#171026"/>
</svg>
