<svg width="30" height="30" viewBox="0 0 30 30" fill="none" xmlns="http://www.w3.org/2000/svg">
<g clip-path="url(#clip0_0_1643)">
<circle cx="15" cy="15" r="15" fill="#FEFEFE"/>
<path d="M13.2218 5C13.1371 5.16667 13.2218 5.25 13.3911 5.16667C13.4758 5.16667 13.4758 5.25 13.5605 5.25C13.6452 5.16667 13.6452 5.08333 13.6452 5C13.6452 4.91667 13.6452 4.91667 13.7298 4.83333C13.6452 4.83333 13.4758 4.66667 13.4758 4.58333C13.3911 4.58333 13.2218 4.58333 13.1371 4.66667C13.2218 4.75 13.3065 4.91667 13.2218 5Z" fill="#CE4B4B"/>
<path d="M21.6895 6.83333C21.7742 6.83333 21.7742 6.83333 21.6895 6.83333C21.7742 6.75 21.7742 6.83333 21.6895 6.83333Z" fill="#CE4B4B"/>
<path d="M23.5524 21.3333C23.4677 21.3333 23.4677 21.25 23.3831 21.25C23.3831 21.25 23.3831 21.1667 23.4677 21.1667C23.6371 21.0833 23.7218 21 23.8911 20.9167C24.5685 19.75 25.0766 18.4167 25.3306 17C25.246 17 25.1613 16.9167 25.1613 16.9167C25.0766 16.9167 24.9919 16.8333 24.9919 16.8333C24.8226 17 24.5685 16.9167 24.3145 16.9167C24.0605 16.9167 23.7218 16.8333 23.4677 16.8333C23.3831 16.8333 23.2137 16.75 23.129 16.6667C22.9597 16.5833 22.9597 16.4167 23.129 16.3333C23.2137 16.25 23.2137 16.25 23.2984 16.1667C23.4677 15.9167 23.4677 15.9167 23.7218 16C24.0605 16 24.0605 16 24.0605 16.3333C24.0605 16.4167 24.0605 16.5 24.2298 16.5C24.3992 16.5 24.4839 16.5833 24.6532 16.5833C24.8226 16.5833 24.9919 16.6667 25.0766 16.5C25.0766 16.4167 25.246 16.4167 25.246 16.5C25.3306 16.5833 25.4153 16.6667 25.4153 16.6667C25.5 16.25 25.5 15.8333 25.5 15.3333C25.5 15.25 25.5 15.0833 25.5 15C25.4153 15 25.4153 15 25.3306 15C25.1613 14.9167 25.0766 14.8333 25.0766 14.6667C25.0766 14.5833 25.0766 14.5833 25.0766 14.5C25.0766 14.3333 25.1613 14.25 25.3306 14.3333C25.4153 14.3333 25.4153 14.3333 25.5 14.3333C25.5 14.0833 25.4153 13.8333 25.4153 13.5833H24.7379C24.7379 13.6667 24.7379 13.75 24.7379 13.8333L24.6532 13.9167C24.5685 13.9167 24.0605 13.8333 24.0605 13.75C23.9758 13.6667 23.9758 13.5833 23.8911 13.5833H22.7903C22.875 13.6667 22.9597 13.75 23.129 13.8333C23.2137 13.9167 23.2984 14 23.2984 14.0833V14.25C23.2137 14.25 23.129 14.25 23.0444 14.25C22.9597 14.1667 22.7056 14.25 22.7056 14.0833C22.7056 13.9167 22.621 13.8333 22.621 13.6667H21.0968C21.0968 13.75 21.0968 13.75 21.0121 13.8333C20.9274 13.9167 20.8427 14.0833 20.5887 14C20.504 13.6667 20.4194 13.6667 20.3347 13.6667C20.25 13.6667 20.1653 13.5833 20.0806 13.5H16.0161C16.0161 13.5833 15.9315 13.5833 15.8468 13.6667C15.6774 13.75 15.5927 13.6667 15.4234 13.5H15V14.8333C15.0847 14.8333 15.0847 14.8333 15.1694 14.8333C15.7621 14.9167 15.6774 14.8333 15.6774 15.3333C15.6774 15.3333 15.6774 15.3333 15.6774 15.4167C15.6774 15.75 15.6774 15.75 15.254 15.6667C15.1694 15.6667 15.0847 15.6667 15 15.6667V16.75C15.0847 16.75 15.1694 16.8333 15.1694 16.8333C15.1694 16.9167 15.0847 17 15.0847 17.0833C15.0847 17.0833 15.0847 17.0833 15 17.0833H15.5081C15.5081 17.0833 15.5081 17.0833 15.5081 17C15.5081 16.9167 15.5927 16.9167 15.6774 16.9167C15.7621 16.9167 15.8468 17 15.9315 17.0833H16.2702C16.2702 17.0833 16.3548 17 16.4395 17C16.5242 17 16.5242 17 16.6089 17.0833H21.1815C21.0121 17.9167 20.504 19.1667 19.4032 20.1667C19.4879 20.1667 19.6573 20.1667 19.7419 20.25C19.8266 20.25 19.9113 20.3333 19.996 20.4167C19.996 20.25 19.996 20.1667 19.996 20L20.1653 19.9167C20.3347 20 20.504 20.1667 20.5887 20.3333C20.5887 20.3333 20.5887 20.3333 20.5887 20.4167C20.6734 20.3333 20.7581 20.4167 20.8427 20.5C20.9274 20.6667 21.1815 20.6667 21.2661 20.5833C21.4355 20.4167 21.6895 20.4167 21.7742 20.6667C21.8589 20.75 21.8589 20.75 22.0282 20.75C22.1129 20.75 22.1976 20.75 22.2823 20.8333C22.4516 20.8333 22.621 20.9167 22.7903 20.75C22.875 20.6667 22.9597 20.6667 23.0444 20.75C23.129 20.8333 23.0444 20.9167 22.9597 20.9167L22.875 21C22.7903 21.1667 22.7903 21.3333 22.7056 21.4167C22.7056 21.5 22.7056 21.6667 22.875 21.6667C23.0444 21.75 22.9597 21.8333 22.9597 21.9167C22.9597 22 22.875 22.0833 22.7056 22C22.621 22 22.4516 22 22.4516 21.8333C22.4516 21.75 22.4516 21.6667 22.4516 21.5C22.4516 21.4167 22.4516 21.3333 22.3669 21.3333C22.1976 21.25 22.1129 21.1667 22.0282 21C21.9435 20.9167 21.8589 20.8333 21.7742 20.8333C21.6048 20.8333 21.4355 20.8333 21.2661 20.75C21.0968 20.75 20.9274 20.6667 20.6734 20.6667C20.504 20.6667 20.504 20.6667 20.4194 20.8333C20.4194 20.9167 20.4194 21 20.4194 21.1667C20.4194 21.25 20.4194 21.25 20.4194 21.3333C20.4194 21.4167 20.3347 21.4167 20.25 21.4167C20.25 21.3333 20.1653 21.3333 20.1653 21.25C20.1653 21.1667 20.1653 21 20.1653 20.9167C20.1653 20.8333 20.1653 20.6667 20.0806 20.6667C19.996 20.5833 19.8266 20.5833 19.6573 20.6667C19.6573 20.6667 19.4879 20.75 19.4879 20.6667C19.2339 20.6667 18.8952 20.5833 18.6411 20.5833C17.7097 21.0833 16.6089 21.5 15.0847 21.5C13.2218 21.5 11.5282 20.75 10.3427 19.5C10.004 19.4167 9.91935 19.5 9.91935 19.8333C9.91935 20.0833 9.83468 20.0833 9.58065 20C9.49597 20 9.49597 19.9167 9.49597 19.9167C9.49597 19.8333 9.49597 19.8333 9.58065 19.75C9.66532 19.6667 9.75 19.6667 9.75 19.5833C9.75 19.4167 9.75 19.3333 9.75 19.1667C9.75 19.1667 9.66532 19.0833 9.58065 19.0833C9.49597 19.0833 9.32661 19.0833 9.15726 19C9.07258 19 8.9879 18.9167 9.07258 18.8333C9.24194 18.75 9.32661 18.5833 9.58065 18.5833C9.66532 18.5833 9.75 18.6667 9.75 18.6667C9.75 18.75 9.83468 18.75 9.83468 18.75C8.90323 17.6667 8.39516 16.25 8.39516 14.6667C8.39516 13.9167 8.47984 13.1667 8.73387 12.5833C8.73387 12.5833 8.73387 12.5833 8.64919 12.5833C8.56452 12.5833 8.56452 12.5 8.56452 12.4167C8.56452 12.3333 8.64919 12.25 8.81855 12.25C9.91935 10.0833 12.2056 8.66667 14.5766 8.41667C14.5766 8.33333 14.5766 8.33333 14.5766 8.25C14.5766 8.25 14.746 8.16667 14.8306 8.16667C14.9153 8.16667 14.9153 8.16667 15 8.16667C15.254 8.16667 15.3387 8.25 15.3387 8.33333C15.4234 8.33333 15.5081 8.33333 15.5927 8.33333C15.6774 8.08333 15.7621 8 16.1855 8.16667C16.4395 8.25 16.7782 8.25 17.0323 8.25C17.2016 8.25 17.2863 8.25 17.371 8.41667C17.4556 8.5 17.5403 8.5 17.625 8.41667C17.7944 8.33333 17.7944 8.33333 17.879 8.5C17.9637 8.66667 17.9637 8.75 17.879 8.83333C18.4718 9.08333 18.9798 9.41667 19.4879 9.91667L20.25 9.25C20.25 9.16667 20.3347 9.08333 20.3347 9.08333C20.3347 9.08333 20.3347 9.08333 20.3347 9C20.4194 8.91667 20.504 8.83333 20.5887 8.83333H20.6734L20.9274 8.58333C20.7581 8.5 20.6734 8.5 20.4194 8.75C20.1653 8.91667 20.0806 8.91667 19.9113 8.66667C19.9113 8.58333 19.9113 8.5 19.9113 8.5C19.996 8.5 20.0806 8.41667 20.0806 8.41667C20.1653 8.41667 20.3347 8.5 20.3347 8.41667C20.504 8.33333 20.5887 8.25 20.7581 8.16667C20.7581 8.16667 20.7581 8 20.6734 8C20.5887 7.91667 20.504 7.75 20.4194 7.66667C20.3347 7.58333 20.4194 7.5 20.504 7.5C20.7581 7.58333 21.0121 7.5 21.1815 7.66667C21.2661 7.75 21.2661 7.83333 21.2661 7.83333C21.1815 8 21.2661 8.08333 21.3508 8.16667L22.1976 7.25C22.1129 7.25 21.9435 7.16667 21.8589 7.08333C21.8589 7 21.6895 7 21.6895 6.83333C21.6048 6.83333 21.5202 6.83333 21.4355 6.83333C21.4355 6.91667 21.4355 7 21.2661 7L21.1815 6.91667C21.1815 6.83333 21.3508 6.83333 21.4355 6.83333V6.75L21.5202 6.66667C21.2661 6.41667 20.8427 6.16667 20.504 5.91667H20.4194C20.3347 5.91667 20.3347 5.83333 20.3347 5.75C18.8105 5 17.0323 4.5 15.0847 4.5C14.746 4.5 14.4073 4.5 14.0685 4.58333C14.1532 4.66667 14.1532 4.75 14.1532 4.75C14.2379 4.75 14.2379 4.75 14.3226 4.75C14.4919 4.83333 14.5766 4.91667 14.6613 5.08333C14.746 5.16667 14.5766 5.16667 14.4919 5.16667C14.3226 5.16667 14.2379 5.16667 14.0685 5.16667C13.8992 5.16667 13.8992 5.25 13.9839 5.33333L14.0685 5.41667C14.0685 5.58333 14.2379 5.58333 14.3226 5.58333C14.4919 5.58333 14.5766 5.58333 14.5766 5.75C14.5766 6 14.4919 6 14.3226 6C14.2379 6 14.2379 6 14.1532 6V6.08333C14.1532 6.16667 14.2379 6.33333 13.9839 6.33333C13.8992 6.33333 13.8145 6.25 13.7298 6.16667H13.6452C13.5605 6.16667 13.4758 6.16667 13.4758 6.16667C13.3911 6.16667 13.3065 6.16667 13.3065 6.16667C13.2218 6.16667 13.0524 6.16667 13.0524 6C13.0524 5.91667 13.0524 5.83333 13.1371 5.75L13.2218 5.66667C13.1371 5.58333 13.0524 5.5 12.9677 5.41667C12.9677 5.41667 12.8831 5.5 12.7984 5.41667C12.629 5.33333 12.629 5.33333 12.629 5C12.629 5 12.629 5 12.5444 4.91667V4.83333C12.0363 4.91667 11.5282 5.08333 11.1048 5.25C11.1048 5.33333 11.1048 5.33333 11.1895 5.41667C11.1895 5.41667 11.2742 5.33333 11.3589 5.33333C11.4435 5.25 11.6129 5.25 11.6129 5.08333C11.6129 5.08333 11.8669 5.08333 11.9516 5.08333C12.0363 5.08333 12.0363 5.16667 12.0363 5.25C12.0363 5.41667 12.121 5.5 12.2903 5.5C12.4597 5.5 12.4597 5.66667 12.4597 5.75C12.4597 5.83333 12.4597 5.91667 12.2903 5.91667C12.2056 5.91667 12.0363 6 12.0363 5.75V5.66667C12.0363 5.58333 11.9516 5.58333 11.9516 5.5C11.8669 5.5 11.8669 5.58333 11.7823 5.58333C11.6976 5.58333 11.6129 5.66667 11.6129 5.66667C11.5282 5.66667 11.3589 5.66667 11.2742 5.66667C11.1895 5.66667 11.1048 5.66667 11.1048 5.66667C10.8508 5.83333 10.8508 5.75 10.7661 5.58333C10.7661 5.5 10.6815 5.5 10.6815 5.41667C9.66532 5.91667 8.73387 6.5 7.8871 7.25C8.05645 7.25 8.22581 7.25 8.31048 7.33333C8.56452 7.33333 8.81855 7.5 9.07258 7.33333C9.07258 7.33333 9.24194 7.33333 9.24194 7.41667C9.41129 7.41667 9.49597 7.5 9.58065 7.5C9.66532 7.5 9.75 7.5 9.75 7.5C10.004 7.33333 10.1734 7.33333 10.3427 7.58333C10.3427 7.66667 10.3427 7.75 10.3427 7.83333C10.3427 7.83333 10.3427 7.83333 10.4274 7.83333L10.5121 7.91667C10.5121 7.91667 10.5121 7.91667 10.4274 7.91667C10.3427 8 10.3427 7.91667 10.3427 7.91667C10.3427 7.83333 10.3427 7.83333 10.3427 7.83333C10.2581 7.83333 10.1734 7.83333 10.0887 7.83333C9.83468 7.75 9.66532 7.91667 9.49597 8C9.32661 8.08333 9.15726 8.08333 8.9879 8C8.90323 7.83333 8.90323 7.83333 8.73387 7.91667C8.56452 8 8.31048 8 8.22581 7.83333C8.14113 7.66667 7.8871 7.66667 7.80242 7.75C7.63306 7.91667 7.46371 7.83333 7.37903 7.75C6.19355 8.91667 5.34677 10.3333 4.83871 11.9167H4.92339C5.09274 11.9167 5.2621 11.9167 5.2621 12.0833C5.2621 12.1667 5.09274 12.1667 5.00806 12.1667C4.92339 12.1667 4.83871 12.1667 4.83871 12.0833C4.66935 12.5833 4.58468 13.1667 4.5 13.75C4.58468 13.75 4.75403 13.75 4.83871 13.8333C5.09274 13.8333 5.09274 13.8333 5.09274 13.6667C5.09274 13.5 5.2621 13.4167 5.43145 13.5C5.51613 13.5 5.51613 13.5833 5.60081 13.5833C5.68548 13.6667 5.77016 13.8333 5.85484 13.9167C5.85484 13.9167 5.93952 14 6.02419 14C6.19355 14 6.3629 14.0833 6.61694 14.0833C6.61694 14 6.61694 13.9167 6.44758 13.8333L6.3629 13.75L6.44758 13.6667C6.61694 13.6667 6.78629 13.6667 6.95565 13.75H7.04032C7.125 13.8333 7.20968 13.9167 7.29436 14.0833C7.29436 14.25 7.29436 14.3333 7.29436 14.5C7.29436 14.5833 7.04032 14.5833 6.87097 14.5C6.78629 14.4167 6.78629 14.3333 6.78629 14.25C6.78629 14.1667 6.70161 14.0833 6.61694 14.0833C6.61694 14.1667 6.61694 14.25 6.61694 14.3333C6.61694 14.5 6.53226 14.5 6.3629 14.5C6.02419 14.4167 5.77016 14.4167 5.43145 14.4167C5.09274 14.4167 4.75403 14.3333 4.5 14.25C4.5 14.5 4.5 14.8333 4.5 15.0833C4.5 15.25 4.5 15.4167 4.5 15.5833C4.5 15.5833 4.5 15.5833 4.58468 15.5833C4.58468 15.4167 4.66935 15.3333 4.83871 15.3333C4.92339 15.3333 5.00806 15.4167 5.17742 15.5C5.2621 15.5833 5.34677 15.5833 5.51613 15.5833C5.93952 15.5833 6.27823 15.6667 6.70161 15.6667C6.95565 15.6667 6.95565 15.75 6.95565 15.8333C6.95565 16 6.87097 16.0833 6.61694 16C6.44758 16 6.27823 16 6.10887 15.9167C5.93952 15.9167 5.77016 15.9167 5.68548 15.6667C5.68548 15.5833 5.34677 15.5833 5.2621 15.6667C5.09274 15.8333 5.09274 15.8333 4.92339 15.5833C4.83871 15.5 4.75403 15.5 4.66935 15.4167C4.66935 15.4167 4.58468 15.4167 4.58468 15.3333C4.66935 17.0833 5.17742 18.6667 6.02419 20.0833C6.02419 20 6.02419 20 6.02419 20L6.10887 19.9167L6.19355 20V20.0833C6.19355 20.1667 6.10887 20.1667 6.10887 20.25C7.125 22.1667 8.73387 23.6667 10.7661 24.5C10.7661 24.5 10.8508 24.5 11.0202 24.5C11.1048 24.5 11.1895 24.5833 11.1895 24.6667V24.75C12.4597 25.25 13.7298 25.5 15.1694 25.5C17.371 25.5 19.3185 24.9167 20.9274 24C20.9274 23.9167 20.8427 23.9167 20.8427 23.8333C20.9274 23.75 20.9274 23.6667 21.0121 23.6667C21.0121 23.6667 21.1815 23.6667 21.1815 23.75C21.1815 23.8333 21.1815 23.9167 21.1815 24C22.1129 23.1667 22.9597 22.3333 23.5524 21.3333ZM23.8911 17.8333C24.0605 17.8333 23.9758 18 23.9758 18.0833L23.8911 18.1667C23.8065 18.1667 23.8065 18.0833 23.7218 18C23.8065 18 23.8065 17.8333 23.8911 17.8333ZM24.3992 15.5833C24.3145 15.5833 24.3145 15.5833 24.3992 15.5833C24.3992 15.6667 24.4839 15.75 24.4839 15.8333H24.3992C24.2298 15.6667 24.3145 15.6667 24.3992 15.5833ZM18.1331 8.25C17.9637 8.08333 17.9637 8 18.2177 7.83333C18.3024 7.83333 18.3871 7.83333 18.3871 7.83333C18.3871 7.83333 18.4718 7.91667 18.3871 8C18.3024 8.16667 18.3871 8.25 18.5565 8.16667C18.7258 8.16667 18.7258 8.25 18.7258 8.33333C18.5565 8.66667 18.4718 8.66667 18.2177 8.33333C18.1331 8.33333 18.1331 8.25 18.1331 8.25ZM19.1492 9.16667C19.0645 9.16667 19.0645 9.16667 19.1492 9.16667C19.0645 9.16667 19.0645 9.16667 18.9798 9.16667C18.8952 9.16667 18.8105 9.16667 18.7258 9.16667C18.6411 9.16667 18.6411 9.16667 18.5565 9.16667C18.3024 9.16667 18.3024 9.08333 18.3024 8.91667C18.3024 8.66667 18.3871 8.66667 18.6411 8.75C18.8105 8.75 18.8952 8.83333 19.0645 8.83333C19.2339 8.83333 19.2339 8.91667 19.2339 9.08333C19.1492 9.08333 19.1492 9.08333 19.1492 9.16667ZM19.4879 8.16667C19.4879 8.16667 19.4879 8.08333 19.5726 8.08333C19.5726 8.08333 19.6573 8.08333 19.7419 8.08333C19.6573 8.08333 19.6573 8.16667 19.5726 8.16667H19.4879ZM19.8266 9.08333L19.9113 9.16667L19.8266 9.25C19.7419 9.25 19.7419 9.16667 19.6573 9.16667C19.7419 9.16667 19.8266 9.08333 19.8266 9.08333ZM19.7419 7.83333C19.6573 7.83333 19.5726 7.75 19.4879 7.66667C19.5726 7.66667 19.6573 7.58333 19.7419 7.58333C19.8266 7.66667 19.8266 7.75 19.9113 7.75C19.8266 7.75 19.7419 7.83333 19.7419 7.83333ZM20.3347 6.41667C20.3347 6.5 20.4194 6.5 20.3347 6.41667C20.4194 6.5 20.3347 6.5 20.3347 6.5C20.3347 6.58333 20.3347 6.5 20.3347 6.41667C20.3347 6.5 20.25 6.5 20.3347 6.41667ZM20.25 6.83333C20.3347 6.91667 20.4194 7 20.3347 7.16667C20.1653 7.41667 19.9113 7.5 19.6573 7.58333C19.6573 7.58333 19.5726 7.58333 19.4879 7.58333C19.3185 7.5 19.2339 7.5 19.0645 7.58333H18.9798C18.8952 7.58333 18.8952 7.66667 18.8105 7.66667H18.7258C18.8105 7.83333 18.7258 7.91667 18.6411 7.83333C18.5565 7.75 18.5565 7.66667 18.5565 7.58333C18.5565 7.5 18.6411 7.5 18.7258 7.5C18.7258 7.5 18.7258 7.5 18.8105 7.5C18.8105 7.41667 18.8105 7.41667 18.8105 7.41667C18.9798 7.33333 19.1492 7.25 19.3185 7.08333C19.6573 7 19.8266 6.83333 19.996 6.75C20.0806 6.75 20.1653 6.75 20.25 6.83333ZM19.1492 5.5C19.1492 5.41667 19.3185 5.41667 19.4032 5.41667C19.4879 5.5 19.5726 5.5 19.5726 5.58333C19.4879 5.58333 19.4032 5.66667 19.3185 5.66667C19.2339 5.66667 19.0645 5.58333 19.1492 5.5ZM17.2863 4.75C17.2863 4.75 17.371 4.75 17.371 4.83333C17.2863 4.83333 17.2863 4.83333 17.2863 4.83333C17.2863 4.83333 17.2016 4.83333 17.2016 4.75C17.2016 4.83333 17.2863 4.83333 17.2863 4.75ZM16.7782 5.08333C16.8629 5.08333 16.8629 5.08333 16.9476 5.08333V5.16667C16.8629 5.16667 16.8629 5.16667 16.7782 5.16667C16.6935 5.08333 16.7782 5.08333 16.7782 5.08333ZM15.254 4.83333V4.91667H15.1694C15.1694 4.91667 15.1694 4.83333 15.1694 4.75C15.1694 4.83333 15.254 4.83333 15.254 4.83333ZM15.0847 5.91667C15.1694 5.83333 15.1694 5.75 15.254 5.66667C15.3387 5.5 15.3387 5.5 15.5927 5.5C15.7621 5.5 15.8468 5.58333 15.8468 5.75V5.83333C15.8468 5.91667 15.8468 6 16.0161 6C16.1008 6 16.2702 6.08333 16.3548 5.91667C16.3548 5.91667 16.3548 5.91667 16.3548 5.83333C16.4395 5.58333 16.6935 5.58333 16.8629 5.75C16.9476 5.75 17.0323 5.83333 17.0323 5.83333C17.1169 5.75 17.2863 5.75 17.371 5.66667C17.4556 5.58333 17.371 5.58333 17.2863 5.5C17.2016 5.5 17.1169 5.5 17.0323 5.41667L16.9476 5.33333L17.0323 5.25H17.1169C17.2016 5.25 17.371 5.25 17.371 5.16667H17.4556L17.5403 5.25C17.5403 5.33333 17.5403 5.33333 17.5403 5.41667C17.5403 5.58333 17.4556 5.75 17.7097 5.83333V5.91667C17.7097 6 17.7944 6.08333 17.7944 6.08333C17.879 6.08333 18.0484 6.08333 18.1331 6.08333C18.3024 6 18.3024 6 18.4718 6.16667C18.5565 6.25 18.6411 6.41667 18.8105 6.5C18.8105 6.41667 18.8105 6.33333 18.8105 6.16667C18.8105 6.08333 18.8105 6 18.8105 6C18.8105 5.83333 19.0645 5.66667 19.1492 5.75C19.2339 5.75 19.2339 5.83333 19.3185 5.83333C19.5726 6.08333 19.5726 6.41667 19.3185 6.58333C19.2339 6.58333 19.1492 6.66667 19.0645 6.66667C19.0645 6.66667 19.0645 6.66667 18.9798 6.66667C18.8952 6.66667 18.8105 6.66667 18.7258 6.66667C18.5565 6.66667 18.3871 6.66667 18.3871 6.5C18.3871 6.41667 18.2177 6.41667 18.1331 6.5C18.0484 6.58333 17.9637 6.66667 17.879 6.75C17.7944 6.83333 17.7097 6.83333 17.625 6.66667C17.625 6.58333 17.5403 6.41667 17.5403 6.41667C17.371 6.33333 17.2016 6.33333 17.0323 6.33333H16.9476C16.8629 6.5 16.6089 6.41667 16.5242 6.58333C16.5242 6.58333 16.4395 6.58333 16.3548 6.58333C16.1855 6.5 15.8468 6.58333 15.7621 6.33333C15.7621 6.25 15.5927 6.25 15.5927 6.33333C15.5081 6.5 15.4234 6.41667 15.3387 6.33333C15.4234 6.16667 15.3387 6.16667 15.1694 6.16667C15 6.08333 15 6.08333 15.0847 5.91667ZM14.4073 6.58333C14.4073 6.58333 14.4073 6.66667 14.4073 6.75C14.4073 6.75 14.3226 6.75 14.2379 6.75C14.2379 6.75 14.2379 6.66667 14.2379 6.58333C14.3226 6.58333 14.4073 6.58333 14.4073 6.58333ZM13.6452 7C13.6452 6.91667 13.7298 6.83333 13.8992 6.83333C14.1532 6.83333 14.3226 6.83333 14.5766 6.83333C14.8306 6.83333 15 7 15 7.16667H15.0847V7.25H15C15 7.25 14.9153 7.33333 14.8306 7.25C14.6613 7.25 14.4919 7.16667 14.3226 7.16667C14.1532 7.16667 14.0685 7.08333 13.8992 7.08333C13.6452 7.16667 13.5605 7.08333 13.6452 7ZM12.629 7.91667H12.7984C12.9677 7.91667 13.1371 8 13.2218 7.83333C13.2218 7.83333 13.3065 7.75 13.3911 7.75C13.6452 7.75 13.8992 7.75 13.9839 8C13.9839 8 14.0685 8 14.0685 8.08333C14.2379 8.25 14.2379 8.25 14.0685 8.33333C13.7298 8.5 13.7298 8.5 13.4758 8.41667C13.3911 8.41667 13.3065 8.41667 13.1371 8.41667C13.0524 8.41667 12.9677 8.33333 12.9677 8.25C12.9677 8.16667 12.8831 8.08333 12.7984 8.08333C12.7137 8.08333 12.7137 8.08333 12.629 8.08333C12.5444 8.08333 12.4597 8 12.5444 7.91667H12.629ZM11.6129 6.5C11.6976 6.5 11.8669 6.5 11.9516 6.5C12.121 6.5 12.375 6.58333 12.5444 6.66667C12.7137 6.66667 12.629 6.83333 12.629 6.91667C12.629 7 12.629 7.08333 12.4597 7.08333C12.2903 7 12.121 7 11.9516 7C11.7823 7 11.6976 7 11.5282 6.91667C11.4435 6.91667 11.3589 6.91667 11.3589 6.75C11.3589 6.58333 11.4435 6.5 11.6129 6.5ZM11.3589 7.75C11.5282 7.66667 11.8669 7.75 11.9516 7.83333C12.0363 8 12.2056 8.08333 12.2056 8.16667C12.2056 8.16667 12.0363 8.33333 11.9516 8.33333C11.8669 8.33333 11.8669 8.41667 11.7823 8.41667C11.6976 8.41667 11.6129 8.41667 11.6129 8.41667C11.2742 8.33333 11.1895 8.33333 11.1895 8C11.2742 7.91667 11.2742 7.83333 11.3589 7.75ZM10.004 6.75C10.004 6.66667 9.91935 6.66667 9.91935 6.66667L10.004 6.58333L10.0887 6.66667C10.0887 6.66667 10.0887 6.66667 10.004 6.75ZM11.0202 7.83333H10.9355L10.8508 7.75C10.9355 7.75 10.9355 7.66667 11.0202 7.66667C10.9355 7.75 11.0202 7.75 11.0202 7.83333ZM10.7661 6.41667C10.8508 6.5 10.8508 6.58333 10.9355 6.66667C10.8508 6.66667 10.8508 6.75 10.7661 6.75C10.6815 6.75 10.5968 6.66667 10.6815 6.58333C10.6815 6.58333 10.7661 6.5 10.7661 6.41667ZM10.4274 9.58333C10.5121 9.58333 10.5968 9.58333 10.6815 9.58333C10.6815 9.66667 10.5968 9.66667 10.5968 9.75C10.5121 9.75 10.4274 9.75 10.4274 9.75C10.4274 9.66667 10.4274 9.66667 10.4274 9.58333ZM9.32661 8.25C9.49597 8.25 9.58065 8.25 9.66532 8.33333C9.58065 8.41667 9.58065 8.5 9.49597 8.5C9.41129 8.5 9.32661 8.5 9.24194 8.5C9.24194 8.5 9.32661 8.41667 9.32661 8.25ZM9.15726 11C9.24194 11 9.32661 11 9.41129 11C9.41129 11 9.41129 11.0833 9.41129 11.1667C9.32661 11.1667 9.24194 11.25 9.15726 11.25C9.07258 11.25 8.9879 11.1667 8.90323 11.0833C8.90323 11 9.07258 11 9.15726 11ZM5.93952 10.8333C5.85484 10.75 5.85484 10.6667 5.77016 10.6667C5.77016 10.5833 5.85484 10.5 5.93952 10.5833C6.02419 10.5 6.10887 10.5833 6.10887 10.5833C6.10887 10.6667 6.10887 10.75 6.19355 10.8333C6.10887 10.8333 5.93952 10.8333 5.93952 10.8333ZM6.61694 12.3333C6.61694 12.3333 6.53226 12.3333 6.44758 12.25C6.53226 12.1667 6.61694 12.1667 6.61694 12.1667L6.70161 12.25C6.70161 12.3333 6.61694 12.3333 6.61694 12.3333ZM6.53226 10.9167C6.53226 10.9167 6.44758 10.8333 6.3629 10.8333C6.44758 10.8333 6.53226 10.75 6.61694 10.75C6.70161 10.8333 6.78629 10.8333 6.87097 10.9167C6.78629 10.8333 6.70161 10.9167 6.53226 10.9167ZM5.09274 17.1667C5.00806 17.1667 5.00806 17.0833 5.00806 17.0833C5.00806 17 5.09274 17 5.17742 16.9167C5.2621 17 5.2621 17.0833 5.2621 17.1667C5.17742 17.1667 5.09274 17.1667 5.09274 17.1667ZM6.3629 19.5833C6.3629 19.5833 6.27823 19.5833 6.27823 19.5C6.3629 19.5 6.3629 19.5 6.44758 19.5L6.53226 19.5833C6.3629 19.5833 6.3629 19.5833 6.3629 19.5833ZM9.07258 19.8333C9.07258 19.9167 9.15726 19.9167 9.07258 20C9.07258 20 8.9879 20 8.9879 20.0833L8.90323 20C8.9879 19.8333 9.07258 19.8333 9.07258 19.8333ZM8.47984 18.75C8.56452 18.75 8.73387 18.75 8.73387 18.9167C8.81855 19.1667 8.73387 19.3333 8.64919 19.5833L8.56452 19.6667C8.39516 19.6667 8.39516 19.75 8.31048 19.9167L8.22581 20C8.22581 19.9167 8.14113 19.9167 8.14113 19.8333C8.14113 19.6667 8.14113 19.5 8.22581 19.4167C8.22581 19.25 8.22581 19.0833 8.31048 18.9167C8.31048 18.75 8.39516 18.6667 8.47984 18.75ZM8.47984 8.83333C8.56452 8.83333 8.56452 8.91667 8.47984 8.83333C8.56452 8.91667 8.47984 9 8.47984 9C8.47984 9 8.39516 8.91667 8.31048 8.91667C8.39516 8.91667 8.47984 8.83333 8.47984 8.83333ZM8.05645 10.9167C8.05645 10.9167 8.14113 10.9167 8.22581 10.9167C8.22581 10.9167 8.31048 11 8.39516 11C8.31048 11 8.22581 11 8.22581 11H8.14113L8.05645 10.9167C7.97177 10.9167 7.97177 10.9167 8.05645 10.9167ZM7.54839 12.1667H7.71774C7.80242 12.3333 7.8871 12.3333 8.05645 12.25C8.05645 12.25 8.14113 12.25 8.22581 12.25C8.31048 12.3333 8.31048 12.3333 8.39516 12.4167V12.5C8.31048 12.6667 8.05645 12.75 7.8871 12.75C7.8871 12.75 7.80242 12.6667 7.71774 12.5833L7.63306 12.5C7.54839 12.4167 7.46371 12.25 7.54839 12.1667ZM7.46371 15.9167C7.54839 15.9167 7.54839 16 7.54839 16.0833C7.54839 16.1667 7.54839 16.25 7.37903 16.25C7.29435 16.25 7.29435 16.1667 7.20968 16.0833C7.37903 16 7.46371 15.9167 7.46371 15.9167ZM6.70161 17.3333C6.70161 17.25 6.78629 17.25 6.87097 17.1667C6.95565 17.25 7.04032 17.3333 7.125 17.3333C7.04032 17.3333 6.95565 17.4167 6.78629 17.4167C6.78629 17.4167 6.70161 17.4167 6.70161 17.3333ZM7.63306 19.25C7.46371 19.25 7.29435 19.25 7.20968 19.0833C7.20968 19 7.125 19 7.04032 18.9167C6.95565 18.8333 6.95565 18.5833 7.04032 18.5833C7.125 18.5833 7.20968 18.5833 7.20968 18.5833C7.54839 18.6667 7.80242 18.8333 7.71774 19.0833C7.80242 19.0833 7.80242 19.25 7.63306 19.25ZM7.54839 14.5C7.46371 14.4167 7.54839 14.25 7.63306 14.1667C7.80242 14.0833 7.8871 14 8.05645 13.9167C8.14113 13.8333 8.22581 13.8333 8.31048 13.8333C8.39516 13.8333 8.39516 13.9167 8.39516 14C8.39516 14.0833 8.39516 14.0833 8.39516 14.1667C8.47984 14.3333 8.14113 14.4167 8.05645 14.5833C7.97177 14.6667 7.63306 14.5833 7.54839 14.5ZM8.22581 15.9167C8.31048 15.9167 8.31048 16 8.39516 16.0833L8.31048 16.1667C8.22581 16.1667 8.22581 16.0833 8.05645 16.0833C8.14113 16 8.22581 15.9167 8.22581 15.9167ZM8.14113 20.5L8.22581 20.4167C8.22581 20.4167 8.31048 20.4167 8.39516 20.5C8.47984 20.6667 8.56452 20.6667 8.64919 20.5C8.73387 20.4167 8.81855 20.4167 8.90323 20.5833C8.9879 20.8333 8.90323 20.9167 8.56452 20.8333H8.47984C8.14113 20.75 8.05645 20.6667 8.14113 20.5ZM9.07258 22.0833C8.90323 22.1667 8.81855 22.3333 8.64919 22.25C8.56452 22.25 8.39516 22.1667 8.39516 22.0833C8.39516 21.9167 8.47984 21.8333 8.64919 21.9167C8.73387 21.9167 8.81855 21.9167 8.81855 21.9167C8.90323 21.9167 8.9879 21.9167 8.9879 21.9167C9.07258 21.9167 9.07258 22 9.15726 22C9.15726 22.0833 9.15726 22.0833 9.07258 22.0833ZM9.41129 20.9167C9.32661 20.9167 9.32661 20.8333 9.24194 20.8333C9.32661 20.75 9.41129 20.75 9.41129 20.75C9.49597 20.75 9.49597 20.8333 9.58065 20.8333C9.49597 20.8333 9.49597 20.9167 9.41129 20.9167ZM10.5968 20.25C10.5968 20.25 10.5121 20.25 10.4274 20.25C10.4274 20.3333 10.3427 20.4167 10.2581 20.4167C10.1734 20.3333 10.1734 20.25 10.1734 20.25C10.1734 20.0833 10.4274 19.9167 10.5968 19.9167C10.6815 19.9167 10.6815 20 10.7661 20.0833C10.6815 20.0833 10.7661 20.1667 10.5968 20.25ZM13.8145 23C13.7298 23 13.6452 23.0833 13.5605 23.0833C13.3911 23.1667 13.3065 23.0833 13.1371 23C12.7984 22.8333 12.8831 22.5833 12.8831 22.4167C13.1371 22.4167 13.3911 22.5 13.7298 22.5C13.8145 22.5 13.8992 22.5833 13.8992 22.6667C13.8992 22.8333 13.9839 22.9167 13.8145 23ZM15.0847 24.8333C15 24.75 15 24.6667 15 24.6667L15.0847 24.5833L15.1694 24.6667C15.1694 24.75 15.1694 24.8333 15.0847 24.8333ZM14.9153 23C14.9153 23 15 22.9167 15.0847 22.9167L15.1694 23C15.1694 23 15.0847 23.0833 15.0847 23.1667C14.9153 23.0833 14.8306 23 14.9153 23ZM15.4234 21.9167C15.3387 21.9167 15.254 22.0833 15.0847 22C15 21.9167 14.8306 21.8333 14.746 21.8333L14.6613 21.75L14.746 21.6667C14.9153 21.6667 15 21.6667 15.1694 21.6667C15.254 21.6667 15.3387 21.6667 15.4234 21.6667C15.5081 21.6667 15.5081 21.75 15.5081 21.75C15.5081 21.8333 15.4234 21.9167 15.4234 21.9167ZM15.8468 23.3333C15.7621 23.25 15.6774 23.25 15.5927 23.1667C15.5081 23.0833 15.5927 23 15.7621 23C15.7621 23 15.7621 23 15.8468 23C15.9315 22.9167 15.9315 22.8333 16.1008 22.9167C16.1855 23 16.1855 23.1667 16.1855 23.25C16.1008 23.25 15.9315 23.25 15.8468 23.3333ZM16.6089 23.0833C16.6089 23.0833 16.5242 23.1667 16.4395 23.1667L16.3548 23.0833C16.3548 23 16.4395 23 16.4395 23C16.5242 23 16.5242 23 16.6089 23C16.6935 23 16.6935 23 16.6089 23.0833ZM17.371 22.3333C17.2863 22.3333 17.2016 22.25 17.2016 22.1667C17.2863 22.25 17.371 22.25 17.371 22.3333ZM18.2177 21.25C18.1331 21.25 18.1331 21.1667 18.0484 21.0833C18.1331 21 18.2177 21 18.2177 21C18.3024 21 18.3024 21.0833 18.3024 21.1667C18.3871 21.1667 18.3024 21.25 18.2177 21.25ZM19.4032 14.0833C19.4032 14 19.4032 13.9167 19.5726 13.9167C19.6573 13.9167 19.9113 13.9167 19.9113 14C19.996 14.1667 20.0806 14.1667 20.25 14.1667H20.3347C20.3347 14.1667 20.4194 14.25 20.4194 14.3333C20.3347 14.3333 20.3347 14.4167 20.25 14.4167C20.0806 14.4167 19.996 14.4167 19.8266 14.3333C19.7419 14.3333 19.6573 14.3333 19.5726 14.3333C19.4032 14.25 19.4032 14.25 19.4032 14.0833ZM17.9637 13.5C18.0484 13.5 18.2177 13.5 18.3024 13.5833C18.3871 13.5833 18.4718 13.5833 18.6411 13.5833C18.8105 13.5833 18.8952 13.5833 18.9798 13.75L19.0645 13.8333C19.1492 13.8333 19.2339 13.9167 19.2339 14C19.2339 14.0833 19.0645 14.0833 18.9798 14.0833C18.8952 14.0833 18.7258 14.0833 18.6411 14.0833C18.5565 14.0833 18.5565 14.0833 18.4718 14.0833C18.3871 14.1667 18.3024 14.3333 18.1331 14.0833C18.0484 14 17.879 14 17.879 13.8333V13.75C17.7944 13.5 17.7944 13.5 17.9637 13.5ZM16.8629 13.6667C16.9476 13.5 17.1169 13.5 17.2863 13.5C17.4556 13.5 17.4556 13.5833 17.4556 13.75C17.4556 13.9167 17.371 14 17.2016 14C17.1169 14 17.0323 14 17.0323 14H16.9476C16.8629 14 16.6935 13.9167 16.6935 13.9167C16.6089 13.75 16.7782 13.75 16.8629 13.6667ZM17.2016 16.9167C17.0323 16.9167 16.8629 16.8333 16.7782 16.75C16.6089 16.6667 16.4395 16.5833 16.6089 16.3333C16.6935 16.25 16.6089 16.1667 16.6089 16.0833H16.6935C16.7782 16.1667 16.9476 16.1667 17.0323 16.0833C17.0323 16.0833 17.1169 16.0833 17.2016 16.1667V16.25C17.0323 16.4167 17.1169 16.5 17.2016 16.5833L17.2863 16.6667C17.2863 16.8333 17.2016 16.9167 17.2016 16.9167ZM18.6411 15.4167C18.6411 15.5 18.5565 15.5833 18.5565 15.6667C18.5565 15.75 18.5565 15.75 18.5565 15.8333C18.5565 15.9167 18.5565 16.0833 18.3871 16.0833C18.2177 16.0833 18.0484 16 17.9637 15.8333L17.879 15.75L17.7944 15.8333C17.7944 15.9167 17.7097 15.9167 17.5403 15.9167C17.2016 15.8333 16.8629 15.8333 16.5242 15.75H16.4395L16.3548 15.8333C16.1855 15.9167 16.1008 15.9167 15.9315 15.75C15.7621 15.5833 15.8468 15.5 16.0161 15.4167C16.0161 15.4167 16.0161 15.4167 16.1008 15.4167C16.1008 15.3333 16.1855 15.25 16.2702 15.25C16.3548 15.25 16.3548 15.1667 16.4395 15.1667C16.5242 14.9167 16.6089 14.8333 16.9476 14.9167C17.2016 14.9167 17.371 15 17.625 15C17.7944 15 17.9637 15 18.0484 15.25C18.0484 15.3333 18.3871 15.3333 18.5565 15.25C18.6411 15.25 18.7258 15.1667 18.8105 15.1667C18.8952 15.1667 18.8952 15.25 18.9798 15.25C18.6411 15.3333 18.6411 15.4167 18.6411 15.4167ZM21.7742 18.75C21.5202 18.9167 21.5202 18.9167 21.1815 18.5833C21.1815 18.5 21.0968 18.3333 21.0968 18.25C21.1815 18.1667 21.3508 18 21.5202 18.1667C21.6048 18.25 21.7742 18.3333 21.7742 18.4167C21.7742 18.5833 21.8589 18.6667 21.7742 18.75ZM21.5202 17.8333C21.6048 17.75 21.6048 17.8333 21.5202 17.8333C21.6048 17.75 21.6048 17.8333 21.6048 17.8333C21.6895 17.8333 21.6895 17.8333 21.5202 17.8333C21.6048 17.8333 21.6048 17.8333 21.5202 17.8333ZM22.4516 16.5833C22.3669 16.5833 22.1976 16.5833 22.1129 16.5C21.9435 16.5 21.9436 16.4167 21.9436 16.3333C21.9436 16.0833 21.7742 16 21.6048 15.8333V15.9167C21.6048 16.25 21.4355 16.25 21.0968 16.1667C20.9274 16.0833 20.8427 16.0833 20.7581 16.25C20.6734 16.3333 20.3347 16.3333 20.25 16.1667C20.1653 16.0833 20.1653 16.0833 20.0806 16.0833C19.8266 16.25 19.4879 16.1667 19.2339 15.9167C19.0645 15.8333 19.0645 15.5833 18.8952 15.5V15.4167C19.0645 15.3333 19.2339 15.1667 19.4879 15.25C19.6573 15.3333 19.8266 15.25 19.996 15.25C20.0806 15.25 20.1653 15.25 20.1653 15.25C20.3347 15.3333 20.5887 15.3333 20.8427 15.3333C20.9274 15.3333 21.0968 15.3333 21.1815 15.5C21.1815 15.5 21.2661 15.5833 21.3508 15.5833C21.4355 15.5833 21.6048 15.6667 21.6895 15.6667C21.6895 15.5 21.7742 15.5 21.9436 15.5C22.0282 15.5 22.1129 15.5 22.1976 15.5C22.3669 15.5 22.4516 15.5833 22.3669 15.6667C22.3669 15.8333 22.4516 15.9167 22.621 15.9167C22.7903 15.9167 22.875 16 22.875 16.0833C22.621 16.5 22.621 16.5833 22.4516 16.5833ZM22.0282 15.1667C22.1129 15.0833 22.1976 15.0833 22.2823 15.1667C22.2823 15.1667 22.2823 15.1667 22.3669 15.1667C22.4516 15.1667 22.621 15.0833 22.621 15.25C22.621 15.3333 22.4516 15.5 22.3669 15.5833C22.2823 15.5833 22.1976 15.5 22.0282 15.5C22.0282 15.3333 21.9435 15.25 22.0282 15.1667ZM22.621 14.6667C22.3669 14.6667 22.0282 14.5833 21.7742 14.5833C21.7742 14.5833 21.7742 14.6667 21.7742 14.75C21.7742 14.75 21.6895 14.75 21.5202 14.75C21.5202 14.6667 21.5202 14.5833 21.5202 14.5833C21.2661 14.5833 21.0121 14.5 20.7581 14.5C20.6734 14.5 20.5887 14.4167 20.5887 14.4167C20.5887 14.3333 20.6734 14.25 20.7581 14.3333C20.9274 14.3333 21.0121 14.3333 21.1815 14.25C21.4355 14.1667 21.7742 14.1667 22.0282 14.3333C22.1129 14.3333 22.1129 14.4167 22.1129 14.4167C22.1976 14.5 22.2823 14.5 22.3669 14.5833C22.4516 14.5833 22.5363 14.5833 22.5363 14.5C22.5363 14.4167 22.5363 14.4167 22.621 14.3333C22.7056 14.25 22.7056 14.25 22.875 14.3333C22.9597 14.4167 22.9597 14.4167 23.0444 14.5C23.129 14.5833 23.129 14.6667 23.0444 14.75C22.9597 14.75 22.9597 14.75 22.875 14.8333C22.7903 14.75 22.7056 14.6667 22.621 14.6667ZM22.7903 16C22.7903 15.9167 22.7056 15.9167 22.7056 15.8333L22.7903 15.75L22.875 15.8333C22.9597 15.9167 22.875 16 22.7903 16ZM22.7903 15.75V15.5833C22.875 15.5833 22.9597 15.5833 22.9597 15.5833C23.0444 15.5833 23.0444 15.6667 23.129 15.75C23.0444 15.75 23.0444 15.8333 22.9597 15.8333C22.875 15.8333 22.7903 15.75 22.7903 15.75ZM23.0444 18.0833C22.9597 18 23.0444 18 23.0444 17.9167C23.0444 18 23.129 18 23.129 18C23.129 18.0833 23.129 18.0833 23.0444 18.0833Z" fill="#CE4B4B"/>
</g>
<defs>
<clipPath id="clip0_0_1643">
<rect width="30" height="30" fill="white"/>
</clipPath>
</defs>
</svg>
