<svg width="60" height="60" viewBox="0 0 60 60" fill="none" xmlns="http://www.w3.org/2000/svg">
<g clip-path="url(#clip0_0_1321)">
<circle opacity="0.1" cx="30" cy="30" r="30" fill="#FEFEFE"/>
<path d="M25.0383 12H24.8472C24.9109 12.0593 24.9746 12.0593 25.0383 12Z" fill="#FEFEFE"/>
<path d="M19.3415 12.089C19.2142 12.1186 19.0869 12.178 18.9597 12.2076C18.6096 12.2669 18.3232 12.3856 18.0686 12.0297L18.0368 12H17.7503C17.5594 12.0593 17.3684 12.178 17.3048 12.2966C17.2093 12.5636 16.732 12.8008 16.4455 12.7415C16.3501 12.7119 16.2546 12.5636 16.2228 12.3856C16.2228 12.4153 16.0955 12.5042 16.0318 12.5636V16.1229C16.0636 16.1229 16.1273 16.1229 16.1591 16.1525C16.4774 16.1822 16.6047 16.7161 16.3819 16.9237C16 17.2797 16 17.2797 16.4455 17.5169C16.5092 17.5466 16.6047 17.6356 16.6365 17.6949C16.6365 17.7542 16.5728 17.8729 16.5092 17.9025C16.3501 17.9322 16.1909 18.0212 16.0318 18.0212V19.4746C16.0955 19.5042 16.1909 19.5636 16.1909 19.5932C16.1909 19.6822 16.1591 19.8305 16.0636 19.8898C16.0636 19.8898 16.0318 19.8898 16 19.8898V24.25C16.0636 24.161 16.1909 24.072 16.3182 24.0424C16.4774 23.9831 16.6683 23.9534 16.8274 23.9237C16.9866 23.8941 17.1775 23.8347 17.3366 23.8051C17.5594 23.7754 17.7185 23.7458 17.9095 23.9534C18.0686 24.161 18.2277 24.072 18.2913 23.8347C18.355 23.5381 18.9278 23.3008 19.1824 23.4195C19.4052 23.5381 19.4688 24.1314 19.3097 24.339C19.087 24.6356 18.6732 24.8432 18.6414 25.2881C18.6414 25.4364 18.3868 25.4958 18.2913 25.3475C18.1004 25.0805 17.8776 25.1398 17.623 25.2288C17.082 25.4068 16.6683 25.1102 16.2228 24.9619C16.1273 24.9322 16.0955 24.7839 16.0318 24.6653C16.0318 24.6653 16.0318 24.6653 16.0318 24.6949V26.3856C16.0318 26.3856 16.0318 26.3856 16.0636 26.3856C16.0318 26.2966 16.0318 26.3263 16.0318 26.3559V27.3347C16.0955 27.2754 16.1909 27.2754 16.2864 27.2458C16.3819 27.2161 16.5092 27.1864 16.5728 27.1864C16.6683 27.2161 16.8274 27.3051 16.8593 27.3941C16.9229 27.661 16.6683 27.7203 16.4774 27.7797C16.3182 27.8093 16.1591 27.8983 16.0318 27.8093V28.2246C16.4774 28.1059 16.8911 28.017 17.3684 27.9873C17.8776 27.9576 18.355 27.7797 18.8324 27.6907C18.9915 27.661 19.1824 27.661 19.3097 27.7203C19.7234 27.928 20.0099 27.8686 20.2326 27.5127C20.4872 27.1271 20.4554 27.1271 20.8691 27.3347C20.9964 27.3941 21.1555 27.4237 21.2828 27.4237C21.5056 27.4237 21.7284 27.3644 21.983 27.3644C22.0784 27.3644 22.2375 27.3941 22.2375 27.4237C22.2375 27.5424 22.2375 27.7797 22.2057 27.7797C21.8875 27.8093 22.1421 28.5508 21.5692 28.2246C21.2192 28.017 21.251 28.0169 21.0601 28.3432C20.9964 28.4619 20.8373 28.5508 20.71 28.5805C20.169 28.6992 19.628 28.8178 19.0551 28.9068C18.9597 28.9364 18.8324 28.9068 18.7369 28.8475C18.2595 28.6102 17.9731 28.6695 17.6867 29.1144C17.5276 29.3517 17.0502 29.4703 16.8593 29.2924C16.7001 29.1144 16.541 29.1441 16.3501 29.1737C16.2546 29.2034 16.1591 29.2034 16.0318 29.2331V31.6356C16.1273 31.6653 16.2546 31.7246 16.3819 31.8432C16.6365 32.1102 16.8911 32.3475 17.3048 32.3475C17.4321 32.3475 17.5276 32.4364 17.4957 32.5551C17.5912 32.6144 17.6867 32.6441 17.7822 32.7034C17.814 32.7331 17.7822 32.9407 17.6867 33.0297C17.5912 33.1186 17.4321 33.1186 17.3048 33.178C17.1775 33.178 17.0184 33.2076 16.8593 33.2076C16.5092 33.2076 16.2546 33.3559 16.0955 33.5932C16.0955 33.6525 16.0636 33.6822 16.0318 33.7119V39.0508C16.4137 39.0805 16.541 39.1695 16.5728 39.5551C16.6047 39.7331 16.5092 39.822 16.3501 39.8517C16.2546 39.8814 16.1273 39.911 16.0318 39.9407V47L21.792 43.2627C21.7284 43.2331 21.6965 43.2034 21.6965 43.2034C21.6965 43.1441 21.7284 43.0551 21.7284 42.9661C21.792 42.9958 21.8875 42.9958 21.8875 43.0551C21.8875 43.0847 21.8875 43.1441 21.8875 43.1737L24.0515 41.7797C23.7969 41.839 23.5742 41.8983 23.3514 41.9576C23.0968 42.017 22.7786 42.0466 22.8104 42.4025C22.8104 42.4619 22.6831 42.5212 22.6194 42.5508C22.5876 42.5508 22.4921 42.4915 22.4603 42.4322C22.333 42.2246 22.3012 42.0466 22.3967 41.928C22.3967 41.8686 22.3967 41.7797 22.3648 41.6907C22.4921 41.7203 22.5876 41.6907 22.6513 41.7203C22.6831 41.7203 22.6831 41.6907 22.7149 41.6907C22.9059 41.6314 23.065 41.572 23.1286 41.3347C23.1605 41.2458 23.2877 41.1568 23.415 41.0975C23.606 41.0381 23.8288 40.9788 24.0197 40.9492C24.1788 40.9195 24.3698 40.8602 24.5289 40.8305C24.9108 40.7712 24.9744 40.8305 25.0699 41.1568L29.7162 38.1017L31.6257 39.3475C31.6257 39.1695 31.8803 38.9322 32.1667 38.9025C32.4213 38.8432 32.5486 38.9619 32.6441 39.3178C32.7395 39.7034 32.7077 39.7924 32.4213 39.8517L34.2035 41.0085C34.2353 40.9492 34.2989 40.8898 34.3626 40.8602C34.5217 40.7712 34.7445 40.7712 34.9036 40.7119V40.6822C35.1582 40.6525 35.381 40.5932 35.6355 40.5636C35.6992 40.5636 35.8265 40.6822 35.7947 40.7119C35.7628 40.9195 35.731 41.2161 35.6037 41.2754C35.381 41.3644 35.19 41.4237 34.9672 41.4831L41.3321 45.6356C41.4912 45.5169 41.6185 45.4873 41.8094 45.6059C41.9049 45.6653 42.064 45.6059 42.1913 45.6059C42.5096 45.5763 42.6687 45.8136 42.7323 46.0212C42.7642 46.1102 42.6369 46.2881 42.5096 46.4068L42.5732 46.4364C42.6051 46.3771 42.6687 46.2585 42.7323 46.1398C42.8915 46.2585 43.0506 46.3178 43.0506 46.4068C43.0506 46.4958 42.9869 46.5847 42.9233 46.6737L43.4007 46.9703V44.5381C43.2734 44.6568 43.1461 44.7458 42.9869 44.5975C42.7642 44.4195 42.5414 44.2712 42.5414 43.8856C42.5732 43.322 42.8278 43.0254 43.337 42.8178C43.3688 42.8178 43.3688 42.8178 43.4007 42.8178V39.6144C43.1779 39.7331 43.3052 40.1483 42.9869 40.089C42.7642 40.0297 42.6051 39.7924 42.2868 39.8517C41.8731 39.9407 41.7458 39.822 41.6185 39.4364C41.4912 39.2288 41.5549 39.0805 41.8094 38.9915C41.8731 38.9619 41.9367 38.9619 42.0004 38.9322C42.0004 38.8432 42.0004 38.7246 42.0322 38.6356C42.064 38.517 42.0959 38.3093 42.1913 38.2797C42.2868 38.25 42.4778 38.3093 42.6051 38.3686C42.7005 38.428 42.7642 38.5169 42.8596 38.6059C42.8915 38.6356 42.9233 38.6653 42.9551 38.6949C43.1142 38.6653 43.2734 38.6059 43.4325 38.5763V31.161C43.3052 31.1314 43.1461 31.1017 43.0824 31.0127C42.9869 30.8644 42.7005 30.6568 42.9551 30.4492C43.0506 30.3898 43.3052 30.5085 43.4325 30.5381C43.4325 30.5381 43.4325 30.5381 43.4325 30.5678V24.6949C43.4325 24.6949 43.4325 24.6949 43.4007 24.6949C43.1142 24.7542 42.8596 24.8136 42.5732 24.8432C42.4778 24.8432 42.3505 24.7839 42.2232 24.7542C42.2868 24.6653 42.3186 24.5466 42.4141 24.4873C42.5732 24.3983 42.7642 24.3686 42.9551 24.3093C43.1142 24.25 43.2415 24.1907 43.4007 24.1314V12H36.5266C36.5584 12.0297 36.5903 12.0297 36.5903 12.0593C36.463 12.1483 36.3357 12.2669 36.2084 12.3559C35.922 12.5042 35.8265 12.4153 35.6992 12.0297H27.8068C27.7113 12.0593 27.6158 12.089 27.4885 12.1186C27.2021 12.2076 26.7884 12.178 26.7566 12.6229C26.7566 12.6525 26.4383 12.7119 26.4065 12.6525C26.2474 12.3856 25.9928 12.4746 25.77 12.5339C25.2608 12.6229 24.688 12.5932 24.1788 12.8898C24.147 12.9195 24.0515 12.9195 24.0197 12.9195C23.7969 12.9195 23.5423 13.0975 23.415 12.8008C23.2877 12.4746 23.6378 12.4746 23.8288 12.3856C24.0197 12.2966 24.147 12.2669 24.2107 12.0297V12H19.5643C19.5007 12.0593 19.437 12.089 19.3415 12.089ZM18.5459 27.7203C18.355 27.75 18.1322 27.839 18.0686 27.7797C17.8776 27.6017 18.0686 27.4831 18.2277 27.3941C18.355 27.3051 18.5141 27.0678 18.7051 27.3051C18.7369 27.3347 18.6096 27.5424 18.5459 27.7203ZM17.1138 30.6568C16.9229 30.7754 16.732 30.8941 16.5092 30.9534C16.4137 30.9831 16.2864 30.8051 16.2228 30.7754C16.2228 30.5678 16.1591 30.4492 16.1909 30.3305C16.1909 30.2712 16.3501 30.1822 16.3819 30.1822C16.6365 30.3008 16.8593 30.4195 17.082 30.5678C17.1138 30.5975 17.1138 30.6568 17.1138 30.6568ZM16.541 13.1271C16.5092 13.1271 16.541 13.0381 16.541 12.9492C16.6047 12.9492 16.6683 12.9492 16.732 12.9788C16.7638 13.0085 16.732 13.0975 16.732 13.1271C16.6683 13.1271 16.5728 13.1271 16.541 13.1271ZM16.8911 22.8856C16.5728 22.9746 16.5728 22.7076 16.541 22.5297C16.5092 22.3814 16.4455 22.1737 16.6683 22.1737C16.7956 22.1737 16.9229 22.3517 17.082 22.4703C17.0184 22.6483 16.9866 22.8559 16.8911 22.8856ZM18.2913 19.8898C18.2277 19.9195 18.1322 19.9195 18.0049 19.9195C18.0368 19.8008 18.0368 19.7119 18.0686 19.6229C18.1322 19.6525 18.2595 19.6525 18.3232 19.7119C18.355 19.7415 18.3232 19.8898 18.2913 19.8898ZM18.6096 19.3263C18.5778 19.5636 18.5778 19.6822 18.2277 19.5636C17.9731 19.4449 17.623 19.5339 17.3366 19.5339C17.2093 19.5339 17.1138 19.5932 16.9866 19.5932C16.9229 19.5932 16.8274 19.5339 16.7638 19.4746C16.7956 19.4153 16.8274 19.3263 16.8911 19.2966C17.1775 19.1483 17.4957 19.0297 17.7822 18.911V18.9407C17.9095 18.911 18.0049 18.8814 18.1322 18.8517C18.5459 18.7924 18.6732 18.911 18.6096 19.3263ZM17.0184 16.0042C17.082 16.0636 17.1457 16.0932 17.1775 16.1525C17.1775 16.1822 17.1138 16.2415 17.1138 16.2712C17.0502 16.2415 16.9866 16.2119 16.9547 16.1525C16.9229 16.1525 16.9866 16.0932 17.0184 16.0042ZM16.9866 15.9153C16.9866 15.8263 16.9866 15.7076 17.0184 15.6186C17.0184 15.5593 17.1138 15.5297 17.1457 15.5C17.2411 15.4407 17.3048 15.3814 17.4003 15.3517C17.4639 15.322 17.5276 15.3517 17.623 15.3517C17.623 15.411 17.623 15.5 17.5912 15.5593C17.5276 15.678 17.4639 15.7966 17.3366 15.8559C17.2411 15.9153 17.1138 15.8856 16.9866 15.9153ZM19.1506 17.1907C18.7369 17.0424 18.355 16.8347 18.0368 16.5678C17.8776 16.4195 17.814 16.1229 17.7822 15.8856C17.7822 15.7966 18.0049 15.678 18.164 15.6186C18.3868 15.5297 18.6414 15.5 18.896 15.4407C18.896 15.4407 18.896 15.4407 18.896 15.4703C19.1506 15.411 19.4052 15.322 19.6916 15.2924C19.978 15.2627 20.169 15.4407 20.0099 15.6483C19.7553 15.9746 19.9462 16.2712 19.978 16.5678C20.0099 16.7458 20.0099 17.0424 19.9462 17.1017C19.7234 17.1907 19.3734 17.25 19.1506 17.1907ZM20.2644 17.161C20.519 16.9237 20.6782 17.072 20.8373 17.25C21.1873 17.6059 21.1873 17.6949 20.8373 17.9915C20.6463 18.0805 20.4872 18.3771 20.2008 18.0805C19.9462 17.7839 19.978 17.428 20.2644 17.161ZM20.7418 24.3093C20.71 24.3983 20.6463 24.4576 20.6145 24.5466C20.5827 24.6653 20.5827 24.8729 20.4872 24.9025C20.2963 24.9915 20.0735 25.0508 19.8826 25.0508C19.6598 25.0508 19.5007 24.7246 19.6598 24.6356C20.1371 24.3686 19.9144 24.0424 19.8507 23.6864C19.8189 23.5678 19.7871 23.4788 19.7871 23.3602C19.8189 23.2712 19.9144 23.1822 20.0099 23.1822C20.169 23.1525 20.7736 23.6864 20.8691 23.8347C20.8691 24.0127 20.8055 24.161 20.7418 24.3093ZM21.1873 21.9068C21.0919 21.8771 20.9646 21.8475 20.9328 21.7881C20.9009 21.7288 20.9646 21.6102 20.9646 21.4619C21.0919 21.5508 21.1873 21.5805 21.2192 21.6398C21.2192 21.6992 21.1873 21.8178 21.1873 21.9068ZM21.1873 19.178C21.1237 19.089 21.251 18.8814 21.3146 18.6441C21.5692 18.6441 21.8238 18.5551 21.9511 18.6441C22.1739 18.8517 21.9511 19 21.792 19.1186C21.6011 19.2373 21.3783 19.4449 21.1873 19.178ZM22.0148 24.072C21.983 24.0127 21.983 23.9237 21.9511 23.8051C21.9511 23.7754 21.9193 23.6568 21.8875 23.5678C21.8238 23.2415 21.9193 23.1525 22.3012 23.0636C22.6194 23.0042 22.7467 23.1229 22.7786 23.3602C22.8422 23.5678 22.874 23.7754 22.9377 23.9831C23.0013 24.1907 22.9059 24.3093 22.6831 24.3983C22.2375 24.5466 22.1421 24.4873 22.0148 24.072ZM24.4016 17.8136C24.4971 18.0805 24.4652 18.3771 24.4652 18.6737C24.4652 18.7034 24.3379 18.7627 24.3061 18.7627C23.9242 18.7034 23.7015 18.3178 23.8288 17.9915C23.8606 17.9322 23.8924 17.8432 23.8924 17.7839C23.8606 17.5763 23.065 17.0127 22.8104 17.0127C22.6831 17.0127 22.5558 16.9831 22.4603 16.9237C22.4285 16.9237 22.4603 16.7161 22.4921 16.6864C22.5876 16.6271 22.7467 16.6271 22.874 16.6271C22.9695 16.6271 23.0968 16.7161 23.1605 16.6568C23.5423 16.4788 23.6696 16.7754 23.8606 16.9534C24.0197 17.1907 24.2107 17.3983 24.3379 17.6653C24.4652 17.5763 24.5607 17.4576 24.7198 17.428C24.8471 17.3983 24.9744 17.4576 25.1336 17.4873C25.1017 17.5466 25.1017 17.6356 25.0699 17.6653C25.0063 17.7246 24.9108 17.7246 24.8153 17.7839C24.7198 17.7839 24.6244 17.8136 24.5289 17.8136C24.4652 17.8136 24.4334 17.7542 24.3698 17.7246C24.3698 17.7246 24.3698 17.7839 24.4016 17.8136ZM21.251 30.9534C21.3146 30.9237 21.3783 30.8644 21.4738 30.8644C21.6011 30.8347 21.7284 30.8347 21.8557 30.8051C21.8238 30.8941 21.8238 31.0127 21.792 31.1017C21.792 31.2203 21.7602 31.3093 21.7602 31.428C21.7602 31.5466 21.7602 31.6653 21.7284 31.7542C21.6011 31.6949 21.4738 31.6653 21.3783 31.5763C21.0282 31.3093 20.9964 31.161 21.251 30.9534ZM21.0919 32.5254C21.0919 32.5551 20.9646 32.6144 20.9009 32.6144C20.6145 32.6441 20.1371 32.2881 20.0735 32.0508C20.0735 31.9322 20.0417 31.8432 20.0417 31.7246C20.0417 31.5169 20.2644 31.428 20.3917 31.5763C20.5509 31.7542 20.7736 31.7542 20.9009 31.8729C21.0282 32.0212 21.0282 32.3178 21.0919 32.5254ZM21.8557 33.0297C21.9511 33 22.0784 33.089 22.1421 33.089C22.2057 33.178 22.2057 33.2373 22.2375 33.2669C22.3012 33.4449 22.3648 33.5932 22.3967 33.7712C22.333 33.7712 22.2694 33.8305 22.2375 33.8008C22.0466 33.6229 21.8557 33.4746 21.6965 33.2669C21.6647 33.2373 21.7602 33.0297 21.8557 33.0297ZM22.3012 31.9619C22.2694 31.9915 22.0466 31.7839 22.0784 31.7542C22.1421 31.6059 22.3012 31.5169 22.333 31.4576C22.524 31.428 22.6513 31.3983 22.7149 31.428C22.8104 31.4576 22.8422 31.5763 22.9059 31.6356C22.7149 31.7542 22.524 31.8729 22.3012 31.9619ZM22.8422 29.4703C22.6831 29.4407 22.3967 29.5593 22.3967 29.2924C22.3967 29.1737 22.6194 29.0551 22.6831 28.9958C22.9377 28.9661 23.0968 28.9661 23.2559 28.9661C23.6696 28.9661 23.7651 29.0254 23.8288 29.411C23.8606 29.5297 23.7651 29.6186 23.7333 29.7373C23.6378 29.7076 23.5105 29.678 23.415 29.6483C23.2241 29.589 23.065 29.5 22.8422 29.4703ZM23.415 27.75C23.3514 27.6907 23.3196 27.6314 23.2559 27.6017C23.1286 27.5127 22.8422 27.5127 22.9377 27.3051C23.0332 27.1271 23.2559 27.0381 23.3832 26.9195C23.5423 26.9195 23.6378 26.9195 23.7333 26.9492C23.8924 26.9788 24.0515 27.0381 24.2107 27.0678C24.147 27.1864 24.0834 27.3051 24.0197 27.4237C23.9879 27.5127 23.9561 27.6017 23.9242 27.661C23.8288 27.8983 23.6378 27.928 23.415 27.75ZM23.4787 22.7966C23.8924 22.7373 24.0834 22.7966 24.147 23.0932C24.2425 23.3898 24.1788 23.5085 23.7969 23.5678C23.415 23.6568 23.3514 23.5975 23.2559 23.2119C23.1923 23.0339 23.1605 22.8559 23.4787 22.7966ZM22.5876 19.5932C22.6831 19.5636 22.8422 19.5932 22.9695 19.6525C23.0968 19.7119 23.1605 19.8305 23.2559 19.9492C23.2559 19.9492 23.2559 19.9492 23.2241 19.9492C23.2877 20.0085 23.3514 20.0975 23.415 20.1568C23.606 20.3644 23.7015 20.5424 23.415 20.7797C23.1605 20.9873 22.9377 21.0466 22.7149 20.8093C22.6194 20.7203 22.4921 20.6314 22.3967 20.5424C22.0466 20.1568 22.1103 19.7712 22.5876 19.5932ZM18.8005 30.0636C18.8642 30.0636 18.9597 30.0932 19.0233 30.1229C18.9915 30.1822 18.9597 30.2712 18.9278 30.2712C18.8642 30.3008 18.7687 30.2712 18.6414 30.2415C18.7051 30.1525 18.7369 30.0636 18.8005 30.0636ZM16.8911 36.322C16.9229 36.2331 17.0502 36.1441 17.1775 36.0254C17.273 36.0254 17.4957 35.9661 17.5276 36.0254C17.6867 36.2034 17.7503 36.4407 17.8458 36.6483C17.8458 36.6483 17.7822 36.7373 17.7822 36.7076C17.4957 36.678 17.2093 36.678 16.9547 36.6186C16.8911 36.589 16.8593 36.3814 16.8911 36.322ZM17.3366 42.8771C17.273 42.9661 17.1138 43.0551 17.1138 43.1441C17.082 43.2924 17.0502 43.4703 16.8593 43.411C16.732 43.3814 16.6683 43.2331 16.6365 43.2034C16.5092 42.7288 16.8593 42.4322 17.2411 42.5508C17.4321 42.6102 17.4639 42.7288 17.3366 42.8771ZM17.4957 40.9492C17.4003 40.6525 17.4321 40.5636 17.8776 40.4449C17.9731 40.4746 18.1959 40.5042 18.3232 40.6229C18.5778 40.8305 18.6414 41.1271 18.5459 41.4237C18.5778 41.4534 18.5459 41.6017 18.4823 41.661C18.4186 41.7203 18.2913 41.6907 18.1004 41.7203C18.1322 41.6314 18.1322 41.572 18.164 41.5127C17.9413 41.3347 17.5912 41.2754 17.4957 40.9492ZM18.9597 42.9068C18.6096 43.1144 18.7051 43.411 18.6732 43.7076C18.6732 43.7966 18.6096 43.8559 18.5459 43.9153C18.4823 43.8559 18.3868 43.8263 18.355 43.7373C18.2595 43.5593 18.1959 43.3814 18.1322 43.1737C17.9731 42.7881 18.0049 42.6992 18.5141 42.6102C18.5778 42.6102 18.6732 42.5805 18.8005 42.5805C18.9915 42.6398 19.0869 42.8178 18.9597 42.9068ZM19.087 35.2246C18.896 35.3729 18.7687 35.1949 18.6414 35.0763C18.5778 35.017 18.5459 34.9576 18.4823 34.8686C18.2595 34.7203 18.1322 34.3347 17.6549 34.4534C17.4321 34.5127 17.2093 34.2458 17.3684 34.0678C17.5276 33.8305 17.0502 33.2373 17.7822 33.3559C18.164 33.4153 18.5778 33.4153 18.7369 33.8305C18.7687 33.9195 18.8642 34.0678 18.8005 34.1271C18.5778 34.4237 18.8324 34.6017 18.9915 34.8093C19.1188 34.928 19.2779 35.0466 19.087 35.2246ZM19.1506 30.5678C19.087 30.4788 19.1824 30.3008 19.2142 30.0932C19.3734 30.0932 19.5325 30.0932 19.6598 30.0636C19.6916 30.0339 19.6916 29.9746 19.7553 29.9746C19.978 29.8559 20.2008 29.7669 20.4236 29.678C20.4554 29.678 20.4872 29.6483 20.519 29.6483C20.4554 29.6483 20.3917 29.6483 20.3281 29.6186C20.2963 29.589 20.3281 29.4703 20.3599 29.3517C20.4872 29.3814 20.6145 29.3814 20.6463 29.4407C20.6782 29.4703 20.6463 29.5593 20.6463 29.6186C20.7736 29.5593 20.8373 29.4703 20.8373 29.2627C20.8691 28.9364 21.0601 28.9068 21.3465 29.1144C21.4419 29.1737 21.5056 29.2924 21.6011 29.2924C21.9511 29.322 21.983 29.5297 22.0148 29.767C22.0466 29.767 22.0466 29.767 22.0466 29.767C22.1739 29.7966 22.3012 29.8263 22.4285 29.8559C22.3967 29.8856 22.3967 29.9746 22.3648 29.9746C22.1421 30.0636 22.0784 29.9153 22.0148 29.767C21.6647 29.8263 21.3465 29.9153 20.9964 29.9449C20.6145 29.9746 20.3281 30.0932 20.1371 30.3898C20.0417 30.5381 19.9462 30.6271 19.7871 30.5085C19.7553 30.4788 19.7234 30.4492 19.6916 30.4195C19.6598 30.4492 19.628 30.5085 19.5961 30.5381C19.4688 30.5975 19.2779 30.7458 19.1506 30.5678ZM19.4052 38.6949C19.2779 38.4576 19.2461 38.25 19.5643 38.1314C19.6598 38.1017 19.6916 37.9534 19.7234 37.8644C19.9144 37.5085 20.3599 37.4492 20.6463 37.7458C20.71 37.8051 20.7736 37.8644 20.8691 37.9237C20.9646 37.9831 21.0601 38.0424 21.1555 38.1017C21.0601 38.161 20.9964 38.25 20.9009 38.3093C20.71 38.4576 20.5509 38.6356 20.3599 38.7839C20.2644 38.8729 20.1371 38.9025 20.0099 38.9915C19.7553 39.0508 19.5325 38.9619 19.4052 38.6949ZM20.9328 42.4025C20.8055 42.3729 20.7418 42.2246 20.6145 42.1949C20.4554 42.1356 20.2326 42.1356 20.2963 41.928C20.3281 41.8093 20.4872 41.75 20.6463 41.661C20.8055 41.6907 21.0601 41.6907 21.1237 41.7797C21.2192 41.928 21.251 42.1356 21.251 42.3432C21.251 42.3432 21.0282 42.4322 20.9328 42.4025ZM21.3146 40.9492C21.2192 40.9492 21.1237 40.9195 20.9964 40.8602C21.0601 40.7415 21.1237 40.6229 21.1555 40.6229C21.251 40.6229 21.3465 40.6822 21.4101 40.7415C21.4419 40.7712 21.3465 40.9492 21.3146 40.9492ZM21.6647 38.0127C21.4738 38.161 21.3465 38.072 21.2192 37.9237C20.9646 37.6271 20.71 37.3602 20.4554 37.0636C20.2008 36.7966 19.978 36.5297 19.7234 36.2627C19.5961 36.1144 19.5007 35.9661 19.7234 35.8475C19.9144 35.7288 20.0099 35.8475 20.1053 35.9661C20.5827 36.5 21.0919 37.0339 21.6011 37.5381C21.7602 37.7161 21.8557 37.8644 21.6647 38.0127ZM23.4469 39.6737C23.3832 39.7331 23.3196 39.7924 23.2559 39.8517C23.2559 39.8814 23.2877 39.911 23.2877 39.9407C23.3514 40.2076 23.2559 40.5636 23.0968 40.5042C22.9377 40.4746 22.8422 40.2966 22.6513 40.1483C22.7467 40 22.7786 39.8517 22.8422 39.7924C22.7786 39.7331 22.6194 39.7627 22.524 39.7331C22.3648 39.6737 22.1739 39.6737 22.0784 39.5551C21.7284 39.2585 21.7284 39.1398 22.1421 38.8432C22.3012 38.6949 22.4285 38.6653 22.6831 38.7839C22.9377 38.9025 23.2877 38.7542 23.5105 39.0805C23.7015 39.3178 23.606 39.4958 23.4469 39.6737ZM23.7333 31.1907C23.7969 31.1314 23.8606 31.0424 23.8606 30.9534C23.8288 30.6568 24.0834 30.5975 24.4016 30.5381C24.4652 30.5678 24.6562 30.5975 24.7198 30.6864C24.8153 30.8644 25.0063 31.1017 24.7517 31.3093C24.688 31.3686 24.5925 31.3686 24.5607 31.428C24.4016 31.9322 24.2107 31.8432 23.8288 31.5763C23.606 31.428 23.4787 31.3983 23.7333 31.1907ZM23.7651 34.572C23.8288 34.572 23.9561 34.572 23.9561 34.6017C23.9879 34.661 23.9561 34.75 23.9879 34.839C23.9242 34.839 23.8606 34.839 23.7333 34.839C23.7333 34.75 23.7333 34.661 23.7651 34.572ZM24.1788 40.8602C24.1152 40.8898 23.9561 40.8602 23.8924 40.8305C23.8606 40.7712 23.8606 40.6229 23.9242 40.5636C23.9879 40.5042 24.1152 40.5636 24.2743 40.5636C24.2425 40.6822 24.2425 40.8008 24.1788 40.8602ZM25.1972 37.2415C25.1336 37.3602 25.0699 37.4492 25.0381 37.5678C24.9426 37.7754 24.5289 37.9534 24.3061 37.8347C24.2743 37.8051 24.2107 37.7161 24.2425 37.6568C24.4334 37.3305 24.6244 37.0042 24.8153 36.7076C24.879 36.6186 24.9744 36.5297 25.0381 36.4407C25.1336 36.5297 25.229 36.6186 25.3563 36.767C25.3245 36.9449 25.2927 37.0932 25.1972 37.2415ZM25.7064 31.517C25.42 31.5763 25.4518 31.339 25.3881 31.161C25.3245 31.0127 25.2608 30.8051 25.5154 30.7754C25.6427 30.7458 25.77 30.9237 25.9928 31.0424C25.8655 31.25 25.8019 31.4873 25.7064 31.517ZM26.9794 37.5085C26.8202 37.5678 26.7248 37.6271 26.6293 37.6568C26.5338 37.6864 26.4383 37.6568 26.3429 37.6864C26.3429 37.5975 26.3429 37.5085 26.3747 37.4492C26.4065 37.3602 26.4702 37.2712 26.5338 37.2119C26.6293 37.1525 26.7566 37.0636 26.8839 37.0636C26.9475 37.0636 27.0748 37.1822 27.0748 37.2415C27.0748 37.3305 27.0112 37.4492 26.9794 37.5085ZM27.1703 28.6992C27.1385 28.8178 26.9475 28.8771 26.7566 29.0254C26.4383 28.9364 26.0883 28.8475 25.77 28.7288C25.7064 28.6992 25.6427 28.5508 25.6746 28.4915C25.8019 28.2542 25.9928 28.0169 26.1519 27.8093C26.1838 27.7797 26.311 27.7797 26.311 27.8093C26.4702 28.1059 26.8202 28.0763 27.043 28.2246C27.1385 28.2839 27.2021 28.5508 27.1703 28.6992ZM27.1385 26.7712C27.0748 26.8008 26.9794 26.8008 26.9157 26.8305C26.9475 26.7712 26.9475 26.7415 26.9794 26.6822C26.8839 26.6822 26.8202 26.7712 26.7566 26.8898C26.502 27.3347 26.1519 27.3941 25.6746 27.1271C25.5473 27.0678 25.3563 27.0678 25.1972 27.0678C25.0381 27.0678 24.8153 27.1568 24.7835 26.9195C24.7835 26.8305 24.9744 26.6822 25.1336 26.6229C25.3245 26.5339 25.5473 26.5042 25.7382 26.4449C25.961 26.3559 26.2792 26.3263 26.4065 26.1483C26.6293 25.8814 26.7884 25.7034 27.1385 25.9703C27.1703 26 27.3931 25.911 27.4249 25.8517C27.584 25.4958 27.9341 25.4068 28.2205 25.5254C28.4114 25.5847 28.5387 25.911 28.5706 26.1483C28.6024 26.5042 28.3796 26.7119 27.9977 26.8305C27.9659 26.8305 27.9341 26.8602 27.9341 26.8305C27.6158 26.9195 27.3612 27.0678 27.1385 26.7712ZM25.6427 23.3898C25.9292 23.1822 26.0565 23.1822 26.311 23.4788C26.502 23.6568 26.5338 23.8347 26.2792 24.0127C26.0246 24.2203 25.8973 24.1907 25.6427 23.9237C25.4518 23.7754 25.3881 23.5975 25.6427 23.3898ZM25.4836 22.1737C25.4836 22.0847 25.5473 21.9068 25.6109 21.8771C25.8019 21.7881 25.8973 21.9364 25.9292 22.0847C25.961 22.1441 25.961 22.2034 25.9928 22.322C25.9928 22.322 26.0565 22.411 26.0246 22.5C25.9928 22.589 25.9292 22.7076 25.8655 22.7373C25.8019 22.7669 25.6427 22.678 25.6109 22.589C25.5154 22.4407 25.4836 22.2924 25.4836 22.1737ZM26.4065 20.8686C26.3429 20.928 26.1201 20.9576 26.0565 20.8983C25.8019 20.661 25.5791 20.3941 25.3881 20.1271C25.3563 20.0678 25.42 19.9195 25.42 19.8305C25.5154 19.8602 25.6427 19.8602 25.7382 19.8898C25.8973 20.0085 26.0246 20.1568 26.1519 20.2754C26.2474 20.3644 26.3747 20.4237 26.4065 20.5127C26.4383 20.6314 26.4702 20.8093 26.4065 20.8686ZM25.5791 16.1525C25.5154 16.1525 25.4518 16.1229 25.3881 16.0636C25.3245 15.9746 25.229 15.8559 25.1972 15.7373C25.1972 15.6483 25.2608 15.5297 25.3245 15.4407C25.42 15.5 25.5154 15.5593 25.6109 15.6483C25.6427 15.678 25.6427 15.7076 25.6427 15.7669C25.6427 15.8559 25.6746 15.9449 25.6746 16.0339C25.6746 16.0339 25.6109 16.1229 25.5791 16.1525ZM27.1067 22.2034C27.1067 22.1441 27.1703 22.0551 27.2021 22.0254C27.4249 21.8475 27.7113 21.7288 27.775 21.4025C27.8068 21.2246 28.1569 21.2542 28.2205 21.4322C28.3796 21.8475 28.5069 22.2924 28.6024 22.7373C28.666 23.0042 28.4433 23.0636 28.2523 23.0932C28.1887 23.0932 28.125 23.1229 28.0614 23.1229C27.2658 23.2415 26.9475 22.9746 27.1067 22.2034ZM27.8068 25.2288C27.8068 25.2881 27.6158 25.4068 27.5522 25.4068C27.4249 25.3475 27.2976 25.2585 27.2021 25.1398C27.1385 25.0805 27.1067 25.0212 27.1067 24.9322C27.1067 24.8136 27.1385 24.6949 27.1385 24.5763C27.2658 24.6059 27.3931 24.6356 27.4885 24.6653C27.5522 24.6949 27.6158 24.7542 27.7431 24.8729C27.775 24.9619 27.8386 25.1102 27.8068 25.2288ZM27.6795 28.0169C27.775 27.9576 27.8704 27.928 27.9977 27.8686C28.0932 27.8686 28.2523 27.8093 28.316 27.8686C28.3796 27.928 28.3796 28.0466 28.4114 28.1653C28.1569 28.1653 27.9023 28.1949 27.6477 28.1949C27.6795 28.1356 27.6477 28.0169 27.6795 28.0169ZM27.7113 30.7458C27.584 30.6568 27.4567 30.5678 27.3294 30.4788C27.4567 30.3898 27.6158 30.3008 27.7431 30.2119C27.8386 30.1525 27.9659 30.1525 28.1569 30.0636C28.2205 30.0932 28.4433 30.0636 28.5387 30.1525C28.666 30.3008 28.6024 30.4492 28.4114 30.5678C28.316 30.6271 28.316 30.7754 28.2205 30.8347C28.125 30.8941 27.9659 30.8941 27.8386 30.8941C27.8068 30.8941 27.7431 30.8051 27.7113 30.7458ZM28.2205 38.8136C28.125 38.7839 28.0296 38.7839 27.9659 38.7542C27.9341 38.7246 27.9659 38.6356 27.9659 38.517C28.0932 38.5763 28.1569 38.5763 28.1887 38.6356C28.2205 38.6653 28.2205 38.7542 28.2205 38.8136ZM28.4433 36.9153C28.3478 36.8263 28.2523 36.7076 28.1569 36.589C28.0932 36.5297 28.0296 36.4407 27.9659 36.3814C28.0614 36.322 28.1569 36.2627 28.2842 36.1737C28.4114 36.2034 28.6024 36.2034 28.666 36.2924C28.7933 36.4407 28.857 36.6483 28.857 36.8263C28.857 36.9746 28.6024 37.0339 28.4433 36.9153ZM29.0479 26.6525C28.9525 26.6822 28.8252 26.6822 28.7615 26.6525C28.7297 26.6229 28.7297 26.5042 28.7297 26.3559C28.8888 26.3856 28.9843 26.3856 29.0798 26.4449C29.0798 26.4746 29.0798 26.6525 29.0479 26.6525ZM29.2389 19.3856C29.2071 19.3559 29.3025 19.2669 29.3343 19.178C29.4298 19.2076 29.5253 19.2373 29.5889 19.2966C29.6208 19.3263 29.5571 19.4449 29.5253 19.5636C29.398 19.5042 29.2707 19.4449 29.2389 19.3856ZM29.6526 20.8983C29.6844 20.8686 29.8117 20.8983 29.9708 20.8983C29.9072 21.0466 29.9072 21.1356 29.8435 21.1949C29.8117 21.2246 29.6208 21.1949 29.6208 21.1653C29.5889 21.0763 29.5889 20.9576 29.6526 20.8983ZM29.3662 27.8686C29.398 27.839 29.4935 27.8093 29.5571 27.8093C30.3845 27.75 30.8301 28.2839 31.2438 28.7881C31.4666 29.0551 31.2438 29.1737 31.0529 29.322C30.8619 29.4703 30.671 29.5593 30.48 29.322C30.2891 29.1144 30.13 28.9364 29.939 28.7288C29.939 28.7288 29.939 28.7288 29.9708 28.7288C29.7799 28.4915 29.5571 28.2839 29.3662 28.0466C29.3662 28.0169 29.3344 27.928 29.3662 27.8686ZM29.9708 24.8729C30.13 24.9322 30.2573 24.9915 30.3527 25.0212C30.4482 25.1695 30.5118 25.2288 30.5437 25.3178C30.5755 25.3475 30.5437 25.4364 30.5118 25.4661C30.48 25.4958 30.3845 25.4958 30.3527 25.4661C30.2573 25.4068 30.1618 25.3475 30.13 25.2881C30.0663 25.1695 30.0345 25.0212 29.9708 24.8729ZM30.9256 22.8559C31.0847 22.7669 31.1802 22.678 31.3075 22.6483C31.3711 22.6186 31.4984 22.7076 31.4984 22.7076C31.4984 22.9746 31.4984 23.2712 31.4347 23.5381C31.4347 23.5678 31.212 23.6568 31.1802 23.6271C31.021 23.4788 30.8619 23.3305 30.7664 23.1525C30.7664 23.0932 30.8937 22.9449 30.9256 22.8559ZM35.19 27.4237C35.4764 27.1864 35.5719 27.1864 35.8265 27.4237C36.1129 27.7203 36.1129 27.8093 35.8265 28.0466C35.5082 28.3136 35.4128 28.3136 35.1582 28.0466C34.8718 27.75 34.9036 27.661 35.19 27.4237ZM35.6992 25.9407C35.9538 25.8814 36.0493 26.0297 36.0811 26.2373C36.1766 26.6229 36.1129 26.7415 35.731 26.8305C35.381 26.9195 35.2537 26.8602 35.19 26.5339C35.1264 26.2669 35.3491 26 35.6992 25.9407ZM36.3039 31.6356C36.3675 31.6949 36.3039 31.8136 36.3039 31.9322C36.2084 31.9322 36.0493 31.9619 35.9856 31.9025C35.922 31.8432 35.9538 31.7246 35.922 31.5763C36.1129 31.5763 36.272 31.5763 36.3039 31.6356ZM35.19 30.1822C35.2855 30.3305 35.381 30.3898 35.4128 30.5085C35.4446 30.6271 35.4446 30.7754 35.381 30.8644C35.3173 30.9237 35.1264 30.9237 35.0309 30.8941C34.8399 30.8347 34.4899 30.3898 34.4899 30.1822C34.4899 30.0636 34.4899 29.9449 34.4899 29.8263C34.6172 29.8559 34.7445 29.8856 34.8718 29.9746C34.9991 30.0339 35.1264 30.1229 35.19 30.1822ZM34.458 29.3814C34.2035 29.2331 34.0125 29.1144 33.6943 29.1441C33.6306 29.2034 33.567 29.2924 33.5033 29.3517C33.3124 29.2924 33.1533 29.2627 32.9941 29.2034C33.0896 29.1144 33.1851 29.0254 33.2806 28.9661C33.1533 28.7881 33.0578 28.5212 33.1533 28.3729C33.1851 28.3136 33.2487 28.2542 33.2487 28.1653C33.3442 27.6907 33.3442 27.661 33.7897 27.9873C33.8534 28.0466 33.9489 28.1059 34.0125 28.1653C34.0125 28.1653 33.9807 28.1653 33.9807 28.1949C34.2353 28.4915 34.4899 28.8178 34.7126 29.1441C34.7763 29.2331 34.7763 29.3517 34.7763 29.4407C34.6808 29.411 34.5535 29.4407 34.458 29.3814ZM34.2035 26.3263C33.8534 26.5932 33.7579 26.5636 33.4397 26.2076C33.2487 25.9703 33.3124 25.6737 33.6624 25.4364C33.8852 25.2881 34.0762 25.3475 34.3308 25.6737C34.6172 25.9407 34.5853 26.0593 34.2035 26.3263ZM33.6306 26.7119C33.4079 26.8602 33.1851 27.0085 32.9623 27.1568C32.9305 27.1864 32.8668 27.1864 32.6759 27.2161C32.6441 27.2161 32.5804 27.2161 32.4531 27.2458C32.4849 27.2754 32.4849 27.2754 32.5168 27.3051C32.5804 27.3644 32.5486 27.6017 32.4849 27.6314C32.3577 27.661 32.1667 27.661 32.1031 27.6017C31.9121 27.4534 31.7848 27.2754 31.562 27.0085C31.4666 26.8898 31.3075 26.7119 31.1802 26.5042C31.1483 26.4449 31.1802 26.2966 31.212 26.2076C31.212 26.178 31.4029 26.178 31.4666 26.2373C31.6893 26.4449 31.8803 26.6229 32.1031 26.8305C32.1349 26.7712 32.1667 26.7415 32.1667 26.6822C32.2304 26.5339 32.2622 26.3263 32.3577 26.2966C32.5804 26.2373 32.8032 26.2966 33.026 26.3263L33.0578 26.3559C33.2806 26.5042 33.4397 26.5932 33.6306 26.7119ZM31.4029 30.3008C31.2438 30.0932 31.2756 29.9449 31.4666 29.767C31.6893 29.589 31.8485 29.6483 32.0394 29.8263C32.2622 30.0636 32.5168 30.2415 32.7714 30.4492C32.9623 30.6568 33.0896 30.8347 32.7714 31.0424C32.4213 31.3093 32.3258 31.3093 32.0394 31.0127C31.8485 30.8051 31.6257 30.5381 31.4029 30.3008ZM31.4666 34.4831C31.4029 34.4831 31.3393 34.4831 31.212 34.4831C31.2438 34.3644 31.2438 34.2754 31.2756 34.2161C31.2756 34.1864 31.4666 34.2161 31.4666 34.2458C31.4984 34.3051 31.4666 34.3941 31.4666 34.4831ZM29.9072 36.1441C29.8435 36.1737 29.7481 36.1441 29.6844 36.1441C29.7162 36.0847 29.7162 36.0551 29.7481 35.9958C29.8117 35.9661 29.8754 35.9068 29.9708 35.8771C30.0027 35.8771 30.0663 35.9661 30.13 35.9958C30.0345 36.0254 30.0027 36.1144 29.9072 36.1441ZM30.5118 38.0424C30.3527 37.9237 30.2254 37.8644 30.2254 37.8051C30.2254 37.7161 30.3209 37.6271 30.3845 37.5085C30.48 37.5678 30.6073 37.5975 30.6391 37.6568C30.6391 37.7458 30.5437 37.8644 30.5118 38.0424ZM30.9892 38.2203C30.9256 38.2203 30.8619 38.1907 30.7346 38.161C30.8619 38.072 30.9256 38.0127 30.9892 37.9831C31.021 37.9831 31.0847 38.072 31.1165 38.1017C31.0847 38.1314 31.0529 38.1907 30.9892 38.2203ZM32.9623 35.8178C32.7714 35.9068 32.4531 35.9958 32.2622 35.9364C31.9758 35.8178 31.8166 35.7881 31.6893 36.1144C31.6575 36.2034 31.5302 36.322 31.4029 36.3517C31.2438 36.3814 30.9574 36.411 30.8937 36.322C30.7346 36.0847 31.0529 36.0551 31.1802 35.9364C31.4666 35.6398 31.9121 35.4322 31.9758 34.9576C31.9758 34.8983 32.1031 34.8093 32.1667 34.7797C32.3258 34.75 32.9623 35.1949 33.026 35.4619C33.026 35.5212 33.0578 35.7585 32.9623 35.8178ZM33.9807 39.3771C33.9807 39.4068 33.7897 39.4661 33.7897 39.4661C33.6943 39.3178 33.567 39.1398 33.5351 38.9619C33.5033 38.9025 33.567 38.7542 33.6624 38.6949C33.6943 38.6653 33.8534 38.6949 33.8852 38.7542C33.9489 38.8432 33.9807 38.9619 34.0125 39.0508C34.0125 39.1695 34.0125 39.2585 33.9807 39.3771ZM34.2989 37.8644C34.2353 37.8941 34.1398 37.9237 34.0762 37.9237C33.9489 37.9237 33.7897 37.9237 33.6624 37.9237C33.6943 37.7754 33.7261 37.6568 33.7579 37.5678C33.917 37.4788 33.9807 37.3898 34.0762 37.3602C34.3308 37.2712 34.4262 37.4492 34.4899 37.6271C34.5217 37.6864 34.3944 37.8051 34.2989 37.8644ZM34.3944 32.8517C34.108 33.089 33.8216 33.2966 33.5351 33.5339C33.6306 33.6822 33.8534 33.8008 33.5988 33.9788C33.567 34.0085 33.4397 34.0085 33.376 33.9492C33.1533 33.7415 33.4079 33.6525 33.5033 33.5042C33.376 33.3559 33.2169 33.2076 33.4079 32.9703C33.4715 32.8814 33.4715 32.7331 33.4397 32.6144C33.376 32.2881 33.6624 32.1102 33.8852 32.1102C34.108 32.1102 34.3308 32.3475 34.5217 32.4958C34.5853 32.5551 34.458 32.7924 34.3944 32.8517ZM35.2855 38.6653C35.2218 38.6653 35.1582 38.6653 35.0945 38.6356C35.0627 38.6356 35.0945 38.5466 35.0627 38.4576C35.1582 38.4873 35.2218 38.4873 35.2855 38.517C35.3173 38.517 35.2855 38.6059 35.2855 38.6653ZM35.2537 34.4237C35.0627 34.4534 34.8081 34.0975 34.8399 33.8898C34.8718 33.6229 35.19 33.3559 35.4446 33.4153C35.5082 33.4153 35.5719 33.5042 35.6674 33.5042C35.8265 33.5339 36.1447 33.3559 36.1766 33.5932C36.2084 33.8008 36.0174 34.0085 35.922 34.2458C35.6355 34.3051 35.4446 34.3941 35.2537 34.4237ZM36.1447 38.4873C36.0811 38.517 35.9538 38.428 35.7947 38.3983C35.8901 38.2797 35.9538 38.161 36.0174 38.1314C36.0811 38.1017 36.1766 38.1907 36.272 38.25C36.2402 38.3093 36.2084 38.4576 36.1447 38.4873ZM36.272 37.1525C36.3039 37.0636 36.3039 36.9746 36.3357 36.9449C36.3675 36.9153 36.463 36.9449 36.5903 36.9449C36.5266 37.0636 36.5266 37.1229 36.463 37.1525C36.4312 37.1822 36.3357 37.1525 36.272 37.1525ZM38.086 33C38.1815 33 38.3724 33.2373 38.3406 33.2966C38.2451 33.5932 38.4361 33.7415 38.5634 33.9492C38.627 34.0381 38.5634 34.2161 38.5952 34.3347C38.4679 34.3051 38.277 34.3347 38.1815 34.2754C37.9269 34.0678 37.7041 33.8305 37.4495 33.5636C37.3222 33.4153 37.1631 33.2373 37.004 33.0593C36.8767 32.911 36.813 32.7924 36.9722 32.6144C37.1313 32.4661 37.2904 32.5254 37.4177 32.6441C37.5768 32.8517 37.7678 33.0297 38.086 33ZM37.4814 25.7924C37.5768 25.7331 37.6086 25.6441 37.6723 25.6441C37.7359 25.6441 37.7996 25.7034 37.8314 25.7627C37.8314 25.7924 37.7678 25.8814 37.7041 25.911C37.6405 25.8814 37.5768 25.822 37.4814 25.7924ZM38.1178 31.2797C38.1178 31.2203 38.1815 31.1314 38.2133 31.0424C38.3724 31.1314 38.5634 31.1907 38.6907 31.2797C38.818 31.3686 38.9771 31.5466 38.7861 31.6949C38.7225 31.7542 38.5952 31.7542 38.5315 31.7246C38.4361 31.6653 38.3724 31.5763 38.277 31.517C38.2133 31.428 38.1497 31.3686 38.1178 31.2797ZM37.7678 39.0212C37.7359 39.1102 37.7359 39.1992 37.7041 39.2585C37.7041 39.2881 37.545 39.2585 37.5132 39.2288C37.4495 39.1695 37.4495 39.1102 37.3859 38.9915C37.6405 38.9915 37.7041 38.9915 37.7678 39.0212ZM37.1949 35.0169C36.8449 35.1356 36.8449 34.8093 36.7812 34.6314C36.7812 34.5127 36.7494 34.3941 36.7494 34.3051C36.7812 34.2458 36.8449 34.1568 36.9403 34.1271C37.004 34.0975 37.1313 34.1568 37.1949 34.2161C37.2586 34.3051 37.2904 34.3941 37.3222 34.5127C37.3859 34.6907 37.5132 34.928 37.1949 35.0169ZM37.1313 29.9153C37.0676 29.9449 36.9403 29.9449 36.8767 29.8856C36.813 29.8559 36.813 29.767 36.7494 29.6186C37.004 29.678 37.0995 29.678 37.1631 29.7373C37.2268 29.7669 37.1949 29.9153 37.1313 29.9153ZM36.9722 28.5212C36.8767 28.4915 36.7494 28.4619 36.5584 28.4025C36.6857 28.2246 36.7176 28.1059 36.813 28.0763C36.8449 28.0466 37.0358 28.1356 37.0676 28.1949C37.0676 28.3136 37.004 28.4322 36.9722 28.5212ZM36.7176 41.1271C36.6857 41.1568 36.5903 41.0678 36.4312 41.0085C36.5584 40.8898 36.6539 40.7712 36.7494 40.7415C36.813 40.7119 36.9085 40.8602 36.9722 40.9195C36.9085 41.0085 36.8449 41.0975 36.7176 41.1271ZM37.6723 41.839C37.545 41.8686 37.3222 41.928 37.2586 41.8983C37.1313 41.75 37.0358 41.5127 36.9403 41.3347C37.0358 41.3051 37.1631 41.2458 37.1949 41.2754C37.4177 41.5127 37.8314 41.0381 37.9269 41.4831C37.9587 41.5424 37.7678 41.6907 37.6723 41.839ZM38.086 40.7712C37.9587 40.6822 37.9269 40.5042 37.8632 40.4153C37.8314 40.2373 37.8314 40.1186 37.8314 39.9703C37.8314 39.822 37.8632 39.6441 37.8632 39.4958C37.9905 39.5847 38.1178 39.6737 38.2451 39.7331C38.3088 39.7627 38.4361 39.7924 38.5315 39.7924C38.7861 39.8517 39.0089 40.2373 38.9453 40.4746C38.8498 40.6822 38.2451 40.8898 38.086 40.7712ZM39.8682 43.1441C39.8363 43.1737 39.8045 43.2034 39.8045 43.2331C39.7727 43.411 39.8045 43.7076 39.7409 43.7076C39.4863 43.7373 39.1999 43.7373 38.9453 43.7076C38.8816 43.7076 38.7543 43.5 38.7861 43.4407C38.8498 43.2627 39.0089 43.0847 39.1362 42.9364C39.2635 42.8771 39.359 42.8178 39.4863 42.8178C39.6136 42.7881 39.8045 42.7288 39.9 42.7881C40.0909 42.8771 39.9636 43.0254 39.8682 43.1441ZM38.9771 38.3983C39.0407 38.339 39.168 38.3686 39.3272 38.339C39.2953 38.4576 39.3272 38.5763 39.2635 38.6059C39.168 38.6356 39.0726 38.6356 38.9771 38.6356C38.9453 38.5763 38.9134 38.428 38.9771 38.3983ZM40.8229 45.0424C40.7274 44.9237 40.6638 44.8941 40.6638 44.8644C40.632 44.7754 40.6001 44.6568 40.6001 44.5678C40.7274 44.5975 40.8229 44.6271 40.9502 44.6568C40.982 44.6568 41.0138 44.7161 41.0138 44.7458C41.0775 44.8644 41.1093 45.0127 41.1411 45.1314C40.982 45.072 40.8547 45.0424 40.8229 45.0424ZM40.982 43.8263C40.8547 43.7373 40.7592 43.589 40.632 43.4703C40.6638 43.322 40.6956 43.1737 40.7592 43.0847C40.7911 43.0551 41.0138 43.0551 41.0138 43.0847C41.1093 43.2924 41.1411 43.5297 41.2048 43.7373C41.2048 43.7373 41.0138 43.8559 40.982 43.8263ZM42.0959 41.3644C42.3823 41.1568 42.4778 41.1864 42.796 41.5424C42.9551 41.7203 43.1142 41.8983 42.796 42.1059C42.4141 42.3729 42.2232 42.4025 42.0322 42.1949C41.7458 41.8686 41.7776 41.6314 42.0959 41.3644ZM41.9686 42.8178C42.064 42.7585 42.2232 42.7585 42.3505 42.7288C42.3505 42.7881 42.3823 42.8771 42.3505 42.9068C42.2868 42.9958 42.2232 43.0254 42.1277 43.1144C42.064 43.1441 42.0004 43.2034 41.9367 43.2331C41.8731 43.2331 41.8094 43.2034 41.7458 43.1737C41.8094 43.0551 41.8413 42.9068 41.9686 42.8178ZM40.9502 41.0678C40.6638 41.2458 40.4728 41.4831 40.1864 41.6907C40.0909 41.7797 39.8682 41.839 39.7727 41.7797C39.5817 41.6907 39.6454 41.5424 39.6772 41.3644C39.709 40.9788 39.7409 40.6525 40.1546 40.4449C40.1864 40.4449 40.1864 40.3856 40.2182 40.3559C40.1546 40.3856 40.0591 40.3856 39.9955 40.4153C39.9318 40.4449 39.8045 40.4746 39.709 40.4746C39.6136 40.4746 39.4863 40.4153 39.4226 40.3559C39.3908 40.2669 39.3908 40.1483 39.4226 40.0593C39.4863 39.911 39.5818 39.7627 39.6772 39.6144C39.7409 39.5254 39.8682 39.4364 39.9955 39.4068C40.0591 39.4068 40.1228 39.3771 40.1864 39.3771C40.2182 39.2881 40.2819 39.1992 40.3455 39.1398C40.4092 39.1102 40.5683 39.1695 40.632 39.2288C40.6638 39.2585 40.7274 39.3178 40.7592 39.3475C41.0138 39.3475 41.0775 39.4364 41.1411 39.7331C41.1411 39.7331 41.1411 39.7331 41.1411 39.7627C41.8731 40.4449 41.8413 40.5042 40.9502 41.0678ZM40.6638 37.2415C40.6638 37.1822 40.6956 37.1229 40.7274 37.0636C40.7911 37.1229 40.8865 37.1525 40.9184 37.2119C40.9502 37.2415 40.8865 37.3305 40.8229 37.4492C40.7274 37.3305 40.6638 37.3008 40.6638 37.2415ZM41.3957 34.572C41.5549 34.6314 41.6821 34.661 41.714 34.7203C41.7458 34.75 41.714 34.928 41.6821 34.9576C41.5867 34.9873 41.4594 34.9873 41.3957 34.928C41.3639 34.8686 41.3957 34.75 41.3957 34.572ZM41.6185 37.2119C41.5549 37.1525 41.5549 37.0339 41.5549 36.9449C41.6503 36.9449 41.7458 36.9746 41.8413 36.9746C41.8413 37.0932 41.8731 37.1525 41.8731 37.2415C41.7776 37.2415 41.6503 37.2712 41.6185 37.2119ZM42.7005 36.1441C42.7642 36.0847 42.8596 36.0847 42.9869 36.0254C42.9551 36.1441 42.9869 36.2627 42.9233 36.2627C42.8915 36.322 42.796 36.322 42.7005 36.322C42.7005 36.2627 42.6687 36.1737 42.7005 36.1441ZM42.5096 29.2331C42.7005 29.3814 42.5096 29.5297 42.3823 29.6186C42.2232 29.7373 42.064 29.9153 41.8731 29.7076C41.8094 29.6483 41.9049 29.4703 41.9367 29.2924C42.1913 29.2331 42.4141 29.1441 42.5096 29.2331ZM40.982 18.4068C41.0138 18.3178 41.1093 18.2288 41.173 18.1992C41.3321 18.1695 41.9686 18.7034 42.0004 18.8814C42.0004 19 42.0004 19.1186 41.9686 19.2373C41.8731 19.2076 41.7776 19.178 41.6821 19.1483C41.4276 19.089 41.0138 19.178 41.0457 18.7924C41.0138 18.6144 40.9502 18.5254 40.982 18.4068ZM41.2684 22.8263C41.4594 22.7966 41.6503 22.7373 41.8413 22.7076C41.9367 22.7076 42.064 22.7966 42.0959 22.8559C42.1277 22.9153 42.0322 23.0636 41.9686 23.0932C41.714 23.1822 41.4594 23.2119 41.2048 23.3008C41.2048 23.3008 41.2048 23.3008 41.2048 23.3305C41.0138 23.3602 40.8229 23.4492 40.632 23.4492C40.5047 23.4492 40.2819 23.3898 40.2501 23.3305C40.2182 23.1525 40.2501 22.9449 40.2501 22.7669C40.3137 22.7669 40.3774 22.7669 40.4092 22.7669C40.6956 23.0042 40.982 22.8856 41.2684 22.8263ZM40.2501 27.661C40.3455 27.7797 40.4092 27.839 40.4092 27.8983C40.4092 27.9576 40.3455 28.0466 40.2819 28.0763C40.2501 28.1059 40.1546 28.0466 40.0909 28.0169C40.1228 27.9576 40.1546 27.8686 40.2501 27.661ZM39.9955 26.9492C39.9636 26.9195 39.9636 26.8008 39.9636 26.6525C40.1228 26.6822 40.2501 26.6822 40.3137 26.7415C40.3455 26.7712 40.3137 26.8898 40.3137 26.9788C40.2182 26.9788 40.0909 26.9788 39.9955 26.9492ZM40.2819 25.1695C40.441 25.0212 40.632 24.8729 40.8547 24.6949C40.982 24.8136 41.173 24.8729 41.173 24.9619C41.173 25.0508 41.0457 25.2288 40.9184 25.2288C40.7274 25.2585 40.5047 25.1992 40.2819 25.1695ZM40.5365 19.7119C40.632 19.7119 40.6956 19.8008 40.7911 19.8305C40.7592 19.8898 40.7274 20.0085 40.6638 20.0381C40.6001 20.0678 40.5047 19.9788 40.2182 19.8898C40.3774 19.8008 40.441 19.7119 40.5365 19.7119ZM39.5181 23.3602C39.6136 23.2712 39.8363 23.3008 39.9955 23.2712C39.9955 23.3898 39.9955 23.5085 39.9636 23.6271C39.9636 23.6864 39.9318 23.7161 39.9 23.7754C39.8363 23.8644 39.7727 23.9534 39.709 24.0424C39.6136 23.9534 39.5499 23.8644 39.4545 23.7754C39.4863 23.5975 39.4226 23.4195 39.5181 23.3602ZM39.4863 32.5847C39.5181 32.5254 39.6454 32.5254 39.7409 32.5254C39.9 32.5254 40.0591 32.5551 40.2182 32.5847C40.3137 32.6144 40.441 32.6441 40.5365 32.7034C40.6956 32.8517 40.8229 33 40.9502 33.178C40.982 33.2373 41.0138 33.2966 41.0457 33.3559C41.1411 33.2966 41.173 33.2373 41.2366 33.2373C41.2684 33.2373 41.3321 33.2966 41.3957 33.3559C41.3321 33.4153 41.3003 33.4746 41.2048 33.5042C41.173 33.5042 41.1093 33.4746 41.0457 33.4449C41.0775 33.6822 40.9502 33.9195 40.7274 34.0085C40.6319 34.0381 40.4728 33.9788 40.3774 33.8898C40.2182 33.7415 40.0909 33.5932 39.9636 33.4449C39.8045 33.267 39.6136 33.089 39.4863 32.8814C39.4226 32.7627 39.4226 32.6441 39.4863 32.5847ZM39.5818 34.8093C39.6136 34.7797 39.8682 34.8983 40.0273 34.9576C40.1228 34.9873 40.1864 35.0763 40.2819 35.1356C40.3774 35.4025 40.7274 35.6102 40.4728 35.9661C40.441 36.0254 40.4728 36.1441 40.4728 36.2331C40.5683 36.5 40.441 36.5297 40.1864 36.4407C40.0591 36.411 39.9 36.4407 39.7409 36.4703C39.4863 36.5297 39.2953 36.411 39.4226 36.2034C39.5818 35.9364 39.4226 35.7881 39.359 35.5805C39.3272 35.4915 39.2317 35.4025 39.2635 35.3136C39.359 35.1653 39.4545 34.9576 39.5818 34.8093ZM38.9771 25.5551C38.9134 25.5847 38.7543 25.5847 38.6907 25.5254C38.627 25.4661 38.6907 25.3475 38.6907 25.1992C38.8498 25.2585 38.9771 25.2585 39.0407 25.3178C39.0407 25.3475 39.0407 25.5254 38.9771 25.5551ZM38.9134 22.2627C38.9453 22.3517 38.9134 22.4407 38.9134 22.5297C38.818 22.5297 38.7225 22.5297 38.6588 22.5C38.5952 22.4407 38.627 22.3517 38.627 22.2034C38.7225 22.2331 38.8816 22.2331 38.9134 22.2627ZM38.2133 24.9619C37.8951 25.1398 37.7996 25.0805 37.7678 24.6949C37.7678 24.6356 37.7359 24.5466 37.7041 24.4873C37.6086 24.3093 37.6086 24.1314 37.7996 24.072C37.9269 24.0424 38.086 24.1314 38.1497 24.161C38.5952 24.6059 38.5634 24.7839 38.2133 24.9619ZM36.7176 14.6398C36.7494 14.6398 36.813 14.6992 36.8767 14.7585C36.813 14.8178 36.7494 14.8771 36.6857 14.9068C36.6539 14.9364 36.5584 14.8475 36.4312 14.7881C36.5584 14.7288 36.6221 14.6695 36.7176 14.6398ZM36.5903 19.7119C36.8767 19.5932 37.2586 19.5932 37.2904 19.178C37.2904 19.1483 37.4177 19.089 37.4177 19.1186C37.7041 19.2669 37.9587 19.3856 38.2133 19.5636C38.2451 19.5932 38.277 19.7119 38.2133 19.7712C37.9587 20.0381 37.6723 20.3051 37.4177 20.572C37.2268 20.5127 37.1313 20.5127 37.0358 20.4534C36.8767 20.3644 36.7176 20.2458 36.5266 20.1271C36.3675 19.9788 36.3675 19.8008 36.5903 19.7119ZM35.3173 14.9661C35.381 14.9661 35.4446 15.0254 35.5401 15.0847C35.5082 15.1441 35.4764 15.2331 35.4128 15.2331C35.3491 15.2331 35.2537 15.2034 35.0945 15.1737C35.19 15.0847 35.2537 14.9958 35.3173 14.9661ZM34.6172 19.7415C35.0945 19.4449 35.381 19.8602 35.731 20.0085C35.7628 20.0381 35.7628 20.2754 35.731 20.3051C35.6037 20.4237 35.4446 20.4831 35.2855 20.5424C34.7126 20.661 34.1398 20.75 33.567 20.839C33.4397 20.8686 33.3124 20.8093 33.1851 20.7797C33.2487 20.6907 33.2806 20.6017 33.3442 20.5127C33.3442 20.4831 33.376 20.4831 33.376 20.4831C33.4079 19.8602 33.9489 19.9195 34.2671 19.8305C34.458 19.7712 34.5535 19.7712 34.6172 19.7415ZM35.0627 21.5508C34.8081 21.5508 34.5853 21.6102 34.4899 21.5212C34.2989 21.3136 34.5535 21.1949 34.6808 21.0763C34.8081 20.9576 34.9991 20.7797 35.1582 21.0169C35.2218 21.1356 35.0945 21.3136 35.0627 21.5508ZM35.1582 23.0932C35.1264 23.1525 35.1264 23.2415 35.0627 23.2712C34.9991 23.3008 34.9036 23.2712 34.7445 23.2415C34.8399 23.1229 34.8718 23.0339 34.9036 23.0339C34.9991 23.0339 35.0945 23.0636 35.1582 23.0932ZM33.026 12.6229C33.2487 12.5042 33.5033 12.4449 33.7261 12.4449C33.9489 12.4449 34.0443 13.0678 33.8852 13.3051C33.7897 13.4534 33.7261 13.6017 33.6306 13.75C33.5988 13.8093 33.5033 13.8983 33.4079 13.8983C33.3442 13.8983 33.2487 13.8093 33.2169 13.75C33.1533 13.6017 33.1214 13.4237 33.0896 13.2754C33.0578 13.2161 33.026 13.1271 33.026 13.0678C32.9941 12.9195 32.9305 12.6822 33.026 12.6229ZM32.835 15.4703C32.8668 15.411 32.9941 15.3517 33.0578 15.2924C33.1533 15.1737 33.1851 14.9364 33.4079 15.0254C33.5351 15.0847 33.5988 15.2627 33.7579 15.4407C33.6943 15.5593 33.5988 15.7669 33.5351 15.7966C33.3124 15.8263 33.0578 15.7669 32.835 15.7076C32.7714 15.7076 32.8032 15.5297 32.835 15.4703ZM32.9305 24.3686C33.6624 24.161 34.3626 23.9534 35.0945 23.7754C35.3173 23.7161 35.6037 23.6864 35.7628 23.7754C36.1447 23.9831 36.4948 23.9237 36.8767 23.8644C37.004 23.8644 37.1631 23.8941 37.3222 23.9237C37.2586 24.0424 37.2268 24.161 37.1631 24.2797C37.1313 24.3686 37.0676 24.428 37.0358 24.5169C36.9722 24.7542 36.8449 24.7839 36.6221 24.6356C36.2084 24.3983 35.4764 24.5763 35.2537 24.9619C35.0945 25.2288 34.5217 25.4068 34.2671 25.1992C33.9807 24.9322 33.7261 25.0805 33.4715 25.1398C33.2169 25.1992 32.8987 25.1992 32.835 25.5847C32.7714 25.8814 31.8166 26.0593 31.4984 25.8517C31.4029 25.7924 31.3075 25.6737 31.212 25.6737C30.8301 25.7034 30.8301 25.4958 30.7983 25.2288C30.7664 24.9025 30.9574 24.8136 31.212 24.7542C31.4984 24.4873 31.8166 25.1695 32.0712 24.7542C32.3258 24.428 32.6441 24.428 32.9305 24.3686ZM31.6257 12.6229C31.6575 12.6229 31.7212 12.6822 31.753 12.7119C31.7212 12.7712 31.6893 12.8305 31.6257 12.8602C31.5939 12.8898 31.5302 12.8305 31.4029 12.8008C31.5302 12.6822 31.5939 12.6229 31.6257 12.6229ZM30.671 12.9788C30.9256 13.1568 30.9892 13.2161 31.0847 13.2754C31.021 13.3644 30.9574 13.4831 30.8619 13.5127C30.8301 13.5424 30.671 13.4237 30.6391 13.3644C30.5755 13.2754 30.6391 13.1568 30.671 12.9788ZM31.212 16.0932C31.1802 16.1525 31.1483 16.2119 31.0847 16.2712C30.9892 16.2119 30.8937 16.1822 30.8937 16.1525C30.8937 16.0932 30.9574 16.0042 30.9892 16.0042C31.0847 16.0042 31.1483 16.0636 31.212 16.0932ZM30.2573 20.928C30.5118 20.6907 30.9892 20.661 31.4029 20.572C31.4347 20.572 31.562 20.75 31.5939 20.8686C31.6893 21.0763 31.7212 21.3729 32.0712 21.4025C32.1031 21.4025 32.1985 21.5508 32.1985 21.6102C32.1985 21.6695 32.0712 21.7881 32.0076 21.7881C31.7848 21.7881 31.5302 21.8771 31.3075 21.6695C31.021 21.4322 30.9574 21.4915 30.7346 21.7881C30.6391 21.9364 30.48 22.0254 30.3527 22.1441C30.2254 22.2627 30.0981 22.3814 29.9708 22.5297C29.8754 22.6186 29.8117 22.7076 29.6844 22.7373C29.6526 22.7373 29.5253 22.6186 29.4935 22.5297C29.4298 22.411 29.4298 22.2924 29.398 22.1737C29.3662 22.0847 29.3662 21.9958 29.3343 21.9068C29.2389 21.6398 29.3343 21.4619 29.6526 21.4025C29.939 21.2839 30.0663 21.1059 30.2573 20.928ZM20.8055 12.9492C20.9009 12.5636 21.2192 12.5339 21.5056 12.4746C21.8238 12.3856 22.2057 12.3856 22.5558 12.3559C22.6513 12.3559 22.7467 12.4449 22.8104 12.5042C22.7467 12.5932 22.7149 12.7119 22.6513 12.7415C22.4921 12.8305 22.3012 12.8602 22.1103 12.9195C21.8875 12.9788 21.6647 13.0085 21.6011 13.3051C21.6011 13.3941 21.5056 13.4831 21.4419 13.5127C21.1237 13.6314 20.7736 13.6907 20.6463 14.0763C20.6463 14.0763 20.6463 14.0763 20.6463 14.1059C20.71 14.1653 20.7418 14.2246 20.8055 14.2839C20.9646 14.4915 21.1555 14.6992 21.3146 14.9068C21.3465 14.9068 21.3783 14.8771 21.4101 14.8771C21.6965 14.8178 21.983 14.7881 22.0466 14.4322C22.0784 14.2542 22.3012 14.2246 22.3967 14.3729C22.5876 14.6102 22.8104 14.5212 23.0332 14.4619C23.7651 14.3136 24.4652 14.1653 25.1972 14.0169C25.4836 13.9576 25.7064 13.8983 25.8973 14.1949C26.0246 14.4025 26.2474 14.3136 26.2792 14.1059C26.3429 13.839 26.5338 13.7797 26.7884 13.7203C27.6158 13.5127 28.4114 13.2754 29.2389 13.0678C29.3343 13.0381 29.4616 13.0678 29.5571 13.1271C29.7162 13.1864 29.8435 13.2754 29.9708 13.3644C30.0663 13.4237 30.13 13.5424 30.13 13.6017C30.13 13.6907 30.0345 13.7797 29.9708 13.839C29.939 13.8686 29.8754 13.8983 29.8117 13.8983C29.1116 14.0466 28.4114 14.1653 27.7431 14.3136C27.2976 14.3729 26.9157 14.4915 26.5338 14.5805C26.0246 14.6992 25.5154 14.8475 25.0063 14.9364C24.5289 15.0254 24.4652 15.0254 24.5607 15.4703C24.5607 15.5297 24.5925 15.589 24.5925 15.6186C24.6244 15.7669 24.688 15.9449 24.4652 15.9449C24.3698 15.9449 24.2425 15.8263 24.2107 15.7373C24.147 15.589 24.0834 15.5 23.9879 15.411C23.9879 15.411 23.9879 15.4407 23.9561 15.4407C23.9242 15.4703 23.7651 15.4407 23.7015 15.411C23.6378 15.3814 23.606 15.322 23.5423 15.2627C23.4469 15.2627 23.3196 15.2924 23.1605 15.3517C22.7467 15.4703 22.3012 15.589 21.8557 15.6483C21.8875 15.7373 21.8557 15.8559 21.8238 15.9153C21.6647 16.0636 21.5056 16.0042 21.3783 15.8559C21.3146 15.7966 21.2828 15.7373 21.2192 15.678C20.9964 15.6186 20.7736 15.4703 20.4872 15.3517C20.5827 15.2331 20.6463 15.1441 20.71 15.0847C20.4872 14.8475 20.2644 14.6102 20.0735 14.3729C19.978 14.2542 19.8507 14.1653 19.8189 14.0466C19.7871 14.0169 19.7553 13.9873 19.7234 13.9576C19.5961 13.8093 19.5007 13.6314 19.3415 13.572C19.0233 13.4534 18.7369 13.6907 18.7369 14.0763C18.7369 14.1949 18.8005 14.3136 18.7369 14.4025C18.7051 14.4619 18.5459 14.4915 18.4505 14.5508C18.2913 14.2542 17.814 14.4322 17.6549 14.0763C17.623 14.0169 17.4639 14.0169 17.3366 14.0169C17.2411 14.0169 17.1457 14.0466 17.0184 14.0763C16.8274 14.1059 16.6683 14.0763 16.6047 13.8686C16.5728 13.661 16.732 13.6017 16.9229 13.5424C16.9547 13.5424 16.9866 13.5127 17.0502 13.5127V13.5424C17.6867 13.3941 18.3232 13.2458 18.9597 13.0975C18.9915 13.0975 18.9915 13.0975 19.0233 13.0975C18.9278 13.0085 18.9278 12.8898 18.896 12.7415C19.0551 12.7712 19.2142 12.7415 19.2461 12.8008C19.2779 12.8602 19.2779 12.9492 19.2461 13.0381C19.5325 12.9788 19.8189 12.9788 20.1371 13.1271C20.2963 13.2161 20.8055 13.0678 20.8055 12.9492Z" fill="#FEFEFE"/>
<path d="M16.5734 32.8518C16.5415 32.8221 16.5096 32.7628 16.4778 32.7331C16.3185 32.6145 16.2229 32.3772 16.0317 32.3179V32.5552C16.1273 32.5552 16.191 32.5848 16.2229 32.6441C16.4141 32.7628 16.5096 32.8518 16.5734 32.8518Z" fill="#FEFEFE"/>
<path d="M16.0317 12V12.089C16.0955 12.178 16.1592 12.2669 16.2229 12.3856C16.2229 12.2669 16.2229 12.1186 16.2548 12.0297H16.0317V12Z" fill="#FEFEFE"/>
</g>
<defs>
<clipPath id="clip0_0_1321">
<rect width="60" height="60" fill="white"/>
</clipPath>
</defs>
</svg>
