<svg width="60" height="60" viewBox="0 0 60 60" fill="none" xmlns="http://www.w3.org/2000/svg">
<g clip-path="url(#clip0_0_1320)">
<circle opacity="0.1" cx="30" cy="30" r="30" fill="#FEFEFE"/>
<path d="M37.6373 28.9175C37.6039 28.9175 37.5705 28.9843 37.5037 29.0512C37.6039 29.0846 37.6373 29.0846 37.6708 29.0846C37.7042 29.0846 37.7376 29.0177 37.7376 28.9843C37.7376 28.9509 37.6708 28.9175 37.6373 28.9175Z" fill="#FEFEFE"/>
<path d="M43.2181 36.0023C43.2516 35.9354 43.285 35.902 43.3184 35.8686C43.2516 35.8352 43.2181 35.8018 43.1513 35.8018C43.1179 35.8018 43.0845 35.8686 43.0845 35.9354C43.0845 35.9354 43.1513 35.9688 43.2181 36.0023Z" fill="#FEFEFE"/>
<path d="M33.3265 45.0251C33.3265 44.9917 33.3599 44.9583 33.3599 44.9248C33.4936 44.8914 33.6273 44.8246 33.5604 44.6575C33.5604 44.6241 33.527 44.5907 33.4936 44.5572C33.4936 44.4236 33.4268 44.3233 33.3599 44.2231C33.2931 44.1228 33.0926 44.1562 32.9923 44.1562C32.8587 44.1896 32.7918 44.2231 32.7584 44.2231C32.4242 44.3233 32.4242 44.3902 32.5245 44.7243C32.5913 44.9917 32.8252 44.9583 32.9589 45.0919C33.0257 45.1588 33.0926 45.1922 33.126 45.1922H33.1594C33.2263 45.1922 33.2597 45.1254 33.3265 45.0251Z" fill="#FEFEFE"/>
<path d="M42.8173 33.8303C42.8507 33.8972 42.951 33.964 42.9844 33.9306C43.0512 33.8972 43.0847 33.7969 43.1515 33.7635C43.0847 33.7301 43.0178 33.6967 42.8507 33.563C42.8173 33.6632 42.7839 33.7635 42.8173 33.8303Z" fill="#FEFEFE"/>
<path d="M41.9817 38.3751C42.0151 38.4419 42.0819 38.4419 42.1822 38.5088C42.2156 38.4085 42.249 38.3417 42.2156 38.3083C42.1822 38.2748 42.0819 38.2414 42.0485 38.208C42.0485 38.2748 41.9817 38.3417 41.9817 38.3751Z" fill="#FEFEFE"/>
<path d="M37.0695 34.7659C36.9692 34.6656 36.8355 34.6991 36.8021 34.8327C36.7687 35.1001 36.5682 35.1335 36.3677 35.2003C36.234 35.2337 36.1003 35.2672 36.0001 35.334C35.9332 35.3674 35.8998 35.4677 35.7996 35.6014C36.0669 35.7016 36.2674 35.8687 36.4679 35.8353C36.8689 35.8019 37.27 35.6682 37.671 35.5345C38.072 35.4008 38.2057 35.4343 38.4062 35.8019C38.4396 35.8687 38.5399 35.969 38.6067 35.969C38.7738 35.9355 38.707 35.8019 38.707 35.7016C38.707 35.6682 38.6735 35.6348 38.6735 35.5679C38.6067 35.2337 38.6401 35.2337 38.9743 35.1669C39.3419 35.1001 39.6761 34.9664 40.0103 34.8661C40.2776 34.7993 40.5116 34.6991 40.7789 34.6322C41.2468 34.4985 41.748 34.3983 42.2159 34.2646C42.2493 34.2646 42.3161 34.2312 42.3161 34.2312C42.3496 34.1644 42.4164 34.0975 42.4164 34.0307C42.4164 33.9639 42.3496 33.897 42.2827 33.8636C42.1825 33.7968 42.0822 33.7299 41.982 33.6965C41.9151 33.6631 41.8149 33.6631 41.748 33.6631C41.1799 33.8302 40.6118 34.0307 40.0437 34.1978C39.8766 34.2646 39.7429 34.298 39.7095 34.4985C39.6761 34.6322 39.5424 34.6991 39.4422 34.5654C39.3085 34.3315 39.1414 34.3983 38.9409 34.4651C38.4396 34.5988 37.9383 34.7325 37.4371 34.8327C37.3368 34.8661 37.2031 34.933 37.0695 34.7659Z" fill="#FEFEFE"/>
<path d="M41.5808 31.0563C41.5808 31.0229 41.4805 30.9561 41.4137 30.9561C41.3468 30.9561 41.3134 31.0563 41.2466 31.1231C41.3468 31.1566 41.4137 31.2234 41.4805 31.2234C41.5139 31.19 41.5808 31.0897 41.5808 31.0563Z" fill="#FEFEFE"/>
<path d="M43.4857 33.262C43.4523 33.262 43.4189 33.3289 43.3186 33.3957C43.4189 33.4291 43.4523 33.4291 43.4857 33.4291C43.5191 33.3957 43.5525 33.3623 43.5525 33.3289C43.5525 33.2955 43.5191 33.2286 43.4857 33.262Z" fill="#FEFEFE"/>
<path d="M44.555 35.2005C44.5216 35.2673 44.4548 35.3008 44.4214 35.3342C44.3879 35.401 44.3879 35.5013 44.3879 35.5013C44.4214 35.5013 44.4548 35.5013 44.4882 35.5347C44.555 35.3676 44.6219 35.1671 44.6887 35C44.6219 35.0334 44.5884 35.1337 44.555 35.2005Z" fill="#FEFEFE"/>
<path d="M44.9561 33.0947C44.789 33.0947 44.6219 33.1616 44.4548 33.2284C44.4214 33.2618 44.4548 33.4289 44.4548 33.5626C44.4548 33.6294 44.4882 33.6628 44.4882 33.7297C44.5216 33.8299 44.555 33.9636 44.5885 34.0639C44.6219 34.0973 44.6887 34.1641 44.7221 34.1641C44.7556 34.1641 44.8224 34.0973 44.8558 34.0639C44.9226 33.9636 44.9561 33.8299 45.0229 33.7297C45.0229 33.6628 45.0563 33.596 45.0563 33.5292C45.1232 33.3287 45.0563 33.0947 44.9561 33.0947Z" fill="#FEFEFE"/>
<path d="M42.3829 30.689C42.3495 30.689 42.3161 30.7558 42.2158 30.7892C42.3829 30.8561 42.4163 30.8561 42.4832 30.8895C42.4832 30.8561 42.55 30.7892 42.5166 30.7558C42.4832 30.7224 42.4163 30.689 42.3829 30.689Z" fill="#FEFEFE"/>
<path d="M40.8123 31.4239C40.8791 31.3905 40.9126 31.3237 40.946 31.2568C40.8791 31.2234 40.8457 31.1566 40.7789 31.1231C40.6786 31.0563 40.5784 31.0229 40.4781 30.9895C40.4113 30.9561 40.3445 30.9895 40.311 30.9561C40.311 31.1231 40.311 31.2902 40.3445 31.4573C40.3445 31.4908 40.5115 31.5242 40.5784 31.5242C40.6786 31.4908 40.7789 31.4573 40.8123 31.4239Z" fill="#FEFEFE"/>
<path d="M33.4269 38.8095C33.4937 38.8095 33.594 38.776 33.6608 38.776C33.8613 38.776 34.0953 38.7092 34.2958 38.776C34.5297 38.8763 34.5631 38.776 34.5631 38.6089C34.5965 38.2748 34.4963 38.2079 34.1955 38.2748C34.1287 38.3082 34.0284 38.3082 33.9616 38.3416C33.9616 38.3416 33.9616 38.3416 33.9616 38.3082C33.7611 38.4084 33.5606 38.5087 33.36 38.6089C33.3266 38.6424 33.2932 38.7092 33.2932 38.7426C33.3266 38.7426 33.3935 38.8095 33.4269 38.8095Z" fill="#FEFEFE"/>
<path d="M39.5423 40.8481C39.5757 40.915 39.676 40.9484 39.7094 40.9484C39.7762 40.9484 39.8096 40.8481 39.8096 40.7813C39.8096 40.7144 39.7762 40.6476 39.7762 40.6476C39.7428 40.5473 39.7428 40.5139 39.7094 40.4805C39.676 40.3803 39.6091 40.28 39.4755 40.3468C39.4086 40.3803 39.3752 40.5139 39.4086 40.5808C39.442 40.6476 39.4755 40.7479 39.5423 40.8481Z" fill="#FEFEFE"/>
<path d="M40.0771 41.4496C39.91 40.9483 39.8432 40.9149 39.509 41.0152C39.3085 41.082 39.3753 41.2157 39.3419 41.3493C39.3085 41.483 39.3753 41.6501 39.4421 41.7838C39.5758 42.0177 39.8097 41.9843 39.9768 41.884L40.0103 41.8506C40.0771 41.7504 40.0437 41.5833 40.0771 41.4496Z" fill="#FEFEFE"/>
<path d="M39.3751 35.6347C39.3083 35.5678 39.2414 35.5344 39.1746 35.501C39.1412 35.5678 39.0743 35.6681 39.1077 35.7349C39.1077 35.8352 39.1746 35.902 39.2414 35.9688C39.2748 36.0023 39.3417 36.0357 39.3751 36.0357C39.4085 36.0357 39.4419 35.9688 39.4419 35.902C39.4419 35.8352 39.4085 35.7683 39.4085 35.7015C39.3751 35.6681 39.3751 35.6347 39.3751 35.6347Z" fill="#FEFEFE"/>
<path d="M39.4086 36.2695C39.3752 36.3029 39.3418 36.3364 39.3083 36.4032C39.3752 36.4366 39.4086 36.5035 39.442 36.5035C39.4754 36.5035 39.5423 36.4366 39.5423 36.4032C39.5089 36.3364 39.442 36.3029 39.4086 36.2695Z" fill="#FEFEFE"/>
<path d="M33.4935 36.2365C33.4935 36.2031 33.4267 36.1696 33.3933 36.1362C33.3598 36.2031 33.3264 36.2365 33.3264 36.2699C33.3598 36.3033 33.3933 36.3367 33.4267 36.3367C33.4601 36.3033 33.4935 36.2699 33.4935 36.2365Z" fill="#FEFEFE"/>
<path d="M37.0694 42.0511C37.1697 42.3519 37.2699 42.3853 37.5373 42.2516C37.7044 42.1848 37.7378 42.0845 37.7044 41.9509C37.671 41.7838 37.6375 41.6501 37.5707 41.483C37.5373 41.3159 37.437 41.2157 37.2365 41.2491C36.9692 41.3159 36.9023 41.3828 36.9692 41.6501C36.9692 41.7169 37.0026 41.8172 37.0026 41.8506C37.036 41.9509 37.036 42.0177 37.0694 42.0511Z" fill="#FEFEFE"/>
<path d="M38.8406 37.2723C38.9074 37.2389 38.9742 37.2389 39.0076 37.1721C39.0411 37.1386 39.0411 37.0718 39.0745 37.0384C38.9742 37.0384 38.874 36.9715 38.8071 37.005C38.7069 37.0384 38.64 37.1386 38.5398 37.2055C38.5732 37.2389 38.6066 37.2723 38.6735 37.2723C38.7069 37.3057 38.7737 37.2723 38.8406 37.2723Z" fill="#FEFEFE"/>
<path d="M38.0718 41.0817C37.8379 41.1151 37.8713 41.2822 37.9381 41.4159C38.005 41.6832 38.0718 41.7501 38.3392 41.6498C38.6065 41.583 38.6399 41.5161 38.5731 41.2822C38.4728 41.0483 38.3392 41.0148 38.0718 41.0817Z" fill="#FEFEFE"/>
<path d="M34.9305 43.5546C34.9305 43.5212 34.8637 43.5212 34.8303 43.4878C34.7968 43.588 34.7634 43.6549 34.7634 43.7551V43.7886C34.8971 43.7551 34.9974 43.7217 34.9305 43.5546Z" fill="#FEFEFE"/>
<path d="M30.4858 31.4909C30.4858 31.5243 30.6195 31.5578 30.6529 31.5578C30.7198 31.4909 30.7532 31.4241 30.7532 31.3573C30.7532 31.2904 30.7198 31.2236 30.7198 31.1567C30.6529 31.1902 30.5527 31.1902 30.5192 31.257C30.4524 31.2904 30.4524 31.3907 30.4858 31.4909Z" fill="#FEFEFE"/>
<path d="M31.5217 31.1568H31.622C31.6554 31.0231 31.6888 30.856 31.6554 30.7223C31.6554 30.6555 31.4883 30.5553 31.4215 30.5887C31.1876 30.6555 30.9536 30.7558 30.7531 30.8894C30.7197 30.9228 30.7197 31.0565 30.6863 31.1234C30.987 31.0565 31.2544 30.8894 31.5217 31.1568Z" fill="#FEFEFE"/>
<path d="M31.1878 31.3237C31.1544 31.2903 31.0875 31.2568 31.0541 31.2568C31.0207 31.2903 30.9539 31.3571 30.9539 31.3905C30.9539 31.4239 30.9873 31.4908 31.0541 31.5576C31.1209 31.4239 31.1544 31.3571 31.1878 31.3237Z" fill="#FEFEFE"/>
<path d="M31.4551 33.8968C31.5553 34.1307 31.7224 34.0639 31.9229 34.0305C31.9563 34.0305 31.9898 34.0305 31.9898 33.997C32.0566 33.9302 32.1234 33.8634 32.2237 33.7965C32.1569 33.7297 32.0566 33.6963 31.9898 33.6294C31.9229 33.596 31.8227 33.596 31.7892 33.5626C31.6556 33.3287 31.4551 33.4623 31.288 33.4623C31.2546 33.4623 31.1543 33.5626 31.1543 33.6294C31.1543 33.6963 31.2211 33.7965 31.288 33.8299C31.288 33.8634 31.4216 33.8634 31.4551 33.8968Z" fill="#FEFEFE"/>
<path d="M30.4526 33.3957C30.486 33.2955 30.5528 33.2286 30.5528 33.1618C30.5528 33.1284 30.4526 33.0949 30.4192 33.0615C30.3857 33.1284 30.3189 33.1618 30.3189 33.2286C30.2855 33.2955 30.3857 33.3289 30.4526 33.3957Z" fill="#FEFEFE"/>
<path d="M30.018 44.524C30.0514 44.5908 30.1517 44.6576 30.2185 44.7245C30.252 44.6576 30.2854 44.5574 30.2854 44.4905C30.2854 44.29 30.252 44.1564 30.4191 43.9893C30.5527 43.889 30.3522 43.4212 30.2185 43.3543C30.1183 43.3209 30.018 43.2541 29.9178 43.1872C29.8509 43.1538 29.7841 43.1538 29.7507 43.1538C29.7173 43.1872 29.6838 43.2541 29.6838 43.3209C29.7173 43.5214 29.7841 43.7219 29.8509 43.889C29.8844 44.1229 29.9178 44.3235 30.018 44.524Z" fill="#FEFEFE"/>
<path d="M29.9177 39.2441C29.8175 39.2441 29.6838 39.311 29.617 39.4112C29.5501 39.5115 29.5167 39.5783 29.4499 39.6786C29.383 39.7788 29.3496 39.8791 29.2828 40.0128C29.383 40.1464 29.4833 40.2133 29.5501 40.3135C29.617 40.2467 29.6504 40.1464 29.7172 40.0796C29.784 40.0128 29.8843 39.9459 29.9846 39.8791C30.0848 39.8457 30.1851 39.7788 30.2853 39.7454C30.4524 39.8791 30.4858 40.1464 30.3522 40.3135C30.2185 40.4806 30.2185 40.5475 30.3856 40.6477C30.5861 40.7814 30.6195 41.0153 30.5527 41.2492C30.5192 41.2827 30.5192 41.3495 30.5192 41.4163C30.3856 41.4498 30.1851 41.5166 30.1182 41.5834C30.0848 41.6168 30.0514 41.6168 30.018 41.6503C29.8843 41.7505 29.8843 41.8508 30.0514 41.8842C30.1516 41.9176 30.2185 41.9845 30.2853 42.0179C30.3856 42.0513 30.4524 42.0847 30.4858 42.0847C30.5527 42.2852 30.6195 42.4523 30.6863 42.6528C30.6863 42.7197 30.7198 42.7865 30.7532 42.8199C30.6863 42.8199 30.6529 42.8199 30.6195 42.8533C30.5861 42.8867 30.5861 43.0204 30.5861 43.0873C30.6529 43.2543 30.7866 43.388 31.0205 43.388C31.0539 43.388 31.1208 43.388 31.1542 43.388C31.1542 43.388 31.1542 43.4214 31.1876 43.4214C30.8869 43.6888 31.1208 43.789 31.3213 43.9227C31.3547 43.9561 31.3547 43.9896 31.3881 44.023C31.5218 44.1901 31.7223 44.0898 31.856 44.0564C32.0231 44.023 31.9897 43.8893 31.9562 43.7556C31.9228 43.6554 31.9228 43.5551 31.8894 43.4549C31.9562 43.388 32.0231 43.3212 32.0565 43.2209C32.0899 43.1541 32.1568 43.0538 32.1902 42.987C32.2236 42.8867 32.257 42.7531 32.3238 42.6528C32.2236 42.5526 32.1902 42.4523 32.1233 42.4189C32.0565 42.3855 31.856 42.4189 31.6889 42.4857C31.6221 42.2184 31.5552 41.9176 31.4884 41.6503C31.455 41.55 31.3881 41.4163 31.3213 41.4163C31.0539 41.3495 31.0539 41.1156 31.0539 40.9485C31.0539 40.8482 31.2879 40.748 31.4215 40.7146C31.6221 40.6477 31.8226 40.6477 32.0231 40.5809C32.0899 40.5475 32.1568 40.4806 32.1902 40.4138C32.0899 40.3804 32.0231 40.3135 31.9228 40.3135C31.8226 40.3135 31.7557 40.3469 31.6555 40.3804C31.4884 40.4138 31.3547 40.4472 31.1876 40.4806C31.0205 40.514 30.9203 40.4472 30.8534 40.2801C30.7866 40.0462 30.7532 39.7788 30.6863 39.5449C30.6195 39.3444 30.5861 39.1439 30.5192 38.91C30.4858 38.7763 30.4858 38.6426 30.6195 38.5089C30.7198 38.4421 30.7866 38.3084 30.82 38.2082C30.8534 38.2082 30.8534 38.2082 30.8869 38.2082C31.0874 38.1413 31.2545 38.0745 31.1542 37.8072C31.1542 37.7737 31.1208 37.7403 31.1208 37.7069C31.1542 37.7069 31.1542 37.7069 31.1876 37.7069C31.3213 37.6735 31.4884 37.6401 31.6221 37.6066C31.7891 37.6401 31.9897 37.5732 32.1902 37.5398C32.2904 37.5398 32.4575 37.5064 32.5244 37.5732C32.7249 37.8071 32.892 37.6401 33.059 37.6066C33.0925 37.6066 33.1593 37.5064 33.1593 37.4395C33.1593 37.4061 33.0925 37.3393 33.0256 37.3059C32.6914 37.1722 32.6914 37.1388 32.9588 36.8714C33.1259 36.7043 33.0256 36.3033 32.7917 36.3033C32.6246 36.3033 32.4909 36.2699 32.4241 36.1362C32.4241 36.1362 32.2236 36.1696 32.2236 36.2031C32.1902 36.5707 31.8894 36.5707 31.6221 36.6375C31.3547 36.7043 31.0874 36.7378 30.82 36.8046C30.5861 36.8714 30.3856 36.9717 30.3187 37.2725C30.2853 37.473 30.1516 37.473 30.018 37.3059C29.9177 37.1722 29.8175 37.1388 29.6838 37.1722C29.5835 37.2056 29.5167 37.239 29.4164 37.239C29.3496 37.239 29.2828 37.2725 29.2159 37.2725C28.7147 37.4061 28.6478 37.6066 28.8149 38.0745C28.8817 38.275 28.982 38.3753 29.2159 38.3418C29.4833 38.275 29.7506 38.2416 30.018 38.1748H30.0514C30.0514 38.2082 30.0848 38.275 30.0848 38.3084C30.1182 38.4421 30.1182 38.5758 30.1516 38.7094C30.1851 38.8431 30.1851 38.9434 30.0848 39.0436C29.9846 39.077 29.9511 39.1773 29.9177 39.2441Z" fill="#FEFEFE"/>
<path d="M30.4525 29.7867C30.4859 29.7532 30.5193 29.6864 30.5527 29.6196C30.4859 29.5862 30.419 29.5527 30.3856 29.5527C30.3522 29.5527 30.3188 29.653 30.252 29.7198C30.3522 29.7532 30.4525 29.8201 30.4525 29.7867Z" fill="#FEFEFE"/>
<path d="M32.5577 31.0232C32.8585 30.9564 33.0256 30.7559 32.9588 30.5554C32.8919 30.3214 32.7583 30.2546 32.4575 30.3214C32.3238 30.3549 32.023 30.7893 32.0899 30.923C32.1901 31.0901 32.3906 31.0232 32.5577 31.0232Z" fill="#FEFEFE"/>
<path d="M37.7375 32.1593C37.7375 32.1927 37.8377 32.2596 37.8712 32.2596C38.1051 32.1927 38.3724 32.1593 38.6064 32.0591C38.6398 32.0591 38.7066 31.9254 38.6732 31.8586C38.6732 31.8251 38.5395 31.7583 38.5061 31.7583C38.3724 31.7583 38.2722 31.7917 38.1385 31.8251C38.0382 31.8586 37.9046 31.892 37.8043 31.9254C37.7375 31.9922 37.7041 32.0925 37.7375 32.1593Z" fill="#FEFEFE"/>
<path d="M35.532 30.0537C35.7325 29.9868 35.6656 29.8197 35.6322 29.6861C35.5988 29.5524 35.4985 29.4187 35.3649 29.4856C35.2646 29.519 35.2646 29.6861 35.2312 29.7529C35.298 29.9534 35.3315 30.1539 35.532 30.0537Z" fill="#FEFEFE"/>
<path d="M36.5681 24.64C36.5013 24.6066 36.4344 24.5732 36.3676 24.6066C36.3342 24.6066 36.3008 24.7069 36.2673 24.7737C36.2673 24.8405 36.2673 24.9408 36.3008 25.0745C36.3342 25.1079 36.4344 25.275 36.5013 25.2416C36.6349 25.2082 36.7686 25.1079 36.9023 25.0076C36.8354 24.9408 36.7686 24.874 36.7018 24.8071C36.6684 24.7737 36.6349 24.6735 36.5681 24.64Z" fill="#FEFEFE"/>
<path d="M33.8276 33.663C33.861 33.7966 33.8945 33.9637 33.9613 34.0974C33.7608 34.1642 33.5603 34.2311 33.3598 34.2645C33.3598 34.2645 33.3598 34.2645 33.3598 34.2311C33.3263 34.2311 33.2929 34.2311 33.2929 34.2645C33.1593 34.2979 33.059 34.3647 33.0924 34.5318C33.1258 34.6989 33.2595 34.6989 33.3932 34.6655C33.46 34.6655 33.5603 34.6321 33.6271 34.6321C33.6939 34.6321 33.8276 34.6321 33.8276 34.6655C33.9279 34.9328 34.2621 34.7658 34.3957 34.9997C34.4626 34.9663 34.5628 34.9328 34.5962 34.866C34.6297 34.7992 34.5962 34.6989 34.5962 34.6321C34.5962 34.5987 34.5962 34.5987 34.5962 34.5652C34.7633 34.5318 34.8302 34.3982 34.7633 34.2645C34.8302 34.2311 34.9304 34.1976 35.0307 34.2311C35.1309 34.2645 35.2312 34.3982 35.298 34.4984C35.4317 34.6655 35.8327 34.7323 35.8996 34.5652C35.9998 34.2645 36.2337 34.1976 36.4343 34.1308C36.5011 34.0974 36.5345 34.0306 36.5345 33.9637C36.5679 33.7632 36.735 33.7298 36.8687 33.663C37.0024 33.6295 37.136 33.5961 37.2363 33.5293C37.3031 33.4959 37.3031 33.3956 37.3366 33.3288C37.2697 33.2954 37.2029 33.2285 37.136 33.2285C36.9021 33.2619 36.6348 33.2619 36.4008 33.3288C36.2003 33.3956 35.9664 33.3956 35.933 33.6964C35.933 33.7632 35.5654 33.8969 35.4651 33.8635C35.1644 33.7298 34.897 33.7966 34.6297 33.8635C34.5962 33.8635 34.5628 33.8969 34.5294 33.8969C34.4626 33.6964 34.3957 33.5293 34.1284 33.4624C34.095 33.4624 34.0616 33.3288 34.0281 33.2619C33.8276 33.2954 33.7608 33.429 33.8276 33.663Z" fill="#FEFEFE"/>
<path d="M35.933 29.3187C35.7993 29.419 35.7993 29.5527 35.8662 29.6863C35.933 29.7866 36.0333 29.9203 36.1001 29.9537C36.3674 30.0205 36.5345 29.8534 36.6014 29.5861C36.6014 29.5192 36.6682 29.4858 36.7016 29.419C36.8353 29.2519 36.8019 29.1851 36.6014 29.1851C36.4677 29.1851 36.334 29.1851 36.2338 29.1851C36.1335 29.2185 36.0333 29.2519 35.933 29.3187Z" fill="#FEFEFE"/>
<path d="M39.7094 32.6937C39.5757 32.6269 39.5089 32.4598 39.3418 32.5601C39.2081 32.6603 39.041 32.6937 38.9408 32.8274C38.8405 32.9945 38.7737 32.9611 38.64 32.8608C38.4729 32.7271 38.3058 32.7606 38.2724 32.9611C38.239 33.1282 38.1387 33.1616 38.0385 33.2284C37.9048 33.2953 37.6709 33.2953 37.7711 33.5292C37.8714 33.7631 38.0385 33.6294 38.2056 33.596C38.239 33.596 38.3058 33.596 38.3058 33.5626C38.64 33.3287 39.041 33.3287 39.4086 33.2284C39.5757 33.195 39.7094 33.1282 39.8431 33.3287C39.8765 33.3621 40.077 33.2953 40.1104 33.2953C40.1438 32.9611 40.4112 32.9945 40.6117 32.8942C40.7788 32.8274 40.9793 32.794 41.1464 32.7271C41.2132 32.6937 41.3469 32.6269 41.3469 32.5601C41.3803 32.3261 41.4806 32.3261 41.6811 32.393C41.8147 32.4264 42.0153 32.4264 42.1489 32.393C42.2158 32.3595 42.2492 32.1924 42.316 32.1256C42.4163 31.9919 42.5165 31.9919 42.6502 32.0588C42.7839 32.1256 42.9175 32.159 43.0512 32.159C43.2851 32.159 43.3186 32.0254 43.2517 31.8248C43.1849 31.6912 43.1515 31.4572 42.9175 31.5575C42.6502 31.6243 42.3829 31.7246 42.1489 31.7914C42.0153 31.8248 41.915 31.8917 41.8816 32.0588C41.8482 32.2593 41.7145 32.2927 41.5808 32.159C41.4137 31.9585 41.3135 32.0254 41.2132 32.2259C41.1798 32.2927 41.0127 32.3261 40.9459 32.2927C40.7454 32.159 40.6117 32.1924 40.5114 32.4264C40.4112 32.6269 39.8765 32.794 39.7094 32.6937Z" fill="#FEFEFE"/>
<path d="M36.7686 31.9589C36.5681 32.0591 36.6684 32.2596 36.6684 32.4267C36.6684 32.5604 36.7686 32.6272 36.9357 32.5938C37.1362 32.527 37.0694 32.3599 37.036 32.2262C36.9691 32.0925 36.9691 31.8586 36.7686 31.9589Z" fill="#FEFEFE"/>
<path d="M33.2597 32.6604C33.1929 32.4933 32.9924 32.5601 32.9589 32.7606C32.9255 32.8609 32.8587 32.9611 32.8253 33.0614C32.6916 33.2619 32.7584 33.6629 32.9255 33.6963C33.126 33.7298 33.4268 33.5627 33.527 33.3622C33.5939 33.1951 33.9615 33.028 34.0617 33.1282L34.0952 33.1616C34.0952 33.1951 34.0952 33.2285 34.1286 33.2619C34.162 33.2619 34.162 33.2285 34.1954 33.2285C34.3625 33.3287 34.5296 33.2619 34.6967 33.2285C34.7635 33.1951 34.8638 33.1616 34.964 33.1282C35.198 33.0614 35.2314 32.9277 35.1645 32.7272C35.0977 32.5267 35.0309 32.4264 34.7969 32.4933C34.6299 32.5601 34.4628 32.5935 34.2622 32.627C34.2288 32.627 34.2288 32.5935 34.1954 32.627C34.162 32.627 34.162 32.6604 34.1286 32.6604C34.0283 32.6938 33.9281 32.7272 33.7944 32.7606C33.5605 32.8275 33.3934 32.9277 33.2597 32.6604Z" fill="#FEFEFE"/>
<path d="M34.3957 23.2365C34.3957 23.2031 34.2955 23.1362 34.2286 23.1362C34.1952 23.1362 34.1284 23.2365 34.095 23.3033C34.1952 23.3702 34.2286 23.4036 34.2955 23.437C34.3289 23.3702 34.3957 23.3033 34.3957 23.2365Z" fill="#FEFEFE"/>
<path d="M34.0282 30.3211C33.8946 30.2208 33.8277 30.1205 33.7275 30.0537C33.6941 30.1874 33.6606 30.3211 33.6606 30.4547C33.6606 30.5216 33.7943 30.555 33.8612 30.6218C33.8946 30.5216 33.9614 30.4547 34.0282 30.3211Z" fill="#FEFEFE"/>
<path d="M30.7198 34.3314C30.8201 34.2646 30.8201 34.1309 30.9203 33.9972C30.7867 33.897 30.7198 33.7633 30.5861 33.7299C30.4859 33.6965 30.4191 33.9638 30.4859 34.1978C30.5527 34.298 30.6196 34.3983 30.7198 34.3314Z" fill="#FEFEFE"/>
<path d="M25.8073 29.9537C25.8073 30.0205 25.9075 30.0873 26.0078 30.1876C26.0746 30.0205 26.108 29.9537 26.108 29.8868C26.0746 29.82 25.9744 29.7866 25.9075 29.7197C25.8741 29.82 25.7738 29.8868 25.8073 29.9537Z" fill="#FEFEFE"/>
<path d="M24.504 34.4315C24.5709 34.3981 24.6377 34.2979 24.738 34.1308C24.5375 34.0973 24.4038 34.0639 24.3035 34.0973C24.2033 34.1308 24.0028 34.1308 24.0362 34.3313C24.0696 34.3981 24.3704 34.4984 24.504 34.4315Z" fill="#FEFEFE"/>
<path d="M24.6043 36.1359C24.7045 36.1359 24.7714 36.1693 24.8716 36.2027C24.9719 36.2362 25.0721 36.303 25.1724 36.2696C25.6068 36.1693 26.0747 36.0357 26.5091 35.902C26.6094 35.8686 26.743 35.8017 26.743 35.7683C26.7765 35.4675 27.0104 35.4675 27.2109 35.3673C27.3446 35.3004 27.5785 35.2336 27.6119 35.0999C27.6788 34.9328 27.779 34.866 27.9127 34.8326C28.0798 34.7992 28.2469 34.7658 28.3805 34.6989C28.4474 34.6655 28.5476 34.5652 28.5476 34.4984C28.581 34.2645 28.3137 34.064 28.0798 34.064C27.9461 34.064 27.779 34.0974 27.6453 34.1308C27.5117 34.1642 27.4448 34.2311 27.4448 34.3981C27.4448 34.5652 27.3446 34.6655 27.1775 34.6989L27.2109 34.6655C27.1106 34.6321 27.0438 34.5652 26.9435 34.4984C26.8767 34.5318 26.8433 34.5987 26.7765 34.6321C26.743 34.5987 26.743 34.5318 26.7096 34.465C26.6762 34.3982 26.6762 34.3313 26.6428 34.2645C26.6094 34.2311 26.5759 34.2311 26.5425 34.2311C26.5091 34.2311 26.4757 34.2979 26.4757 34.3313C26.4757 34.3982 26.5091 34.465 26.5091 34.5318C26.5759 34.866 26.5759 34.866 26.2083 34.9663C26.1415 34.9663 26.1081 34.9997 26.0413 34.9997C25.8407 35.0331 25.6068 35.2002 25.4397 34.9328C25.3395 34.7992 24.8716 34.9328 24.8382 35.0665C24.8048 35.3004 24.6377 35.3673 24.4706 35.4675C24.2701 35.6012 24.3369 35.8017 24.3703 35.9688C24.3369 36.1693 24.504 36.1359 24.6043 36.1359Z" fill="#FEFEFE"/>
<path d="M27.3113 30.5551C27.2778 30.4882 27.1776 30.4548 27.1108 30.4214C27.0773 30.4882 27.0105 30.5885 27.0105 30.6553C27.0105 30.7222 27.1108 30.7556 27.2444 30.8558C27.2778 30.6887 27.3447 30.6219 27.3113 30.5551Z" fill="#FEFEFE"/>
<path d="M26.0746 25.5425C26.0412 25.5759 26.0078 25.6093 25.9744 25.6762C26.0412 25.7096 26.108 25.7096 26.108 25.7096C26.1415 25.6762 26.1415 25.6427 26.1415 25.5759C26.1749 25.5759 26.108 25.5425 26.0746 25.5425Z" fill="#FEFEFE"/>
<path d="M23.1674 20.3623C23.1339 20.3623 23.1005 20.4626 23.0337 20.5628C23.1339 20.5962 23.2342 20.6631 23.2676 20.6297C23.301 20.5962 23.3345 20.5294 23.3679 20.4626C23.301 20.3957 23.2342 20.3623 23.1674 20.3623Z" fill="#FEFEFE"/>
<path d="M26.9436 20.4628C26.8768 20.3291 26.6763 20.2957 26.576 20.4293C26.5092 20.563 26.4424 20.6633 26.3755 20.7969C26.3087 20.9306 26.3421 21.0309 26.5092 21.0309C26.576 21.0309 26.6763 20.9974 26.7431 20.9974C27.0773 20.9306 27.0439 20.7635 26.9436 20.4628Z" fill="#FEFEFE"/>
<path d="M26.0747 31.6245C26.1081 31.7582 26.1415 31.9587 26.342 31.8919C26.5425 31.825 26.4757 31.658 26.4423 31.5243C26.4088 31.3906 26.3754 31.2569 26.2083 31.2904C26.0078 31.3238 26.0747 31.4909 26.0747 31.6245Z" fill="#FEFEFE"/>
<path d="M26.8433 25.5757C26.7765 25.6425 26.7431 25.6759 26.6428 25.8096C26.7765 25.8764 26.8433 25.9433 26.9102 25.9433C26.9436 25.9433 27.0438 25.8096 27.0104 25.7762C26.977 25.6759 26.8768 25.6425 26.8433 25.5757Z" fill="#FEFEFE"/>
<path d="M26.0748 39.6447C26.0748 39.7115 26.1751 39.8452 26.2085 39.8452C26.3087 39.8452 26.4424 39.7449 26.4424 39.6781C26.4758 39.4442 26.6095 39.4442 26.7766 39.3773C26.8769 39.3439 27.0105 39.3105 27.1108 39.2771C27.1776 39.2437 27.2779 39.1434 27.2779 39.0766C27.2779 38.9429 27.1442 38.9429 27.0439 38.9429C26.6429 39.0097 26.6429 39.0097 26.5427 38.6421C26.4424 38.1743 26.3422 38.1074 25.8743 38.2077C25.8075 38.2077 25.7072 38.2411 25.5735 38.2745C25.5067 38.308 25.4064 38.3414 25.2728 38.3748C25.0723 38.4416 25.0723 38.5753 25.1057 38.7758C25.1725 38.9429 25.2394 39.0766 25.4399 39.0097C25.607 38.9763 25.8075 38.9429 26.008 38.9095C26.0748 38.9095 26.1751 38.9429 26.2419 39.0097C26.2753 39.0097 26.2085 39.1768 26.1751 39.2103C25.9746 39.3105 26.0414 39.4776 26.0748 39.6447Z" fill="#FEFEFE"/>
<path d="M26.81 40.915C26.9771 41.1824 27.1776 41.0153 27.3447 40.9485C27.5452 40.8816 27.4449 40.7145 27.4115 40.5809C27.3447 40.2467 27.2778 40.2133 26.81 40.3803C26.7765 40.3803 26.7097 40.4138 26.6094 40.4806C26.5426 40.5474 26.4758 40.6143 26.4089 40.6811C26.4758 40.7145 26.5426 40.7814 26.6094 40.8148C26.7097 40.8482 26.7765 40.8816 26.81 40.915Z" fill="#FEFEFE"/>
<path d="M23.6687 21.8996C24.4707 21.8662 25.1391 21.4317 25.8743 21.2312C25.9077 21.2312 25.9411 21.0975 25.9745 21.0641C25.9077 21.0307 25.8408 20.9639 25.774 20.9639C25.6403 20.9639 25.4064 21.0307 25.373 20.9639C25.2059 20.7299 25.0388 20.8302 24.8383 20.8636C24.6378 20.9304 24.4373 20.9639 24.2368 21.0307C24.0028 21.0975 23.7689 21.1644 23.535 21.2312C23.3345 21.2646 23.2008 21.3315 23.2676 21.5988C23.3345 21.8662 23.4013 21.933 23.6687 21.8996Z" fill="#FEFEFE"/>
<path d="M29.617 27.3136C29.7841 27.2133 29.9512 27.1465 30.0849 27.0462C30.1183 27.0128 30.1183 26.946 30.1183 26.8791C29.8509 26.9125 29.7841 26.6118 29.5836 26.5784C29.3497 26.5449 29.3162 26.4113 29.2828 26.2776C29.2494 26.1439 29.216 26.0102 29.1492 25.8766C29.1157 25.8097 29.0155 25.7763 28.9486 25.7095C28.9152 25.8097 28.8484 25.8766 28.8484 25.9768C28.8484 26.1105 28.9486 26.2107 28.9486 26.311C28.9821 26.5449 29.0489 26.8457 28.9821 27.0462C28.8818 27.3136 28.9152 27.347 29.1492 27.3136C29.3162 27.347 29.4499 27.347 29.617 27.3136Z" fill="#FEFEFE"/>
<path d="M28.2136 41.3826C28.247 41.3492 28.2804 41.2824 28.2804 41.249C28.3138 41.0819 28.2804 40.9148 28.3138 40.7811C28.3472 40.614 28.4141 40.4469 28.4809 40.2464C28.3472 40.1462 28.2804 40.0459 28.1802 40.0459C28.0131 40.0459 28.0131 40.1796 28.0131 40.3132C28.0131 40.3801 28.0465 40.4803 28.0465 40.5472C28.0465 40.6474 28.0465 40.7477 27.9797 40.8145C27.7123 41.015 27.9462 41.1821 28.0131 41.3492C28.0799 41.3492 28.1467 41.3492 28.2136 41.3826Z" fill="#FEFEFE"/>
<path d="M28.9152 30.1207C28.8484 29.8868 28.581 30.0204 28.4139 30.0204C28.4139 30.0204 28.3805 30.0204 28.3471 30.0204C28.2803 30.0539 28.18 30.0873 28.1132 30.1541C28.0463 30.221 28.0463 30.2878 27.9795 30.388C28.0463 30.4215 28.1132 30.4883 28.2134 30.4883C28.2134 30.5217 28.2134 30.5551 28.2134 30.622C28.2468 30.6888 28.2803 30.7557 28.3137 30.8225C28.3805 30.8893 28.4474 30.9562 28.5142 31.023C28.5476 30.9562 28.6144 30.8893 28.6479 30.8225C28.7147 30.7222 28.8484 30.5551 28.8484 30.4883C28.8484 30.4215 28.7815 30.3881 28.7147 30.3546C28.8818 30.3212 28.982 30.2544 28.9152 30.1207Z" fill="#FEFEFE"/>
<path d="M27.9796 39.0435C28.3138 39.0101 28.3806 38.9099 28.2804 38.5757C28.247 38.4754 28.2136 38.3752 28.1801 38.2749C28.1467 38.1747 28.1133 38.0744 28.0799 37.9741C27.9796 37.64 27.9462 37.64 27.612 37.7068C27.4115 37.7736 27.211 37.8071 27.0105 37.8739C26.6095 37.9741 26.5761 38.041 26.7431 38.4086C26.7766 38.5088 26.8768 38.5757 26.9437 38.6425C27.0105 38.5757 27.0773 38.5088 27.1107 38.4086C27.211 38.2081 27.3113 38.2081 27.4115 38.3752C27.5118 38.5088 27.5786 38.6759 27.612 38.843C27.7123 38.9767 27.7791 39.077 27.9796 39.0435Z" fill="#FEFEFE"/>
<path d="M28.3137 29.6864C28.3472 29.6195 28.414 29.5527 28.414 29.4859C28.3806 29.2854 28.3472 29.0848 28.3137 28.8843C28.3137 28.8509 28.2469 28.7841 28.2135 28.7507C27.8459 28.6838 28.0798 29.1517 27.7791 29.1851C27.8125 29.2519 27.8125 29.3522 27.8459 29.419C27.9461 29.5193 28.0464 29.5527 28.1467 29.6195C28.1801 29.653 28.2469 29.6864 28.3137 29.6864Z" fill="#FEFEFE"/>
<path d="M28.2468 24.9744C28.2468 25.0413 28.3471 25.1081 28.4473 25.2084C28.4808 25.0413 28.5476 24.9744 28.5476 24.9076C28.5476 24.8408 28.4473 24.8073 28.3805 24.7739C28.3471 24.8742 28.2468 24.941 28.2468 24.9744Z" fill="#FEFEFE"/>
<path d="M28.1132 26.812C28.0798 26.7786 28.1132 26.812 28.1132 26.812C27.9127 26.6783 27.7456 26.6115 27.5451 26.5112C27.5116 26.5781 27.4782 26.6449 27.4782 26.6783C27.4782 26.8454 27.5451 26.9791 27.5451 27.1462C27.5451 27.2799 27.5785 27.4469 27.5117 27.5138C27.3446 27.6809 27.4114 27.848 27.4114 28.0151C27.4114 28.0819 27.4448 28.1153 27.4448 28.1487C27.4782 28.3492 27.6119 28.4829 27.8458 28.4829C28.0798 28.4829 28.18 28.4161 28.1466 28.1822C28.1466 28.1487 28.18 28.0819 28.2134 28.0485C28.3471 27.8814 28.3805 27.7477 28.3137 27.614C28.5142 27.5472 28.5142 27.4469 28.4808 27.213C28.4474 27.0793 28.3805 26.9457 28.3471 26.7786C28.3137 26.7452 28.2803 26.7117 28.2469 26.6783C28.18 26.7117 28.1132 26.7452 28.1132 26.812ZM28.0129 27.3133C27.9127 27.2464 27.8793 27.1462 28.0463 27.0459L28.0798 27.0125C28.0463 27.1128 28.0129 27.213 28.0129 27.3133Z" fill="#FEFEFE"/>
<path d="M27.4113 25.8765C27.3779 25.8765 27.3779 25.9433 27.3445 26.0101C27.4113 26.0101 27.4447 26.0436 27.5116 26.0436C27.545 26.0436 27.5784 25.9767 27.6118 25.8765C27.5116 25.9099 27.4447 25.8765 27.4113 25.8765Z" fill="#FEFEFE"/>
<path d="M28.5477 20.162C28.5811 20.3291 28.6479 20.4627 28.8485 20.3959C29.1492 20.3291 29.4166 20.2288 29.6839 20.1285C29.9178 20.0617 29.9178 19.928 29.8844 19.7275C29.8176 19.527 29.7173 19.4602 29.5168 19.527C29.3831 19.5604 29.2161 19.5939 29.0824 19.6273C28.9487 19.6607 28.7816 19.6941 28.6479 19.7609C28.414 19.8278 28.5143 20.0283 28.5477 20.162Z" fill="#FEFEFE"/>
<path d="M33.2263 41.0486C33.2598 41.1823 33.2598 41.3828 33.4937 41.3159C33.5605 41.2825 33.5605 41.1154 33.594 40.9818C33.4937 40.9149 33.3934 40.7812 33.2932 40.7812C33.1261 40.7812 33.1929 40.9149 33.2263 41.0486Z" fill="#FEFEFE"/>
<path d="M32.8921 42.3853C32.8921 42.5523 32.9589 42.7863 33.0592 42.8197C33.3599 42.9199 33.6941 43.1205 34.0617 42.9868C34.2288 42.9199 34.3959 42.8531 34.5296 43.0536C34.5964 43.1539 34.7635 43.1205 34.7969 43.0202C34.8304 42.686 35.0977 42.5189 35.2314 42.3184C35.3316 42.1513 35.2648 41.7169 35.0977 41.6166C34.9306 41.5498 34.5296 41.7503 34.4962 41.9508C34.4628 42.1513 34.3291 42.1847 34.2288 42.0511C34.0952 41.9174 33.9615 41.9174 33.8278 41.9508C33.6941 41.9842 33.5939 42.0176 33.4602 42.0511C33.3265 42.0845 33.2263 42.1179 33.126 42.1513C33.0258 42.2182 32.8921 42.3184 32.8921 42.3853Z" fill="#FEFEFE"/>
<path d="M41.0461 39.9123C40.9793 40.1462 40.8122 40.2465 40.6451 40.3801C40.6117 40.4135 40.5783 40.4804 40.5783 40.5138C40.5449 40.848 40.5783 41.0485 40.7454 41.1488C41.0127 40.8814 41.2467 40.6475 41.514 40.3801C41.4806 40.213 41.4137 40.0794 41.3469 39.9123C41.2801 39.7786 41.0461 39.7786 41.0461 39.9123Z" fill="#FEFEFE"/>
<path d="M32.7249 43.2877C32.7917 43.1541 32.8251 43.0872 32.8251 42.987C32.8251 42.9536 32.6915 42.8867 32.6581 42.8867C32.5912 42.9201 32.5244 42.987 32.491 43.0538C32.491 43.1206 32.5912 43.1875 32.7249 43.2877Z" fill="#FEFEFE"/>
<path d="M35.2313 35.5344C35.0308 35.5678 34.8637 35.6347 34.6966 35.7015C34.5295 35.7349 34.3624 35.7683 34.1953 35.8686C34.0951 35.902 33.928 36.0023 33.928 36.0691C33.9614 36.2362 33.9948 36.4701 34.1285 36.5704C34.2622 36.6706 34.4293 36.7709 34.5629 36.8712C34.5629 36.9046 34.5629 36.9714 34.5963 37.0717C34.6298 37.3056 34.7634 37.3724 34.9305 37.3056C35.0976 37.2722 35.2647 37.2388 35.2313 37.0382C35.2981 37.0048 35.3984 36.9714 35.4652 36.938C35.5321 36.9046 35.4986 36.6706 35.4986 36.537C35.4652 36.303 35.3316 36.1025 35.4986 35.8352C35.5655 35.6347 35.4318 35.501 35.2313 35.5344Z" fill="#FEFEFE"/>
<path d="M32.7249 38.7428C32.6581 38.7762 32.6247 38.843 32.5244 38.9767C32.6581 39.0101 32.7583 39.077 32.8252 39.077C32.892 39.0435 32.9254 38.9433 32.892 38.843C32.892 38.7762 32.7583 38.7094 32.7249 38.7428Z" fill="#FEFEFE"/>
<path d="M35.4653 38.1411C35.2982 38.1745 35.0977 38.2079 34.9306 38.2748C34.8972 38.2748 34.8972 38.4753 34.9306 38.5087C35.0308 38.5756 35.1311 38.5421 35.2982 38.5756C35.3984 38.5087 35.4987 38.4085 35.5655 38.3082C35.599 38.3082 35.4987 38.1411 35.4653 38.1411Z" fill="#FEFEFE"/>
<path d="M36.2673 40.1128C36.2673 40.2465 36.2339 40.3133 36.2339 40.3801C36.2673 40.4136 36.3341 40.447 36.401 40.4804C36.401 40.4136 36.4344 40.3467 36.4344 40.2799C36.4344 40.1796 36.3676 40.1796 36.2673 40.1128Z" fill="#FEFEFE"/>
<path d="M36.167 44.1561C36.167 44.1896 36.167 44.1896 36.167 44.223C36.2338 44.1896 36.3007 44.1561 36.3675 44.1227C36.3341 44.0893 36.2672 44.1227 36.167 44.1561Z" fill="#FEFEFE"/>
<path d="M35.6657 41.4494C35.5989 41.4494 35.532 41.5497 35.4986 41.5831C35.4986 41.6499 35.532 41.7502 35.532 41.817C35.5989 42.0509 35.7659 42.3183 35.4318 42.5188C35.2981 42.5856 35.4318 42.853 35.5989 42.8196C35.7325 42.8196 35.8996 42.7861 36.0333 42.6859C36.1001 42.6525 36.0667 42.5188 36.1001 42.4185C36.1335 42.3517 36.167 42.3183 36.167 42.2514C36.2004 42.1512 36.2338 42.0175 36.2672 41.9173C36.2338 41.7836 35.7659 41.416 35.6657 41.4494Z" fill="#FEFEFE"/>
<path d="M42.1155 39.4443C42.0152 39.4443 41.8481 39.5112 41.8147 39.6114C41.7479 39.7451 41.7813 39.9122 41.8147 40.0459C41.9484 39.8788 42.1155 39.7117 42.2491 39.5112C42.2157 39.4778 42.1823 39.4443 42.1155 39.4443Z" fill="#FEFEFE"/>
<path d="M29.1493 31.9589C29.1159 31.8252 29.0825 31.6581 29.0156 31.5244C28.9488 31.3907 28.8485 31.3907 28.7483 31.491C28.6814 31.5578 28.6146 31.6915 28.5812 31.6915C28.3807 31.6247 28.1802 31.5578 28.0131 31.4242C27.8126 31.2571 27.4115 31.2571 27.3447 31.491C27.2779 31.7918 27.0774 31.7918 26.8768 31.8586C26.7766 31.892 26.7098 31.9254 26.6429 31.9923C26.5761 32.0591 26.5427 32.126 26.4758 32.1928C26.5427 32.2262 26.6095 32.2596 26.6763 32.2596C26.8434 32.293 27.0439 32.2262 27.211 32.3599C27.2444 32.3933 27.4115 32.293 27.445 32.2262C27.5452 31.9923 27.7457 31.9589 27.9128 31.9923C28.0465 32.0257 28.1802 32.0591 28.2804 32.126C28.3138 32.2262 28.4141 32.3265 28.5143 32.3933C28.5812 32.4267 28.6146 32.4936 28.6814 32.527C28.7817 32.5604 28.8819 32.5938 28.9488 32.5938C28.9822 32.5938 29.0156 32.4601 29.049 32.3599C29.049 32.3265 29.049 32.293 29.049 32.2262C29.1827 32.2596 29.2161 32.1594 29.1493 31.9589Z" fill="#FEFEFE"/>
<path d="M30.9871 39.3777C30.9871 39.4111 31.1541 39.5114 31.1876 39.5114C31.3212 39.4445 31.4549 39.3109 31.5886 39.2106C31.4549 39.1772 31.3547 39.1438 31.1876 39.1104C31.0873 39.2106 30.9871 39.2774 30.9871 39.3777Z" fill="#FEFEFE"/>
<path d="M23.5349 33.2618C23.6686 33.3287 23.7688 33.4289 23.8691 33.4623C24.0028 33.4958 24.1364 33.4289 24.2701 33.3955C24.5375 33.3287 24.8382 33.1281 25.0722 33.4289C25.0722 33.4289 25.2058 33.3621 25.2393 33.2952C25.2727 33.2618 25.2058 33.1616 25.2393 33.0947C25.2393 32.9945 25.2727 32.8942 25.2727 32.794C25.3729 32.8274 25.4732 32.8608 25.54 32.8942C25.7071 32.9611 26.0079 32.8608 26.1081 32.6937C26.2084 32.4932 26.1081 32.3261 25.9076 32.2258C25.8408 32.1924 25.7739 32.1924 25.7405 32.1256C25.5066 31.8917 25.4732 31.9251 25.2058 32.0922C25.0053 32.2258 25.0722 32.3595 25.0722 32.5266C25.0722 32.7605 25.0053 32.8274 24.8048 32.7271C24.6043 32.6269 24.4372 32.56 24.2367 32.4932C24.2033 32.4932 24.1364 32.4932 24.1364 32.5266C23.9694 32.6603 23.8023 32.794 23.6686 32.9611C23.6017 32.9945 23.6017 33.0947 23.5349 33.2618Z" fill="#FEFEFE"/>
<path d="M23.8357 31.4575C23.8357 31.5578 23.8022 31.6246 23.8022 31.658C23.8022 31.6914 23.8691 31.6914 23.9025 31.7249C23.9359 31.658 23.9693 31.6246 23.9693 31.5578C23.9693 31.5244 23.9025 31.4909 23.8357 31.4575Z" fill="#FEFEFE"/>
<path d="M24.9385 31.4241C25.0054 31.4241 25.0054 31.3238 25.0722 31.257C25.0054 31.2236 24.9385 31.1567 24.9051 31.1567C24.8383 31.1567 24.8049 31.257 24.738 31.3238C24.8049 31.3573 24.8717 31.4241 24.9385 31.4241Z" fill="#FEFEFE"/>
<path d="M32.09 44.5573C32.09 44.5239 31.9898 44.457 31.9564 44.457C31.7559 44.4904 31.8561 44.6575 31.8561 44.7578C31.9898 44.7578 32.1235 44.7578 32.09 44.5573Z" fill="#FEFEFE"/>
<path d="M31.856 44.7915C31.7223 44.8249 31.5886 44.8583 31.455 44.8918C31.3881 44.9252 31.3213 44.992 31.3213 45.0589C31.3213 45.1925 31.3213 45.3596 31.3881 45.4933C31.5886 45.4599 31.8226 45.4599 32.0231 45.4265C31.9562 45.1925 31.8894 44.992 31.856 44.7915Z" fill="#FEFEFE"/>
<path d="M24.972 30.2879C25.0054 30.2544 25.0722 30.1542 25.0388 30.1208C25.0054 30.0873 24.9051 30.0205 24.8717 30.0205C24.8383 30.0205 24.8049 30.1208 24.738 30.221C24.8383 30.2879 24.9051 30.3213 24.972 30.2879Z" fill="#FEFEFE"/>
<path d="M31.3884 47.3647C31.3884 47.3313 31.4218 47.3313 31.4218 47.2979C31.3884 47.2979 31.355 47.2979 31.355 47.2979C31.355 47.3313 31.355 47.3647 31.3884 47.3647Z" fill="#FEFEFE"/>
<path d="M34.6968 13.0104C34.8973 13.0772 35.0978 13.1441 35.2983 13.2109C35.3317 13.1107 35.3651 13.0438 35.3986 12.977C35.2983 12.9436 35.1646 12.9102 35.0644 12.9102C34.9307 12.9436 34.8305 12.977 34.6968 13.0104Z" fill="#FEFEFE"/>
<path d="M38.3058 45.3597C38.3058 45.2594 38.3392 45.1926 38.406 45.1592C38.1387 45.3263 37.8379 45.4599 37.5706 45.5936C37.6374 45.627 37.6708 45.6605 37.7376 45.6939C37.8713 45.8275 38.2723 45.5602 38.3058 45.3597Z" fill="#FEFEFE"/>
<path d="M36.8021 45.9945C36.9024 45.961 37.0361 45.9276 37.1029 45.8274C37.1029 45.8274 37.1029 45.8274 37.1029 45.7939C36.9692 45.8608 36.8021 45.9276 36.6685 45.9945C36.7019 46.0279 36.7687 46.0279 36.8021 45.9945Z" fill="#FEFEFE"/>
<path d="M45.2903 38.1745C45.3905 38.2079 45.4574 38.2748 45.4574 38.3416C45.4574 38.1745 45.4574 38.0074 45.4574 37.8403C45.3905 37.9406 45.3571 38.0743 45.2903 38.1745Z" fill="#FEFEFE"/>
<path d="M15.8482 15.8839C15.9151 16.0844 15.748 16.1179 15.6143 16.1513C15.5475 16.1847 15.4472 16.1847 15.3804 16.2181C13.4087 18.3235 11.9048 20.8299 10.9691 23.637C11.0026 23.637 11.036 23.6704 11.0694 23.6704C11.036 23.7038 11.0026 23.7373 11.0026 23.7373C11.4704 23.9712 11.2031 24.4056 11.2699 24.7732C11.2699 24.8066 11.1028 24.9403 11.036 24.9403C10.9023 24.9403 10.7686 24.8066 10.7018 24.6396C10.2673 26.1768 10.0334 27.7809 10 29.4518C10.0334 29.4852 10.0334 29.5186 10.0668 29.5521C10.1003 29.6857 10.1003 29.8194 10.1337 29.9531C10.1003 29.9531 10.0334 29.9197 10 29.9197C10 30.9222 10.0668 31.8913 10.2339 32.8271C10.2339 32.8271 10.2339 32.8271 10.2673 32.8271C10.401 32.8939 10.401 33.0276 10.3008 33.1278C10.5347 34.6317 10.9691 36.0686 11.5372 37.4388C11.6041 37.4722 11.6375 37.5391 11.7043 37.6059C11.838 37.773 12.1388 37.372 12.1388 37.7396C12.1388 37.9067 12.0719 38.0738 12.1722 38.2408C12.2056 38.2743 12.1722 38.3745 12.1388 38.4079C12.1054 38.4414 12.0719 38.4748 12.0385 38.5082C12.1722 38.7755 12.3059 39.0095 12.4061 39.2434C12.6401 39.0095 12.8071 38.9426 12.9742 39.1766C13.1079 39.3437 13.0745 39.4439 12.8406 39.5107C12.7737 39.5442 12.7069 39.5442 12.6401 39.5442C12.6066 39.5442 12.5732 39.5442 12.5398 39.5442C12.7737 39.9786 13.0411 40.3796 13.3084 40.7806C13.4755 40.8475 13.5424 40.9812 13.5758 41.1148C13.6426 41.048 13.676 40.9812 13.7429 40.9477C13.7763 40.9143 13.8431 40.9143 13.9768 40.8475C14.0102 40.8475 14.1439 40.8809 14.2441 40.9477C14.2776 40.9812 14.311 41.1482 14.2776 41.1817C14.2107 41.2485 14.077 41.2819 13.9768 41.3153C13.91 41.3488 13.8431 41.3153 13.7763 41.3153C13.7094 41.2819 13.6426 41.2485 13.5758 41.1817C13.5758 41.1817 13.5758 41.1817 13.5758 41.2151C15.2467 43.6212 17.4523 45.6597 20.0255 47.1301C20.0924 47.1301 20.1592 47.1636 20.226 47.197V47.2304C21.0281 47.6983 21.8635 48.0993 22.7658 48.4335C22.7992 48.3332 22.8661 48.2664 22.9329 48.1995C22.9663 48.1661 23.0332 48.1327 23.0666 48.1327C23.4008 48.1995 23.7015 48.2998 24.1026 48.4C24.1026 48.6006 24.1026 48.7342 24.1026 48.8679C24.1026 48.8679 24.1026 48.8679 24.1026 48.9013C25.4059 49.3023 26.7426 49.5697 28.1462 49.7034C28.213 49.6031 28.2799 49.5363 28.3801 49.5028C28.4804 49.4694 28.6475 49.6031 28.7477 49.6699C28.7477 49.7034 28.7811 49.7368 28.7811 49.7702C29.1822 49.8036 29.5832 49.8036 29.9842 49.8036C33.6937 49.8036 37.1692 48.7676 40.1768 46.9965C40.0766 46.8962 40.0431 46.7625 40.0766 46.6289C40.0766 46.562 40.1768 46.4952 40.2102 46.4952C40.6113 46.3615 41.0457 46.2613 41.4801 46.161H41.5136C41.8143 45.9605 42.0817 45.76 42.349 45.5261C42.2153 45.5595 42.1151 45.5929 41.9814 45.6263C41.6806 45.6931 41.4133 45.76 41.1125 45.8602C40.8786 45.9271 40.6781 46.0273 40.511 45.76C40.3773 45.5929 39.9429 45.76 39.8761 45.9939C39.8426 46.1944 39.7424 46.2613 39.5753 46.2947C39.3079 46.3615 39.074 46.4284 38.8067 46.4952C38.5727 46.562 38.3722 46.6623 38.1717 46.3949C38.1383 46.3281 37.9378 46.3281 37.8375 46.3615C37.3028 46.4952 36.7681 46.5954 36.2334 46.7625C36.1332 46.796 36.0329 46.8962 35.9661 46.9965C35.7656 47.3641 35.1975 47.4977 34.8299 47.2638C34.6628 47.1636 34.5291 47.197 34.4957 47.3641C34.4623 47.598 34.2952 47.598 34.1281 47.6648C33.9276 47.7317 33.8273 47.6648 33.6936 47.5312C33.5266 47.3641 33.0253 47.4977 32.9584 47.7317C32.8916 48.0659 32.5908 48.0324 32.3903 48.0993C32.1898 48.1661 31.9559 48.2998 31.7888 47.999C31.7554 47.9656 31.6551 47.9656 31.5883 47.9322C31.5549 48.0324 31.488 48.0993 31.3878 48.1995C31.1539 48.4335 31.0202 48.5337 30.8865 48.5003C30.8197 48.5671 30.686 48.5671 30.4855 48.634C30.1513 48.9013 29.9174 48.3666 29.5832 48.3666C29.5832 48.2664 29.5832 48.1327 29.6166 48.0993C29.8171 47.9322 30.051 47.8653 30.285 47.8653C30.2516 47.7651 30.2181 47.6983 30.2516 47.6648C30.285 47.6314 30.285 47.6314 30.3184 47.598C30.2181 47.598 30.0845 47.598 29.9842 47.598C28.8814 47.598 27.812 47.4977 26.776 47.2972C26.8095 47.3975 26.8095 47.4977 26.8095 47.598C26.8095 47.6648 26.776 47.7985 26.7426 47.8319C26.6758 47.8653 26.5421 47.8653 26.5087 47.7985C26.3082 47.5646 26.1077 47.3307 25.9406 47.0967C25.0383 46.8962 24.1694 46.5954 23.3339 46.2613C23.3339 46.3615 23.3339 46.4284 23.3339 46.4952C23.3339 46.562 23.2671 46.6289 23.2671 46.6957C23.2003 46.6623 23.1334 46.6289 23.1 46.562C23.0332 46.4952 22.9998 46.4284 22.9998 46.3615C22.9663 46.2613 22.9663 46.161 22.9998 46.0942C21.7633 45.5595 20.5936 44.8577 19.5242 44.0556C19.424 44.1559 19.3237 44.2227 19.1901 44.323C19.1232 44.3564 18.9561 44.3564 18.8893 44.323C18.8225 44.2896 18.789 44.0891 18.8225 44.0556C18.9561 43.8551 18.789 43.7215 18.7556 43.5544C18.6888 43.3539 18.5217 43.3873 18.3212 43.3873C18.1207 43.3539 17.9202 43.1868 17.7865 43.0197C17.7531 42.9863 17.8199 42.8526 17.8867 42.7189C17.4857 42.3513 17.1181 41.9503 16.7505 41.5159C16.6503 41.5159 16.5834 41.5159 16.5834 41.4824C16.55 41.4156 16.55 41.3488 16.55 41.2485C16.2158 40.8475 15.9151 40.4465 15.6143 40.012C15.4138 40.012 15.2133 39.9786 15.0796 39.7781C15.0462 39.6778 15.0128 39.5776 14.9793 39.4439C14.9459 39.4439 14.8791 39.4439 14.8457 39.4105C14.8791 39.3771 14.9125 39.3437 14.9459 39.3102C14.9125 39.0763 14.8123 38.9426 14.5783 38.8758C14.2107 38.809 14.0436 38.5416 13.9768 38.174C13.9434 38.174 13.8765 38.174 13.8431 38.174C13.7763 38.174 13.676 38.0069 13.6426 37.9735C13.6426 37.8064 13.6092 37.7396 13.6092 37.6393C13.6092 37.6059 13.7094 37.5056 13.7429 37.5391C13.7094 37.4388 13.7094 37.372 13.8097 37.2717C13.8765 37.2383 13.91 37.1715 13.9768 37.1046C13.7429 36.5699 13.5424 36.0352 13.3418 35.4671C13.1747 35.5674 13.0411 35.5005 12.9074 35.3669C12.7403 35.5005 12.6066 35.6342 12.4395 35.7345C12.3727 35.7679 12.239 35.7345 12.1388 35.7345C12.1388 35.6342 12.1388 35.5005 12.2056 35.4337C12.4395 35.1663 12.6066 35.1329 12.9074 35.3334C13.0077 35.2332 13.1079 35.1663 13.2082 35.0661C12.5732 33.3283 12.3059 31.624 12.3059 29.8528C12.3059 28.8169 12.4061 27.8477 12.5732 26.8452C12.5732 26.8452 12.5732 26.8452 12.5398 26.8117C12.473 26.7449 12.4061 26.5778 12.4395 26.511C12.5064 26.4441 12.5732 26.3773 12.6401 26.3105C13.0077 24.5059 13.6426 22.8015 14.5115 21.2643C14.1773 21.3311 14.0436 21.2643 13.9768 20.9635C13.91 20.6628 13.9434 20.6293 14.3444 20.4957C14.5115 20.4622 14.6117 20.4288 14.6786 20.4622C14.6786 20.3954 14.712 20.362 14.8123 20.362C14.8791 20.362 14.9459 20.362 15.0128 20.4288C15.8816 19.0253 16.9844 17.7554 18.1875 16.686C17.9536 16.7194 17.7197 16.7194 17.5191 16.7528C17.4523 16.7528 17.3855 16.6191 17.2852 16.5189C17.352 16.3852 17.3855 16.2515 17.4523 16.1847C17.4857 16.1513 17.6528 16.2515 17.7531 16.2849C17.8199 16.3184 17.8867 16.3852 17.9536 16.4186C17.987 16.3184 18.0204 16.2515 18.0204 16.1513C18.0873 15.9508 18.3546 15.8171 18.6219 15.8505C18.789 15.8839 18.8225 15.9842 18.8559 16.1179C18.9896 16.0176 19.0898 15.9173 19.2235 15.8505C19.2235 15.7837 19.2903 15.7168 19.3572 15.6834C19.4574 15.6166 19.5911 15.5832 19.6913 15.5163C19.9921 15.2824 20.3263 15.0819 20.6605 14.8814H20.6271C20.2594 14.9482 20.1592 14.8814 20.1258 14.5472C20.0924 14.3467 20.1592 14.2464 20.3263 14.213C20.5602 14.1462 20.7941 14.1128 20.9947 14.0459C21.1283 14.0125 21.2954 14.0125 21.3957 13.9457C21.6964 13.7786 21.9304 13.9122 22.1643 14.0793C24.5036 12.9431 27.1102 12.3082 29.8505 12.3082C30.6192 12.3082 31.3878 12.375 32.123 12.4752C32.4238 12.3416 32.7245 12.2747 33.0587 12.3082C33.0587 12.2747 33.0587 12.2747 33.0587 12.2413C33.0587 12.2079 33.1255 12.1745 33.2592 12.0742C33.2258 12.1076 33.2926 12.0074 33.3595 12.0074C33.4263 11.974 33.56 11.974 33.6268 12.0074C33.6602 12.0408 33.6602 12.1745 33.6268 12.2413C33.5934 12.3082 33.56 12.3416 33.5266 12.4084C33.56 12.4084 33.5934 12.4418 33.6268 12.4418C33.6937 12.4752 33.7605 12.6089 33.7939 12.6758V12.7092C33.9276 12.7426 34.0947 12.776 34.2283 12.8094C34.2283 12.8094 34.2283 12.8094 34.2283 12.776C33.9944 12.375 34.0278 12.2747 34.4957 12.1076C34.763 12.0074 35.1306 12.0408 35.2643 11.7066C35.2309 11.7066 35.3646 11.7066 35.4982 11.6398C35.4648 11.6398 35.4314 11.6064 35.398 11.6064C35.2977 11.5395 35.1975 11.4059 35.0972 11.3056C35.0304 11.2388 34.997 11.1719 34.9301 11.1051V11.1385C34.9301 11.2053 34.8967 11.2722 34.8633 11.3056C34.7965 11.3056 34.6962 11.3056 34.6962 11.3056C34.6294 11.1385 34.5959 10.938 34.5625 10.7375C34.5625 10.7041 34.6962 10.6372 34.6962 10.6372C34.763 10.7041 34.8299 10.7709 34.8633 10.8377C34.8633 10.8043 34.8633 10.7709 34.8967 10.7709C34.9301 10.7375 35.0972 10.7041 35.1306 10.7375C35.3312 10.938 35.5317 11.1385 35.7322 11.339C35.7656 11.4059 35.7656 11.573 35.6988 11.6064C35.6988 11.6064 35.6653 11.6398 35.6319 11.6398C35.8658 11.7066 36.0998 11.74 36.3337 11.8737C36.4674 11.9406 36.4674 12.1411 36.4005 12.3416C36.434 12.3416 36.4674 12.3416 36.5342 12.375C36.6679 12.4084 36.9018 12.375 36.9687 12.4418C37.0355 12.5421 36.9687 12.7426 36.9352 12.8763C36.9018 13.0099 36.9018 13.1436 36.8684 13.2773C36.7347 13.3107 36.6345 13.3441 36.5342 13.3775C36.5008 13.3107 36.5008 13.2105 36.4674 13.1102C36.434 12.9097 36.3671 12.7426 36.0998 12.8429C36.0329 12.8763 35.9661 12.8429 35.8658 12.8094C35.799 12.8763 35.799 13.0099 35.8324 13.2439C35.8324 13.2773 35.8324 13.3441 35.799 13.3775C36.3337 13.5781 36.835 13.7786 37.3697 14.0459C37.4031 14.0459 37.4365 14.0459 37.4365 14.0459C37.5368 14.0459 37.637 14.1128 37.7039 14.0793C37.9044 13.9791 38.038 14.1128 38.1383 14.2464C38.2051 14.3467 38.272 14.4135 38.3388 14.5138C38.4056 14.4804 38.5059 14.4804 38.5727 14.4469C38.8067 14.3801 39.0406 14.3467 39.2411 14.2798C39.475 14.213 39.6755 14.1128 39.8761 14.4135C39.9429 14.4804 40.1768 14.4135 40.3439 14.4135C40.3773 14.4135 40.4107 14.4469 40.4442 14.4469C40.7115 14.3133 40.8118 14.3801 40.8452 14.6809C40.8786 14.8814 40.912 15.0485 40.9454 15.249C40.9454 15.3492 40.9789 15.4495 40.912 15.5163C40.7449 15.9173 40.5778 15.9508 40.2437 15.6166C40.2102 15.5832 40.1434 15.5163 40.11 15.4829C40.0431 15.4161 39.9763 15.3158 39.9095 15.2156C39.8092 15.1153 39.8092 15.015 39.8761 14.9148C39.6421 14.9816 39.4416 15.0819 39.2411 15.1487C39.8426 15.5497 40.4107 15.9508 40.9789 16.4186C40.912 16.3184 40.8786 16.1513 40.912 16.1179C41.0457 15.9842 41.2462 15.7837 41.4133 15.7837C41.7141 15.7837 42.0482 15.8505 42.2822 16.1179C42.4159 16.2515 42.4493 16.3852 42.3156 16.5189C42.2488 16.5857 42.2153 16.6191 42.1485 16.686C42.0148 16.8196 41.9146 16.9533 42.0817 17.1204C42.2153 17.2541 42.3156 17.488 42.5829 17.3209C42.6832 17.2541 42.7835 17.2207 42.8837 17.1872C43.0508 17.1538 43.1511 17.1872 43.1176 17.3543C43.1176 17.4212 43.0842 17.5214 43.1176 17.5883C43.1511 17.8556 43.0508 18.0895 42.8503 18.1564C43.0174 18.3569 43.2179 18.5574 43.385 18.7579C43.4184 18.7245 43.4852 18.6577 43.5855 18.6242C43.6189 18.5908 43.6858 18.5908 43.7192 18.5908C43.9531 18.5908 44.4878 19.2926 44.421 19.5265C44.3875 19.6602 44.3207 19.8273 44.2539 19.961C44.3875 20.1281 44.4878 20.3286 44.5881 20.4957C44.6549 20.3286 44.7551 20.2283 44.9222 20.1949C45.0559 20.1949 45.1896 20.2952 45.2898 20.3954C45.4903 20.5625 45.3567 20.7296 45.223 20.8967C45.1896 20.9301 45.1227 20.9969 45.0893 21.0304C45.0559 21.0638 45.0225 21.0972 44.9557 21.0972C45.6574 22.3337 46.2256 23.637 46.6266 25.0072C46.6934 25.0406 46.7602 25.074 46.8271 25.1074C46.8939 25.1408 46.9942 25.074 47.061 25.1074C47.1613 25.1408 47.2949 25.1408 47.3618 25.2077C47.4286 25.3079 47.5289 25.4082 47.5957 25.5084C47.6291 25.475 47.6625 25.475 47.6625 25.475C47.9967 25.4082 48.1638 25.5084 48.2307 25.7758C48.2641 25.9094 48.2307 26.0431 48.1304 26.1434C48.2975 26.3439 48.498 26.5444 48.6651 26.7783C48.7319 26.8786 48.7988 26.9788 48.8322 27.0791C48.8656 27.1459 48.8656 27.2796 48.8322 27.3464C48.7988 27.3799 48.6985 27.3799 48.6317 27.3799C48.1638 27.3799 47.7962 27.2128 47.6625 26.8786C47.5289 26.7115 47.4286 26.6112 47.3618 26.511C47.2281 26.3773 47.1613 26.2436 47.2615 26.0431C47.3618 25.876 47.2615 25.7089 47.0944 25.7758C47.0276 25.8092 46.9608 25.8092 46.8939 25.8092C47.0944 26.6447 47.2281 27.4801 47.2949 28.349C47.3284 28.349 47.3952 28.3824 47.4286 28.4492C47.5957 28.6832 47.7628 28.8837 47.8965 29.151C47.8965 29.0174 47.8965 28.8503 47.9633 28.75C48.0301 28.6498 48.097 28.5161 48.1304 28.4158C48.1972 28.2153 48.3977 28.1485 48.498 28.3156C48.6317 28.6163 48.8322 28.5161 49.0327 28.4827C49.0661 28.4827 49.0995 28.4827 49.0995 28.4492C49.0661 28.4158 49.0661 28.3824 49.0661 28.3824C49.0661 28.349 49.1664 28.2487 49.1998 28.2487C49.3335 28.2822 49.4671 28.2487 49.6008 28.2487C49.534 27.4801 49.4337 26.7115 49.2666 25.9429C49.1998 25.876 49.0661 25.8092 49.0661 25.7424C49.0661 25.6087 49.0995 25.4416 49.133 25.3079C48.0301 20.7296 45.3567 16.7528 41.7141 14.0125C41.8143 14.3133 41.8477 14.5138 41.4467 14.5472C41.3465 14.5472 41.2462 14.5806 41.1794 14.5806C41.0123 14.5472 40.9789 14.4469 41.0457 14.3133C41.1125 14.1796 41.2128 14.0125 41.313 13.8788C41.3465 13.812 41.4133 13.7786 41.4801 13.7786C40.3439 12.9097 39.1074 12.2079 37.8041 11.6398C37.7039 11.8737 37.5033 11.974 37.1023 12.0074C36.7681 12.0408 36.6679 11.974 36.7013 11.6398C36.7013 11.5061 36.7681 11.339 36.8684 11.3056C36.9018 11.3056 36.9018 11.2722 36.9352 11.2722C36.6679 11.1719 36.434 11.0717 36.1666 11.0048C36.1332 11.0048 36.1332 11.0048 36.0998 11.0383C35.9327 11.1051 35.7656 11.1051 35.6988 10.8712C35.2643 10.7375 34.7965 10.6038 34.362 10.5036C34.362 10.537 34.362 10.537 34.362 10.5704C34.362 10.5704 34.2283 10.6707 34.1949 10.6707C34.0947 10.6038 34.0278 10.5036 33.9276 10.4367C32.5908 10.1694 31.2541 10.0023 29.8505 10.0023C27.7118 9.96887 25.6732 10.3031 23.7684 10.938C23.8352 10.9714 23.9021 11.0383 23.9689 11.1385C24.1694 11.3724 24.136 11.4393 23.8686 11.6732C23.6013 11.9071 23.501 11.9071 23.2337 11.6064C23.0332 11.3724 22.9998 11.2722 23.2003 11.1051C20.3597 12.1076 17.8199 13.7451 15.748 15.8171C15.8148 15.8505 15.8482 15.8839 15.8482 15.8839ZM38.9069 46.7625C39.0072 46.8628 39.1074 46.9631 39.1743 47.0633C39.2411 47.197 39.2745 47.3641 39.074 47.3975C38.9738 47.4309 38.8735 47.2972 38.7064 47.2304C38.8067 47.0633 38.8401 46.8962 38.9069 46.7625ZM35.4648 47.9656C35.6653 47.8988 35.8658 47.9322 36.0998 47.8988C36.0998 47.9656 36.1332 48.0324 36.0998 48.0993C36.0329 48.1995 35.9327 48.2998 35.8324 48.4C35.7656 48.4669 35.6988 48.5337 35.6319 48.6006C35.5651 48.5337 35.4648 48.4335 35.3646 48.3332C35.398 48.1995 35.398 47.9656 35.4648 47.9656ZM31.3544 48.3666C31.488 48.2664 32.1898 48.2998 32.2232 48.4335C32.2232 48.5671 32.2567 48.7008 32.2232 48.8011C32.4572 48.7342 32.6577 48.6674 32.8916 48.634C33.0921 48.5671 33.1924 48.7008 33.2592 48.9013C33.2926 49.1018 33.326 49.2689 33.0921 49.3692C32.9919 49.4026 32.925 49.436 32.7914 49.4694C32.5574 49.4694 32.2901 49.5697 32.0896 49.3023C32.0896 49.2689 32.0561 49.2689 32.0227 49.2689C31.8891 49.3023 31.6885 49.3023 31.5549 49.3023C31.4212 49.3023 31.3209 49.1352 31.2875 49.1018C30.9868 48.7008 31.0202 48.6006 31.3544 48.3666ZM25.339 47.999C25.339 47.7651 25.573 47.5646 25.8069 47.6648C25.8403 47.6648 25.8737 47.8319 25.8403 47.8653C25.6732 48.1995 25.6732 48.1661 25.974 48.4C26.2413 48.6006 26.4419 48.634 26.7426 48.5003C26.9431 48.4 27.2105 48.3666 27.4444 48.6006C27.4778 48.6674 27.6115 48.6674 27.6783 48.6674C27.7118 48.6006 27.7452 48.5003 27.7452 48.4335C27.7786 47.9656 27.8454 47.8988 28.1462 47.7985C28.5806 47.6983 29.0151 48.0659 28.9482 48.5003C28.9148 48.7008 28.8146 48.7676 28.6809 48.8011C28.3467 48.9013 28.0125 48.9682 27.6783 49.0684C27.4444 49.1352 27.2105 49.2021 26.9431 49.2355C26.7092 49.3023 26.4419 49.436 26.2413 49.1352C26.2079 49.1018 26.0743 49.1018 25.974 49.1352C25.8069 49.1687 25.6732 49.2021 25.5061 49.2021C25.4059 49.2021 25.2722 49.1687 25.172 49.1352C25.2054 49.035 25.2722 48.9347 25.3056 48.8345C25.339 48.7342 25.339 48.634 25.339 48.5337C25.3725 48.3666 25.339 48.1995 25.339 47.999ZM24.9714 47.5312C25.0049 47.4977 25.0717 47.5312 25.2388 47.5312C25.2054 47.598 25.172 47.6983 25.1385 47.6983C25.0717 47.7317 25.0049 47.6983 24.938 47.6648C24.938 47.6648 24.9714 47.5646 24.9714 47.5312ZM22.0306 46.7625C22.064 46.7291 22.1309 46.6957 22.1977 46.6623C22.3648 46.5954 22.4985 46.7291 22.4316 46.8294C22.298 47.1301 22.4316 47.2638 22.5987 47.4643C22.699 47.598 22.7992 47.7317 22.5987 47.8653C22.3982 47.9656 22.3314 47.8319 22.2311 47.6983C22.1643 47.5646 22.064 47.4643 21.9638 47.3641C21.6964 47.0967 21.6964 47.0299 22.0306 46.7625ZM20.3263 45.0248C20.46 45.0916 20.5936 45.0916 20.5936 45.125C20.6271 45.1919 20.5602 45.2921 20.5268 45.359C20.4934 45.3924 20.3597 45.359 20.3263 45.3256C20.2929 45.2587 20.3263 45.1585 20.3263 45.0248ZM15.514 40.4799C15.5475 40.4799 15.6811 40.5467 15.6811 40.5801C15.6811 40.647 15.6143 40.7472 15.5809 40.7806C15.5475 40.8141 15.4472 40.7472 15.3469 40.7138C15.4138 40.5801 15.4472 40.5133 15.514 40.4799ZM14.8457 41.6495C14.8457 41.5827 14.8791 41.5159 14.9459 41.5159C14.9793 41.5159 15.0462 41.5493 15.0796 41.5827C15.113 41.6161 15.1464 41.6829 15.1464 41.7498C15.1464 41.8835 15.113 41.9837 15.113 42.1174C15.0128 42.0171 14.9459 41.9503 14.9125 41.8835C14.8791 41.7498 14.8457 41.6829 14.8457 41.6495ZM12.473 36.4697C12.5398 36.4363 12.6735 36.4697 12.7737 36.4697C12.7737 36.5699 12.8071 36.7036 12.7403 36.7704C12.7069 36.8373 12.5732 36.8039 12.3727 36.8373C12.4395 36.6368 12.4395 36.5031 12.473 36.4697ZM11.5707 34.6985C11.4036 34.7653 11.3033 34.8322 11.1696 34.899C11.1028 34.9324 10.9691 34.899 10.9691 34.899C10.9357 34.6651 10.8355 34.3977 10.9023 34.1972C10.9357 33.9967 11.1362 33.9633 11.3367 34.097L11.3702 34.1304C11.5038 34.1972 11.7712 33.9633 11.8046 34.2306C11.8046 34.3309 11.6375 34.5314 11.5707 34.6985ZM11.8046 25.3413C11.7712 25.3079 11.8046 25.1742 11.8046 25.074C11.9048 25.074 12.0051 25.1074 12.1388 25.1074C12.1722 25.2745 12.2056 25.3748 12.2056 25.5084C12.0719 25.4416 11.9048 25.4082 11.8046 25.3413ZM12.9408 24.1383C12.7737 24.1717 12.5732 24.2385 12.4061 24.2719V24.2385C12.2725 24.2719 12.1722 24.3054 12.0385 24.3388C11.7043 24.4056 11.6041 24.3388 11.5372 23.9712C11.5038 23.8041 11.5372 23.7038 11.7043 23.637C12.0719 23.5367 12.4395 23.4699 12.8071 23.3696C13.0745 23.3028 13.1079 23.5367 13.1413 23.7038C13.1747 23.9043 13.1747 24.0714 12.9408 24.1383ZM46.1587 20.763C46.2256 20.763 46.3592 20.8299 46.3926 20.9301C46.5263 21.0972 46.5932 21.2977 46.7602 21.4314C47.1947 21.7321 46.9608 22.1332 46.9942 22.5008C46.9942 22.5676 46.8939 22.6344 46.8271 22.7013C46.9608 22.8015 47.061 22.9352 47.2615 22.835C47.3618 22.8015 47.5623 22.8684 47.6291 22.9352C47.7962 23.1023 47.8965 23.3362 48.0301 23.5367C48.1638 23.7707 47.9633 23.8709 47.8296 24.0046C47.696 24.1383 47.5623 24.1383 47.4286 24.0046C47.1947 23.7373 46.9942 23.5033 46.7602 23.236C46.5597 23.002 46.5932 22.835 46.8271 22.7013C46.7268 22.6344 46.5932 22.5008 46.5263 22.5342C46.2256 22.6679 46.1253 22.4674 45.9916 22.3003C45.8914 22.2 45.8245 22.0663 45.7243 21.9661C45.3901 21.5316 45.624 20.8633 46.1587 20.763ZM42.75 15.6834C42.984 15.4829 43.0842 15.7168 43.2847 15.8839C43.2847 15.9842 43.3181 16.1513 43.2513 16.2181C43.0508 16.4186 42.9171 16.2181 42.7835 16.0844C42.6832 15.9842 42.5829 15.8171 42.75 15.6834ZM39.1074 13.4778C39.3414 13.2773 39.4416 13.3107 39.7424 13.6115C39.8761 13.7451 39.9429 13.9122 39.7424 14.0459C39.475 14.2464 39.2745 14.2464 39.074 14.0125C38.8401 13.7786 38.8401 13.6783 39.1074 13.4778ZM38.673 12.4418C38.7398 12.5421 38.7064 12.6423 38.7064 12.7426C38.6062 12.7426 38.5059 12.776 38.4725 12.7092C38.4056 12.6423 38.4056 12.5421 38.3722 12.375C38.5393 12.4084 38.6396 12.4084 38.673 12.4418ZM37.4031 13.6115C37.4699 13.6115 37.5368 13.6783 37.6036 13.7117C37.5702 13.7786 37.5368 13.8788 37.5033 13.9122C37.4365 13.9457 37.3697 13.8788 37.236 13.8454C37.3028 13.7451 37.3697 13.6115 37.4031 13.6115ZM33.3595 11.3056V11.339C33.326 11.4393 33.326 11.5395 33.2926 11.6398C33.2592 11.6398 33.1924 11.6398 33.1924 11.6064C33.0921 11.4059 33.2258 11.3724 33.3595 11.3056ZM31.2207 10.6707C31.4212 10.6372 31.5883 10.6038 31.7888 10.5704C31.8222 10.5704 31.8556 10.5704 31.9225 10.6038C31.9559 10.5704 31.9893 10.5704 32.0227 10.537C32.0227 10.537 32.0227 10.5036 32.0561 10.5036C32.1564 10.537 32.2901 10.537 32.3235 10.6038C32.4237 10.7041 32.3569 11.339 32.2567 11.339C32.1564 11.3724 32.0227 11.3056 31.9893 11.3056C31.8222 11.1051 31.7554 10.9714 31.7554 10.8377C31.6885 10.8712 31.5883 10.938 31.488 10.9714C31.4212 11.0048 31.3544 11.0383 31.3209 11.1051C31.2541 11.2053 31.1873 11.2722 31.1539 11.3724C31.087 11.3056 31.0202 11.1719 30.9868 11.1385C30.8865 10.7375 30.8865 10.7041 31.2207 10.6707ZM28.9148 11.2388C28.9817 11.2053 29.0485 11.1719 29.0819 11.1719C29.1822 11.2053 29.2824 11.2722 29.3827 11.3056C29.3493 11.4059 29.2824 11.4727 29.249 11.573C29.2156 11.6064 29.1487 11.6064 28.9817 11.6732C28.9148 11.6398 28.7477 11.6064 28.6809 11.5395C28.5806 11.3724 28.7811 11.3056 28.9148 11.2388ZM24.0357 12.5421C24.1694 12.4418 24.2362 12.375 24.3031 12.375C24.3699 12.375 24.4702 12.375 24.5036 12.4084C24.537 12.4418 24.537 12.5421 24.5036 12.6089C24.4702 12.6758 24.4033 12.7426 24.3365 12.776C24.2362 12.8428 24.1026 13.0099 24.0023 12.8429C23.9355 12.776 24.0023 12.6089 24.0357 12.5421ZM19.9921 12.8763C20.1592 12.8094 20.5602 13.1436 20.5268 13.3107C20.4934 13.3775 20.3931 13.5112 20.3597 13.5112C20.2594 13.5112 20.1592 13.4444 20.0924 13.411C19.9921 13.2773 19.9253 13.2105 19.9253 13.1102C19.8584 13.0099 19.9253 12.9097 19.9921 12.8763ZM18.8559 14.614C19.1901 14.5472 19.2569 14.5806 19.3237 14.848C19.3906 15.1487 19.3572 15.2156 19.0564 15.2824C18.7556 15.3492 18.6888 15.3158 18.6219 15.0485C18.5217 14.7477 18.5551 14.6809 18.8559 14.614Z" fill="#FEFEFE"/>
<path d="M44.856 42.8865C44.8225 42.8865 44.7891 42.8865 44.7223 42.8865C44.4884 42.9199 44.3881 42.8531 44.4884 42.5857C44.5218 42.4855 44.4884 42.3852 44.4884 42.285C44.4884 42.2181 44.4884 42.1513 44.5218 42.051C44.622 42.051 44.6555 42.0176 44.7223 42.0176C44.856 42.0176 44.9896 42.051 45.1233 42.0845C45.2904 42.0845 45.3907 42.1847 45.3238 42.3184C45.7248 41.8171 46.1259 41.2824 46.4935 40.7143C46.3264 40.7811 46.1593 40.7477 45.9588 40.6475C45.8585 40.5806 45.6914 40.5138 45.5912 40.5138C45.3238 40.5138 45.1901 40.3801 45.1233 40.1462C45.0899 40.0459 45.1233 39.8788 45.1567 39.8454C45.257 39.812 45.4241 39.7786 45.4909 39.8454C45.6914 40.0793 45.8251 40.1128 45.9254 39.7786C45.9922 39.5781 46.694 39.3441 46.8945 39.4444C46.9613 39.4778 47.0282 39.6115 47.1284 39.7452C47.1284 39.7452 47.1284 39.7452 47.1284 39.7786C47.5294 39.0768 47.897 38.3416 48.2312 37.6064C48.5654 36.8378 48.8328 36.0357 49.0667 35.2337C48.9998 35.2337 48.933 35.2337 48.8662 35.2337C48.7659 35.2337 48.6657 35.2671 48.5988 35.2671C48.532 35.2671 48.4652 35.2003 48.3983 35.1668C48.4317 35.1334 48.4317 35.0332 48.4986 35.0332C48.7325 34.9329 48.9664 34.8327 49.2004 34.7324C49.3674 34.0975 49.5011 33.4291 49.6014 32.7941C49.568 32.7607 49.5011 32.7273 49.4677 32.6939C49.334 32.5602 49.3006 32.2929 49.2672 32.0923C49.2672 32.0255 49.4343 31.9253 49.568 31.8584C49.6014 31.825 49.6682 31.825 49.7016 31.825C49.7351 31.5242 49.7685 31.2235 49.7685 30.9561C49.6348 30.7222 49.2672 30.8559 49.1669 30.5551C49.1669 30.5217 48.9998 30.4883 48.933 30.4883C48.8328 30.4883 48.7325 30.5217 48.6657 30.5217C48.4986 30.5551 48.3649 30.5217 48.3315 30.3546C48.2981 30.1875 48.4317 30.1207 48.5654 30.0872C48.5988 30.0872 48.6322 30.0872 48.6657 30.0538C48.6657 30.0538 48.6657 30.0538 48.6657 30.0872C49.0667 29.987 49.4343 29.8867 49.8353 29.7865C49.8353 29.5191 49.8353 29.2518 49.8019 28.9844C49.7016 28.9844 49.6014 28.9176 49.5011 28.7839C49.4009 28.6168 48.9664 28.8173 48.8996 29.0179C48.7993 29.2518 48.4317 29.4523 48.1978 29.3855C48.0975 29.352 48.0307 29.2184 48.0307 29.0847C47.9973 29.1181 47.8302 29.2852 47.7968 29.2518C47.6965 29.1849 47.5629 29.1849 47.4626 29.2184C47.4626 29.4189 47.4626 29.6194 47.4626 29.8533C47.4626 30.1207 47.4626 30.4214 47.4292 30.6888C47.496 30.7222 47.5294 30.789 47.5629 30.8224C47.5963 30.8559 47.5629 31.023 47.5294 31.0564C47.496 31.0898 47.4292 31.1232 47.3623 31.1566C47.3289 31.4908 47.2955 31.825 47.2621 32.1592C47.3289 32.1258 47.4626 32.0923 47.4626 32.1258C47.5629 32.2929 47.6965 32.3263 47.897 32.3597C48.1644 32.3931 48.2646 32.8276 48.0641 33.0281C47.7634 33.3288 47.7634 33.3622 48.131 33.5293C48.1978 33.5628 48.2646 33.6296 48.2646 33.6964C48.2646 33.7633 48.1978 33.8635 48.1644 33.8635C47.9639 33.9304 47.7299 34.0975 47.5294 33.8301C47.4626 33.7633 47.2955 33.7633 47.1618 33.7633C47.095 33.7633 47.0282 33.7967 46.9947 33.7967C46.694 35.1334 46.2261 36.4033 45.658 37.573C45.6914 37.573 45.7248 37.573 45.7917 37.573C46.0256 37.6064 46.3598 37.4393 46.46 37.7735C46.7274 38.0742 46.7274 38.1077 46.4935 38.3416C46.2261 38.5755 45.9922 38.776 45.7248 38.9765C45.658 39.01 45.5243 39.01 45.4241 39.01C45.4241 38.9765 45.4241 38.9431 45.4241 38.9431C45.3572 38.9765 45.257 39.01 45.1233 39.0434C45.0899 39.0434 45.0231 39.01 44.9562 38.9765C44.5886 39.5781 44.1876 40.1796 43.7532 40.7143C43.7532 40.7477 43.7866 40.7811 43.7866 40.848C43.8534 40.8814 43.9202 40.9482 44.0205 41.0819C44.1208 41.2156 44.3213 41.3492 44.0873 41.5498C44.0205 41.6166 43.9537 41.65 43.8534 41.6834C43.7866 41.8505 43.6529 41.9508 43.3521 42.051C43.185 42.0845 43.0514 42.1179 42.8843 42.1513C42.7172 42.1847 42.5167 42.2181 42.4833 42.4855C42.4498 42.6526 42.3162 42.686 42.1825 42.5857C42.1491 42.5857 42.1491 42.5523 42.1157 42.5523C41.0797 43.5549 39.91 44.4572 38.6401 45.1924C38.6736 45.1924 38.707 45.1924 38.7404 45.1589C39.0746 45.1255 39.4422 44.9584 39.7429 45.2926C39.8766 45.4263 40.2442 45.2592 40.2776 45.0253C40.3111 44.7913 40.4447 44.6911 40.6452 44.6577C41.347 44.5574 42.0488 44.4572 42.7506 44.1564C43.1516 43.9893 43.3856 44.1564 43.4858 44.524C43.8868 43.9559 44.3881 43.4212 44.856 42.8865ZM48.5654 31.8584C48.5654 31.825 48.6322 31.7916 48.6657 31.7582C48.7325 31.7247 48.7993 31.6579 48.8662 31.6245C48.8996 31.5911 48.9664 31.6245 49.0333 31.6245C49.0333 31.6913 49.0333 31.7582 48.9998 31.7916C48.933 31.8918 48.8996 31.9921 48.7993 32.0589C48.7325 32.0923 48.5988 32.0923 48.532 32.0923C48.532 32.0255 48.532 31.9587 48.5654 31.8584ZM48.5654 32.1926C48.6322 32.2594 48.6657 32.2929 48.6991 32.3263C48.6991 32.3597 48.6657 32.3931 48.6322 32.4265C48.5988 32.3931 48.532 32.3597 48.4986 32.3263C48.4652 32.3263 48.532 32.2594 48.5654 32.1926ZM48.1644 29.7196C48.131 29.7196 48.1644 29.6528 48.1644 29.5525C48.2312 29.586 48.2981 29.586 48.3315 29.6194C48.3649 29.6194 48.3315 29.7196 48.3315 29.7196C48.2646 29.7196 48.1978 29.7196 48.1644 29.7196ZM47.6965 35.1668C47.7299 35.1334 47.897 35.2337 47.897 35.3005C47.897 35.3674 47.8636 35.501 47.7968 35.5679C47.7299 35.6013 47.6297 35.501 47.4626 35.4676C47.5963 35.3005 47.6297 35.2003 47.6965 35.1668ZM43.9871 40.3467C43.9871 40.2799 44.0205 40.1796 44.0873 40.1462C44.1208 40.1128 44.221 40.1462 44.2878 40.1796C44.4215 40.2464 44.5218 40.3133 44.622 40.3801C44.7891 40.4804 44.9896 40.9816 44.8225 41.1153C44.622 41.2824 44.6555 41.4829 44.6555 41.6834C44.6555 41.7837 44.5886 41.8839 44.5552 41.9508C44.4884 41.8839 44.3547 41.8171 44.3213 41.7169C44.221 41.4829 44.1876 41.249 44.1208 40.9816C44.0873 40.8146 44.0205 40.5806 43.9871 40.3467ZM42.5835 43.722C42.4833 43.722 42.383 43.5883 42.2827 43.5214C42.3496 43.3209 42.1491 43.0536 42.4164 42.9868C42.6503 42.9533 42.6503 43.2541 42.7172 43.3878C42.784 43.5549 42.784 43.722 42.5835 43.722Z" fill="#FEFEFE"/>
<path d="M14.3783 32.3261C14.512 32.4264 14.5454 32.56 14.4452 32.7605C14.4452 32.7605 14.4452 32.794 14.4118 32.8274C14.7459 34.5317 15.3475 36.1358 16.1829 37.6062C16.2832 37.7065 16.35 37.8067 16.4503 37.907C16.5171 37.9738 16.584 38.0741 16.5505 38.1075C16.5171 38.1409 16.5171 38.1743 16.5171 38.2077C16.9516 38.9095 17.4528 39.5779 17.9875 40.1794C18.1212 40.1126 18.2215 40.0457 18.3886 40.2128C18.5556 40.4134 18.6893 40.5804 18.8564 40.781C18.9567 40.9146 19.0569 41.0149 19.1572 41.1486C19.2574 41.2822 19.3911 41.4159 19.3577 41.583C19.4914 41.7167 19.6585 41.8503 19.7921 41.9506C19.859 41.9506 19.8924 41.984 19.8924 42.0509C22.4656 44.1228 25.6738 45.4261 29.1827 45.5598C29.1493 45.4929 29.1159 45.4261 29.1159 45.3593C29.0824 45.2924 29.1159 45.1922 29.1159 45.0919C29.1827 45.0919 29.2495 45.1253 29.3498 45.1253H29.3832C29.283 44.9917 29.1827 44.858 29.0824 44.7243C29.4166 44.6241 29.5169 44.457 29.45 44.1228C29.4166 43.9223 29.3498 43.6884 29.3164 43.4878C29.283 43.3208 29.1827 43.2539 28.9822 43.2873C28.7148 43.3542 28.4475 43.4544 28.1801 43.5213C28.0131 43.3208 27.8794 43.1202 27.7123 42.9197C27.7791 42.8529 27.8794 42.7861 27.9462 42.6858C27.7791 42.5855 27.612 42.4185 27.4115 42.4185C27.3781 42.4185 27.3781 42.4185 27.3447 42.4185C26.6429 41.4493 26.0079 40.5136 25.5067 39.6781C25.5401 39.6447 25.5401 39.5445 25.5735 39.5111C25.5067 39.4776 25.4398 39.4108 25.373 39.4442C25.373 39.4442 25.373 39.4442 25.3396 39.4442C25.0054 38.8761 24.738 38.3748 24.5375 37.9404C24.5375 37.907 24.5041 37.8736 24.5041 37.8401C24.571 37.8067 24.6712 37.7399 24.6712 37.7065C24.6712 37.6062 24.7046 37.5728 24.738 37.506C24.738 37.5394 24.738 37.5394 24.738 37.5728C24.738 37.6396 24.9386 37.6396 25.0722 37.7065C25.1391 37.5728 25.2059 37.5059 25.2059 37.4057C25.2059 37.4057 25.1725 37.3723 25.1391 37.3389C25.3062 37.272 25.4733 37.2386 25.6403 37.2052C25.9077 37.1383 26.175 36.9378 26.409 37.272C26.409 37.272 26.4758 37.3054 26.4758 37.272C26.7766 37.1383 27.2444 37.272 27.3781 36.8042C27.3781 36.7707 27.4784 36.7039 27.5118 36.6705C27.8125 36.5702 28.1133 36.47 28.4141 36.4031C28.5477 36.3697 28.7148 36.47 28.8819 36.5368C28.9153 36.3363 29.0156 36.2026 29.2161 36.1358C29.2495 36.1024 29.283 36.069 29.3498 36.0355C29.5503 36.1692 29.7508 36.3029 29.9513 36.4366C30.0182 36.47 30.1184 36.5034 30.1518 36.47C30.1852 36.4366 30.2187 36.3363 30.2187 36.2695C30.1852 36.069 30.1518 35.9019 30.085 35.7348C30.085 35.7014 30.085 35.6679 30.0516 35.6345C30.085 35.6679 30.1184 35.6679 30.1518 35.7014C30.2855 35.835 30.3858 35.835 30.5194 35.8016C30.6865 35.7682 30.8202 35.7348 30.9539 35.8684C31.0875 36.0021 31.5554 35.8684 31.5888 35.7014C31.6222 35.434 31.8228 35.434 31.9898 35.3672C32.1235 35.3003 32.2572 35.2335 32.3574 35.1332C32.3909 35.0998 32.4243 34.9662 32.3909 34.9327C32.2238 34.7322 31.8228 34.632 31.5888 34.7322C31.3549 34.8325 31.1544 34.8993 30.8536 34.9996C30.8536 34.9996 30.8536 34.9996 30.8202 34.9996C30.8202 34.9996 30.8202 35.033 30.7868 35.033C30.7868 35.033 30.7868 35.033 30.7534 35.033C30.5194 35.0998 30.2521 35.1667 29.9513 35.2669C29.8845 35.033 29.8511 34.8993 29.7174 34.8993C29.8511 34.8325 29.8511 34.7991 29.8176 34.6654C29.7842 34.5985 29.7842 34.4983 29.7508 34.4315C29.7508 34.3646 29.7174 34.2644 29.7174 34.1975C29.7174 34.0973 29.684 33.997 29.6506 33.8968H29.684C29.6506 33.7631 29.6171 33.6294 29.5837 33.4957C29.5503 33.2952 29.45 33.2284 29.2495 33.2618C28.8819 33.3286 28.648 33.7631 28.6814 34.1307C28.7148 34.398 28.9488 34.398 29.0824 34.5317C29.0824 34.5985 29.1159 34.6988 29.1493 34.7656C29.1827 34.8659 29.2495 34.9662 29.3164 34.9996C29.1827 35.033 29.0824 35.0664 28.9822 35.1667C28.9154 35.2335 28.9153 35.434 28.9488 35.6011C28.3807 35.7348 27.8125 35.9019 27.2444 36.0355C27.0773 36.069 26.9437 36.1692 26.81 36.2026C26.409 36.3029 25.9411 36.3697 25.5735 36.5368C25.3062 36.6371 24.9051 36.6705 24.7715 37.0381C24.7715 37.0715 24.6044 37.1049 24.571 37.0715C24.4039 36.9378 24.2702 37.0047 24.1365 37.0381C24.0363 36.8042 23.936 36.6037 23.8358 36.3363L23.8692 36.3029C23.936 36.2361 23.936 36.1024 23.9026 36.0021C23.8692 35.8016 23.8023 35.6345 23.7355 35.4674C23.6687 35.2669 23.6352 35.033 23.535 34.8659C23.5016 34.7991 23.4013 34.7656 23.3345 34.7322C23.3011 34.7322 23.2676 34.7991 23.2342 34.8659C23.1005 34.3646 22.9669 33.8633 22.9335 33.3621C22.9669 33.3286 23.0003 33.2952 23.0003 33.2284C22.9669 33.2284 22.9335 33.195 22.9 33.195C22.8666 32.7605 22.9 32.3261 22.9669 31.9251C22.9669 31.8917 22.9669 31.8917 22.9669 31.8582C23.2342 30.5883 23.6018 29.7529 24.2702 28.884C24.3704 28.7503 24.5041 28.6167 24.6712 28.483C25.1391 28.0485 25.6069 27.5807 25.4733 26.6784C25.0722 24.1386 23.8358 23.7376 22.0312 23.136C21.6636 23.0024 21.296 22.9021 20.8949 22.735C20.9952 22.7016 21.062 22.6682 21.1623 22.6682C21.2625 22.6348 21.3628 22.6013 21.463 22.5679C21.5967 22.5345 21.7304 22.4677 21.6636 22.3006C21.5967 22.1335 21.6636 21.8996 21.3628 21.8996C21.2291 21.8996 21.0954 21.7325 20.9952 21.7325C20.8949 21.7659 20.8615 21.933 20.7613 22.0332C20.7278 22.0666 20.6276 22.1001 20.5607 22.1001C20.4271 22.1669 20.26 22.2003 20.2266 22.4008C20.2266 22.4008 20.2266 22.4008 20.2266 22.4342C20.1597 22.4008 20.0929 22.3674 20.0261 22.334C19.5248 22.0666 18.9901 21.7993 18.4888 21.7993C18.422 21.7993 18.3217 21.7993 18.2549 21.8327H18.2215C18.1546 21.8327 18.0878 21.7993 18.0544 21.7325C18.021 21.6656 18.021 21.5654 18.1212 21.4317C18.6559 20.6965 20.1263 20.1952 21.1957 20.1618C21.1957 20.1618 21.1957 20.1618 21.1957 20.1952C21.1957 20.2621 21.1957 20.3623 21.1957 20.4291C21.3294 20.3957 21.4965 20.3957 21.6301 20.3623C21.6636 20.3289 21.697 20.2286 21.697 20.1284C22.0312 20.095 22.499 20.0281 23.0337 19.9279C24.6378 19.6939 27.0439 19.3263 29.1493 19.3263C29.5169 19.3263 29.8176 19.3263 30.1184 19.3598C29.9847 19.4266 30.0182 19.5603 30.085 19.7608C30.1184 19.7942 30.2187 19.9279 30.2855 19.8945C30.5194 19.8276 30.3858 19.5937 30.3858 19.46C30.3858 19.4266 30.3189 19.3932 30.2855 19.3598C30.486 19.3598 30.6865 19.3932 30.887 19.4266C30.887 19.46 30.8536 19.4934 30.8536 19.5268C30.8536 19.5937 30.9205 19.7274 30.9539 19.7274C31.1878 19.6939 31.3883 19.6605 31.6222 19.5603C31.9564 19.6271 32.2238 19.7274 32.4577 19.861C33.8947 20.3623 34.797 21.4317 35.5322 22.6348C35.4319 22.735 35.2648 22.8019 35.2648 22.9021C35.2314 23.2029 35.599 23.0692 35.6993 23.2363C35.7327 23.2697 35.8664 23.2697 35.9332 23.2697C36.0669 23.4702 36.1671 23.7041 36.3008 23.9047C36.4679 24.2388 36.6684 24.573 36.8689 24.8738C37.036 25.1411 38.0052 26.01 39.0745 26.9792C40.5784 28.3159 42.5835 30.1205 43.9202 31.6243C43.8868 31.6577 43.8534 31.7246 43.8534 31.7914C43.8534 31.8248 43.9536 31.8917 43.9871 31.8917C44.0205 31.8917 44.0539 31.8582 44.0873 31.8582C44.1207 31.9251 44.1876 31.9585 44.221 32.0253C44.5217 32.3595 44.8225 32.6937 45.0899 33.0279C45.2904 31.9919 45.424 30.9559 45.424 29.8531C45.424 21.1643 38.4062 14.1465 29.7174 14.1465C21.0286 14.1465 14.0107 21.1643 14.0107 29.8531C14.0107 30.6552 14.0776 31.4572 14.1778 32.2593C14.3449 32.2927 14.3783 32.2927 14.3783 32.3261ZM25.9411 41.4493C26.0748 41.3156 26.2419 41.2488 26.409 41.1151C26.4424 41.182 26.5761 41.3491 26.5426 41.3491C26.3756 41.5162 26.7766 41.9172 26.3421 41.984C26.2419 41.984 26.1416 41.8503 25.9745 41.7501C25.9745 41.6833 25.9077 41.5162 25.9411 41.4493ZM18.021 35.3338C17.9541 35.4006 17.8204 35.4006 17.7202 35.4006C17.7536 35.2669 17.8204 35.1667 17.8539 35.033C17.9875 35.033 18.0544 35.033 18.1546 35.033C18.1212 35.1332 18.0878 35.2669 18.021 35.3338ZM18.6893 38.6088C18.5891 38.5085 18.4888 38.3748 18.3886 38.2412C18.2549 38.0741 18.1212 37.9404 18.3551 37.7733C18.6225 37.5728 18.7562 37.5394 18.9567 37.7399C19.0235 37.8067 19.1238 37.907 19.1906 37.9738C19.224 38.0072 19.2574 38.0406 19.2908 38.0741C19.5248 38.3748 19.5248 38.3748 19.2574 38.6088C18.9901 38.8761 18.9232 38.8761 18.6893 38.6088ZM19.0569 35.3672C19.0903 35.2335 19.1238 35.1332 19.1572 35.0998C19.1906 35.0664 19.3243 35.0998 19.3577 35.1332C19.3911 35.1667 19.3911 35.3003 19.3577 35.3338C19.2908 35.3672 19.1906 35.3338 19.0569 35.3672ZM19.9258 39.6447C19.7587 39.8118 19.625 39.7784 19.3911 39.4776C19.1906 39.2437 19.224 39.1769 19.4579 38.9764C19.7253 38.7424 19.7921 38.7759 20.0261 39.0098C20.2266 39.2437 20.1931 39.3774 19.9258 39.6447ZM19.6919 35.7014C19.7587 35.6679 19.9258 35.7682 20.0929 35.8016C20.1263 35.9687 20.1931 36.1358 20.1263 36.2026C19.9592 36.3697 19.859 36.1692 19.7587 36.069C19.625 35.9687 19.5248 35.8016 19.6919 35.7014ZM20.6276 36.9044C20.5942 36.9378 20.4605 36.9044 20.4271 36.871C20.3937 36.8042 20.3937 36.7039 20.3937 36.5702C20.5273 36.6037 20.661 36.6037 20.661 36.6705C20.7278 36.7373 20.661 36.8376 20.6276 36.9044ZM23.1005 43.2873C22.9335 43.421 22.7664 43.4878 22.6327 43.2873C22.4322 43.02 22.4322 42.8863 22.6661 42.6858C22.9 42.5187 23.0003 42.5187 23.2008 42.7861C23.4013 42.9866 23.3679 43.0868 23.1005 43.2873ZM23.8692 41.984C23.8358 42.0174 23.8023 41.984 23.7355 41.984C23.7355 41.9172 23.7355 41.8838 23.7689 41.8169C23.7689 41.7835 23.8358 41.8169 23.936 41.8169C23.9026 41.8838 23.9026 41.9506 23.8692 41.984ZM23.0337 35.6679C23.0671 35.7348 23.0671 35.8684 23.0337 35.9019C23.0003 35.9353 22.8666 35.9353 22.7998 35.9019C22.7664 35.8684 22.7664 35.7348 22.7664 35.6345C22.8666 35.6345 23.0003 35.6345 23.0337 35.6679ZM22.499 34.8993C22.499 35.0664 22.5324 35.2335 22.499 35.3003C22.3653 35.4674 22.2317 35.3338 22.1648 35.2001C22.098 35.0664 21.8641 34.9327 22.0646 34.7656C22.1314 34.7322 22.3319 34.8659 22.499 34.8993ZM21.3628 33.7297C21.6301 33.4957 21.697 33.5292 21.9977 33.8299C22.1983 34.0639 22.1983 34.1307 21.9977 34.3312C21.7304 34.5651 21.6301 34.5651 21.3962 34.3312C21.1289 33.997 21.1289 33.9302 21.3628 33.7297ZM18.6225 34.398C18.8898 34.2644 18.9567 34.1641 18.9567 33.8299C18.9567 33.5626 18.9567 33.3621 18.7896 33.1616C18.5891 32.961 18.6559 32.794 18.8564 32.6603C19.0903 32.4932 19.3243 32.2927 19.5582 32.0922C19.7587 31.9251 19.859 31.9585 20.0261 32.1256C20.3602 32.4932 20.3602 32.5266 19.9592 32.7605C19.7587 32.8942 19.7253 33.0279 19.859 33.2284C19.9592 33.3286 20.0261 33.4623 20.1597 33.596C20.2934 33.7297 20.5273 33.8968 20.661 34.0973C20.7613 34.2309 20.8949 34.4315 20.8615 34.5651C20.7947 34.7656 20.7613 34.9662 20.9284 35.0998C21.1289 35.2669 21.3628 35.434 21.5967 35.5008C21.9977 35.6011 21.9977 35.5677 21.8641 35.9687C21.8306 36.069 21.8975 36.2026 21.9643 36.2695C22.0646 36.4366 22.2317 36.5702 22.3319 36.7373C22.499 36.9378 22.5993 37.2052 22.9669 37.1383C23.0337 37.1049 23.1674 37.2052 23.2342 37.272C23.6352 37.7399 24.0363 38.2077 24.4039 38.6756C24.4707 38.7424 24.4039 39.344 24.337 39.3774C24.3036 39.4108 24.2034 39.4442 24.1699 39.4108C24.0363 39.344 23.8692 39.2771 23.7689 39.1435C23.1005 38.3748 22.4656 37.6062 21.8306 36.8042C21.4296 36.3363 21.0954 35.8016 20.6944 35.3338C20.3602 34.9327 19.9926 34.5651 19.625 34.1975C19.4579 34.0304 19.3243 34.0639 19.1906 34.2644C19.0903 34.398 18.9901 34.5651 18.8898 34.6988C18.7896 34.8325 18.6225 34.8993 18.4888 34.7322C18.422 34.5985 18.4888 34.4649 18.6225 34.398ZM18.021 31.6243C18.0878 31.6243 18.1546 31.5909 18.2549 31.5575C18.5222 31.4906 18.6559 31.5909 18.6225 31.8582C18.6225 31.9585 18.6225 32.0588 18.5891 32.159C18.5556 32.2593 18.5556 32.4264 18.4888 32.4264C18.3886 32.4598 18.2549 32.3929 18.1546 32.3595C18.0878 32.3261 18.0209 32.2258 17.9207 32.159C17.8873 32.0922 17.8204 32.0253 17.787 31.9251C17.6868 31.6577 17.6868 31.6243 18.021 31.6243ZM17.8204 36.4366C17.9875 36.6037 17.787 36.7039 17.6868 36.8042C17.5865 36.9044 17.4194 37.0715 17.3192 36.8376C17.2857 36.7373 17.386 36.5702 17.4528 36.4031C17.5865 36.4031 17.7536 36.3697 17.8204 36.4366ZM16.584 32.5266C16.8179 32.159 16.9181 32.1256 17.1855 32.4932C17.2189 32.5266 17.2523 32.5934 17.2857 32.6603C17.3526 32.7605 17.4528 32.8274 17.4863 32.9276C17.5197 33.0279 17.4863 33.1281 17.4863 33.2618C17.386 33.2284 17.2857 33.2284 17.1855 33.195C17.1187 33.1616 17.0852 33.0279 16.985 32.9945C16.8847 32.9276 16.7845 32.8942 16.6508 32.8608C16.584 32.8274 16.4837 32.8274 16.4169 32.8274C16.5171 32.6937 16.5505 32.5934 16.584 32.5266ZM15.548 33.6628C15.5814 33.6963 15.6148 33.7631 15.6817 33.7965C15.8153 33.9636 15.949 34.0973 15.7485 34.3312C15.4812 34.5651 15.3809 34.5985 15.1135 34.3646C14.9799 34.2644 14.8796 34.1307 14.7794 33.9636C14.5789 33.6628 14.6791 33.4289 15.0133 33.3286C15.0801 33.2952 15.2138 33.3286 15.2806 33.3621C15.3475 33.4289 15.4477 33.5292 15.548 33.6628ZM14.913 30.9894C14.9799 31.0228 15.0133 31.0562 15.0801 31.0896C15.4143 31.1899 15.4477 31.2901 15.2138 31.5241C14.9799 31.7914 14.6791 31.8582 14.4786 31.5909C14.3115 31.4572 14.3783 31.2901 14.512 31.123C14.5789 30.9559 14.7125 30.8557 14.913 30.9894Z" fill="#FEFEFE"/>
</g>
<defs>
<clipPath id="clip0_0_1320">
<rect width="60" height="60" fill="white"/>
</clipPath>
</defs>
</svg>
