<svg width="60" height="60" viewBox="0 0 60 60" fill="none" xmlns="http://www.w3.org/2000/svg">
<g clip-path="url(#clip0_0_1322)">
<circle opacity="0.1" cx="30" cy="30" r="30" fill="#FEFEFE"/>
<path d="M43.9902 24.4877C43.9537 24.5606 43.9902 24.67 43.9902 24.7429C44.0631 24.998 43.9537 24.998 43.735 24.9616C43.6256 24.9251 43.4798 24.9616 43.334 24.998C43.1153 25.0345 42.933 24.9251 43.0424 24.7429C43.1882 24.5241 43.0424 24.3419 42.9695 24.1596L36.1163 23.1754L36.0069 22.9931C36.0069 23.0296 36.0069 23.066 36.0069 23.1025C35.934 23.1025 35.8975 23.1025 35.7882 23.1025C35.7882 22.9931 35.7882 22.9202 35.8246 22.8473C35.8246 22.8473 35.8975 22.8473 35.934 22.8473L33.0906 17.1241C32.9448 17.1241 32.7626 17.1606 32.6168 17.1606C32.6168 17.0877 32.6168 17.0148 32.6532 16.9783C32.7261 16.9054 32.8355 16.9054 32.9448 16.8325H32.9813L32.5438 15.9576C32.398 15.9941 32.2887 15.9576 32.1793 15.8118C32.1064 15.8483 32.0335 15.8483 31.997 15.8847C32.0335 15.8483 32.0335 15.7754 32.07 15.7389C31.997 15.7389 31.9241 15.8118 31.8512 15.9212C31.6325 16.3586 31.3409 16.3951 30.9035 16.1399C30.7941 16.067 30.6118 16.1034 30.466 16.1034C30.3202 16.1034 30.1015 16.2128 30.1015 15.9576C30.1015 15.8847 30.2837 15.7389 30.3931 15.7025C30.5754 15.6296 30.7576 15.5931 30.9399 15.5202C31.1586 15.4473 31.4138 15.4108 31.5232 15.2286C31.7054 15.0099 31.8148 14.8276 32.07 15.0099L31.2315 13.333C31.0857 13.3695 31.0128 13.333 30.8305 13.1507C30.6847 12.9685 30.6118 12.8227 30.8305 12.6404C30.8305 12.6404 30.8305 12.6404 30.867 12.6404L30.065 11L29.5547 12.203C29.5911 12.2394 29.5911 12.3123 29.6276 12.3488C29.7005 12.6404 29.664 12.7133 29.336 12.8227C29.2995 12.8227 29.2631 12.8227 29.2631 12.8591L27.5133 16.3951C27.5862 16.3951 27.6956 16.3586 27.7685 16.3586C27.8414 16.3586 27.9872 16.3951 27.9872 16.3951C27.9872 16.5044 27.9872 16.7232 27.9507 16.7232C27.6591 16.7596 27.9143 17.4522 27.4039 17.1241C27.2946 17.0512 27.2217 17.0148 27.1852 17.0148L26.5655 18.2906C26.5655 18.3271 26.5655 18.3635 26.5655 18.4365C26.6749 18.3635 26.7478 18.2906 26.7478 18.1084C26.7478 17.8168 26.9665 17.7803 27.1852 17.9626C27.2581 18.0355 27.331 18.1084 27.4039 18.1448C27.732 18.1448 27.732 18.3635 27.7685 18.5823H27.8049C27.9143 18.6187 28.0236 18.6552 28.133 18.6552C28.0966 18.6916 28.0966 18.7645 28.0601 18.7645C27.8414 18.8739 27.8049 18.7281 27.732 18.5823C27.4404 18.6552 27.1488 18.7281 26.8571 18.7645C26.5655 18.801 26.3468 18.9103 26.1645 19.0926L24.67 22.1547C24.7793 22.2276 24.8522 22.3005 24.8887 22.4463C24.9251 22.5557 24.998 22.665 24.9616 22.7379C24.7793 23.0296 24.998 23.1754 25.1438 23.3576C25.2532 23.467 25.3626 23.6128 25.2168 23.7586C25.0345 23.9044 24.9251 23.7222 24.8158 23.6128C24.7793 23.5764 24.7429 23.5035 24.67 23.4305C24.5241 23.3212 24.4148 23.1389 24.2325 23.066L24.1961 23.1754L11.1458 25.0709C11.1094 25.1803 11.0365 25.2532 11 25.3626L15.0099 29.2631C15.0463 29.2631 15.0463 29.2631 15.0828 29.2631C15.4108 29.1902 15.4473 29.2266 15.5567 29.6276C15.5931 29.737 15.5931 29.8099 15.5931 29.8463L16.5044 30.7576C16.5409 30.7212 16.5409 30.6847 16.5773 30.6483C16.6867 30.7576 16.7596 30.7941 16.7961 30.867C16.7961 30.9035 16.7596 30.9399 16.7596 30.9764L20.5143 34.6581L20.0768 37.3192C20.2591 37.2463 20.4049 37.1734 20.5507 36.9182C20.7695 36.5537 20.9882 36.1892 21.2069 35.8611C21.2798 35.7153 21.5714 35.6788 21.7537 35.6788C21.8266 35.6788 21.936 35.8975 22.0089 36.0069C22.0818 36.1163 22.0818 36.2621 22.1547 36.2985C22.264 36.3714 22.4099 36.4443 22.5557 36.4808C22.5557 36.4443 22.5921 36.3714 22.665 36.2985C22.7744 36.1892 22.8837 36.2256 22.9567 36.2621C22.9567 35.934 23.066 35.6788 23.1754 35.3872C23.2118 35.3143 23.3212 35.1685 23.4305 35.1685C23.5035 35.1685 23.6493 35.2778 23.6493 35.3872C23.7222 35.6059 23.868 35.8611 23.5035 35.9705C23.3212 36.0434 23.3576 36.2256 23.4305 36.3714C23.5764 36.6266 23.5399 36.7724 23.3212 36.8453C23.3576 36.9547 23.3941 37.1005 23.467 37.2099C23.2847 37.137 23.1025 37.064 22.9567 36.9911C22.8473 37.1005 22.8108 37.2099 22.8837 37.465C22.9202 37.5744 23.0296 37.7202 23.1025 37.7202C23.4305 37.7567 23.5035 37.9389 23.5035 38.1941C23.5035 38.3035 23.5399 38.4493 23.5399 38.5586C23.5764 38.7409 23.6128 38.9232 23.868 38.9596C23.9773 38.9961 24.0503 39.1419 24.1232 39.2877C24.3054 39.2512 24.5241 39.1783 24.7064 39.1419C24.7793 39.1419 24.9251 39.1054 24.9616 39.1419C25.1803 39.47 25.4719 39.3606 25.7636 39.3606C25.8365 39.3606 25.9094 39.4335 25.9458 39.5064C25.9823 39.5429 25.9094 39.6522 25.8729 39.6887C25.4719 39.9803 25.0345 40.0897 24.5241 40.0897C24.4512 40.0897 24.3054 39.9803 24.269 39.8709C24.1961 39.6887 24.1596 39.47 24.0867 39.2877C23.9409 39.3242 23.8315 39.3606 23.6857 39.3606C23.5035 39.3971 23.3941 39.3241 23.3212 39.1783C23.2118 38.9596 23.1389 38.7409 22.8108 38.668C22.6286 38.6315 22.5921 38.3764 22.7744 38.2306C22.9567 38.0847 22.9567 38.0118 22.7015 37.9389C22.4099 37.8296 22.1911 37.6108 21.936 37.465C21.535 37.2463 21.2069 37.2463 21.0246 37.6838C20.9882 37.7567 20.9153 37.8296 20.8788 37.9025C20.733 38.1576 20.8788 38.3399 21.134 38.3399C21.2069 38.3399 21.2798 38.3399 21.3527 38.3035C21.6808 38.1941 21.7172 38.4128 21.7902 38.6315C21.8631 38.8867 21.7902 38.9961 21.535 39.069C21.2069 39.1783 20.9882 39.069 20.7695 38.8867C20.6601 39.069 20.1498 39.069 20.0039 38.9232C19.8581 38.7774 19.8946 38.5586 20.0768 38.3399C20.0039 38.267 19.931 38.2306 19.8217 38.1941L19.4571 40.2719C19.4936 40.3084 19.5665 40.3448 19.603 40.3448C19.6759 40.3448 19.7123 40.3448 19.7488 40.3448C20.0768 40.2719 20.4049 40.1626 20.733 40.0897C20.9882 40.0168 21.2798 40.0168 21.2798 39.6522C21.2798 39.6522 21.4621 39.5793 21.4985 39.6158C21.7537 39.7616 22.0089 39.9074 22.3005 40.0532C22.3734 40.0897 22.4828 40.0532 22.5921 40.0168C22.7744 39.9803 22.9202 39.9438 23.1025 39.9438C23.2118 39.9438 23.3941 40.0168 23.4305 40.0897C23.5035 40.2719 23.3576 40.3448 23.2118 40.4177C23.1025 40.4542 22.9931 40.4906 22.8473 40.4906C22.8473 40.4906 22.8473 40.4907 22.8473 40.5271C22.665 40.5636 22.5192 40.6 22.3369 40.6C22.0818 40.6 21.936 40.6729 21.8266 40.9281C21.7537 41.0739 21.4985 41.2197 21.3163 41.2926C21.0611 41.3655 21.0611 41.0739 20.9882 40.9281C20.9517 40.8552 20.9517 40.7823 20.9153 40.7458C20.8788 40.6729 20.8059 40.6365 20.733 40.6C20.6966 40.6729 20.5872 40.7458 20.5872 40.8187C20.5507 40.9281 20.5143 41.0374 20.4778 41.1468C20.5507 41.402 20.5872 41.6936 20.5872 41.9488C20.5872 42.2039 20.0404 42.3498 19.8217 42.1675C19.7123 42.0581 19.6394 41.9488 19.5301 41.803C19.4207 41.803 19.3478 41.803 19.2384 41.7665L18.3635 46.7971C18.4365 46.7971 18.4729 46.8335 18.4729 46.87C18.5094 46.9429 18.4729 47.0522 18.4 47.1251C18.4 47.1251 18.3271 47.1251 18.2906 47.1251L18.1448 48L22.7015 45.5941L22.665 45.5576C22.4828 45.3754 22.3369 45.1567 22.1547 44.9744C22.0818 44.9015 21.936 44.865 21.8266 44.865C21.4621 44.8286 21.2434 44.6463 21.3163 44.2818C21.3527 44.0631 21.2798 43.9537 21.1704 43.8079C20.9517 43.5527 20.733 43.2611 20.5143 43.0059C20.3685 42.8601 20.2591 42.6778 20.5143 42.532C20.6966 42.3862 20.9153 42.204 21.1704 42.4591C21.3163 42.6049 21.4621 42.7872 21.6079 42.9695C21.8266 43.1882 22.0453 43.3705 22.264 43.5892C22.4463 43.7714 22.5557 43.9537 22.7379 44.136C22.9931 44.4276 23.2483 44.6828 23.5035 44.9744C23.5399 45.0108 23.6128 45.0108 23.6857 45.0108C23.7222 45.0108 23.7586 45.0108 23.7951 45.0108L30.2108 41.6207L42.2404 47.9271L42.0581 46.87C41.9852 46.8335 41.8759 46.8335 41.7301 46.9064C41.6571 46.9429 41.5478 46.7971 41.4749 46.7242C41.2926 46.5783 41.1468 46.2867 40.8187 46.4325C40.7823 46.4325 40.6729 46.3596 40.6729 46.3232C40.6729 46.0315 40.7094 45.7035 40.7094 45.4118C40.7094 45.1931 40.4542 44.9015 40.199 44.8286C40.0168 44.7921 39.8345 44.6828 39.6887 44.6099C39.6522 44.6099 39.6158 44.6463 39.5793 44.6463C39.2877 44.6828 39.1783 44.865 39.2512 45.1202C39.3606 45.5212 38.8867 45.667 38.8867 45.9951L38.7773 46.0315C38.6315 45.8128 38.3764 45.8493 38.1576 45.7399C37.9754 45.6306 38.0118 45.1202 38.1941 44.9744C38.3764 44.8286 38.5951 44.7192 38.7044 44.4276C38.7409 44.2818 39.0325 44.2453 39.2148 44.1724V44.2089C39.3241 44.1724 39.4335 44.136 39.5429 44.0995H39.5793C39.5793 43.9537 39.5064 43.8079 39.4335 43.6256C39.3241 43.334 39.47 43.0059 39.7616 42.9695C39.8345 42.9695 39.9438 43.0059 39.9803 43.0424C40.3084 43.4069 40.6365 43.7714 40.9281 44.136C41.0739 44.2818 41.2197 44.4276 41.1104 44.6828C41.0739 44.7557 41.1103 44.9015 41.1468 44.9744C41.2926 45.1931 41.402 45.4483 41.5842 45.6306C41.6571 45.7035 41.6936 45.7764 41.7665 45.8128L41.4749 44.0631C41.3655 43.9173 41.2197 43.7714 41.1104 43.6256C40.9645 43.4434 40.7458 43.2975 40.9281 42.9695C41.0374 42.7507 40.6729 42.3862 40.3813 42.4591C40.1626 42.4956 40.0532 42.4227 39.9438 42.2769C39.7616 42.0581 39.5429 41.803 39.3606 41.5842C39.2512 41.4384 39.1054 41.3291 39.1054 41.1468C38.7044 41.2926 38.3035 41.402 37.9389 41.5478C37.7567 41.6207 37.6108 41.8759 37.4286 41.9123C37.2463 41.9488 37.0276 41.7665 36.8453 41.7665C36.6266 41.7665 36.3714 41.8759 36.1527 41.9488C35.9704 41.9852 35.7882 42.0581 35.6788 41.8759C35.6059 41.7301 35.4966 41.6936 35.3872 41.6572C35.4601 41.8394 35.3507 42.0217 35.132 41.9852C34.9498 41.9852 34.7675 41.9852 34.5852 41.9488C34.5123 41.9488 34.4394 41.9123 34.3665 41.8394C34.3301 41.8394 34.2936 41.8759 34.2571 41.8759C34.1478 41.8759 34.0749 41.803 33.9655 41.7665C34.002 41.6936 34.002 41.5478 34.0749 41.5113C34.1113 41.4749 34.1113 41.4749 34.1478 41.4384C34.0749 41.3291 34.0384 41.2562 33.9655 41.1468C33.9291 41.1104 33.9291 41.0739 33.9291 41.0374C33.6374 40.8552 33.601 40.4542 33.7833 40.199C33.8926 40.0532 33.9291 39.8709 33.9291 39.6887C33.9291 39.4335 34.002 39.2877 34.2936 39.2148C34.5852 39.1419 34.6217 39.3241 34.6946 39.5429C34.8039 39.8709 34.9133 40.199 35.0591 40.4906C35.1685 40.8187 35.5695 40.7823 35.7882 40.9645C35.7882 40.9645 35.9704 40.8552 35.9704 40.8187C35.9704 40.5271 36.1892 40.4907 36.3714 40.4177C36.5537 40.3084 36.6995 40.3084 36.8453 40.5271C36.9911 40.7823 37.2099 40.7458 37.3192 40.4906C37.465 40.199 37.5744 39.8709 37.8296 39.5793C37.9389 39.47 37.866 39.1783 37.866 38.9596H37.8296C37.8296 38.9232 37.8296 38.9232 37.7931 38.8867C37.7202 38.8503 37.6473 38.8138 37.5744 38.8138C37.1369 38.7773 36.6995 38.3035 36.736 37.7931C36.7724 37.5744 36.6631 37.465 36.4808 37.5015C36.2256 37.5744 36.1163 37.4286 36.0069 37.2828C35.8611 37.137 35.8611 36.9911 35.934 36.7724C36.0434 36.5172 35.6424 36.0798 35.3507 36.1163C34.9498 36.2256 34.8769 35.8975 34.6946 35.7153C34.5123 35.533 34.2571 35.3872 34.5123 35.0591C34.5488 34.9862 34.4394 34.8404 34.4759 34.7675C34.5123 34.6581 34.6217 34.5123 34.6946 34.5488C34.8404 34.5852 34.9498 34.6217 35.0956 34.6217L35.132 34.5852C35.1685 34.5852 35.2049 34.6217 35.2778 34.6581C35.4966 34.6946 35.7153 34.8039 35.8611 35.0227C36.0069 35.2414 36.1527 35.3872 36.0069 35.6788C35.8611 35.8975 35.9704 36.0434 36.2621 35.9705C36.4808 35.934 36.5902 36.0069 36.6995 36.1527C36.6995 36.1527 36.6995 36.1527 36.736 36.1892V36.1527C36.736 36.0798 36.8089 36.0069 36.8453 35.8975C36.9182 35.934 36.9911 36.0069 37.0276 36.0434C37.064 36.0798 37.064 36.1892 37.1005 36.2985C37.1005 36.2621 37.137 36.335 37.1005 36.3714C37.1005 36.4079 37.064 36.4443 37.0276 36.4808C37.2463 36.736 37.5015 37.0276 37.7202 37.2828C37.9025 37.5015 38.0847 37.6838 38.0118 38.0118C38.0118 38.0483 38.0118 38.0847 38.0118 38.0847C38.0847 38.0483 38.1941 38.0483 38.3399 38.0847C38.4857 38.1212 38.5586 38.3399 38.5951 38.5222C38.5951 38.5222 38.5951 38.5222 38.6315 38.5222C38.7773 38.4128 38.9232 38.267 39.1054 38.1941C39.2148 38.1212 39.3971 38.0847 39.47 38.1212C39.6158 38.3035 39.4335 38.3764 39.3241 38.4857C39.1783 38.6315 39.0325 38.7409 38.9232 38.8867C38.7409 39.0325 38.7773 39.1783 38.9596 39.3241C39.069 39.3971 39.1419 39.5064 39.2512 39.5429C39.3241 39.5429 39.3606 39.5429 39.397 39.5793C39.7251 39.5064 40.0532 39.4335 40.3813 39.3971C40.5271 39.3606 40.6729 39.2877 40.8552 39.3241L40.6729 38.3399C40.6729 38.3764 40.6365 38.4128 40.6365 38.4493C40.5271 38.4128 40.4542 38.3764 40.2719 38.3035C40.3813 38.1576 40.4542 38.0483 40.5271 38.0118C40.5636 38.0118 40.6 38.0118 40.6365 38.0483L40.3813 36.5537C40.2355 36.6266 40.0897 36.6631 39.9803 36.4808C39.8345 36.2985 39.6158 36.1527 39.7251 35.8975C39.798 35.6788 39.7616 35.6059 39.5429 35.6059C39.2512 35.6059 39.1783 35.4237 39.2877 35.132C39.3606 34.9133 39.1783 34.6581 39.4335 34.4759C39.5793 34.3665 39.798 34.3301 40.0168 34.3301L42.8601 31.5596C42.8236 31.5596 42.7872 31.5596 42.7872 31.5596C42.7143 31.5596 42.6049 31.3409 42.6414 31.3044C42.7143 31.1222 42.8237 30.9764 42.933 30.8305C43.0424 30.7941 43.1517 30.7212 43.2246 30.7212C43.334 30.6847 43.5163 30.6483 43.5892 30.6847C43.6256 30.7212 43.6621 30.7576 43.6621 30.7941L46.3596 28.1695C46.3232 28.1695 46.3232 28.1695 46.2867 28.1695C46.068 28.133 45.9586 27.8778 45.667 27.9507C45.3025 28.0236 45.1931 27.9143 45.0838 27.5862C45.0108 27.3675 45.0473 27.2217 45.266 27.1488C45.3025 27.1123 45.3754 27.1123 45.4118 27.1123C45.4118 27.003 45.4118 26.9301 45.4483 26.8207C45.4847 26.7113 45.4847 26.5291 45.5941 26.4926C45.667 26.4562 45.8493 26.5291 45.9586 26.602C46.0315 26.6384 46.1044 26.7478 46.1773 26.8207C46.2138 26.8571 46.2138 26.8936 46.2503 26.9301C46.6512 26.8207 47.0522 26.7113 47.4168 26.6384C47.6719 26.5655 47.8542 26.602 47.9636 26.6749L49.7133 24.9616L46.2867 24.4512C46.2867 24.5241 46.2867 24.597 46.2503 24.6335C46.1773 24.67 46.1044 24.67 46.0315 24.67C46.0315 24.597 45.9951 24.5241 46.0315 24.4877C46.068 24.4512 46.1044 24.4512 46.1409 24.4512L44.136 24.1596C44.0631 24.3783 44.0266 24.4148 43.9902 24.4877ZM24.9251 30.7576C25.1074 30.7941 25.1803 30.9399 25.0709 31.0493C24.7429 31.268 24.8522 31.5232 24.8158 31.8148C24.8158 31.8877 24.7429 31.9606 24.7064 32.0335C24.6335 31.9971 24.5606 31.9241 24.5241 31.8877C24.4512 31.7054 24.3783 31.5232 24.3419 31.3773C24.1961 31.0128 24.2325 30.9399 24.67 30.8305C24.7064 30.7941 24.8158 30.7576 24.9251 30.7576ZM24.5241 28.8985C24.7429 29.1172 24.7793 29.3724 24.7064 29.6276C24.7429 29.6276 24.7064 29.8099 24.67 29.8463C24.597 29.8828 24.4877 29.8828 24.3419 29.8828C24.3783 29.8099 24.3783 29.737 24.3783 29.664C24.1596 29.5182 23.868 29.4453 23.7586 29.1537C23.6857 28.8985 23.6857 28.7892 24.0867 28.6798C24.1961 28.7527 24.3783 28.7892 24.5241 28.8985ZM23.2483 24.8158C23.2847 24.7429 23.3576 24.67 23.5035 24.5241C23.5764 24.5241 23.7586 24.4512 23.7951 24.5241C23.9409 24.7064 23.9773 24.8887 24.0867 25.1074C24.0867 25.1074 24.0502 25.1803 24.0138 25.1803C23.7586 25.1438 23.5035 25.1438 23.2847 25.1074C23.2483 25.0709 23.2118 24.8887 23.2483 24.8158ZM20.6966 24.7064C20.8788 24.6335 20.9882 24.8158 20.9882 24.9616C20.9882 25.1438 20.9153 25.2897 20.8788 25.4719C20.7695 25.3626 20.6236 25.2168 20.4414 25.0709C20.5143 24.9251 20.5872 24.7793 20.6966 24.7064ZM17.5251 25.1074C17.8532 24.998 17.8532 25.2897 17.9261 25.4719C18.0355 25.8365 17.9626 25.9458 17.6709 26.0187C17.4522 26.0552 17.27 26.0552 17.197 25.7636C17.1241 25.399 17.2335 25.1803 17.5251 25.1074ZM15.4473 26.8571C15.3015 26.9665 15.0828 26.9665 14.9369 26.7842C14.8276 26.6384 14.7182 26.4926 14.6453 26.4197C14.6453 26.1281 14.4995 25.9094 14.7911 25.8C15.1192 25.6906 15.3015 25.7271 15.4473 26.0187C15.5202 26.1645 15.5567 26.3103 15.5567 26.4562C15.5931 26.5655 15.5202 26.7842 15.4473 26.8571ZM17.7438 29.4818C17.4158 29.5911 17.0877 29.664 16.7596 29.7734C16.5044 29.8463 16.3586 29.737 16.3222 29.4818C16.2857 29.2631 16.1764 29.0443 16.5044 28.935C16.6867 28.8985 16.869 28.8256 17.0512 28.7892C17.27 28.7163 17.4522 28.6798 17.4522 28.3882C17.4522 28.0966 17.7803 28.0966 17.9626 28.133C18.1084 28.133 18.2177 28.3517 18.2542 28.3882C18.4 28.8621 18.1084 29.3724 17.7438 29.4818ZM18.9468 28.6798C19.1655 28.4246 19.4571 28.2059 19.5301 27.8778C19.5301 27.8414 19.6394 27.7685 19.6759 27.7685C19.8946 27.8414 20.0768 27.8778 20.2591 27.9872C20.3685 28.0601 20.4049 28.2059 20.4049 28.2424C20.5143 28.7163 20.4778 28.7527 20.1133 28.8621C19.9675 28.8985 19.8581 28.935 19.7123 28.9714C19.4936 29.0079 19.2749 29.1172 19.2749 29.3724C19.2749 29.4089 19.1655 29.4818 19.1291 29.4818C18.9833 29.4089 18.8374 28.8256 18.9468 28.6798ZM21.0611 32.1064C20.8788 32.1793 20.6966 32.3251 20.5507 32.07C20.4414 31.8877 20.2956 31.9241 20.1498 31.9606C19.931 31.997 19.7123 32.07 19.4936 32.1064C19.4207 32.1064 19.2749 32.1064 19.2384 32.0335C19.0197 31.7054 19.4207 31.5961 19.5301 31.3409C19.603 31.1586 19.8217 31.1222 19.931 31.3044C20.1498 31.5961 20.332 31.4138 20.5507 31.3409C20.8059 31.2315 20.7695 31.0128 20.6966 30.8305C20.6236 30.5754 20.6236 30.2473 20.2227 30.1744C20.1498 30.1744 20.0768 29.9921 20.0768 29.8828C20.0768 29.8099 20.1862 29.737 20.2591 29.7005C20.6236 29.5547 20.7695 29.6276 20.9153 29.9921C20.9517 30.1379 20.9882 30.2838 21.0246 30.4296C21.0611 30.5754 21.0975 30.7212 21.0975 30.867C21.1704 31.1222 21.2434 31.4138 21.3163 31.669C21.3527 31.9241 21.2798 32.0335 21.0611 32.1064ZM21.936 31.4138C21.8631 31.3773 21.8266 31.3409 21.7172 31.3044C21.7902 31.2315 21.7901 31.1586 21.8266 31.1222C21.8995 31.1586 21.9724 31.1951 22.0089 31.268C22.0453 31.3044 21.9724 31.3773 21.936 31.4138ZM22.7744 28.1695C22.4463 28.2424 22.1547 28.3517 21.8631 28.4246C21.4256 28.534 21.3527 28.4975 21.2798 28.0601C21.2069 27.8778 21.2434 27.6956 21.4621 27.5862C21.5714 27.5133 22.0453 27.3675 22.1911 27.4039C22.3005 27.4404 22.4099 27.4039 22.4828 27.4039C22.8473 27.4404 22.9567 27.5133 22.9931 27.8778C22.9931 28.0601 22.9202 28.133 22.7744 28.1695ZM23.6493 31.0128C23.5764 31.0857 23.467 31.1951 23.4305 31.268C23.3941 31.4138 23.3576 31.5596 23.2118 31.5232C23.1025 31.4867 23.066 31.3409 23.0296 31.3044C22.9202 30.867 23.2118 30.5754 23.5764 30.6847C23.7222 30.7576 23.7586 30.867 23.6493 31.0128ZM24.0867 36.6266C24.0138 36.6631 23.9044 36.5537 23.7222 36.5173C23.868 36.3714 23.9409 36.2621 24.0502 36.2621C24.1232 36.2621 24.2325 36.3714 24.3054 36.4079C24.1961 36.4808 24.1596 36.5902 24.0867 36.6266ZM24.998 38.5951C24.8158 38.6315 24.597 38.668 24.4148 38.668C24.3419 38.668 24.269 38.5951 24.2325 38.5222C24.1961 38.4493 24.2325 38.3764 24.2325 38.3035C24.4148 38.1576 24.998 38.2306 25.0709 38.4128C25.1074 38.4493 25.0345 38.5951 24.998 38.5951ZM24.9616 38.0847C24.8158 38.0847 24.7064 37.9025 24.5606 37.8296C24.597 37.6473 24.5606 37.465 24.6335 37.4286C25.0345 37.1734 24.8158 36.8453 24.7429 36.5173C24.67 36.1527 24.7793 36.0069 25.1438 36.0069C25.2168 36.0069 25.3261 36.1527 25.2897 36.1892C25.1074 36.5537 25.2532 36.9182 25.3626 37.2828C25.399 37.465 25.1074 38.0847 24.9616 38.0847ZM22.3734 38.0118C22.3005 38.0483 22.1911 38.0483 22.0453 38.0847C22.0818 37.9389 22.0453 37.7931 22.0818 37.7567C22.1182 37.7202 22.264 37.7202 22.3369 37.7931C22.3734 37.7931 22.4099 37.9754 22.3734 38.0118ZM23.2483 41.9488C22.9567 42.3133 22.7744 42.3133 22.4463 41.9123C22.4463 41.8759 22.4099 41.7665 22.3734 41.6207C22.4828 41.6207 22.6286 41.5842 22.7379 41.5842C22.8473 41.5842 22.9567 41.5478 23.066 41.5842C23.1389 41.5842 23.2483 41.6207 23.2847 41.6936C23.3212 41.7665 23.3212 41.8759 23.2483 41.9488ZM24.3783 43.1882C24.3419 43.2246 24.2325 43.2611 24.1961 43.2611C24.1596 43.2611 24.0867 43.2246 24.0502 43.2246C24.0867 43.1517 24.1232 43.1153 24.1596 43.0788C24.2325 43.0424 24.3054 43.0424 24.3783 43.0059C24.3783 43.0424 24.4148 43.1153 24.3783 43.1882ZM41.7665 47.2709C41.803 47.2709 41.9123 47.3439 41.9123 47.3439C41.9123 47.4168 41.8759 47.4897 41.8394 47.5626C41.7665 47.5261 41.7301 47.5261 41.5113 47.4168C41.6207 47.3439 41.6936 47.2709 41.7665 47.2709ZM38.5222 42.1675C38.7409 42.131 38.9232 42.131 39.069 42.131C38.9961 42.2769 38.9596 42.4227 38.8867 42.5685C38.8138 42.6778 38.6315 42.8237 38.5222 42.6414C38.4493 42.532 38.5222 42.3498 38.5222 42.1675ZM37.4286 44.865C37.5379 44.7921 37.5744 44.7192 37.6837 44.7192C37.7931 44.7192 37.9389 44.6828 38.0118 44.7557C38.0483 44.8286 38.0483 44.9744 38.0118 45.0838C37.9754 45.1567 37.9025 45.1931 37.8296 45.266C37.6838 45.4118 37.5015 45.5212 37.3192 45.3389C37.1005 45.0838 37.3192 44.9744 37.4286 44.865ZM35.8975 42.4591C35.934 42.131 36.2256 42.0581 36.4443 42.2769C36.5172 42.3498 36.5902 42.4227 36.6631 42.4956C36.736 42.5685 36.7724 42.6414 36.8453 42.6778C36.9182 42.7507 36.9547 42.8237 37.0276 42.8601C37.3192 43.1882 37.3192 43.1882 37.0276 43.5163C36.8818 43.6621 36.8453 43.8443 36.8818 44.0266C36.8818 44.0995 36.7724 44.1724 36.6995 44.2453C36.6266 44.1724 36.5172 44.0995 36.5172 44.0631C36.6631 43.6621 36.335 43.4434 36.1163 43.2246C35.8611 43.0059 35.8611 42.7508 35.8975 42.4591ZM35.7882 39.3241C35.8611 39.3241 35.934 39.2877 36.0434 39.2512C36.0434 39.2148 36.0434 39.2148 36.0434 39.1783C36.0434 39.1054 36.1163 38.9596 36.1527 38.9596C36.2256 38.9232 36.335 38.9961 36.4079 39.069C36.6266 39.3241 36.6631 39.6522 36.6631 39.9803C36.6631 40.0532 36.5537 40.1626 36.4808 40.1626C36.4079 40.1626 36.2985 40.0897 36.2621 40.0168C36.2256 39.9803 36.2256 39.9074 36.2256 39.8709C36.1527 39.8345 36.0798 39.8345 36.0069 39.798C35.8975 39.7616 35.7882 39.7251 35.7153 39.6887C35.6788 39.5793 35.7153 39.47 35.7882 39.3241ZM34.9862 36.8089C35.0591 36.8453 35.132 36.8453 35.2049 36.8818C35.3143 36.9547 35.4236 37.0276 35.4966 37.1005C35.4966 37.3921 35.6059 37.6108 35.2778 37.7202C34.9133 37.8296 34.8039 37.7931 34.6217 37.465C34.5852 37.3557 34.5852 37.1734 34.5852 37.0276C34.5852 36.5902 34.6217 36.5902 34.9862 36.8089ZM35.0956 25.9458C35.1685 25.9823 35.3143 26.0187 35.3143 26.0916C35.3507 26.1645 35.2778 26.2739 35.2414 26.4562C35.0956 26.3468 34.9862 26.3103 34.9862 26.2374C34.9498 26.1281 35.0591 26.0552 35.0956 25.9458ZM35.4236 27.6591C35.4601 27.6591 35.6059 27.6591 35.6788 27.732C35.7882 27.8778 35.6788 27.9507 35.5695 28.0601C35.4966 28.133 35.4966 28.2788 35.4236 28.3517C35.3507 28.4246 35.2414 28.534 35.1685 28.534C35.0956 28.534 34.9862 28.3882 34.9498 28.3153C34.8769 27.9507 34.9862 27.7685 35.4236 27.6591ZM35.4236 26.5291C35.533 26.4562 35.6059 26.3833 35.6424 26.3833C35.6788 26.3833 35.7153 26.4562 35.7517 26.4926C35.7153 26.5291 35.6788 26.602 35.6059 26.602C35.6059 26.6384 35.5695 26.602 35.4236 26.5291ZM35.2778 29.6276C35.1685 29.8099 35.132 30.1015 35.0227 30.2837C34.8039 30.6118 34.6581 30.6118 34.403 30.3202C34.2571 30.1744 34.1478 30.0286 34.002 29.8463C33.8926 29.664 33.7103 29.4453 33.5645 29.1902C33.5281 29.0808 33.5281 28.9714 33.4916 28.8621C33.601 28.8985 33.7104 28.8985 33.8197 28.935C33.8562 28.935 33.8926 28.9714 33.8926 28.9714C34.1113 29.1537 34.3301 29.1902 34.5488 28.9714C34.6946 28.8256 34.8769 28.7527 35.0591 28.935C35.2049 29.1537 35.4966 29.2995 35.2778 29.6276ZM34.5488 24.4877C34.6217 24.4512 34.6581 24.3783 34.731 24.3783C34.7675 24.3783 34.8039 24.4512 34.8769 24.4877C34.8039 24.5241 34.7675 24.597 34.6946 24.6335C34.6217 24.67 34.5488 24.6335 34.4759 24.6335C34.5123 24.597 34.5488 24.5606 34.5488 24.4877ZM34.4394 28.0237C34.4759 27.9872 34.6217 27.9872 34.6946 28.0237C34.731 28.0237 34.7675 28.1695 34.731 28.2424C34.6946 28.3153 34.5852 28.3882 34.5123 28.4975C34.4394 28.534 34.3301 28.5704 34.2571 28.6069C34.2207 28.6069 34.1113 28.4975 34.1113 28.4975C34.2207 28.2788 34.3301 28.133 34.4394 28.0237ZM33.7833 25.2897C33.7833 25.4355 33.5645 25.5084 33.4187 25.3626C33.3094 25.2897 33.2365 25.1803 33.1636 25.0709C33.0906 24.998 33.0542 24.9251 32.9813 24.8522C33.0542 24.7793 33.1271 24.7429 33.2729 24.67C33.3823 24.7064 33.5645 24.7064 33.601 24.7793C33.7104 24.9251 33.7468 25.1074 33.7833 25.2897ZM33.2 27.1852C33.1271 27.1852 33.0542 27.1488 32.9813 27.1123C32.9448 27.0759 32.9813 27.003 32.9813 26.8936C33.0906 26.9301 33.1635 26.9665 33.2 27.003C33.2365 27.0394 33.2 27.1123 33.2 27.1852ZM32.799 19.0562C32.8719 19.0197 32.9813 18.9833 33.1636 18.9103C33.2365 18.9103 33.4187 18.9103 33.4916 18.9833C33.601 19.1291 33.5281 19.2384 33.3823 19.3478C33.3094 19.4207 33.3094 19.5665 33.2365 19.603C33.1271 19.6759 33.0177 19.6759 32.9084 19.6759C32.8719 19.6759 32.8355 19.5665 32.7626 19.5301C32.6532 19.4571 32.5438 19.3478 32.4345 19.2749C32.5438 19.2384 32.6532 19.1291 32.799 19.0562ZM33.601 28.133C33.6739 28.133 33.7833 28.0966 33.8562 28.0966C33.9291 28.0966 34.002 28.1695 34.002 28.2059C34.002 28.2788 33.9655 28.3882 33.9291 28.4246C33.7103 28.4975 33.5281 28.5704 33.3094 28.6434C32.9813 28.7163 32.6168 28.7163 32.5074 29.1537C32.4709 29.2631 32.1064 29.336 31.9241 29.336C31.8512 29.336 31.7419 29.0808 31.7054 28.935C31.6325 28.7163 31.7783 28.6434 31.9606 28.534C32.07 28.4975 32.1429 28.4246 32.2522 28.3882C32.6897 28.2788 33.1636 28.2059 33.601 28.133ZM32.4709 32.9813C32.2522 33.0542 32.1429 32.9813 32.0335 32.8355C31.7783 32.5438 31.5232 32.2522 31.3044 31.9606C31.1222 31.7419 30.9399 31.5232 30.7576 31.3044C30.5754 31.0857 30.2837 30.9035 30.5025 30.5389C30.5389 30.5025 30.4296 30.3567 30.3931 30.2837C30.2837 30.1379 30.1744 30.0286 30.1015 29.8463V29.8099C29.7369 29.8828 29.3724 29.9921 29.0443 30.1015C28.8256 30.1744 28.534 30.1744 28.5704 30.5389C28.5704 30.5754 28.4611 30.6483 28.3882 30.6847C28.3517 30.6847 28.2788 30.6118 28.2424 30.5754C28.133 30.3931 28.0966 30.2108 28.1695 30.1015C28.1695 30.0286 28.1695 29.9557 28.133 29.8828C28.2424 29.8828 28.3517 29.8828 28.3882 29.9192C28.3882 29.9192 28.4246 29.9192 28.4246 29.8828C28.5704 29.8099 28.7163 29.7734 28.7892 29.5547C28.7892 29.4818 28.935 29.3724 29.0443 29.336C29.2266 29.2631 29.4089 29.2266 29.5911 29.1902C29.7369 29.1537 29.8828 29.1172 30.0286 29.0808C30.3931 29.0079 30.4296 29.0808 30.5025 29.4089C30.5025 29.4453 30.5025 29.4453 30.5025 29.4818C30.5754 29.4818 30.6483 29.4453 30.6847 29.4089C30.867 29.2995 31.0493 29.1902 31.2315 29.0808C31.4867 28.9714 31.7783 29.1172 31.8148 29.4089C31.8148 29.4453 31.7054 29.5547 31.6325 29.5547C31.1951 29.5547 31.268 29.5547 31.1586 29.9557C31.0857 30.3202 31.1586 30.5389 31.4138 30.7576C31.5961 30.9399 31.7783 31.1586 31.669 31.4867C31.6325 31.5596 31.7054 31.669 31.7054 31.7783C31.8148 31.7783 31.8877 31.7783 31.997 31.7419C32.5074 31.5596 32.5803 31.5596 32.8355 31.8512C33.1271 32.1793 32.9448 32.799 32.4709 32.9813ZM32.5438 37.866C32.5074 37.9389 32.4709 38.0118 32.398 38.0118C32.3616 38.0118 32.2887 37.9754 32.1793 37.9389C32.2887 37.866 32.3251 37.7931 32.398 37.7567C32.4345 37.7567 32.4709 37.8296 32.5438 37.866ZM31.5961 34.1478C31.5961 34.1842 31.5232 34.3301 31.4867 34.3301C31.4138 34.3301 31.3409 34.2572 31.2315 34.2207C31.3044 34.1113 31.3773 34.002 31.4138 34.0384C31.4503 34.002 31.5596 34.0749 31.5961 34.1478ZM31.1222 35.9705C31.1222 36.0069 31.0857 36.1163 31.0493 36.1163C31.0128 36.1527 30.9399 36.0798 30.867 36.0434C30.9399 35.9705 30.9764 35.8975 31.0128 35.8611C31.0128 35.8611 31.1222 35.934 31.1222 35.9705ZM28.8985 28.2424C28.9714 28.4975 28.8621 28.8256 28.7163 28.7892C28.5704 28.7527 28.4975 28.6069 28.3517 28.4611C28.4246 28.3153 28.4611 28.2059 28.534 28.0966C28.4611 28.0237 28.3517 28.0601 28.2424 28.0237C28.0966 27.9872 27.9507 27.9507 27.8414 27.8778C27.5133 27.5862 27.5498 27.4769 27.8778 27.1852C28.0236 27.0759 28.133 27.0394 28.3517 27.1488C28.5704 27.2581 28.8621 27.1123 29.0808 27.4039C29.2631 27.6591 29.1537 27.8049 29.0443 28.0237C29.0079 28.0966 28.935 28.133 28.8985 28.1695C28.8621 28.1695 28.8621 28.2059 28.8985 28.2424ZM27.9143 35.4601C27.9143 35.533 27.8778 35.6059 27.8049 35.7517C27.6956 35.6424 27.5862 35.6059 27.5862 35.533C27.5862 35.4601 27.6591 35.3872 27.732 35.3507C27.8049 35.3143 27.9143 35.4237 27.9143 35.4601ZM27.6956 31.1586C27.732 31.2315 27.6956 31.3044 27.6956 31.4503C27.5862 31.3773 27.5133 31.3409 27.5133 31.3044C27.5133 31.2315 27.5498 31.1586 27.5498 31.0857C27.5862 31.0857 27.6591 31.1222 27.6956 31.1586ZM27.6956 37.137C27.7685 37.064 27.9143 37.1005 28.0601 37.064C28.0601 37.2099 28.0236 37.3192 27.9872 37.5379C27.7685 37.5379 27.6227 37.5379 27.4769 37.5379C27.5498 37.3921 27.5862 37.2463 27.6956 37.137ZM29.4818 23.4305C29.4089 23.4305 29.3724 23.4305 29.2631 23.4305C29.2631 23.3212 29.2995 23.2483 29.2995 23.1754C29.3724 23.1754 29.4453 23.1754 29.4818 23.2118C29.4818 23.2847 29.4818 23.3576 29.4818 23.4305ZM29.7369 28.7892C29.7005 28.935 29.7005 29.0443 29.6276 29.0808C29.5547 29.1172 29.4089 29.0808 29.3724 29.0443C29.336 29.0079 29.3724 28.8256 29.4089 28.7892C29.4818 28.7527 29.5911 28.7892 29.7369 28.7892ZM31.5961 26.0916C31.5961 26.0187 31.5961 25.9458 31.6325 25.8729C31.669 25.8 31.7054 25.7271 31.7783 25.6542C31.8512 25.5813 31.9606 25.5084 32.07 25.5084C32.1064 25.5084 32.2158 25.6177 32.2158 25.6906C32.2158 25.8 32.1429 25.9094 32.1064 25.9458C31.9606 26.0187 31.8877 26.0552 31.8148 26.0916C31.7419 26.0916 31.669 26.0916 31.5961 26.0916ZM30.9764 17.4522C31.0857 17.2335 31.2315 17.0148 31.4138 16.7961C31.4138 16.7596 31.5596 16.7596 31.5596 16.7961C31.7054 17.0877 31.997 17.0512 32.2158 17.197C32.3251 17.27 32.3616 17.5251 32.3251 17.6709C32.2887 17.7803 32.1064 17.8532 31.9606 17.9626C31.669 17.8897 31.3773 17.7803 31.0857 17.6709C30.9764 17.6345 30.9399 17.4887 30.9764 17.4522ZM30.8305 19.603C30.9399 19.603 31.0493 19.7488 31.2315 19.8581C31.1222 20.0404 31.0857 20.2591 31.0128 20.2956C30.7576 20.3685 30.7941 20.1133 30.7212 19.9675C30.6847 19.8217 30.6118 19.603 30.8305 19.603ZM30.466 24.9616C30.5389 25.0345 30.6483 25.1438 30.7576 25.2532C30.6847 25.399 30.6483 25.5448 30.5754 25.6906C30.5389 25.8 30.466 25.8729 30.4296 25.9823C30.3567 26.1645 29.9921 26.3468 29.8099 26.2374C29.7734 26.201 29.7369 26.1281 29.7369 26.0916C29.8828 25.8 30.065 25.4719 30.2473 25.1803C30.2837 25.1074 30.3931 25.0345 30.466 24.9616ZM30.1379 19.4936C30.2473 19.6759 30.3931 19.8946 30.1744 20.0768C30.1379 20.1133 30.0286 20.1498 30.0286 20.1862C29.8828 20.6601 29.7005 20.5872 29.3724 20.332C29.1901 20.1862 29.0808 20.1498 29.2995 19.9675C29.3724 19.931 29.4089 19.8217 29.4089 19.7488C29.3724 19.4571 29.5911 19.4207 29.8828 19.3478C29.9192 19.3842 30.065 19.4207 30.1379 19.4936ZM28.5704 16.3222C28.6434 16.1764 28.8256 16.067 28.9714 15.9576C29.1172 15.9576 29.2266 15.9576 29.2995 15.9941C29.4453 16.0305 29.5911 16.067 29.7005 16.1034C29.6276 16.2128 29.5911 16.3222 29.5182 16.4315C29.4818 16.5044 29.4818 16.5773 29.4453 16.6502C29.336 16.869 29.1902 16.9419 28.9714 16.7596C28.935 16.7232 28.8985 16.6502 28.8256 16.6138C28.7163 16.5409 28.4975 16.5044 28.5704 16.3222ZM28.0966 18.1813C28.0966 18.0719 28.2788 17.9626 28.3517 17.8897C28.5704 17.8897 28.7163 17.8532 28.8256 17.8532C29.1901 17.8532 29.2631 17.9261 29.336 18.2542C29.336 18.3635 29.2995 18.4729 29.2631 18.5823C29.1902 18.5458 29.0808 18.5458 29.0079 18.5094C28.8256 18.4729 28.6798 18.4 28.4975 18.3635C28.3517 18.3271 28.0966 18.4365 28.0966 18.1813ZM28.0601 20.2227C28.2424 20.1862 28.3517 20.1498 28.3882 20.1862C28.4611 20.2227 28.4975 20.332 28.534 20.4049C28.3517 20.5143 28.1695 20.6236 27.9872 20.733C27.9507 20.733 27.7685 20.5507 27.7685 20.5143C27.8778 20.3685 27.9872 20.2591 28.0601 20.2227ZM27.8778 21.7902C27.9143 21.8995 27.9507 21.936 27.9507 21.936C27.9872 22.0818 28.0601 22.264 28.0966 22.4099C28.0601 22.4099 27.9872 22.4463 27.9507 22.4463C27.7685 22.3005 27.6227 22.1182 27.4769 21.936C27.4404 21.8995 27.5498 21.7172 27.6227 21.7172C27.6956 21.6808 27.8049 21.7537 27.8778 21.7902ZM27.0759 19.7488C27.1123 19.7123 27.1852 19.6759 27.2946 19.6394C27.4039 19.603 27.5133 19.603 27.6227 19.5665C27.6227 19.6759 27.5862 19.7488 27.5862 19.8581C27.5862 19.9675 27.5498 20.0404 27.5498 20.1498C27.5498 20.2591 27.5498 20.3685 27.5133 20.4778C27.4039 20.4414 27.2946 20.3685 27.2217 20.332C26.8936 20.1133 26.8571 19.9675 27.0759 19.7488ZM26.3103 20.3685C26.4197 20.5507 26.6384 20.5507 26.7478 20.6236C26.8936 20.7695 26.8936 21.0246 26.9301 21.2434C26.9301 21.2798 26.8207 21.3163 26.7842 21.3527C26.5291 21.3892 26.0916 21.0611 26.0552 20.8059C26.0552 20.6966 26.0187 20.5872 26.0187 20.5143C26.0187 20.332 26.201 20.2227 26.3103 20.3685ZM25.7271 24.3783C25.8729 24.269 25.9823 24.3783 26.0552 24.4877C26.4926 24.998 26.9301 25.5084 27.3675 25.9823C27.5133 26.1281 27.5862 26.2739 27.4039 26.4197C27.2581 26.5655 27.1123 26.4562 27.003 26.3468C26.7842 26.0916 26.5655 25.8 26.3103 25.5448C26.0916 25.2897 25.8729 25.0345 25.6542 24.7793C25.6177 24.6335 25.5448 24.4877 25.7271 24.3783ZM26.8571 29.1172C26.9301 29.0079 26.9665 28.8985 27.003 28.8985C27.0759 28.8985 27.1852 28.9714 27.2217 29.0079C27.2217 29.0079 27.1852 29.1902 27.1488 29.1902C27.0759 29.1902 26.9665 29.1537 26.8571 29.1172ZM27.0759 30.5025C27.0759 30.5389 26.8936 30.6118 26.7842 30.5754C26.6749 30.5389 26.602 30.3931 26.5291 30.3567C26.3833 30.3202 26.201 30.3202 26.2374 30.1015C26.2739 29.9921 26.4197 29.9557 26.5291 29.8463C26.6749 29.8828 26.8936 29.8828 26.9301 29.9557C27.0394 30.1015 27.0759 30.3202 27.0759 30.5025ZM25.4719 27.0759C25.3626 26.8571 25.3261 26.6749 25.6177 26.5291C25.6906 26.4926 25.7271 26.3833 25.7636 26.2739C25.9094 25.9458 26.3103 25.9094 26.5655 26.1645C26.6384 26.2374 26.6749 26.2739 26.7478 26.3103C26.8207 26.3833 26.9301 26.4197 27.003 26.4562C26.9301 26.5291 26.8571 26.5655 26.7842 26.6384C26.6384 26.7842 26.4926 26.9301 26.3103 27.0759C26.2374 27.1488 26.1281 27.1852 26.0187 27.2581C25.7635 27.4039 25.5813 27.2946 25.4719 27.0759ZM25.8 35.4601C25.8 35.4237 25.9458 35.3143 25.9823 35.3143C26.2374 35.4237 26.4926 35.5695 26.7478 35.7153C26.7842 35.7153 26.7478 35.8975 26.6749 35.934C26.5655 36.0069 26.4562 36.0434 26.2739 36.1163C26.201 36.1163 25.9823 36.1163 25.9094 36.0434C25.8365 35.8975 25.8365 35.6788 25.8 35.4601ZM27.8778 39.2148C27.6227 39.2512 27.2946 39.2512 27.2946 39.6522C27.2946 39.7251 27.1488 39.798 27.0759 39.798C26.6749 39.8345 26.201 39.3241 26.2739 38.9596C26.2739 38.8503 26.4197 38.7409 26.5291 38.7044C26.7113 38.6315 26.9301 38.4857 27.1488 38.7044C27.4769 38.9961 27.8049 38.9232 27.9507 38.5586C28.0601 38.3035 28.8256 38.0483 29.0443 38.2306C29.1902 38.3399 29.2995 38.4493 29.5182 38.4493C29.5911 38.4493 29.7005 38.5951 29.7005 38.668C29.7005 38.7409 29.6276 38.8867 29.5547 38.8867C29.2995 38.9596 29.0443 39.0325 28.8256 39.069V39.1054C28.4611 39.1419 28.1695 39.1419 27.8778 39.2148ZM30.0286 39.1419C29.9921 39.1783 29.9557 39.2148 29.8828 39.2512C29.7369 39.3241 29.6276 39.5793 29.4453 39.3606C29.2995 39.1783 29.5182 39.069 29.6276 38.9596C29.664 38.9232 29.7005 38.8867 29.7369 38.8503C29.8463 38.8138 30.0286 38.7773 30.1015 38.8138C30.2473 38.9232 30.1379 39.0325 30.0286 39.1419ZM29.9192 35.7882C29.9557 35.7517 30.0286 35.7153 30.0286 35.7153C30.1015 35.7153 30.2108 35.7517 30.2837 35.8246C30.2837 35.8246 30.2837 35.8975 30.2837 35.9705C30.2108 35.934 30.1015 35.934 30.0286 35.8975C29.9921 35.8611 29.9557 35.8246 29.9192 35.7882C29.7369 35.8975 29.5911 35.934 29.5182 35.8975C29.5182 35.8975 29.5182 35.934 29.4818 35.934C29.5547 35.9704 29.6276 36.0434 29.7005 36.0798C29.9192 36.1892 30.1015 36.4808 30.0286 36.736C29.9921 36.8818 29.8099 36.9911 29.664 37.1005C29.3724 37.137 29.2266 37.064 29.1172 36.8453C29.0079 36.6631 28.8621 36.6995 28.7892 36.8818C28.7163 36.9911 28.7892 37.2099 28.5704 37.137C28.4246 37.1005 28.2424 36.6266 28.3517 36.5173C28.6434 36.2621 28.534 36.0069 28.4611 35.7153C28.4246 35.4601 28.2788 35.2049 28.6434 35.0227C28.7892 34.9498 28.7892 34.6946 28.935 34.6217C29.0079 34.5852 29.1172 34.731 29.2266 34.8039C29.2266 34.7675 29.2995 34.731 29.336 34.731C29.4453 34.731 29.5547 34.7675 29.6276 34.8404C29.9557 34.8404 30.3202 34.8039 30.466 34.3301C30.466 34.2936 30.6483 34.2572 30.6483 34.2936C30.867 34.5852 30.9764 34.9133 30.9035 35.2414C30.867 35.4237 30.7212 35.4601 30.5754 35.3143C30.2837 35.0591 30.3202 35.0956 30.1015 35.3507C30.0286 35.4601 29.9192 35.4966 29.7734 35.5695C29.8463 35.6788 29.8828 35.7153 29.9192 35.7882ZM31.4503 41.402C31.4138 41.4384 31.1951 41.4749 31.1586 41.402C31.0857 41.3291 31.1222 41.1833 31.0857 41.001C31.268 41.0374 31.4503 41.0374 31.4867 41.0739C31.4867 41.1468 31.4867 41.3291 31.4503 41.402ZM31.7419 38.4493C31.7419 38.7044 31.4503 38.7774 31.268 38.7409C31.0128 38.7044 30.7576 38.5951 30.5389 38.4493C30.466 38.4128 30.466 38.267 30.3931 38.0847C30.4296 38.0118 30.3931 37.7567 30.5025 37.7202C30.7212 37.6108 30.9764 37.465 31.1951 37.7202C31.268 37.7931 31.3409 37.866 31.4503 37.866C31.7783 37.9389 31.7419 38.2306 31.7419 38.4493ZM31.5596 37.6108C31.5596 37.5379 31.5232 37.465 31.5232 37.3921C31.5596 37.3192 31.6325 37.2828 31.669 37.2099C31.7419 37.1734 31.8148 37.1005 31.8877 37.064C31.9606 37.064 32.0335 37.1005 32.1064 37.1005C32.07 37.2099 32.0335 37.3557 31.9606 37.4286C31.8512 37.5379 31.7054 37.5744 31.5596 37.6108ZM32.5074 38.7409C32.3616 38.8138 32.2158 38.8138 32.0335 38.8503C32.1064 38.7044 32.1429 38.5222 32.2158 38.4128C32.2522 38.3399 32.4345 38.3764 32.6897 38.3399C32.6168 38.5951 32.5803 38.7044 32.5074 38.7409ZM34.1478 37.4286C34.0384 37.5379 33.8926 37.6108 33.7833 37.5744C33.7468 37.6108 33.7468 37.6473 33.7103 37.6838C33.6739 37.7202 33.601 37.6473 33.5645 37.6108C33.5645 37.5744 33.601 37.5379 33.6374 37.465C33.5645 37.3921 33.4916 37.3192 33.3823 37.2463C33.2729 37.0276 33.0177 36.8089 33.2 36.4808C33.2 36.4443 33.2365 36.4079 33.2365 36.3714C33.2365 36.2256 33.2365 36.1163 33.2365 35.9705C33.3823 36.0434 33.5281 36.1163 33.6374 36.2256C33.8562 36.4443 34.0384 36.6995 34.2571 36.9182C34.403 37.137 34.3301 37.2828 34.1478 37.4286ZM36.2985 33.5645C36.1527 33.601 36.0798 33.6739 36.0069 33.8562C35.8975 34.1113 35.7153 34.3301 35.533 34.5123C35.4966 34.5488 35.3507 34.5123 35.3143 34.4759C35.2414 34.403 35.2049 34.2936 35.1685 34.2207C35.0956 34.1113 34.9862 33.9291 34.8769 33.9291C34.6581 33.9291 34.4394 33.9291 34.3301 34.2207C34.2936 34.3301 34.1842 34.403 34.1478 34.4759C34.1113 34.4394 34.1113 34.4394 34.0749 34.403C34.0384 34.4759 33.9655 34.5488 33.8926 34.5852C33.8197 34.6581 33.6374 34.6217 33.5281 34.5852C33.4187 34.5488 33.3823 34.4394 33.2365 34.2936C33.2 34.3665 33.1271 34.4394 33.1271 34.5123C33.0906 34.6946 33.0177 34.8404 32.8355 34.8039C32.7261 34.7675 32.6168 34.6217 32.6168 34.5852C32.5074 34.2571 32.4709 34.0749 32.7626 33.9655C32.799 33.9655 32.8355 33.8926 32.8719 33.8562C32.9448 33.7833 32.8719 33.5281 33.0542 33.5281C33.0906 33.4187 33.0906 33.2729 33.0177 33.1636C33.1271 33.1271 33.2365 33.0542 33.3094 33.0906C33.4916 33.2 33.6374 33.3094 33.7468 33.4552C33.7833 33.3823 33.7833 33.3458 33.8562 33.2729C33.8926 33.2365 34.0384 33.3094 34.0749 33.3458C34.2207 33.5645 34.403 33.4916 34.5852 33.4552C34.9862 33.3458 35.4237 33.2365 35.8246 33.1636C36.0434 33.1271 36.2256 33.0542 36.2256 32.799C36.2256 32.7261 36.335 32.6532 36.3714 32.6532C36.4443 32.6532 36.5172 32.7261 36.5537 32.7626C36.8453 33.2729 36.7724 33.4552 36.2985 33.5645ZM36.9911 31.5596C36.9182 31.5961 36.8089 31.6325 36.7724 31.5961C36.3714 31.4138 36.0069 31.3409 35.5695 31.5232C35.4236 31.5961 35.0956 31.0493 35.2049 30.9035C35.2414 30.867 35.3507 30.8305 35.3872 30.867C35.7517 31.0857 35.8975 30.7576 36.0798 30.5754C36.1163 30.5389 36.0434 30.3931 35.9704 30.3202C35.934 30.2837 35.8246 30.3567 35.7882 30.3202C35.7153 30.2473 35.6424 30.1379 35.6059 30.065C35.6788 30.0286 35.7882 29.9557 35.8611 29.9557C36.4808 30.0286 36.4808 30.0286 36.9911 30.5754C37.0276 30.6118 37.1369 30.7212 37.2099 30.8305C37.3557 31.0857 37.3192 31.3409 36.9911 31.5596ZM36.6995 27.2581C36.9182 27.2217 37.0276 27.331 37.1005 27.6591C37.1734 28.0237 37.1369 28.133 36.8453 28.2059C36.4808 28.2788 36.2985 28.1695 36.1892 27.7685C36.1892 27.5498 36.4079 27.2946 36.6995 27.2581ZM37.3921 24.3419C37.2099 24.4148 36.9547 24.5241 36.7724 24.4512C36.5172 24.3419 36.3714 24.3054 36.2985 24.597C36.2621 24.7064 36.1527 24.7793 36.0434 24.8158C35.8975 24.8522 35.6424 24.8522 35.6059 24.7793C35.4601 24.5606 35.7517 24.5241 35.8611 24.4148C36.1163 24.1232 36.4808 23.9409 36.5537 23.5035C36.5537 23.4305 36.6631 23.3576 36.736 23.3576C36.8818 23.3212 37.4286 23.7586 37.5015 23.9773C37.4286 24.0867 37.465 24.3054 37.3921 24.3419ZM46.7241 25.5813C46.7606 25.4719 46.7606 25.3626 46.7971 25.2532C46.8335 25.1438 46.8335 25.0345 46.9064 24.998C46.9793 24.9616 47.0887 25.0345 47.1616 25.0709C47.2709 25.1438 47.3438 25.2168 47.3803 25.2897C47.7084 25.6906 47.7084 25.9458 47.4168 26.2374C47.3438 26.2739 47.2709 26.3468 47.198 26.3468C46.9793 26.3104 46.6512 25.8 46.7241 25.5813ZM41.6207 27.3675C41.5842 27.4404 41.5842 27.5133 41.5478 27.5862C41.5478 27.6227 41.402 27.5862 41.3655 27.5498C41.3291 27.5133 41.2926 27.4404 41.2562 27.331C41.4749 27.331 41.5478 27.3675 41.6207 27.3675ZM39.4335 26.8936C39.47 26.8936 39.4335 26.9665 39.4335 27.0394C39.3606 27.0394 39.3241 27.0394 39.2512 27.0394C39.2148 27.0394 39.2512 26.9665 39.2512 26.8571C39.3241 26.8571 39.397 26.8571 39.4335 26.8936ZM37.9754 27.0759C38.0118 27.0394 38.1576 27.0759 38.1941 27.1488C38.267 27.2217 38.267 27.331 38.3035 27.4404C38.3035 27.5133 38.3035 27.6227 38.267 27.732C38.267 27.7685 38.1212 27.8049 38.1212 27.8049C38.0483 27.6591 37.9389 27.5133 37.9025 27.331C37.866 27.2217 37.9389 27.1123 37.9754 27.0759ZM37.8296 32.5074C37.9754 32.5803 38.0847 32.5803 38.1212 32.6168C38.1576 32.6532 38.1212 32.799 38.0847 32.8355C38.0118 32.8719 37.866 32.8719 37.8296 32.799C37.7567 32.799 37.7931 32.6532 37.8296 32.5074ZM38.1941 36.6631C38.1576 36.6631 38.0483 36.6266 38.0118 36.5902C37.9389 36.3714 37.9025 36.1892 37.8296 35.9705C37.8296 35.934 37.9025 35.8246 37.9389 35.8246C38.0118 35.8246 38.1212 35.8611 38.1576 35.8975C38.2305 36.0069 38.2305 36.1163 38.3035 36.2256C38.3035 36.2985 38.3399 36.4079 38.3399 36.5173C38.3399 36.5902 38.267 36.6266 38.1941 36.6631ZM38.267 34.4759C38.1576 34.5123 37.9754 34.4759 37.9389 34.403C37.866 34.2571 37.8296 34.0749 37.7931 33.8926C37.9754 33.9655 38.1212 34.002 38.3764 34.1113C38.3035 34.2572 38.3035 34.4394 38.267 34.4759ZM38.0118 26.3468C38.0483 26.201 38.0847 26.0916 38.0847 26.0187C38.2305 25.9094 38.3035 25.8729 38.3764 25.8365C38.5951 25.7636 38.7044 25.9094 38.7409 26.0916C38.7409 26.1281 38.6315 26.2374 38.5586 26.3103C38.5222 26.3468 38.4493 26.3468 38.3764 26.3833C38.2305 26.3468 38.1212 26.3468 38.0118 26.3468ZM39.2512 33.6374C39.1783 33.6374 39.069 33.6374 38.9961 33.5645C38.9596 33.5281 38.9961 33.4187 39.0325 33.3094C39.1419 33.3823 39.2512 33.3823 39.3241 33.4552C39.3241 33.4552 39.2877 33.6374 39.2512 33.6374ZM39.7251 29.5182C39.3606 29.7005 38.9596 29.7734 38.5951 29.8463C38.5586 29.8463 38.4493 29.5547 38.4493 29.4089C38.4493 29.2995 38.5586 29.1537 38.6315 29.1172C38.7773 29.0443 38.9596 29.0079 39.1054 28.9714V28.935C39.3241 28.8985 39.5429 28.8621 39.7616 28.8256C39.798 28.8256 39.9074 28.935 39.9074 28.9714C39.8345 29.1537 39.8345 29.4818 39.7251 29.5182ZM40.199 26.8571C40.1261 26.8936 40.0532 26.8207 39.9074 26.7842C39.9803 26.6749 40.0532 26.5655 40.0897 26.5291C40.1626 26.5291 40.2355 26.602 40.3084 26.6384C40.2719 26.7113 40.2355 26.8207 40.199 26.8571ZM40.2719 25.6177C40.3084 25.5448 40.3084 25.4719 40.3448 25.399C40.3813 25.3626 40.4542 25.399 40.5636 25.399C40.5271 25.5084 40.4906 25.5813 40.4542 25.6177C40.4177 25.6177 40.3448 25.6177 40.2719 25.6177ZM40.7094 29.3724C40.6729 29.4089 40.6 29.2995 40.4542 29.2631C40.5636 29.1537 40.6365 29.0443 40.7458 29.0079C40.7823 29.0079 40.8916 29.1172 40.9281 29.1537C40.8552 29.2266 40.7823 29.336 40.7094 29.3724ZM41.1468 30.065C41.0374 29.9192 40.9645 29.7005 40.8552 29.5182C40.9281 29.4818 41.0374 29.4453 41.0739 29.4453C41.2562 29.664 41.6571 29.2266 41.7301 29.6276C41.7665 29.7005 41.5842 29.8463 41.4749 29.9921C41.402 30.0286 41.2197 30.1379 41.1468 30.065ZM41.8759 32.1429C41.8394 32.1793 41.7665 32.1793 41.5842 32.2522C41.5113 32.2158 41.3291 32.1793 41.2926 32.1064C41.2197 31.8877 41.4384 31.8877 41.5842 31.8512C41.6207 31.8512 41.6936 31.8148 41.7301 31.8148C41.8394 31.8512 41.9123 31.8877 42.0217 31.9241C41.9852 31.9971 41.9123 32.1064 41.8759 32.1429ZM42.6049 28.7892C42.5685 28.935 42.0217 29.1537 41.8759 29.0443C41.7665 28.9714 41.7301 28.7892 41.6572 28.7163C41.6572 28.534 41.6207 28.4246 41.6207 28.3153C41.6207 28.1695 41.6572 28.0237 41.6572 27.8778C41.7665 27.9507 41.8759 28.0601 41.9852 28.0966C42.0581 28.133 42.131 28.133 42.2404 28.1695C42.4956 28.2059 42.6778 28.5704 42.6049 28.7892ZM42.933 27.003C42.8601 27.0394 42.7507 27.0394 42.6778 27.0394C42.6778 26.9665 42.6414 26.8207 42.6778 26.7842C42.7143 26.7478 42.8601 26.7478 42.9695 26.7478C42.933 26.8571 42.9695 26.9665 42.933 27.003ZM45.1567 25.4355C45.1567 25.5448 45.1931 25.6177 45.1931 25.6906C45.1202 25.6906 45.0108 25.6906 44.9744 25.6542C44.9379 25.5813 44.9379 25.4719 44.9015 25.399C45.0108 25.4355 45.0837 25.4355 45.1567 25.4355ZM44.6099 28.0601C45.2296 28.7163 45.1931 28.7892 44.3911 29.2995C44.136 29.4453 43.9537 29.7005 43.735 29.8828C43.6256 29.9557 43.4798 30.0286 43.3704 29.9921C43.1882 29.9192 43.2611 29.7734 43.2975 29.5911C43.334 29.2266 43.3704 28.935 43.6985 28.7163C43.735 28.7163 43.735 28.6798 43.735 28.6434C43.6621 28.6798 43.6256 28.6798 43.5527 28.7163C43.4798 28.7163 43.4069 28.7892 43.2975 28.7892C43.2246 28.7892 43.0788 28.7527 43.0424 28.6798C43.0059 28.6069 43.0059 28.4975 43.0424 28.3882C43.1153 28.2424 43.1882 28.0966 43.2975 27.9872C43.3705 27.9143 43.4798 27.8414 43.5527 27.8049C43.6256 27.8049 43.6621 27.8049 43.735 27.7685C43.7714 27.6956 43.8079 27.5862 43.8808 27.5498C43.9172 27.5133 44.0995 27.5498 44.136 27.6227C44.1724 27.6591 44.2089 27.6956 44.2453 27.732C44.464 27.6956 44.5369 27.7685 44.6099 28.0601ZM44.3547 25.6542C44.3911 25.6906 44.3182 25.7636 44.2818 25.8729C44.2089 25.8 44.136 25.7636 44.136 25.6906C44.136 25.6542 44.1724 25.5813 44.2089 25.5084C44.2453 25.5448 44.3547 25.5813 44.3547 25.6542Z" fill="#FEFEFE"/>
<path d="M41.2196 42.4589L40.928 40.855C40.8551 40.8914 40.7822 40.8914 40.7093 40.9279C40.6728 40.9279 40.6364 40.9643 40.5635 40.9643C40.5999 41.0008 40.5999 41.0372 40.6364 41.0372C40.8186 41.3653 41.1832 41.6205 41.0009 42.0944C40.9645 42.2037 41.0738 42.3496 41.2196 42.4589Z" fill="#FEFEFE"/>
<path d="M38.5586 39.9436C38.4857 39.8343 38.4128 39.7614 38.3398 39.6885C38.3763 39.8343 38.4492 39.9072 38.5586 39.9436Z" fill="#FEFEFE"/>
<path d="M46.396 28.2425L46.7605 27.8779C46.7241 27.8779 46.6876 27.8779 46.6512 27.9144C46.4689 27.9144 46.4689 28.1331 46.396 28.2425Z" fill="#FEFEFE"/>
</g>
<defs>
<clipPath id="clip0_0_1322">
<rect width="60" height="60" fill="white"/>
</clipPath>
</defs>
</svg>
