<svg width="20" height="20" viewBox="0 0 20 20" fill="none" xmlns="http://www.w3.org/2000/svg">
<g clip-path="url(#clip0_0_1490)">
<path d="M10.7 9.8C10.7 9.7 10.8 9.5 10.8 9.3C10.9 9.3 10.9 9.4 11 9.4V9H9V11.3C9.1 11.4 9.2 11.5 9.2 11.6C9.2 11.6 9.1 11.8 9 11.9V15H11V10.3C10.9 10.1 10.7 10 10.7 9.8ZM10.6 14.6C10.6 14.7 10.4 14.7 10.3 14.7C10.2 14.7 10.1 14.6 10.1 14.6C10 14.3 10.5 13.7 10.7 13.7C10.8 13.7 10.9 13.8 10.9 13.9C10.8 14.2 10.7 14.4 10.6 14.6Z" fill="#171026"/>
<path d="M9 6.8V7H9.7C9.5 6.9 9.2 6.9 9 6.8Z" fill="#171026"/>
<path d="M0.599902 13.5C0.599902 13.3 0.499902 13.2 0.399902 13C0.499902 13.1 0.599902 13.3 0.599902 13.5Z" fill="#171026"/>
<path d="M4.3 1.8C4.6 1.9 4.8 1.9 5.2 1.8C5.5 1.7 5.9 1.6 6.2 1.9C6.3 2 6.4 2 6.6 2C6.6 1.9 6.7 1.8 6.7 1.6C6.8 0.9 6.8 0.8 7.3 0.7C7.9 0.5 8.6 1.1 8.5 1.8C8.5 2.1 8.3 2.2 8.1 2.3C7.6 2.4 7.1 2.5 6.6 2.7C6.2 2.7 5.9 2.8 5.5 2.9C5.2 3 4.8 3.2 4.5 2.7C4.5 2.6 4.2 2.7 4.1 2.7C3.9 2.7 3.6 2.8 3.4 2.8C3.3 2.8 3.2 2.8 3.1 2.8L3 2.9C1.3 4.6 0.3 6.8 0 9.1C0.1 9.1 0.2 9.2 0.2 9.3C0.2 9.4 0.1 9.5 0.1 9.7C0.1 9.7 0 9.7 0 9.6C0 9.7 0 9.9 0 10V10.1C0.5 10.1 0.8 10.7 0.7 11.1C0.6 11.4 0.6 11.8 0.6 12.1C0.6 12.2 0.7 12.3 0.8 12.3C1.2 12.2 1.5 12.4 1.9 12.5C2.4 12.5 2.4 12.5 2.1 13C1.8 13.5 1.4 13.8 0.9 14C1.4 15.2 2.1 16.2 3 17.1C3.9 18 5 18.8 6.2 19.3C6.3 19.3 6.4 19.4 6.6 19.4C6.4 19.2 6.2 18.9 6 18.7C5.8 18.5 5.7 18.3 5.5 18.1C5.3 17.9 5.2 17.6 4.7 17.8C4.4 17.9 4.3 17.7 4.4 17.4C4.6 17.1 4.5 16.9 4.3 16.6C4.2 16.4 4 16.2 4.2 16.1C4.3 16 4.6 16.2 4.7 16.3C4.9 16.5 5.1 16.8 5.3 17C5.5 17.3 5.7 17.6 6.2 17.4C6.3 17.4 6.4 17.4 6.5 17.5C6.9 17.9 7.2 18.3 7.5 18.8C7.8 19.2 7.4 19.4 7.3 19.6C7.3 19.6 7.2 19.6 7.2 19.7C7.4 19.8 7.6 19.8 7.7 19.8C7.7 19.7 7.6 19.6 7.6 19.5C7.6 19 8 19.1 8.3 18.9C8.4 18.9 8.7 19 8.8 19.1C8.9 19.3 8.8 19.6 8.6 19.8C9 20 9.5 20 10 20C12.7 20 15.2 18.9 17.1 17.1C17.4 16.8 17.7 16.4 18 16C18 15.9 18 15.9 18 15.8H18.1C18.9 14.8 19.4 13.6 19.7 12.3C19.6 12.3 19.4 12.3 19.3 12.3C19.2 12.3 19.1 12.2 19.1 12.2C19.2 12.1 19.2 12 19.3 12C19.5 11.9 19.7 11.9 19.9 11.7C20 11.1 20.1 10.5 20.1 9.9C20.1 8.6 19.8 7.3 19.3 6.1C18.7 5 18 3.9 17.1 2.9C16.2 2 15.1 1.2 13.9 0.7C13.7 0.8 13.5 0.8 13.4 0.8C13 1 12.7 1.2 12.4 0.7C12.4 0.6 12.2 0.6 12.1 0.6C12 0.8 11.9 0.9 11.8 1C11.5 1.3 11.3 1.5 11 1.4C10.9 1.5 10.7 1.5 10.4 1.6C10 2.1 9.7 1.3 9.1 1.3C9.1 1.2 9.1 1 9.2 0.9C9.5 0.7 9.8 0.6 10.2 0.5C10.2 0.4 10.1 0.3 10.2 0.2C10.3 0.1 10.4 0.1 10.4 0C10.3 0 10.1 0 10 0C8.7 0 7.4 0.3 6.2 0.8C5.5 1 4.9 1.4 4.3 1.8ZM13.3 18.8C13.3 18.8 13.1 18.7 12.9 18.7C13 18.6 13 18.4 13.1 18.3C13.2 18.2 13.2 18 13.3 17.9C13.4 17.8 13.5 17.7 13.5 17.7C13.6 17.7 13.7 17.8 13.8 17.9C14 18.4 13.9 18.7 13.3 18.8ZM15.9 17.6L15.8 17.7C15.8 17.6 15.7 17.6 15.7 17.5C15.7 17.4 15.7 17.3 15.7 17.2C15.8 17.2 15.9 17.2 16 17.3C15.9 17.4 15.9 17.5 15.9 17.6ZM18.2 9.6C18.3 9.5 18.6 9.6 18.7 9.7C18.8 10 19.2 10.2 18.9 10.5C18.8 10.6 18.5 10.4 18.4 10.4C18.1 10 17.9 9.8 18.2 9.6ZM10 2C10.6 2 11.1 2.1 11.6 2.2C11.5 2 11.6 1.8 12 1.6C12.2 1.4 13.2 1.5 13.3 1.7C13.3 1.9 13.3 2.1 13.3 2.3C13.6 2.2 14 2.1 14.3 2C14.6 1.9 14.8 2.1 14.8 2.4C14.9 2.7 14.9 3 14.5 3.1C14.4 3.1 14.3 3.2 14.1 3.2C15.8 4.2 17.1 5.8 17.6 7.7C17.7 7.7 17.8 7.8 17.8 7.9C17.8 8 17.8 8.1 17.7 8.2C17.9 8.8 18 9.4 18 10C18 14.4 14.4 18 10 18C7.6 18 5.5 16.9 4 15.3C3.9 15.4 3.8 15.5 3.7 15.6C3.6 15.7 3.3 15.5 3.2 15.4C2.9 15.2 2.8 14.9 2.4 15.1L2.2 15C2.2 14.6 2.2 14.3 2.3 13.9L2.4 13.8C2.6 13.9 2.8 13.9 3 13.9C2.4 12.8 2 11.5 2 10.1C2 8.7 2.4 7.3 3.1 6.1C3 6 2.9 5.9 2.8 5.8C2.7 5.7 2.6 5.5 2.6 5.4C2.6 5.4 2.6 5.4 2.6 5.3C2.5 5.3 2.4 5.2 2.2 5.2C2.3 5 2.4 4.9 2.5 4.8C2.5 4.8 2.6 4.8 2.7 4.9C2.8 4.9 2.9 4.9 3 4.9C3.2 4.9 3.3 4.9 3.5 4.9C3.6 4.9 3.7 4.9 3.8 4.9L3.9 5C5.2 3.2 7.5 2 10 2Z" fill="#171026"/>
<path d="M9.3 5.1C9.4 5.2 9.6 5.1 9.8 5.1C9.9 5.1 10 5.2 10.1 5.2C10.1 5.3 10.1 5.4 10 5.5C9.7 6 9.4 6 9 5.5V6.1C9.2 6 9.6 5.9 9.7 6.1C9.9 6.3 10.1 6.3 10.3 6.3C10.3 6.2 10.3 6.2 10.3 6.1C10.4 6.1 10.5 6 10.6 6C10.6 6 10.7 6.1 10.8 6.1C10.7 6.2 10.7 6.3 10.6 6.4C10.6 6.4 10.5 6.4 10.4 6.5C10.4 6.8 10.4 7 10.2 7.1H10.4V7C10.4 6.9 10.6 7 10.8 6.9C10.8 7 10.8 7 10.8 7.1H11V5H9.1C9.2 5 9.2 5 9.3 5.1Z" fill="#171026"/>
</g>
<defs>
<clipPath id="clip0_0_1490">
<rect width="20" height="20" fill="white"/>
</clipPath>
</defs>
</svg>
