<svg width="40" height="40" viewBox="0 0 40 40" fill="none" xmlns="http://www.w3.org/2000/svg">
<g clip-path="url(#clip0_181_2736)">
<circle cx="20" cy="20" r="20" fill="#FEFEFE"/>
<path d="M10.9 9.1C11 9.2 11.1 9.3 11.2 9.4C11.3 9.4 11.4 9.4 11.4 9.4C11.5 9.4 11.6 9.4 11.7 9.5C11.9 9.6 12 9.7 12 9.8H12.1C12.5 9.7 12.6 9.8 12.7 10.1C12.7 10.3 12.7 10.4 12.6 10.5C12.8 10.7 13 10.9 13.1 11.2C13.2 11.3 13.2 11.4 13.3 11.5C13.3 11.6 13.3 11.7 13.3 11.8C13.3 11.8 13.2 11.8 13.1 11.8C12.6 11.8 12.2 11.6 12.1 11.3C11.9 11 11.8 10.9 11.7 10.8C11.6 10.6 11.5 10.5 11.6 10.3C11.7 10.1 11.6 10 11.4 10C11.1 10.1 11 9.9 10.9 9.7C10.8 9.6 10.7 9.5 10.6 9.3C10.1 9.7 9.7 10.1 9.4 10.5C9.7 10.3 9.8 10.3 10 10.5C10 10.4 10 10.3 10.1 10.3C10.3 10.2 10.6 10.1 10.9 10C11 10 11.2 10.1 11.2 10.2C11.2 10.4 11.2 10.5 11.1 10.7H11C10.7 10.4 10.4 10.5 10.1 10.6C10.2 10.7 10.3 10.8 10.3 10.9C10.4 11 10.5 11.1 10.5 11.2C10.7 11.4 10.9 11.6 11 11.8C11.2 12 11.3 12.2 11.2 12.4C11 12.6 11.2 12.8 11.4 12.7C11.6 12.6 11.7 12.6 11.8 12.8C12 13 12.2 13.2 12.3 13.5C12.3 13.3 12.3 13.2 12.4 13.1C12.5 13 12.5 12.9 12.6 12.7C12.7 12.5 12.9 12.4 13 12.6C13.1 12.9 13.3 12.8 13.6 12.8H13.7V12.7C13.7 12.6 13.8 12.6 13.8 12.6C14 12.6 14.2 12.6 14.4 12.6C14.5 12.6 14.7 12.5 14.8 12.5C15 12.4 15.1 12.5 15.1 12.8C15.2 13 15.1 13.2 14.9 13.3C14.8 13.3 14.7 13.4 14.6 13.4C14.3 13.4 14.1 13.6 13.9 13.2C13.7 13 13.3 13.2 13.2 13.4C13.1 13.7 12.7 13.9 12.5 13.8C12.4 13.8 12.3 13.6 12.3 13.5L12.1 13.7C11.9 13.6 11.7 13.7 11.5 13.8C11.6 13.8 11.6 13.9 11.7 13.9C11.6 14 11.5 14 11.4 14.1H11.3C11.1 14.2 10.9 14.2 10.8 14C10.8 13.9 10.6 14 10.5 13.9C10.4 13.8 10.4 13.7 10.4 13.6C10.4 13.5 10.5 13.4 10.6 13.4C10.7 13.4 10.8 13.4 10.9 13.4V13.3C11 12.9 10.8 12.7 10.6 12.5C10.3 12.2 10.1 12 9.9 11.7C9.7 11.5 9.6 11.5 9.4 11.7C9 12 9 12 8.7 11.6C8.3 12.5 8 13.5 8 14.5V15.9H8.1C8.7 15.8 9.3 15.6 9.8 15.5C9.8 15.5 9.8 15.4 9.8 15.3C9.9 15.3 10 15.3 10.1 15.3V15.4C10.4 15.2 10.7 15.1 10.9 15C11.2 14.9 11.7 15 11.9 15.3C11.9 15.4 11.9 15.5 11.9 15.5C11.7 15.7 11.6 15.7 11.4 15.8C11.2 15.9 11 15.9 10.9 16.2C10.9 16.4 10.3 16.5 10.1 16.4C10 16.2 9.8 16.2 9.6 16.3C9.4 16.3 9.3 16.3 9.2 16.2C9 15.9 8.6 16 8.4 16.3C8.3 16.4 8.2 16.6 8.1 16.6C8.1 16.6 8 16.6 8 16.7V17.9C8.1 17.9 8.1 17.9 8.2 17.9C8.3 17.9 8.4 17.8 8.5 17.8C8.7 17.8 8.8 17.8 8.9 18C9 18.2 9.2 18.2 9.3 18C9.4 17.6 9.6 17.5 9.9 17.5C10.2 17.4 10.5 17.4 10.9 17.3C11.1 17.3 11.2 17.2 11.4 17.2C11.3 17.2 11.2 17.2 11 17.3C11 16.9 11 16.8 11.1 16.8C11.2 16.8 11.3 16.8 11.4 16.8C11.4 16.9 11.4 17 11.4 17.1C11.5 17 11.5 16.9 11.6 16.7C11.6 16.7 11.8 16.6 11.9 16.6C12 16.8 12.1 16.8 12.3 16.8C12.6 16.8 12.7 17.3 12.5 17.5C12.2 17.8 12.2 17.8 12.6 18C12.7 18 12.7 18.1 12.7 18.2C12.7 18.3 12.6 18.4 12.6 18.4C12.4 18.5 12.2 18.7 12 18.4C11.9 18.3 11.7 18.3 11.6 18.3C11.3 18.3 11 18.5 10.7 18.2C10.6 18.1 10.4 18.2 10.4 18.4C10.4 18.5 10.4 18.6 10.4 18.6C10.5 18.9 10.3 19 10.1 19.1C9.8 19.2 9.7 19 9.7 18.8C9.7 18.7 9.7 18.7 9.6 18.6C9.5 18.5 9.5 18.5 9.4 18.4C9.4 18.5 9.3 18.6 9.3 18.7C9.3 18.9 9.2 19 9 19C8.7 19 8.4 19.1 8.2 19.1V19.2C8.2 19.2 8.2 19.3 8.3 19.3C8.4 19.4 8.4 19.5 8.5 19.6C8.9 19.8 8.8 20.2 8.7 20.5C8.9 20.4 9.1 20.4 9.2 20.5C9.3 20.6 9.4 20.6 9.5 20.7C9.6 20.7 9.6 20.8 9.7 20.8L9.6 20.9C9.2 20.9 9 21 8.8 21.1C8.7 21.2 8.6 21.2 8.5 21.3C8.4 21.4 8.4 21.5 8.3 21.6C8.2 21.5 8.1 21.4 8 21.3V25.6C8 25.7 8 25.7 8 25.8C8 25.8 8.1 25.9 8.2 26C8.3 26.1 8.5 26.3 8.3 26.5C8.2 26.5 8.2 26.6 8.1 26.6C8.2 27.4 8.5 28.1 8.8 28.8C8.9 28.8 9 28.7 9.1 28.7C9.4 28.7 9.6 28.5 10 28.7C10.2 28.8 10.5 28.7 10.6 28.5C10.7 28.4 10.7 28.3 10.8 28.3C11.6 28 12.4 27.7 13.2 27.6C13.6 27.6 14 27.4 14.4 27.3C14.5 27.3 14.7 27.3 14.8 27.3C15.1 27.5 15.4 27.4 15.6 27.1C15.8 26.8 15.8 26.8 16.1 27C16.2 27.1 16.3 27.1 16.5 27.1C16.7 27.1 16.9 27.1 17.1 27C17.2 27 17.3 27 17.3 27.1C17.3 27.2 17.3 27.4 17.3 27.4C17 27.4 17.3 28.1 16.8 27.8C16.5 27.6 16.5 27.6 16.4 27.9C16.3 28 16.2 28.1 16.1 28.1C15.6 28.2 15.2 28.3 14.7 28.4C14.6 28.4 14.5 28.4 14.4 28.4C14 28 13.8 28 13.5 28.4C13.4 28.6 13 28.7 12.8 28.6C12.7 28.5 12.5 28.5 12.4 28.5C12.2 28.6 11.9 28.6 11.7 28.7C11.5 28.7 11.3 28.8 11.2 29C11.3 29 11.3 29.7 11.2 29.8C10.9 30 10.8 29.7 10.7 29.5C10.6 29.5 10.6 29.4 10.6 29.3H10.5C10.2 29.4 9.8 29.5 9.5 29.6C10.1 30.4 11 31.1 12 31.5C12.1 31.5 12.3 31.5 12.3 31.6L12.4 31.7H12.5C12.5 31.7 12.5 31.7 12.5 31.6C12.3 31.4 12.2 31.1 11.8 31.2C11.6 31.3 11.6 31.1 11.6 30.9C11.8 30.5 12.1 30.5 12.3 30.8C12.5 31 12.7 31.3 13.1 31.2C13.2 31.2 13.3 31.3 13.3 31.4C13.4 31.4 13.5 31.5 13.5 31.5C13.5 31.5 13.5 31.7 13.4 31.8C13.9 32 14.2 32 14.5 32H16.9L17 31.9C17.1 31.9 17.2 31.9 17.2 32H25.5C25.9 32 26.3 32 26.6 31.9C26.6 31.8 26.6 31.7 26.6 31.6C26.6 31.3 26.8 31.2 27 31.2C27.2 31.2 27.4 31.4 27.5 31.5C27.5 31.5 27.5 31.6 27.4 31.7C30 30.9 31.9 28.4 31.9 25.5V23.7C31.9 23.8 31.8 23.9 31.8 23.9C31.7 23.8 31.7 23.7 31.6 23.7C31.6 23.6 31.6 23.4 31.7 23.3C31.8 23.2 31.9 23.2 32 23.2V14.5C32 13.9 31.9 13.2 31.7 12.7C31.4 12.8 31.3 12.7 31.2 12.4C31.1 12.2 31.2 12 31.4 12C31.2 11.6 31 11.2 30.7 10.8C30.7 10.9 30.6 10.9 30.6 10.9C30.5 10.9 30.4 10.9 30.3 10.8C30.4 10.7 30.5 10.6 30.6 10.6C29.5 9 27.6 8 25.5 8H14.5C13.1 8 11.9 8.4 10.9 9.1ZM13.8 10.2C13.7 10.1 13.5 10.1 13.5 10C13.5 9.8 13.6 9.7 13.6 9.5C13.7 9.6 13.8 9.7 14 9.8C13.9 10 13.8 10.1 13.8 10.2ZM8.6 15.2C8.3 15.3 8.2 15.1 8.1 14.9C7.9 14.5 8.1 14.1 8.5 14H8.6C8.7 14.3 8.8 14.5 8.9 14.8C8.9 15.1 8.9 15.1 8.6 15.2ZM9.5 14.8C9.4 14.8 9.4 14.8 9.3 14.7C9.3 14.7 9.3 14.6 9.3 14.5C9.4 14.6 9.5 14.6 9.5 14.6C9.5 14.7 9.5 14.8 9.5 14.8ZM9.9 14.5C9.8 14.6 9.7 14.5 9.6 14.3C9.6 14 9.6 13.7 9.8 13.8C9.9 13.8 10 14 10.2 14.1C10 14.2 10 14.4 9.9 14.5ZM10.2 20.2C10.4 20.3 10.5 20.3 10.7 20.4C10.5 20.5 10.4 20.6 10.2 20.7C10.2 20.7 10 20.6 10 20.5C10 20.4 10.1 20.3 10.2 20.2ZM9.8 23.1C9.8 22.9 9.8 22.7 9.8 22.5C9.8 22.3 9.9 22.2 10.1 22.2C10.4 22.2 10.7 22.1 10.8 22.4C11 22.8 11 22.8 10.8 23C10.5 23.2 10.3 23.4 10 23.6C9.9 23.7 9.8 23.6 9.7 23.6V23.5C9.6 23.5 9.5 23.6 9.4 23.6C9.4 23.6 9.3 23.5 9.1 23.5C9 23.5 8.9 23.4 8.8 23.3C8.6 23.2 8.6 23.1 8.8 23C8.8 23 8.9 23 8.9 22.9C9 23 9.3 22.9 9.5 22.9C9.6 22.9 9.7 23 9.8 23.1ZM8.8 21.5C9.1 21.2 9.2 21.2 9.5 21.5C9.7 21.7 9.6 21.8 9.5 22C9.2 22.2 8.9 22.2 8.7 21.9C8.5 21.7 8.7 21.6 8.8 21.5ZM8.6 26.6C8.5 26.4 8.5 26.1 8.4 25.9C8.3 25.7 8.3 25.4 8.2 25.2C8.2 25.1 8.2 25 8.3 25C8.4 25 8.4 25 8.5 25C8.6 25.1 8.7 25.1 8.9 25.2C9.1 25.3 9.3 25.8 9.1 26C8.9 26.2 8.9 26.4 8.9 26.6C8.9 26.7 8.8 26.8 8.8 26.9C8.8 26.7 8.6 26.7 8.6 26.6ZM10.1 28.4C10.1 28.4 10 28.5 9.9 28.4C9.8 28.4 9.7 28.3 9.7 28.3C9.3 28.3 9.3 28.3 9.4 27.9C9.4 27.7 9.3 27.6 9.1 27.7C8.8 27.8 8.8 27.7 8.9 27.4C8.9 27.3 8.9 27.2 8.9 27.1C8.9 27 8.9 26.9 8.9 26.9C9 26.9 9.1 26.9 9.1 26.9C9.2 26.9 9.4 26.9 9.5 27C9.7 27 9.8 27.1 9.7 27.3C9.6 27.5 9.7 27.6 9.8 27.8C9.8 27.8 10 28 10.1 28.1C10.1 28.2 10.1 28.3 10.1 28.4ZM11.3 24.9C11.3 25 11.2 25.1 11.1 25.2C11 25.6 10.6 25.7 10.3 25.4C10.2 25.3 10 25.3 9.9 25.3C9.6 25.3 9.5 25.1 9.4 24.9C9.4 24.8 9.4 24.6 9.4 24.6C9.5 24.6 9.7 24.5 9.7 24.6C9.9 24.9 10 24.9 10.1 24.5C10.2 24.3 10.9 24.1 11.1 24.2C11.2 24.2 11.2 24.4 11.3 24.5C11.4 24.7 11.3 24.8 11.3 24.9ZM11.2 30.5C11.1 30.5 11 30.4 10.9 30.4C11 30.3 11 30.2 11.2 30C11.3 30.1 11.5 30.1 11.5 30.2C11.5 30.4 11.3 30.5 11.2 30.5ZM13 29.8C12.8 29.9 12.7 30 12.5 30.1C12.4 30.1 12.3 30 12.3 29.9C12.3 29.7 12.3 29.6 12.3 29.5C12.3 29.4 12.4 29.4 12.5 29.4C12.7 29.5 12.8 29.6 13 29.8C13.1 29.8 13.1 29.8 13 29.8ZM14.6 29.5C14.5 29.5 14.5 29.5 14.4 29.5C14.5 29.4 14.5 29.3 14.5 29.3C14.6 29.3 14.6 29.3 14.7 29.4C14.6 29.4 14.6 29.5 14.6 29.5ZM12.6 14.1C12.6 14.1 12.6 14 12.6 13.9C12.6 14 12.7 14 12.7 14V14.1C12.7 14.2 12.6 14.2 12.6 14.1ZM12.7 22.2C12.8 22.2 12.9 22.4 13 22.5C12.9 22.7 12.9 22.9 12.9 22.9C12.6 23 12.6 22.7 12.6 22.6C12.5 22.4 12.5 22.2 12.7 22.2ZM12.1 19.8L12.3 19.9C12.3 20 12.3 20.1 12.2 20.2C12.1 20.2 12 20.1 11.9 20.1C12 19.9 12 19.8 12.1 19.8ZM11.8 26.1V25.9C11.9 25.9 12 25.9 12.1 25.9C12.1 26 12.1 26.2 12 26.2C12 26.2 11.9 26.2 11.8 26.1ZM12.5 27.2C12.3 27.2 12.1 27.3 12 27.1C12 27 12 26.9 12.1 26.8C12.1 26.7 12.2 26.7 12.3 26.7C12.4 26.7 12.5 26.6 12.5 26.7C12.6 26.7 12.7 26.8 12.7 26.9C12.9 27.1 12.7 27.2 12.5 27.2ZM14.2 27.2C14 27.2 13.9 27.3 13.8 27.2C13.6 27.1 13.8 26.9 13.9 26.9C14 26.8 14.1 26.6 14.3 26.8C14.4 26.9 14.3 27 14.2 27.2ZM16.2 31.6C16 31.6 15.6 31.3 15.5 31.1C15.5 31 15.5 30.9 15.5 30.8C15.5 30.6 15.7 30.5 15.8 30.7C15.9 30.9 16.1 30.9 16.2 31C16.3 31.1 16.3 31.4 16.4 31.6C16.4 31.5 16.3 31.6 16.2 31.6ZM17 30.2C17 30.3 17 30.4 17 30.5C17 30.6 17 30.7 17 30.8C16.9 30.7 16.8 30.7 16.7 30.6C16.4 30.4 16.4 30.2 16.6 30C16.6 30 16.7 29.9 16.8 29.9C16.9 29.9 17 29.9 17.1 29.8C17 30 17 30.1 17 30.2ZM16.3 29.1C16 29.1 15.7 29.2 15.6 29.5C15.5 29.6 15.4 29.7 15.3 29.6L15.2 29.5C15.2 29.5 15.2 29.6 15.1 29.6C15 29.7 14.9 29.8 14.7 29.7C14.6 29.6 14.7 29.5 14.7 29.3C14.8 29.3 15 29.3 15.1 29.3C15.1 29.3 15.1 29.2 15.2 29.2C15.4 29.1 15.6 29 15.8 28.9H15.9C15.8 28.9 15.8 28.9 15.7 28.9C15.7 28.9 15.7 28.8 15.7 28.7C15.8 28.7 15.9 28.7 15.9 28.8C15.9 28.8 15.9 28.9 15.9 29C16 28.9 16.1 28.9 16.1 28.7C16.1 28.4 16.3 28.4 16.5 28.6C16.6 28.7 16.6 28.8 16.7 28.8C17 28.8 17 29 17 29.2C17.1 29.2 17.2 29.3 17.3 29.3C17.3 29.3 17.3 29.4 17.2 29.4C17 29.5 17 29.4 16.9 29.2C16.8 29 16.5 29.1 16.3 29.1ZM17.4 31L17.2 30.8C17.3 30.7 17.4 30.6 17.4 30.5C17.6 30.5 17.7 30.4 17.7 30.5C17.8 30.5 17.8 30.6 17.9 30.7C17.7 30.8 17.6 30.9 17.4 31ZM17.8 28.8C17.7 28.8 17.4 28.9 17.4 28.6C17.4 28.5 17.6 28.4 17.6 28.3C17.8 28.3 17.9 28.3 18.1 28.3C18.4 28.3 18.5 28.4 18.6 28.7C18.6 28.8 18.6 28.9 18.5 29C18.4 29 18.3 29 18.2 28.9C18.1 28.9 18 28.8 17.8 28.8ZM17.9 26.8C18 26.6 18.2 26.5 18.3 26.5C18.4 26.5 18.5 26.5 18.6 26.5C18.7 26.5 18.9 26.6 19 26.6C18.9 26.7 18.9 26.8 18.8 26.9C18.8 27 18.8 27.1 18.7 27.1C18.6 27.3 18.4 27.4 18.3 27.2L18.2 27.1C18.1 27 17.8 27 17.9 26.8ZM19.4 30.4C19.4 30.4 19.3 30.5 19.2 30.5C19.1 30.9 18.9 30.9 18.6 30.6C18.4 30.5 18.3 30.4 18.5 30.2C18.6 30.2 18.6 30.1 18.6 30C18.6 29.7 18.8 29.7 19.1 29.6C19.1 29.6 19.3 29.6 19.4 29.7C19.5 30 19.6 30.2 19.4 30.4ZM20.2 30.6C20 30.7 20 30.4 19.9 30.3C19.9 30.2 19.8 30 20 29.9C20.1 29.9 20.2 30 20.4 30.2C20.3 30.4 20.3 30.6 20.2 30.6ZM21.4 28.1C21.4 28.2 21.2 28.3 21 28.4C20.7 28.3 20.4 28.2 20.2 28.1L20.1 27.9C20.2 27.7 20.4 27.5 20.5 27.3H20.6C20.7 27.6 21 27.5 21.2 27.7C21.4 27.7 21.4 27.9 21.4 28.1ZM22.5 29.7C22.4 29.8 22.4 29.9 22.4 29.9C22.2 30 22.1 30 22 30L21.9 29.9C21.8 29.8 21.7 29.7 21.6 29.7C21.7 29.6 21.8 29.5 22 29.5C22.1 29.5 22.2 29.4 22.4 29.4C22.5 29.4 22.6 29.4 22.7 29.5C22.7 29.5 22.6 29.6 22.5 29.7ZM21.9 27.4C22 27.3 22.1 27.3 22.2 27.3C22.3 27.3 22.4 27.3 22.5 27.3C22.6 27.3 22.6 27.5 22.6 27.6C22.4 27.6 22.2 27.6 22 27.6C21.8 27.6 21.8 27.5 21.9 27.4ZM23 26.2C22.9 26.2 22.8 26.2 22.8 26.2C22.8 26.2 22.8 26.1 22.8 25.9C22.9 25.9 23 25.9 23.1 26C23 26.1 23 26.2 23 26.2ZM24.7 28.7C24.5 28.8 24.4 28.9 24.2 28.7C24.1 28.5 23.9 28.3 23.8 28.2C23.6 28 23.5 27.8 23.3 27.6C23.3 27.6 23.3 27.5 23.3 27.4C23.3 27.4 23.4 27.4 23.5 27.3C24.2 27.3 24.6 27.7 24.9 28.2C25 28.4 24.8 28.5 24.7 28.7ZM26.1 30.2C25.8 30.4 25.7 30.4 25.5 30.2C25.3 30 25.1 29.8 25 29.5C24.9 29.3 24.9 29.2 25 29C25.2 28.8 25.3 28.9 25.5 29C25.7 29.2 25.9 29.4 26.1 29.6C26.2 29.8 26.3 30 26.1 30.2ZM26 26.8C26 26.8 25.9 26.8 25.8 26.8C25.8 26.9 25.8 27.1 25.8 27.1C25.7 27.1 25.5 27.1 25.5 27.1C25.3 27 25.2 26.8 25 26.6C24.9 26.5 24.8 26.3 24.7 26.2C24.7 26.1 24.7 26 24.7 25.9H24.9C25.1 26.1 25.2 26.3 25.4 26.4C25.4 26.4 25.4 26.3 25.5 26.3C25.6 26.2 25.6 26 25.7 26C25.9 26 26.1 26 26.3 26C26.5 26.1 26.6 26.2 26.8 26.3C26.6 26.4 26.4 26.6 26.2 26.7C26.2 26.7 26.2 26.7 26 26.8ZM26.8 25.1C27 25 27.1 25 27.4 25.3C27.6 25.6 27.6 25.7 27.3 25.9C27 26.1 26.9 26.1 26.7 25.8C26.5 25.6 26.6 25.3 26.8 25.1ZM26.8 28.5C26.8 28.6 26.7 28.6 26.6 28.7C26.4 28.7 26.3 28.6 26.2 28.6C26.3 28.5 26.4 28.4 26.4 28.4C26.3 28.2 26.2 28 26.3 27.9C26.3 27.8 26.4 27.8 26.4 27.7C26.5 27.3 26.5 27.3 26.8 27.5C26.9 27.6 26.9 27.6 27 27.7C27.2 28 27.4 28.3 27.6 28.5C27.6 28.6 27.6 28.7 27.7 28.8C27.6 28.8 27.5 28.8 27.4 28.8C27.3 28.6 27.1 28.4 26.8 28.5ZM28.3 30C28.3 30.1 28.1 30.1 28 30C27.8 30 27.6 29.5 27.5 29.4C27.5 29.3 27.5 29.2 27.5 29.1C27.6 29.1 27.7 29.2 27.8 29.2C27.9 29.3 28 29.4 28.1 29.4C28.2 29.5 28.3 29.6 28.3 29.7C28.3 29.8 28.3 29.9 28.3 30ZM28.1 27.5C27.9 27.2 27.9 27.2 28.1 26.9C28.3 26.7 28.4 26.7 28.6 26.9C28.8 27.2 28.8 27.3 28.6 27.5C28.4 27.7 28.3 27.7 28.1 27.5ZM28.5 25.6C28.7 25.6 28.8 25.7 28.8 25.9C28.9 26.2 28.8 26.4 28.5 26.4C28.2 26.5 28.1 26.4 28 26.1C28.1 25.9 28.2 25.7 28.5 25.6ZM29 30.9C28.9 30.9 28.8 30.9 28.7 30.9C28.7 30.9 28.7 30.7 28.6 30.6C28.7 30.6 28.9 30.6 28.9 30.7C29.1 30.7 29 30.9 29 30.9ZM29.7 29.2C29.6 29.2 29.5 29.2 29.5 29.2C29.5 29.2 29.4 29.1 29.4 29C29.6 29.1 29.7 29.1 29.7 29.1C29.8 29 29.8 29.1 29.7 29.2ZM29.2 27.8C29.3 27.7 29.3 27.5 29.4 27.5L29.6 27.6C29.6 27.7 29.6 27.8 29.5 27.9C29.5 27.9 29.4 27.9 29.2 27.8ZM30.2 25.6C30.2 25.6 30.1 25.6 30 25.5C30.1 25.4 30.1 25.4 30.2 25.4L30.3 25.5C30.3 25.5 30.2 25.5 30.2 25.6ZM31.3 25C31.3 25.1 31.3 25.2 31.3 25.2H31.1C31.1 25.2 31.1 25 31.1 24.9C31.1 25 31.3 25 31.3 25ZM31.2 22.3C31.2 22.4 31.2 22.5 31.2 22.6C31.1 22.6 31 22.6 31 22.6C31 22.6 31 22.5 31 22.3C31.1 22.3 31.2 22.3 31.2 22.3ZM30.6 24.7C30.3 24.9 30.3 24.8 30.2 24.5C30.2 24.4 30.2 24.4 30.2 24.3C30.1 24.1 30.1 24 30.3 23.9C30.4 23.9 30.6 24 30.6 24C30.9 24.4 30.9 24.6 30.6 24.7ZM30.2 12.4C30.3 12.4 30.3 12.4 30.4 12.4C30.4 12.5 30.4 12.5 30.3 12.6C30.2 12.6 30.1 12.6 30.1 12.5L30.2 12.4ZM29.8 19.6L29.9 19.5C30.1 19.6 30.4 19.7 30.6 19.9C30.6 19.9 30.6 20 30.6 20.1C30.4 20.3 30.2 20.6 29.9 20.8C29.8 20.8 29.7 20.7 29.6 20.7C29.5 20.6 29.3 20.5 29.2 20.4C29.1 20.3 29.1 20.1 29.2 20.1C29.5 19.9 29.8 19.9 29.8 19.6ZM29.1 15.7C29.2 15.6 29.3 15.6 29.3 15.6L29.4 15.7C29.3 15.7 29.3 15.8 29.2 15.8C29.3 15.8 29.3 15.7 29.1 15.7ZM26.2 10C26.4 9.5 26.4 9.5 26.8 9.4C26.8 9.4 26.9 9.4 27 9.4C27.1 9.4 27.1 9.5 27.1 9.6C27.1 9.9 26.6 10.3 26.4 10.3C26.2 10.3 26.2 10.2 26.2 10ZM23.4 8.1C23.5 8.1 23.5 8.1 23.6 8.1C23.8 8.1 23.9 8.1 24.1 8.1C24.2 8.1 24.2 8.2 24.3 8.3C24.2 8.4 24.2 8.5 24.1 8.5C23.9 8.5 23.7 8.5 23.5 8.4L23.4 8.3C23.3 8.2 23.4 8.1 23.4 8.1ZM24.1 10.7C24.1 10.7 24.1 10.8 24 10.9C23.9 10.9 23.9 10.8 23.7 10.8C23.8 10.7 23.9 10.7 23.9 10.7C24 10.6 24.1 10.7 24.1 10.7ZM22.8 10.9C22.9 10.9 23 11 23 11C23 11.1 22.9 11.2 22.9 11.2C22.8 11.2 22.8 11.1 22.6 11.1C22.7 11 22.7 10.9 22.8 10.9ZM21.4 10.8C21.5 10.8 21.5 10.8 21.6 10.8C21.8 10.9 21.9 11 22 11C22.1 11 22.1 11.1 22.2 11.2C22.1 11.3 22.1 11.4 22 11.4C21.9 11.5 21.8 11.5 21.7 11.5C21.6 11.5 21.5 11.5 21.4 11.4C21.4 11.2 21.4 11 21.4 10.8ZM22.2 11.5C22.1 11.6 22.1 11.7 22.1 11.7C22.1 11.7 22 11.7 21.9 11.7C21.9 11.6 21.9 11.6 22 11.5C22 11.5 22.1 11.5 22.2 11.5ZM19.3 10.9C19.4 10.9 19.5 10.9 19.6 11C19.6 11.1 19.6 11.2 19.5 11.2H19.3C19.3 11.1 19.3 11.1 19.3 10.9ZM19.2 11.7C19.3 11.7 19.4 11.8 19.4 11.8C19.4 11.9 19.4 12 19.3 12C19 12.1 18.7 12.1 18.4 12.2L18.2 12.1C18.2 12 18.2 11.9 18.3 11.9C18.4 11.8 18.6 11.8 18.7 11.8C19 11.8 19.1 11.7 19.2 11.7ZM18.4 8.3L18.5 8.4C18.5 8.4 18.5 8.5 18.4 8.5C18.4 8.5 18.3 8.5 18.2 8.4C18.3 8.4 18.3 8.3 18.4 8.3ZM17.9 9.3C17.9 9.3 18.2 9.3 18.2 9.4C18.2 9.5 18.2 9.6 18.1 9.8C17.9 9.8 17.7 9.8 17.6 9.8C17.7 9.7 17.8 9.5 17.9 9.3ZM17.5 12.2C17.5 12.4 17.6 12.6 17.4 12.6C17.2 12.7 17 12.6 17 12.4C17 12.2 16.9 11.9 17.1 11.9C17.4 11.8 17.4 12 17.5 12.2ZM16.3 8.7C16.4 8.6 16.5 8.6 16.7 8.5C16.8 8.5 17 8.5 17.1 8.5C17.3 8.5 17.4 8.6 17.2 8.8C17.2 8.9 17.1 9 17.1 9C17 9.4 16.8 9.5 16.5 9.4C16.4 9.4 16.3 9.2 16.2 9.1C16.1 9 16.1 8.8 16.3 8.7ZM16.7 13.6C17 13.5 17.3 13.5 17.6 13.5C17.7 13.5 17.7 13.6 17.8 13.6C17.8 13.7 17.7 13.8 17.7 13.8C17.5 13.9 17.3 13.9 17.2 14C17 14 16.8 14.1 16.8 14.3C17.3 14 17.8 13.8 18.3 13.7C18.4 13.6 18.5 13.6 18.6 13.5C18.7 13.4 18.9 13.4 18.9 13.2C19 13 19.1 12.9 19.3 13.1C19.5 13.2 19.5 13.3 19.7 13.1C19.8 13 20 12.9 20.2 12.8C20.4 12.7 20.5 12.9 20.6 13C20.8 13.1 21.5 12.9 21.6 12.7C21.8 12.4 21.9 12.4 22.1 12.6C22.2 12.6 22.4 12.6 22.4 12.5C22.5 12.3 22.6 12.2 22.8 12.4C23 12.6 23.1 12.5 23.2 12.3C23.2 12.1 23.4 12 23.5 12C23.8 11.9 24.1 11.8 24.4 11.7C24.9 11.6 24.9 11.8 25 12C25 12.1 25 12.1 25 12.2C25.3 11.6 26 11.1 26.7 11.1C27 11.1 27.3 11.2 27.6 11.3C27.6 11.3 27.6 11.3 27.7 11.3C27.7 11.1 27.6 11 27.8 10.9C28.3 10.7 28.8 10.6 29.3 10.5C29.4 10.5 29.5 10.6 29.6 10.6C29.5 10.7 29.5 10.8 29.4 10.9C29.2 10.9 29.1 10.9 29 11C28.6 11.1 28.1 11.2 27.7 11.3C27.7 11.3 27.7 11.3 27.7 11.4C28.2 11.7 28.5 12.2 28.6 12.7C28.7 12.7 28.7 12.7 28.8 12.7C28.9 12.8 28.9 12.9 29 13C29.1 13.1 29.2 13.1 29.3 13.2C29.2 13.3 29.1 13.4 29 13.5C28.8 13.6 28.7 13.6 28.7 13.4C28.5 14.3 27.7 15 26.7 15C25.9 15 25.2 14.5 24.9 13.9C24.8 13.7 24.7 13.4 24.7 13.1C24.7 12.9 24.7 12.6 24.8 12.4C24.8 12.4 24.7 12.5 24.6 12.5C24.4 12.5 24.2 12.5 24.1 12.4C23.9 12.3 23.8 12.3 23.7 12.4C23.6 12.5 23.6 12.7 23.5 12.7C23.3 12.7 23.1 12.7 22.9 12.7C22.7 12.6 22.5 12.6 22.5 12.9C22.5 13 22.3 13 22.2 13.1C22 13.2 21.8 13.2 21.5 13.3C21.3 13.4 21 13.4 20.9 13.6C21.5 13.7 22.1 13.9 22.7 14.2C22.8 14.2 22.8 14.2 22.9 14.2C23 14.2 23.1 14.2 23.2 14.2C23.3 14.3 23.4 14.3 23.5 14.4C23.6 14.5 23.6 14.5 23.6 14.6V14.7C25.3 15.9 26.4 17.8 26.4 20C26.4 20.3 26.4 20.6 26.3 20.9C26.3 20.8 26.4 20.8 26.4 20.7C26.4 20.2 26.9 20.2 27.1 20.1C27.2 20.1 27.3 20.1 27.4 20C27.8 19.7 28 20.1 28.3 20.2C28.3 20.2 28.3 20.4 28.3 20.5C28.2 20.6 28.1 20.7 27.9 20.7C27.4 20.8 27 20.9 26.5 21C26.4 21 26.3 21 26.2 21C26 22.4 25.3 23.6 24.4 24.6H24.5C24.8 24.4 25 25 25.2 24.6C25.4 24.3 25.6 24.3 25.9 24.3C26.5 24.1 27.1 23.9 27.7 23.8C27.9 23.8 28.1 23.7 28.3 23.8C28.6 24 28.9 23.9 29.2 23.9C29.3 23.9 29.4 23.9 29.6 23.9C29.6 24 29.5 24.1 29.5 24.2C29.5 24.3 29.4 24.3 29.4 24.4C29.3 24.6 29.2 24.6 29 24.5C28.7 24.3 28 24.4 27.9 24.8C27.8 25 27.3 25.2 27.1 25C26.9 24.8 26.6 24.9 26.4 24.9C26.2 24.9 25.9 24.9 25.9 25.3C25.9 25.6 25 25.7 24.8 25.5C24.7 25.4 24.6 25.3 24.6 25.4C24.3 25.4 24.3 25.2 24.3 25C24.3 24.9 24.3 24.8 24.3 24.8C24.2 24.9 24.1 25 24 25.1V25.2H23.9C23.4 25.6 22.9 25.9 22.4 26.1C22.3 26.3 22.2 26.4 21.9 26.5C21.7 26.6 21.5 26.7 21.3 26.5C21.2 26.5 21 26.6 20.9 26.6C20.7 27 20.4 27 20 26.8C19.9 26.7 19.7 26.8 19.6 26.8C19.5 26.8 19.3 26.9 19.3 26.7C17.8 26.6 16.4 25.9 15.4 25C15.3 25 15.3 25 15.2 25C15 25 14.9 24.7 15 24.6C14.9 24.5 14.8 24.4 14.7 24.3C14.5 24.6 14.2 24.7 14.1 25.1C14.1 25.2 13.9 25.3 13.8 25.1C13.6 24.9 13.4 24.9 13.2 25C12.8 25.2 12.4 24.9 12 24.8C11.9 24.8 11.9 24.7 11.9 24.5C11.9 24.6 11.8 24.6 11.8 24.7C11.7 24.8 11.6 24.8 11.5 24.9C11.5 24.8 11.4 24.8 11.5 24.7C11.5 24.6 11.6 24.6 11.7 24.5C11.8 24.5 11.8 24.4 11.9 24.4H12V24.3C12 24.2 12.2 24.1 12.3 24C12.4 23.9 12.6 23.9 12.7 23.9C12.8 23.9 13 23.8 13.1 23.8C13.3 23.8 13.4 23.7 13.6 23.9C13.9 24 14 23.9 14 23.7C14 23.6 14.2 23.5 14.3 23.4C13.7 22.4 13.4 21.3 13.4 20V19.9C13.3 19.9 13.2 19.9 13.2 19.9C13.1 19.9 13 19.9 12.9 19.9C12.8 19.9 12.8 19.8 12.7 19.8C12.7 19.7 12.7 19.7 12.8 19.7C13 19.6 13.2 19.5 13.4 19.4C13.5 18.7 13.7 18 13.9 17.4C13.8 17.4 13.8 17.3 13.7 17.3C13.7 17.1 13.6 16.8 13.6 16.6C13.6 16.5 13.8 16.4 13.9 16.4C14.1 16.3 14.3 16.3 14.5 16.2H14.6C14.8 15.9 15.1 15.5 15.4 15.2C15.4 15.1 15.3 15.1 15.3 15C15.3 15 15.2 15 15.2 14.9C15.1 14.8 15.1 14.6 14.9 14.6C14.6 14.4 14.4 14.7 14.4 15C14.4 15.1 14.4 15.2 14.4 15.3C14.4 15.4 14.2 15.4 14.2 15.4C14 15.2 13.6 15.3 13.5 15H13.3C13.2 15 13.1 15 13 15C12.8 15 12.7 15 12.6 14.8C12.6 14.6 12.7 14.6 12.9 14.5H13C13.5 14.4 14 14.2 14.6 14.1C14.6 14.1 14.6 14.1 14.7 14.1C14.7 14 14.7 13.9 14.6 13.8C14.7 13.8 14.9 13.8 14.9 13.9C14.9 13.9 14.9 14 14.9 14.1C15.1 14.1 15.4 14.1 15.6 14.2C15.7 14.2 16.1 14.1 16.1 14C16.2 13.6 16.5 13.6 16.7 13.6ZM28.4 15.9L28.3 16C28.2 16 28.1 16 28 16C28.1 15.9 28.1 15.8 28.2 15.8C28.3 15.8 28.3 15.9 28.4 15.9ZM26.9 16.2C26.8 16.3 26.8 16.5 26.7 16.5C26.5 16.5 26.3 16.5 26.1 16.4C26.1 16.4 26.1 16.3 26.1 16.2C26.1 16.1 26.2 16.1 26.3 16C26.4 15.9 26.4 15.7 26.6 15.8C26.7 15.9 26.8 16.1 26.9 16.2ZM24.7 14.3C24.6 14.4 24.6 14.5 24.5 14.5L24.3 14.4C24.3 14.3 24.3 14.2 24.3 14.1C24.5 14.2 24.6 14.2 24.7 14.3ZM28 21.7C27.8 21.7 27.6 21.8 27.5 21.7C27.3 21.5 27.5 21.4 27.7 21.3C27.8 21.2 28 21 28.1 21.2C28.1 21.3 28 21.5 28 21.7ZM28.1 23.1C28.1 23.2 28.1 23.2 28 23.2C27.9 23.2 27.9 23.2 27.7 23.2C27.8 23.1 27.8 23 27.8 23C27.9 23 28 23 28.1 23.1ZM13 16.7C13 16.8 13.1 16.8 13.1 16.8C13.1 16.8 13.1 16.9 13 16.9L12.9 16.8C12.9 16.8 12.9 16.8 13 16.7ZM12.9 16.6C12.9 16.5 12.9 16.4 12.9 16.3L13 16.2C13.1 16.2 13.1 16.1 13.2 16.1C13.3 16.1 13.3 16.1 13.4 16.1C13.4 16.2 13.4 16.2 13.4 16.3C13.4 16.4 13.3 16.5 13.2 16.6C13.2 16.6 13 16.6 12.9 16.6ZM15.6 8.9C15.8 8.8 15.9 9 15.9 9.1C15.9 9.3 16 9.5 15.8 9.5C15.5 9.7 15.5 9.5 15.4 9.2C15.4 9.1 15.5 8.9 15.6 8.9ZM15.1 11.9C15.2 11.8 16 11.8 16 12C16 12 15.9 12.2 15.8 12.3C15.6 12.4 15.5 12.5 15.4 12.4C15.3 12.3 15.2 12.1 15 12C15 12 15 11.9 15.1 11.9Z" fill="url(#paint0_linear_181_2736)"/>
<path d="M8.3 20.7C8.2 20.7 8.1 20.7 8 20.7V21.2C8.1 21.1 8.1 21 8.2 20.9C8.2 20.8 8.2 20.7 8.3 20.7Z" fill="url(#paint1_linear_181_2736)"/>
<path d="M22.4 22.6C22.4 22.5 22.5 22.6 22.4 22.6C23.2 22 23.6 21.1 23.6 20C23.6 18 22 16.4 20 16.4C19.3 16.4 18.7 16.6 18.1 17C18 17.2 18.4 17.5 18.6 17.5C18.9 17.5 19.3 17.9 19.4 18.2C19.4 18.3 19.3 18.4 19.5 18.4C19.8 18.4 20.1 18.8 20 19.1C20 19.3 19.9 19.6 19.9 19.8L20 19.9C20.3 19.8 20.5 20 20.8 20C21.1 20 21.1 20 21 20.3C20.8 20.6 20.5 20.9 20.1 21C20 21 19.9 20.9 19.9 20.9C20.1 20.5 19.8 20.3 19.6 20C19.5 19.8 19.3 19.7 19.5 19.4C19.6 19.2 19.4 19.1 19.3 19.2C19.1 19.3 19 19.2 18.9 19.1C18.5 18.7 18.1 18.4 18.2 17.8C18.2 17.6 17.9 17.3 17.7 17.3C16.8 18 16.4 19 16.4 20C16.4 22 18 23.6 20 23.6C20.9 23.6 21.7 23.3 22.3 22.7C22.3 22.7 22.3 22.6 22.4 22.6ZM19.6 18.1C19.5 18 19.4 17.9 19.4 17.9C19.4 17.8 19.5 17.7 19.5 17.7L19.7 17.8C19.7 17.8 19.6 17.9 19.6 18.1ZM22.1 22.2C22 22.2 21.9 22.1 21.7 22C21.5 21.9 21.4 21.6 21.1 21.8L20.9 21.7C20.9 21.5 20.9 21.2 21 21C21 21 21.1 20.9 21.1 21C21.4 21.1 21.9 20.9 22.2 21.4C22.3 21.6 22.4 21.7 22.4 21.9C22.4 21.9 22.2 22.1 22.1 22.2Z" fill="url(#paint2_linear_181_2736)"/>
</g>
<defs>
<linearGradient id="paint0_linear_181_2736" x1="30" y1="10" x2="8" y2="32" gradientUnits="userSpaceOnUse">
<stop stop-color="#7E3BAF"/>
<stop offset="0.510417" stop-color="#F14B6B"/>
<stop offset="0.980203" stop-color="#F9CB02"/>
</linearGradient>
<linearGradient id="paint1_linear_181_2736" x1="30" y1="10" x2="8" y2="32" gradientUnits="userSpaceOnUse">
<stop stop-color="#7E3BAF"/>
<stop offset="0.510417" stop-color="#F14B6B"/>
<stop offset="0.980203" stop-color="#F9CB02"/>
</linearGradient>
<linearGradient id="paint2_linear_181_2736" x1="30" y1="10" x2="8" y2="32" gradientUnits="userSpaceOnUse">
<stop stop-color="#7E3BAF"/>
<stop offset="0.510417" stop-color="#F14B6B"/>
<stop offset="0.980203" stop-color="#F9CB02"/>
</linearGradient>
<clipPath id="clip0_181_2736">
<rect width="40" height="40" fill="white"/>
</clipPath>
</defs>
</svg>
