<svg width="86" height="36" viewBox="0 0 86 36" fill="none" xmlns="http://www.w3.org/2000/svg">
<g clip-path="url(#clip0_181_2756)">
<path fill-rule="evenodd" clip-rule="evenodd" d="M72.4108 22.8733L72.2129 22.7063C71.7334 22.3026 71.6491 21.5643 72.0861 21.091L77.2196 15.2993C77.6291 14.8266 78.3765 14.7428 78.856 15.1748L79.0539 15.3412C79.5334 15.7455 79.6177 16.4831 79.18 16.9564L74.0466 22.7482C73.6376 23.2209 72.9184 23.2769 72.4108 22.8727V22.8733Z" fill="url(#paint0_linear_181_2756)"/>
<path opacity="0.4" fill-rule="evenodd" clip-rule="evenodd" d="M76.5291 16.3024L76.4304 16.1909L75.6406 17.082L75.7249 17.1794C77.0786 18.5161 76.501 19.8664 76.1907 20.3397L76.3031 20.2145C76.4866 20.0056 76.7688 19.6858 77.0648 19.337C77.3751 18.8082 77.8127 17.5553 76.5291 16.3024Z" fill="url(#paint1_linear_181_2756)"/>
<path opacity="0.4" fill-rule="evenodd" clip-rule="evenodd" d="M78.2219 18.0431L78.4337 17.8063C78.4475 17.7779 78.4756 17.7507 78.49 17.7224C78.2638 17.9734 78.0239 18.238 77.7983 18.5025C77.9677 18.3213 78.1089 18.1683 78.2219 18.0431Z" fill="url(#paint2_radial_181_2756)"/>
<path fill-rule="evenodd" clip-rule="evenodd" d="M79.2101 15.4819L74.0767 9.69022C73.6666 9.21692 72.9192 9.13313 72.4397 9.5651L72.2418 9.73212C71.7629 10.1358 71.6786 10.8735 72.1162 11.3468L76.4455 16.1913L76.5442 16.3028C77.8278 17.5699 77.3907 18.8228 77.0661 19.3516C77.3202 19.0594 77.5743 18.7673 77.814 18.5023C78.0394 18.2379 78.2792 17.9736 78.5052 17.7228C78.7306 17.4725 78.9422 17.2359 79.0833 17.083C79.5766 16.6091 79.6472 15.9547 79.2101 15.4814V15.4819Z" fill="url(#paint3_linear_181_2756)"/>
<path fill-rule="evenodd" clip-rule="evenodd" d="M78.9265 22.8733L78.7287 22.7063C78.2492 22.3026 78.1648 21.5643 78.6025 21.091L83.7359 15.2993C84.1449 14.8266 84.8922 14.7428 85.3717 15.1748L85.5696 15.3412C86.0491 15.7455 86.1334 16.4831 85.6964 16.9564L80.5629 22.7482C80.1534 23.2209 79.4342 23.2769 78.9265 22.8727V22.8733Z" fill="url(#paint4_linear_181_2756)"/>
<path opacity="0.4" fill-rule="evenodd" clip-rule="evenodd" d="M83.1009 16.2465L83.0022 16.135L82.2124 17.0261L82.2973 17.1235C83.6509 18.4596 83.0728 19.8104 82.7625 20.2838L82.8754 20.1586C83.059 19.9492 83.3406 19.6293 83.6371 19.2811C83.9469 18.7523 84.3845 17.4994 83.1009 16.2465Z" fill="url(#paint5_linear_181_2756)"/>
<path opacity="0.4" fill-rule="evenodd" clip-rule="evenodd" d="M84.7233 18.0426L84.9357 17.8058C84.9495 17.7774 84.9776 17.7503 84.9919 17.7219C84.7658 17.9729 84.5259 18.2375 84.3003 18.5021C84.4696 18.3208 84.6246 18.1678 84.7233 18.0426Z" fill="url(#paint6_radial_181_2756)"/>
<path fill-rule="evenodd" clip-rule="evenodd" d="M85.7109 15.4814L80.5769 9.68974C80.1679 9.21643 79.42 9.13264 78.9405 9.56462L78.7432 9.73163C78.2637 10.1353 78.1788 10.873 78.6164 11.3463L82.9463 16.1908L83.0449 16.3024C84.3286 17.5694 83.8909 18.8223 83.5669 19.3511C83.821 19.0589 84.0745 18.7668 84.3142 18.5019C84.5402 18.2375 84.78 17.9731 85.0054 17.7223C85.2314 17.472 85.4424 17.2354 85.5835 17.0825C86.0774 16.6086 86.1479 15.9542 85.7109 15.4809V15.4814Z" fill="url(#paint7_linear_181_2756)"/>
<path fill-rule="evenodd" clip-rule="evenodd" d="M0.310301 22.8183C0.112419 22.6235 0 22.3314 0 21.9691V10.5119C0 10.136 0.112419 9.84386 0.352171 9.60664C0.591923 9.36999 0.888458 9.25903 1.26931 9.25903C1.65016 9.25903 1.98856 9.36999 2.21397 9.60664C2.45373 9.84329 2.56672 10.136 2.56672 10.5119V21.0785H8.10969C8.89949 21.0785 9.30844 21.4261 9.30844 22.1089C9.30844 22.7906 8.89949 23.1387 8.10969 23.1387H1.19818C0.817909 23.1387 0.521374 23.0272 0.310301 22.8183ZM11.3113 22.9021C11.0716 22.6654 10.9586 22.3586 10.9586 21.9691V10.4978C10.9586 10.1218 11.0716 9.82971 11.3113 9.59305C11.5511 9.3564 11.8471 9.24487 12.2279 9.24487C12.6088 9.24487 12.9472 9.3564 13.1732 9.59305C13.4129 9.82971 13.5259 10.1218 13.5259 10.4978V21.9691C13.5259 22.345 13.4129 22.6654 13.1732 22.9021C12.9334 23.1387 12.6225 23.2503 12.2279 23.2503C11.8608 23.2503 11.5511 23.1387 11.3113 22.9021Z" fill="white"/>
<path d="M27.9683 25.0459C28.1094 25.2825 28.1937 25.505 28.1937 25.7422C28.1937 26.0343 28.0813 26.2846 27.8415 26.4658C27.6018 26.6469 27.3196 26.7579 27.0093 26.7579C26.7695 26.7579 26.5436 26.7024 26.3325 26.5909C26.1346 26.4799 25.9511 26.3123 25.8105 26.104L24.6537 24.2102C24.4701 23.9045 24.2304 23.6814 23.9344 23.5422C23.6384 23.4029 23.2576 23.3197 22.7781 23.3197C21.4095 23.3197 20.2389 23.027 19.238 22.4704C18.2366 21.8856 17.4749 21.0641 16.9386 20.0201C16.4029 18.9479 16.135 17.695 16.135 16.2751C16.135 14.841 16.4172 13.6023 16.9386 12.53C17.4749 11.4719 18.2503 10.6645 19.238 10.0797C20.2389 9.49543 21.4095 9.23047 22.7781 9.23047C24.1179 9.23047 25.3024 9.52317 26.29 10.0797C27.2915 10.6645 28.0526 11.486 28.5889 12.53C29.1246 13.5887 29.3925 14.841 29.3925 16.2751C29.3925 17.8207 29.0827 19.1709 28.4478 20.2704C27.8272 21.3846 26.9244 22.1919 25.7538 22.7071C26.3606 22.9018 26.8539 23.3468 27.2628 24.0019L27.9683 25.0459ZM25.7543 19.9924C26.473 19.1149 26.8401 17.862 26.8401 16.2473C26.8401 14.6044 26.473 13.3792 25.7538 12.5022C25.0345 11.6247 24.0474 11.2075 22.75 11.2075C21.452 11.2075 20.4505 11.6389 19.7313 12.5022C19.012 13.3798 18.6455 14.6044 18.6455 16.2473C18.6455 17.8897 19.0126 19.1149 19.7313 19.9924C20.4505 20.8694 21.4663 21.3008 22.75 21.3008C24.033 21.3008 25.0345 20.8694 25.7538 19.9924H25.7543ZM32.4955 22.9018C32.2557 22.6652 32.1433 22.3583 32.1433 21.9688V10.5394C32.1433 10.1635 32.2557 9.87135 32.4817 9.66187C32.7071 9.46712 33.0037 9.35615 33.3845 9.35615H38.2501C39.7454 9.35615 40.9017 9.71792 41.734 10.4698C42.5656 11.1939 42.9889 12.2379 42.9889 13.5604C42.9889 14.8829 42.5662 15.9269 41.734 16.6651C40.9023 17.4164 39.7454 17.7788 38.2501 17.7788H34.71V21.983C34.71 22.3866 34.597 22.6929 34.3573 22.9154C34.1175 23.1526 33.8072 23.2636 33.4126 23.2636C33.0318 23.25 32.7071 23.1385 32.4955 22.9013V22.9018ZM37.926 15.8572C39.6748 15.8572 40.5633 15.0918 40.5633 13.5881C40.5633 12.0844 39.6743 11.319 37.926 11.319H34.7095V15.8437L37.9255 15.8572H37.926ZM56.4867 22.1358C56.4867 22.4285 56.3599 22.6793 56.1196 22.9018C55.8804 23.0966 55.5982 23.2076 55.2736 23.2076C55.0763 23.2076 54.8647 23.1526 54.6817 23.0411C54.4981 22.9296 54.3433 22.7484 54.2441 22.5259L53.0453 19.9086H46.1063L44.9075 22.5259C44.7945 22.7626 44.6534 22.9296 44.4699 23.0411C44.2863 23.1526 44.089 23.2081 43.8636 23.2081C43.5676 23.2081 43.2711 23.0966 43.0319 22.9018C42.7778 22.7071 42.6649 22.4421 42.6649 22.1358C42.6649 21.9688 42.7073 21.7882 42.7778 21.6206L48.2497 10.0242C48.3627 9.77341 48.5462 9.56506 48.8003 9.42579C49.0401 9.28652 49.2936 9.23047 49.5758 9.23047C49.858 9.23047 50.1115 9.30011 50.3512 9.42579C50.5916 9.56506 50.7745 9.75982 50.9019 10.0242L56.3881 21.6212C56.4443 21.8024 56.4867 21.9552 56.4867 22.1364V22.1358ZM46.9666 17.9594H52.1993L49.5758 12.1677L46.966 17.9594H46.9666Z" fill="white"/>
<path fill-rule="evenodd" clip-rule="evenodd" d="M66.3595 9.25854C66.656 9.25854 66.9239 9.3695 67.1636 9.60615C67.4034 9.8428 67.5164 10.0936 67.5164 10.4276C67.5164 10.6784 67.4177 10.9428 67.2198 11.1795L62.7208 16.5953V22.0105C62.7208 22.4142 62.6078 22.7204 62.368 22.9571C62.1283 23.1937 61.8323 23.2911 61.4658 23.2911C61.0849 23.2911 60.7603 23.1802 60.5206 22.9571C60.2808 22.7346 60.1678 22.4283 60.1678 22.0105V16.5953L55.6968 11.1659C55.4995 10.9287 55.4009 10.6784 55.4009 10.414C55.4009 10.1078 55.5133 9.82922 55.7536 9.59257C55.9934 9.35592 56.2756 9.24438 56.5572 9.24438C56.8956 9.24438 57.164 9.38366 57.4038 9.67579L61.4515 14.6319L65.4854 9.67579C65.7251 9.39725 66.0211 9.25854 66.3595 9.25854Z" fill="white"/>
</g>
<defs>
<linearGradient id="paint0_linear_181_2756" x1="72.7428" y1="20.9793" x2="78.7592" y2="17.4649" gradientUnits="userSpaceOnUse">
<stop stop-color="#1FADC3"/>
<stop offset="0.7072" stop-color="#36B98F"/>
</linearGradient>
<linearGradient id="paint1_linear_181_2756" x1="76.4808" y1="17.7708" x2="77.0969" y2="17.2494" gradientUnits="userSpaceOnUse">
<stop stop-color="#123F06" stop-opacity="0"/>
<stop offset="1" stop-color="#123F06"/>
</linearGradient>
<radialGradient id="paint2_radial_181_2756" cx="0" cy="0" r="1" gradientUnits="userSpaceOnUse" gradientTransform="translate(75.3906 17.6619) scale(3.44151 3.39664)">
<stop offset="0.4185" stop-color="#123F06" stop-opacity="0"/>
<stop offset="1" stop-color="#123F06"/>
</radialGradient>
<linearGradient id="paint3_linear_181_2756" x1="73.0156" y1="11.7158" x2="78.4351" y2="15.0725" gradientUnits="userSpaceOnUse">
<stop stop-color="#9FDB57"/>
<stop offset="1" stop-color="#71CA5E"/>
</linearGradient>
<linearGradient id="paint4_linear_181_2756" x1="79.2535" y1="20.9829" x2="85.2699" y2="17.4685" gradientUnits="userSpaceOnUse">
<stop stop-color="#1FADC3"/>
<stop offset="0.7072" stop-color="#36B98F"/>
</linearGradient>
<linearGradient id="paint5_linear_181_2756" x1="83.0526" y1="17.7149" x2="83.6688" y2="17.1935" gradientUnits="userSpaceOnUse">
<stop stop-color="#123F06" stop-opacity="0"/>
<stop offset="1" stop-color="#123F06"/>
</linearGradient>
<radialGradient id="paint6_radial_181_2756" cx="0" cy="0" r="1" gradientUnits="userSpaceOnUse" gradientTransform="translate(81.8983 17.6614) scale(3.44155 3.39664)">
<stop offset="0.4185" stop-color="#123F06" stop-opacity="0"/>
<stop offset="1" stop-color="#123F06"/>
</radialGradient>
<linearGradient id="paint7_linear_181_2756" x1="79.5185" y1="11.7178" x2="84.9381" y2="15.0747" gradientUnits="userSpaceOnUse">
<stop stop-color="#9FDB57"/>
<stop offset="1" stop-color="#71CA5E"/>
</linearGradient>
<clipPath id="clip0_181_2756">
<rect width="86" height="36" fill="white"/>
</clipPath>
</defs>
</svg>
