<svg width="55" height="36" viewBox="0 0 55 36" fill="none" xmlns="http://www.w3.org/2000/svg">
<path d="M20.1721 4.70947H34.8789V31.486H20.1721V4.70947Z" fill="#FF5F00"/>
<path d="M21.1054 18.1008C21.1027 15.5214 21.6794 12.9753 22.7917 10.6551C23.9041 8.33501 25.523 6.30175 27.5259 4.70935C20.6338 -0.77706 10.7379 0.0219575 4.7917 6.54551C-1.15453 13.0691 -1.15453 23.1267 4.7917 29.6502C10.7379 36.1738 20.6338 36.9728 27.5254 31.4864C25.5233 29.8945 23.9049 27.8621 22.7926 25.5429C21.6804 23.2238 21.1034 20.6787 21.1054 18.1002V18.1008Z" fill="#EB001B"/>
<path d="M54.7208 18.1002C54.7204 21.2952 53.8328 24.4257 52.1595 27.1338C50.4861 29.8419 48.0944 32.0184 45.2578 33.4145C42.4212 34.8107 39.2541 35.3702 36.1184 35.029C32.9828 34.6879 30.0052 33.4599 27.5259 31.4854C29.5271 29.892 31.1449 27.8591 32.2574 25.5398C33.3699 23.2206 33.948 20.6757 33.948 18.0971C33.948 15.5185 33.3699 12.9736 32.2574 10.6544C31.1449 8.33512 29.5271 6.30215 27.5259 4.70882C30.0052 2.73412 32.983 1.50598 36.1187 1.16477C39.2545 0.823556 42.4217 1.38305 45.2584 2.77929C48.0951 4.17553 50.4869 6.35218 52.1603 9.06045C53.8336 11.7687 54.7211 14.8993 54.7213 18.0945V18.0997L54.7208 18.1002ZM53.1149 28.6478V28.0985H53.3344V27.9849H52.7792V28.0985H53.0168V28.6473H53.1154L53.1149 28.6478ZM54.1936 28.6478V27.9855H54.0255L53.8294 28.4586L53.6332 27.9855H53.4838V28.6478H53.6052V28.151L53.7868 28.5816H53.9134L54.095 28.151V28.6525L54.1936 28.6473V28.6478Z" fill="#F79E1B"/>
<path d="M10.0774 21.3732V18.5346C10.0936 18.296 10.0595 18.0567 9.97732 17.8325C9.89513 17.6083 9.76676 17.4045 9.60074 17.2345C9.43471 17.0645 9.23485 16.9323 9.01446 16.8467C8.79406 16.761 8.55819 16.7239 8.32255 16.7379C8.0139 16.7174 7.70547 16.7812 7.42947 16.9227C7.15348 17.0641 6.92002 17.2781 6.75349 17.5421C6.60177 17.286 6.38466 17.0761 6.12504 16.9346C5.86542 16.793 5.57291 16.7251 5.27835 16.7379C5.02156 16.7246 4.76581 16.7796 4.53645 16.8973C4.30709 17.0151 4.1121 17.1915 3.9708 17.4092V16.8514H3V21.3732H3.98066V18.8852C3.95981 18.7306 3.97293 18.5732 4.01907 18.4243C4.06521 18.2755 4.14323 18.1387 4.24758 18.0239C4.35192 17.9091 4.48 17.8191 4.62266 17.7603C4.76533 17.7014 4.91906 17.6752 5.07288 17.6836C5.71731 17.6836 6.0442 18.1093 6.0442 18.8758V21.3922H7.02486V18.8847C7.00494 18.7303 7.01872 18.5733 7.06521 18.4249C7.1117 18.2764 7.18978 18.1401 7.29394 18.0256C7.39809 17.911 7.52578 17.821 7.66801 17.7619C7.81024 17.7028 7.96353 17.6761 8.11708 17.6836C8.77967 17.6836 9.09774 18.1093 9.09774 18.8758V21.3922L10.0779 21.3732H10.0774ZM24.5839 16.8514H22.9868V15.4794H22.0061V16.8514H21.1189V17.7503H22.0248V19.8309C22.0248 20.8812 22.4264 21.5057 23.5747 21.5057C24.0039 21.5072 24.4247 21.3858 24.7888 21.1556L24.5086 20.3135C24.2482 20.4712 23.9524 20.559 23.6494 20.569C23.1824 20.569 23.0055 20.2662 23.0055 19.812V17.7498H24.5927L24.5834 16.8509L24.5839 16.8514ZM32.866 16.7379C32.3835 16.7232 31.9321 16.9776 31.6898 17.4002V16.8514H30.7278V21.3732H31.6991V18.8379C31.6991 18.0904 32.0167 17.6741 32.6331 17.6741C32.8406 17.6715 33.0466 17.7098 33.2401 17.7876L33.5385 16.8414C33.3166 16.7612 33.0829 16.7198 32.8474 16.719L32.866 16.7379ZM20.3447 17.211C19.7949 16.8798 19.1628 16.7156 18.5235 16.7379C17.3939 16.7379 16.6561 17.2861 16.6561 18.185C16.6561 18.9231 17.1978 19.3773 18.1971 19.5187L18.6641 19.5849C19.1959 19.6606 19.4481 19.8025 19.4481 20.058C19.4481 20.4081 19.0932 20.6068 18.4301 20.6068C17.8969 20.6224 17.374 20.4557 16.9456 20.1337L16.4786 20.9001C17.0443 21.3003 17.7218 21.5059 18.4114 21.4868C19.7003 21.4868 20.4475 20.8717 20.4475 20.0107C20.4475 19.1502 19.8591 18.8001 18.8877 18.6581L18.4208 18.5919C18.0005 18.5351 17.6648 18.45 17.6648 18.1472C17.6648 17.8444 17.9823 17.6173 18.5142 17.6173C19.0062 17.6231 19.4886 17.7567 19.9151 18.0053L20.3447 17.2105V17.211ZM46.3545 16.7379C45.872 16.7232 45.4206 16.9776 45.1777 17.4002V16.8514H44.2163V21.3732H45.1871V18.8379C45.1871 18.0904 45.5046 17.6741 46.121 17.6741C46.3286 17.6715 46.5351 17.7098 46.7281 17.7876L47.027 16.8414C46.8051 16.7612 46.5714 16.7198 46.3358 16.719L46.3545 16.7379ZM33.8415 19.1029C33.83 19.4206 33.884 19.7373 34.0002 20.0327C34.1164 20.3281 34.2922 20.5957 34.5163 20.8183C34.7405 21.0409 35.008 21.2137 35.3018 21.3255C35.5956 21.4374 35.9092 21.4858 36.2226 21.4678C36.8056 21.4978 37.3786 21.3054 37.8285 20.9285L37.3615 20.1337C37.0259 20.393 36.6166 20.5357 36.1946 20.5406C35.835 20.5119 35.4994 20.347 35.2546 20.0787C35.0098 19.8104 34.8738 19.4585 34.8738 19.0931C34.8738 18.7278 35.0098 18.3758 35.2546 18.1075C35.4994 17.8393 35.835 17.6743 36.1946 17.6457C36.6168 17.6505 37.0263 17.7932 37.362 18.0526L37.829 17.2578C37.3789 16.8809 36.8057 16.6887 36.2226 16.719C35.9092 16.701 35.5956 16.7494 35.3018 16.8613C35.008 16.9731 34.7405 17.1459 34.5163 17.3685C34.2922 17.5911 34.1164 17.8587 34.0002 18.1541C33.884 18.4495 33.83 18.7662 33.8415 19.0839V19.1029ZM42.9362 19.1029V16.8514H41.9654V17.3997C41.8005 17.1846 41.5874 17.0124 41.3439 16.8972C41.1003 16.7821 40.8331 16.7273 40.5645 16.7373C39.9453 16.7373 39.3515 16.9865 38.9136 17.4301C38.4758 17.8737 38.2298 18.4753 38.2298 19.1026C38.2298 19.7299 38.4758 20.3315 38.9136 20.7751C39.3515 21.2187 39.9453 21.4678 40.5645 21.4678C40.8331 21.4779 41.1003 21.4231 41.3439 21.308C41.5874 21.1928 41.8005 21.0206 41.9654 20.8055V21.3543H42.9362V19.1029ZM39.3228 19.1029C39.3383 18.8368 39.4303 18.5811 39.5874 18.3672C39.7445 18.1534 39.9599 17.9908 40.2071 17.8994C40.4542 17.808 40.7224 17.7918 40.9785 17.8529C41.2346 17.9139 41.4675 18.0495 41.6486 18.243C41.8296 18.4364 41.9508 18.6793 41.9973 18.9416C42.0439 19.204 42.0137 19.4744 41.9104 19.7196C41.8072 19.9648 41.6354 20.174 41.4163 20.3216C41.1971 20.4691 40.9402 20.5485 40.6771 20.55C40.4922 20.5525 40.3088 20.5161 40.1385 20.4433C39.9682 20.3704 39.8146 20.2626 39.6874 20.1267C39.5602 19.9907 39.4621 19.8296 39.3994 19.6534C39.3366 19.4772 39.3106 19.2898 39.3228 19.1029ZM27.6042 16.7373C26.9871 16.7493 26.3998 17.0083 25.9707 17.4577C25.5416 17.9071 25.3055 18.5103 25.3142 19.1355C25.3228 19.7608 25.5754 20.3571 26.0168 20.7941C26.4582 21.2312 27.0524 21.4734 27.6696 21.4678C28.3413 21.5027 29.0018 21.2835 29.523 20.8528L29.056 20.1242C28.6876 20.4239 28.231 20.5905 27.7583 20.5973C27.4372 20.6255 27.118 20.5255 26.8685 20.3187C26.6191 20.1119 26.4591 19.8147 26.4227 19.4903H29.7378V19.1118C29.7378 17.693 28.8692 16.7473 27.6182 16.7473L27.6042 16.7379V16.7373ZM27.6042 17.6173C27.8977 17.6111 28.1815 17.7233 28.3934 17.9291C28.6052 18.135 28.7276 18.4176 28.7338 18.7149H26.3994C26.4163 18.4112 26.5499 18.1263 26.7716 17.9211C26.9933 17.716 27.2854 17.6069 27.5855 17.6173H27.6042ZM51.9334 19.1123V15.0342H50.9994V17.3997C50.8345 17.1846 50.6215 17.0124 50.3779 16.8972C50.1343 16.7821 49.8671 16.7273 49.5985 16.7373C48.9794 16.7373 48.3856 16.9865 47.9478 17.43C47.5101 17.8736 47.2641 18.4751 47.2641 19.1023C47.2641 19.7296 47.5101 20.3311 47.9478 20.7746C48.3856 21.2182 48.9794 21.4673 49.5985 21.4673C49.8671 21.4774 50.1343 21.4226 50.3779 21.3074C50.6215 21.1923 50.8345 21.02 50.9994 20.805V21.3538H51.9334V19.1118V19.1123ZM53.5533 20.7156C53.614 20.7149 53.6743 20.7261 53.7308 20.7487C53.7844 20.7709 53.8335 20.803 53.8755 20.8433C53.9284 20.8946 53.9676 20.9586 53.9895 21.0293C54.0114 21.1001 54.0154 21.1753 54.0009 21.248C53.9865 21.3207 53.9541 21.3885 53.9069 21.4451C53.8597 21.5017 53.7991 21.5454 53.7308 21.5719C53.6749 21.5969 53.6144 21.6098 53.5533 21.6098C53.4648 21.6091 53.3783 21.5829 53.3039 21.5344C53.2294 21.4858 53.1702 21.4168 53.133 21.3354C53.1096 21.2801 53.0976 21.2205 53.0976 21.1603C53.0976 21.1002 53.1096 21.0406 53.133 20.9853C53.1568 20.9323 53.1901 20.8841 53.2311 20.8433C53.2731 20.803 53.3222 20.7709 53.3759 20.7487C53.4367 20.7242 53.5019 20.7129 53.5673 20.7156H53.5533ZM53.5533 21.5146C53.5986 21.5151 53.6435 21.5061 53.6853 21.4883C53.7271 21.4705 53.7648 21.4442 53.7961 21.4111C53.8545 21.3465 53.887 21.2621 53.887 21.1745C53.887 21.0869 53.8545 21.0025 53.7961 20.938C53.7484 20.8876 53.6864 20.8533 53.6188 20.8397C53.5511 20.8262 53.481 20.8341 53.4179 20.8623C53.3759 20.8797 53.3378 20.9054 53.3058 20.938C53.2474 21.0025 53.215 21.0869 53.215 21.1745C53.215 21.2621 53.2474 21.3465 53.3058 21.4111C53.338 21.4431 53.3759 21.4689 53.4179 21.4868C53.4646 21.5073 53.5159 21.5167 53.5673 21.5152H53.5533V21.5146ZM53.5813 20.9522C53.6249 20.95 53.6679 20.9634 53.7027 20.99C53.7169 21.0021 53.7281 21.0173 53.7353 21.0346C53.7425 21.0519 53.7456 21.0707 53.7442 21.0894C53.7458 21.1209 53.7339 21.1519 53.7121 21.1745C53.6848 21.1993 53.6501 21.2142 53.6135 21.2166L53.7494 21.3732H53.642L53.5159 21.2171H53.4739V21.3732H53.3852V20.9569L53.5813 20.9516V20.9522ZM53.4786 21.0326V21.1461H53.5813C53.5995 21.1514 53.6192 21.1514 53.6374 21.1461C53.6406 21.1395 53.6424 21.1322 53.6424 21.1248C53.6424 21.1175 53.6406 21.1102 53.6374 21.1036C53.6406 21.097 53.6424 21.0897 53.6424 21.0823C53.6424 21.0749 53.6406 21.0676 53.6374 21.061C53.6191 21.0555 53.5996 21.0555 53.5813 21.061L53.4786 21.0326ZM48.3428 19.1123C48.3583 18.8462 48.4503 18.5905 48.6074 18.3767C48.7645 18.1629 48.9799 18.0002 49.2271 17.9089C49.4742 17.8175 49.7424 17.8013 49.9985 17.8624C50.2546 17.9234 50.4875 18.059 50.6686 18.2524C50.8496 18.4459 50.9708 18.6887 51.0174 18.9511C51.0639 19.2135 51.0337 19.4839 50.9304 19.7291C50.8272 19.9743 50.6554 20.1835 50.4363 20.3311C50.2171 20.4786 49.9602 20.558 49.6971 20.5595C49.5122 20.5619 49.3288 20.5256 49.1585 20.4527C48.9882 20.3799 48.8346 20.2721 48.7074 20.1361C48.5802 20.0002 48.4821 19.8391 48.4194 19.6629C48.3566 19.4867 48.3306 19.2992 48.3428 19.1123ZM15.554 19.1123V16.8514H14.5827V17.3997C14.4178 17.1846 14.2047 17.0124 13.9611 16.8972C13.7175 16.7821 13.4504 16.7273 13.1817 16.7373C12.5626 16.7373 11.9687 16.9865 11.5309 17.4301C11.0931 17.8737 10.8471 18.4753 10.8471 19.1026C10.8471 19.7299 11.0931 20.3315 11.5309 20.7751C11.9687 21.2187 12.5626 21.4678 13.1817 21.4678C13.4504 21.4779 13.7175 21.4231 13.9611 21.308C14.2047 21.1928 14.4178 21.0206 14.5827 20.8055V21.3543H15.554V19.1123ZM11.9401 19.1123C11.9556 18.8462 12.0475 18.5905 12.2046 18.3767C12.3618 18.1629 12.5772 18.0002 12.8243 17.9089C13.0715 17.8175 13.3396 17.8013 13.5958 17.8624C13.8519 17.9234 14.0848 18.059 14.2658 18.2524C14.4469 18.4459 14.5681 18.6887 14.6146 18.9511C14.6611 19.2135 14.6309 19.4839 14.5277 19.7291C14.4244 19.9743 14.2527 20.1835 14.0335 20.3311C13.8144 20.4786 13.5575 20.558 13.2943 20.5595C13.1087 20.5633 12.9243 20.5279 12.7528 20.4556C12.5814 20.3833 12.4267 20.2758 12.2984 20.1397C12.1702 20.0036 12.0713 19.842 12.008 19.6651C11.9447 19.4883 11.9184 19.3 11.9308 19.1123H11.9401Z" fill="#FEFEFE"/>
</svg>
