<svg width="128" height="14" viewBox="0 0 128 14" fill="none" xmlns="http://www.w3.org/2000/svg">
<line x1="0.75" y1="6.75" x2="37.25" y2="6.75" stroke="#171026" stroke-opacity="0.2" stroke-width="1.5" stroke-linecap="round"/>
<path d="M56.0827 7.5C56.5775 7.8421 56.7425 8.18421 56.7425 8.69736C56.7425 9.21052 56.5775 9.72368 56.2476 10.2368C55.9177 10.75 55.4229 11.0921 54.9281 11.2632C54.4332 11.4342 53.7734 11.6053 53.2786 11.4342C52.2889 11.2632 51.2993 10.2368 51.1343 9.03947C50.9694 8.52631 50.9694 7.8421 50.9694 7.15789C50.9694 6.81579 51.1343 6.47368 51.1343 6.30263C51.2993 5.96052 51.2993 5.78947 51.6291 5.44737C52.2889 4.42105 53.4436 3.90789 54.4332 3.39474C54.9281 3.22368 55.4229 3.05263 56.0827 2.88158C56.5775 2.88158 57.2373 2.71053 57.7322 2.71053C60.0414 2.71053 62.5156 3.56579 64.6599 4.76316C65.8145 5.27631 66.8042 6.13158 67.7939 6.81579C68.2887 7.15789 68.7835 7.67105 69.2784 8.01315C69.7732 8.52631 70.2681 8.86842 70.7629 9.21052C71.7526 10.0658 72.9072 10.75 74.0618 11.4342C75.2164 12.1184 76.3711 12.6316 77.6906 12.9737C79.0102 13.3158 80.3298 13.4868 81.6494 13.4868C82.9689 13.4868 84.2885 13.1447 85.6081 12.6316C86.9276 12.1184 88.0823 11.2632 88.907 10.0658C89.7317 8.86842 90.2266 7.15789 89.8967 5.61842C89.7317 5.10526 89.4018 4.93421 88.907 4.93421C88.4122 5.10526 88.2472 5.44737 88.2472 5.96052C88.5771 6.98684 88.4121 8.18421 87.7524 9.21052C87.0926 10.2368 86.1029 10.921 85.1132 11.4342C82.9689 12.4605 80.3298 12.6316 77.8556 11.9474C75.3814 11.2632 73.2371 9.89473 71.2577 8.35526C71.0928 8.18421 70.598 7.8421 70.1031 7.32894C69.6083 6.81579 69.1134 6.47368 68.6186 5.96052C67.6289 5.10526 66.4743 4.25 65.4846 3.56579C64.33 2.88158 63.1754 2.19737 61.8558 1.68421C60.5362 1.34211 59.2167 1 57.7322 1C56.4126 1 54.9281 1.17105 53.6085 1.85526C52.2889 2.53947 51.2992 3.73684 50.6395 4.93421C50.4745 5.27631 50.3096 5.61842 50.3096 5.96052C50.1446 6.30263 50.1446 6.64473 50.1446 6.98684C50.1446 7.67105 50.1446 8.52631 50.3096 9.21052C50.4745 9.89473 50.8044 10.5789 51.2992 11.0921C51.7941 11.6053 52.4539 12.1184 53.1137 12.2895C53.7734 12.4605 54.5982 12.4605 55.258 12.1184C55.9177 11.7763 56.5775 11.4342 56.9074 10.75C57.4023 10.2368 57.7322 9.55263 57.7322 8.69736C57.7322 7.8421 57.4023 6.98684 56.7425 6.47368C56.5775 6.30263 56.0827 6.30263 55.9177 6.64473C55.7528 6.98684 55.9177 7.32894 56.0827 7.5Z" fill="#171026" fill-opacity="0.2"/>
<path d="M72.0822 7.5C71.2575 6.64474 71.2575 5.44737 71.9173 4.42106C72.2472 3.9079 72.742 3.56579 73.2369 3.39474C73.7317 3.22369 74.3915 3.22369 74.8863 3.39474C76.041 3.9079 76.8657 4.93421 77.1956 6.13158C77.3605 6.64474 77.3605 7.32895 77.1956 8.01316C77.1956 8.35527 77.0306 8.69737 77.0306 8.86842L76.8657 9.21053C76.8657 9.38158 76.7007 9.38158 76.5358 9.55263C75.876 10.5789 74.7214 11.0921 73.7317 11.4342C73.4018 11.6053 73.2369 11.6053 72.907 11.7763C72.5771 11.9474 72.4121 11.9474 72.0822 11.9474C71.7524 12.1184 71.5874 12.1184 71.2575 12.1184C70.9276 12.1184 70.5977 12.2895 70.4328 12.1184C68.1235 12.1184 65.6493 11.2632 63.505 10.0658C63.0102 9.72369 62.3504 9.38158 61.8556 9.03948C61.3607 8.69737 60.8659 8.35527 60.3711 7.84211L57.402 5.44737C56.9072 5.10527 56.4124 4.59211 55.7526 4.25L54.9278 3.73685C54.598 3.56579 54.433 3.39474 54.1031 3.22369L52.9485 2.88158C52.6186 2.71053 52.4537 2.71053 52.1238 2.53948C51.464 2.19737 50.8042 2.02632 50.3094 1.85527C48.9898 1.51316 47.6702 1.34211 46.3506 1.34211C45.0311 1.34211 43.7115 1.68422 42.3919 2.19737C41.2373 2.71053 39.9177 3.56579 39.093 4.76316C38.2683 5.96053 37.7734 7.67106 38.1033 9.21053C38.1033 9.55263 38.4332 9.89474 38.9281 9.72369C39.4229 9.55263 39.5879 9.21053 39.5879 8.69737C39.258 7.67106 39.4229 6.47369 40.0827 5.44737C40.7425 4.42106 41.7321 3.73685 42.7218 3.22369C44.8661 2.19737 47.5053 2.02632 49.8145 2.71053C52.2887 3.39474 54.433 4.76316 56.4124 6.30263L59.5463 8.86842C59.8762 9.03948 60.0412 9.38158 60.3711 9.55263L61.1958 10.0658C61.6906 10.4079 62.1855 10.9211 62.8453 11.2632C63.9999 11.9474 65.1545 12.6316 66.4741 13.1447C67.1339 13.3158 67.7936 13.6579 68.4534 13.8289C68.7833 13.8289 69.1132 14 69.4431 14H70.4328C71.7524 14 73.2369 13.8289 74.5564 13.1447C75.876 12.4605 76.8657 11.4342 77.5255 10.0658C77.5255 9.89474 77.6904 9.72369 77.6904 9.55263L77.8554 9.03948C78.0203 8.69737 78.0203 8.35527 78.0203 8.01316C78.1853 7.32895 78.0203 6.64474 77.8554 5.78948C77.6904 5.10527 77.3605 4.42106 76.8657 3.9079C76.3708 3.39474 75.876 2.88158 75.0513 2.71053C74.3915 2.53948 73.5668 2.53948 72.907 2.71053C72.2472 2.88158 71.5874 3.39474 71.0926 3.9079C70.5977 4.42106 70.4328 5.27632 70.2678 5.96053C70.2678 6.81579 70.5977 7.5 71.0926 8.18421C71.2575 8.35527 71.5874 8.52632 71.9173 8.18421C72.4121 8.18421 72.4121 7.84211 72.0822 7.5C72.2472 7.67106 72.0822 7.67106 72.0822 7.5Z" fill="#171026" fill-opacity="0.2"/>
<path d="M55.9176 9.38158C56.7375 9.38158 57.4021 8.69233 57.4021 7.84211C57.4021 6.99188 56.7375 6.30263 55.9176 6.30263C55.0977 6.30263 54.4331 6.99188 54.4331 7.84211C54.4331 8.69233 55.0977 9.38158 55.9176 9.38158Z" fill="#171026" fill-opacity="0.2"/>
<path d="M70.9277 7.32893C70.9277 8.18419 71.5875 8.8684 72.4122 8.8684C73.237 8.8684 73.8968 8.18419 73.8968 7.32893C73.8968 6.47366 73.237 5.78945 72.4122 5.78945C71.5875 5.78945 70.9277 6.64472 70.9277 7.32893Z" fill="#171026" fill-opacity="0.2"/>
<line x1="90.75" y1="6.75" x2="127.25" y2="6.75" stroke="#171026" stroke-opacity="0.2" stroke-width="1.5" stroke-linecap="round"/>
</svg>
