<svg width="178" height="14" viewBox="0 0 178 14" fill="none" xmlns="http://www.w3.org/2000/svg">
<g clip-path="url(#clip0_0_1640)">
<line x1="0.75" y1="6.25" x2="62.25" y2="6.25" stroke="#171026" stroke-opacity="0.2" stroke-width="1.5" stroke-linecap="round"/>
<path d="M81.0827 7C81.5775 7.3421 81.7425 7.68421 81.7425 8.19736C81.7425 8.71052 81.5775 9.22368 81.2476 9.73684C80.9177 10.25 80.4229 10.5921 79.9281 10.7632C79.4332 10.9342 78.7734 11.1053 78.2786 10.9342C77.2889 10.7632 76.2993 9.73684 76.1343 8.53947C75.9694 8.02631 75.9694 7.3421 75.9694 6.65789C75.9694 6.31579 76.1343 5.97368 76.1343 5.80263C76.2993 5.46052 76.2993 5.28947 76.6291 4.94737C77.2889 3.92105 78.4436 3.40789 79.4332 2.89474C79.9281 2.72368 80.4229 2.55263 81.0827 2.38158C81.5775 2.38158 82.2373 2.21053 82.7322 2.21053C85.0414 2.21053 87.5156 3.06579 89.6599 4.26316C90.8145 4.77631 91.8042 5.63158 92.7939 6.31579C93.2887 6.65789 93.7835 7.17105 94.2784 7.51315C94.7732 8.02631 95.2681 8.36842 95.7629 8.71052C96.7526 9.56579 97.9072 10.25 99.0618 10.9342C100.216 11.6184 101.371 12.1316 102.691 12.4737C104.01 12.8158 105.33 12.9868 106.649 12.9868C107.969 12.9868 109.288 12.6447 110.608 12.1316C111.928 11.6184 113.082 10.7632 113.907 9.56579C114.732 8.36842 115.227 6.65789 114.897 5.11842C114.732 4.60526 114.402 4.43421 113.907 4.43421C113.412 4.60526 113.247 4.94737 113.247 5.46052C113.577 6.48684 113.412 7.68421 112.752 8.71052C112.093 9.73684 111.103 10.421 110.113 10.9342C107.969 11.9605 105.33 12.1316 102.856 11.4474C100.381 10.7632 98.2371 9.39473 96.2577 7.85526C96.0928 7.68421 95.598 7.3421 95.1031 6.82894C94.6083 6.31579 94.1134 5.97368 93.6186 5.46052C92.6289 4.60526 91.4743 3.75 90.4846 3.06579C89.33 2.38158 88.1754 1.69737 86.8558 1.18421C85.5362 0.842105 84.2167 0.5 82.7322 0.5C81.4126 0.5 79.9281 0.671053 78.6085 1.35526C77.2889 2.03947 76.2992 3.23684 75.6395 4.43421C75.4745 4.77631 75.3096 5.11842 75.3096 5.46052C75.1446 5.80263 75.1446 6.14473 75.1446 6.48684C75.1446 7.17105 75.1446 8.02631 75.3096 8.71052C75.4745 9.39473 75.8044 10.0789 76.2992 10.5921C76.7941 11.1053 77.4539 11.6184 78.1137 11.7895C78.7734 11.9605 79.5982 11.9605 80.258 11.6184C80.9177 11.2763 81.5775 10.9342 81.9074 10.25C82.4023 9.73684 82.7322 9.05263 82.7322 8.19736C82.7322 7.3421 82.4023 6.48684 81.7425 5.97368C81.5775 5.80263 81.0827 5.80263 80.9177 6.14473C80.7528 6.48684 80.9177 6.82894 81.0827 7Z" fill="#171026" fill-opacity="0.2"/>
<path d="M97.0822 7C96.2575 6.14474 96.2575 4.94737 96.9173 3.92106C97.2472 3.4079 97.742 3.06579 98.2369 2.89474C98.7317 2.72369 99.3915 2.72369 99.8863 2.89474C101.041 3.4079 101.866 4.43421 102.196 5.63158C102.361 6.14474 102.361 6.82895 102.196 7.51316C102.196 7.85527 102.031 8.19737 102.031 8.36842L101.866 8.71053C101.866 8.88158 101.701 8.88158 101.536 9.05263C100.876 10.0789 99.7214 10.5921 98.7317 10.9342C98.4018 11.1053 98.2369 11.1053 97.907 11.2763C97.5771 11.4474 97.4121 11.4474 97.0822 11.4474C96.7524 11.6184 96.5874 11.6184 96.2575 11.6184C95.9276 11.6184 95.5977 11.7895 95.4328 11.6184C93.1235 11.6184 90.6493 10.7632 88.505 9.56579C88.0102 9.22369 87.3504 8.88158 86.8556 8.53948C86.3607 8.19737 85.8659 7.85527 85.3711 7.34211L82.402 4.94737C81.9072 4.60527 81.4124 4.09211 80.7526 3.75L79.9278 3.23685C79.598 3.06579 79.433 2.89474 79.1031 2.72369L77.9485 2.38158C77.6186 2.21053 77.4537 2.21053 77.1238 2.03948C76.464 1.69737 75.8042 1.52632 75.3094 1.35527C73.9898 1.01316 72.6702 0.842111 71.3506 0.842111C70.0311 0.842111 68.7115 1.18422 67.3919 1.69737C66.2373 2.21053 64.9177 3.06579 64.093 4.26316C63.2683 5.46053 62.7734 7.17106 63.1033 8.71053C63.1033 9.05263 63.4332 9.39474 63.9281 9.22369C64.4229 9.05263 64.5879 8.71053 64.5879 8.19737C64.258 7.17106 64.4229 5.97369 65.0827 4.94737C65.7425 3.92106 66.7321 3.23685 67.7218 2.72369C69.8661 1.69737 72.5053 1.52632 74.8145 2.21053C77.2887 2.89474 79.433 4.26316 81.4124 5.80263L84.5463 8.36842C84.8762 8.53948 85.0412 8.88158 85.3711 9.05263L86.1958 9.56579C86.6906 9.9079 87.1855 10.4211 87.8453 10.7632C88.9999 11.4474 90.1545 12.1316 91.4741 12.6447C92.1339 12.8158 92.7936 13.1579 93.4534 13.3289C93.7833 13.3289 94.1132 13.5 94.4431 13.5H95.4328C96.7524 13.5 98.2369 13.3289 99.5564 12.6447C100.876 11.9605 101.866 10.9342 102.525 9.56579C102.525 9.39474 102.69 9.22369 102.69 9.05263L102.855 8.53948C103.02 8.19737 103.02 7.85527 103.02 7.51316C103.185 6.82895 103.02 6.14474 102.855 5.28948C102.69 4.60527 102.361 3.92106 101.866 3.4079C101.371 2.89474 100.876 2.38158 100.051 2.21053C99.3915 2.03948 98.5668 2.03948 97.907 2.21053C97.2472 2.38158 96.5874 2.89474 96.0926 3.4079C95.5977 3.92106 95.4328 4.77632 95.2678 5.46053C95.2678 6.31579 95.5977 7 96.0926 7.68421C96.2575 7.85527 96.5874 8.02632 96.9173 7.68421C97.4121 7.68421 97.4121 7.34211 97.0822 7C97.2472 7.17106 97.0822 7.17106 97.0822 7Z" fill="#171026" fill-opacity="0.2"/>
<path d="M80.9176 8.88158C81.7375 8.88158 82.4021 8.19233 82.4021 7.34211C82.4021 6.49188 81.7375 5.80263 80.9176 5.80263C80.0977 5.80263 79.4331 6.49188 79.4331 7.34211C79.4331 8.19233 80.0977 8.88158 80.9176 8.88158Z" fill="#171026" fill-opacity="0.2"/>
<path d="M95.9277 6.82893C95.9277 7.68419 96.5875 8.3684 97.4122 8.3684C98.237 8.3684 98.8968 7.68419 98.8968 6.82893C98.8968 5.97366 98.237 5.28945 97.4122 5.28945C96.5875 5.28945 95.9277 6.14472 95.9277 6.82893Z" fill="#171026" fill-opacity="0.2"/>
<line x1="115.75" y1="6.25" x2="177.25" y2="6.25" stroke="#171026" stroke-opacity="0.2" stroke-width="1.5" stroke-linecap="round"/>
</g>
<defs>
<clipPath id="clip0_0_1640">
<rect width="178" height="14" fill="white"/>
</clipPath>
</defs>
</svg>
