<svg width="86" height="36" viewBox="0 0 86 36" fill="none" xmlns="http://www.w3.org/2000/svg">
<path d="M7.46361 31.8028C5.42847 31.8028 3.35698 31.8028 1.32184 31.8028C0.158898 31.8028 -0.131837 31.5149 0.0498725 30.3274C0.449633 27.6645 0.885735 25.0016 1.32184 22.3388C2.33941 15.9694 3.35698 9.63605 4.37455 3.26671C4.5926 1.97125 5.06505 1.53943 6.37336 1.53943C9.89852 1.53943 13.3873 1.50345 16.9125 1.53943C18.7296 1.57542 20.5467 1.75534 22.2547 2.43906C25.1984 3.62656 26.7975 6.28945 26.325 9.42014C26.2887 9.63605 26.2524 9.85196 26.216 10.0679C26.0706 10.0319 25.8889 9.9959 25.7799 9.95992C24.3989 9.42014 22.9816 9.13226 21.5279 9.13226C18.4752 9.13226 15.4588 9.13226 12.4061 9.13226C11.5702 9.13226 10.9888 9.56408 10.8797 10.3917C10.7707 11.0395 10.698 11.7232 10.589 12.3709C10.1893 14.7459 9.78949 17.1209 9.42607 19.4959C9.35339 19.9997 9.38973 20.5395 9.35339 21.0433C9.24436 21.4391 9.06265 21.835 8.98997 22.2308C8.44484 25.4335 7.9724 28.6001 7.46361 31.8028Z" fill="#1644A6"/>
<path d="M7.46368 31.8032C7.97246 28.6365 8.48125 25.4698 8.99003 22.3032C9.06272 21.9073 9.24443 21.5115 9.35345 21.1157C9.75321 20.6479 10.2983 20.4679 10.9162 20.4679C12.7696 20.4319 14.6594 20.5039 16.5128 20.288C20.4014 19.8202 23.4177 17.949 25.0531 14.2785C25.5983 13.019 25.889 11.6156 26.2888 10.2842C27.9968 11.1478 28.9417 12.5872 29.0507 14.4225C29.3051 17.6971 28.542 20.7198 26.2524 23.2028C24.5443 25.074 22.2185 25.8297 19.7472 26.0456C18.984 26.1176 18.2209 26.1176 17.4577 26.1176C16.4401 26.1536 16.004 26.4774 15.8586 27.449C15.4952 29.6441 15.1318 31.8392 14.8047 34.0343C14.5867 35.1858 14.2233 35.5456 13.0603 35.5456C11.3886 35.5456 9.71687 35.5456 8.08149 35.5456C7.24562 35.5456 6.99123 35.2578 7.10026 34.4301C7.17294 33.5305 7.31831 32.6668 7.46368 31.8032Z" fill="#15ADF2"/>
<path d="M26.2888 10.2475C25.8891 11.579 25.5983 12.9824 25.0532 14.2419C23.4178 17.9123 20.4014 19.7835 16.5129 20.2513C14.6594 20.4673 12.806 20.3953 10.9162 20.4313C10.2984 20.4313 9.75328 20.6112 9.35352 21.079C9.38986 20.5752 9.35352 20.0354 9.4262 19.5316C9.78962 17.1566 10.1894 14.7816 10.5891 12.4066C10.6982 11.7589 10.7708 11.0752 10.8799 10.4274C11.0252 9.59979 11.5704 9.16797 12.4062 9.16797C15.4589 9.16797 18.4753 9.16797 21.528 9.16797C22.9817 9.16797 24.4354 9.41986 25.78 9.99562C25.9254 10.0676 26.0708 10.0676 26.2161 10.1036C26.2525 10.1396 26.2525 10.2115 26.2888 10.2475Z" fill="#0F3185"/>
<path d="M34.2839 23.7066C32.7576 23.6706 32.8302 23.8865 33.0846 22.3032C33.5571 19.3524 34.0295 16.4016 34.502 13.4509C34.6473 12.4073 34.6837 12.3713 35.7739 12.3713C37.1186 12.3713 38.4269 12.3353 39.7715 12.4073C42.1701 12.5152 43.2604 13.8827 42.7879 16.2217C42.3155 18.6687 40.8618 19.8562 38.3179 19.8922C35.992 19.9282 36.4281 19.6403 35.992 21.9073C35.9556 22.0513 35.9556 22.1592 35.9556 22.3032C35.7013 23.7066 35.7012 23.7066 34.2839 23.7066ZM36.7188 17.6971C37.4457 17.6251 38.0998 17.6251 38.7176 17.4812C39.4445 17.3372 39.6989 16.7615 39.7715 16.0778C39.8442 15.61 39.8442 15.0342 39.3354 14.8543C38.754 14.6743 38.0635 14.6743 37.4457 14.6384C37.3366 14.6384 37.1549 14.9262 37.1186 15.0702C36.9732 15.9338 36.8642 16.7255 36.7188 17.6971Z" fill="#1644A6"/>
<path d="M49.2205 16.7617C49.2205 16.2579 49.5839 16.078 50.1653 16.114C50.5651 16.15 50.9649 16.15 51.3646 16.114C51.8734 16.078 51.9824 16.3299 51.9097 16.7617C51.5827 18.8129 51.2556 20.9 50.9285 22.9511C50.8558 23.4549 50.6014 23.7068 50.0927 23.6708C49.7656 23.6348 49.4022 23.6708 49.0751 23.6708C48.6026 23.6708 47.9848 23.8148 48.2392 23.0231C47.5487 23.275 46.9673 23.5989 46.3131 23.7788C44.0236 24.3186 42.2792 22.8792 42.3155 20.5401C42.3518 17.5174 45.0775 15.3223 47.9848 16.114C48.4209 16.2579 48.8207 16.5458 49.2205 16.7617ZM46.6765 21.7996C47.9485 21.7996 48.8934 20.828 48.8934 19.6045C48.8934 18.6689 48.2392 18.0572 47.258 18.0212C46.0224 18.0212 44.9685 19.0288 45.0048 20.2882C45.0048 21.2238 45.6589 21.7996 46.6765 21.7996Z" fill="#1644A6"/>
<path d="M56.9613 20.3955C57.8335 19.136 58.6693 17.9845 59.4325 16.797C59.7596 16.2932 60.123 16.0773 60.7045 16.1492C61.0679 16.1852 61.4676 16.1492 61.8674 16.1492C62.0855 16.1492 62.3762 16.2212 62.4489 16.3651C62.5216 16.5091 62.3762 16.797 62.2672 16.9409C61.1406 18.5602 60.014 20.1796 58.8874 21.7629C57.9425 23.1303 56.9613 24.4618 56.0527 25.8292C55.7983 26.1891 55.5439 26.333 55.1078 26.297C54.6717 26.261 54.1993 26.297 53.7632 26.297C53.5451 26.297 53.3271 26.1891 53.109 26.1171C53.1817 25.9372 53.218 25.6853 53.3634 25.5413C53.8722 24.8216 54.3446 24.1019 54.8898 23.4182C55.1805 23.0584 55.1805 22.7705 55.0351 22.3746C54.381 20.5754 53.7995 18.8121 53.1817 17.0129C52.9273 16.2572 53 16.1492 53.7995 16.1492C56.1617 16.1852 55.6166 15.8614 56.3071 17.9485C56.4525 18.7042 56.6705 19.4599 56.9613 20.3955Z" fill="#1644A6"/>
<path d="M63.7573 23.7064C61.9765 23.7064 62.3399 23.7064 62.558 22.303C62.9941 19.2803 63.5392 16.2935 63.9753 13.2708C64.0843 12.6231 64.3387 12.3352 65.0292 12.3712C66.4102 12.4071 67.8276 12.3712 69.2085 12.4071C71.5708 12.4791 72.661 13.8465 72.2613 16.1856C71.8252 18.6685 70.3351 19.892 67.7912 19.928C65.5017 19.928 65.8651 19.6761 65.5017 21.9432C65.4653 22.0871 65.429 22.267 65.429 22.411C65.1746 23.8864 65.3563 23.6704 63.7573 23.7064ZM66.1558 17.625C66.701 17.625 67.1734 17.6609 67.6458 17.625C68.3727 17.589 68.9178 17.2651 69.0995 16.5454C69.2449 16.0056 69.4266 15.2859 68.8815 15.034C68.2637 14.7462 67.5005 14.7822 66.81 14.7102C66.7373 14.7102 66.5919 14.9621 66.5556 15.106C66.4102 15.9337 66.3012 16.7253 66.1558 17.625Z" fill="#15ADF2"/>
<path d="M78.6937 16.7613C78.6574 16.2576 79.0208 16.0776 79.5659 16.1496C79.9657 16.1856 80.3654 16.1856 80.7652 16.1496C81.274 16.1136 81.4557 16.3295 81.383 16.8333C81.0559 18.8845 80.6925 20.8996 80.4018 22.9508C80.3291 23.5625 80.0383 23.7424 79.4569 23.7064C79.1298 23.6705 78.8391 23.7064 78.512 23.7064C78.0032 23.7064 77.4944 23.7424 77.7125 22.8788C76.6222 23.7064 75.532 24.0663 74.3327 23.8504C72.7336 23.5625 71.7161 22.375 71.7524 20.6477C71.7887 17.553 74.369 15.3939 77.3491 16.1136C77.8215 16.2216 78.2576 16.5454 78.6937 16.7613ZM76.1134 21.7992C77.3854 21.7992 78.3303 20.8276 78.3303 19.6042C78.3303 18.6685 77.6761 18.0568 76.6949 18.0568C75.4593 18.0568 74.4054 19.1004 74.4417 20.3239C74.4417 21.2235 75.0959 21.7992 76.1134 21.7992Z" fill="#15ADF2"/>
<path d="M84.7264 12.3717C86.2891 12.3357 86.0347 12.4077 85.853 13.7032C85.3805 16.7979 84.8717 19.8566 84.3993 22.9513C84.3266 23.5271 84.0359 23.743 83.4544 23.743C81.6736 23.743 81.6736 23.779 81.928 22.0517C82.4005 19.1009 82.8729 16.1501 83.309 13.1994C83.4544 12.3717 83.4544 12.3717 84.7264 12.3717Z" fill="#15ADF2"/>
</svg>
