<svg width="100" height="36" viewBox="0 0 100 36" fill="none" xmlns="http://www.w3.org/2000/svg">
<path d="M0.21875 25.474H7.15864V18.646H0.21875V25.474Z" fill="#FEFEFE"/>
<path d="M23.2789 25.4739H20.2734V14.99H31.0931V25.4739H28.0876V17.033H23.2789V25.4739Z" fill="#89AF39"/>
<path d="M35.1916 21.657C35.1916 19.5602 36.503 19.1301 37.3773 19.1301C38.197 19.1301 39.5085 19.5602 39.5085 21.657C39.5085 22.9473 38.962 24.2377 37.3773 24.2377C35.738 24.2377 35.1916 22.9473 35.1916 21.657ZM32.5686 17.8936V28.2162H35.3555V24.6678C36.2845 25.6355 37.8145 25.743 38.1424 25.743C40.7653 25.743 42.4047 24.0764 42.4047 21.7108C42.4047 19.1839 40.82 17.6248 38.197 17.6248C37.5413 17.6248 36.2845 17.7323 35.1916 18.8076H35.1369V17.8936H32.5686Z" fill="#89AF39"/>
<path d="M49.2351 24.5602C48.1969 25.4742 47.2133 25.743 46.1204 25.743C43.1149 25.743 43.0056 23.5387 43.0056 22.6247V17.8936H45.7925V22.3022C45.7925 23.8075 46.3389 24.2376 47.3226 24.2376C49.0712 24.2376 49.1805 22.6785 49.1805 22.1409V17.8936H51.9674V25.4742H49.1805V24.5602H49.2351Z" fill="#89AF39"/>
<path d="M55.9564 19.3989H57.4318C58.1968 19.3989 58.9072 19.5065 58.9072 20.1516C58.9072 20.8505 57.8689 20.8505 57.3771 20.8505H55.9564V19.3989ZM53.2241 17.8936V25.4742H58.7433C60.7651 25.4742 62.1312 25.0979 62.1312 23.5387C62.1312 22.3559 61.4755 21.8183 59.9454 21.5495V21.4957C60.929 21.3882 61.8034 20.743 61.8034 19.7215C61.8034 17.8936 59.6176 17.8936 58.7433 17.8936H53.2241ZM55.9564 22.2484H57.6504C58.9618 22.2484 59.2351 22.6247 59.2351 23.1624C59.2351 23.485 59.0711 23.9151 57.705 23.9151H55.9564V22.2484Z" fill="#89AF39"/>
<path d="M68.798 22.3019C68.798 23.8073 67.4319 24.1836 66.7762 24.1836C66.2844 24.1836 65.3554 24.0223 65.3554 23.3234C65.3554 22.4632 66.3937 22.3019 66.9947 22.2481C68.0876 22.0868 67.9783 22.1406 68.798 21.8718V22.3019ZM65.574 20.3126C65.574 19.1836 66.7762 19.1298 67.268 19.1298C67.5958 19.1298 68.7434 19.1298 68.7434 20.1513C68.7434 20.2051 68.7434 20.3126 68.7434 20.3664C68.6887 21.1191 67.9784 20.9578 65.9019 21.2266C64.2079 21.4417 62.4592 21.8718 62.4592 23.5922C62.4592 24.2374 62.7324 25.7965 65.6833 25.7965C66.8308 25.7965 68.033 25.5277 68.798 24.775H68.8527L69.0712 25.5277H71.9674V25.4202C71.421 25.3126 71.421 24.8288 71.421 23.9685L71.4756 20.5277C71.4756 19.6675 71.421 17.6782 67.2133 17.6782C66.2297 17.6782 63.0057 17.7857 62.8417 20.4202H65.574V20.3126Z" fill="#89AF39"/>
<path d="M71.8582 19.3989V17.8936H80.7106V19.3989H77.6505V25.4742H74.8636V19.3989H71.8582Z" fill="#89AF39"/>
<path d="M0.21875 8.05469V16.5493H2.07667C6.88542 16.5493 9.34443 18.9687 9.34443 23.6998V25.5278H17.9783V8.05469H0.21875ZM14.2625 11.6568C14.2625 13.9687 14.2625 19.5601 14.2625 21.8719C13.6067 21.8719 13.4974 21.8719 12.8417 21.8719C12.2406 16.8181 9.01656 13.6461 3.87995 13.0547C3.87995 12.4095 3.87995 12.302 3.87995 11.6568C6.22968 11.6568 11.9127 11.6568 14.2625 11.6568Z" fill="#89AF39"/>
<path d="M89.9455 23.1083V25.2589H81.7488C81.8581 24.4524 82.1313 23.6997 82.5685 22.9471C83.0056 22.1944 83.8799 21.2804 85.1914 20.0438C86.2296 19.0761 86.8854 18.4309 87.1586 18.0546C87.4865 17.5707 87.6504 17.0868 87.6504 16.6567C87.6504 16.1191 87.4865 15.7428 87.2133 15.4739C86.94 15.2051 86.5575 15.0438 86.0657 15.0438C85.5739 15.0438 85.1914 15.2051 84.9182 15.4739C84.6449 15.7428 84.481 16.2266 84.4264 16.9255L82.0766 16.7105C82.2406 15.4202 82.6777 14.5062 83.3881 13.9686C84.0985 13.4309 85.0275 13.1621 86.1204 13.1621C87.3225 13.1621 88.2515 13.4847 88.9619 14.1299C89.6723 14.775 90.0001 15.5815 90.0001 16.4954C90.0001 17.0331 89.8908 17.5707 89.7269 18.0546C89.5083 18.5385 89.2351 19.0761 88.798 19.6137C88.5247 19.9901 87.9783 20.4739 87.2679 21.1729C86.5029 21.818 86.0657 22.3019 85.8471 22.5169C85.6286 22.732 85.4646 22.9471 85.3553 23.1621H89.9455V23.1083Z" fill="#FEFEFE"/>
<path d="M96.1203 25.2589V22.8395H91.093V20.7965L96.3936 13.1621H98.3608V20.7965H99.8908V22.8395H98.3608V25.2589H96.1203ZM96.1203 20.7965V16.7105L93.3335 20.7965H96.1203Z" fill="#FEFEFE"/>
</svg>
