<svg width="140" height="20" viewBox="0 0 140 20" fill="none" xmlns="http://www.w3.org/2000/svg">
<g clip-path="url(#clip0_95_1612)">
<path d="M69.9056 19C70.0944 19 70.2833 19 70.2833 18.8017C74.0604 13.6446 79.7262 8.28923 92.5685 8.28923H1029.24C1029.62 8.28923 1029.81 8.09089 1029.81 7.69419C1029.81 7.2975 1029.62 7.09915 1029.24 7.09915H92.5685C79.5373 7.09915 73.4939 12.4545 69.9056 17.4132C65.7507 12.0578 60.6516 6.9008 48.187 6.9008H-889.433C-889.811 6.9008 -890 7.09915 -890 7.49584C-890 7.89254 -889.811 8.09089 -889.433 8.09089H48.187C60.6516 8.09089 65.5618 13.4463 69.5278 18.8017C69.5278 18.8017 69.7167 19 69.9056 19Z" fill="#171026" fill-opacity="0.2"/>
<path d="M69.9056 14.8348C70.0944 14.8348 70.2833 14.8348 70.2833 14.6365C74.8159 8.28936 81.2371 5.71084 92.5685 5.71084H1029.24C1029.62 5.71084 1029.81 5.51249 1029.81 5.11579C1029.81 4.7191 1029.62 4.52075 1029.24 4.52075H92.5685C81.2371 4.52075 74.627 7.09927 69.7167 13.248C65.7507 7.89266 60.6516 4.7191 48.187 4.7191H-889.433C-889.811 4.7191 -890 4.91745 -890 5.31414C-890 5.71084 -889.811 5.90918 -889.433 5.90918H48.187C60.6516 5.90918 65.373 9.08275 69.5278 14.8348C69.5278 14.8348 69.7167 14.8348 69.9056 14.8348Z" fill="#171026" fill-opacity="0.2"/>
<path d="M91.813 13.0496H1029.43C1029.81 13.0496 1030 12.8513 1030 12.4546C1030 12.0579 1029.81 11.8595 1029.43 11.8595H91.813C79.3484 11.8595 74.4382 6.50415 70.4722 1.14876C70.2833 0.950413 69.9055 0.950413 69.7167 1.14876C65.9395 6.3058 60.2738 11.6612 47.4315 11.6612H-889.433C-889.811 11.8595 -890 12.0579 -890 12.4546C-890 12.8513 -889.811 13.0496 -889.433 13.0496H47.2427C60.2739 13.0496 66.3173 7.49589 70.0944 2.53719C74.0604 8.09093 79.1596 13.0496 91.813 13.0496Z" fill="#171026" fill-opacity="0.2"/>
<path d="M-889.433 15.4297H47.2427C58.5741 15.4297 65.1841 12.8512 70.0944 6.70243C74.2493 12.2562 79.3484 15.4297 91.813 15.4297H1029.43C1029.81 15.4297 1030 15.2314 1030 14.8347C1030 14.438 1029.81 14.2396 1029.43 14.2396H91.813C79.3484 14.2396 74.627 11.0661 70.4722 5.31399C70.2833 5.11565 69.9055 5.11565 69.7167 5.31399C65.1841 11.6611 58.7629 14.2396 47.4315 14.2396H-889.433C-889.811 14.2396 -890 14.438 -890 14.8347C-890 15.2314 -889.811 15.4297 -889.433 15.4297Z" fill="#171026" fill-opacity="0.2"/>
</g>
<defs>
<clipPath id="clip0_95_1612">
<rect width="140" height="20" fill="white"/>
</clipPath>
</defs>
</svg>
