<svg width="35" height="35" viewBox="0 0 35 35" fill="none" xmlns="http://www.w3.org/2000/svg">
<path d="M14.4894 29.2046V29.1763C14.4894 29.1763 14.4605 29.2046 14.4894 29.2046C14.4316 29.2897 14.4027 29.3748 14.3738 29.4315C14.4316 29.4315 14.4605 29.4599 14.5183 29.4882C14.4605 29.4031 14.4605 29.2897 14.4894 29.2046Z" fill="#171026"/>
<path d="M14.2002 13.8006C14.2291 13.8289 14.258 13.8573 14.258 13.8857C14.4314 13.7439 14.6048 13.5737 14.7492 13.4036C14.4603 13.3468 14.1713 13.2901 13.8823 13.2334C13.8823 13.3185 13.8823 13.3752 13.9112 13.4319C13.969 13.5737 14.1135 13.6871 14.2002 13.8006Z" fill="#171026"/>
<path d="M20.2417 13.9995C20.6464 14.3116 20.7331 14.8789 20.4151 15.2761C20.2417 15.5314 19.9237 15.6449 19.6346 15.6165C19.5768 15.7583 19.519 15.9002 19.4612 16.042C19.3167 15.9286 19.201 15.8434 19.0565 15.73C19.0276 15.7016 18.9987 15.6732 18.9698 15.6449C18.912 15.5598 18.8542 15.503 18.7964 15.4179C18.7674 15.3896 18.7674 15.3612 18.7385 15.3328C18.7096 15.3896 18.6807 15.4463 18.6518 15.5598C18.5362 15.4463 18.4495 15.3612 18.4495 15.3045C18.4495 15.2477 18.5362 15.191 18.594 15.1059C18.6229 15.1343 18.6518 15.1343 18.6807 15.1626C18.6807 15.1059 18.6807 15.0775 18.7096 15.0208C18.5362 14.8506 18.3628 14.652 18.2182 14.4534C18.1893 14.4534 18.1893 14.4534 18.1604 14.4534C18.0737 14.4534 17.9581 14.3967 17.9003 14.3116C17.7557 14.1697 17.6401 13.9995 17.4956 13.8577C17.2354 13.8861 16.9753 13.8577 16.744 13.8293C16.7151 13.9144 16.6573 13.9712 16.5995 14.0563C16.6284 14.0563 16.6284 14.0563 16.6573 14.0563C16.8307 14.0563 17.0331 14.3116 17.0042 14.5385C16.9753 14.8222 17.0331 14.8789 17.2932 14.8789C17.4667 14.8789 17.5245 15.0208 17.4667 15.1626C17.4088 15.3328 17.4956 15.3896 17.669 15.4179C17.9581 15.4463 18.1315 15.6449 18.1026 15.9286C18.1026 16.0988 18.1315 16.1555 18.276 16.1555C18.3628 16.1555 18.4495 16.1555 18.5073 16.2122C18.7385 16.4392 18.9409 16.6661 19.1721 16.8931C19.1721 16.7796 19.1432 16.6945 19.1432 16.581C19.1432 16.4675 19.0565 16.3541 19.0565 16.2406C19.0565 16.1555 19.1143 16.0704 19.1432 15.9853C19.201 16.042 19.2878 16.0988 19.3167 16.1555C19.3745 16.269 19.3745 16.4108 19.4323 16.5243C19.4612 16.6661 19.519 16.808 19.7214 16.8363C19.7503 16.8363 19.7503 16.8363 19.7792 16.8647C19.7792 16.808 19.7792 16.7796 19.7792 16.7229C19.7792 16.6661 19.7792 16.581 19.7792 16.5243C19.7503 16.3257 19.8948 16.0988 20.0971 16.0988C20.2128 16.0988 20.3284 16.1839 20.4151 16.269C20.5885 16.4108 20.4729 16.5526 20.3573 16.6945C20.3284 16.7229 20.2706 16.7796 20.2417 16.808C20.1839 16.8363 20.0971 16.8931 20.0393 16.9214C19.9815 17.0349 19.9237 17.0349 19.8948 17.0349C19.9815 17.12 20.0682 17.2335 20.2128 17.2335C20.2128 17.2902 20.2128 17.3753 20.1839 17.4037C20.0393 17.4888 19.8659 17.5739 19.6924 17.659C19.6635 17.659 19.6635 17.659 19.6346 17.659C19.6346 17.7157 19.6346 17.7725 19.6057 17.8292C19.5479 17.971 19.6635 18.0561 19.837 18.0845C20.2706 18.1412 20.7042 18.6235 20.7331 19.049C20.762 19.5029 21.2823 20.2121 21.687 20.3539C21.7448 20.3823 21.8315 20.3256 21.8893 20.3539C21.976 20.3823 22.0917 20.3823 22.1495 20.439C22.2073 20.5241 22.294 20.6093 22.3518 20.6944C22.3807 20.666 22.4096 20.666 22.4096 20.666C22.6987 20.6093 22.8432 20.6944 22.9011 20.9213C22.93 21.0348 22.9011 21.1482 22.8143 21.2333C22.9589 21.4036 23.1323 21.5738 23.2768 21.7723C23.3346 21.8574 23.3925 21.9425 23.4214 22.0276C23.4503 22.0844 23.4503 22.1979 23.4214 22.2546C23.3925 22.283 23.3057 22.283 23.2479 22.283C22.8432 22.283 22.5253 22.1411 22.4096 21.8574C22.294 21.7156 22.2073 21.6305 22.1495 21.5454C22.0339 21.4319 21.9761 21.3184 22.0628 21.1482C22.1495 21.0064 22.0628 20.8646 21.9182 20.9213C21.6581 21.0064 21.5425 20.8646 21.4557 20.6944C21.2534 20.2972 20.9065 20.0135 20.5885 19.7015C20.4729 19.588 20.3862 19.4745 20.2128 19.5596C20.0682 19.6164 19.9815 19.5029 20.0104 19.3611C20.0393 19.1341 20.0682 18.9072 20.0682 18.6802C20.0682 18.6519 19.9526 18.5668 19.9237 18.5951C19.6924 18.7086 19.6057 18.5384 19.4901 18.3966C19.3456 18.2263 19.1721 18.0561 18.9987 17.8859C18.9409 17.8292 18.8253 17.7725 18.7096 17.7725C18.6807 17.7725 18.6229 17.7725 18.594 17.7441C18.5651 17.8292 18.4495 17.8859 18.2471 17.9427C18.2182 17.9427 18.1315 17.9143 18.0159 17.8859C18.0448 17.8008 18.0737 17.7441 18.1026 17.659C18.1315 17.5455 18.1604 17.4604 18.1893 17.3469C18.1893 17.2902 18.1893 17.2618 18.1893 17.2051C18.2471 17.0349 18.1604 16.9214 18.0737 16.808C17.8714 16.5526 17.669 16.3257 17.4667 16.0704C17.0331 15.5881 16.6284 15.1059 16.1948 14.6236C15.9924 14.8789 15.7612 15.1059 15.501 15.3328C15.6456 15.503 15.7901 15.6732 15.9057 15.8151C16.1659 16.1271 16.4549 16.4392 16.7151 16.7512C16.7729 16.8363 16.8018 16.9498 16.7729 17.0349C16.7151 17.1767 16.5706 17.12 16.4549 17.12C16.2815 17.12 16.137 17.2051 15.9924 17.2902C15.819 17.4037 15.7034 17.5455 15.5299 17.659C15.4721 17.7157 15.2987 17.7157 15.2409 17.659C15.1252 17.5739 14.9518 17.4604 15.0385 17.2618C15.0674 17.1767 15.1252 17.0916 15.1831 17.0065C15.3276 16.7512 15.2698 16.581 15.0096 16.581C14.5471 16.581 14.4026 16.1839 14.1424 15.9569C14.0268 15.8718 14.0846 15.7583 14.1713 15.6732C14.2002 15.6449 14.2292 15.5881 14.2581 15.5598C14.1424 15.503 14.0557 15.4179 13.969 15.3045C13.7667 15.0491 13.7377 14.7371 13.8245 14.4534C13.7667 14.4251 13.7088 14.4251 13.6799 14.3967C13.7088 14.3683 13.7088 14.3399 13.7377 14.3399C13.5065 14.0846 13.2752 13.801 13.044 13.5456C12.8995 13.3754 12.8706 13.2336 12.9573 13.1201C12.2635 13.035 11.5698 12.9783 10.9049 12.9783C10.587 13.0634 10.2979 13.1485 9.97992 13.2052C9.51742 13.801 9.11273 14.3683 8.76586 14.8506C9.05492 14.7938 9.4018 14.8222 9.45961 14.3967C9.45961 14.3683 9.60414 14.3116 9.66195 14.2832C9.97992 14.1981 10.269 14.0846 10.587 13.9995C11.0495 13.8861 11.5409 13.801 12.0034 13.7159C12.1479 13.6875 12.3213 13.6308 12.4081 13.8577C12.4659 14.0279 12.6104 14.1981 12.3502 14.3399C12.3213 14.3683 12.2924 14.3967 12.2924 14.4251C12.3213 14.652 12.1768 14.7371 11.9745 14.7371H11.9456C11.8877 15.0491 12.0901 15.191 12.2924 15.3612C12.4081 15.4747 12.5237 15.6165 12.5815 15.7583C12.6104 15.8434 12.5526 15.9853 12.5526 16.0988C12.3213 16.2406 12.1768 16.1839 12.0612 16.0704C11.9456 15.9569 11.7721 15.8718 11.9456 15.6732C12.0901 15.503 11.9745 15.3896 11.8877 15.2761C11.801 15.1626 11.6854 15.0775 11.5409 15.191C11.3963 15.3045 11.2807 15.2194 11.194 15.1059C11.1651 15.0491 11.1073 15.0208 11.0784 14.964C10.9627 15.0208 10.8471 15.0491 10.7315 15.0775C10.269 15.191 9.80648 15.2477 9.34398 15.3612C9.25726 15.3896 9.17055 15.4179 9.08383 15.4463C8.85258 15.503 8.59242 15.6165 8.36117 15.6449C8.30336 15.6449 8.24554 15.6449 8.21664 15.6449C8.15882 15.73 8.0721 15.8151 8.01429 15.9002C8.0721 15.8718 8.15882 15.8718 8.21664 15.9002C8.5057 16.0137 8.67914 16.3541 8.62132 16.6945C8.59242 16.8647 8.67914 16.9498 8.82367 16.8931C9.02601 16.808 9.14164 16.9214 9.22836 17.0633C9.37289 17.2335 9.48851 17.3753 9.63305 17.5455C9.74867 17.6874 9.8932 17.8008 9.74867 17.9994C9.71977 18.0561 9.83539 18.198 9.8643 18.3115C9.8932 18.4249 9.92211 18.5384 9.95102 18.6235C9.83539 18.6519 9.71977 18.6802 9.60414 18.6802C9.45961 18.6802 9.34398 18.6235 9.19945 18.5951C9.08383 18.5951 8.99711 18.6235 8.88148 18.6235C8.82367 18.6235 8.70804 18.5951 8.67914 18.5384C8.65023 18.4817 8.67914 18.3682 8.73695 18.3398C8.79476 18.2547 8.91039 18.198 8.99711 18.1129C9.05492 18.0561 9.11273 18.0278 9.17055 17.971C9.25726 17.9143 9.31508 17.8576 9.31508 17.7725C9.28617 17.7725 9.22836 17.8008 9.17055 17.8292C9.05492 17.8292 8.88148 17.8292 8.73695 17.8292C8.62132 17.8292 8.53461 17.7157 8.65023 17.659C8.82367 17.5739 8.99711 17.5172 9.17055 17.4604C9.02601 17.3186 8.9682 17.3186 8.73695 17.4604C8.62132 17.5455 8.47679 17.6306 8.36117 17.7157C8.15882 17.8576 8.0432 17.8008 7.89867 17.6306C7.75413 17.4888 7.69632 17.3469 7.86976 17.1767C7.92757 17.12 7.98539 17.0916 8.01429 17.0349C8.0721 17.0349 8.0721 16.9782 8.0721 16.9214C8.0721 16.8931 7.98539 16.8647 7.92757 16.8647C7.69632 16.8647 7.52288 16.7512 7.40726 16.581C6.74241 17.4888 6.27991 18.0845 5.99085 18.4817C6.04866 18.51 6.13538 18.5384 6.19319 18.5668C6.27991 18.5951 6.39554 18.6235 6.45335 18.6802C6.59788 18.8221 6.74241 18.9923 6.88694 19.1341C6.91585 19.1058 6.91585 19.1058 6.91585 19.0774C6.94476 19.1058 7.03148 19.1341 7.03148 19.1625C7.03148 19.1909 7.03148 19.2192 7.00257 19.2476C7.29163 19.5313 7.5807 19.8433 7.84085 20.127C8.01429 20.2972 8.21664 20.4958 7.95648 20.7511C7.92757 20.7795 7.92757 20.8362 7.95648 20.8646C8.10101 21.1199 8.41898 20.8078 8.59242 21.0064C8.65023 20.9213 8.73695 20.8362 8.73695 20.7795C8.73695 20.666 8.67914 20.4958 8.85258 20.4958C8.9682 20.4958 9.11273 20.6093 9.19945 20.7227C9.31508 20.8362 9.28617 20.9497 9.17055 21.0348C8.9682 21.1766 8.85258 21.2901 8.9682 21.5738C9.02601 21.7156 8.9682 21.9425 8.93929 22.1128C8.93929 22.1695 8.85258 22.2546 8.82367 22.2546C8.59242 22.2262 8.36117 22.1979 8.12992 22.1128C7.98539 22.056 7.86976 21.8574 7.75413 21.744C7.63851 21.6305 7.5807 21.517 7.69632 21.3468C7.78304 21.205 7.69632 21.0631 7.49398 21.0631C7.08929 21.0348 7.03148 21.0064 7.08929 20.5809C7.08929 20.4107 6.80023 20.0703 6.62679 20.0986C6.33772 20.127 6.25101 20.0986 6.39554 19.815C6.48226 19.6164 6.16429 19.276 5.93304 19.276C5.73069 19.276 5.61507 19.2192 5.55725 19.1058C5.47053 19.2192 5.47053 19.1909 5.47053 19.2192C5.35491 19.3894 5.26819 19.5313 5.15257 19.7015L5.18147 19.7298C5.21038 19.815 5.23928 19.9001 5.2971 20.0135C5.326 20.1554 5.2971 20.2121 5.12366 20.1837C5.06585 20.1554 4.97913 20.1554 4.92131 20.1554C3.10022 23.6446 4.05412 27.8998 7.1182 30.3111C7.52288 30.1976 7.6096 30.2543 7.66742 30.7082C8.0432 30.9635 8.44789 31.1905 8.88148 31.3607C9.51742 31.6444 10.1823 31.8997 10.8182 32.1266C10.7893 31.9848 10.7893 31.8713 10.9338 31.7862C10.9916 31.7578 11.0206 31.6444 11.0495 31.5593C11.1362 31.3607 11.3385 31.3607 11.4831 31.389C11.5698 31.389 11.6276 31.5593 11.6854 31.6727C11.7143 31.7295 11.6565 31.8429 11.5987 31.8713C11.4541 31.9848 11.2518 32.0699 11.1651 32.2401C12.6104 32.7223 14.0846 33.006 15.5878 33.1479C15.5878 33.1195 15.5588 33.0628 15.5588 33.0344C15.5588 32.9777 15.501 32.8925 15.5299 32.8358C15.5588 32.7791 15.6456 32.6656 15.7034 32.6656C15.9346 32.6656 15.9057 32.8925 15.9635 33.006C15.9924 33.0344 15.9924 33.1195 15.9635 33.1479C16.6573 33.2046 17.3799 33.2046 18.1026 33.1762C18.0159 33.0911 17.9581 33.006 17.8714 32.9209C17.7846 32.8358 17.6979 32.7223 17.5534 32.6656C17.4378 32.7507 17.3221 32.8925 17.1776 32.9493C17.0042 33.0344 16.9174 32.8925 16.8885 32.7507C16.9174 32.6089 16.8596 32.4103 17.0042 32.3819C16.9174 32.2685 16.8307 32.155 16.744 32.0415C16.6862 31.9848 16.8018 31.7862 16.8885 31.6727C16.9463 31.616 17.0909 31.5309 17.1198 31.5593C17.3799 31.7011 17.7846 31.6444 17.9003 31.9564C18.0448 32.155 18.2182 32.2968 18.1026 32.5238C18.0737 32.5805 18.1604 32.7223 18.2182 32.8074C18.3049 32.9209 18.4206 33.0344 18.5073 33.1762C19.0854 33.1479 19.6346 33.0911 20.2128 32.9777C20.2128 32.9493 20.2417 32.9493 20.2417 32.9209C20.2995 32.8925 20.444 32.8925 20.5018 32.9209C20.6464 32.8925 20.762 32.8642 20.9065 32.8358C20.9932 32.6656 21.5714 32.4954 21.7159 32.5805C21.7448 32.6089 21.7737 32.6089 21.7737 32.6372C22.005 32.5805 22.2651 32.5238 22.4964 32.467C22.5253 32.4103 22.6409 32.3252 22.7276 32.2968C22.8432 32.2401 22.9589 32.2401 23.0745 32.2117C23.1901 32.1834 23.3057 32.155 23.4214 32.1266C23.5081 32.0982 23.5659 32.0982 23.6526 32.1266C24.2886 31.8997 24.9245 31.6727 25.5604 31.389C28.1909 30.1976 29.8675 27.8431 30.3011 25.2616C30.1565 25.29 29.9831 25.3467 29.8386 25.3751C29.4917 25.4602 29.1448 25.5736 28.769 25.6304C28.4222 25.6871 28.3933 25.7155 28.4511 26.0275C28.4511 26.0559 28.48 26.1126 28.48 26.141C28.5089 26.2545 28.5378 26.3679 28.3933 26.3963C28.3354 26.3963 28.2487 26.3112 28.2198 26.2261C28.162 26.1126 28.1331 26.0559 28.0753 25.9992V26.0275C28.0464 26.0559 27.9597 26.0275 27.9018 25.9992C27.8729 25.9708 27.844 25.9424 27.7862 25.8857C27.6995 25.8857 27.6128 25.914 27.5261 25.9424C27.237 26.0275 26.919 26.1126 26.63 26.1694C26.63 26.2545 26.63 26.3112 26.6011 26.3679C26.5143 26.4814 26.3698 26.4247 26.2831 26.3112C26.2542 26.2828 26.2253 26.2261 26.1675 26.1977C26.0229 26.1694 25.8495 26.0275 25.6472 25.9424C25.705 25.8573 25.7628 25.8006 25.7917 25.7438C25.6472 25.5736 25.5026 25.4034 25.3292 25.2049C25.2425 25.1197 25.1847 25.0346 25.1557 24.9495C25.1268 24.9212 25.0979 24.9212 25.0979 24.8928C25.0112 24.7793 24.9534 24.6659 24.8378 24.6091C24.5776 24.524 24.3753 24.6942 24.4042 24.9779C24.4042 25.063 24.4331 25.1481 24.4042 25.2049C24.3753 25.2616 24.2597 25.29 24.2018 25.3183C24.0862 25.0914 23.7682 25.2332 23.6526 24.9779C23.6526 24.9495 23.5081 24.9212 23.4503 24.9212C23.3636 24.9212 23.2768 24.9495 23.219 24.9495C23.0745 24.9779 22.9589 24.9495 22.93 24.8077C22.9011 24.6659 23.0167 24.6091 23.1323 24.5808C23.1612 24.5808 23.1901 24.5808 23.219 24.5524C23.219 24.5524 23.219 24.5524 23.219 24.5808C23.6526 24.4673 24.1151 24.3538 24.5487 24.2687H24.5776C24.5487 24.212 24.5487 24.1269 24.5198 24.0134C24.6354 24.0418 24.7511 24.0134 24.78 24.0701C24.8089 24.0985 24.8089 24.1836 24.78 24.2403C24.9823 24.212 25.1847 24.212 25.387 24.2971C25.5026 24.3538 25.8495 24.2403 25.8784 24.1552C25.9362 23.8716 26.1675 23.8432 26.3698 23.7865C26.6011 23.7297 26.8612 23.7014 27.0925 23.7014C27.1503 23.7014 27.2081 23.7581 27.2659 23.8148C27.237 23.8716 27.2081 23.9567 27.1503 23.985C27.0347 24.0418 26.8901 24.0701 26.7745 24.1269C26.63 24.1836 26.4565 24.212 26.4276 24.4105C26.4276 24.4673 26.3698 24.524 26.312 24.5524C25.994 24.6375 25.7628 24.6942 25.6761 24.9779C25.705 25.0346 25.7339 25.063 25.7917 25.1197C25.9073 25.29 26.0229 25.4318 26.1675 25.5736C26.1964 25.5736 26.1964 25.5736 26.2253 25.5453C26.4276 25.4885 26.63 25.4885 26.6589 25.2049C26.6878 25.0914 26.8323 25.063 26.919 25.1481C27.0636 25.3183 27.2081 25.2616 27.3526 25.2049C27.844 25.0914 28.3643 24.9779 28.8558 24.8928C29.0581 24.8644 29.2026 24.8077 29.3472 25.0063C29.4339 25.1481 29.5784 25.0914 29.6073 24.9495C29.6651 24.751 29.7808 24.7226 29.9542 24.6659C30.0987 24.6375 30.2433 24.5808 30.3878 24.5524C30.4167 24.212 30.4167 23.8432 30.4167 23.5028C30.2433 23.5311 30.0409 23.5595 30.012 23.8432C30.012 23.8716 29.7808 23.8999 29.7519 23.8716C29.6362 23.673 29.4628 23.7297 29.3183 23.7865C28.9425 23.8999 28.5378 23.8716 28.1909 24.0701C28.1331 24.1269 28.0753 24.1269 28.0464 24.1269C27.9018 24.1269 27.6995 24.2687 27.6417 24.0418C27.555 23.7865 27.7862 23.8148 27.9308 23.7581C28.0464 23.7014 28.162 23.673 28.1909 23.5028C28.2198 23.3042 28.3643 23.2758 28.5378 23.4177C28.6823 23.5311 28.7112 23.5595 28.8269 23.3893C28.9136 23.2758 29.087 23.2191 29.2315 23.134C29.405 23.0205 29.4917 23.1907 29.6073 23.2758C29.7519 23.3609 30.1854 23.2475 30.3878 23.1056C30.2433 21.7723 29.7808 20.439 28.9425 19.2476C28.9425 19.2192 29.087 19.4462 24.2886 12.9783C23.3346 12.8932 22.294 12.9783 21.2823 13.1201C21.3401 13.3187 21.2245 13.5173 20.9354 13.6024C20.7331 13.6591 20.5307 13.574 20.3284 13.5456C20.2995 13.5456 20.2706 13.4038 20.2995 13.3471C20.2995 13.3187 20.3284 13.3187 20.3573 13.2903C20.126 13.3471 19.8948 13.3754 19.6635 13.4322C19.8081 13.6024 20.0104 13.8293 20.2417 13.9995ZM16.2815 15.9569C16.2815 15.9569 16.2237 15.9286 16.1659 15.9286C16.1948 15.8718 16.2237 15.8434 16.2526 15.8151C16.2815 15.8151 16.3393 15.8434 16.3393 15.8434C16.3393 15.9002 16.3104 15.9286 16.2815 15.9569ZM10.6159 13.6591C10.558 13.6875 10.3846 13.6591 10.3557 13.6308C10.269 13.4889 10.0666 13.3471 10.2401 13.1769C10.2979 13.1201 10.4713 13.2052 10.5002 13.2336C10.6737 13.4038 10.7893 13.5173 10.6159 13.6591ZM12.0901 13.2903C12.0901 13.3187 11.9745 13.2903 11.8877 13.2903C11.9166 13.2052 11.9166 13.1201 11.9456 13.0918C11.9745 13.0634 12.0612 13.0918 12.119 13.0918C12.0901 13.1485 12.119 13.2336 12.0901 13.2903ZM6.80023 18.3966C6.71351 18.3966 6.65569 18.3115 6.56898 18.2547C6.62679 18.1696 6.6846 18.0845 6.74241 18.0561C6.80023 18.0278 6.88694 18.1129 7.00257 18.198C6.91585 18.3115 6.82913 18.4249 6.80023 18.3966ZM8.47679 20.1554C8.44789 20.127 8.41898 20.127 8.41898 20.0986C8.41898 20.0703 8.44789 20.0703 8.44789 20.0419C8.47679 20.0419 8.5057 20.0703 8.5057 20.0703C8.5057 20.0986 8.47679 20.127 8.47679 20.1554ZM4.8346 25.914C4.80569 25.9424 4.74788 25.9424 4.66116 25.9708C4.66116 25.8857 4.66116 25.8289 4.69006 25.8006C4.71897 25.7722 4.77678 25.8006 4.8346 25.8006C4.8346 25.8289 4.8346 25.8857 4.8346 25.914ZM4.89241 22.3681C4.66116 22.3681 4.45881 22.3113 4.22756 22.283C4.19866 22.283 4.19866 22.2262 4.19866 22.2262C4.31428 22.0844 4.401 21.9425 4.51663 21.8291C4.60334 21.7723 4.74788 21.8574 4.80569 21.8858C4.89241 22.0276 4.95022 22.0844 4.95022 22.1695C4.97913 22.2262 4.92131 22.3681 4.89241 22.3681ZM28.48 21.6589C28.5667 21.6872 28.6245 21.6872 28.6823 21.6872C28.6534 21.744 28.6534 21.8291 28.6245 21.8574C28.5956 21.8858 28.48 21.8858 28.48 21.8574C28.4511 21.8291 28.48 21.744 28.48 21.6589ZM28.4222 22.3113C28.48 22.3113 28.5956 22.3681 28.5956 22.4248C28.6245 22.4815 28.5667 22.595 28.5089 22.595C28.2776 22.6517 28.0175 22.7085 27.7573 22.7652C27.7284 22.7652 27.6128 22.7085 27.6128 22.6517C27.6128 22.595 27.6417 22.4815 27.6995 22.4532C27.8151 22.3964 27.9308 22.3964 28.0464 22.3681C28.162 22.3397 28.3065 22.3113 28.4222 22.3113ZM27.6706 19.4745C27.6995 19.4745 27.7573 19.5313 27.7573 19.5596C27.7573 19.5596 27.7284 19.6447 27.6995 19.6447C27.6706 19.6447 27.6128 19.6164 27.5261 19.588C27.6128 19.5313 27.6417 19.4745 27.6706 19.4745ZM27.2948 20.3539C27.3237 20.3256 27.555 20.3539 27.555 20.4107C27.5839 20.4958 27.5261 20.6093 27.4972 20.7511C27.3237 20.7511 27.2081 20.7511 27.0636 20.7511C27.1503 20.6093 27.2081 20.4674 27.2948 20.3539ZM26.9479 22.6801C26.9768 22.8219 27.0347 22.9922 26.8323 23.0489C26.6878 23.0773 26.5722 23.0205 26.5722 22.8787C26.5722 22.7368 26.4565 22.5099 26.6878 22.4248C26.8901 22.3397 26.8901 22.5666 26.9479 22.6801ZM25.9362 16.6377C26.0229 16.6661 26.1097 16.6661 26.1386 16.6945C26.1675 16.7512 26.1386 16.8363 26.1097 16.8931C26.0518 16.8647 25.9651 16.8647 25.9073 16.8363C25.8784 16.808 25.9073 16.7229 25.9362 16.6377ZM25.9651 19.815C26.0518 19.7582 26.1675 19.7298 26.2831 19.6731C26.3698 19.6731 26.5143 19.6731 26.63 19.6731C26.8323 19.7015 26.8323 19.7298 26.7167 19.9001C26.6878 19.9568 26.63 20.0135 26.6011 20.0703C26.5143 20.3539 26.3409 20.4958 26.0807 20.4107C25.994 20.3823 25.9073 20.2405 25.8495 20.1554C25.8206 20.0419 25.7917 19.9001 25.9651 19.815ZM20.4151 19.8717C20.4729 19.8717 20.5307 19.9001 20.5885 19.9284C20.5596 19.9852 20.5307 20.0703 20.4729 20.0986C20.444 20.127 20.3573 20.0703 20.2706 20.0135C20.3573 19.9568 20.3862 19.8717 20.4151 19.8717ZM17.0042 15.8434C17.062 15.9002 17.1487 15.9569 17.1776 16.0137C17.1776 16.042 17.1198 16.1839 17.062 16.1839C17.0042 16.1839 16.9174 16.1271 16.7729 16.042C16.8885 15.9569 16.9463 15.9002 17.0042 15.8434ZM16.3393 24.3538C16.3682 24.3538 16.3971 24.3538 16.426 24.3822C16.3104 24.212 16.3393 24.1552 16.5128 24.0134C16.744 23.8148 16.8885 23.8432 17.0909 24.0985C17.2065 24.2403 17.2065 24.2971 16.9753 24.4957C16.744 24.6942 16.6573 24.6942 16.4838 24.4389C16.5128 24.4957 16.5128 24.524 16.5417 24.5808C16.5995 24.7226 16.5995 24.8644 16.8307 24.8644C17.0909 24.8361 17.2643 24.751 17.2932 24.524C17.3221 24.3822 17.3799 24.2971 17.5245 24.2971C17.669 24.2687 17.8135 24.2403 17.9581 24.2403C18.1893 24.2403 18.4206 24.4673 18.4206 24.6659C18.4206 24.7226 18.3339 24.8361 18.2471 24.8644C18.1026 24.9212 17.9292 24.9495 17.7846 24.9779C17.6401 25.0063 17.5245 25.0346 17.4667 25.2332C17.4088 25.3467 17.2065 25.4318 17.062 25.4885C16.8596 25.5736 16.6284 25.5453 16.5995 25.8573C16.5995 25.914 16.4549 25.9708 16.3682 25.9992C15.9346 26.1126 15.4721 26.2261 15.0385 26.3112C14.9518 26.3396 14.8362 26.2545 14.7495 26.2261C14.576 26.1694 14.5182 26.1126 14.4315 26.1126C14.3159 26.1126 14.1713 26.1694 14.1424 25.9992C14.1135 25.8289 14.0557 25.6304 14.287 25.5169C14.4604 25.4318 14.6338 25.3751 14.6627 25.1481C14.6627 25.1481 14.6627 25.1197 14.6917 25.1197C14.6338 25.1197 14.5471 25.1481 14.4893 25.1765C14.4604 25.1765 14.3737 25.1481 14.3159 25.0914C14.0557 24.8077 13.8245 24.524 13.5643 24.2403C13.362 23.985 13.362 23.8999 13.6221 23.7014C13.7377 23.5879 13.8245 23.5595 14.0268 23.6162C14.2581 23.7014 14.5182 23.7014 14.7495 23.7014C14.9518 23.7014 15.0385 23.7581 14.9807 23.9567C14.894 24.1552 14.9518 24.212 15.1831 24.212C15.5299 24.212 15.7323 24.4957 15.6745 24.8077C15.5878 24.8361 15.5878 24.9212 15.5878 24.9779C15.5878 25.0914 15.5299 25.1481 15.4432 25.1481C15.5878 25.1765 15.7323 25.1197 15.8768 25.0914C15.9346 25.0914 15.9924 25.063 16.0503 25.063C16.3971 24.9779 16.3971 24.9779 16.3393 24.6375C16.3393 24.5808 16.3104 24.4957 16.3104 24.4389C16.2815 24.4105 16.3104 24.3538 16.3393 24.3538ZM17.2932 20.7227C17.3221 20.7795 17.2643 20.8646 17.2354 21.0348C17.1198 20.9497 17.0331 20.8929 17.0042 20.8362C16.9463 20.9213 16.8307 20.978 16.744 20.978C16.6284 21.0064 16.426 20.666 16.4549 20.5241C16.4549 20.4958 16.4838 20.4958 16.5128 20.4674C16.7151 20.4958 16.8885 20.5241 17.0909 20.5525V20.5809C17.1776 20.6376 17.2643 20.666 17.2932 20.7227ZM16.5706 22.1695C16.6573 22.1128 16.744 22.056 16.8307 22.056C17.0331 21.9993 17.2354 21.9993 17.2932 21.7156C17.351 21.4887 17.7557 21.4887 17.9581 21.6589C18.1026 21.7723 18.3049 21.8574 18.5073 21.9425C18.5362 21.9425 18.6229 21.8291 18.6807 21.7723C18.7964 21.6589 18.8831 21.6589 18.9698 21.8007C19.0276 21.9425 19.0854 22.0844 19.1143 22.2262C19.1721 22.5383 19.1432 22.5666 18.7385 22.6517C18.7096 22.6234 18.594 22.595 18.5073 22.5383C18.3049 22.4532 18.1026 22.3113 17.8714 22.2546C17.6979 22.2262 17.4956 22.2262 17.3799 22.4532C17.351 22.5099 17.1776 22.595 17.1487 22.5666C16.9753 22.4248 16.8018 22.4815 16.5995 22.4532C16.5128 22.4532 16.4549 22.3964 16.3971 22.3681C16.4549 22.283 16.5128 22.2262 16.5706 22.1695ZM19.0854 23.5311C19.0276 23.5595 18.912 23.5595 18.8831 23.5311C18.8542 23.5028 18.8831 23.3893 18.8831 23.2758C18.9987 23.3042 19.0854 23.3326 19.1143 23.3609C19.1432 23.3893 19.1143 23.5311 19.0854 23.5311ZM19.4034 24.1836C19.4323 24.1836 19.519 24.1836 19.519 24.1836C19.6057 24.4105 19.7214 24.6375 19.7503 24.8644C19.7792 25.0346 19.7214 25.0914 19.4612 25.1481C19.2299 25.2616 19.1432 25.063 19.0854 24.8928C18.912 24.5524 19.0565 24.2403 19.4034 24.1836ZM12.7549 23.2758C12.8127 23.1907 12.8127 23.134 12.8416 23.134C12.8995 23.134 12.9573 23.1624 13.0151 23.1907C12.9862 23.2191 12.9862 23.2758 12.9284 23.3042C12.8995 23.3042 12.8416 23.3042 12.7549 23.2758ZM12.7838 25.2049C12.7838 25.2049 12.6971 25.2049 12.6104 25.2049C12.6104 25.1197 12.6104 25.063 12.6393 25.0063C12.6393 24.9779 12.7549 25.0063 12.7838 25.0346C12.8127 25.0914 12.8127 25.1481 12.7838 25.2049ZM13.0729 25.063C13.1307 25.0346 13.1018 24.8928 13.1596 24.8361C13.1885 24.7793 13.2463 24.6659 13.2752 24.6659C13.362 24.6942 13.4487 24.751 13.4776 24.8077C13.5354 25.0063 13.5932 25.2049 13.651 25.4318C13.7088 25.602 13.7667 25.8006 13.7956 25.9708C13.7956 26.0559 13.7956 26.1977 13.7377 26.2545C13.651 26.3396 13.5354 26.2828 13.4776 26.1694C13.4776 26.141 13.4487 26.1126 13.4198 26.1126C13.0151 26.0843 13.044 25.7438 12.9573 25.4885C12.9284 25.3183 12.9284 25.1765 13.0729 25.063ZM15.819 20.0986C15.819 20.0419 15.9057 19.9568 15.9346 19.9001C15.9924 19.9284 16.0503 19.9568 16.0792 20.0135C16.1081 20.0135 16.1659 20.0135 16.1948 20.0135C16.1948 20.0986 16.1659 20.1837 16.1659 20.3256C16.1081 20.3256 16.0792 20.3256 16.0503 20.3256C16.0503 20.3256 16.0503 20.3539 16.0213 20.3539C16.0213 20.3256 15.9924 20.3256 15.9924 20.3256C15.9346 20.3256 15.8768 20.3256 15.819 20.3256C15.8479 20.2688 15.8479 20.2405 15.8768 20.1837C15.819 20.1554 15.819 20.127 15.819 20.0986ZM15.6745 22.2546C15.7323 22.283 15.7901 22.3113 15.8479 22.3397C16.0503 22.4248 16.137 22.595 16.0503 22.7936C15.9635 22.9638 15.6456 23.0489 15.501 22.9922C15.4432 22.9922 15.3854 22.9922 15.2987 22.9922C15.2987 22.9638 15.3276 22.9354 15.3276 22.9071C15.2987 22.9071 15.2698 22.8787 15.2409 22.8787C15.212 22.9638 15.212 23.0773 15.1831 23.1624C15.1831 23.2191 15.212 23.3042 15.1831 23.3609C15.1542 23.4177 15.0096 23.4744 15.0096 23.4744C14.7495 23.1624 14.4604 23.3609 14.2002 23.4177C14.0557 23.446 13.9401 23.4744 13.7956 23.446C13.6799 23.4177 13.5932 23.3326 13.4487 23.2475C13.4776 23.1907 13.4776 23.134 13.5065 23.0773C13.3331 22.8787 13.5643 22.7936 13.651 22.7085C13.7088 22.6517 13.7667 22.595 13.8245 22.595C13.8534 22.595 13.9112 22.595 13.969 22.595C13.9979 22.5666 14.0268 22.5383 14.0846 22.5099C14.1135 22.4815 14.1713 22.4815 14.2002 22.4815C14.3737 22.5666 14.576 22.6517 14.7495 22.7368C14.9518 22.8503 15.0385 22.7936 15.0385 22.5666C15.0385 22.4248 14.9807 22.2546 15.1831 22.1695C15.4143 22.0276 15.4432 22.0276 15.6745 22.2546ZM13.8823 18.7086C13.8245 18.6802 13.7377 18.6235 13.6799 18.5668C13.651 18.51 13.651 18.4533 13.5932 18.3398C13.5932 18.3115 13.5643 18.2547 13.5643 18.1696C13.5643 18.1129 13.6221 18.0561 13.651 18.0561C13.7088 18.0561 13.7956 18.0561 13.8245 18.1129C13.8823 18.2263 13.969 18.3398 13.9979 18.4817C13.9979 18.5668 13.9112 18.6519 13.8823 18.7086ZM13.9112 20.666C13.9112 20.666 13.8245 20.666 13.7956 20.666C13.7667 20.6376 13.7667 20.5809 13.7377 20.4958C13.8245 20.5241 13.9112 20.5241 13.9112 20.5525C13.9401 20.5525 13.9112 20.6093 13.9112 20.666ZM14.8362 21.2333C14.894 21.2333 14.9518 21.2901 15.0096 21.3468C14.9807 21.4036 14.9518 21.4887 14.894 21.517C14.8362 21.517 14.7784 21.4603 14.6627 21.4319C14.7495 21.3184 14.7784 21.2333 14.8362 21.2333ZM14.7495 20.3539C14.8073 20.2688 14.8362 20.1837 14.894 20.1554C14.9518 20.1554 15.0385 20.2121 15.0674 20.2405C15.0963 20.2972 15.0385 20.3823 14.9807 20.4107C14.9229 20.439 14.8362 20.3823 14.7495 20.3539ZM14.0268 16.3824L14.0557 16.4108C13.9979 16.5526 13.9112 16.7229 13.8245 16.8647C13.7956 16.9214 13.6799 16.9498 13.6799 16.9498C13.5932 16.8647 13.5354 16.7796 13.4487 16.6661C13.4776 16.581 13.5065 16.4108 13.5643 16.4108C13.7088 16.3541 13.8534 16.3824 14.0268 16.3824ZM13.3909 14.8506C13.5354 14.8789 13.651 14.8506 13.7088 14.9073C13.8823 15.0775 13.7088 15.1626 13.5932 15.2761C13.5065 15.3612 13.362 15.503 13.2752 15.3328C13.2174 15.2194 13.3331 15.0491 13.3909 14.8506ZM12.8706 16.3541C12.8706 16.3541 12.8995 16.2973 12.9284 16.2973C13.044 16.3541 13.1885 16.3824 13.2752 16.4675C13.3331 16.5243 13.362 16.6661 13.3331 16.7512C13.2174 17.0349 13.2174 17.0349 13.5643 17.0633C13.7667 17.0916 13.969 17.0916 14.1424 17.1484C14.3159 17.2335 14.4893 17.3753 14.4604 17.6023C14.4315 17.7725 14.4893 17.8008 14.6627 17.8008C14.8651 17.8008 15.1542 17.9994 15.1542 18.198C15.1542 18.2831 15.0674 18.3682 15.0385 18.4817C14.8651 18.6235 14.6917 18.6235 14.5471 18.4817C14.4604 18.3966 14.3737 18.3398 14.287 18.2831C14.0846 18.1129 13.651 17.971 13.362 17.9994C13.2174 18.0278 13.1018 17.971 13.1596 17.8292C13.2752 17.5172 13.1307 17.2902 12.9573 17.0916C12.7549 16.8647 12.9573 16.6094 12.8706 16.3541ZM12.6393 16.6094C12.6971 16.6094 12.8127 16.6945 12.8127 16.7512C12.8127 16.808 12.726 16.9498 12.6971 16.9498C12.6104 16.9498 12.5237 16.8931 12.3502 16.808C12.4948 16.6945 12.5526 16.6094 12.6393 16.6094ZM12.2346 19.0774C12.1768 19.0774 12.0612 19.1058 11.9745 19.049C11.8588 18.9923 11.9745 18.7086 12.1479 18.6235C12.2057 18.5951 12.3791 18.5951 12.4081 18.6519C12.5526 18.8221 12.4081 18.9355 12.2346 19.0774ZM11.9745 16.6094C12.0612 16.5526 12.119 16.4959 12.1479 16.4959C12.2057 16.4959 12.2346 16.4959 12.2924 16.4959C12.2924 16.5526 12.2924 16.6094 12.2635 16.6377C12.2346 16.6945 12.2057 16.7229 12.1479 16.7512C12.0612 16.808 11.9456 16.8363 11.8299 16.8647C11.9166 16.7796 11.9456 16.6661 11.9745 16.6094ZM11.7143 18.5668C11.7721 18.5668 11.8299 18.6235 11.8877 18.6519C11.8588 18.7086 11.8299 18.7937 11.801 18.8221C11.7432 18.8504 11.6854 18.7937 11.5698 18.7653C11.6276 18.6519 11.6565 18.5668 11.7143 18.5668ZM11.5409 19.3611C11.5987 19.3611 11.6565 19.3894 11.7143 19.4178C11.6854 19.4462 11.6565 19.5029 11.6276 19.5313C11.5987 19.5596 11.5409 19.5313 11.4541 19.5029C11.4831 19.4178 11.512 19.3611 11.5409 19.3611ZM10.9916 17.0916C11.0784 17.1767 11.194 17.2618 11.3096 17.3469C11.2229 17.4888 11.194 17.6306 11.1362 17.659C10.9916 17.7157 10.876 17.6306 10.876 17.4604C10.876 17.3469 10.9338 17.2051 10.9916 17.0916ZM9.8932 19.6731C10.1534 19.4462 10.3846 19.2476 10.6448 19.049C10.7604 18.9355 10.876 18.9923 10.9627 19.1058C11.1073 19.276 11.2229 19.4178 11.3674 19.588C11.3674 19.588 11.3963 19.588 11.3963 19.5596C11.512 19.7015 11.6565 19.8433 11.7721 19.9852C11.8588 20.0703 11.8877 20.1554 11.8299 20.3256C11.7143 20.666 11.9166 20.8929 12.2635 20.8078C12.437 20.7795 12.5237 20.8362 12.4659 21.0064C12.4081 21.3468 12.6104 21.6021 12.9284 21.6021C13.1596 21.6021 13.1307 21.6872 13.044 21.8291C12.9573 21.9993 12.8127 22.1411 12.8706 22.3964C12.9284 22.595 12.4948 22.8219 12.2635 22.7652C12.1479 22.7368 11.8588 22.3681 11.801 22.283C11.5698 21.9142 11.6854 21.4319 11.3096 21.1199C11.1651 21.0064 11.0495 20.9213 10.876 21.0348C10.7893 21.0915 10.7026 21.1199 10.6159 21.1199C10.558 21.1199 10.4713 21.0064 10.4713 21.0064C10.587 20.7795 10.4135 20.4107 10.7604 20.2688C10.7893 20.2405 10.7893 20.127 10.7604 20.0703C10.7604 20.0419 10.6448 20.0135 10.587 20.0135C10.5002 20.0135 10.4424 20.0703 10.3557 20.0986C10.1823 20.1554 9.8643 20.0135 9.83539 19.8433C9.83539 19.7866 9.83539 19.7015 9.8932 19.6731ZM11.8588 23.985C11.5987 24.0418 11.5409 24.0134 11.4541 23.7014C11.4252 23.6446 11.4252 23.5879 11.4252 23.5879C11.3963 23.5028 11.3963 23.4744 11.3963 23.4177C11.3674 23.2758 11.2807 23.1056 11.4831 23.0489C11.6565 22.9922 11.8588 22.9638 11.9745 23.1624C12.0323 23.2758 12.0901 23.3893 12.119 23.5311C12.1768 23.8716 12.119 23.9283 11.8588 23.985ZM9.08383 20.0419C9.17055 19.9568 9.19945 19.9001 9.22836 19.8433C9.28617 19.9001 9.37289 19.9284 9.4018 19.9852C9.4307 20.0135 9.34398 20.1554 9.31508 20.1554C9.25726 20.1554 9.19945 20.0703 9.08383 20.0419ZM8.9682 27.219C8.99711 27.1339 9.14164 27.0771 9.25726 26.992C9.34398 27.0204 9.51742 27.0204 9.51742 27.0771C9.57523 27.219 9.57523 27.3892 9.57523 27.531C9.51742 27.531 9.4307 27.5594 9.37289 27.5594C9.31508 27.531 9.25726 27.4459 9.19945 27.4175C9.11273 27.3608 8.91039 27.4175 8.9682 27.219ZM9.66195 27.6161C9.69086 27.6729 9.66195 27.758 9.63305 27.8147C9.60414 27.8431 9.51742 27.8147 9.4018 27.8431C9.4307 27.7296 9.4307 27.6445 9.45961 27.6161C9.51742 27.5878 9.63305 27.6161 9.66195 27.6161ZM8.53461 23.6162C8.65023 23.7865 8.53461 23.8716 8.41898 23.9567C8.39007 23.985 8.33226 24.0134 8.30336 24.0134C8.36117 24.0701 8.39007 24.1269 8.41898 24.1836C8.47679 24.3254 8.5057 24.4957 8.53461 24.6375C8.53461 24.6942 8.47679 24.7793 8.41898 24.8928C8.21664 24.7793 8.0432 24.6942 7.89867 24.5808C7.81195 24.4957 7.86976 24.3822 7.95648 24.3254C7.98539 24.2971 8.0432 24.2403 8.0432 24.212C8.0721 24.1836 8.0721 24.1269 8.10101 24.0985C7.98539 24.0985 7.84085 24.0418 7.75413 23.9283C7.66742 23.8148 7.69632 23.7297 7.86976 23.5595C8.15882 23.3326 8.33226 23.3609 8.53461 23.6162ZM6.2221 23.5311C6.19319 23.446 6.33772 23.3326 6.39554 23.2191C6.56898 23.2758 6.74241 23.2758 6.77132 23.3609C6.85804 23.5311 6.65569 23.5595 6.54007 23.5879C6.45335 23.6162 6.27991 23.7014 6.2221 23.5311ZM6.30882 24.4957C6.30882 24.5524 6.27991 24.5808 6.25101 24.6091C6.25101 24.6091 6.19319 24.5808 6.13538 24.5524C6.19319 24.4957 6.19319 24.4673 6.25101 24.4389C6.25101 24.4389 6.33772 24.4957 6.30882 24.4957ZM5.87522 21.4887C5.84632 21.4603 5.81741 21.4319 5.81741 21.4036C5.87522 21.2901 5.93304 21.1482 6.01976 21.0348C6.10647 20.9213 6.2221 20.8929 6.33772 21.0064C6.42444 21.1199 6.42444 21.2333 6.30882 21.3184C6.13538 21.4036 5.99085 21.4319 5.87522 21.4887ZM6.65569 25.0063C6.65569 24.9495 6.71351 24.9212 6.74241 24.8644C6.82913 24.7226 6.59788 24.524 6.85804 24.4389C7.00257 24.4105 7.17601 24.4389 7.32054 24.4389C7.46507 24.4389 7.5807 24.5524 7.49398 24.6659C7.34945 24.8644 7.49398 24.9779 7.5807 25.1481C7.63851 25.2332 7.69632 25.4034 7.66742 25.4602C7.5807 25.602 7.46507 25.5453 7.32054 25.4885C7.17601 25.4034 7.00257 25.3751 6.82913 25.3183C6.77132 25.29 6.71351 25.2332 6.62679 25.2049C6.65569 25.1481 6.62679 25.063 6.65569 25.0063ZM7.20491 23.2758C7.26273 23.2191 7.29163 23.1624 7.32054 23.1056C7.34945 23.134 7.43617 23.1624 7.43617 23.1907C7.43617 23.2475 7.40726 23.3042 7.37835 23.3326C7.32054 23.3326 7.26273 23.3042 7.20491 23.2758ZM7.69632 25.914C7.86976 25.914 8.0721 25.9424 8.24554 25.9708C8.27445 25.9708 8.30336 25.9992 8.36117 26.0559C8.36117 26.1126 8.39007 26.1977 8.36117 26.2261C8.33226 26.2828 8.24554 26.3396 8.15882 26.3396C7.98539 26.3396 7.81195 26.3112 7.63851 26.2545C7.5807 26.2261 7.52288 26.1126 7.49398 26.0275C7.52288 26.0275 7.63851 25.914 7.69632 25.914ZM7.34945 21.7723C7.46507 21.8574 7.52288 21.9425 7.46507 22.0844C7.37835 22.283 7.46507 22.3397 7.66742 22.3681C7.92757 22.3964 7.95648 22.4815 7.78304 22.6801C7.66742 22.8219 7.52288 22.9071 7.37835 22.9922C7.32054 23.0205 7.20491 22.9922 7.1182 22.9354C6.94476 22.8219 6.80023 22.6801 6.65569 22.5383C6.33772 22.2262 6.33772 22.056 6.65569 21.7723C6.88695 21.5738 7.1182 21.5738 7.34945 21.7723ZM5.67288 20.7227C5.93304 20.666 6.16429 20.6376 6.42444 20.6093C6.48226 20.6093 6.51116 20.6376 6.56898 20.666C6.54007 20.7227 6.51116 20.7795 6.48226 20.8078C6.25101 20.8929 5.99085 20.978 5.67288 21.0631C5.64397 21.0348 5.55725 20.978 5.52835 20.9213C5.52835 20.8362 5.61507 20.7227 5.67288 20.7227ZM5.58616 22.9071C5.67288 22.8787 5.7885 22.9071 5.90413 22.9354C5.96194 22.9638 6.04866 22.9922 6.13538 22.9922C6.10647 23.0773 6.07757 23.1624 6.04866 23.2475C6.04866 23.2758 5.99085 23.3042 5.90413 23.3893C5.87522 23.3893 5.70179 23.5028 5.64397 23.4744C5.52835 23.3609 5.47053 23.2191 5.38382 23.0773C5.38382 23.0205 5.49944 22.9071 5.58616 22.9071ZM5.93304 28.07C5.87522 28.0133 5.7885 27.9565 5.73069 27.9282C5.67288 27.8714 5.58616 27.8147 5.58616 27.7863C5.58616 27.7296 5.67288 27.6729 5.73069 27.6161C5.81741 27.5594 5.90413 27.5594 5.96194 27.531C6.36663 27.4459 6.54007 27.531 6.62679 27.8147C6.65569 27.8714 6.65569 27.9565 6.62679 28.0133C6.51116 28.1267 6.04866 28.1835 5.93304 28.07ZM7.1182 29.3182C7.08929 29.3466 7.06038 29.4317 7.06038 29.4884C6.97366 29.687 6.85804 29.7153 6.6846 29.6019C6.59788 29.5451 6.51116 29.5168 6.45335 29.46C6.36663 29.4033 6.25101 29.3182 6.27991 29.2615C6.27991 29.1764 6.39554 29.1196 6.45335 29.0629C6.51116 29.0061 6.59788 29.0061 6.6846 28.9778C6.74241 28.9778 6.80023 28.9494 6.88694 28.9494C7.00257 28.9778 7.17601 28.9494 7.23382 29.0345C7.32054 29.148 7.20491 29.2331 7.1182 29.3182ZM7.66742 27.7863C7.52288 27.7863 7.43617 27.8147 7.34945 27.7863C7.29163 27.758 7.32054 27.6445 7.29163 27.5594C7.52288 27.531 7.37835 27.0488 7.72523 27.1906C7.81195 27.219 7.86976 27.4459 7.86976 27.5878C7.86976 27.6445 7.72523 27.7012 7.66742 27.7863ZM8.79476 30.5948C8.47679 30.6515 8.33226 30.5664 8.24554 30.2827C8.18773 30.0558 8.24554 29.999 8.56351 29.9139C8.70804 29.8856 8.88148 29.8288 8.93929 30.0841C9.02601 30.4245 8.9682 30.538 8.79476 30.5948ZM10.6737 30.7933C10.5002 30.8784 10.3268 30.9635 10.0666 30.8217C9.8932 30.7366 9.77758 30.6231 9.69086 30.4813C9.66195 30.538 9.60414 30.5664 9.54633 30.5948C9.48852 30.6515 9.4307 30.7082 9.37289 30.7366C9.37289 30.765 9.4018 30.7933 9.4018 30.8217C9.4018 30.8784 9.4307 30.9352 9.4018 30.9635C9.4018 30.9919 9.34398 31.0203 9.31508 31.077C9.25726 30.9919 9.19945 30.9068 9.17055 30.8217C9.14164 30.7366 9.19945 30.6515 9.19945 30.5664C9.19945 30.4813 9.22836 30.3962 9.25726 30.3111C9.4018 30.3111 9.54633 30.2827 9.63305 30.3111C9.60414 30.226 9.60414 30.1125 9.60414 30.0274C9.63305 29.7153 10.1245 29.4033 10.4135 29.5451C10.4713 29.5735 10.5002 29.6302 10.5291 29.687C10.587 29.8288 10.6159 29.999 10.6448 30.1409C10.6448 30.1409 10.6448 30.1409 10.6159 30.1409C10.6448 30.226 10.6737 30.3111 10.6737 30.3962C10.7315 30.538 10.8471 30.7082 10.6737 30.7933ZM10.587 29.148C10.558 29.0913 10.558 29.0061 10.587 28.9494C10.587 28.921 10.7315 28.921 10.7604 28.9494C10.7893 29.0061 10.7893 29.0913 10.8182 29.2047C10.7026 29.148 10.6159 29.1764 10.587 29.148ZM11.7143 30.8217C11.6276 30.7933 11.5409 30.765 11.4831 30.7366C11.4252 30.7082 11.3963 30.6799 11.3385 30.6515C11.0495 30.538 11.0206 30.5096 11.1651 30.3111C11.1362 30.2543 11.1362 30.1409 11.1651 30.0558C11.1651 30.0274 11.1651 29.999 11.1651 29.999C11.0784 29.9707 10.9627 29.8856 10.9338 29.8004C10.876 29.687 10.8182 29.46 10.876 29.4033C10.9916 29.2898 11.1651 29.2331 11.3385 29.2331C11.3963 29.2331 11.512 29.3749 11.5409 29.46C11.5698 29.5168 11.5698 29.6019 11.5698 29.687C11.7143 29.687 11.8588 29.5735 12.0034 29.5451C12.0612 29.5451 12.119 29.5451 12.1768 29.5735C12.1768 29.6302 12.1768 29.687 12.1479 29.7153C12.0323 29.9139 11.9456 30.1409 11.7721 30.2827C11.7432 30.2827 11.7432 30.3111 11.7143 30.3111C11.7432 30.3962 11.7721 30.4813 11.7721 30.5664C11.801 30.6515 11.7432 30.765 11.7143 30.8217ZM11.8877 29.2615C11.8877 29.2047 11.9745 29.1196 12.0612 29.0913C12.3791 28.9494 12.4948 29.0061 12.5815 29.4317C12.5815 29.46 12.5815 29.6019 12.5237 29.6586C12.4081 29.7721 12.3213 29.6586 12.2346 29.5735C12.2057 29.5168 12.119 29.5451 12.0612 29.4884C11.9745 29.4033 11.8877 29.3182 11.8877 29.2615ZM12.3791 32.0699C12.3213 32.0699 12.2635 31.928 12.2057 31.8713C12.1768 31.8429 12.1768 31.7862 12.1479 31.6727C12.1479 31.6444 12.1768 31.5025 12.2346 31.4742C12.4081 31.4174 12.4659 31.5309 12.4948 31.6727C12.4948 31.7011 12.4948 31.7578 12.5237 31.7862C12.4948 31.8997 12.5526 32.0415 12.3791 32.0699ZM12.5815 30.765C12.5237 30.8784 12.4081 30.9352 12.3502 31.0203C12.2924 31.077 12.2635 31.1054 12.2057 31.1337C12.119 31.1621 12.0034 31.1621 11.9166 31.1905C11.9166 31.1054 11.8877 30.9635 11.9456 30.9068C12.0901 30.765 12.2346 30.6515 12.4081 30.538C12.4659 30.5096 12.5815 30.538 12.6104 30.5664C12.6393 30.5947 12.6104 30.7082 12.5815 30.765ZM13.5065 32.2685C13.3042 32.4103 13.2174 32.3819 13.044 32.155C12.8995 31.9564 12.8995 31.8713 13.1307 31.7011C13.3909 31.5025 13.5065 31.5309 13.7088 31.7862C13.8534 31.9564 13.7956 32.0699 13.5065 32.2685ZM13.3909 30.8217C13.5932 30.765 13.6799 30.8501 13.7377 31.1337C13.7956 31.3607 13.7377 31.4458 13.4198 31.5309C13.1307 31.5876 13.0729 31.5593 13.0151 31.3039C12.9862 31.0203 13.0729 30.8784 13.3909 30.8217ZM15.6167 30.8784C15.4143 31.0486 15.212 31.1905 15.0096 31.3607C15.0096 31.3891 15.0096 31.4174 14.9807 31.4174C14.9518 31.4174 14.9229 31.4458 14.894 31.4174C14.894 31.4174 14.894 31.4174 14.8651 31.4174C14.7495 31.5025 14.6049 31.5876 14.4893 31.389C14.4026 31.2188 14.4026 31.077 14.4604 30.9919C14.4315 30.9068 14.4315 30.8217 14.4026 30.7366C14.4604 30.7933 14.5471 30.8217 14.6049 30.8784C14.7495 30.7933 14.9229 30.765 15.0096 30.7082C15.212 30.6799 15.3276 30.6231 15.4721 30.6231C15.5299 30.6231 15.5878 30.6799 15.6167 30.7366C15.6745 30.765 15.6456 30.8501 15.6167 30.8784ZM16.9753 30.9352C16.8596 30.9635 16.6862 31.077 16.5706 30.9919C16.5417 31.0203 16.4838 31.0486 16.4549 31.077C16.3971 31.1054 16.2815 31.0486 16.2237 30.9919C16.0213 30.7933 15.8479 30.5664 15.6745 30.3678C15.5299 30.1976 15.4143 30.0558 15.2698 29.8856C15.1831 29.8004 15.1252 29.7153 15.0096 29.687C14.894 29.7153 14.7784 29.8004 14.7784 29.999C14.7784 30.0274 14.6627 30.0841 14.576 30.1125C14.3737 30.1692 14.1713 30.226 13.9979 30.2543C13.8823 30.2827 13.7667 30.3111 13.651 30.3394C13.2463 30.4245 13.2174 30.3962 13.0729 29.999C12.8995 29.5451 13.2174 29.3182 13.4487 29.0629C13.5643 28.921 13.7667 28.8927 13.8245 28.6657C13.8245 28.6657 13.8245 28.6657 13.8245 28.6374C13.7377 28.5806 13.6799 28.4955 13.6221 28.4104C13.5643 28.3253 13.4776 28.2402 13.4198 28.1551C13.3331 28.07 13.3042 27.9849 13.3331 27.8714C12.8995 27.6161 12.5237 27.9565 12.119 27.9849C12.0612 27.9849 12.0034 28.07 11.9745 28.1551C11.8588 28.4104 11.5698 28.5239 11.3385 28.3253C11.2229 28.2118 11.1073 28.2118 10.9627 28.2402C10.8182 28.2686 10.6448 28.3253 10.5002 28.3537C10.4424 28.3537 10.3268 28.3821 10.2979 28.3537C10.0955 28.0984 10.0088 28.2686 9.83539 28.4104C9.4307 28.6941 8.93929 28.8643 8.41898 28.8643C8.21664 28.8643 8.0432 28.6657 7.86976 28.5523C7.84085 28.5523 7.89867 28.3821 7.92757 28.3537C8.0721 28.2686 8.21664 28.2118 8.36117 28.1835C8.59242 28.1267 8.82367 28.1267 9.02601 28.0416C9.54633 27.8998 10.0666 27.7296 10.587 27.6161C10.9916 27.5027 11.3963 27.4459 11.8299 27.3892C11.8877 27.3892 11.9745 27.3892 12.0612 27.4175C12.4081 27.5594 12.5526 27.4743 12.8127 27.219C12.8416 27.1906 12.8706 27.1622 12.9284 27.1339C12.8995 27.0488 12.8127 27.0204 12.6393 27.0204C12.437 27.0204 12.3213 26.9069 12.2924 26.7935C12.2635 26.7083 12.2635 26.6232 12.2346 26.5381C11.9456 26.6232 11.6854 26.68 11.3963 26.7367C11.2518 26.7651 10.9916 26.3679 11.0784 26.2261C11.1651 26.0843 11.2807 25.9708 11.4252 25.8289C11.3385 25.7438 11.2807 25.6587 11.3385 25.4885C11.4252 25.2332 11.194 24.9779 10.9338 25.0063C10.7315 25.0346 10.6448 24.9495 10.558 24.8361C10.4135 24.6659 10.269 24.4957 10.1245 24.3254H10.0955C9.95102 24.3254 9.80648 24.212 9.8932 24.1269C9.92211 24.0985 9.92211 24.0701 9.95102 24.0418C9.92211 23.985 9.95102 23.8999 10.0088 23.7865C10.0377 23.7581 9.97992 23.6446 9.92211 23.5879C9.83539 23.4744 9.71977 23.3609 9.63305 23.2475C9.45961 23.0205 9.45961 22.9638 9.69086 22.7368C9.74867 22.7085 9.80648 22.7085 9.8643 22.6801C9.80648 22.6801 9.74867 22.7085 9.69086 22.7085C9.54633 22.7368 9.48851 22.6801 9.45961 22.595C9.4307 22.6234 9.4018 22.6234 9.37289 22.6517C9.22836 22.7368 9.11273 22.6801 9.08383 22.5383C8.99711 22.3681 9.17055 22.3113 9.28617 22.2546C9.4018 22.1979 9.48851 22.056 9.63305 22.1411C9.69086 22.0844 9.77758 22.056 9.8932 22.056C9.8932 22.056 9.97992 22.0844 10.0377 22.1128C10.0955 22.1411 10.0955 22.1979 10.1534 22.2262C10.269 22.283 10.4713 22.2262 10.4424 22.4248C10.4135 22.5099 10.2401 22.595 10.1245 22.6517C10.0955 22.6801 10.0377 22.6801 10.0088 22.6801C10.0377 22.6801 10.0666 22.6801 10.0955 22.6801C10.2401 22.7085 10.4135 23.1056 10.3557 23.2475C10.269 23.4744 10.3268 23.5311 10.5291 23.5028C10.6159 23.4744 10.7026 23.5028 10.7604 23.5311C10.876 23.5595 10.9627 23.6162 11.0784 23.673C11.194 23.7014 11.2229 23.8432 11.1651 23.9567C11.3674 24.1836 11.5698 24.4389 11.7721 24.6659C11.8877 24.8077 12.0034 24.9212 11.9745 25.1481C11.9456 25.2616 12.0323 25.3751 12.0901 25.4885C12.1479 25.602 12.2057 25.7155 12.119 25.8289C12.3213 25.8857 12.4948 25.9992 12.6682 26.1126C12.8995 26.141 13.1307 26.1126 13.2463 26.3963C13.2752 26.4814 13.3331 26.5381 13.3331 26.6232C13.362 26.7651 13.362 26.8786 13.4198 26.992C13.6221 26.9353 13.8534 26.9353 14.0557 26.9069C14.0846 26.9069 14.1135 26.9069 14.1713 26.8786C14.0846 26.7651 13.969 26.6232 14.1135 26.5098C14.1713 26.453 14.3737 26.5665 14.4893 26.6232C14.5471 26.7651 14.6338 26.8786 14.5182 26.9637C14.576 26.992 14.6917 26.9637 14.7206 26.9353C14.8651 26.5665 15.2409 26.5665 15.5299 26.4814C15.9346 26.3396 16.3682 26.3112 16.8018 26.1977C16.9463 26.1694 17.0909 26.0843 17.2643 26.0275C17.9003 25.8857 18.5651 25.7438 19.201 25.602C19.6924 25.4885 20.1839 25.3467 20.6175 25.2616C20.5885 25.2332 20.6175 25.1481 20.6175 25.0914C20.6753 25.0914 20.762 25.1197 20.8776 25.1197C20.8776 25.1481 20.8776 25.1765 20.8487 25.2049C21.1378 25.1197 21.369 25.0346 21.5714 24.9779C21.8315 24.8928 22.2362 24.9779 22.3807 25.2049C22.4096 25.2332 22.3807 25.3751 22.3518 25.4034C22.2362 25.4885 22.0917 25.5453 21.976 25.602C21.8026 25.6871 21.6292 25.6871 21.5714 25.9424C21.5425 26.1126 21.051 26.1977 20.9354 26.0843C20.7909 25.9424 20.6464 25.9708 20.5018 25.9992C20.3573 26.0275 20.2706 26.0275 20.155 25.8857C19.9526 25.6871 19.6057 25.7722 19.4612 26.0275C19.4034 26.1126 19.3167 26.2261 19.2299 26.2828C19.0276 26.3679 18.9409 26.4814 18.8831 26.68C18.7385 26.6232 18.5651 26.5381 18.4206 26.5381C18.1026 26.5665 17.8135 26.68 17.5245 26.7651C17.4667 26.7935 17.3799 26.8218 17.3799 26.8786C17.3221 27.1055 17.1776 27.1622 17.0331 27.219C17.0042 27.219 17.0042 27.2473 16.9753 27.2757C16.8307 27.4459 16.6284 27.5878 16.3393 27.3892C16.2526 27.3324 16.137 27.3608 16.0213 27.3324C16.0503 27.2757 16.0792 27.1906 16.137 27.1339C15.9924 27.1339 15.819 27.1906 15.6745 27.219C15.501 27.2473 15.2987 27.3041 15.1252 27.3608C14.9229 27.4175 14.7206 27.4175 14.6917 27.7012C14.6917 27.758 14.576 27.8147 14.5182 27.8431C14.6338 27.9565 14.7495 28.0984 14.7206 28.2118C14.6049 28.5523 14.8362 28.6941 15.0096 28.8643C15.1542 29.0061 15.3276 29.148 15.4721 29.2898C15.6167 29.4317 15.7034 29.5451 15.9346 29.5735C15.9346 29.5735 15.9346 29.5735 15.9635 29.5735C15.9346 29.4317 15.9057 29.2898 16.0792 29.2047C16.137 29.1764 16.1948 29.0345 16.1659 29.0061C16.1081 28.9494 16.0213 28.8927 15.9346 28.8927C15.7612 28.8927 15.5588 28.921 15.3854 28.9494C15.1542 29.0061 15.0963 28.8927 15.0385 28.7225C14.9807 28.5523 14.9807 28.4104 15.212 28.3537C15.3276 28.3253 15.4432 28.2686 15.501 28.2686C15.6456 28.2402 15.7034 28.2118 15.7901 28.2118C16.2815 28.1551 16.3393 28.2118 16.4549 28.6657C16.5417 29.0345 16.5417 29.0345 16.9463 28.9778C17.062 28.9778 17.1776 28.9494 17.1776 29.0913C17.1776 29.148 17.0909 29.2331 17.0042 29.2615C16.8885 29.3182 16.7729 29.3182 16.6573 29.3466C16.5128 29.4033 16.3393 29.4033 16.3104 29.6302C16.3104 29.6586 16.2815 29.687 16.2526 29.7153C16.3104 29.8288 16.3393 29.9707 16.2815 30.1125C16.2237 30.3111 16.2815 30.3678 16.4838 30.3678C16.5128 30.3678 16.5417 30.3678 16.5417 30.3678C16.5995 30.3394 16.6573 30.3111 16.6573 30.3111C17.1198 30.1976 17.1776 30.1976 17.2354 30.538C17.0909 30.7082 17.2065 30.8784 16.9753 30.9352ZM10.2401 25.9424C10.3557 25.9708 10.4424 25.9708 10.4713 25.9992C10.5002 26.0275 10.4713 26.1126 10.4713 26.1694C10.4135 26.1694 10.3557 26.1694 10.3268 26.141C10.2979 26.141 10.2979 26.0559 10.2401 25.9424ZM11.0784 27.3324C11.1362 27.1906 11.1362 27.0771 11.194 27.0488C11.2518 27.0204 11.3674 27.0488 11.4252 27.0488C11.4252 27.1339 11.4252 27.2473 11.3963 27.2757C11.3674 27.3041 11.2518 27.3041 11.0784 27.3324ZM20.0393 24.5808C20.126 24.6375 20.2128 24.6375 20.2417 24.6942C20.2706 24.7226 20.2417 24.7793 20.2417 24.8361C20.1839 24.8077 20.126 24.8077 20.0682 24.7793C20.0393 24.751 20.0393 24.6942 20.0393 24.5808ZM20.4729 23.9567C20.5885 23.985 20.6464 24.0985 20.7909 24.212C20.7042 24.3538 20.6753 24.4673 20.5885 24.524C20.4729 24.5808 20.3862 24.4957 20.3573 24.3822C20.2995 24.1836 20.3573 23.9283 20.4729 23.9567ZM21.8604 26.4247C21.8604 26.5098 21.8604 26.6232 21.8315 26.68C21.7737 26.7367 21.687 26.7083 21.5135 26.7367C21.5714 26.5949 21.5714 26.4814 21.6292 26.4247C21.6581 26.3963 21.7737 26.4247 21.8604 26.4247ZM17.3799 28.8643C17.3221 28.6941 17.2643 28.5239 17.1776 28.3821C17.062 28.1835 16.9753 28.2118 16.8596 28.4104C16.8018 28.4955 16.744 28.5523 16.6862 28.609C16.6284 28.5239 16.5417 28.4672 16.4838 28.3821C16.3393 28.0133 16.3971 27.9565 16.7729 27.8714C16.8885 27.8431 17.0042 27.8147 17.1198 27.7863C17.062 27.7012 17.062 27.5878 17.1198 27.4743C17.2065 27.2473 17.4088 27.1906 17.6401 27.2473C17.6979 27.2757 17.7846 27.2473 17.8424 27.2757C17.9292 27.3041 18.0737 27.3041 18.1026 27.3892C18.1315 27.4459 18.0737 27.5878 18.0159 27.6729C17.987 27.7296 17.9292 27.758 17.8714 27.8147C17.8424 27.8431 17.8135 27.8431 17.7846 27.8714C17.7846 27.8998 17.8135 27.9565 17.8135 27.9849C17.8424 28.0984 17.8714 28.1835 17.9003 28.2969C17.9292 28.4104 17.9581 28.4955 17.987 28.609C18.0737 28.921 17.987 29.0061 17.669 29.0345C17.4956 29.0913 17.4088 29.0061 17.3799 28.8643ZM17.9292 30.765C17.9003 30.9068 17.9003 31.077 17.8714 31.2188C17.8714 31.2756 17.8424 31.3039 17.8135 31.3607C17.7557 31.3323 17.669 31.3323 17.669 31.2756C17.5823 31.1054 17.3799 30.9635 17.6401 30.765C17.6979 30.7366 17.6979 30.5947 17.6979 30.5096C17.6979 30.4245 17.669 30.3678 17.669 30.2827C17.6401 30.1409 17.6979 30.0274 17.8424 30.0274C17.9292 30.0274 18.0159 30.1409 18.1315 30.226C18.0448 30.4529 17.987 30.5947 17.9292 30.765ZM21.3112 31.5876C21.08 31.7862 20.8776 31.9564 20.6464 32.1266C20.5885 32.155 20.4729 32.155 20.3862 32.155C20.3862 32.1266 20.3862 32.0982 20.3862 32.0982C20.3284 32.1266 20.2417 32.155 20.126 32.1834C20.0971 32.1834 20.0104 32.155 19.8948 32.0982C19.8081 32.0699 19.7503 32.0131 19.6635 31.9848C19.4612 31.928 19.4901 31.8429 19.6346 31.7578C19.6635 31.7295 19.6924 31.7295 19.7214 31.7011C19.8081 31.5876 20.0971 31.5309 20.2417 31.5309C20.3862 31.5309 20.4729 31.5876 20.5018 31.6727C20.5018 31.5309 20.5018 31.3607 20.5018 31.2188C20.5018 31.0486 20.5596 30.9635 20.7331 30.9919C20.9354 31.0203 21.2245 30.8784 21.3112 31.1621C21.5425 31.3607 21.5425 31.3891 21.3112 31.5876ZM19.6635 30.3111C19.9237 30.0841 20.0104 30.0841 20.2128 30.3111C20.3573 30.4813 20.3284 30.5947 20.1839 30.7082C19.9526 30.8784 19.7214 30.8501 19.5479 30.6231C19.4034 30.4529 19.5768 30.3962 19.6635 30.3111ZM20.6464 29.5168C20.6753 29.4317 20.762 29.3466 20.8198 29.2615C20.9932 29.3182 21.1089 29.3466 21.2245 29.3749C21.08 29.46 20.9643 29.5735 20.8198 29.6586C20.8198 29.6586 20.6464 29.5451 20.6464 29.5168ZM22.4964 29.2331C22.4386 29.2615 22.3518 29.1764 22.2073 29.148C22.294 29.0345 22.3518 28.9494 22.4096 28.921C22.4386 28.8927 22.5831 28.9778 22.5831 29.0345C22.612 29.0913 22.5542 29.2047 22.4964 29.2331ZM24.0573 29.2615C23.9995 29.2898 23.9417 29.2898 23.855 29.2898C23.8839 29.2047 23.8839 29.148 23.8839 29.0913C23.9417 29.1196 23.9995 29.1196 24.0573 29.148C24.0862 29.148 24.0862 29.2615 24.0573 29.2615ZM26.0518 30.7366C25.994 30.7082 25.9073 30.6799 25.8784 30.6515C25.8495 30.5947 25.8784 30.5096 25.9073 30.3962C25.994 30.4529 26.0807 30.4813 26.0807 30.538C26.1097 30.5947 26.0807 30.6515 26.0518 30.7366ZM28.9425 25.9708C29.0003 26.0275 29.087 26.0559 29.1448 26.1126C29.1737 26.1126 29.1737 26.1694 29.1737 26.1977C29.1737 26.2545 29.2026 26.3112 29.2026 26.3963C29.2026 26.453 29.1737 26.5098 29.1448 26.5098C29.1159 26.5098 29.0581 26.4814 29.0292 26.453C28.9714 26.3679 28.9136 26.2828 28.9136 26.1977C28.8558 26.1126 28.9136 26.0559 28.9425 25.9708ZM27.0058 26.9069C27.0925 26.8786 27.1792 26.8786 27.2659 26.8786C27.3237 26.8786 27.4104 26.9353 27.4683 26.9069C27.7284 26.7651 27.8151 26.992 27.9597 27.1339C28.0753 27.3041 28.1909 27.4743 28.2776 27.6445C28.3643 27.5878 28.4511 27.5027 28.5378 27.4743C28.6245 27.4459 28.7112 27.5026 28.8269 27.5026C28.7979 27.5594 28.7979 27.6161 28.769 27.6445C28.7112 27.6729 28.6534 27.7012 28.5956 27.7296C28.5378 27.7296 28.4511 27.758 28.3933 27.758C28.3643 27.758 28.3354 27.7012 28.2776 27.6729C28.2776 27.7012 28.3065 27.7296 28.3065 27.758C28.3643 27.9565 28.3643 28.1835 28.3643 28.3821C28.3643 28.4104 28.2776 28.4672 28.2487 28.4388C27.9886 28.4104 27.844 28.1267 27.9308 27.8714C27.9597 27.8147 27.9886 27.758 27.9597 27.7296C27.9308 27.5878 27.3815 27.1622 27.2081 27.1622C27.1214 27.1622 27.0347 27.1339 26.9768 27.1055C26.9479 27.0771 26.9479 26.9353 27.0058 26.9069ZM27.0636 29.0345C27.1214 29.0061 27.237 29.0345 27.3237 29.0913C27.4104 29.148 27.4393 29.2331 27.5261 29.2898C27.5839 29.3466 27.6128 29.4033 27.6706 29.4317C27.7862 29.5735 27.8729 29.7153 27.6706 29.8856C27.4972 30.0274 27.3526 30.0841 27.1792 29.9139C27.1214 29.8572 27.0347 29.8004 26.9768 29.7153C26.6589 29.46 26.7167 29.1764 27.0636 29.0345ZM26.1675 28.3537C26.3409 28.3537 26.5432 28.2686 26.6011 28.3537C26.7745 28.4955 26.6011 28.609 26.4854 28.7225C26.3698 28.8359 26.1964 28.9778 26.0807 28.7508C26.0229 28.6657 26.1097 28.4955 26.1675 28.3537ZM25.4159 27.2473C25.5893 27.0771 25.705 27.1906 25.8206 27.3324C26.0518 27.6161 26.0518 27.6729 25.8206 27.8714C25.705 27.9282 25.5893 28.1551 25.387 27.9282C25.1847 27.7012 25.2136 27.4459 25.4159 27.2473ZM23.9706 26.1126C24.144 26.0559 24.3175 26.0275 24.4909 25.9708C24.4909 25.9708 24.4909 25.9708 24.4909 25.9992C24.6643 25.9424 24.8667 25.8857 25.0401 25.8573C25.2425 25.8289 25.3581 25.9708 25.2714 26.1126C25.0979 26.3396 25.2136 26.5665 25.2425 26.7935C25.2714 26.9353 25.2714 27.1622 25.2136 27.1906C25.069 27.2757 24.8378 27.3324 24.6643 27.2757C24.3753 27.1622 24.1151 27.0204 23.8839 26.8218C23.7682 26.7083 23.7393 26.4814 23.7104 26.3112C23.7104 26.2545 23.855 26.1694 23.9706 26.1126ZM23.1612 26.1126C23.1612 26.0843 23.219 26.0559 23.2479 26.0275C23.3057 25.9992 23.3636 25.9424 23.4214 25.914C23.4503 25.8857 23.5081 25.914 23.5659 25.914C23.5659 25.9708 23.5659 26.0275 23.537 26.0559C23.4792 26.141 23.4503 26.2261 23.3636 26.2828C23.3057 26.3112 23.1901 26.3112 23.1323 26.3112C23.1323 26.2545 23.1323 26.1977 23.1612 26.1126ZM23.1612 26.3963C23.219 26.453 23.2479 26.4814 23.2768 26.5098C23.2768 26.5381 23.2479 26.5665 23.219 26.5949C23.1901 26.5665 23.1323 26.5381 23.1034 26.5098C23.1034 26.5098 23.1323 26.453 23.1612 26.3963ZM23.0456 28.8076C23.2479 28.7225 23.4503 28.609 23.6526 28.5239V28.5523C23.7393 28.5239 23.7971 28.4955 23.8839 28.4955C24.1729 28.4388 24.2597 28.5239 24.2307 28.8359C24.2018 29.0061 24.2018 29.0913 23.9706 29.0061C23.7971 28.921 23.5659 28.9778 23.3346 28.9778C23.2479 28.9778 23.1612 29.0061 23.1034 29.0061C23.0456 29.0061 22.9878 28.9494 22.93 28.921C22.9878 28.8927 23.0167 28.8359 23.0456 28.8076ZM22.93 30.9352C23.0167 30.9352 23.1034 31.0486 23.219 31.1337C23.1612 31.2756 23.1612 31.4458 23.1034 31.4458C22.9011 31.5025 22.9011 31.3039 22.8432 31.1905C22.8143 31.1054 22.7565 30.9352 22.93 30.9352ZM22.9011 27.6445C22.9011 27.7012 22.8432 27.7863 22.8143 27.7863C22.6409 27.8431 22.4386 27.9849 22.2651 27.758C22.2073 27.7012 22.0628 27.7012 21.9471 27.7012C21.687 27.7296 21.4268 27.8998 21.1667 27.5878C21.08 27.4743 20.9065 27.6161 20.9065 27.758C20.9065 27.8147 20.9065 27.8998 20.9354 27.9565C21.0221 28.2118 20.8487 28.2686 20.6464 28.3253C20.4151 28.3821 20.3284 28.2686 20.2995 28.07C20.2995 28.0133 20.2706 27.9565 20.2417 27.9282C20.1839 27.8714 20.126 27.8147 20.0682 27.758C20.0393 27.8431 19.9526 27.8998 19.9526 27.9849C19.9526 28.1551 19.8659 28.2402 19.7214 28.2686C19.4901 28.2969 19.2299 28.3537 18.9987 28.3821C19.0276 28.4104 19.0565 28.4672 19.0854 28.4955C19.1432 28.5806 19.201 28.6657 19.2878 28.7225C19.6057 28.921 19.519 29.1764 19.4612 29.4317C19.5768 29.3466 19.7503 29.3182 19.9237 29.4317C20.0104 29.4884 20.0971 29.5168 20.2128 29.5735C20.2706 29.6019 20.2995 29.6302 20.3573 29.6586C20.3284 29.687 20.2995 29.7437 20.2706 29.7721C20.0971 29.8572 19.9237 29.9139 19.7503 29.999C19.6635 30.0558 19.5479 30.1125 19.4612 30.1976C19.4034 30.2543 19.3456 30.3394 19.2878 30.3962C19.2299 30.3111 19.1432 30.226 19.0276 30.1125C19.0854 29.999 19.1432 29.8856 19.201 29.8004C19.2299 29.7721 19.2589 29.7153 19.2878 29.687C19.2589 29.687 19.2589 29.687 19.2589 29.687C19.0276 29.6019 18.8542 29.7153 18.6518 29.7721C18.6229 29.8004 18.5362 29.7721 18.5073 29.7437C18.4784 29.7153 18.5073 29.6586 18.5073 29.6019C18.5073 29.5735 18.5362 29.5451 18.5362 29.5168C18.7385 29.1196 18.7385 29.0061 18.3628 28.7225C18.1893 28.5806 18.1315 28.4388 18.3049 28.2402C18.3339 28.2118 18.3628 28.1551 18.3917 28.0984C18.4495 27.9282 18.4784 27.8714 18.5362 27.8714C18.5073 27.5878 18.6518 27.4459 19.0276 27.3324C19.0854 27.3041 19.1721 27.3041 19.2299 27.3041C19.3167 27.2757 19.4034 27.2473 19.519 27.2473C19.6635 27.219 19.7503 27.2473 19.8659 27.3892C19.9815 27.5878 20.126 27.5594 20.155 27.3892C20.2128 27.1055 20.444 27.0204 20.6753 26.9637C20.9354 26.9069 21.1956 26.8786 21.4846 26.8218C21.7448 26.7651 22.0339 26.7651 22.0917 26.4247C22.0917 26.3963 22.294 26.3396 22.294 26.3679C22.3807 26.5098 22.4964 26.5381 22.6698 26.5665C22.9011 26.5949 22.9878 26.9637 22.8143 27.1339C22.5542 27.3892 22.5542 27.4175 22.8721 27.5594C22.8143 27.531 22.9011 27.5878 22.9011 27.6445ZM22.9589 24.2971C22.93 24.2971 22.8721 24.2971 22.8143 24.2971C22.7854 24.2971 22.8143 24.2403 22.8143 24.1552C22.8721 24.1836 22.93 24.1836 22.9589 24.212V24.2971ZM25.3581 19.9852C25.5026 19.9001 25.6182 20.0419 25.6182 20.1837C25.6472 20.3256 25.705 20.4958 25.5026 20.5525C25.3003 20.6093 25.2714 20.439 25.1847 20.2405C25.2136 20.1554 25.2714 20.0135 25.3581 19.9852ZM25.6472 22.4532C25.6472 22.5666 25.5893 22.6801 25.5315 22.7936C25.387 22.8219 25.2425 22.9071 25.1847 22.8787C25.069 22.7936 24.9534 22.6517 24.8667 22.5099C24.8378 22.4815 24.8667 22.4248 24.8956 22.3964C25.0112 22.283 25.6472 22.3113 25.6472 22.4532ZM24.462 13.7159C24.5198 13.7159 24.6354 13.801 24.6354 13.8293C24.6354 13.9144 24.5487 13.9712 24.5198 14.0279C24.462 13.9712 24.4042 13.9428 24.3175 13.8861C24.3753 13.801 24.4042 13.7159 24.462 13.7159ZM24.2018 16.8647C24.2307 16.8363 24.3175 16.7796 24.3464 16.808C24.5487 16.8931 24.7222 17.0349 24.9823 17.0916C25.1847 17.1484 24.9534 17.2902 24.9245 17.3753C24.8089 17.4888 24.2886 17.5739 24.1729 17.4888C24.1151 17.4604 24.0862 17.3469 24.0862 17.2902C24.1151 17.1484 24.144 17.0065 24.2018 16.8647ZM23.7104 20.4674C23.7971 20.5525 23.8839 20.6376 23.9995 20.7511C23.9128 20.8646 23.8839 20.9497 23.8261 21.0348C23.7682 20.978 23.6526 20.9213 23.6526 20.8646C23.6237 20.7511 23.6815 20.6093 23.7104 20.4674ZM23.6815 23.134C23.6815 23.1056 23.6815 23.0773 23.6815 23.0773C23.6815 23.0489 23.7682 22.9638 23.7971 22.9638C23.9706 22.9922 24.144 22.9354 24.2886 22.9922C24.4042 22.9638 24.5198 22.9354 24.6065 22.9071C24.8378 22.8503 24.9245 22.9638 24.9823 23.134C25.0401 23.3326 25.0112 23.4744 24.78 23.5311C24.6932 23.5595 24.6065 23.5879 24.5198 23.6162C24.2886 23.6446 24.0862 23.7581 23.8839 23.5028C23.7971 23.3609 23.4214 23.5311 23.3636 23.7014C23.2768 23.8999 22.9589 24.0701 22.7565 24.0134C22.6698 23.985 22.612 23.8716 22.612 23.7581C22.5831 23.7865 22.4386 23.9283 22.4096 23.8999C22.2073 23.8148 22.0628 23.8999 21.9182 23.9567C21.9761 23.985 22.005 24.0418 22.0628 24.0701C21.9761 24.1269 21.9182 24.212 21.8315 24.2687C21.8026 24.2971 21.7737 24.2971 21.7448 24.2971C21.5714 24.3254 21.3979 24.3822 21.3112 24.1552C21.2823 24.0985 21.1667 24.1269 21.1089 24.0701C21.051 24.0134 20.9932 23.9283 20.9932 23.8432C20.9932 23.7865 21.08 23.7014 21.1378 23.7014C21.2245 23.7014 21.3112 23.673 21.3979 23.673C21.3979 23.6446 21.3979 23.6162 21.4268 23.5595C21.5714 23.2191 21.3401 23.0773 21.1956 22.9071C20.9932 22.6801 20.7909 22.4815 20.5885 22.2546C20.444 22.0844 20.3573 22.1411 20.2128 22.2262C19.8659 22.4815 19.8659 22.4815 19.5768 22.1411C19.201 21.7156 18.8253 21.2901 18.4495 20.8646C18.3628 20.7795 18.3339 20.7227 18.276 20.666C18.1893 20.666 18.1315 20.6093 18.0448 20.5525C18.0737 20.4958 18.1026 20.3823 18.1604 20.3539C18.1893 20.3256 18.2182 20.3256 18.2471 20.2972C18.276 20.2405 18.3049 20.1837 18.3628 20.0986C18.3917 20.0419 18.3917 19.9568 18.4206 19.8717C18.3339 19.9001 18.276 19.9001 18.1893 19.9284C18.1604 19.9284 18.1315 19.9852 18.0737 19.9852C17.9581 20.0419 17.8424 20.1554 17.7557 20.0135C17.7268 19.9568 17.7557 19.815 17.8135 19.7298C18.0737 19.3327 18.0448 19.2476 17.7268 18.8788C17.5534 18.6802 17.2932 18.5384 17.3799 18.198C17.4088 18.0561 17.2643 18.0278 17.1198 18.0845C16.9174 18.1696 16.7151 18.2547 16.5128 18.0561C16.3682 17.9427 16.3393 17.8008 16.4838 17.6874C16.5995 17.5739 16.744 17.432 16.8885 17.3186C17.0042 17.2335 17.1198 17.1767 17.2643 17.2902C17.3221 17.3469 17.4667 17.3186 17.5534 17.3469C17.7846 17.3469 17.987 17.6023 17.9292 17.8576C17.8714 18.1129 17.9003 18.1412 18.1315 18.1129C18.3628 18.0845 18.3917 18.1412 18.3628 18.3398C18.3339 18.5668 18.3339 18.7653 18.3339 18.9923C18.3339 19.0207 18.4495 19.0774 18.4784 19.0774C18.7096 18.9923 18.7964 19.1625 18.9409 19.276C19.0854 19.3894 19.1143 19.5313 19.0276 19.7015C18.9409 19.9001 19.201 20.1837 19.4323 20.127C19.8081 20.0703 19.8659 20.3539 20.0104 20.5525C20.155 20.7511 20.0971 20.9497 19.9526 21.1199C19.8948 21.1766 19.837 21.2333 19.7792 21.2901C19.7503 21.3184 19.7503 21.3752 19.7792 21.4036C19.8081 21.4319 19.8659 21.4319 19.8948 21.4319C19.9815 21.3752 20.0971 21.3185 20.1839 21.2617C20.444 21.0915 20.5018 21.0915 20.7042 21.2901C20.7042 21.2333 20.7331 21.1482 20.762 21.1199C20.9643 21.0064 21.1956 20.9213 21.4268 20.8646C21.4846 20.8362 21.6581 20.9497 21.6581 21.0064C21.687 21.1482 21.6292 21.2901 21.6003 21.4319C21.6003 21.4319 21.5135 21.4603 21.4846 21.4319C21.2534 21.1766 20.9932 21.2901 20.7331 21.3468C20.7909 21.4319 20.8487 21.4887 20.9354 21.5738C20.9932 21.6589 21.08 21.744 21.1378 21.8291C21.2823 21.9993 21.4268 22.1695 21.5714 22.3397C21.687 22.4815 21.8026 22.6234 21.6581 22.8503C21.5714 22.9922 21.6581 23.134 21.8604 23.0489C22.005 22.9922 22.1206 22.9638 22.2362 23.1056C22.3807 23.3042 22.5253 23.4744 22.6409 23.7014C22.6409 23.5879 22.6409 23.446 22.6987 23.3609C22.7565 23.2758 22.8143 23.1624 22.8432 23.0773C22.9011 22.9071 23.0745 22.8503 23.1612 22.9922C23.2768 23.2475 23.4503 23.1624 23.6237 23.134C23.6526 23.134 23.6815 23.134 23.6815 23.134ZM23.2479 16.1555C23.219 16.1839 23.1034 16.1555 22.9878 16.1839C23.0167 16.0704 23.0167 15.9853 23.0456 15.9569C23.1034 15.9002 23.1901 15.9002 23.2479 15.9002C23.2479 15.9853 23.2768 16.0704 23.2479 16.1555ZM22.8143 13.035C22.9011 13.035 22.9878 13.0634 23.1323 13.0634C23.1323 13.2052 23.219 13.3754 23.1612 13.4322C23.0167 13.574 22.9011 13.4038 22.8432 13.3187C22.7854 13.2336 22.8143 13.1201 22.8143 13.035ZM21.8604 14.6236C21.8604 14.5102 21.8893 14.3967 21.9182 14.2832C21.9761 14.1414 22.0339 14.0279 22.1206 13.9144C22.2362 13.8861 22.3518 13.8293 22.3518 13.8577C22.4096 13.9144 22.4096 13.9995 22.4386 14.0846C22.4386 14.1414 22.3807 14.2265 22.3807 14.2832C22.5542 14.5953 22.294 14.7087 22.1206 14.8222C22.0628 14.8506 21.9471 14.8506 21.8604 14.8222C21.8604 14.8222 21.8604 14.7087 21.8604 14.6236ZM21.4557 13.6308C21.5135 13.574 21.6292 13.574 21.8026 13.5173C21.7737 13.6875 21.7737 13.801 21.7448 13.8293C21.6581 13.8577 21.5425 13.8577 21.4557 13.801C21.4268 13.8293 21.3979 13.6591 21.4557 13.6308ZM21.08 16.6945C21.1378 16.6945 21.2534 16.7512 21.2823 16.8363C21.3979 16.9782 21.4557 17.1484 21.6003 17.2618C21.976 17.5172 21.7737 17.8576 21.8026 18.1696C21.8026 18.2263 21.7159 18.2831 21.6581 18.3398C21.7737 18.4249 21.8604 18.5384 22.0339 18.4533C22.1206 18.4249 22.294 18.4817 22.3518 18.5384C22.4964 18.6802 22.5831 18.8788 22.6987 19.049C22.8143 19.2476 22.6409 19.3327 22.5253 19.4462C22.4096 19.5596 22.294 19.5596 22.1784 19.4462C21.976 19.2192 21.8026 19.0207 21.6003 18.7937C21.4268 18.5951 21.4557 18.4533 21.6581 18.3398C21.5714 18.2831 21.4557 18.1696 21.3979 18.198C21.1378 18.3115 21.051 18.1412 20.9354 17.9994C20.8487 17.9143 20.7909 17.8008 20.7042 17.7157C20.444 17.3469 20.6464 16.7796 21.08 16.6945Z" fill="#171026"/>
<path d="M24.433 9.6877C24.4041 9.6877 24.3752 9.65933 24.3463 9.65933C24.2018 9.6026 24.0861 9.40402 23.9705 9.29055C23.7682 9.29055 23.6236 9.29055 23.4791 9.29055L23.508 9.31892C23.6236 9.40402 23.6814 9.48912 23.6236 9.63096C23.5369 9.82954 23.6236 9.88627 23.826 9.91464C24.0861 9.94301 24.115 10.0281 23.9416 10.2267C23.826 10.3685 23.6814 10.4536 23.5369 10.5387C23.4791 10.5671 23.3635 10.5387 23.2768 10.482C23.1033 10.3685 22.9588 10.2267 22.8143 10.0848C22.4963 9.7728 22.4963 9.60259 22.8143 9.31892C22.9588 9.20544 23.0744 9.14871 23.2189 9.17708C23.3924 8.95013 23.5369 8.77993 23.6525 8.60972C23.3057 8.58135 23.2768 8.52462 23.3057 8.12746C23.3057 7.95726 23.0166 7.61684 22.8432 7.64521C22.5541 7.67358 22.4674 7.64521 22.6119 7.36153C22.6986 7.16296 22.3807 6.82254 22.1494 6.82254C21.8314 6.82254 21.6869 6.6807 21.7447 6.36866C21.7736 6.11334 21.5424 5.77293 21.3111 5.8013C20.9932 5.85803 20.8775 5.65946 20.8197 5.48925C20.7908 5.37578 20.9353 5.1772 21.0221 5.03536C21.1955 5.007 21.3978 4.89352 21.5135 4.95026C21.6869 5.03536 21.8314 5.1772 21.8314 5.43252C21.8025 5.8013 22.0916 6.08498 22.4674 6.17008C22.5541 6.19845 22.6697 6.22682 22.7275 6.28355C22.8721 6.42539 23.0166 6.5956 23.1611 6.73744C23.19 6.70907 23.19 6.70907 23.19 6.6807C23.2189 6.70907 23.3057 6.73744 23.3057 6.76581C23.3057 6.79417 23.3057 6.82254 23.2768 6.85091C23.5658 7.13459 23.8549 7.44664 24.115 7.73031C24.1729 7.78705 24.2307 7.84379 24.2596 7.92889C24.5775 7.50337 24.4619 7.64521 25.3002 6.56723C25.3869 6.45376 25.4736 6.34029 25.5604 6.22682C25.5314 6.22682 25.4736 6.19845 25.4447 6.19845C25.3291 6.19845 25.2424 6.22682 25.1268 6.22682C25.0689 6.22682 24.9533 6.19845 24.9244 6.14171C24.8955 6.08498 24.9244 5.9715 24.9822 5.94314C25.04 5.85803 25.1557 5.8013 25.2424 5.71619C25.3002 5.65946 25.358 5.63109 25.4158 5.57435C25.5025 5.51762 25.5604 5.46088 25.5604 5.37578C25.5314 5.37578 25.4736 5.40415 25.4158 5.43252C25.3002 5.43252 25.1268 5.43252 24.9822 5.43252C24.8666 5.43252 24.7799 5.31904 24.8955 5.26231C25.0689 5.1772 25.2424 5.12047 25.4158 5.06373C25.2713 4.92189 25.2135 4.92189 24.9822 5.06373C24.8666 5.14884 24.7221 5.23394 24.6064 5.31904C24.4041 5.46088 24.2885 5.40415 24.1439 5.23394C23.9994 5.0921 23.9416 4.95026 24.115 4.78005C24.1729 4.72332 24.2307 4.69495 24.2596 4.63821C24.2596 4.55311 24.2596 4.49637 24.2596 4.43964C24.2596 4.41127 24.1729 4.3829 24.115 4.3829C23.8549 4.3829 23.6236 4.24106 23.5658 4.01412C23.508 3.81555 23.6525 3.73044 23.7682 3.64534C23.9416 3.5035 24.0861 3.27656 24.3463 3.36166C24.6354 3.47513 24.8088 3.81555 24.751 4.15596C24.7221 4.32617 24.8088 4.41127 24.9533 4.35454C25.2135 4.2978 25.3002 4.43964 25.4158 4.55311C25.5604 4.72332 25.676 4.86516 25.8205 5.03536C25.8494 5.06373 25.8783 5.0921 25.9072 5.14884C26.0229 4.35454 25.7627 3.53187 25.2424 2.93614C25.0111 2.99288 24.7799 3.10635 24.5197 3.13472C24.1729 3.19145 24.1439 3.13472 24.0283 2.76593C24.0283 2.73757 24.0283 2.62409 24.0283 2.53899C24.0283 2.39715 23.9994 2.25531 24.1728 2.22694C23.8549 2.0851 23.508 2 23.1033 2C22.8432 2 22.6119 2.11347 22.4096 2.28368C22.4096 2.28368 21.5424 3.16308 20.0682 3.70207C20.2127 3.84391 20.3572 3.98575 20.4728 4.12759C20.6174 4.26943 20.7619 4.41127 20.5596 4.55311C20.4439 4.63821 20.2416 4.75169 20.1549 4.72332C20.0392 4.66658 19.8658 4.41127 19.8947 4.32617C19.9525 4.12759 19.8947 3.98575 19.7791 3.87228C19.7502 3.92902 19.7213 3.95738 19.6924 3.98575C19.6056 4.04249 19.5189 4.04249 19.4322 4.07086C19.3744 4.09922 19.2588 4.15596 19.2299 4.18433C19.201 4.43964 18.9697 4.46801 18.8252 4.55311C18.6806 4.63821 18.5072 4.89353 18.4494 4.86516C18.276 4.78005 18.1025 4.75169 17.9002 4.78005C17.6978 4.80842 17.4666 4.86516 17.2642 4.89352C17.1775 4.89352 17.033 4.92189 17.0041 4.89352C16.8306 4.63821 16.6283 4.78005 16.426 4.78005C16.3392 4.78005 16.1947 4.75169 16.1658 4.69495C16.108 4.52474 16.2525 4.49637 16.3681 4.46801C16.5705 4.41127 16.7728 4.3829 16.8017 4.12759C16.8017 4.09922 16.8885 4.04249 16.9463 4.01412C17.2642 3.92902 17.5822 3.87228 17.9002 3.78718C17.8424 3.78718 17.7845 3.81555 17.7267 3.81555C17.64 3.81555 17.5533 3.78718 17.4666 3.75881C17.4955 3.67371 17.5244 3.5886 17.5533 3.5035C17.5822 3.44676 17.64 3.39003 17.6689 3.36166C17.8713 3.19145 17.9869 3.24819 18.1025 3.56023C18.1314 3.64534 18.1603 3.70207 18.1603 3.73044C18.1892 3.73044 18.2181 3.73044 18.2181 3.75881C18.4783 4.07086 18.7963 3.84391 19.0564 3.81555C19.2299 3.75881 19.4033 3.73044 19.5478 3.70207C19.49 3.61697 19.4322 3.53187 19.3744 3.47513C19.3455 3.41839 19.2588 3.39003 19.1431 3.44676C19.0275 3.47513 18.9697 3.39003 19.0275 3.27656C19.0564 3.21982 19.0853 3.16308 19.1142 3.13472C18.9408 2.96451 18.7674 2.82267 18.5939 2.7092C18.565 2.7092 18.5361 2.7092 18.5072 2.7092C18.3916 2.7092 18.3049 2.65246 18.3049 2.56736C18.2471 2.56736 18.1892 2.59573 18.1025 2.62409C17.7845 2.7092 17.4666 2.7943 17.1775 2.85104C16.8017 2.96451 16.4549 3.04961 16.108 3.13472C15.9345 3.16308 15.8189 3.13472 15.7611 2.96451C15.7322 2.8794 15.7322 2.82267 15.7322 2.76593C15.6166 2.85104 15.5299 2.93614 15.4142 3.02124C15.4142 3.21982 15.3275 3.30492 15.0963 3.36166C15.0674 3.36166 15.0674 3.36166 15.0674 3.36166C14.9517 3.5035 14.8072 3.67371 14.7205 3.84391C14.4892 3.75881 14.258 3.70207 14.0556 3.61697C14.0267 3.64534 13.9978 3.64534 13.94 3.67371C13.6798 3.73044 13.4486 3.81555 13.1884 3.87228C13.0439 3.90065 12.8705 3.95738 12.7548 3.75881C12.6681 3.61697 12.5525 3.67371 12.4947 3.81555C12.4658 3.90065 12.3791 3.95738 12.3213 4.04249C12.2634 3.92902 12.1767 3.84391 12.1478 3.73044C12.1478 3.64534 12.2056 3.53187 12.2634 3.5035C12.5236 3.41839 12.7838 3.33329 13.0439 3.27656C13.1017 3.27656 13.1595 3.24819 13.1884 3.24819C12.408 2.73757 11.9744 2.31205 11.9744 2.28368C11.8009 2.0851 11.5408 2 11.2806 2C8.93921 2 7.63842 4.72332 9.14155 6.48213C11.3095 9.31892 11.3384 9.6026 11.483 9.80117C11.6853 10.1416 12.1189 11.021 12.1189 11.1061C12.1478 11.0494 12.2056 10.9926 12.2923 10.9359C12.4947 10.7657 12.5236 10.7657 12.7838 11.0494C12.8127 11.1061 12.8705 11.1345 12.8994 11.1912C14.1713 11.3614 15.3853 11.6451 16.4838 11.9288C16.6283 11.7018 16.4838 11.56 16.3681 11.4181C16.2814 11.333 16.2236 11.2196 16.1658 11.1061C16.1658 11.0777 16.2525 11.021 16.3103 10.9643C16.3103 10.9643 16.3392 10.9643 16.3392 10.9926C16.715 11.2763 17.033 11.5883 17.2353 12.0139C17.2353 12.0422 17.2353 12.0422 17.2642 12.0706C17.351 12.0706 17.4377 12.0706 17.5244 12.0422C18.9986 11.6167 20.7619 11.2196 22.5252 11.1061C22.4963 11.0777 22.4963 11.0777 22.4674 11.021C22.4385 10.9359 22.583 10.8224 22.6408 10.7089C22.8143 10.7657 22.9877 10.7657 23.0166 10.8508C23.1033 11.021 22.9299 11.0494 22.8143 11.0777C23.2478 11.0494 24.1729 11.0777 24.2307 11.0494C24.115 10.6522 24.2885 10.0848 24.433 9.6877ZM22.9877 5.91477C22.901 5.91477 22.8432 5.82967 22.7564 5.77293C22.8143 5.68783 22.8721 5.60272 22.9299 5.57435C22.9877 5.54599 23.0744 5.63109 23.19 5.71619C23.1033 5.82967 23.0166 5.94314 22.9877 5.91477ZM22.265 2.7092C22.3228 2.62409 22.4096 2.59573 22.4674 2.51062C22.4963 2.48225 22.5541 2.42552 22.583 2.39715C22.8721 2.17021 23.1611 2.25531 23.2768 2.59573C23.3057 2.65246 23.2768 2.7943 23.2189 2.7943C23.0744 2.85104 22.901 2.90777 22.7275 2.93614C22.6408 2.96451 22.5252 2.96451 22.4096 2.96451C22.3228 2.96451 22.2072 2.93614 22.1783 2.8794C22.1783 2.8794 22.2072 2.76593 22.265 2.7092ZM21.3978 3.61697C21.4267 3.67371 21.4267 3.81555 21.3689 3.84391C21.3111 3.87228 21.1955 3.90065 21.1377 3.84391C21.0799 3.81555 21.1088 3.70207 21.1088 3.56023C21.2533 3.5886 21.3689 3.5886 21.3978 3.61697ZM15.5009 3.36166C15.6166 3.39003 15.7033 3.36166 15.7611 3.41839C15.79 3.44676 15.79 3.5886 15.7322 3.61697C15.6166 3.70207 15.472 3.75881 15.3564 3.84391C15.3564 3.84391 15.2986 3.81555 15.2986 3.78718C15.3564 3.64534 15.4142 3.5035 15.5009 3.36166ZM9.77749 4.04249C9.92202 4.01412 10.0087 3.98575 10.0666 4.01412C10.0666 3.95738 10.0955 3.92902 10.1822 3.92902C10.3845 3.90065 10.5869 4.2127 10.558 4.3829C10.558 4.41127 10.5291 4.46801 10.5002 4.49637C10.5002 4.60985 10.6158 4.80842 10.4134 4.83679C10.2978 4.86516 10.1533 4.72332 9.97984 4.66658C9.63296 4.75169 9.51734 4.69495 9.45952 4.43964C9.40171 4.18433 9.43062 4.12759 9.77749 4.04249ZM13.4197 8.07073C13.3908 8.04236 13.4197 7.90052 13.4197 7.81542C13.5353 7.84379 13.622 7.87215 13.7666 7.92889C13.7666 8.07073 13.7955 8.15583 13.7955 8.2693C13.6509 8.21257 13.5353 8.15583 13.4197 8.07073ZM14.5759 9.03524C14.4892 9.14871 14.3736 9.23381 14.258 9.29055C14.2002 9.31892 14.0845 9.29055 13.9978 9.29055C13.9978 9.20544 13.9978 9.12034 14.0267 9.03524C14.0556 8.9785 14.1134 8.95013 14.1713 8.8934C14.2002 8.86503 14.258 8.80829 14.3447 8.77993C14.4025 8.77993 14.4603 8.77993 14.5181 8.83666C14.4892 8.77993 14.547 8.72319 14.547 8.63809C14.6338 8.72319 14.6916 8.75156 14.6916 8.77993C14.6916 8.83666 14.6627 8.8934 14.6338 8.95013C14.6049 8.92177 14.547 8.92177 14.5181 8.8934C14.6049 8.95013 14.6049 9.03524 14.5759 9.03524ZM15.3853 10.3118C15.3564 10.3969 15.3853 10.5104 15.3564 10.5955C15.2408 10.5387 15.1252 10.482 15.0095 10.4253C14.9228 10.3685 14.865 10.2834 14.8072 10.2267C14.6049 9.99975 14.6049 9.91464 14.8939 9.6877C14.9228 9.6877 15.1252 9.60259 15.1541 9.63096C15.2697 9.7728 15.3564 9.94301 15.4431 10.1416C15.472 10.17 15.3853 10.2267 15.3853 10.3118ZM15.0384 9.43239C15.0384 9.37565 15.0674 9.31892 15.0963 9.23381C15.1252 9.26218 15.2119 9.26218 15.2119 9.31892C15.2408 9.37565 15.2119 9.43239 15.2119 9.48912C15.183 9.51749 15.1541 9.54586 15.1252 9.57423C15.0963 9.54586 15.0384 9.48912 15.0384 9.43239ZM15.8189 4.89352C15.6166 4.97863 15.4431 5.06373 15.3853 5.29068C14.865 5.43252 14.3158 5.57435 13.7955 5.71619H13.7666C13.3619 5.29068 12.9861 5.68783 12.5814 5.74456C12.5236 5.74456 12.4369 5.8013 12.408 5.85803C12.2923 6.28355 11.8877 6.19845 11.5986 6.28355C11.5408 6.31192 11.4252 6.25518 11.3673 6.19845C11.2228 6.05661 11.1072 6.08498 11.0494 6.28355C10.9916 6.48213 10.9048 6.48213 10.7314 6.36866C10.6447 6.31192 10.5291 6.28355 10.4134 6.28355C10.1533 6.31192 9.92202 6.39702 9.66187 6.45376C9.69077 6.56723 9.77749 6.70907 9.57515 6.76581C9.54624 6.76581 9.43062 6.70907 9.43062 6.6807C9.3728 6.48213 9.54624 6.48213 9.66187 6.45376C9.63296 6.34029 9.57515 6.19845 9.71968 6.11334C9.77749 6.08498 9.8064 5.99987 9.86421 5.94314C9.97984 5.68783 10.3267 5.60272 10.558 5.74456C10.6447 5.8013 10.7603 5.85803 10.8181 5.82967C11.165 5.77293 11.5408 5.68783 11.8877 5.60272C12.0322 5.57435 12.2056 5.51762 12.2345 5.31904C12.2634 5.1772 12.408 5.12047 12.4947 5.26231C12.6392 5.43251 12.7838 5.37578 12.9283 5.34741C13.2173 5.29068 13.5353 5.20557 13.8244 5.14884C13.9978 5.0921 14.1424 5.06373 14.2002 4.83679C14.2291 4.69495 15.2986 4.3829 15.3853 4.49637C15.5009 4.63821 15.6166 4.72332 15.79 4.69495C15.8189 4.69495 15.8767 4.75169 15.9056 4.80842C15.8767 4.80842 15.8478 4.89352 15.8189 4.89352ZM17.0619 9.12034C16.8595 9.09197 16.6283 9.26218 16.5994 9.00687C16.5705 8.77993 16.8017 8.80829 16.9463 8.77993C17.0908 8.72319 17.2064 8.77993 17.2064 8.92177C17.2064 8.9785 17.1197 9.06361 17.0619 9.12034ZM17.5244 6.25518C17.5533 6.19845 17.6111 6.14171 17.6689 6.08498C17.7267 6.05661 17.7845 5.99987 17.8424 5.99987C17.9002 5.99987 18.0158 6.05661 18.0158 6.05661C17.9869 6.14171 17.9869 6.25518 17.9291 6.28355C17.8424 6.36866 17.6978 6.39702 17.5822 6.42539C17.5533 6.36866 17.4955 6.31192 17.5244 6.25518ZM18.1025 7.3899C18.0158 7.33316 17.9291 7.27643 17.8135 7.19132C17.9002 7.07785 17.9291 6.96438 17.9869 6.87928C18.0447 6.96438 18.1603 7.02112 18.1892 7.13459C18.1892 7.19132 18.1314 7.3048 18.1025 7.3899ZM19.7791 7.92889C19.8658 8.1842 19.7791 8.38278 19.6056 8.55298C19.4611 8.69482 19.3455 8.66645 19.2299 8.52462C18.9986 8.24094 18.9986 8.07073 19.3455 7.81542C19.3744 7.81542 19.4033 7.75868 19.4322 7.75868C19.5478 7.70195 19.6924 7.61684 19.808 7.64521C19.9525 7.67358 19.7502 7.84379 19.7791 7.92889ZM19.6924 6.14171C19.5478 6.22682 19.49 6.08498 19.4033 5.99987C19.201 5.77293 19.3166 5.51762 19.2588 5.26231C19.2588 5.1772 19.4611 5.03536 19.5767 4.97863C19.6635 4.95026 19.7791 5.03536 19.9236 5.0921C19.9814 5.34741 20.0971 5.60272 20.0682 5.82967C20.0682 5.94314 19.8369 6.05661 19.6924 6.14171ZM20.2416 8.8934C20.2127 8.92177 20.1549 8.8934 20.0682 8.86503C20.126 8.77993 20.1549 8.72319 20.1549 8.72319C20.2127 8.72319 20.2705 8.75156 20.3283 8.77993C20.2994 8.83666 20.2994 8.8934 20.2416 8.8934ZM21.0799 9.88627C20.8486 9.88627 20.6463 9.82954 20.415 9.80117C20.3861 9.80117 20.3861 9.74443 20.3861 9.74443C20.5017 9.60259 20.5885 9.46076 20.7041 9.34728C20.7619 9.31892 20.9064 9.37565 20.9642 9.40402C21.051 9.54586 21.1088 9.6026 21.1088 9.6877C21.1666 9.74443 21.1088 9.88627 21.0799 9.88627ZM21.34 7.67358C21.2533 7.64521 21.1666 7.61684 21.1088 7.64521C20.8775 7.70195 20.8197 7.61684 20.9064 7.41827C20.9353 7.3899 20.9353 7.33316 20.9353 7.3048C20.9353 7.19132 20.9353 7.07785 20.9353 6.99275C21.051 7.04948 21.1666 7.10622 21.2822 7.16296C21.3111 7.19132 21.34 7.21969 21.3978 7.24806C21.4267 7.33316 21.4557 7.41827 21.5135 7.53174C21.5424 7.67358 21.5135 7.73031 21.34 7.67358ZM21.8603 8.24094C22.1205 8.1842 22.3518 8.15583 22.6119 8.12746C22.6697 8.12746 22.6986 8.15583 22.7564 8.1842C22.7275 8.24094 22.6986 8.29767 22.6697 8.32604C22.4385 8.41114 22.1783 8.49625 21.8603 8.58135C21.8314 8.55298 21.7447 8.49625 21.7158 8.43951C21.7158 8.35441 21.8025 8.24094 21.8603 8.24094ZM22.2361 10.7657C22.2072 10.794 22.1783 10.8224 22.0916 10.9075C22.0627 10.9075 21.8892 11.021 21.8314 10.9926C21.7158 10.8792 21.658 10.7373 21.5713 10.5955C21.5713 10.5671 21.6869 10.4536 21.7447 10.4536C21.8314 10.4253 21.9471 10.4536 22.0627 10.482C22.1494 10.5104 22.2361 10.5387 22.3228 10.5387C22.2939 10.5955 22.265 10.6806 22.2361 10.7657ZM22.4385 8.86503C22.3228 8.92177 22.1783 8.9785 22.0338 9.00687C22.0049 8.9785 21.976 8.95013 21.976 8.92177C22.0338 8.80829 22.0916 8.66645 22.1783 8.55298C22.265 8.43951 22.3807 8.41114 22.4963 8.52462C22.583 8.66645 22.5541 8.77993 22.4385 8.86503ZM23.5369 10.8791C23.508 10.8508 23.4502 10.8508 23.3635 10.794C23.4213 10.7373 23.4502 10.6806 23.4791 10.6238C23.508 10.6522 23.5947 10.6806 23.5947 10.7089C23.6236 10.7657 23.5658 10.8224 23.5369 10.8791Z" fill="#171026"/>
<path d="M17.495 2.11334C17.2928 2.05662 17.0905 2.05662 16.9171 2.11334C16.8882 2.11334 16.5703 2.22678 16.1658 2.48201C16.3681 2.42529 16.5703 2.34021 16.7437 2.56708C16.8304 2.65216 16.9749 2.59544 16.9749 2.48201C16.9749 2.25513 17.1483 2.22678 17.2928 2.19842C17.3795 2.17006 17.4662 2.17006 17.5528 2.1417C17.5239 2.11334 17.495 2.11334 17.495 2.11334Z" fill="#171026"/>
</svg>
