<svg width="79" height="36" viewBox="0 0 79 36" fill="none" xmlns="http://www.w3.org/2000/svg">
<g clip-path="url(#clip0_181_2785)">
<path d="M31.9473 33.8205C31.7969 33.4054 31.5244 33.1223 31.3271 32.7544C30.8479 32.1223 30.2842 31.5752 29.7204 31.028C29.5231 30.962 29.4386 30.7733 29.2507 30.6978C29.1285 30.5374 28.9312 30.4525 28.7715 30.3299C28.452 30.0846 28.1044 29.8771 27.7473 29.6695C27.0708 29.2356 26.2346 28.962 25.4078 28.6789C24.5152 28.462 23.5756 28.3016 22.5984 28.1695C21.6307 28.028 20.6629 27.8959 19.93 27.5091C19.5072 27.3865 19.1971 27.1507 18.8307 26.962C18.4924 26.7356 18.126 26.5469 17.8441 26.2639C17.4965 26.0563 17.2804 25.7073 17.0079 25.4242C16.914 25.2356 16.7542 25.1223 16.6791 24.9148C16.5851 24.8771 16.5569 24.7639 16.5005 24.6978C16.4348 24.6223 16.4348 24.4714 16.322 24.4431C16.2656 24.8299 16.2844 25.2922 16.322 25.6884C16.369 25.8582 16.3878 26.0657 16.4348 26.2356C16.463 26.3865 16.6039 26.6318 16.5475 26.745C13.616 26.594 11.4738 25.6601 9.61341 24.4337C8.69262 23.8205 7.90337 23.0752 7.1705 22.2733C6.85104 21.8299 6.50339 21.4054 6.22152 20.9148C5.93025 20.4337 5.68596 19.8865 5.42287 19.3771C4.99067 18.2733 4.58665 17.1412 4.43631 15.7544C4.239 14.462 4.28598 12.811 4.57725 11.6129C4.6806 10.9525 4.89671 10.3959 5.08462 9.82046C5.20677 9.55631 5.33831 9.29216 5.45106 9.01857C5.61079 8.79216 5.69535 8.48084 5.89266 8.28272C6.42823 7.27329 7.22687 6.51857 8.04431 5.79216C8.92751 5.14122 9.93286 4.61291 11.1449 4.29216C12.31 4.02801 13.8979 3.98084 15.1569 4.25442C17.7126 4.78272 19.6387 5.93367 21.2548 7.40537C22.8897 8.84876 24.1487 10.679 25.0131 12.9054C25.9057 15.0186 26.2158 18.311 25.4172 20.7073C25.0883 20.5186 24.7595 20.3393 24.4306 20.1601C24.036 20.0469 23.6508 19.9148 23.1904 19.8676C22.636 19.8582 22.091 19.8676 21.734 20.0469C22.4575 19.9714 23.04 20.1695 23.491 20.3393C23.7541 20.4431 23.9044 20.5091 24.1111 20.6318C24.5152 20.8676 24.8722 21.0846 25.1729 21.4054C26.0279 22.1601 26.6386 23.1601 26.9299 24.4808C26.9299 24.5186 26.9769 24.5091 26.9675 24.4431C27.0051 24.4337 27.0238 24.4054 27.0426 24.3676C27.0896 24.311 27.146 24.2544 27.193 24.1884C27.2869 24.0752 27.3809 23.962 27.4467 23.8205C27.644 23.5846 27.8037 23.3205 27.954 23.0469C28.3017 22.5374 28.5648 21.9525 28.8654 21.3959C29.3822 20.2073 29.805 18.9242 30.0681 17.4714C30.5943 14.245 29.9647 11.1884 28.8654 8.93367C27.7379 6.66008 26.1594 4.83933 24.1205 3.4714C22.0629 2.11291 19.6575 1.11291 16.3502 1.01857C16.3314 0.952536 16.3032 1.02801 16.2375 1.01857C14.4898 0.96197 13.0805 1.20725 11.6805 1.56574C11.0322 1.78272 10.3557 1.9714 9.78253 2.26386C9.12482 2.48084 8.59866 2.83933 7.99733 3.10348C7.78122 3.31103 7.45237 3.4148 7.22687 3.61291C6.9356 3.75442 6.7195 3.98084 6.42823 4.12235C5.95844 4.53744 5.46046 4.90537 5.00006 5.32989C4.54906 5.74499 4.15444 6.21669 3.72223 6.65065C3.65646 6.80159 3.54371 6.90537 3.43096 7.01857C3.35579 7.16008 3.26184 7.28272 3.13969 7.3865C3.09271 7.55631 2.94238 7.62235 2.886 7.79216C2.76386 7.8865 2.73567 8.07518 2.59473 8.16008C2.47259 8.46197 2.25648 8.67895 2.11555 8.96197C1.94642 9.23555 1.81488 9.53744 1.64576 9.80159C1.38267 10.4148 1.1008 11.0091 0.884696 11.6695C0.659197 12.311 0.47128 12.9903 0.339739 13.7261C0.198802 14.4148 0.0672605 15.311 0.0860521 16.0374C-0.00790603 16.3016 0.0672605 16.7922 0.0860521 17.1035C0.0860521 17.1601 0.0484688 17.1789 0.0484688 17.2167C0.0484688 17.5657 0.142427 17.9903 0.161219 18.2073C0.236385 19.0091 0.377322 19.7544 0.602822 20.4054C0.743759 21.1318 1.04443 21.6978 1.26053 22.3488C1.58938 22.8959 1.81488 23.5469 2.20951 24.0374C2.50078 24.6129 2.91419 25.0657 3.30882 25.5374C3.73163 25.9903 4.15444 26.4525 4.66181 26.8205C5.592 27.6318 6.68191 28.2827 7.87518 28.8393C10.102 29.9242 13.4281 30.6318 16.416 30.4525C17.177 30.3488 17.9475 30.2544 18.6428 30.0846C19.2817 29.8488 20.024 29.7073 20.7944 29.6129C22.5514 29.4997 24.0736 29.6601 25.4266 30.0563C26.7983 30.4242 27.9822 30.9808 29.0064 31.7073C29.5513 32.028 30.0023 32.4431 30.4627 32.8393C30.9325 33.245 31.3083 33.745 31.7405 34.1978C31.7969 34.3676 31.9097 34.4903 31.9942 34.6412C32.107 34.7639 32.0506 35.0469 32.3231 35.0091C32.4922 34.8393 32.2949 34.594 32.2855 34.3865C32.1164 34.2073 32.0788 33.9714 31.9473 33.8205Z" fill="#FCB316"/>
<path d="M25.1243 23.783C25.0867 23.783 25.0773 23.8113 25.0491 23.8207C24.9833 23.9622 25.0115 24.1886 25.0491 24.3301C25.2464 24.7358 25.3122 25.2641 25.7444 25.4339C25.9511 25.3679 25.9323 25.066 25.9229 24.7735C25.829 24.415 25.6974 24.0943 25.4813 23.8584C25.331 23.8018 25.2276 23.7075 25.1243 23.783ZM22.5686 24.8113C22.5686 24.7924 22.5404 24.7735 22.531 24.8113C22.174 24.7641 22.0518 24.9622 21.8733 25.1037C21.5632 25.9245 22.0612 26.7264 22.935 26.7169C23.2827 26.632 23.4988 26.4056 23.5552 26.0188C23.5082 25.3301 23.2169 24.8867 22.5686 24.8113Z" fill="#FCB316"/>
<path d="M43.6341 22.1986C43.7751 22.7929 44.0757 23.2174 44.414 23.6137C44.7522 24.0099 45.1469 24.3401 45.6261 24.5853C46.0771 24.8684 46.5656 25.1042 47.1294 25.2646C47.4019 25.3589 47.6649 25.4721 48.0032 25.5099C48.2381 25.642 48.52 25.708 48.5388 26.0476C48.5294 26.4533 48.2569 26.6042 47.9092 26.6797C47.5616 26.6042 47.1294 26.6137 46.8381 26.4816C46.1052 26.3967 45.5133 26.1608 44.8932 25.9438C43.7093 25.4816 42.7133 24.8118 41.8865 23.991C41.7174 23.708 41.4825 23.4816 41.304 23.208C41.1255 22.9344 41.0033 22.6042 40.8154 22.3306C39.3684 22.142 38.3819 21.4816 37.5175 20.7174C36.7188 19.8023 36.0799 18.708 35.8168 17.2552C35.5068 15.8589 35.6007 14.1137 35.9672 12.7646C36.7658 10.1514 38.4383 8.41554 41.5952 8.17969C42.4691 8.20799 43.2301 8.31176 43.9254 8.57591C44.6301 8.83063 45.2972 9.30233 45.8234 9.7929C45.8703 9.83063 45.8891 9.84006 45.9173 9.88723C46.0301 10.0476 46.3025 10.274 46.4529 10.4721C46.4811 10.5099 46.4717 10.5759 46.4999 10.6231C46.5562 10.708 46.6408 10.7457 46.6972 10.8212C46.7254 10.8684 46.716 10.925 46.7442 10.9627C46.7817 11.0193 46.8287 11.1042 46.8851 11.208C46.9039 11.2457 46.9697 11.274 46.979 11.3023C47.0636 11.4627 47.1012 11.6608 47.1764 11.8401C47.2515 12.0287 47.3549 12.1891 47.4207 12.3778C47.6086 12.9344 47.7307 13.5948 47.8059 14.274C47.9938 16.2363 47.6086 17.991 46.8851 19.2929C46.5468 19.9721 46.0771 20.5287 45.5227 21.0004C45.0153 21.5382 44.32 21.8589 43.6341 22.1986ZM41.304 9.91554C40.8812 9.94384 40.6275 10.142 40.2798 10.2552C40.0543 10.4627 39.7725 10.6231 39.6033 10.8872C39.3215 11.0476 39.2463 11.4061 39.0208 11.6137C38.8329 12.0853 38.6544 12.6137 38.5322 13.2269C38.4195 13.8306 38.3443 14.5099 38.3349 15.1797C38.3255 16.8589 38.6825 18.5287 39.3496 19.5193C39.7443 20.0004 40.2235 20.3967 40.806 20.6891C41.1442 20.7174 41.4073 20.8306 41.7738 20.8401C41.9805 20.7646 42.3187 20.8401 42.4503 20.6891C42.7509 20.708 42.8167 20.5099 43.0798 20.491C43.2207 20.3495 43.3711 20.2363 43.5684 20.1514C43.7469 19.9533 43.916 19.7552 44.1039 19.5665C44.1979 19.425 44.2543 19.2269 44.3952 19.1231C45.2408 17.5004 45.3348 14.5287 44.7804 12.642C44.5737 11.9533 44.2824 11.3967 43.9536 10.9344C43.5966 10.5665 43.1737 10.2552 42.6946 10.0099C42.3093 9.92497 41.9429 9.8212 41.4355 9.86837C41.4073 9.86837 41.3791 9.8778 41.3885 9.91554C41.3697 9.91554 41.3416 9.91554 41.304 9.91554ZM51.5548 8.54761C52.3159 8.57591 53.2085 8.48157 53.885 8.59478C54.0353 8.83063 53.9789 9.11365 53.9789 9.3778C54.0353 12.9533 53.9789 16.7929 53.9789 20.4438C53.9789 20.7363 53.9883 21.0382 53.9789 21.3212C53.9695 21.5665 54.0353 21.8306 53.885 22.057C53.5467 22.142 53.0581 22.1042 52.6259 22.1042C52.1655 22.1042 51.7145 22.1703 51.4139 22.0099C51.3293 17.6891 51.3293 13.0287 51.4139 8.69856C51.4327 8.62308 51.4796 8.57591 51.5548 8.54761ZM57.3802 8.54761H59.6634C59.8701 8.83063 59.9359 9.25516 60.0016 9.67025C60.6875 12.2929 61.364 14.925 61.9936 17.6137C62.1439 17.6325 62.0969 17.4533 62.1439 17.3684C62.2097 17.3023 62.1721 17.142 62.2379 17.0759C62.266 16.8589 62.3976 16.7457 62.3882 16.491C62.5573 16.1608 62.6137 15.708 62.7734 15.3684C62.9707 14.5759 63.2338 13.8401 63.4593 13.0759C63.6754 12.2835 63.9667 11.5665 64.1358 10.7363C64.4553 10.0665 64.5304 9.15139 64.9157 8.54761H65.8834C66.2311 9.20799 66.3626 10.0853 66.6633 10.7929C66.8606 11.5853 67.1331 12.3023 67.3398 13.0853C67.819 14.6042 68.3169 16.1042 68.7491 17.6703C68.9465 17.3778 68.9465 16.8872 69.0874 16.5476C69.172 16.1608 69.2471 15.7646 69.3787 15.425C69.7545 13.8778 70.1115 12.3212 70.5437 10.8401C70.7035 10.0665 70.8632 9.27403 71.1263 8.59478C71.69 8.50988 72.5545 8.50988 73.1182 8.59478C73.1652 9.17025 72.9021 9.7929 72.733 10.3023C72.639 10.925 72.4135 11.4061 72.2914 12.0099C71.9437 13.1136 71.6806 14.2835 71.3236 15.3778C71.0511 16.5476 70.6847 17.6231 70.4028 18.7929C70.2149 19.3306 70.0833 19.925 69.9142 20.5004C69.7263 21.0287 69.6605 21.6797 69.3787 22.1137H68.0163C67.6686 21.5004 67.5465 20.6703 67.2364 20.0193C66.5599 17.8684 65.8083 15.8023 65.1506 13.6325C64.9251 13.8684 64.925 14.3495 64.7653 14.6514C64.662 15.0193 64.5586 15.3872 64.4271 15.7269C64.2392 16.4721 63.9573 17.1042 63.7976 17.8684C63.5251 18.5382 63.3278 19.2835 63.1211 20.0193C62.8392 20.6608 62.7358 21.4816 62.3882 22.0665C62.0311 22.1797 61.4674 22.0854 61.0258 22.1137C60.6875 21.7269 60.65 21.0287 60.4432 20.5004C60.2835 19.9533 60.1708 19.3495 59.9641 18.8401C59.701 17.6514 59.3064 16.6042 59.0433 15.425C58.6956 14.3306 58.395 13.1891 58.0755 12.057C57.897 11.5193 57.7654 10.9438 57.5869 10.3967C57.5024 9.81176 57.1077 9.28346 57.2487 8.64195C57.2675 8.59478 57.3238 8.56648 57.3802 8.54761ZM76.5571 8.54761C77.3181 8.57591 78.2013 8.48157 78.8872 8.59478C79.0564 9.10422 78.9812 9.65139 78.9812 10.1986V20.4344C78.9812 20.991 79.047 21.5287 78.8872 22.0476C78.3611 22.1042 77.5906 22.1325 76.9423 22.0948C76.7544 22.0853 76.5289 22.142 76.4067 22.0004C76.2376 21.491 76.3128 20.9533 76.3128 20.3872V10.2552C76.3128 9.64195 76.2564 9.04761 76.4067 8.64195C76.4443 8.59478 76.5007 8.56648 76.5571 8.54761Z" fill="#FCB316"/>
</g>
<defs>
<clipPath id="clip0_181_2785">
<rect width="79" height="36" fill="white"/>
</clipPath>
</defs>
</svg>
