<svg width="50" height="50" viewBox="0 0 50 50" fill="none" xmlns="http://www.w3.org/2000/svg">
<path d="M30.4839 22.1608V22.1161C30.4727 20.3946 29.8357 17.723 26.8857 14.772C23.9245 11.8098 21.2538 11.1726 19.5217 11.1615H19.477L16.6611 8.33337L13.8116 11.1838H13.7669C12.046 11.2062 9.36418 11.8433 6.43647 14.772C3.4976 17.7119 2.84948 20.3946 2.82713 22.1272V22.172L0 25L2.83831 27.8393V27.884C2.84948 29.6054 3.48642 32.277 6.43647 35.2281C9.3977 38.1903 12.0684 38.8274 13.8004 38.8386H13.8451L16.6723 41.6667L19.5217 38.8163H19.5664C21.2873 38.7939 23.9692 38.1568 26.8969 35.2281C29.8357 32.2882 30.4839 29.6054 30.5062 27.8728V27.8281L33.3333 25L30.4839 22.1608ZM20.3486 38.2574L20.0358 38.2909L29.981 28.3423L29.9363 28.6553C29.7463 30.1196 29.0088 32.3776 26.5281 34.8592C24.5502 36.8601 22.4606 38.0003 20.3486 38.2574ZM16.6164 37.5978C15.6889 37.0613 15.4542 36.4688 15.5101 36.2006C15.5772 35.9099 16.0018 35.7534 16.6499 35.7534C17.2757 35.7534 17.7003 35.9211 17.7674 36.2006C17.8456 36.5136 17.555 37.0836 16.717 37.5978L16.6611 37.6314L16.6164 37.5978ZM14.7503 38.7939C15.4319 38.7045 16.0688 38.5145 16.6387 38.235L16.6834 38.2126L16.7281 38.235C17.298 38.5033 17.9238 38.6821 18.5943 38.7716L18.8177 38.7939L16.6611 40.9513L14.5268 38.8163L14.7503 38.7939ZM19.2647 38.3132C18.6054 38.2909 17.9797 38.1791 17.4098 37.9667L17.2198 37.8997L17.3762 37.7767C18.0691 37.2401 18.4155 36.603 18.2814 36.0888C18.2032 35.7758 17.8903 35.2616 16.6723 35.2616C15.4319 35.2616 15.119 35.787 15.0408 36.1C14.9067 36.6253 15.2643 37.2625 15.9906 37.7991L16.1471 37.922L15.9571 37.9891C15.3872 38.2015 14.7614 38.3244 14.091 38.3468H14.0463L3.34116 27.6381V27.5934C3.3635 26.945 3.48642 26.3191 3.69874 25.749L3.76578 25.5589L3.8887 25.7154C4.34685 26.3079 4.87205 26.6432 5.35255 26.6432C5.59839 26.6432 6.41413 26.5203 6.41413 25C6.41413 23.4574 5.60957 23.3345 5.36373 23.3345C4.88323 23.3345 4.33568 23.6922 3.8887 24.3182L3.76578 24.4858L3.69874 24.2958C3.48642 23.7257 3.3635 23.0997 3.34116 22.4291V22.3843L14.0239 11.698H14.0686C14.7279 11.7204 15.3537 11.8321 15.9236 12.0445L16.1135 12.1116L15.9571 12.2346C15.2643 12.7711 14.9179 13.4083 15.052 13.9225C15.1302 14.2355 15.4431 14.7496 16.6611 14.7496C17.9014 14.7496 18.2143 14.2243 18.2925 13.9113C18.4266 13.3859 18.0691 12.7488 17.3427 12.2122L17.1863 12.0892L17.3762 12.0222C17.9461 11.8098 18.5719 11.6868 19.2424 11.6645H19.2871L29.9922 22.3732V22.4179C29.9698 23.0662 29.8469 23.6922 29.6346 24.2623L29.5676 24.4523L29.4446 24.2958C28.9865 23.7034 28.4613 23.368 27.9808 23.368C27.7349 23.368 26.9192 23.491 26.9192 25.0112C26.9192 25.5254 27.0086 25.9278 27.1874 26.2185C27.3662 26.5091 27.6456 26.6768 27.9696 26.6768C28.4501 26.6768 28.9977 26.3191 29.4446 25.6931L29.5676 25.5254L29.6346 25.7154C29.8469 26.2855 29.9698 26.9115 29.9922 27.5822V27.6269L19.3094 38.3132H19.2647ZM13.007 38.2909C10.8951 38.0338 8.80545 36.8824 6.79406 34.8704C4.82736 32.903 3.64287 30.7568 3.39703 28.6665L3.3635 28.3535L13.3311 38.3244L13.007 38.2909ZM2.87183 27.1574L0.715164 25L2.86066 22.865L2.883 23.0886C2.9724 23.7816 3.15119 24.4188 3.43055 24.9777L3.4529 25.0224L3.43055 25.0671C3.16236 25.6372 2.9724 26.2632 2.883 26.9339L2.87183 27.1574ZM12.9735 11.7427L13.2864 11.7092L3.34116 21.6578L3.38585 21.3448C3.57582 19.8693 4.31333 17.6113 6.79406 15.1297C8.7831 13.14 10.8616 11.9998 12.9735 11.7427ZM4.03397 25.0224L4.06749 24.9665C4.51447 24.2064 5.05084 23.8487 5.36373 23.8487C5.44195 23.8487 5.66544 23.8487 5.81071 24.2511C5.9001 24.5194 5.92245 24.8324 5.92245 25.0112C5.92245 25.3577 5.86658 26.1402 5.36373 26.1402C5.12907 26.1402 4.59269 25.9166 4.07867 25.0783L4.03397 25.0224ZM16.7058 12.4022C17.6333 12.9388 17.8679 13.5312 17.812 13.7995C17.745 14.0901 17.3204 14.2466 16.6723 14.2466C16.0465 14.2466 15.6219 14.079 15.5548 13.7995C15.4766 13.4865 15.7671 12.9164 16.6052 12.4022L16.6611 12.3687L16.7058 12.4022ZM18.5831 11.2173C17.9014 11.3068 17.2645 11.4968 16.6946 11.7763L16.6499 11.7986L16.6052 11.7763C16.0353 11.508 15.4095 11.3291 14.7391 11.2397L14.5156 11.2173L16.6723 9.05996L18.8066 11.195L18.5831 11.2173ZM20.3151 11.7204C22.4271 11.9775 24.5167 13.1288 26.5281 15.1409C28.4948 17.1082 29.6793 19.2545 29.9251 21.3448L29.9587 21.6578L20.0022 11.6756L20.3151 11.7204ZM29.2882 24.9889L29.2547 25.0448C28.8077 25.8049 28.2713 26.1626 27.9584 26.1626C27.8132 26.1626 27.6902 26.0843 27.6009 25.939C27.5115 25.7937 27.4109 25.5254 27.4109 25C27.4109 24.6535 27.4668 23.871 27.9696 23.871C28.2043 23.871 28.7406 24.0946 29.2547 24.933L29.2882 24.9889ZM29.8693 24.9777L29.8916 24.933C30.1598 24.3629 30.3498 23.7369 30.4392 23.0662L30.4727 22.8426L32.6293 25L30.4839 27.1462L30.4615 26.9227C30.3721 26.2296 30.1933 25.5925 29.914 25.0336L29.8693 24.9777Z" fill="#D76700"/>
<path d="M17.5 25.0001H47.5M47.5 25.0001L36.6667 14.1667M47.5 25.0001L36.6667 35.8334" stroke="#171026" stroke-width="2" stroke-linecap="round" stroke-linejoin="round"/>
</svg>
