<svg width="50" height="50" viewBox="0 0 50 50" fill="none" xmlns="http://www.w3.org/2000/svg">
<path d="M19.5161 27.8392V27.8839C19.5273 29.6054 20.1643 32.277 23.1143 35.228C26.0755 38.1902 28.7462 38.8274 30.4783 38.8385H30.523L33.3389 41.6666L36.1884 38.8162H36.2331C37.954 38.7938 40.6358 38.1567 43.5635 35.228C46.5024 32.2881 47.1505 29.6054 47.1729 27.8728V27.828L50 25L47.1617 22.1607V22.116C47.1505 20.3946 46.5136 17.723 43.5635 14.7719C40.6023 11.8097 37.9316 11.1726 36.1996 11.1614H36.1549L33.3277 8.3333L30.4783 11.1837H30.4336C28.7127 11.2061 26.0308 11.8432 23.1031 14.7719C20.1643 17.7118 19.5161 20.3946 19.4938 22.1272V22.1719L16.6667 25L19.5161 27.8392ZM29.6514 11.7426L29.9642 11.7091L20.019 21.6577L20.0637 21.3447C20.2537 19.8804 20.9912 17.6224 23.4719 15.1408C25.4498 13.1399 27.5394 11.9997 29.6514 11.7426ZM33.3836 12.4022C34.3111 12.9387 34.5458 13.5312 34.4899 13.7994C34.4228 14.0901 33.9982 14.2466 33.3501 14.2466C32.7243 14.2466 32.2997 14.0789 32.2326 13.7994C32.1544 13.4864 32.445 12.9164 33.283 12.4022L33.3389 12.3686L33.3836 12.4022ZM35.2497 11.2061C34.5681 11.2955 33.9312 11.4855 33.3613 11.765L33.3166 11.7874L33.2719 11.765C32.702 11.4967 32.0762 11.3179 31.4057 11.2284L31.1823 11.2061L33.3389 9.0487L35.4732 11.1837L35.2497 11.2061ZM30.7353 11.6868C31.3946 11.7091 32.0203 11.8209 32.5902 12.0333L32.7802 12.1003L32.6238 12.2233C31.9309 12.7599 31.5845 13.397 31.7186 13.9112C31.7968 14.2242 32.1097 14.7384 33.3277 14.7384C34.5681 14.7384 34.881 14.213 34.9592 13.9C35.0933 13.3747 34.7357 12.7375 34.0094 12.2009L33.8529 12.078L34.0429 12.0109C34.6128 11.7985 35.2386 11.6756 35.909 11.6532H35.9537L46.6588 22.3619V22.4066C46.6365 23.055 46.5136 23.6809 46.3013 24.251L46.2342 24.4411L46.1113 24.2846C45.6531 23.6921 45.1279 23.3568 44.6474 23.3568C44.4016 23.3568 43.5859 23.4797 43.5859 25C43.5859 26.5426 44.3904 26.6655 44.6363 26.6655C45.1168 26.6655 45.6643 26.3078 46.1113 25.6818L46.2342 25.5142L46.3013 25.7042C46.5136 26.2743 46.6365 26.9003 46.6588 27.5709V27.6157L35.9761 38.302H35.9314C35.2721 38.2796 34.6463 38.1679 34.0764 37.9555L33.8865 37.8884L34.0429 37.7654C34.7357 37.2289 35.0821 36.5917 34.948 36.0775C34.8698 35.7645 34.5569 35.2504 33.3389 35.2504C32.0986 35.2504 31.7857 35.7757 31.7075 36.0887C31.5734 36.6141 31.9309 37.2512 32.6573 37.7878L32.8137 37.9108L32.6238 37.9778C32.0539 38.1902 31.4281 38.3132 30.7576 38.3355H30.7129L20.0078 27.6268V27.5821C20.0302 26.9338 20.1531 26.3078 20.3654 25.7377L20.4324 25.5477L20.5554 25.7042C21.0135 26.2966 21.5387 26.632 22.0192 26.632C22.2651 26.632 23.0808 26.509 23.0808 24.9888C23.0808 24.4746 22.9914 24.0722 22.8126 23.7815C22.6338 23.4909 22.3544 23.3232 22.0304 23.3232C21.5499 23.3232 21.0023 23.6809 20.5554 24.3069L20.4324 24.4746L20.3654 24.2846C20.1531 23.7145 20.0302 23.0885 20.0078 22.4178V22.3731L30.6906 11.6868H30.7353ZM36.993 11.7091C39.1049 11.9662 41.1945 13.1176 43.2059 15.1296C45.1726 17.097 46.3571 19.2432 46.603 21.3335L46.6365 21.6465L36.6689 11.6756L36.993 11.7091ZM47.1282 22.8426L49.2848 25L47.1393 27.135L47.117 26.9114C47.0276 26.2184 46.8488 25.5812 46.5694 25.0223L46.5471 24.9776L46.5694 24.9329C46.8376 24.3628 47.0276 23.7368 47.117 23.0661L47.1282 22.8426ZM37.0265 38.2573L36.7136 38.2908L46.6588 28.3422L46.6141 28.6552C46.4242 30.1307 45.6867 32.3887 43.2059 34.8703C41.2169 36.86 39.1384 38.0002 37.0265 38.2573ZM45.966 24.9776L45.9325 25.0335C45.4855 25.7936 44.9492 26.1513 44.6363 26.1513C44.5581 26.1513 44.3346 26.1513 44.1893 25.7489C44.0999 25.4806 44.0775 25.1676 44.0775 24.9888C44.0775 24.6423 44.1334 23.8598 44.6363 23.8598C44.8709 23.8598 45.4073 24.0834 45.9213 24.9217L45.966 24.9776ZM33.2942 37.5978C32.3667 37.0612 32.1321 36.4688 32.188 36.2005C32.255 35.9099 32.6796 35.7534 33.3277 35.7534C33.9535 35.7534 34.3781 35.921 34.4452 36.2005C34.5234 36.5135 34.2329 37.0836 33.3948 37.5978L33.3389 37.6313L33.2942 37.5978ZM31.4169 38.7827C32.0986 38.6932 32.7355 38.5032 33.3054 38.2237L33.3501 38.2014L33.3948 38.2237C33.9647 38.492 34.5905 38.6709 35.2609 38.7603L35.4844 38.7827L33.3277 40.94L31.1934 38.805L31.4169 38.7827ZM29.6849 38.2796C27.5729 38.0225 25.4833 36.8712 23.4719 34.8591C21.5052 32.8918 20.3207 30.7455 20.0749 28.6552L20.0413 28.3422L29.9978 38.3244L29.6849 38.2796ZM20.7118 25.0111L20.7453 24.9552C21.1923 24.1951 21.7287 23.8374 22.0416 23.8374C22.1868 23.8374 22.3098 23.9157 22.3991 24.061C22.4885 24.2063 22.5891 24.4746 22.5891 25C22.5891 25.3465 22.5332 26.129 22.0304 26.129C21.7957 26.129 21.2594 25.9054 20.7453 25.067L20.7118 25.0111ZM20.1307 25.0223L20.1084 25.067C19.8402 25.6371 19.6502 26.2631 19.5608 26.9338L19.5273 27.1574L17.3707 25L19.5161 22.8538L19.5385 23.0773C19.6279 23.7704 19.8067 24.4075 20.086 24.9664L20.1307 25.0223Z" fill="#D76700"/>
<path d="M32.5 24.9999L2.5 24.9999M2.5 24.9999L13.3333 35.8333M2.5 24.9999L13.3333 14.1666" stroke="#171026" stroke-width="2" stroke-linecap="round" stroke-linejoin="round"/>
</svg>
