<svg width="53" height="36" viewBox="0 0 53 36" fill="none" xmlns="http://www.w3.org/2000/svg">
<g clip-path="url(#clip0_181_2746)">
<path d="M18.5208 25.9662L21.1724 10.2672H25.4137L22.7601 25.9662H18.5208ZM38.0834 10.6057C37.2433 10.2876 35.9265 9.94629 34.2823 9.94629C30.0912 9.94629 27.1393 12.0755 27.114 15.1272C27.0904 17.383 29.2216 18.6415 30.8304 19.3924C32.4814 20.1621 33.0363 20.6527 33.0283 21.3398C33.0178 22.3922 31.71 22.8727 30.4908 22.8727C28.7933 22.8727 27.8915 22.6348 26.4986 22.0489L25.9518 21.7994L25.3567 25.3137C26.3474 25.7521 28.1791 26.1316 30.0813 26.1513C34.5397 26.1513 37.434 24.0464 37.4669 20.7875C37.4827 19.0015 36.3528 17.6426 33.9058 16.522C32.4234 15.7958 31.5155 15.3112 31.5251 14.5758C31.5251 13.9232 32.2936 13.2255 33.9542 13.2255C35.3409 13.2037 36.3458 13.5089 37.1286 13.8269L37.5086 14.0081L38.0834 10.6057ZM48.9978 10.267H45.7205C44.7053 10.267 43.9454 10.5465 43.4997 11.5689L37.2007 25.9559H41.6545C41.6545 25.9559 42.3825 24.0215 42.5472 23.5967C43.0339 23.5967 47.3605 23.6034 47.979 23.6034C48.1059 24.1531 48.495 25.9559 48.495 25.9559H52.4306L48.9978 10.2665V10.267ZM43.798 20.4045C44.1488 19.4999 45.4879 16.0159 45.4879 16.0159C45.4629 16.0576 45.8361 15.1069 46.0502 14.5175L46.3368 15.871C46.3368 15.871 47.1489 19.6185 47.3187 20.4042H43.798V20.4045ZM14.9203 10.267L10.768 20.973L10.3256 18.7974C9.55251 16.2894 7.14413 13.5721 4.45166 12.2118L8.24853 25.9412L12.736 25.9361L19.4132 10.2668L14.9203 10.2667" fill="#215BAE"/>
<path d="M6.89337 10.2666H0.0542105L0 10.5932C5.32079 11.8927 8.84136 15.0331 10.3031 18.8068L8.81601 11.5925C8.55934 10.5984 7.8147 10.3016 6.89353 10.267" fill="#F2AE14"/>
</g>
<defs>
<clipPath id="clip0_181_2746">
<rect width="53" height="36" fill="white"/>
</clipPath>
</defs>
</svg>
